<svg width="1489" height="1481" viewBox="0 0 1489 1481" fill="none" xmlns="http://www.w3.org/2000/svg">
<path fill-rule="evenodd" clip-rule="evenodd" d="M905.539 1262.79C801.022 1301.71 678.637 1300.96 579.323 1250.03C487.522 1202.95 469.498 1083.63 402.723 1004.93C332.151 921.743 188.646 886.272 178.558 777.646C168.531 669.663 296.626 605.48 357.291 515.695C417.28 426.911 443.548 315.954 531.661 255.055C635.743 183.12 765.899 111.857 886.645 149.836C1007.12 187.731 1041.53 337.844 1117.06 439.187C1189.64 536.589 1314.49 609.816 1319.88 731.17C1325.27 852.571 1218.37 944.077 1143.73 1039.84C1075.19 1127.78 1009.99 1223.89 905.539 1262.79Z" fill="#C8B2D8" fill-opacity="0.3"/>
<path fill-rule="evenodd" clip-rule="evenodd" d="M1217.13 1029.59C1165.29 1128.34 1073.66 1209.47 965.717 1237.84C865.936 1264.07 772.872 1187.26 670.612 1173.23C562.538 1158.4 432.008 1227.78 351.986 1153.64C272.438 1079.93 324.972 946.63 310.208 839.282C295.61 733.13 241.101 632.979 266.057 528.817C295.536 405.776 344.878 265.832 460.136 213.51C575.136 161.305 700.961 250.108 824.846 275.151C943.913 299.22 1085.75 270.404 1170.77 357.165C1255.83 443.959 1237.31 583.454 1245.66 704.581C1253.33 815.817 1268.94 930.903 1217.13 1029.59Z" fill="#C8B2D8"/>
<path fill-rule="evenodd" clip-rule="evenodd" d="M637.98 206.457C737.274 179.064 849.812 189.614 937.083 244.471C1017.75 295.179 1024.73 406.403 1079.82 484.195C1138.05 566.41 1267.23 610.601 1267.76 711.354C1268.29 811.509 1145.27 860.245 1082.23 937.965C1019.88 1014.82 986.782 1114.79 900.811 1163.72C799.258 1221.52 673.77 1276.61 565.738 1231.94C457.948 1187.38 438.378 1046.49 377.052 947.173C318.112 851.714 209.143 774.288 213.957 662.204C218.773 550.076 324.498 474.496 400.879 392.4C471.023 317.008 538.75 233.833 637.98 206.457Z" fill="#9162A4"/>
</svg>
