<svg width="87" height="11" viewBox="0 0 87 11" fill="none" xmlns="http://www.w3.org/2000/svg">
<path fill-rule="evenodd" clip-rule="evenodd" d="M23.1885 6.47786C19.4507 7.47191 15.1353 8.46118 10.9839 8.7082C7.43555 8.91903 4.00821 8.59157 1.20287 7.19828C0.807421 7.0021 0.312209 7.13696 0.0983447 7.50001C-0.115845 7.86276 0.0315108 8.31704 0.426963 8.51352C3.48724 10.033 7.21876 10.4305 11.0892 10.2002C15.3153 9.94898 19.7086 8.95311 23.5213 7.94471C23.9637 8.7668 24.8798 9.53328 26.4936 10.0988C28.9722 10.9675 32.3566 10.9568 35.9218 10.4672C41.0927 9.75757 46.6551 8.06523 50.2315 6.86274C50.3782 6.8137 50.5966 6.73565 50.8639 6.63277C50.9454 6.79785 51.0367 6.96054 51.1378 7.12023C52.0148 8.51203 53.5666 9.63736 55.1477 10.0393C65.1759 12.5878 76.8797 9.53418 86.409 7.04905C86.8394 6.93631 87.0904 6.52243 86.9698 6.12559C86.8459 5.72874 86.396 5.49817 85.9624 5.61091C76.7004 8.02667 65.3291 11.0746 55.5813 8.59814C54.3816 8.29311 53.2145 7.42825 52.5494 6.372C52.4744 6.25417 52.4092 6.13365 52.3473 6.01134C53.6611 5.41413 55.2064 4.58157 56.0378 3.69039C56.8919 2.77679 57.1038 1.80158 56.3605 0.880491C55.7215 0.0930843 54.7533 0.026095 53.7459 0.434303C52.6603 0.871518 51.542 1.89367 51.1802 2.37335C50.5021 3.26931 50.2869 4.24125 50.4108 5.18894C50.0913 5.31275 49.8318 5.40485 49.6717 5.45868C46.1736 6.63456 40.7367 8.29432 35.6806 8.98842C32.4273 9.4352 29.337 9.49471 27.0752 8.70222C26.1105 8.36399 25.4731 7.96924 25.1272 7.51109C25.8099 7.32389 26.4681 7.13967 27.097 6.96382C28.3408 6.61602 30.9303 6.04035 32.7804 5.0143C34.2517 4.19848 35.2493 3.0887 35.1913 1.6975C35.1616 0.982764 34.7107 0.505766 33.9931 0.238412C32.9209 -0.160824 31.0665 0.0323604 30.376 0.166934C28.2817 0.574244 25.4865 2.26031 24.1036 4.1602C23.5516 4.9183 23.2233 5.71139 23.1885 6.47786ZM24.9088 6.01074C25.5005 5.84745 26.0724 5.68716 26.6217 5.53345C27.7826 5.20867 30.2094 4.6928 31.937 3.73464C32.8518 3.22744 33.5987 2.61977 33.5625 1.75461C33.5596 1.68733 33.4868 1.66819 33.4226 1.64068C33.3232 1.59851 33.2094 1.5695 33.0881 1.54677C32.2676 1.39306 31.1653 1.54168 30.7141 1.6296C28.9569 1.97142 26.6194 3.39641 25.4591 4.99066C25.214 5.3274 25.0187 5.67041 24.9088 6.01074ZM52.0213 4.50052C52.7874 4.13897 53.5894 3.70175 54.2219 3.22595C54.5577 2.97325 54.8413 2.71339 55.0206 2.44364C55.1706 2.22055 55.2292 1.99205 55.0499 1.77135C54.9782 1.68194 54.8706 1.68015 54.7598 1.6969C54.6424 1.71484 54.5218 1.75311 54.4012 1.80246C53.6057 2.12364 52.7842 2.87397 52.5201 3.22595C52.2104 3.63416 52.0571 4.066 52.0213 4.50052Z" fill="#C8B2D8"/>
</svg>
