<svg width="18" height="26" viewBox="0 0 18 26" fill="none" xmlns="http://www.w3.org/2000/svg">
<path d="M8.21226 0.123819C7.11917 0.207382 6.00792 0.523466 5.03466 1.01758C3.42589 1.84231 1.92606 3.3755 1.13075 5.02133C0.0558103 7.23392 0.00860018 10.006 1.00001 12.2695C1.78806 14.0643 3.30968 15.6847 5.00561 16.5348C5.73192 16.8981 6.6507 17.1961 7.42422 17.3232L7.70385 17.3705V18.653V19.9355H6.25849H4.8095L4.72235 20.0299L4.63519 20.1244V21.1707V22.2171L4.72235 22.3116L4.8095 22.406H6.25486H7.70022L7.71111 23.8775L7.722 25.3453L7.80553 25.4288C7.88542 25.5124 7.89995 25.5124 8.9422 25.5233L9.99535 25.5342L10.1007 25.4252L10.2096 25.3198V23.8629V22.406H11.6731H13.1403L13.2274 22.3116L13.3146 22.2171V21.1707V20.1244L13.2274 20.0299L13.1403 19.9355L11.684 19.9282L10.2278 19.9173V18.6493V17.385L10.718 17.2833C11.5823 17.1016 12.1706 16.9018 12.9042 16.5348C13.7104 16.1315 14.4004 15.6338 15.0432 14.9944C16.4305 13.6101 17.2911 11.9243 17.5708 10.0206C17.6579 9.42836 17.6579 8.12042 17.5708 7.54638C17.2766 5.6099 16.4813 4.05127 15.0723 2.64524C13.6196 1.18834 11.9164 0.359974 9.95904 0.152884C9.51236 0.105654 8.64079 0.0911217 8.21226 0.123819ZM10.2677 2.7288C11.5678 3.00129 12.719 3.68795 13.6269 4.72341C14.72 5.97685 15.203 7.35745 15.1376 9.05414C15.0723 10.7254 14.4404 12.1133 13.2056 13.2831C12.2396 14.1951 11.1102 14.7473 9.84646 14.9253C9.39978 14.9871 8.45195 14.9762 7.97984 14.9035C5.77913 14.5657 3.78541 12.8726 3.09541 10.7545C2.863 10.0424 2.81942 9.72628 2.82305 8.74532C2.82305 8.00415 2.83394 7.8443 2.90294 7.52821C3.1862 6.24207 3.77815 5.19935 4.73687 4.28743C5.6956 3.38277 6.80322 2.83779 8.06337 2.65977C8.619 2.57621 9.71209 2.61254 10.2677 2.7288Z" fill="#F18BAB"/>
</svg>
