<svg width="110" height="112" viewBox="0 0 110 112" fill="none" xmlns="http://www.w3.org/2000/svg">
<path d="M30.4419 0.538979C29.7396 3.36433 30.294 6.47542 31.4758 9.11081C32.4646 10.9435 34.3634 12.0179 36.2172 12.8136C37.5111 13.4255 39.5774 13.9292 40.0663 15.41C39.9589 15.4895 40.0274 15.6568 40.1512 15.6164C40.2539 15.6958 40.3629 15.5767 40.3069 15.4466C41.7425 13.7938 43.1034 12.0911 44.4752 10.3892C44.898 10.6352 44.5056 9.79126 44.4168 9.66669C42.2135 6.1383 37.4916 6.62334 34.1057 5.04133C32.0636 4.16001 31.2508 2.56476 30.6085 0.555329C30.5742 0.499273 30.4855 0.486817 30.4419 0.538979Z" fill="#F18BAB"/>
<path d="M36.6623 10.0904C37.2112 10.7911 38.2233 10.9141 38.924 10.366C39.6247 9.8179 39.7477 8.805 39.1996 8.10431C38.6515 7.40362 37.6386 7.28061 36.9379 7.8287C36.2372 8.37758 36.1142 9.38969 36.6623 10.0904Z" stroke="white" stroke-width="0.79997"/>
<path d="M38.9242 10.3662L40.2898 12.1117" stroke="white" stroke-width="0.79997"/>
<path d="M40.4119 10.7305L38.9202 11.8983" stroke="white" stroke-width="0.79997"/>
<path d="M29.4397 29.1211C34.498 22.9792 39.5562 16.8372 44.6136 10.6952C44.7359 10.4967 45.1096 10.2834 44.8986 10.0397C44.8192 9.96493 44.6744 9.96104 44.6012 10.0498C39.6309 16.0851 34.6607 22.1196 29.6904 28.155C29.5472 28.4259 28.8971 28.8494 29.1423 29.1313C29.2225 29.206 29.3665 29.2091 29.4397 29.1211Z" fill="black"/>
<path d="M55.3692 59.0051C47.2294 68.7689 39.4354 31.5893 36.6326 26.6112C35.8097 26.1316 35.1409 25.4333 34.7431 24.5613C33.8874 24.6921 33.0481 23.9221 32.6285 23.2378C32.2984 22.6282 32.2571 21.3848 33.1665 21.3249C33.0793 20.7199 33.3456 20.1259 34.0174 20.0091C34.005 19.521 34.1514 19.0484 34.6115 18.8359C34.6668 18.8654 34.7244 18.7837 34.6761 18.744C34.6481 18.4762 34.8014 18.1554 35.0405 18.0231C35.0397 18.0231 35.0397 18.0231 35.0397 18.0231C35.0973 17.9927 35.1565 17.9639 35.2164 17.9374C35.2343 17.9678 35.2382 18.0059 35.2242 18.0378C35.2382 18.0059 35.2343 17.9678 35.2164 17.9374C35.5333 17.7833 35.8867 17.9359 36.2238 17.9032C36.986 17.8899 37.7537 17.8923 38.512 17.9584C38.5104 17.9584 38.5089 17.9577 38.5081 17.9577C38.6724 17.9849 38.8374 18.0122 38.9994 18.0503C38.9963 18.0487 38.9932 18.0487 38.99 18.048C39.2758 18.1204 39.5576 18.22 39.8176 18.3594C39.8169 18.3594 39.8169 18.3594 39.8169 18.3586C40.4498 18.7043 40.4646 19.507 40.6678 20.1205C43.7104 30.0913 50.4985 42.7825 54.7292 52.7183C55.5871 54.8772 57.124 56.7216 55.3692 59.0051Z" fill="#4C2D21"/>
<path d="M35.667 22.8097C35.7153 22.6937 35.892 22.7459 35.8725 22.8798C35.8788 22.9919 35.8686 23.1063 35.8367 23.2146C35.8344 23.2247 35.8305 23.2356 35.8274 23.2457C35.2847 24.482 33.4248 22.5411 33.301 21.7883C33.2924 21.6668 33.1702 21.3476 33.3578 21.332C33.5096 21.3383 33.4551 21.529 33.4863 21.6294C33.4738 22.3574 35.6787 24.4867 35.667 22.8097Z" fill="#30160F"/>
<path d="M36.4625 21.6892C36.4618 21.5514 36.6665 21.5452 36.6727 21.6838C36.7592 22.8462 35.7564 23.2269 35.002 22.3549C34.5247 21.8932 34.0381 20.804 34.2616 20.1648C34.3184 20.1166 34.4064 20.1485 34.4297 20.2147C34.4484 20.2699 34.4017 20.326 34.4087 20.3836C34.4422 21.2688 34.8829 22.2288 35.7214 22.6103C36.2944 22.766 36.5007 22.1501 36.4625 21.6892Z" fill="#30160F"/>
<path d="M37.6958 20.6599C37.8717 20.635 37.8398 20.9963 37.8608 21.1123C37.885 21.3692 37.8235 21.6861 37.593 21.8379C37.5774 21.848 37.5603 21.8574 37.5432 21.8651C37.5432 21.8659 37.5432 21.8659 37.5432 21.8659C36.8962 22.0621 36.4439 21.3202 36.2843 20.7907C36.2516 20.6576 36.0624 20.1352 36.2664 20.1064C36.3364 20.0916 36.4034 20.1656 36.3847 20.2341C36.4252 20.6771 36.5887 21.1279 36.8876 21.4619C37.5385 22.0574 37.7705 21.3926 37.6078 20.7798C37.5969 20.7238 37.6413 20.6685 37.6958 20.6599Z" fill="#30160F"/>
<path d="M37.9269 22.3778C37.8708 22.3863 37.814 22.3474 37.807 22.2898C37.6785 21.4451 37.9658 20.6112 38.4026 19.8965C37.4185 19.9674 36.2943 20.162 35.4667 19.4925C35.1413 19.241 34.6656 18.8525 34.7325 18.4111C34.7504 18.3706 34.7691 18.3301 34.7878 18.2904C34.787 18.2912 34.787 18.2912 34.787 18.2919C34.787 18.2912 34.7878 18.2904 34.7878 18.2904C34.7886 18.2888 34.7894 18.2873 34.7901 18.2857C34.7894 18.2865 34.7886 18.288 34.7878 18.2896C34.7893 18.2873 34.7901 18.2849 34.7917 18.2826C34.7909 18.2834 34.7909 18.2842 34.7901 18.2857C34.8368 18.1697 34.9318 18.0825 35.04 18.0241C35.0393 18.0241 35.0393 18.0241 35.0393 18.0241C35.0969 17.9938 35.156 17.9649 35.216 17.9385C35.2448 17.9867 35.2386 18.056 35.1778 18.0872C34.8252 18.3698 34.8976 18.6571 35.1763 18.9576C35.993 19.951 37.3173 19.7961 38.4602 19.6809C38.8697 19.6746 38.496 20.1293 38.4174 20.2998C38.2165 20.6883 38.0499 21.1056 38.0055 21.5432C37.9837 21.7549 37.99 21.9682 38.0055 22.18C38.0211 22.2563 38.0242 22.3637 37.9269 22.3778Z" fill="#30160F"/>
<path d="M38.3444 24.6144C38.4285 24.7195 38.2642 24.8534 38.1793 24.7452C37.5954 23.997 36.6261 23.5524 35.6888 23.5657C35.6716 23.5571 35.6568 23.5431 35.6475 23.526C35.5821 23.2613 36.0298 23.3757 36.1824 23.3788C37.0333 23.5267 37.8243 23.9425 38.3444 24.6144Z" fill="#30160F"/>
<path d="M38.205 23.8258C38.1434 23.6311 37.8141 22.844 38.043 22.7599C38.1006 22.7514 38.1551 22.7919 38.1637 22.8479C38.2135 23.157 38.2797 23.4661 38.4027 23.7549C38.4393 23.8779 38.2548 23.9449 38.205 23.8258Z" fill="#30160F"/>
<path d="M34.6463 24.408C34.633 24.3294 34.7047 24.2834 34.7747 24.2803C34.9686 24.2071 35.0098 23.9619 35.0028 23.7774C34.9997 23.7205 35.0488 23.6707 35.1056 23.6699C35.2917 23.6754 35.199 24.0125 35.1671 24.1246C35.1344 24.3068 34.7747 24.668 34.6463 24.408Z" fill="#30160F"/>
<path d="M37.4801 21.9483C36.5389 22.0215 36.2204 20.7548 36.2469 20.0136C36.2508 19.956 36.3069 19.914 36.3629 19.9194C36.447 19.928 36.4665 20.0144 36.4532 20.0853C36.4641 20.6186 36.5879 21.211 36.9819 21.5925C37.3774 21.8853 37.8577 21.7607 37.7339 21.1939C37.7168 21.0577 37.9192 21.0257 37.9418 21.162C38.0165 21.5217 37.8904 21.9047 37.4801 21.9483Z" fill="#30160F"/>
<path d="M34.6011 23.7083C35.0239 24.2868 34.0826 24.4324 33.7782 24.0688C33.705 24.0049 33.5734 23.8928 33.6692 23.7955C33.7447 23.5931 33.9191 23.358 34.1246 23.291C34.3115 23.3774 34.461 23.5573 34.6011 23.7083Z" fill="white"/>
<path d="M35.4122 22.8433C35.5368 23.0792 35.4262 23.4093 35.1156 23.3455C34.9007 23.2941 34.608 23.2014 34.5029 22.9975C34.432 22.7912 34.8283 22.37 35.0455 22.4455C35.2067 22.5062 35.3173 22.7024 35.4122 22.8433Z" fill="white"/>
<path d="M35.889 21.3904C36.3351 21.8638 36.3943 22.8292 35.5137 22.4041C35.365 22.3005 35.0567 22.0825 35.1003 21.8793C35.1891 21.6037 35.6002 21.1701 35.889 21.3904Z" fill="white"/>
<path d="M37.41 20.7761C37.5314 21.068 37.5688 21.6761 37.0837 21.5219C36.9483 21.483 36.5964 21.1303 36.6571 20.9551C36.7202 20.7511 37.1359 20.6227 37.3298 20.7029C37.3671 20.7107 37.3998 20.7379 37.41 20.7761Z" fill="white"/>
<path d="M36.5381 17.9516C36.6308 17.9501 36.7405 18.0061 36.718 18.1136C36.7032 18.3316 36.7234 18.5503 36.7047 18.7559C36.6455 18.9155 36.3614 18.9061 36.2181 18.9069C35.7868 18.9381 35.2924 18.4912 35.3843 18.0505C35.35 17.8792 35.5509 17.9158 35.6568 17.9205C35.9511 17.9361 36.2446 17.9376 36.5381 17.9516Z" fill="white"/>
<path d="M55.6799 51.733C55.0998 50.4094 54.5743 48.8944 53.4882 47.8955C50.8085 49.5017 48.2346 51.304 45.8647 53.3236C46.9609 55.9924 49.6259 61.9351 52.8195 62.2543C54.6366 62.35 56.5051 60.8233 57.1794 59.2359C58.1183 56.732 56.4296 54.0928 55.6799 51.733Z" fill="white"/>
<path d="M47.3221 53.5075C46.7281 53.6141 46.8916 54.5375 47.4872 54.4308C48.0812 54.3249 47.9169 53.4016 47.3221 53.5075Z" fill="#E6E6E6"/>
<path d="M48.911 52.5231C48.3169 52.6297 48.4804 53.5531 49.076 53.4464C49.67 53.3406 49.5058 52.4172 48.911 52.5231Z" fill="#E6E6E6"/>
<path d="M50.5914 51.491C49.9974 51.5969 50.1616 52.5202 50.7564 52.4143C51.3505 52.3077 51.1862 51.3843 50.5914 51.491Z" fill="#E6E6E6"/>
<path d="M52.0982 50.4215C51.5042 50.5282 51.6685 51.4515 52.2633 51.3449C52.8573 51.239 52.693 50.3156 52.0982 50.4215Z" fill="#E6E6E6"/>
<path d="M53.4085 49.5554C52.8145 49.6613 52.9788 50.5847 53.5736 50.4788C54.1676 50.3721 54.0033 49.4488 53.4085 49.5554Z" fill="#E6E6E6"/>
<path d="M63.086 111.999H48.8728L49.104 75.4072H61.581C65.1094 78.9356 65.8 82.5426 63.652 86.2283L63.086 111.999Z" fill="#7B2D6A"/>
<path d="M51.804 111.999C51.4584 101.395 51.0395 90.7986 51.0847 80.1785C51.0652 79.3291 51.0411 78.4804 51.0216 77.6303C51.0208 77.4816 51.0753 77.3617 51.1306 77.3663C51.1905 77.371 51.2318 77.5026 51.2326 77.6521C51.3758 82.2494 51.3097 86.8405 51.3712 91.4371C51.4942 98.3062 51.8274 105.138 52.0251 111.999H51.804Z" fill="#632457"/>
<path d="M60.1579 86.2403C57.6346 85.5575 54.9408 83.6485 54.6349 80.8714C54.6006 80.683 54.9089 80.7134 54.8482 80.8893C55.1596 83.5123 57.6665 85.2492 60.0108 85.9958C60.1081 86.0278 60.2926 86.0052 60.2794 86.1531C60.27 86.2092 60.214 86.2497 60.1579 86.2403Z" fill="#632457"/>
<path d="M59.3847 86.7952C56.9814 86.2299 54.2775 84.0741 54.0602 81.4831C54.0034 81.445 54.019 81.3679 54.0205 81.3087C54.0182 81.2332 54.0244 81.1297 54.1194 81.1211C54.314 81.1421 54.237 81.4395 54.2845 81.5789C54.3833 82.6696 54.6807 83.0854 55.3386 83.9239C56.3554 85.2209 57.8012 86.2268 59.419 86.5873C59.5521 86.6099 59.5241 86.8154 59.3847 86.7952Z" fill="#632457"/>
<path d="M60.4919 93.6981C60.4475 93.6615 60.4421 93.5954 60.4779 93.5502C60.7745 93.1454 61.1918 92.8238 61.4254 92.3801C60.9466 92.4431 60.4935 92.6697 60.0139 92.6915C59.4237 92.5031 60.7231 92.201 60.9053 92.1146C61.0968 92.0896 61.6021 91.7798 61.694 92.0211C61.701 92.0881 61.6442 92.1364 61.5803 92.1379C61.3545 92.1846 61.845 92.1628 61.5352 92.6237C61.2681 93.0013 60.9232 93.3174 60.6406 93.6841C60.6048 93.7293 60.5355 93.7347 60.4919 93.6981Z" fill="#632457"/>
<path d="M47.6503 65.7645C48.2949 67.883 48.7807 74.2896 49.1038 75.4069H61.5808C61.6166 75.3103 62.1141 62.7523 61.3916 59.5447C60.9276 58.0296 59.956 56.7567 59.1401 55.4207C57.6188 52.9301 52.9911 51.2859 50.8999 53.9789C49.8746 55.2993 47.7709 59.7767 47.665 60.1325C45.5178 60.6269 44.9051 62.7515 45.6844 63.7014C46.0036 64.0984 46.3516 64.4799 46.7674 64.7781C47.1605 65.0405 47.5911 65.2413 47.6503 65.7645Z" fill="white"/>
<path d="M53.4764 67.588C52.0041 66.7611 50.6207 66.1087 48.9047 66.0168C48.7771 66.0052 48.7771 65.8152 48.9071 65.8066C49.8242 65.8643 50.7304 66.0628 51.5814 66.4116C51.7426 66.4933 54.2495 67.5444 53.4764 67.588Z" fill="#E6E6E6"/>
<path d="M50.0548 55.5612C49.8726 55.2451 50.8855 54.0337 51.1759 53.8484C51.2802 53.7604 51.4188 53.9153 51.3152 54.0072C50.8224 54.4206 50.3958 54.9633 50.2035 55.5705C50.1599 55.6095 50.0937 55.604 50.0548 55.5612Z" fill="#E6E6E6"/>
<path d="M55.91 58.0364C65.6785 49.9037 66.6299 87.8798 68.4867 93.2821C69.21 93.9026 69.7417 94.71 69.9753 95.6396C70.8411 95.6653 71.527 96.5738 71.8158 97.3236C72.0307 97.9822 71.8469 99.2131 70.9423 99.1072C70.9181 99.7176 70.5491 100.254 69.8671 100.248C69.7916 100.731 69.5619 101.168 69.0706 101.294C69.0224 101.255 68.95 101.325 68.9912 101.374C68.9702 101.642 68.7608 101.929 68.5023 102.017H68.5031C68.4408 102.036 68.3777 102.054 68.3139 102.069C68.3014 102.036 68.3045 101.998 68.324 101.968C68.3045 101.998 68.3014 102.036 68.3139 102.069C67.9744 102.163 67.6537 101.949 67.3166 101.921C66.5645 101.796 65.8093 101.655 65.0759 101.453C65.0775 101.453 65.0782 101.454 65.0798 101.455C64.9233 101.398 64.766 101.342 64.6127 101.275C64.6158 101.276 64.6189 101.278 64.622 101.279C64.3542 101.156 64.0949 101.007 63.8645 100.822C63.8645 100.823 63.8645 100.823 63.8645 100.823C63.3047 100.369 63.4347 99.5775 63.346 98.9367C62.1548 88.5813 57.77 74.8726 55.4032 64.3357C54.9493 62.0576 53.7714 59.9657 55.91 58.0364Z" fill="#5E3A28"/>
<path d="M55.7535 69.3025C58.6793 68.2055 62.0107 67.3732 64.7068 65.8154C64.1112 62.9916 62.0877 56.1909 59.0039 55.2995C57.2351 54.8775 55.1205 56.0415 54.1707 57.481C52.795 59.7746 54.8651 68.1238 55.7535 69.3025Z" fill="white"/>
<path d="M56.617 67.0498C56.0136 67.0498 56.0121 67.9872 56.617 67.9872C57.2204 67.9872 57.2212 67.0498 56.617 67.0498Z" fill="#E6E6E6"/>
<path d="M58.354 66.3604C57.7506 66.3604 57.7499 67.2977 58.354 67.2977C58.9574 67.2977 58.9589 66.3604 58.354 66.3604Z" fill="#E6E6E6"/>
<path d="M60.1897 65.6387C59.5863 65.6387 59.5856 66.5768 60.1897 66.5768C60.7931 66.5768 60.7946 65.6387 60.1897 65.6387Z" fill="#E6E6E6"/>
<path d="M61.8615 64.8516C61.2582 64.8516 61.2574 65.7889 61.8615 65.7889C62.4657 65.7889 62.4665 64.8516 61.8615 64.8516Z" fill="#E6E6E6"/>
<path d="M63.3038 64.2285C62.7004 64.2285 62.6996 65.1667 63.3038 65.1667C63.9071 65.1667 63.9079 64.2285 63.3038 64.2285Z" fill="#E6E6E6"/>
<path d="M55.7536 69.4192C55.7178 69.4192 55.6828 69.4029 55.6602 69.3733C54.8186 68.2553 52.6363 59.8143 54.0712 57.4218C55.0093 55.9994 57.1713 54.7436 59.0313 55.1873C59.0936 55.2021 59.1325 55.2652 59.1177 55.3275C59.1029 55.3898 59.0399 55.4302 58.9776 55.4139C57.2149 54.9935 55.1611 56.1924 54.2681 57.5456C52.943 59.7559 54.9548 67.8341 55.798 69.1615C56.0619 69.0626 56.3258 68.9614 56.5882 68.8587C56.6482 68.8353 56.7159 68.8641 56.7392 68.9241C56.7626 68.9848 56.733 69.0517 56.6731 69.0751C56.3811 69.1895 56.0884 69.3017 55.7941 69.4122C55.7808 69.4169 55.7668 69.4192 55.7536 69.4192Z" fill="#E6E6E6"/>
<path d="M62.9355 38.9254C63.8667 43.8785 60.7291 44.7964 60.1148 48.4657C59.9739 49.3003 60.3289 50.2066 60.0183 50.9999C59.6438 51.6111 58.9751 50.9999 58.722 50.5865C58.7306 51.6959 57.7917 50.9921 57.4966 50.4362C57.5051 50.9797 57.0209 51.2241 56.5312 51.1533C55.3564 50.9579 54.5054 49.9504 53.7237 49.1259C52.9903 48.2851 52.3979 47.3384 51.814 46.3917C50.5465 44.4188 49.0844 42.5597 48.1711 40.3805C46.382 38.5525 47.036 35.3301 49.2237 34.1225C50.9887 32.8317 53.8016 32.5078 55.4373 34.1007C58.803 32.8932 62.368 35.566 62.9355 38.9254Z" fill="black"/>
<path d="M47.8854 39.7499C46.5168 38.0963 47.0874 35.4897 48.65 34.1475C50.0405 32.9602 51.983 31.9068 53.7728 32.866C54.6199 33.2093 55.2124 33.4873 55.4981 34.4293C55.5347 34.5625 55.3416 34.6224 55.2972 34.4916C55.2303 34.2736 55.133 34.065 54.9983 33.8804C54.6503 33.39 54.0407 33.2226 53.5175 32.9882C51.7432 32.1365 49.8614 33.3316 48.5667 34.5196C47.2299 35.8681 46.8687 38.0005 47.9968 39.5911C48.0497 39.6643 47.9711 39.7733 47.8854 39.7499Z" fill="black"/>
<path d="M59.9943 44.6216C59.9483 44.5889 59.9343 44.5212 59.9686 44.4752C60.5276 43.738 61.029 42.9602 61.4213 42.1256C62.9053 38.5489 63.3179 35.6979 59.1721 33.9882C57.8501 33.6153 56.3989 33.7282 55.2295 34.474C55.1821 34.5503 55.0497 34.5215 55.0404 34.4312C55.0263 34.1953 55.8407 33.943 56.0361 33.8582C57.165 33.4448 58.4341 33.4876 59.5575 33.8979C61.7733 34.9536 63.1271 36.6391 62.5915 39.1928C62.115 41.1345 61.4198 43.0295 60.1406 44.5959C60.1064 44.6426 60.0418 44.6551 59.9943 44.6216Z" fill="black"/>
<path d="M55.2646 48.9619C55.2511 48.9651 55.2359 48.9683 55.2223 48.9715C55.2367 48.9683 55.2511 48.9651 55.2646 48.9619Z" fill="#5E3A28"/>
<path d="M50.692 55.5155C50.8749 54.8856 51.2767 54.3593 51.7453 53.9078C51.5881 52.23 51.7345 50.2174 50.5316 48.8939C50.3549 48.876 50.175 48.8425 49.9991 48.8597C47.6245 48.4151 46.8584 45.6365 46.9946 43.5266C45.3939 43.1272 45.4734 42.1237 46.9503 41.5903C46.9168 40.9877 48.0262 36.775 48.7923 37.271C48.9395 37.2982 48.9363 37.4882 48.9659 37.5824C49.3856 39.1153 50.5184 40.6382 51.975 41.3155C52.6983 40.6226 54.0055 40.7775 54.6112 41.5561C55.547 42.6764 54.6151 44.7295 53.1234 44.6399C53.5134 46.1776 54.1986 47.716 55.5135 48.6697C55.5213 48.6666 55.5299 48.665 55.5384 48.6642C55.7704 48.8449 56.0063 49.0185 56.2477 49.1859C56.7685 50.8185 57.2458 52.4675 57.7246 54.1117C57.7028 54.3297 57.3198 54.4169 57.1672 54.568C56.1426 55.2391 55.1647 55.9974 54.0312 56.4793C52.8976 57.0975 50.087 57.7071 50.692 55.5155Z" fill="#5E3A28"/>
<path d="M50.3311 56.4204C50.2517 55.6667 50.5927 54.952 51.0045 54.3424C51.0987 54.161 51.3097 54.0014 51.2653 53.7788C51.2186 53.5117 51.1556 53.2462 51.1042 52.9792C51.1096 52.934 51.1151 52.8889 51.1229 52.8437C51.1478 52.7892 51.189 52.7456 51.2287 52.7028C51.2272 52.7044 51.2248 52.7067 51.2225 52.709C51.2381 52.6935 51.2544 52.6779 51.27 52.6623C51.2677 52.6647 51.2653 52.667 51.263 52.6693C51.3338 52.6047 51.4101 52.5448 51.4942 52.498C53.3487 52.3618 55.2211 52.3454 57.0632 52.1025C57.2897 52.1773 57.4984 52.3252 57.637 52.5206C57.7288 53.198 57.7872 53.8831 57.9032 54.5542C57.9173 54.6756 56.1141 55.3164 55.123 55.9167C53.7388 56.8307 50.7359 58.9032 50.3311 56.4204Z" fill="white"/>
<path d="M57.1077 51.6428C57.1497 51.6412 57.1949 51.6357 57.2393 51.6357C57.1902 51.6389 57.1412 51.6412 57.0929 51.6435C57.0976 51.6435 57.103 51.6428 57.1077 51.6428Z" fill="white"/>
<path d="M51.8951 53.756C51.8499 53.4991 51.8087 53.2414 51.7682 52.9845C51.7627 52.8669 51.6537 52.6147 51.8546 52.6233C51.9037 52.631 51.9387 52.6731 51.9418 52.7175C51.987 53.0499 52.0446 53.38 52.1006 53.7101C52.1302 53.8425 51.9231 53.89 51.8951 53.756Z" fill="#E6E6E6"/>
<path d="M52.775 53.9353C52.7944 53.7523 52.4098 52.333 52.8092 52.6281C52.8879 53.0361 52.9104 53.4993 52.9852 53.9166C52.9992 54.0513 52.7882 54.0715 52.775 53.9353Z" fill="#E6E6E6"/>
<path d="M53.6437 53.7548C53.5993 53.3741 53.5456 52.9934 53.4981 52.6134C53.5044 52.4811 53.7044 52.4819 53.7083 52.615C53.7605 52.9887 53.808 53.3624 53.8531 53.7361C53.8633 53.8731 53.6601 53.8934 53.6437 53.7548Z" fill="#E6E6E6"/>
<path d="M54.7477 53.6921C54.6777 53.3503 54.6294 53.0038 54.543 52.6659C54.5157 52.5312 54.7135 52.4853 54.7485 52.62C54.8349 52.9579 54.884 53.3043 54.9533 53.6461C54.9805 53.78 54.7789 53.826 54.7477 53.6921Z" fill="#E6E6E6"/>
<path d="M55.6549 53.7281C55.6152 53.4019 55.588 53.0741 55.5553 52.7471C55.5514 52.6739 55.5171 52.5797 55.588 52.5276C55.6565 52.4738 55.7686 52.5377 55.7546 52.6241C55.7904 52.9861 55.8208 53.3481 55.8644 53.7086C55.8745 53.8456 55.6721 53.8651 55.6549 53.7281Z" fill="#E6E6E6"/>
<path d="M56.6195 53.7861C56.5588 53.375 56.512 52.9608 56.4365 52.5521C56.4381 52.5544 56.4381 52.5568 56.4389 52.5591C56.4396 52.5591 56.4396 52.5591 56.4396 52.5591C56.414 52.5015 56.4552 52.433 56.5144 52.4205C56.6421 52.3964 56.6545 52.549 56.6678 52.6393C56.7223 53.0153 56.7783 53.3906 56.8289 53.7674C56.8429 53.9021 56.6319 53.9223 56.6195 53.7861Z" fill="#E6E6E6"/>
<path d="M57.2413 53.4644C57.2538 53.2651 56.94 52.3122 57.2172 52.3612C57.2701 52.3698 57.306 52.4173 57.3044 52.4686C57.3418 52.7536 57.39 53.0417 57.4321 53.325C57.4477 53.4045 57.4726 53.5205 57.3667 53.5438C57.313 53.5563 57.2499 53.5205 57.2413 53.4644Z" fill="#E6E6E6"/>
<path d="M54.219 54.7033C54.0392 54.69 51.635 54.6822 52.3178 54.3521C53.8663 54.5584 55.467 54.5834 56.9844 54.1777C57.7591 54.5343 54.4292 54.7648 54.219 54.7033Z" fill="#E6E6E6"/>
<path d="M48.3408 43.92C48.7052 44.5982 47.5077 45.126 47.1239 44.5577C46.9262 43.9387 47.9507 43.3424 48.3408 43.92Z" fill="#E25349"/>
<path d="M50.3441 41.8207C51.2091 42.586 50.0514 43.9072 49.1794 43.1489C48.3137 42.3844 49.4714 41.0624 50.3441 41.8207Z" fill="#845440"/>
<path d="M53.0002 42.5183C52.8663 42.4109 52.2925 41.746 52.5595 41.6315C52.6662 41.6019 52.6996 41.6962 52.7214 41.7802C52.9924 42.3891 53.6222 42.7713 54.2606 42.8834C54.319 42.8889 54.3665 42.9434 54.3603 43.0026C54.3206 43.2011 54.0458 43.0399 53.9196 43.0236C53.5778 42.9348 53.2664 42.7472 53.0002 42.5183Z" fill="black"/>
<path d="M52.3347 43.0195C52.3082 42.9253 52.3845 42.8802 52.4647 42.863C52.6508 42.7844 52.8112 42.684 52.935 42.5267C52.9941 42.4574 53.0416 42.3173 53.1568 42.3749C53.2075 42.4014 53.2331 42.4714 53.2028 42.522C53.1218 42.7105 52.492 43.2811 52.3347 43.0195Z" fill="black"/>
<path d="M49.4553 40.1724C49.4553 40.7548 48.6604 40.1942 48.3295 40.2705C48.0983 40.269 47.7596 40.3266 47.6826 40.0346C47.463 38.9805 49.3611 39.4608 49.4553 40.1724Z" fill="black"/>
<path d="M47.8487 41.0329C48.1492 40.7012 48.6631 41.1738 48.3579 41.5008C48.0566 41.8324 47.5427 41.3599 47.8487 41.0329Z" fill="black"/>
<path d="M47.1022 44.3158C47.1076 44.2465 47.1847 44.1974 47.2493 44.2247C47.2493 44.2247 47.2493 44.2247 47.2493 44.2239C47.2446 44.2231 47.2407 44.2216 47.2361 44.22C47.8247 44.3111 48.3751 43.8019 48.5612 43.2788C48.5752 43.2211 48.6336 43.1838 48.692 43.197C48.7496 43.211 48.7877 43.2702 48.7737 43.3278C48.5923 43.8829 48.0855 44.3609 47.4992 44.4458C47.3785 44.4505 47.1022 44.4948 47.1022 44.3158Z" fill="black"/>
<path d="M50.983 48.7587C50.9783 48.6209 51.1247 48.6419 51.2197 48.6318C51.4314 48.6092 51.6619 48.5547 51.8604 48.4948C52.305 48.3554 52.7386 48.1818 53.1731 48.0128C53.2758 47.9825 53.4347 47.8564 53.5001 48.0035C53.5203 48.0603 53.4899 48.1211 53.4347 48.1436C53.015 48.269 51.2493 49.1301 50.983 48.7587Z" fill="#30160F"/>
<path d="M57.4139 49.4962C56.1519 49.4728 54.9327 48.8983 54.1611 47.8916C54.1635 47.8955 54.1666 47.8986 54.1689 47.9025C53.5064 47.0554 53.1988 46.0784 53.237 45.0024C53.2448 44.9191 53.2113 44.7984 53.3039 44.7525C53.4815 44.6949 53.4511 44.9191 53.4464 45.0242C53.4316 46.1188 53.68 46.9036 54.3386 47.7787C54.3363 47.7756 54.334 47.7725 54.3324 47.7701C55.0736 48.727 56.229 49.2649 57.431 49.2867C57.5673 49.2992 57.5525 49.504 57.4139 49.4962Z" fill="black"/>
<path d="M51.9172 41.1434C50.9355 40.9978 49.9023 40.5096 49.3815 39.6322C48.9268 38.9089 48.3592 37.5979 48.6123 36.7485C48.7353 36.5593 48.9439 36.8863 48.7703 36.968C48.7345 38.8334 49.9841 40.737 51.9351 40.9332C52.0706 40.9464 52.0558 41.1519 51.9172 41.1434Z" fill="black"/>
<path d="M58.9242 1.3618C58.0008 4.12254 58.3083 7.26788 59.2784 9.98813C60.1192 11.894 61.927 13.1148 63.713 14.0537C64.9548 14.7661 66.9744 15.431 67.3442 16.946C67.2313 17.0161 67.2866 17.1889 67.4135 17.1586C67.5092 17.2458 67.6276 17.136 67.5816 17.0021C69.1426 15.4668 70.6343 13.877 72.1361 12.2887C72.5379 12.5675 72.2132 11.6955 72.1346 11.5639C70.217 7.87281 65.4718 7.98337 62.2213 6.13898C60.359 5.13388 59.7339 3.76051 59.1842 1.81881C59.104 1.674 59.1826 1.24113 58.9242 1.3618Z" fill="#7B2D6A"/>
<path d="M63.7351 11.2188C64.284 11.9195 65.2961 12.0433 65.9968 11.4945C66.6975 10.9464 66.8205 9.93424 66.2724 9.23355C65.7243 8.53285 64.7114 8.40906 64.0107 8.95794C63.31 9.50604 63.187 10.5182 63.7351 11.2188Z" stroke="#ACA4DE" stroke-width="0.79997"/>
<path d="M65.9967 11.4951L67.3623 13.2406" stroke="#ACA4DE" stroke-width="0.79997"/>
<path d="M67.4844 11.8594L65.9927 13.0272" stroke="#ACA4DE" stroke-width="0.79997"/>
<path d="M55.669 29.7749C61.1959 24.0518 66.7236 18.3287 72.2505 12.6048C72.3875 12.4172 72.7768 12.2334 72.5861 11.9734C72.5121 11.8932 72.3689 11.8776 72.2887 11.9601C66.8575 17.5844 61.4264 23.2078 55.9952 28.8321C55.8309 29.0906 55.1489 29.4612 55.3708 29.7617C55.4455 29.8426 55.5888 29.8574 55.669 29.7749Z" fill="black"/>
<path d="M74.4796 63.2855C64.75 71.465 63.6172 33.4936 61.7339 28.1005C61.0083 27.4832 60.4727 26.6781 60.2344 25.7501C59.3687 25.7283 58.6789 24.8229 58.3862 24.0747C58.1682 23.4176 58.3457 22.1859 59.2511 22.2871C59.2722 21.676 59.6389 21.138 60.3209 21.1411C60.394 20.6584 60.6214 20.2193 61.1119 20.0908C61.1609 20.1298 61.2325 20.0589 61.1913 20.0114C61.2115 19.7428 61.4194 19.4548 61.6771 19.366H61.6763C61.7386 19.3458 61.8017 19.3279 61.8655 19.3131C61.878 19.3458 61.8749 19.3839 61.8554 19.4127C61.8756 19.3839 61.878 19.3458 61.8655 19.3131C62.2042 19.2165 62.5257 19.4291 62.8636 19.4563C63.6157 19.5778 64.3717 19.7148 65.1066 19.9133C65.1051 19.9125 65.1035 19.9118 65.1019 19.9118C65.2592 19.9678 65.4165 20.0231 65.5698 20.0893C65.5675 20.0877 65.5644 20.0862 65.5613 20.0854C65.8299 20.2068 66.0891 20.3548 66.3204 20.5377V20.5369C66.8825 20.9885 66.7564 21.7811 66.8482 22.421C68.0892 32.7711 72.5386 46.4587 74.956 56.9839C75.4208 59.2596 76.6089 61.3454 74.4796 63.2855Z" fill="#F28F88"/>
<path d="M61.4524 24.1886C61.5209 24.0827 61.6852 24.1652 61.6424 24.2937C61.6292 24.405 61.5988 24.5156 61.549 24.6168C61.5443 24.6261 61.5388 24.6362 61.5342 24.6456C61.5334 24.6456 61.5334 24.6456 61.5334 24.6464C60.7821 25.7675 59.2927 23.5299 59.3029 22.7669C59.3153 22.6455 59.2522 22.3099 59.4391 22.3278C59.5878 22.3605 59.5006 22.538 59.5131 22.6432C59.3729 23.3579 61.169 25.8414 61.4524 24.1886Z" fill="#C76039"/>
<path d="M62.4333 23.2232C62.4567 23.0877 62.6591 23.1173 62.6412 23.2543C62.5221 24.4143 61.4672 24.6121 60.8786 23.6218C60.4901 23.083 60.202 21.9253 60.5345 21.3352C60.5991 21.2986 60.6801 21.3445 60.6909 21.4138C60.7003 21.4714 60.6442 21.5181 60.6411 21.5773C60.5181 22.4532 60.7836 23.4762 61.5411 23.9994C62.0783 24.254 62.3897 23.6833 62.4333 23.2232Z" fill="#C76039"/>
<path d="M63.8282 22.4291C64.0058 22.4354 63.91 22.7849 63.91 22.9033C63.889 23.1602 63.773 23.4607 63.5199 23.5705H63.5192C63.502 23.5775 63.4841 23.5837 63.4654 23.5884C62.7936 23.6686 62.4798 22.8581 62.4152 22.3092C62.4066 22.1722 62.3124 21.6249 62.518 21.6319C62.5896 21.6303 62.6425 21.7152 62.6114 21.779C62.574 22.222 62.6558 22.6946 62.8909 23.0753C63.4265 23.7768 63.7722 23.1633 63.72 22.5311C63.7185 22.4743 63.773 22.4276 63.8282 22.4291Z" fill="#C76039"/>
<path d="M63.7529 24.1599C63.6969 24.1592 63.6478 24.1101 63.6509 24.0525C63.6727 23.1984 64.1025 22.4285 64.6576 21.8009C63.6774 21.6974 62.536 21.6919 61.8392 20.8869C61.5628 20.5825 61.1634 20.1154 61.3075 19.6934C61.3316 19.6568 61.3573 19.6202 61.3822 19.5844C61.3822 19.5852 61.3814 19.5852 61.3814 19.586C61.3814 19.5852 61.3822 19.5844 61.3822 19.5836C61.3822 19.5844 61.3822 19.5844 61.3822 19.5844C61.383 19.5829 61.3846 19.5813 61.3853 19.5797C61.3846 19.5813 61.3838 19.5821 61.3822 19.5836C61.3846 19.5813 61.3853 19.579 61.3877 19.5774C61.3869 19.5782 61.3861 19.579 61.3853 19.5797C61.4515 19.4746 61.5605 19.4053 61.6773 19.3664H61.6765C61.7388 19.3462 61.8019 19.3283 61.8657 19.3135C61.8852 19.3656 61.8673 19.4326 61.8019 19.4528C61.4056 19.6685 61.4258 19.9643 61.6477 20.3092C62.2768 21.4311 63.6073 21.5113 64.7526 21.5993C65.1566 21.6647 64.709 22.047 64.6023 22.2003C64.336 22.5483 64.0986 22.9298 63.9771 23.3526C63.9187 23.5573 63.8876 23.7683 63.8658 23.9793C63.8674 24.0572 63.8518 24.1638 63.7529 24.1599Z" fill="#C76039"/>
<path d="M63.7707 26.4362C63.8353 26.5546 63.65 26.6573 63.5854 26.5359C63.1416 25.6966 62.2666 25.0886 61.3409 24.9368C61.3253 24.9251 61.3136 24.9087 61.3074 24.89C61.2887 24.6183 61.7099 24.8091 61.8594 24.8394C62.6706 25.1345 63.3768 25.6834 63.7707 26.4362Z" fill="#C76039"/>
<path d="M63.7722 25.6342C63.7465 25.4317 63.5604 24.5987 63.8002 24.5566C63.8578 24.5582 63.9045 24.6072 63.9037 24.6649C63.8983 24.9771 63.9092 25.2931 63.9793 25.5991C63.9933 25.7268 63.8002 25.7603 63.7722 25.6342Z" fill="#C76039"/>
<path d="M60.1662 25.5819C60.1677 25.5025 60.2463 25.4698 60.3156 25.4791C60.5196 25.441 60.6037 25.2066 60.6286 25.0245C60.6356 24.9676 60.6925 24.9272 60.7485 24.9357C60.9307 24.9746 60.7804 25.29 60.7298 25.3951C60.6652 25.5679 60.2471 25.8606 60.1662 25.5819Z" fill="#C76039"/>
<path d="M63.3893 23.6588C62.4496 23.5654 62.3593 22.2621 62.5158 21.5373C62.529 21.4812 62.5921 21.4493 62.6458 21.4649C62.7276 21.4882 62.7315 21.5762 62.7065 21.6439C62.6232 22.171 62.6411 22.7767 62.9611 23.2205C63.299 23.5786 63.7934 23.5405 63.7716 22.9612C63.7786 22.8234 63.9834 22.8281 63.9826 22.9659C63.9919 23.3334 63.8004 23.6884 63.3893 23.6588Z" fill="#C76039"/>
<path d="M60.2453 24.8838C60.5591 25.5277 59.6069 25.5051 59.371 25.094C59.3111 25.0177 59.2005 24.8846 59.3126 24.806C59.4224 24.6199 59.6349 24.419 59.849 24.3887C60.018 24.507 60.134 24.7102 60.2453 24.8838Z" fill="white"/>
<path d="M61.1962 24.1748C61.2772 24.4294 61.1098 24.7354 60.8155 24.617C60.6131 24.5291 60.3414 24.3858 60.2744 24.167C60.2409 23.9522 60.7049 23.6065 60.905 23.7194C61.0529 23.8073 61.1277 24.0199 61.1962 24.1748Z" fill="white"/>
<path d="M61.921 22.8288C62.2768 23.3738 62.1647 24.3345 61.3729 23.7607C61.2452 23.633 60.9797 23.3636 61.0583 23.1713C61.1938 22.916 61.6749 22.561 61.921 22.8288Z" fill="white"/>
<path d="M63.5266 22.4929C63.5951 22.8012 63.5242 23.4061 63.0742 23.1695C62.9473 23.1072 62.6632 22.6977 62.7535 22.5365C62.8523 22.3465 63.2837 22.2936 63.4604 22.4065C63.4954 22.4205 63.5227 22.4532 63.5266 22.4929Z" fill="white"/>
<path d="M63.1651 19.5581C63.257 19.5736 63.3543 19.6476 63.3138 19.7496C63.2609 19.9614 63.2414 20.1801 63.1877 20.3787C63.1013 20.5258 62.8225 20.4666 62.6816 20.4417C62.2519 20.3966 61.8439 19.8703 62.0113 19.4522C62.0082 19.2778 62.1997 19.3486 62.3033 19.372C62.5898 19.4389 62.8786 19.4927 63.1651 19.5581Z" fill="white"/>
<path d="M65.3013 111.998L66.0463 85.1154L66.0712 79.5869H78.9897C81.1159 84.5416 82.3094 100.898 82.8926 111.998H65.3013Z" fill="#F28F88"/>
<path d="M63.1586 111.998L66.0579 82.5938L80.2392 82.6755C82.2806 89.8654 83.8813 102.571 84.8677 111.998H63.1586Z" fill="#7B2D6A"/>
<path d="M68.3994 107.349C68.2499 108.899 68.0927 110.448 67.9307 111.997H67.694C68.0226 108.851 68.3309 105.702 68.6073 102.551C68.9273 98.9073 69.2114 95.2606 69.4613 91.6115C69.6007 89.5655 69.7292 87.5179 69.8475 85.4695C69.8561 85.3208 70.0896 85.3193 70.0811 85.4695C69.8709 89.1217 69.6256 92.7708 69.3453 96.4175C69.0651 100.064 68.7498 103.709 68.3994 107.349Z" fill="#632457"/>
<path d="M82.1142 111.997C81.9826 110.564 81.8775 109.128 81.788 107.692C81.6689 105.788 81.5739 103.882 81.4703 101.977C81.3668 100.075 81.2555 98.1726 81.1021 96.2737C80.9487 94.374 80.7533 92.4767 80.4816 90.5895C80.213 88.7225 79.8689 86.8649 79.4212 85.0322C79.3644 84.7979 79.3052 84.5643 79.2445 84.3307C79.2071 84.1851 79.4321 84.1229 79.4695 84.2684C79.9483 86.1136 80.3189 87.9852 80.6093 89.8693C80.8965 91.7371 81.106 93.6149 81.2703 95.4975C81.4369 97.4041 81.556 99.3139 81.6626 101.224C81.7693 103.139 81.8627 105.054 81.9772 106.968C82.0776 108.646 82.1952 110.323 82.3501 111.997H82.1142Z" fill="#632457"/>
<path d="M79.1028 111.996C78.8684 109.244 78.6395 106.491 78.4239 103.738C78.107 99.7008 77.8096 95.6625 77.5317 91.6226C77.3759 89.3555 77.2265 87.0883 77.0832 84.8204C77.0731 84.6702 77.3067 84.6709 77.3168 84.8204C77.5737 88.8821 77.8501 92.9422 78.1467 97.0016C78.4418 101.04 78.7563 105.077 79.0911 109.113C79.1705 110.074 79.2561 111.035 79.3379 111.996H79.1028Z" fill="#632457"/>
<path d="M75.8193 111.997C75.5437 108.861 75.3078 105.721 75.1163 102.579C74.8851 98.7728 74.7146 94.9625 74.6071 91.1508C74.5464 89.0113 74.5051 86.8711 74.4833 84.7309C74.4826 84.5806 74.7161 84.5806 74.7169 84.7309C74.7558 88.5637 74.857 92.3957 75.0205 96.2254C75.184 100.036 75.409 103.843 75.6955 107.646C75.8045 109.097 75.9268 110.548 76.0544 111.997H75.8193Z" fill="#632457"/>
<path d="M71.4083 110.49C71.3935 110.993 71.3818 111.496 71.3685 111.999H71.1342C71.1965 109.634 71.2736 107.271 71.367 104.908C71.5352 100.668 71.7531 96.43 72.021 92.1955C72.1712 89.8194 72.3378 87.4432 72.5192 85.0694C72.5301 84.92 72.7637 84.9192 72.7528 85.0694C72.4289 89.3001 72.1549 93.5346 71.9307 97.7715C71.7064 102.008 71.5328 106.248 71.4083 110.49Z" fill="#632457"/>
<path d="M64.9455 109.821C64.8809 110.546 64.8194 111.272 64.7563 111.997H64.5251C64.7423 109.486 64.9666 106.975 65.2063 104.465C65.5972 100.378 66.0192 96.2926 66.4723 92.2106C66.7269 89.9116 66.9923 87.6125 67.2672 85.315C67.2843 85.1679 67.5186 85.1663 67.5007 85.315C67.0126 89.3923 66.5564 93.4735 66.1305 97.5585C65.7046 101.643 65.3091 105.73 64.9455 109.821Z" fill="#632457"/>
<path d="M65.0771 74.537C65.4165 76.063 65.6423 77.6123 65.6641 79.1787C65.6641 79.4037 65.8463 79.5875 66.0713 79.5875H78.9898C79.33 69.5527 80.0587 68.0097 75.7502 58.5347C73.3834 52.6847 72.2888 44.5271 70.9528 38.4746C70.7558 37.6322 70.1244 37.2889 69.3178 37.5964C67.3855 38.1687 65.4485 38.6848 63.4569 39.0227C62.1957 41.2424 63.5613 44.2055 63.8135 46.5848C64.6816 51.7006 64.2324 56.9636 65.3994 62.0288C65.1417 63.6404 64.8988 65.3673 64.4013 66.9072C64.3811 66.9742 64.3873 67.0575 64.318 67.0964C63.2732 67.6515 62.0415 68.5258 62.1513 69.8595C62.4386 73.5895 64.7065 71.665 65.0771 74.537Z" fill="#ACA4DE"/>
<path d="M70.1827 75.882C70.287 75.9661 70.1593 76.1342 70.0519 76.047C68.4987 74.8045 66.6115 73.9909 64.7679 73.2777C64.7523 73.2038 64.7515 73.1197 64.7227 73.0527C66.6356 73.7347 68.5789 74.6184 70.1827 75.882Z" fill="#ACA4DE"/>
<path d="M75.0526 60.8582C75.0986 60.8948 75.1033 60.9594 75.0698 61.0061C74.5411 61.7411 73.8856 62.3748 73.1047 62.8365C71.7641 63.7762 68.3454 65.229 67.2228 63.443C66.8039 62.5523 67.1761 61.3425 67.7203 60.5787C67.8503 60.4386 68.6826 59.2427 68.783 59.6826C68.7822 59.7301 68.7495 59.7683 68.7075 59.7807C67.5848 60.6651 66.2628 63.4306 68.2987 63.988C70.6282 64.3017 73.0985 62.9743 74.605 61.2568C74.7521 61.1478 74.8432 60.7765 75.0526 60.8582Z" fill="#ACA4DE"/>
<path d="M68.9122 64.2619C65.9608 64.3241 67.018 60.6268 68.6802 59.5742C68.797 59.5742 68.8196 59.751 68.7075 59.7798C67.5848 60.6642 66.2628 63.4296 68.2987 63.987C70.6282 64.3008 73.0985 62.9734 74.605 61.2559C74.7506 61.1469 74.844 60.7755 75.0526 60.8573C75.0994 60.8939 75.1032 60.9585 75.0698 61.0052C73.6497 62.8994 71.2923 64.2035 68.9122 64.2619Z" fill="#8781D3"/>
<path d="M70.1827 75.8812C70.287 75.9652 70.1593 76.1334 70.0519 76.0462C68.4808 74.7951 66.5749 73.9644 64.7071 73.2582C64.5709 73.2154 64.6402 73.0169 64.7655 73.0558C66.659 73.7682 68.5913 74.6137 70.1827 75.8812Z" fill="#8781D3"/>
<path d="M69.6254 35.9349C69.553 35.7847 69.4954 35.4974 69.2984 35.4795C67.31 35.8104 65.3262 36.1989 63.3534 36.6177C63.2234 36.6816 62.9353 36.6333 62.9221 36.8163C62.7835 37.0319 62.9532 37.3792 62.9587 37.6298C63.0147 37.8922 63.1276 39.0234 63.4312 39.0273C64.4582 38.8008 65.4999 38.635 66.526 38.4053C67.6666 38.1157 68.8453 37.594 70.0092 37.4827C70.0139 37.4632 70.0162 37.4414 70.0147 37.4196C69.9516 36.912 69.8076 36.4122 69.6254 35.9349Z" fill="#8882CE"/>
<path d="M64.5363 37.9989C64.5488 38.1335 64.3363 38.1507 64.3261 38.0144C64.2849 37.6321 64.2444 37.2507 64.2062 36.8684C64.1946 36.7329 64.4063 36.7174 64.4157 36.8536C64.4546 37.2351 64.4943 37.6174 64.5363 37.9989Z" fill="#8781D3"/>
<path d="M65.2183 38.1425C65.2417 38.2788 65.0424 38.32 65.012 38.1846C64.9396 37.7221 64.8563 37.2612 64.7847 36.798C65.0354 36.2055 65.1467 37.9315 65.2183 38.1425Z" fill="#8781D3"/>
<path d="M65.9548 37.9695C65.9805 38.1034 65.7781 38.1463 65.7485 38.0116C65.6488 37.5655 65.6013 37.11 65.5219 36.6608C65.4986 36.5861 65.4947 36.4887 65.5896 36.4677C65.6465 36.4568 65.7025 36.4942 65.7142 36.5502C65.8037 37.0213 65.8497 37.5008 65.9548 37.9695Z" fill="#8781D3"/>
<path d="M66.7007 37.8639C66.7241 38.0002 66.5248 38.0414 66.4944 37.906C66.4391 37.5673 66.3901 37.2271 66.3496 36.8861C66.3621 36.7444 66.2188 36.4742 66.4103 36.4221C66.5232 36.4166 66.5248 36.5287 66.531 36.612C66.5746 37.0356 66.633 37.4474 66.7007 37.8639Z" fill="#8781D3"/>
<path d="M67.5285 37.6972C67.5721 37.8272 67.3728 37.8949 67.3292 37.7649C67.2069 37.2923 67.087 36.8159 67.0053 36.3347C67.0107 36.2063 67.2093 36.2063 67.2155 36.3339C67.3066 36.791 67.4078 37.2472 67.5285 37.6972Z" fill="#8781D3"/>
<path d="M68.6067 37.5591C68.6332 37.693 68.4316 37.7358 68.4004 37.6011C68.2961 37.1457 68.1715 36.6918 68.0898 36.2332C68.1054 36.0884 68.2969 36.1164 68.3 36.2324C68.3942 36.6762 68.5016 37.1177 68.6067 37.5591Z" fill="#8781D3"/>
<path d="M64.3262 38.0143C64.2849 37.6328 64.2444 37.2506 64.2063 36.8683C64.2008 36.8115 64.2468 36.7601 64.3028 36.7562C64.3612 36.7515 64.4103 36.7959 64.4157 36.8535C64.4547 37.235 64.4944 37.6173 64.5364 37.9988C64.5481 38.1335 64.3363 38.1506 64.3262 38.0143Z" fill="#5D5BB5"/>
<path d="M65.012 38.1834C64.9396 37.721 64.8563 37.2601 64.7847 36.7968C64.7901 36.6333 65.0073 36.6551 64.9995 36.8186C65.0735 37.2593 65.1475 37.7 65.2183 38.1414C65.2417 38.2776 65.0424 38.3189 65.012 38.1834Z" fill="#5D5BB5"/>
<path d="M65.7485 38.0122C65.6488 37.5661 65.6013 37.1114 65.5219 36.6614C65.4441 36.508 65.648 36.3718 65.7142 36.5508C65.8037 37.0219 65.8497 37.5015 65.9548 37.9701C65.9805 38.104 65.7781 38.1476 65.7485 38.0122Z" fill="#5D5BB5"/>
<path d="M66.4944 37.906C66.4267 37.4879 66.366 37.0683 66.3231 36.6463C66.3084 36.5622 66.2943 36.433 66.4103 36.4221C66.5232 36.4166 66.5248 36.5295 66.531 36.612C66.5489 36.788 66.5723 36.9865 66.5949 37.1539C66.6283 37.3914 66.6618 37.628 66.7007 37.8639C66.7241 38.0002 66.5248 38.0414 66.4944 37.906Z" fill="#5D5BB5"/>
<path d="M67.3292 37.7642C67.305 37.6139 66.746 35.7898 67.2155 36.3332C67.3066 36.7902 67.4078 37.2464 67.5285 37.6964C67.5721 37.8265 67.3728 37.8942 67.3292 37.7642Z" fill="#5D5BB5"/>
<path d="M68.4003 37.6011C68.296 37.1457 68.1714 36.6918 68.0897 36.2332C68.1052 36.0884 68.2968 36.1164 68.2999 36.2324C68.3941 36.6762 68.5015 37.1177 68.6066 37.5591C68.6339 37.693 68.4314 37.7358 68.4003 37.6011Z" fill="#5D5BB5"/>
<path d="M86.9367 82.3077C86.9336 82.2937 86.9344 82.2789 86.9375 82.2641C83.8521 87.7389 80.372 92.9949 76.8732 98.2072C75.939 99.4257 74.4955 101.993 72.7508 102.367C71.4833 102.349 72.5671 101.667 72.9408 101.421C73.2452 101.19 73.5317 100.934 73.812 100.672C73.8236 100.64 73.8384 100.61 73.8579 100.58C72.6153 101.863 69.9566 103.37 68.9811 102.89C68.9639 102.854 68.946 102.817 68.9281 102.78C68.9351 102.767 68.9445 102.756 68.9562 102.746C68.9445 102.756 68.9351 102.767 68.9281 102.78C68.9227 102.002 69.7876 101.407 70.6931 100.858C70.6923 100.858 70.6908 100.859 70.69 100.86C70.8472 100.75 71.0045 100.64 71.1587 100.527C70.4066 100.983 69.6187 101.388 68.7872 101.667C68.7514 101.599 68.7701 101.55 68.8129 101.511C68.7701 101.55 68.7514 101.599 68.7872 101.667C68.3037 101.781 66.9755 102.377 66.9677 101.506C67.2978 100.864 67.8872 100.511 68.5186 100.225C68.4524 100.248 68.4049 100.26 68.3839 100.258C68.5062 100.183 68.6385 100.124 68.7506 100.034C67.9417 100.262 66.6532 100.963 65.9992 100.158C66.007 100.14 66.0187 100.126 66.0327 100.116C66.0187 100.126 66.0062 100.14 65.9992 100.158C65.5002 99.087 69.449 98.9212 70.507 96.8269C69.8172 97.104 69.0068 97.3703 68.2765 97.1064C67.7961 96.7187 68.1722 96.1161 68.6362 95.9222C68.8752 95.7961 69.136 95.7143 69.396 95.6427C70.9313 95.3835 71.9707 93.9229 73.5628 93.8583C76.0441 89.4104 78.4295 84.8925 80.7558 80.3575C78.558 76.7995 76.5704 73.1201 74.4994 69.4905C74.5749 69.246 74.6676 69.0039 74.7984 68.7828C74.7984 68.7828 74.7976 68.7835 74.7968 68.7843C74.9642 68.5009 75.1659 68.2386 75.3659 67.9778C75.96 67.2163 76.656 66.5102 77.5054 66.0368C77.5062 66.0376 77.5054 66.0376 77.5054 66.0376C78.1329 65.6857 78.8056 65.3867 79.5257 65.298C79.5265 65.2988 79.5288 65.2972 79.5296 65.298C79.5296 65.2972 79.5304 65.298 79.5312 65.2972H79.532C79.5826 65.2902 79.634 65.2847 79.6846 65.2793C82.1962 68.8201 83.9783 72.8507 85.9885 76.6928C86.739 78.4695 88.0734 80.4174 86.9367 82.3077Z" fill="#F28F88"/>
<path d="M71.1546 98.5283C69.712 99.4595 67.8668 100.758 66.0948 100.095C65.9967 100.096 65.9469 100.234 66.0247 100.295C66.6312 100.646 67.4199 100.536 68.0684 100.361C68.3308 100.416 72.1449 98.5711 71.1546 98.5283Z" fill="#DB554B"/>
<path d="M68.7847 101.664C68.9825 102 73.4404 99.3473 72.2827 99.4804C71.3415 100.289 70.2468 100.918 69.0969 101.381C68.9817 101.438 68.6975 101.482 68.7847 101.664Z" fill="#DB554B"/>
<path d="M74.4324 99.5338C73.9131 100.08 73.4912 100.781 72.887 101.272C71.8726 101.952 70.3123 103.016 69.0791 102.73C69.0238 102.704 68.9546 102.727 68.9273 102.783C68.8315 102.983 69.2932 103.023 69.4248 103.045C70.2127 102.993 71.0091 102.674 71.7262 102.258C72.2104 102.39 74.8894 99.8414 74.6185 99.4645C74.5368 99.4132 74.4776 99.4684 74.4324 99.5338Z" fill="#DB554B"/>
<path d="M80.9204 80.4944C80.9959 80.5318 81.0683 80.4812 81.0917 80.4072C81.6242 79.6831 82.5102 79.2448 83.3222 78.8976C83.8828 78.0388 80.3552 80.144 80.9204 80.4944Z" fill="#DB554B"/>
<path d="M73.7175 92.639C73.6622 92.7963 73.5003 93.04 73.6264 93.1926C75.2668 94.3643 76.9446 95.4916 78.6348 96.5909C78.7719 96.6376 78.9416 96.8759 79.0802 96.7552C79.3309 96.7015 79.4562 96.3356 79.6298 96.1542C79.7762 95.9292 80.4956 95.0494 80.2838 94.8322C79.3978 94.2654 78.5437 93.6465 77.6554 93.0836C76.6441 92.4817 75.442 92.017 74.5404 91.2734C74.5225 91.2836 74.5062 91.2968 74.4914 91.3139C74.1776 91.7172 73.9262 92.1727 73.7175 92.639Z" fill="#8882CE"/>
<path d="M78.7754 94.7779C78.8626 94.6744 79.0245 94.8122 78.935 94.9157C78.6944 95.2155 78.4531 95.5144 78.2102 95.8111C78.123 95.9146 77.961 95.776 78.0514 95.6733C78.2943 95.3759 78.5356 95.0777 78.7754 94.7779Z" fill="#8781D3"/>
<path d="M78.3945 94.1943C78.4739 94.0814 78.6444 94.1935 78.5704 94.3103C78.2948 94.6887 78.027 95.0733 77.7506 95.4516C77.1543 95.693 78.2956 94.3944 78.3945 94.1943Z" fill="#8781D3"/>
<path d="M77.7523 93.7967C77.8286 93.6838 78.0023 93.7967 77.9275 93.9127C77.6831 94.2988 77.3942 94.6539 77.1326 95.0284C77.096 95.0976 77.0299 95.1693 76.9481 95.1163C76.9006 95.0844 76.8866 95.0182 76.9185 94.97C77.1879 94.5737 77.4954 94.2023 77.7523 93.7967Z" fill="#8781D3"/>
<path d="M77.1496 93.3434C77.229 93.2312 77.3995 93.3426 77.3247 93.4594C77.1247 93.7381 76.9191 94.0137 76.7066 94.2838C76.5968 94.3749 76.5073 94.6677 76.3352 94.5688C76.2519 94.4933 76.3298 94.4123 76.3843 94.3492C76.6529 94.0191 76.9028 93.6859 77.1496 93.3434Z" fill="#8781D3"/>
<path d="M76.4457 92.8761C76.5064 92.7531 76.6956 92.8466 76.6349 92.9696C76.3865 93.3892 76.1343 93.812 75.8524 94.209C75.7574 94.2962 75.6173 94.1561 75.7029 94.0611C75.9622 93.6742 76.2129 93.2794 76.4457 92.8761Z" fill="#8781D3"/>
<path d="M75.5856 92.2112C75.6619 92.0976 75.8356 92.2104 75.7616 92.3272C75.5132 92.7227 75.2804 93.1323 75.0142 93.5145C74.9005 93.6056 74.7853 93.4507 74.8655 93.3658C75.1123 92.9859 75.3482 92.5974 75.5856 92.2112Z" fill="#8781D3"/>
<path d="M78.935 94.9157C78.6952 95.2155 78.4531 95.5144 78.2102 95.8111C78.1736 95.8554 78.1051 95.8593 78.0623 95.822C78.0179 95.7838 78.0148 95.7176 78.0514 95.6733C78.2943 95.3759 78.5356 95.0777 78.7754 94.7779C78.8626 94.6744 79.0245 94.8122 78.935 94.9157Z" fill="#5D5BB5"/>
<path d="M78.5704 94.3103C78.2948 94.6887 78.027 95.0733 77.7506 95.4516C77.6307 95.563 77.4929 95.394 77.6136 95.2843C77.8729 94.9207 78.1329 94.5563 78.3945 94.1943C78.4739 94.0814 78.6444 94.1935 78.5704 94.3103Z" fill="#5D5BB5"/>
<path d="M77.9275 93.9109C77.6831 94.297 77.3942 94.6521 77.1326 95.0265C77.0789 95.19 76.8383 95.1418 76.9185 94.9681C77.1879 94.5719 77.4954 94.2005 77.7523 93.7949C77.8286 93.682 78.0023 93.7941 77.9275 93.9109Z" fill="#5D5BB5"/>
<path d="M77.3247 93.4594C77.0772 93.8035 76.8234 94.1429 76.5555 94.4715C76.5065 94.5423 76.4255 94.6428 76.3352 94.5688C76.2511 94.4933 76.3298 94.4123 76.3843 94.3492C76.4956 94.2122 76.6202 94.055 76.7222 93.9203C76.8662 93.7295 77.0102 93.538 77.1496 93.3434C77.229 93.2312 77.3995 93.3426 77.3247 93.4594Z" fill="#5D5BB5"/>
<path d="M76.6349 92.9688C76.5453 93.0926 75.6508 94.7774 75.7029 94.0611C75.9622 93.6742 76.2129 93.2795 76.4457 92.8762C76.5064 92.7532 76.6956 92.8466 76.6349 92.9688Z" fill="#5D5BB5"/>
<path d="M75.7616 92.3276C75.5132 92.7232 75.2804 93.1327 75.0142 93.5149C74.9005 93.606 74.7853 93.4511 74.8655 93.3662C75.1123 92.9863 75.349 92.5978 75.5856 92.2109C75.6619 92.098 75.8356 92.2101 75.7616 92.3276Z" fill="#5D5BB5"/>
<path d="M71.9797 64.0749C70.5394 70.3905 79.5456 74.2357 79.4273 80.2002C78.7834 82.9531 76.8596 85.0739 75.3882 87.4111C75.1063 87.8588 74.851 88.3392 74.6828 88.8421C74.4866 89.4268 74.1869 90.0107 74.1791 90.6398C74.1705 91.286 74.552 91.6861 75.009 92.0933C75.6093 92.629 76.3481 93.0346 77.0161 93.4807C77.5385 93.8287 78.0609 94.1767 78.5833 94.5255C79.0629 94.8455 79.4693 95.1592 80.0797 95.065C80.5679 94.9895 81.0054 94.7046 81.3449 94.3457C81.7318 93.9361 82.965 92.1766 83.3037 91.7842C83.9841 90.9956 84.6078 90.1586 85.1613 89.2765C86.9831 86.3718 87.9197 83.059 88.5207 79.7105C88.7629 78.3597 89.0034 76.9521 88.6274 75.6325C88.0567 73.6292 83.5373 67.5246 82.5578 65.8079C80.6356 62.4384 73.6419 57.6807 71.9797 64.0749Z" fill="#ACA4DE"/>
<path d="M83.4973 79.7085C82.2875 79.408 81.0332 79.3115 79.7915 79.4251C79.6988 79.4337 79.6786 79.5474 79.7299 79.5933C79.6856 79.6346 79.684 79.7303 79.7611 79.7607C80.6292 80.1064 81.3914 80.6864 81.9644 81.4229C82.0383 81.5186 82.1699 81.3847 82.0967 81.2905C81.5167 80.5439 80.7452 79.9662 79.8724 79.6065C81.0714 79.5061 82.2797 79.5995 83.4475 79.8891C83.5651 79.9187 83.6149 79.7373 83.4973 79.7085Z" fill="#8781D3"/>
<path d="M76.8637 74.3824C75.3284 71.9028 73.2325 69.7485 72.0686 67.0493C71.2238 64.8351 71.8233 62.1281 74.1341 61.1245C74.1886 61.1066 74.2485 61.1347 74.268 61.1892C74.2952 61.3783 73.9924 61.3612 73.8834 61.4663C69.9431 64.129 72.7132 68.3907 74.8955 71.2137C75.3735 71.7868 75.748 72.4259 76.191 73.0231C76.307 73.2076 77.4771 74.6355 76.8637 74.3824Z" fill="#8781D3"/>
<path d="M80.8479 39.2207C78.7536 38.3036 75.9345 39.1997 75.3771 41.5743C75.5935 41.7759 75.792 41.9955 75.9734 42.229C76.01 42.2765 76.0466 42.3248 76.0817 42.3738C76.1813 42.5109 76.2747 42.651 76.3619 42.795C76.4125 42.8783 76.4608 42.9632 76.5075 43.0481C76.4927 43.0154 76.4772 42.9834 76.4616 42.9515C76.4312 42.7078 77.0548 40.791 77.3266 41.0659C77.3398 41.0814 77.3468 41.0986 77.3491 41.118C77.0478 41.8545 76.5387 42.6199 76.7006 43.4599C76.7076 43.477 76.7146 43.4942 76.7216 43.5113C76.8812 42.5607 77.5305 41.8063 78.2406 41.2013C78.3418 41.1227 78.517 40.8751 78.6127 41.0807C78.6299 41.1476 78.5691 41.2052 78.5193 41.2418C77.6979 41.9277 76.9147 42.8153 76.8929 43.9442C76.8727 43.9356 76.8509 43.9278 76.8298 43.92C76.8298 43.927 76.8298 43.9333 76.8291 43.9403C77.2884 44.1007 77.6847 44.4253 78.0016 44.7889C77.9665 44.7406 77.9299 44.6931 77.8918 44.6472C78.538 44.7905 79.1842 44.5226 79.8055 44.4588C80.169 44.7881 78.2694 44.9392 78.0833 44.8893C78.1853 45.0201 78.2569 45.147 78.3332 45.2887C79.1328 45.7481 80.0499 45.7878 80.8837 45.3931C80.9289 45.3751 80.9663 45.3845 80.9959 45.4117C81.1274 45.5651 80.8861 45.6321 80.7748 45.6764C80.0437 45.9637 79.2005 45.9591 78.4936 45.6095C78.6213 45.889 78.7217 46.1833 78.7848 46.483C79.0946 46.6068 79.438 46.6084 79.7556 46.5219C79.8677 46.5072 80.0351 46.3694 80.1083 46.5134C80.1745 46.6971 79.8047 46.7142 79.6879 46.7625C79.4769 46.8155 79.1102 46.8162 78.8284 46.7337C78.8502 46.8972 78.8595 47.0623 78.8556 47.2273C78.8315 47.1845 78.7902 47.1588 78.7248 47.1783C78.7054 47.1292 78.6929 47.0662 78.6376 47.0467C78.5551 45.8454 77.8957 44.5405 76.7037 44.1279C76.6142 44.1264 76.5636 44.0259 76.6134 43.9535C76.5955 43.8437 76.5667 43.7347 76.5309 43.6289C76.302 43.0169 75.9127 42.4696 75.4814 41.9853C75.4541 41.9565 75.4277 41.9277 75.3996 41.8997C75.3724 41.8709 75.3452 41.8429 75.3171 41.8156C75.0812 41.5828 74.8259 41.3711 74.5541 41.1834C74.4031 41.0846 74.2567 40.9771 74.0917 40.9039C74.0855 40.9016 74.08 40.8993 74.0753 40.8969C74.0668 40.893 74.059 40.8891 74.0512 40.8852C74.0224 40.8697 73.9959 40.8502 73.9842 40.8183C73.9835 40.8152 73.9827 40.8128 73.9819 40.8105C73.9749 40.7864 73.9788 40.7513 73.9936 40.728C73.992 40.7311 73.9905 40.7334 73.9889 40.7365C73.9928 40.728 73.9983 40.7194 74.0045 40.7124C74.0294 40.6844 74.066 40.6704 74.1049 40.675C74.189 40.7093 74.2708 40.7482 74.3509 40.7918C74.3984 40.8175 74.4459 40.8448 74.4919 40.8736C71.6011 38.9903 66.8457 39.5275 65.2334 42.8371C64.9142 43.523 64.5397 44.4417 64.8612 45.1665C65.836 47.3643 66.2307 49.4579 67.7823 51.4245C69.0833 53.0742 71.4555 55.9307 73.8184 54.9739C76.4141 53.9228 79.2729 50.3843 78.8984 47.4671C81.1866 48.0829 83.9832 46.0976 84.0532 43.7129C83.8858 41.7782 82.6729 39.958 80.8479 39.2207Z" fill="#1A1A1A"/>
<path d="M76.7318 40.7541C76.7847 40.7759 76.8158 40.8436 76.7902 40.8973C76.5543 41.454 76.2031 42.0519 76.3277 42.6763C76.3565 42.7004 76.3721 42.7394 76.3666 42.7767C76.2818 42.6327 76.186 42.4941 76.0825 42.3625C76.1097 41.8113 76.3705 41.3076 76.5893 40.8117C76.6095 40.7681 76.6539 40.7416 76.6998 40.7455C76.7006 40.7463 76.7006 40.7463 76.7014 40.7455C76.7115 40.7471 76.7224 40.7494 76.7318 40.7541Z" fill="#1A1A1A"/>
<path d="M78.9745 42.92C79.0158 42.9613 79.0181 43.0337 78.9745 43.0749C78.4887 43.4922 78.034 43.9928 77.4096 44.1999C77.3217 44.14 77.2282 44.087 77.1301 44.0427C77.8394 43.9274 78.3221 43.3186 78.857 42.8966C78.8967 42.8803 78.9449 42.8896 78.9745 42.92Z" fill="#1A1A1A"/>
<path d="M80.996 45.4134C81.1268 45.5676 80.8862 45.6338 80.7749 45.6781C80.0438 45.9654 79.2007 45.9608 78.4937 45.6104V45.6112C78.6207 45.8907 78.7226 46.1842 78.7849 46.4847C79.0948 46.6085 79.4381 46.6101 79.7558 46.5237C79.7558 46.5237 79.7558 46.5237 79.7566 46.5237C79.8679 46.5081 80.0353 46.3711 80.1085 46.5151C80.1746 46.6988 79.8048 46.7159 79.688 46.7642C79.4771 46.8172 79.1104 46.8179 78.8285 46.7354C78.8503 46.8989 78.8597 47.064 78.8558 47.229C78.8316 47.1862 78.7904 47.1605 78.725 47.18C78.7055 47.1309 78.6931 47.0679 78.6378 47.0484C78.556 45.8479 77.8958 44.5415 76.7039 44.1296C76.6151 44.1288 76.5629 44.0268 76.6136 43.9552C76.5956 43.8454 76.5668 43.7364 76.531 43.6306V43.6298C76.3021 43.0186 75.9129 42.4721 75.4815 41.987C75.4278 41.9294 75.3733 41.8726 75.3173 41.8173C75.3344 41.7364 75.3546 41.6562 75.3772 41.576C75.5937 41.7776 75.7922 41.9972 75.9736 42.2307C76.0102 42.2782 76.0468 42.3273 76.0818 42.3755C76.1815 42.5126 76.2749 42.6527 76.3621 42.7967V42.7975C76.4127 42.88 76.461 42.9641 76.5077 43.0498C76.4929 43.0171 76.4773 42.9851 76.4617 42.9532C76.4212 42.7391 77.09 40.6814 77.3431 41.0956C77.0861 41.8446 76.5232 42.6099 76.7007 43.4616C76.7078 43.4787 76.7148 43.4959 76.7218 43.513C76.8814 42.5624 77.5307 41.808 78.2407 41.203C78.3404 41.119 78.5381 40.8683 78.616 41.0964C78.479 41.3743 78.1286 41.5386 77.9293 41.7924C77.3438 42.3623 76.9195 43.1144 76.8931 43.9459C76.8728 43.9373 76.851 43.9295 76.83 43.9217C76.83 43.9287 76.83 43.935 76.8292 43.942C77.2886 44.1031 77.6848 44.427 78.0017 44.7906C77.9667 44.7423 77.9301 44.6948 77.8927 44.6489C78.542 44.8085 79.2061 44.4901 79.822 44.4737C80.1116 44.7929 78.2812 44.9393 78.0835 44.891C78.1854 45.0218 78.2571 45.1487 78.3334 45.2904C79.1329 45.7498 80.0501 45.7895 80.8839 45.3948C80.929 45.3768 80.9664 45.3862 80.996 45.4134Z" fill="#1A1A1A"/>
<path d="M78.6152 41.0952C78.479 41.3731 78.1286 41.5374 77.9293 41.7912C77.3439 42.3611 76.9196 43.1132 76.8931 43.9447C76.8728 43.9361 76.851 43.9283 76.83 43.9205C76.83 43.9275 76.83 43.9338 76.8292 43.9408C76.8503 43.947 76.8713 43.9548 76.8923 43.9626C76.8907 44.0054 76.8892 44.049 76.8876 44.0942C76.8689 44.1346 76.8324 44.1533 76.7958 44.1541C76.7716 44.1463 76.7475 44.1393 76.7234 44.1331C76.6984 44.116 76.6805 44.0887 76.6782 44.0537C76.6362 42.7862 77.5222 41.7811 78.4401 41.0228C78.5023 40.9691 78.609 41.0173 78.6152 41.0952Z" fill="black"/>
<path d="M77.3494 41.1188C77.0364 41.8888 76.4727 42.7218 76.7382 43.5938C76.8402 43.7129 76.6494 43.8562 76.5607 43.7215C76.5514 43.6911 76.542 43.66 76.5311 43.6296V43.6288C76.4501 43.4171 76.4478 43.1835 76.461 42.9647C76.4766 42.9928 76.493 43.0208 76.5078 43.0488C76.493 43.0161 76.4774 42.9842 76.4618 42.9523C76.4081 42.7623 77.1298 40.5902 77.3494 41.1188Z" fill="black"/>
<path d="M76.7318 40.7541C76.7847 40.7759 76.8158 40.8436 76.7902 40.8973C76.5543 41.454 76.2031 42.0519 76.3277 42.6763C76.3565 42.7004 76.3721 42.7394 76.3666 42.7767C76.2818 42.6327 76.186 42.4941 76.0825 42.3625C76.1097 41.8113 76.3705 41.3076 76.5893 40.8117C76.6095 40.7681 76.6539 40.7416 76.6998 40.7455C76.7006 40.7463 76.7006 40.7463 76.7014 40.7455C76.7115 40.7471 76.7224 40.7494 76.7318 40.7541Z" fill="black"/>
<path d="M76.3621 42.7962V42.797C76.1355 43.0687 76.0545 42.5346 76.0818 42.375C76.1814 42.512 76.2749 42.6522 76.3621 42.7962Z" fill="black"/>
<path d="M77.363 44.2164C77.2392 44.246 76.9473 44.3495 76.9457 44.1401C76.9559 44.0716 77.0189 44.0404 77.0796 44.0467C77.1746 44.0949 77.2696 44.1518 77.363 44.2164Z" fill="black"/>
<path d="M78.9745 42.92C79.0158 42.9613 79.0181 43.0337 78.9745 43.0749C78.4887 43.4922 78.034 43.9928 77.4096 44.1999C77.3217 44.14 77.2282 44.087 77.1301 44.0427C77.8394 43.9274 78.3221 43.3186 78.857 42.8966C78.8967 42.8803 78.9449 42.8896 78.9745 42.92Z" fill="black"/>
<path d="M79.8461 44.5063C79.9169 44.6978 79.6148 44.6814 79.4965 44.7281C78.9313 44.8667 78.3497 44.9656 77.7704 44.8504C77.7191 44.7959 77.6661 44.7445 77.6101 44.6954C77.6412 44.5639 77.779 44.6254 77.8693 44.6425C77.9153 44.6908 77.9596 44.739 78.0017 44.7889C77.9666 44.7406 77.93 44.6931 77.8927 44.6472C78.5085 44.757 79.1275 44.5942 79.723 44.4479C79.7791 44.4346 79.8235 44.4595 79.8461 44.5063Z" fill="black"/>
<path d="M80.996 45.4113C81.1268 45.5655 80.8862 45.6317 80.7749 45.676C80.0438 45.9633 79.2007 45.9587 78.4937 45.6083C78.3848 45.56 78.2781 45.5102 78.1745 45.4503C78.1535 45.4106 78.1325 45.3701 78.1099 45.3311C78.1372 45.2105 78.2571 45.2346 78.3334 45.2883C79.1329 45.7477 80.0501 45.7874 80.8839 45.3926C80.929 45.3747 80.9664 45.3841 80.996 45.4113Z" fill="black"/>
<path d="M80.1086 46.5131C80.1748 46.6976 79.805 46.7139 79.6882 46.7622C79.4087 46.8276 78.8886 46.8214 78.5904 46.6259C78.5787 46.5605 78.5639 46.4944 78.5484 46.429C78.5803 46.4033 78.6325 46.3963 78.6691 46.4243C79.0428 46.6345 79.5044 46.6166 79.8992 46.4765C79.9708 46.4445 80.0712 46.422 80.1086 46.5131Z" fill="black"/>
<path d="M69.2258 45.687C69.2281 45.7602 69.1471 45.8139 69.0794 45.7882C69.0779 45.7874 69.0763 45.7866 69.0755 45.7858H69.0747C69.0708 45.7843 69.0662 45.7819 69.0623 45.7796H69.0615C69.0382 45.7656 69.0148 45.7524 68.9914 45.7384H68.9907C68.9673 45.7243 68.9439 45.7103 68.9206 45.6963C68.8739 45.6683 68.8272 45.6395 68.7805 45.6107C68.5025 45.4363 68.2355 45.2432 67.9941 45.0213C67.9941 45.0205 67.9933 45.0205 67.9933 45.0205C67.977 45.0065 67.9606 44.9917 67.9443 44.9769C67.9272 44.9614 67.91 44.9458 67.8937 44.9294C67.8602 44.8975 67.8267 44.8656 67.7948 44.8329C67.794 44.8329 67.794 44.8329 67.794 44.8321C67.7131 44.7504 67.6344 44.6663 67.5597 44.5783C67.2965 44.4218 66.061 42.1376 66.6309 42.1773C66.6737 42.1944 66.6924 42.2349 66.6978 42.2769C66.7578 42.7215 66.9298 43.1442 67.126 43.5452C67.1369 43.567 67.1486 43.5888 67.1595 43.6106C67.1829 43.6534 67.2062 43.6954 67.2304 43.7375V43.7383C67.2428 43.7593 67.2553 43.7803 67.2677 43.8013C67.2926 43.8434 67.3183 43.8846 67.3448 43.9259C67.5293 44.2132 67.7473 44.4794 67.9902 44.7192C67.991 44.7192 67.991 44.7192 67.991 44.7192C68.0081 44.7364 68.0253 44.7535 68.0432 44.7698C68.079 44.8041 68.1148 44.8368 68.1506 44.8695C68.4659 45.1607 68.8318 45.3865 69.1946 45.6091H69.1954C69.2149 45.6301 69.2258 45.6582 69.2258 45.687Z" fill="#1A1A1A"/>
<path d="M70.4869 44.6892C70.7213 45.1991 69.1354 44.4151 68.9688 44.3311C68.9688 44.3311 68.9688 44.3311 68.968 44.3311C68.5195 44.0936 68.11 43.7876 67.7495 43.4303C67.4311 43.122 67.1469 42.7794 66.8955 42.4143C66.8604 42.3644 66.8168 42.299 66.8456 42.2414C66.8456 42.2414 66.8456 42.2414 66.8456 42.2406C66.8542 42.2251 66.8698 42.2087 66.8861 42.1978C66.9103 42.1815 66.9406 42.1768 66.9679 42.1838H66.9687C66.9764 42.1862 66.985 42.1893 66.992 42.1924L66.9928 42.1932C67.8134 43.4256 69.0435 44.3326 70.4869 44.6892Z" fill="#1A1A1A"/>
<path d="M69.2913 47.0685C69.3209 47.3122 69.0329 47.1658 68.9114 47.1035C67.9709 46.6636 67.3185 45.7831 66.8568 44.8777C66.8303 44.8247 66.8047 44.7718 66.7797 44.7181C66.4675 43.9652 66.1297 43.1711 66.1133 42.3466C66.1149 42.3295 66.118 42.3131 66.1234 42.2975C66.1258 42.2898 66.1289 42.2828 66.1328 42.2757C66.1359 42.2695 66.1398 42.2633 66.1444 42.2571C66.1507 42.2493 66.1577 42.2423 66.1655 42.2368C66.1678 42.2353 66.1701 42.2337 66.1717 42.2329C66.1764 42.2306 66.181 42.2275 66.1857 42.2259C66.2386 42.2018 66.304 42.2275 66.3282 42.2804V42.2812C66.5002 44.1536 67.4765 46.2588 69.2797 47.0444C69.2828 47.0498 69.2859 47.0545 69.2882 47.0599C69.289 47.063 69.2906 47.0654 69.2913 47.0685Z" fill="#1A1A1A"/>
<path d="M78.7028 46.6892C78.7176 46.8441 78.7223 46.9998 78.7161 47.1548C78.7013 47.112 78.6841 47.0629 78.6374 47.0473C78.5557 45.8468 77.8955 44.5404 76.7035 44.1286C76.614 44.1278 76.5634 44.0258 76.6132 43.9542C76.5953 43.8444 76.5665 43.7354 76.5307 43.6295V43.6287C76.3018 43.0176 75.9125 42.471 75.4812 41.986C75.4275 41.9284 75.373 41.8715 75.3169 41.8163C75.0818 41.5835 74.8264 41.3725 74.5547 41.1841C74.4037 41.0852 74.2581 40.9778 74.0915 40.9046C74.086 40.9022 74.0806 40.8999 74.0751 40.8976C74.0666 40.8937 74.0588 40.8898 74.051 40.8859C74.0222 40.8703 73.9957 40.8509 73.984 40.8189C73.9825 40.8166 73.9825 40.8135 73.9817 40.8112C73.9731 40.78 73.9817 40.738 74.0043 40.7131C74.0292 40.685 74.0658 40.671 74.1047 40.6757C74.1888 40.7099 74.2705 40.7489 74.3507 40.7925C74.9533 41.1833 75.4462 41.7423 75.9732 42.2297C76.0098 42.2772 76.0464 42.3262 76.0815 42.3745C76.1811 42.5115 76.2745 42.6517 76.3617 42.7957V42.7965C76.5821 43.125 76.6879 43.5104 76.7448 43.8981C76.772 43.9028 76.8001 43.9113 76.8296 43.9207C76.8296 43.9277 76.8296 43.9339 76.8289 43.9409C77.971 44.3419 78.5969 45.5385 78.7028 46.6892Z" fill="#1A1A1A"/>
<path d="M76.8298 43.9207C76.8298 43.9277 76.8298 43.9339 76.8291 43.9409C76.8376 44.1021 76.6188 44.1036 76.6134 43.9542C76.5955 43.8444 76.5667 43.7354 76.5309 43.6295V43.6287C76.302 43.0176 75.9127 42.471 75.4814 41.986C75.4277 41.9284 75.3732 41.8715 75.3171 41.8163C75.082 41.5843 74.8266 41.3725 74.5549 41.1841C74.4039 41.0852 74.2583 40.9778 74.0917 40.9046C74.0862 40.9022 74.0808 40.8999 74.0753 40.8976C74.0668 40.8937 74.059 40.8898 74.0512 40.8859C74.0232 40.8703 73.9959 40.8509 73.9842 40.8189C73.9827 40.8166 73.9827 40.8135 73.9819 40.8112C73.9733 40.78 73.9819 40.738 74.0045 40.7131C74.0294 40.685 74.066 40.671 74.1049 40.6757C74.189 40.7099 74.2707 40.7489 74.3509 40.7925C74.8547 41.079 75.2922 41.4721 75.6885 41.8902C75.7881 42 75.8823 42.1129 75.9734 42.2297C76.01 42.2772 76.0466 42.3262 76.0816 42.3745C76.1813 42.5115 76.2747 42.6517 76.3619 42.7957V42.7965C76.5067 43.0347 76.59 43.1997 76.7216 43.5119V43.5127C76.7816 43.6614 76.8298 43.8132 76.8298 43.9207Z" fill="black"/>
<path d="M78.84 46.8372C78.8533 46.9672 78.8587 47.0973 78.8556 47.2281C78.8315 47.1852 78.7902 47.1596 78.7248 47.179C78.7053 47.13 78.6929 47.0669 78.6376 47.0474C78.5559 45.8469 77.8956 44.5405 76.7037 44.1287C76.6149 44.1279 76.5628 44.0259 76.6134 43.9543C76.6609 43.8756 76.759 43.9192 76.829 43.941C77.5928 44.2197 78.1806 44.873 78.4936 45.6095V45.6102C78.6703 45.9987 78.7972 46.4121 78.84 46.8372Z" fill="black"/>
<path d="M69.2913 47.0685C69.3209 47.3122 69.0329 47.1658 68.9114 47.1035C67.9709 46.6636 67.3185 45.7831 66.8568 44.8777C66.8303 44.8247 66.8047 44.7718 66.7797 44.7181C66.4675 43.9652 66.1297 43.1711 66.1133 42.3466C66.1149 42.3295 66.118 42.3131 66.1234 42.2975C66.1258 42.2898 66.1289 42.2828 66.1328 42.2757C66.1359 42.2695 66.1398 42.2633 66.1444 42.2571C66.1507 42.2493 66.1577 42.2423 66.1655 42.2368C66.1678 42.2353 66.1701 42.2337 66.1717 42.2329C66.1764 42.2306 66.181 42.2275 66.1857 42.2259C66.2386 42.2018 66.304 42.2275 66.3282 42.2804V42.2812C66.5002 44.1536 67.4765 46.2588 69.2797 47.0444C69.2828 47.0498 69.2859 47.0545 69.2882 47.0599C69.289 47.063 69.2906 47.0654 69.2913 47.0685Z" fill="black"/>
<path d="M69.2258 45.6865C69.2281 45.7597 69.1471 45.8134 69.0794 45.7878C69.0779 45.787 69.0763 45.7862 69.0755 45.7862V45.7854H69.0747C69.0716 45.7839 69.0677 45.7823 69.0638 45.7807C69.0631 45.7807 69.0631 45.78 69.0623 45.78V45.7792H69.0615C69.0382 45.7659 69.0148 45.7519 68.9914 45.7379H68.9907C68.9673 45.7239 68.9439 45.7107 68.9206 45.6959C68.8739 45.6679 68.8272 45.639 68.7805 45.6102C68.5025 45.4351 68.2355 45.2428 67.9941 45.0209C67.9941 45.0201 67.9933 45.0201 67.9933 45.0201C67.977 45.0061 67.9606 44.9913 67.9443 44.9765C67.9272 44.9609 67.91 44.9454 67.8937 44.929C67.8602 44.8971 67.8267 44.8652 67.7948 44.8325C67.794 44.8325 67.794 44.8325 67.794 44.8317C67.7131 44.7499 67.6344 44.6659 67.5597 44.5779C67.2981 44.4292 66.0586 42.1192 66.6309 42.1768C66.6737 42.194 66.6924 42.2345 66.6978 42.2765C66.7578 42.721 66.9298 43.1438 67.126 43.5448C67.1369 43.5666 67.1486 43.5883 67.1595 43.6101C67.1829 43.653 67.2062 43.695 67.2304 43.7371V43.7378C67.2428 43.7589 67.2553 43.7799 67.2677 43.8009C67.2926 43.8429 67.3183 43.8842 67.3448 43.9255C67.5293 44.2127 67.7473 44.479 67.9902 44.7188C67.991 44.7188 67.991 44.7188 67.991 44.7188C68.0081 44.7359 68.0253 44.7531 68.0432 44.7694C68.079 44.8037 68.1148 44.8364 68.1506 44.8691C68.4659 45.1602 68.8318 45.386 69.1946 45.6087H69.1954C69.2149 45.6297 69.2258 45.6577 69.2258 45.6865Z" fill="black"/>
<path d="M70.4869 44.6892C70.7213 45.1991 69.1354 44.4151 68.9688 44.3311C68.9688 44.3311 68.9688 44.3311 68.968 44.3311C68.5195 44.0936 68.11 43.7876 67.7495 43.4303C67.4311 43.122 67.1469 42.7794 66.8955 42.4143C66.8604 42.3644 66.8168 42.299 66.8456 42.2414C66.8456 42.2414 66.8456 42.2414 66.8456 42.2406C66.8542 42.2251 66.8698 42.2087 66.8861 42.1978C66.9103 42.1815 66.9406 42.1768 66.9679 42.1838H66.9687C66.9764 42.1862 66.985 42.1893 66.992 42.1924L66.9928 42.1932C67.8134 43.4256 69.0435 44.3326 70.4869 44.6892Z" fill="black"/>
<path d="M71.8088 44.0996C72.2752 44.6773 70.2354 43.754 70.0641 43.7174C69.1851 43.4028 68.3692 42.9482 67.6833 42.3136C67.5891 42.2202 67.2668 41.9976 67.526 41.9111C68.7063 43.0182 70.2556 43.645 71.8088 44.0996Z" fill="#1A1A1A"/>
<path d="M76.5848 44.8994C77.6265 45.1742 72.5317 46.0003 72.6625 45.4693C72.6967 45.3043 72.963 45.421 73.0837 45.4094C74.2655 45.4724 75.4489 45.1914 76.5848 44.8994Z" fill="#1A1A1A"/>
<path d="M76.8935 45.6049C77.0087 45.5263 77.1356 45.6999 77.0181 45.784C76.6156 46.0635 76.2029 46.3297 75.7903 46.5944C75.0756 47.0483 74.3655 47.5209 73.5808 47.844C73.4508 47.8775 73.151 48.0566 73.0475 47.9507C72.9883 47.8837 73.0327 47.7701 73.1253 47.7693C74.5065 47.3068 75.6774 46.3819 76.8935 45.6049Z" fill="#1A1A1A"/>
<path d="M76.8961 45.0328C78.1068 44.9565 72.1524 47.8098 72.1836 47.1675C72.1742 47.0585 72.2879 47.0414 72.365 47.0399C73.9984 46.7191 75.4512 45.8206 76.8961 45.0328Z" fill="#1A1A1A"/>
<path d="M77.0004 46.3024C77.0782 46.1856 77.2596 46.2962 77.1841 46.4208C76.1339 47.8642 74.8656 49.1651 73.4269 50.224C73.2135 50.333 72.5245 50.9293 72.3563 50.6958C72.3166 50.5821 72.4435 50.5455 72.5245 50.5112C74.3245 49.5131 75.7695 47.9296 77.0004 46.3024Z" fill="#1A1A1A"/>
<path d="M67.6833 42.3136C67.5891 42.2202 67.2668 41.9976 67.5261 41.9111C67.9208 42.1665 68.261 42.583 68.6962 42.8181C69.6569 43.4083 70.743 43.7547 71.8089 44.0996C72.276 44.6773 70.2354 43.754 70.0641 43.7174C69.1851 43.4028 68.3692 42.9482 67.6833 42.3136Z" fill="black"/>
<path d="M72.6624 45.4693C72.6967 45.3043 72.963 45.421 73.0836 45.4094C74.2655 45.4724 75.4496 45.1914 76.5848 44.8994C77.6265 45.1742 72.5324 46.0003 72.6624 45.4693Z" fill="black"/>
<path d="M72.1836 47.1675C72.1742 47.0585 72.2879 47.0414 72.365 47.0399C73.9984 46.7191 75.4519 45.8206 76.8961 45.0328C78.1068 44.9565 72.1524 47.8098 72.1836 47.1675Z" fill="black"/>
<path d="M73.0475 47.9507C72.9883 47.8837 73.0327 47.7701 73.1253 47.7685C74.5065 47.3076 75.6774 46.3819 76.8935 45.6049C77.0087 45.5263 77.1356 45.6999 77.0181 45.784C76.6156 46.0635 76.2029 46.3297 75.7903 46.5944C75.0756 47.0476 74.3655 47.5201 73.5808 47.844C73.4508 47.8775 73.151 48.0566 73.0475 47.9507Z" fill="black"/>
<path d="M72.3561 50.6958C72.3171 50.5821 72.4433 50.5455 72.5242 50.5105C74.3242 49.5131 75.7692 47.9296 77.0001 46.3024C77.078 46.1856 77.2594 46.2962 77.1831 46.4208C76.1336 47.8642 74.8645 49.1651 73.4266 50.224C73.2125 50.333 72.525 50.9293 72.3561 50.6958Z" fill="black"/>
<path d="M73.866 54.4708C73.866 54.3034 74.0839 54.3649 74.1929 54.3338C74.6881 54.2458 75.1646 54.0605 75.6146 53.8402C77.4769 52.7798 79.4988 49.8322 78.735 47.6484C78.5871 47.6017 78.6758 47.3572 78.8206 47.4397C79.027 47.5923 79.0713 48.0291 79.1095 48.272C79.1889 50.9969 76.9949 53.9803 74.2864 54.5315C74.1657 54.5354 73.8909 54.6398 73.866 54.4708Z" fill="#1A1A1A"/>
<path d="M65.7814 45.9344C64.3785 45.69 64.053 44.0239 64.4883 42.8607C65.1204 41.3931 66.6425 40.2915 68.2471 40.2004C68.4308 40.2261 68.8372 40.068 68.8979 40.2915C68.8551 40.4791 68.578 40.3592 68.4378 40.4005C66.8667 40.42 65.3719 41.4617 64.7101 42.8654C64.3006 43.9079 64.5077 45.4712 65.7923 45.7219C65.9426 45.7226 65.9317 45.9586 65.7814 45.9344Z" fill="#1A1A1A"/>
<path d="M67.5621 40.4809C67.5653 40.3439 67.7778 40.3516 67.7724 40.4879C67.7685 40.6241 67.5559 40.6164 67.5621 40.4809Z" fill="#1A1A1A"/>
<path d="M72.4941 54.8271C72.4806 54.8303 72.4654 54.8335 72.4518 54.8367C72.4662 54.8335 72.4806 54.8303 72.4941 54.8271Z" fill="#F28F88"/>
<path d="M67.9215 61.3823C68.1044 60.7525 68.5062 60.2262 68.9748 59.7746C68.8184 58.0969 68.9639 56.0843 67.7611 54.7608C67.5844 54.7429 67.4053 54.7094 67.2286 54.7265C64.854 54.282 64.0879 51.5033 64.2241 49.3935C62.6234 48.9941 62.7029 47.9905 64.1798 47.4572C64.1463 46.8546 65.2557 42.6419 66.0226 43.137C66.169 43.1651 66.1658 43.355 66.1954 43.4492C66.6151 44.9822 67.7478 46.505 69.2045 47.1824C69.9278 46.4895 71.235 46.6444 71.8407 47.423C72.7765 48.5433 71.8446 50.5963 70.3529 50.5068C70.7429 52.0436 71.4281 53.5828 72.743 54.5358C72.7508 54.5334 72.7594 54.5319 72.7679 54.5311C72.9999 54.7117 73.2358 54.8853 73.4772 55.0527C73.998 56.6846 74.4753 58.3343 74.9541 59.9786C74.9323 60.1966 74.5493 60.2838 74.3967 60.4348C73.3721 61.1052 72.3942 61.8643 71.2607 62.3462C70.1271 62.9643 67.3165 63.5732 67.9215 61.3823Z" fill="#F28F88"/>
<path d="M68.8086 47.8752C70.4015 49.2836 68.2714 51.715 66.666 50.3206C65.0731 48.9122 67.204 46.4808 68.8086 47.8752Z" fill="#E25349"/>
<path d="M69.4272 50.7368C69.5534 51.1821 69.4008 51.7185 68.9625 51.9256C68.8433 51.9801 68.5786 52.2393 68.5039 52.0323C68.3949 51.9155 68.5475 51.84 68.6394 51.7925C68.7554 51.7201 68.8239 51.6002 68.8433 51.467C69.2038 50.3576 67.9036 50.2089 67.7814 49.3081C67.7394 48.6043 68.3482 48.1162 68.5304 47.4832C68.581 47.2099 68.5599 46.9117 68.4494 46.654C68.3715 46.531 68.5568 46.4127 68.6347 46.5404C68.651 46.5738 68.6666 46.6081 68.6798 46.6439C68.8394 46.6665 68.9391 46.7973 69.0123 46.9242C69.0637 46.8845 69.1493 46.886 69.1828 46.9655C69.6032 47.9612 68.2197 48.6868 68.6043 49.653C68.8254 50.0555 69.3027 50.2743 69.4272 50.7368Z" fill="#1A1A1A"/>
<path d="M65.5705 49.7844C65.9357 50.4625 64.7375 50.9904 64.3537 50.4221C64.1559 49.8023 65.1805 49.2067 65.5705 49.7844Z" fill="#E25349"/>
<path d="M70.2304 48.3835C70.0973 48.2761 69.5227 47.6112 69.7897 47.4968C69.8964 47.4672 69.9299 47.5614 69.9517 47.6455C70.2234 48.2543 70.8525 48.6366 71.4909 48.7487C71.5493 48.7541 71.5967 48.8078 71.5905 48.8678C71.5508 49.0655 71.276 48.9052 71.1499 48.8888C70.8081 48.8001 70.4974 48.6124 70.2304 48.3835Z" fill="black"/>
<path d="M69.5647 48.8843C69.5382 48.7893 69.6145 48.7449 69.6947 48.7278C69.8808 48.6484 70.0412 48.5487 70.1649 48.3914C70.2241 48.3221 70.2716 48.182 70.3868 48.2388C70.4374 48.2661 70.4631 48.3362 70.4328 48.3868C70.3518 48.5752 69.7219 49.1458 69.5647 48.8843Z" fill="black"/>
<path d="M66.6855 46.0369C66.6855 46.6193 65.8906 46.0587 65.5598 46.1342C65.3285 46.1335 64.9899 46.1911 64.9128 45.8991C64.6932 44.845 66.5913 45.3245 66.6855 46.0369Z" fill="#1A1A1A"/>
<path d="M65.0787 46.8981C65.3792 46.5664 65.8931 47.039 65.5879 47.366C65.2873 47.6977 64.7727 47.2251 65.0787 46.8981Z" fill="black"/>
<path d="M64.3324 50.1791C64.3378 50.1098 64.4149 50.0607 64.4795 50.088V50.0872C64.4749 50.0856 64.471 50.0849 64.4663 50.0833C65.0549 50.1736 65.6053 49.6652 65.7914 49.142C65.8054 49.0844 65.8646 49.0471 65.9222 49.0603C65.9798 49.0735 66.0179 49.1335 66.0039 49.1911C65.8233 49.7462 65.3157 50.2242 64.7294 50.3091C64.6095 50.3137 64.3324 50.3581 64.3324 50.1791Z" fill="black"/>
<path d="M68.2132 54.6239C68.2086 54.4861 68.3549 54.5071 68.4499 54.497C68.6617 54.4737 68.8921 54.4199 69.0907 54.36C69.5352 54.2199 69.9689 54.047 70.4033 53.8781C70.5061 53.8477 70.6649 53.7216 70.7303 53.8687C70.7505 53.9256 70.7202 53.9855 70.6649 54.0081C70.2452 54.1342 68.4795 54.9945 68.2132 54.6239Z" fill="#E25349"/>
<path d="M99.1828 67.0779C100.186 69.0477 99.5807 71.3342 99.2755 73.4052C98.5849 77.2302 98.1334 81.105 98.0329 84.9923C98.0321 85.809 97.776 85.7359 97.0862 85.9289C94.3543 86.7962 91.3312 86.7464 88.7659 85.3917C88.0177 85.0538 87.366 84.4333 87.4011 83.5567C86.9822 80.7804 86.5618 78.0609 86.171 75.2885C86.0269 74.0677 85.6665 73.8785 85.1308 72.8952C84.5882 71.8419 85.1791 70.4778 86.2473 70.0442C86.3337 66.7322 86.3298 61.959 89.929 60.4953C90.2552 60.4042 90.6056 60.384 90.9333 60.4751C91.0595 60.5023 91.4176 60.6736 91.2121 60.8122C91.5305 61.0691 91.8863 61.284 92.1814 61.5674C93.9736 62.068 95.4411 63.6266 96.9118 64.7462C97.7417 65.4399 98.6059 66.1507 99.1828 67.0779Z" fill="white"/>
<path d="M89.887 67.4575C89.5226 67.3882 89.1302 67.2372 88.9363 66.9016C88.8756 66.7879 88.7915 66.6392 88.8484 66.5108C88.899 66.4251 89.0391 66.4532 89.0469 66.5544C89.0625 67.1827 90.2093 67.4287 90.6803 67.1795C90.836 67.1523 91.0353 66.8806 91.1692 67.041C91.1965 67.0931 91.1739 67.1539 91.1241 67.1827C90.7581 67.4193 90.3214 67.5618 89.887 67.4575Z" fill="#E6E6E6"/>
<path d="M99.4056 97.9512C99.4188 98.9026 100.977 107.84 101.621 111.998H85.7958C85.7343 103.962 85.7903 93.0806 85.9818 85.7163C85.331 82.3911 86.062 78.0491 85.4112 74.7138C85.4018 74.7068 85.3925 74.6975 85.3831 74.6882C83.2452 72.6149 83.0187 69.5513 86.2567 68.6855C86.4692 67.6041 89.6395 60.2671 90.8922 61.9931C90.9225 62.1372 90.8283 62.282 90.5924 62.2532C90.5745 62.3116 90.5364 62.3645 90.4764 62.3988C89.1389 64.4292 88.1657 66.6987 87.3007 68.965C88.379 69.9904 89.5663 70.9028 90.7255 71.8348C91.2931 68.9822 92.5209 66.279 94.0858 63.8391C94.289 63.5775 94.6961 63.9014 94.4828 64.1606C94.1052 64.7492 93.751 65.3526 93.4232 65.9692C93.4435 65.9793 93.4606 65.9894 93.4754 66.0011C93.519 65.9505 93.5688 65.9123 93.6272 65.8983C92.3465 68.5228 91.9214 72.1641 92.8884 74.9458C93.6724 77.2745 95.8881 78.2485 98.0688 78.8947C98.0688 78.8923 98.0696 78.89 98.0696 78.8884C98.216 78.9351 98.3631 78.9803 98.5103 79.0247C98.6302 79.0613 98.75 79.0971 98.8699 79.1329C98.6636 81.1766 98.5048 83.2242 98.3584 85.2725C101.543 88.6257 101.854 94.0468 99.4056 97.9512Z" fill="#7B2D6A"/>
<path d="M90.7482 73.2663C89.2978 72.1654 87.8902 71.0116 86.481 69.8593C86.4039 69.7714 86.1696 69.6733 86.2654 69.537C86.3012 69.4942 86.3705 69.4849 86.4141 69.523C86.7551 69.8298 87.1233 70.1046 87.483 70.3895C88.5753 71.3448 89.74 72.2106 90.8821 73.1043C90.9857 73.1915 90.8565 73.3535 90.7482 73.2663Z" fill="#632457"/>
<path d="M91.4979 71.9098C91.0697 71.8218 91.3228 71.041 91.5976 70.9141C91.7058 70.8993 91.7564 71.0581 91.6606 71.1087C91.5867 71.1889 91.3508 71.7043 91.5563 71.6903C91.6684 71.6155 91.6965 71.4544 91.67 71.3298C91.6435 71.1943 91.842 71.1484 91.8755 71.2831C91.937 71.5369 91.8031 71.9199 91.4979 71.9098Z" fill="#632457"/>
<path d="M86.9785 68.222C86.6328 68.1807 86.8812 67.6225 87.1116 67.5836C87.2393 67.5711 87.2697 67.7611 87.1459 67.7907C87.093 67.846 87.0431 67.9114 87.0221 67.9861C87.2097 67.9986 87.1373 68.2267 86.9785 68.222Z" fill="#632457"/>
<path d="M89.3974 73.9571C88.3261 73.669 87.5608 72.6787 86.7223 71.9936C86.4358 71.6993 85.7483 71.1022 85.7327 70.6958C85.8215 70.3625 86.0473 70.0722 86.1975 69.7615C86.2302 69.7062 86.2567 69.6478 86.2941 69.5949C86.3774 69.4929 86.5354 69.6159 86.4638 69.7179C86.2863 70.0348 86.1057 70.3524 85.9484 70.6794C85.9204 70.9659 86.7067 71.676 86.9208 71.8924C87.6168 72.5222 88.323 73.1941 89.1241 73.6737C89.9813 73.9859 90.302 73.3716 90.4305 73.599C90.5068 73.8785 89.6029 74.0248 89.3974 73.9571Z" fill="#632457"/>
<path d="M88.1986 80.3839C87.0113 79.5883 86.457 78.1877 86.3573 76.8057C86.1346 75.0158 86.1035 73.2088 86.0506 71.4088C86.0529 71.3567 86.0942 71.3131 86.1463 71.3076C86.3612 71.3372 86.2242 71.6704 86.2647 71.823C86.5364 74.4654 85.8777 78.5505 88.3325 80.222C88.436 80.3045 88.3091 80.4735 88.1986 80.3839Z" fill="#632457"/>
<path d="M89.7914 80.3404C89.7066 80.1894 89.9401 80.1404 90.0211 80.0563C90.3839 79.7729 90.4392 79.284 90.4797 78.8558C90.5809 77.0223 90.8697 75.181 90.7498 73.3444C90.7358 73.2113 90.9483 73.1871 90.9592 73.3249C91.0643 74.7092 90.8954 76.0903 90.7918 77.4692C90.6393 78.4385 90.9382 79.7923 89.9378 80.3661C89.8895 80.3957 89.8264 80.3895 89.7914 80.3404Z" fill="#632457"/>
<path d="M87.7718 79.161C87.4666 77.1811 87.4448 75.1841 87.5958 73.1903C87.5772 73.1319 87.6044 73.0649 87.6589 73.0486C87.7983 73.0073 87.8185 73.1693 87.806 73.2697C87.7173 74.7326 87.634 76.2017 87.8107 77.6615C87.8613 78.1551 87.9213 78.6479 87.982 79.1407C87.9929 79.2746 87.7897 79.3019 87.7718 79.161Z" fill="#632457"/>
<path d="M88.3955 79.6613C88.2297 77.6799 88.2943 75.6876 88.2826 73.703C88.3207 73.573 88.5232 73.6306 88.4842 73.7638C88.4858 73.756 88.4874 73.7482 88.4881 73.7404C88.513 75.7078 88.4375 77.6775 88.6049 79.6418C88.6143 79.7773 88.4111 79.8006 88.3955 79.6613Z" fill="#632457"/>
<path d="M98.4863 79.9359C96.55 79.7195 94.8006 78.6934 93.5697 77.2001C93.5721 77.2032 93.5721 77.2032 93.5783 77.211C91.8515 75.1603 91.7331 72.3209 92.1076 69.7805C92.1092 69.6949 92.1255 69.575 92.2392 69.5914C92.2952 69.5999 92.3349 69.656 92.3256 69.712C92.3061 69.9137 92.2804 70.1153 92.2555 70.3162C91.5642 74.6153 93.5401 78.793 98.0643 79.6479C98.2169 79.7242 98.5984 79.6417 98.6069 79.8487C98.5976 79.9087 98.5423 79.9422 98.4863 79.9359Z" fill="#632457"/>
<path d="M97.2007 85.5519C97.1268 85.548 97.0442 85.5589 96.9765 85.5246C96.8698 85.4592 96.9524 85.2911 97.0684 85.337C97.0645 85.3347 97.0598 85.3339 97.0551 85.3323C97.3043 85.3572 97.5565 85.3261 97.8049 85.3043C97.8617 85.2981 97.9139 85.3432 97.9193 85.3993C97.9256 85.4569 97.882 85.5083 97.8251 85.5145C97.6173 85.5355 97.4094 85.5519 97.2007 85.5519Z" fill="#632457"/>
<path d="M96.1298 86.6771C96.1041 86.6265 96.1236 86.5611 96.1742 86.5346C96.8694 86.1656 97.5678 85.7841 98.1805 85.2874C98.2241 85.2492 98.2895 85.25 98.3292 85.2936C98.4499 85.4337 98.1392 85.5661 98.0551 85.6509C97.4954 86.0605 96.885 86.3983 96.2723 86.7214C96.2217 86.7471 96.157 86.7292 96.1298 86.6771Z" fill="#632457"/>
<path d="M88.0397 85.3864C87.8926 85.3583 86.8999 85.1357 87.3531 84.9434C87.5773 85.0539 87.8287 85.1271 88.074 85.1785C88.2102 85.2034 88.176 85.4074 88.0397 85.3864Z" fill="#632457"/>
<path d="M89.454 111.999C89.1153 104.593 88.7245 97.1916 88.7681 89.7743C88.7486 89.1616 88.7245 88.5489 88.705 87.9362C88.7042 87.8288 88.7587 87.7423 88.814 87.7462C88.8739 87.7493 88.9152 87.8443 88.916 87.9518C89.0592 91.2684 88.9923 94.5795 89.0546 97.8954C89.1713 102.607 89.4789 107.295 89.679 111.999H89.454Z" fill="#632457"/>
<path d="M97.8415 92.1817C95.3182 91.4989 92.6244 89.5899 92.3185 86.8128C92.2842 86.6244 92.5925 86.6548 92.5318 86.8308C92.8432 89.4537 95.3501 91.1906 97.6943 91.9373C97.7917 91.9692 97.9762 91.9466 97.9629 92.0945C97.9536 92.1506 97.8968 92.1911 97.8415 92.1817Z" fill="#632457"/>
<path d="M97.0686 92.7366C94.6652 92.1713 91.9605 90.0148 91.7441 87.4237C91.6872 87.3864 91.7028 87.3093 91.7044 87.2501C91.702 87.1746 91.7075 87.0711 91.8032 87.0625C91.9979 87.0835 91.9208 87.3809 91.9683 87.5195C92.0664 88.611 92.3646 89.0268 93.0225 89.8653C94.0392 91.1623 95.485 92.1675 97.1028 92.5287C97.236 92.5505 97.2079 92.756 97.0686 92.7366Z" fill="#632457"/>
<path d="M98.1755 99.6421C98.1304 99.6055 98.1257 99.5394 98.1615 99.4942C98.4573 99.0894 98.8754 98.7678 99.109 98.324C98.6302 98.3871 98.1771 98.6137 97.6975 98.6355C97.1073 98.4463 98.4067 98.145 98.5881 98.0586C98.7804 98.0336 99.2857 97.723 99.3776 97.9644C99.3846 98.0321 99.3278 98.0796 99.2639 98.0819C99.0381 98.1286 99.5286 98.1068 99.2188 98.5677C98.9517 98.9453 98.6068 99.2614 98.3242 99.6281C98.2884 99.6733 98.2191 99.6787 98.1755 99.6421Z" fill="#632457"/>
<path d="M91.4589 85.7257C91.2136 85.686 90.214 85.7926 90.193 85.531C90.2545 85.3559 90.5021 85.4968 90.6391 85.482C91.8233 85.577 93.0074 85.4485 94.1799 85.2905C94.3154 85.2796 94.3387 85.482 94.2002 85.4999C93.2908 85.6229 92.3776 85.7257 91.4589 85.7257Z" fill="#632457"/>
<path d="M107.44 56.6053C107.164 55.9801 107.114 55.1657 106.492 54.7414C105.164 54.0672 103.181 55.1073 101.777 54.0703C100.931 53.4988 100.379 52.4774 100.414 51.4513C100.425 51.2496 100.499 50.4555 100.804 50.5925C100.826 50.443 100.737 50.0748 100.962 50.0787C100.359 49.2581 100.022 48.2927 100.09 47.2222C100.056 47.258 100.011 47.2611 99.9752 47.244C99.9783 47.1692 99.9815 47.0937 99.9846 47.019C101.166 45.8683 102.759 45.1357 104.355 44.7487C104.981 44.6374 105.435 44.3735 105.453 45.2595C105.475 46.0793 105.343 46.8929 105.213 47.6994C104.992 49.0144 104.704 50.3169 104.334 51.5976C103.65 52.8908 101.577 50.8705 101.043 50.1853C100.797 53.2559 104.235 52.4906 106.142 51.9877C107.496 51.6864 109.014 51.4972 109.537 53.1166C109.664 53.7114 109.812 54.4705 109.547 55.0217C109.541 55.0902 109.468 55.1533 109.389 55.1065C109.166 54.9656 108.939 54.7881 108.666 54.7671C108.401 55.01 107.879 56.9089 107.44 56.6053Z" fill="#7B2D6A"/>
<path d="M96.9183 48.9951C96.41 48.9437 96.4403 48.3785 96.4769 47.9939C96.5898 46.2562 96.8927 44.5263 97.3816 42.8555C97.5622 42.1641 98.5237 39.5428 99.085 41.3988C99.8239 43.0361 99.9539 44.7925 99.792 46.559C99.56 46.5295 99.7616 45.9915 99.7133 45.8062C99.2875 47.0807 98.4116 48.8472 96.9183 48.9951Z" fill="#7B2D6A"/>
<path d="M103.766 56.2533C104.022 57.58 103.176 58.1904 102.411 59.0888C101.51 60.0137 101.377 61.4587 100.361 62.2793C96.8432 64.7761 93.3802 62.4109 91.7344 59.0001C90.526 56.8263 90.0387 54.3973 89.7732 51.9526C89.5988 51.1258 88.8343 50.5816 88.3889 49.8973C88.0144 49.3445 87.6392 48.738 87.5123 48.0793C86.2876 47.9392 85.562 46.8142 85.6173 45.616C85.9194 42.7525 89.8767 42.1118 91.834 43.7467C94.2249 42.1203 97.5089 43.0281 99.5409 44.8312C100.796 46.0325 101.275 47.933 101.113 49.6271C101.04 50.7334 100.732 51.8717 101.015 52.9694C101.416 54.3132 103.395 54.4798 103.766 56.2533Z" fill="#5E3A28"/>
<path d="M102.566 58.3525C102.529 58.312 102.528 58.2404 102.572 58.203C103.191 57.6977 103.499 56.9223 103.641 56.1554C104.029 54.1865 101.819 53.8081 101.569 52.1194C101.27 50.5927 101.805 49.0286 101.42 47.5166C100.997 45.7781 99.7728 43.9314 97.7781 44.0996C97.6224 44.0614 97.3421 44.2374 97.2783 44.0388C97.3406 43.7967 97.8046 43.926 98.0016 43.8886C100.157 43.8154 101.451 46.1331 101.732 48.011C101.869 49.0231 101.659 50.0516 101.687 51.0676C101.525 53.6508 103.564 53.4165 103.862 55.4781C103.962 56.4847 103.496 57.7071 102.715 58.3579C102.671 58.3953 102.607 58.3961 102.566 58.3525Z" fill="#5E3A28"/>
<path d="M86.8318 47.5597C84.8138 47.3573 84.6799 45.4717 85.8064 44.1326C87.0241 42.5233 89.5287 42.2851 91.2555 43.1571C91.3061 43.1648 91.345 43.2131 91.3435 43.2645C91.3209 43.4202 91.1706 43.3595 91.078 43.3073C89.7233 42.637 87.8548 42.7382 86.6146 43.6133C85.2108 44.6597 84.4883 47.1027 86.866 47.3519C87.0015 47.3768 86.968 47.58 86.8318 47.5597Z" fill="#5E3A28"/>
<path d="M93.7048 58.4834C93.6912 58.4866 93.6761 58.4898 93.6625 58.493C93.6769 58.4898 93.6912 58.4866 93.7048 58.4834Z" fill="#E37C70"/>
<path d="M89.1324 65.036C89.3154 64.4061 89.7171 63.8798 90.1858 63.4283C90.0293 61.7513 90.1749 59.7387 88.972 58.4152C88.7953 58.3965 88.6162 58.363 88.4395 58.3802C86.0649 57.9364 85.2988 55.1577 85.4351 53.0471C83.8344 52.6485 83.9138 51.6442 85.3907 51.1108C85.3572 50.5083 86.4674 46.2955 87.2335 46.7915C87.3799 46.8187 87.3768 47.0087 87.4064 47.1029C87.826 48.6358 88.9588 50.1587 90.4155 50.836C91.1387 50.1431 92.4467 50.298 93.0516 51.0766C93.9874 52.1969 93.0555 54.25 91.5638 54.1604C91.9539 55.6981 92.639 57.2365 93.954 58.1902C93.9617 58.1871 93.9703 58.1855 93.9789 58.1847C94.2109 58.3654 94.4468 58.539 94.6881 58.7072C95.209 60.339 95.6862 61.988 96.165 63.6323C96.1432 63.8502 95.7602 63.9374 95.6076 64.0893C94.583 64.7596 93.6052 65.5179 92.4716 65.9998C91.338 66.618 88.5275 67.2276 89.1324 65.036Z" fill="#E37C70"/>
<path d="M86.7812 53.4397C87.1464 54.1171 85.9482 54.6457 85.5644 54.0766C85.3666 53.4576 86.3912 52.862 86.7812 53.4397Z" fill="#E25349"/>
<path d="M89.9593 51.5198C91.5164 52.8971 89.4337 55.274 87.8642 53.9108C86.3071 52.5343 88.3897 50.1574 89.9593 51.5198Z" fill="#E25349"/>
<path d="M91.4411 52.0386C91.3079 51.9311 90.7334 51.267 91.0004 51.1518C91.1071 51.123 91.1406 51.2164 91.1624 51.3005C91.4341 51.9093 92.0631 52.2916 92.7015 52.4037C92.7607 52.4092 92.8074 52.4637 92.8012 52.5228C92.7615 52.7214 92.4867 52.5602 92.3605 52.5446C92.0188 52.4559 91.7081 52.2675 91.4411 52.0386Z" fill="black"/>
<path d="M90.7751 52.539C90.7487 52.4448 90.825 52.3997 90.9051 52.3825C91.0912 52.3039 91.2516 52.2035 91.3754 52.047C91.4346 51.9777 91.4828 51.8368 91.5973 51.8944C91.6479 51.9208 91.6736 51.9909 91.6432 52.0415C91.5622 52.2299 90.9324 52.8014 90.7751 52.539Z" fill="black"/>
<path d="M87.8962 49.6917C87.8962 50.2733 87.1013 49.7127 86.7712 49.789C86.5392 49.7875 86.2006 49.8451 86.1235 49.5531C85.9039 48.499 87.802 48.9793 87.8962 49.6917Z" fill="#5E3A28"/>
<path d="M86.2894 50.5524C86.5899 50.2208 87.1038 50.6933 86.7986 51.0195C86.498 51.3512 85.9834 50.8786 86.2894 50.5524Z" fill="black"/>
<path d="M85.5428 53.8333C85.5482 53.764 85.6253 53.715 85.6899 53.7422C85.6899 53.7422 85.6899 53.7422 85.6899 53.7414C85.6853 53.7407 85.6814 53.7391 85.6767 53.7376C86.2653 53.8286 86.8157 53.3195 87.0026 52.7971C87.0158 52.7395 87.075 52.7013 87.1326 52.7145C87.191 52.7286 87.2284 52.7877 87.2143 52.8461C87.0337 53.4012 86.5261 53.8785 85.9399 53.9633C85.82 53.968 85.5436 54.0124 85.5428 53.8333Z" fill="black"/>
<path d="M89.4236 58.278C89.4189 58.1402 89.5653 58.1612 89.6603 58.1511C89.8721 58.1285 90.1025 58.0748 90.301 58.0148C90.7456 57.8747 91.1792 57.7011 91.6137 57.5329C91.7164 57.5026 91.8753 57.3757 91.9407 57.5228C91.9617 57.5804 91.9305 57.6404 91.8753 57.6629C91.4556 57.7883 89.6899 58.6494 89.4236 58.278Z" fill="#C75F38"/>
<path d="M90.2054 50.7399C88.3882 50.2051 86.8358 48.2852 86.8101 46.3653C86.7611 46.1239 87.1013 46.1037 87.0203 46.352C87.0421 47.6927 87.7506 48.9072 88.8063 49.7053C89.3155 50.17 89.9524 50.6418 90.6811 50.5383C90.7597 50.5235 90.8664 50.4815 90.9045 50.5827C90.9816 50.8217 90.3362 50.7633 90.2054 50.7399Z" fill="#5E3A28"/>
<path d="M89.7303 49.2168C88.5812 48.6632 87.0824 47.6877 87.0926 46.2746C87.1541 46.1789 87.3043 46.2342 87.2864 46.3471C87.4079 47.6441 88.719 48.4881 89.7902 49.0151C89.9203 49.0525 89.8603 49.2581 89.7303 49.2168Z" fill="#5E3A28"/>
<path d="M94.556 63.1405C93.6716 63.1942 92.7054 62.6851 92.6587 61.7158C92.6875 60.9902 93.2511 60.2801 93.621 59.676C94.7693 58.1329 96.0508 57.1434 93.4162 56.2675C93.424 56.2698 93.431 56.2729 93.438 56.2753C92.8455 56.0168 92.1729 55.974 91.6131 55.6415C90.5605 54.8256 91.4924 53.3012 92.3566 52.7181C92.4812 52.6278 92.8658 52.2673 92.9467 52.5367C92.9537 52.5935 92.9078 52.6465 92.8517 52.6519C92.007 53.1113 91.1639 54.0393 91.42 55.0732C91.712 55.7786 92.6618 55.7147 93.2667 55.988C96.5608 57.1021 94.904 58.1648 93.5813 60.1244C91.937 62.2639 93.5174 63.3453 95.7285 62.8128C96.8169 62.4686 97.8508 61.7812 98.5554 60.8796C98.6979 60.7543 98.8224 60.2973 99.0288 60.3619C99.077 60.3923 99.0934 60.4592 99.063 60.5075C98.8645 60.8119 98.6589 61.1147 98.4184 61.3872C97.3798 62.369 96.0438 63.2425 94.556 63.1405Z" fill="#5E3A28"/>
<path d="M94.5325 62.4466C92.875 62.5556 91.2525 60.8732 92.0964 59.2499C92.3752 58.4877 93.1249 58.0712 93.5702 57.4336C93.7937 57.1198 93.9704 56.7765 93.9595 56.3887C93.9463 56.2548 94.1573 56.2315 94.1689 56.3685C94.197 57.4374 93.1973 58.0727 92.5916 58.8022C91.2509 60.5267 92.8026 62.4303 94.7723 62.2333C96.8822 62.1165 98.4222 60.248 99.6686 58.7228C99.7511 58.617 99.9193 58.7516 99.8305 58.8567C98.5062 60.4909 96.8168 62.4871 94.5325 62.4466Z" fill="#5E3A28"/>
<path d="M95.5231 61.6142C92.8005 61.6586 91.7098 59.351 93.783 57.4763C93.9504 57.4101 94.0182 57.7129 93.8313 57.7059C91.9994 59.5254 93.0839 61.436 95.5301 61.404C96.5632 61.4663 97.5076 60.961 98.343 60.4067C98.3905 60.3748 98.4559 60.3841 98.4901 60.4316C98.5221 60.4783 98.5119 60.5469 98.4637 60.5788C97.5917 61.1588 96.6014 61.6804 95.5231 61.6142Z" fill="#5E3A28"/>
<path d="M100.26 60.966C100.144 60.9536 99.8314 60.9972 99.8531 60.8212C99.9209 60.6422 100.183 60.7955 100.33 60.7551C101.632 60.5947 102.907 59.8387 103.782 58.8787C106.129 55.028 101.821 55.0405 100.778 52.4004C100.72 52.2276 100.567 51.4895 100.88 51.6001C100.926 51.625 100.943 51.6943 100.92 51.7356C100.893 54.0992 104.401 54.3694 104.66 56.6646C104.714 57.8495 104.131 59.124 103.12 59.771C102.258 60.3377 101.323 60.9349 100.26 60.966Z" fill="#5E3A28"/>
<path d="M96.9509 5.92612C97.7146 8.73513 97.228 11.8571 96.1046 14.5182C95.1563 16.3727 93.2816 17.4884 91.4457 18.3237C90.165 18.9645 88.1104 19.5126 87.655 21.0043C87.7632 21.0806 87.6986 21.2503 87.574 21.2122C87.4728 21.2947 87.3615 21.1771 87.4144 21.0463C85.9437 19.4254 84.5455 17.7523 83.1371 16.0815C82.719 16.3361 83.0935 15.4844 83.1791 15.3575C85.3045 11.7816 90.0358 12.1631 93.3859 10.5071C95.3034 9.61022 96.0049 8.27423 96.6651 6.36678C96.7531 6.22742 96.6994 5.79066 96.9509 5.92612Z" fill="#F18BAB"/>
<path d="M87.3003 14.6359C86.9469 15.4526 87.3229 16.4009 88.1396 16.7543C88.9563 17.107 89.9046 16.731 90.2573 15.915C90.6107 15.0983 90.2347 14.1501 89.418 13.7966C88.6013 13.4439 87.653 13.8192 87.3003 14.6359Z" stroke="white" stroke-width="0.79997"/>
<path d="M88.1396 16.752L87.2599 18.7863" stroke="white" stroke-width="0.79997"/>
<path d="M88.5312 18.2345L86.792 17.4824" stroke="white" stroke-width="0.79997"/>
<path d="M98.5787 34.4782C93.3873 28.4483 88.1952 22.4192 83.0046 16.3901C82.8785 16.1939 82.5001 15.9884 82.7048 15.74C82.7835 15.6637 82.9275 15.6567 83.003 15.7439C88.1041 21.6687 93.2051 27.5934 98.307 33.5182C98.4557 33.786 99.1151 34.1948 98.8769 34.482C98.7974 34.5591 98.6534 34.5653 98.5787 34.4782Z" fill="black"/>
<path d="M97.6621 74.1217C93.2563 75.0381 92.948 69.4707 92.6755 66.4149C92.4271 63.767 89.5878 32.6904 89.6804 29.9079C89.7318 28.364 90.1912 26.8038 91.2414 25.636C91.5676 25.2732 91.974 24.2837 92.5112 24.3413C92.9955 24.5639 93.1341 24.9415 93.1045 25.3736C94.0714 24.6971 94.53 25.3993 94.6491 26.3266C94.9473 26.3795 95.2657 26.2012 95.5608 26.3367C96.2265 26.6248 95.8917 27.4329 95.9361 27.9732C96.8991 28.5462 96.9139 30.5642 96.0287 31.1995C95.9065 31.2797 95.9298 31.1824 95.8341 31.3957C95.7017 31.8636 95.6441 32.358 95.5717 32.8399C95.5328 34.9685 99.5734 66.924 99.6108 70.3169C99.7953 71.9013 99.4738 73.7371 97.6621 74.1217Z" fill="#E37C70"/>
<path d="M99.4022 67.5851C99.5298 68.9102 99.6061 69.8671 99.6108 70.3186C99.7953 71.903 99.4738 73.7388 97.6621 74.1234C93.2563 75.0397 92.948 69.4723 92.6755 66.4165C92.5603 65.1833 91.8829 57.7879 91.2009 49.9541" stroke="#C75F38" stroke-width="0.265847" stroke-linecap="round" stroke-linejoin="round"/>
<path d="M93.2484 30.8235C93.1246 30.8414 93.12 30.6989 93.0982 30.6133C92.9129 29.9336 92.6661 29.2516 92.1966 28.7128C91.9965 28.4567 91.545 28.1959 91.8221 27.8346C92.2239 27.0148 92.8039 25.984 92.7774 25.0583C92.7696 24.9664 92.6957 24.8543 92.8194 24.8076C93.4929 25.0287 92.1795 27.6229 91.9397 28.0822C91.9397 28.0767 91.9405 28.0806 91.9397 28.069C91.9397 28.0729 91.9397 28.076 91.9397 28.0799C92.5859 28.8024 93.1059 29.6074 93.306 30.5813C93.3294 30.6678 93.3714 30.797 93.2484 30.8235Z" fill="#C76039"/>
<path d="M95.4134 30.8586C95.1993 30.4328 95.4733 29.9322 95.5815 29.5063C95.3651 29.7484 94.9672 29.9135 94.7757 29.553C94.6122 29.1388 94.8419 28.6499 94.9587 28.2466C94.0587 29.3 93.6204 28.4117 93.9396 27.4112C93.1244 28.4903 92.2665 28.1477 92.4167 26.811C92.4689 26.6778 92.6674 26.7588 92.6137 26.8896C92.588 28.9076 93.9559 27.2337 94.339 26.3937C94.7477 26.2979 94.2868 26.8631 94.2736 27.0227C94.1786 27.331 93.8656 28.2863 94.184 28.495C94.1801 28.4934 94.1755 28.4903 94.1716 28.4895C94.5756 28.6032 95.0513 27.7561 95.2421 27.4618C95.2748 27.3248 95.4943 27.3147 95.4733 27.4797C95.2841 28.0146 95.0342 28.537 94.9423 29.1022C94.8341 30.0521 95.629 29.2385 95.8213 28.8656C95.8517 28.8002 95.921 28.734 95.9965 28.7745C96.1312 28.8671 95.9825 29.0392 95.9506 29.1536C95.7808 29.6472 95.4461 30.2233 95.5916 30.7465C95.6617 30.8641 95.4904 30.9746 95.4134 30.8586Z" fill="#C76039"/>
<path d="M94.9798 31.0609C94.4154 31.0258 93.8642 31.1668 93.3535 31.3988C93.2273 31.4525 93.1401 31.268 93.2647 31.2072C93.8089 30.9612 94.3959 30.8125 94.997 30.8507C95.0538 30.8538 95.0974 30.9091 95.0935 30.9643C95.0888 31.0235 95.0359 31.064 94.9798 31.0609Z" fill="#C76039"/>
<path d="M91.8858 25.2686C91.8391 25.26 91.8049 25.225 91.7729 25.193C91.7737 25.193 91.7737 25.193 91.7737 25.193C91.6624 25.0755 91.8461 24.9338 91.9411 25.063C92.0524 25.0428 92.163 24.8583 92.272 24.9727C92.3786 25.1424 92.0197 25.2904 91.8858 25.2686Z" fill="#C76039"/>
<path fill-rule="evenodd" clip-rule="evenodd" d="M93.5573 26.6431C93.453 26.5793 92.9898 26.3714 92.9384 26.5481C92.7733 26.7981 92.6542 27.4123 93.1097 27.3991C93.3876 27.3687 93.6874 26.8907 93.5573 26.6431ZM93.0863 27.1904C93.091 27.1897 93.0949 27.1889 93.0995 27.1881C93.0692 27.1904 93.0334 27.185 93.0139 27.1585C93.0155 27.1609 93.017 27.1624 93.0194 27.1648C93.0194 27.1648 93.0209 27.1671 93.0225 27.1694C93.0194 27.1655 93.017 27.1616 93.0131 27.1585C92.982 27.0114 93.0342 26.8362 93.0887 26.6961C93.1906 26.7031 93.2833 26.7475 93.3767 26.7856C93.3456 26.9421 93.2646 27.0986 93.1245 27.1819C93.112 27.1866 93.0995 27.1889 93.0863 27.1904Z" fill="white"/>
<path fill-rule="evenodd" clip-rule="evenodd" d="M94.8975 27.6438C94.8858 27.5387 94.7597 27.513 94.6841 27.4624C94.579 27.4258 94.4747 27.302 94.3595 27.3417C94.2435 27.3861 94.259 27.5496 94.224 27.6508C94.1672 27.8556 94.1999 28.1872 94.4693 28.1981C94.7262 28.167 94.8251 27.8494 94.8975 27.6438ZM94.4319 27.956C94.4334 27.9568 94.435 27.9591 94.4366 27.9615C94.435 27.9599 94.4334 27.9576 94.4319 27.956ZM94.4366 27.9615C94.4373 27.963 94.4389 27.9654 94.4397 27.9669C94.4389 27.9654 94.4373 27.9638 94.4366 27.9615ZM94.4552 27.58C94.5245 27.6135 94.5915 27.65 94.6592 27.6882C94.6102 27.7925 94.5728 27.921 94.4716 27.9864C94.4576 27.9895 94.4482 27.9778 94.4397 27.9669C94.3735 27.8478 94.4319 27.7038 94.4552 27.58Z" fill="white"/>
<path fill-rule="evenodd" clip-rule="evenodd" d="M95.6938 28.6297C95.5832 28.59 95.4898 28.4047 95.3613 28.4779C95.1013 28.5993 94.9853 29.2751 95.4205 29.1537C95.5552 29.1194 95.9141 28.7231 95.6938 28.6297ZM95.3356 28.9582C95.3465 28.8671 95.3699 28.7729 95.4213 28.6951C95.4555 28.7223 95.489 28.7496 95.5248 28.7737C95.4797 28.843 95.4306 28.917 95.3535 28.9536C95.3481 28.9551 95.3419 28.9582 95.3356 28.9582Z" fill="white"/>
<path d="M95.3717 29.0432C95.2363 29.0253 95.2783 28.8711 95.297 28.7785C95.2892 28.65 95.4441 28.5286 95.5212 28.6726C95.6489 28.7287 95.4846 29.0603 95.3717 29.0432Z" fill="white"/>
<path d="M94.4653 28.093C94.3539 28.0673 94.3734 27.9279 94.3882 27.8461C94.3975 27.7683 94.3897 27.6842 94.4201 27.611C94.473 27.5028 94.6428 27.5542 94.6218 27.6733C94.6942 27.7247 94.6506 27.8236 94.6295 27.8929C94.6038 27.9746 94.582 28.1179 94.4653 28.093Z" fill="white"/>
<path d="M94.5275 28.0317C94.3686 27.9811 94.4916 27.7872 94.4924 27.6728C94.4807 27.5965 94.5563 27.5256 94.6333 27.5544C94.7408 27.5933 94.6956 27.7234 94.6824 27.8074C94.6629 27.8978 94.6582 28.055 94.5275 28.0317Z" fill="white"/>
<path d="M93.0014 27.2135C92.9547 27.1232 92.9944 26.5689 93.1968 26.7105C93.2147 26.7028 93.235 26.6996 93.2544 26.702C93.4148 26.6475 93.439 26.8616 93.3549 26.9496C93.3292 27.0204 93.3058 27.1068 93.2303 27.1395C93.1968 27.2322 93.0746 27.3209 93.0014 27.2135Z" fill="white"/>
<path d="M95.9007 30.6446C95.5831 30.7216 95.6874 30.1611 95.8268 30.0466C95.8774 29.9851 95.963 30.0077 96.0175 30.0498C96.0821 30.098 96.1779 30.1082 96.2199 30.1813C96.2838 30.2942 96.0191 30.6337 95.9007 30.6446Z" fill="white"/>
<path fill-rule="evenodd" clip-rule="evenodd" d="M92.5143 24.7963C92.6186 24.1516 91.9031 24.6927 91.7941 24.9753C91.5154 25.1155 91.9942 25.4121 92.1632 25.3179C92.3664 25.2323 92.4629 24.9971 92.5143 24.7963ZM91.9724 25.0867C92.0588 24.9434 92.1741 24.8103 92.3165 24.7208C92.2838 24.8671 92.2262 25.0143 92.1095 25.1139C92.062 25.1365 92.0145 25.1108 91.9724 25.0867Z" fill="white"/>
<path d="M92.0207 25.2998C91.9226 25.3278 91.8603 25.2133 91.8969 25.13C91.4095 25.1721 92.1297 24.4971 92.3025 24.5033C92.5384 24.4893 92.5345 24.8786 92.3633 24.9432C92.2986 25.0288 92.2815 25.1993 92.1538 25.2055C92.1188 25.2476 92.0752 25.2857 92.0207 25.2998Z" fill="white"/>
<path d="M94.5735 74.0655C92.4496 71.8669 92.3072 68.5464 92.174 65.6556C92.9791 66.3742 98.1027 66.1531 99.5827 65.3574C99.7602 68.1921 101.032 73.6856 97.6223 74.8939C96.5534 75.2793 95.3638 74.8339 94.5735 74.0655Z" fill="white"/>
<path d="M93.9936 66.1963C93.9926 66.1963 93.9926 66.1963 93.9917 66.1953C93.9946 66.1963 93.9966 66.1963 93.9995 66.1973C93.9975 66.1973 93.9956 66.1963 93.9936 66.1963Z" fill="white"/>
<path d="M93.989 66.1953C93.9919 66.1953 93.9939 66.1963 93.9968 66.1963C93.9939 66.1963 93.9919 66.1953 93.989 66.1953Z" fill="white"/>
<path d="M93.9918 66.1945C93.9844 66.1937 93.977 66.1921 93.9696 66.1904C93.9778 66.1921 93.9852 66.1937 93.9934 66.1945C93.9926 66.1945 93.9926 66.1945 93.9918 66.1945Z" fill="white"/>
<path d="M93.9753 66.1924C93.9795 66.1924 93.9846 66.1932 93.9888 66.1941C93.9846 66.1932 93.9795 66.1932 93.9753 66.1924Z" fill="white"/>
<path d="M93.9598 66.1904C93.9606 66.1904 93.9606 66.1904 93.9614 66.1904C93.9517 66.1888 93.942 66.1872 93.9315 66.1855C93.9428 66.1872 93.9533 66.1888 93.9639 66.1912C93.9631 66.1904 93.9614 66.1904 93.9598 66.1904Z" fill="white"/>
<path d="M96.7836 74.1351C94.7415 74.1406 93.2778 72.4044 92.8753 70.5242C92.8504 70.4378 92.9586 70.3615 93.0333 70.4113C93.1174 70.4923 93.1127 70.6348 93.1563 70.7383C93.3907 71.5488 93.7675 72.3546 94.3981 72.9291C95.3043 73.886 96.8357 74.1429 98.0674 73.7653C98.1219 73.7466 98.1826 73.7731 98.2029 73.8276C98.1842 74.1678 97.0662 74.1281 96.7836 74.1351Z" fill="#E6E6E6"/>
<path fill-rule="evenodd" clip-rule="evenodd" d="M24.2686 47.6332C27.8141 44.0877 27.8141 38.3186 24.2686 34.7731C20.7231 31.2268 14.954 31.2268 11.4078 34.7723C7.86224 38.3178 7.86224 44.0877 11.4085 47.6332C14.954 51.1787 20.7231 51.1787 24.2686 47.6332ZM13.3253 36.6891C15.8136 34.2009 19.8628 34.2009 22.3518 36.6899C24.8401 39.1781 24.8401 43.2274 22.3518 45.7164C19.8628 48.2046 15.8136 48.2046 13.3253 45.7164C10.8363 43.2274 10.8363 39.1781 13.3253 36.6891Z" fill="#FFADC7"/>
<path d="M29.8789 55.1616L31.7957 53.2448L24.2686 45.7178L22.3519 47.6346L29.8789 55.1616Z" fill="#FFADC7"/>
<path d="M25.1398 54.9402L31.5745 48.5047L29.6577 46.5879L23.223 53.0234L25.1398 54.9402Z" fill="#FFADC7"/>
<path d="M103.07 3.62084L103.61 0.110359C103.633 -0.0367864 103.844 -0.0367864 103.867 0.110359L104.407 3.62084C104.414 3.67144 104.451 3.71271 104.5 3.72594L106.403 4.26003C106.53 4.29506 106.53 4.47491 106.403 4.50994L104.5 5.04403C104.451 5.05804 104.414 5.09852 104.407 5.14913L103.867 8.65961C103.844 8.80675 103.633 8.80675 103.61 8.65961L103.07 5.14913C103.062 5.09852 103.025 5.05804 102.976 5.04403L101.073 4.50994C100.947 4.47491 100.947 4.29506 101.073 4.26003L102.976 3.72594C103.025 3.71271 103.062 3.67144 103.07 3.62084Z" fill="white"/>
<path d="M24.2083 10.6134L24.5556 8.35874C24.5696 8.26453 24.7058 8.26453 24.7206 8.35874L25.0671 10.6134C25.0725 10.6461 25.0959 10.6726 25.127 10.6812L26.3493 11.0245C26.4311 11.0471 26.4311 11.1623 26.3493 11.1849L25.127 11.5274C25.0959 11.5368 25.0725 11.5632 25.0671 11.5952L24.7206 13.8498C24.7058 13.9441 24.5696 13.9441 24.5556 13.8498L24.2083 11.5952C24.2037 11.5632 24.1803 11.5368 24.1484 11.5274L22.9261 11.1849C22.8451 11.1623 22.8451 11.0471 22.9261 11.0245L24.1484 10.6812C24.1803 10.6726 24.2037 10.6461 24.2083 10.6134Z" fill="white"/>
<path d="M2.92672 97.7641L3.40552 94.6499C3.42577 94.5191 3.61339 94.5191 3.63363 94.6499L4.11322 97.7641C4.11945 97.8084 4.15216 97.845 4.19575 97.8575L5.88442 98.3308C5.99653 98.362 5.99653 98.5216 5.88442 98.5527L4.19575 99.0261C4.15216 99.0385 4.11945 99.0751 4.11322 99.1195L3.63363 102.234C3.61339 102.364 3.42577 102.364 3.40552 102.234L2.92672 99.1195C2.91971 99.0751 2.88701 99.0385 2.84419 99.0261L1.15552 98.5527C1.04341 98.5216 1.04341 98.362 1.15552 98.3308L2.84419 97.8575C2.88701 97.845 2.91971 97.8084 2.92672 97.7641Z" fill="white"/>
<path d="M80.2741 28.6545L80.7085 27.5941C80.7506 27.4921 80.8954 27.4921 80.9366 27.5941L81.3711 28.6545C81.3835 28.6848 81.4084 28.7097 81.4388 28.7222L82.4992 29.1558C82.6012 29.1979 82.6012 29.3427 82.4992 29.3847L81.4388 29.8192C81.4084 29.8316 81.3835 29.8558 81.3711 29.8861L80.9366 30.9465C80.8954 31.0493 80.7506 31.0493 80.7085 30.9465L80.2741 29.8861C80.2616 29.8558 80.2375 29.8316 80.2071 29.8192L79.146 29.3847C79.044 29.3427 79.044 29.1979 79.146 29.1558L80.2071 28.7222C80.2375 28.7097 80.2616 28.6848 80.2741 28.6545Z" fill="white"/>
<path d="M2.97137 3.76949L3.40579 2.70833C3.44784 2.60634 3.59264 2.60634 3.6339 2.70833L4.06834 3.76949C4.0808 3.79985 4.10571 3.82399 4.13607 3.83645L5.19646 4.27088C5.29845 4.31292 5.29845 4.45773 5.19646 4.49899L4.13607 4.93342C4.10571 4.94588 4.0808 4.97001 4.06834 5.00116L3.6339 6.06154C3.59264 6.16353 3.44784 6.16353 3.40579 6.06154L2.97137 5.00116C2.95891 4.97001 2.93477 4.94588 2.9044 4.93342L1.84324 4.49899C1.74125 4.45773 1.74125 4.31292 1.84324 4.27088L2.9044 3.83645C2.93477 3.82399 2.95891 3.79985 2.97137 3.76949Z" fill="white"/>
<path d="M10.6772 25.8805L11.0182 25.0474C11.0509 24.9673 11.1645 24.9673 11.1972 25.0474L11.5382 25.8805C11.5484 25.9046 11.5671 25.9233 11.5912 25.9334L12.4242 26.2744C12.5044 26.3071 12.5044 26.4208 12.4242 26.4535L11.5912 26.7953C11.5671 26.8046 11.5484 26.8241 11.5382 26.8482L11.1972 27.6805C11.1645 27.7615 11.0509 27.7615 11.0182 27.6805L10.6772 26.8482C10.6671 26.8241 10.6484 26.8046 10.6242 26.7953L9.79118 26.4535C9.71099 26.4208 9.71099 26.3071 9.79118 26.2744L10.6242 25.9334C10.6484 25.9233 10.6671 25.9046 10.6772 25.8805Z" fill="white"/>
<path d="M38.1002 90.7296L38.5339 89.6693C38.5759 89.5673 38.7207 89.5673 38.7628 89.6693L39.1972 90.7296C39.2096 90.7608 39.2338 90.7849 39.2641 90.7974L40.3245 91.2318C40.4273 91.2731 40.4273 91.4179 40.3245 91.4599L39.2641 91.8944C39.2338 91.9068 39.2096 91.9309 39.1972 91.9621L38.7628 93.0225C38.7207 93.1245 38.5759 93.1245 38.5339 93.0225L38.1002 91.9621C38.087 91.9309 38.0628 91.9068 38.0325 91.8944L36.9721 91.4599C36.8693 91.4179 36.8693 91.2731 36.9721 91.2318L38.0325 90.7974C38.0628 90.7849 38.087 90.7608 38.1002 90.7296Z" fill="white"/>
<path d="M0.676666 43.584C1.579 43.584 1.58056 44.9854 0.676666 44.9854C-0.224894 44.9854 -0.226451 43.584 0.676666 43.584Z" fill="white"/>
<path d="M51.2129 13.9199C51.6637 13.9199 51.6645 14.6206 51.2129 14.6206C50.7621 14.6206 50.7613 13.9199 51.2129 13.9199Z" fill="white"/>
<path d="M105.145 75.8047C106.046 75.8047 106.048 77.2061 105.145 77.2061C104.243 77.2061 104.242 75.8047 105.145 75.8047Z" fill="white"/>
<path d="M18.5474 105.575C19.4489 105.575 19.4505 106.977 18.5474 106.977C17.645 106.977 17.6443 105.575 18.5474 105.575Z" fill="white"/>
<path d="M78.3931 1.78809C79.2946 1.78809 79.2962 3.18947 78.3931 3.18947C77.4907 3.18947 77.4892 1.78809 78.3931 1.78809Z" fill="white"/>
<path d="M105.822 98.4424C106.724 98.4424 106.725 99.8438 105.822 99.8438C104.92 99.8438 104.918 98.4424 105.822 98.4424Z" fill="white"/>
</svg>
