<svg width="34" height="31" viewBox="0 0 34 31" fill="none" xmlns="http://www.w3.org/2000/svg">
<path fill-rule="evenodd" clip-rule="evenodd" d="M13.3886 14.0202C13.2752 13.5665 13.2138 13.0949 13.2108 12.6045C13.2 10.8835 14.7799 9.35883 16.6882 8.59374C18.5958 7.82886 20.7929 7.83971 21.954 9.03202C22.6181 9.71367 22.8631 10.3877 22.8324 11.0188C22.8017 11.6466 22.4923 12.2422 21.9989 12.773C20.623 14.2521 17.7868 15.2301 16.352 15.1435C15.6883 15.1031 15.0277 15.0177 14.3734 14.8931C15.1874 16.6267 16.8809 18.0251 18.9431 19.1433C23.4249 21.5737 29.6709 22.6659 32.9524 22.8068C33.1287 22.8144 33.2649 22.9635 33.2573 23.1398C33.2497 23.3161 33.1008 23.4531 32.9245 23.4455C29.5781 23.3017 23.2093 22.1837 18.6388 19.705C16.2777 18.4249 14.4007 16.7773 13.6134 14.7314C8.73664 13.5789 4.13189 10.3654 0.209726 7.67347C0.0642453 7.57436 0.0272883 7.3748 0.127184 7.22911C0.227288 7.0842 0.425879 7.04667 0.571568 7.14656C4.33362 9.72819 8.72551 12.8212 13.3886 14.0202ZM14.0974 14.1872C13.9396 13.6852 13.853 13.156 13.8501 12.5996C13.8405 11.1102 15.2739 9.84862 16.9259 9.18637C17.9387 8.78083 19.0431 8.60206 19.987 8.75598C20.5805 8.8525 21.1087 9.08053 21.4959 9.47849C22.0042 10.0003 22.2178 10.5051 22.1937 10.9877C22.1704 11.4734 21.9134 11.9267 21.5308 12.3373C20.2771 13.6856 17.6969 14.5843 16.3908 14.5053C15.6204 14.4589 14.8559 14.3493 14.0974 14.1872Z" fill="#C8B2D8"/>
</svg>
