<svg width="289" height="176" viewBox="0 0 289 176" fill="none" xmlns="http://www.w3.org/2000/svg">
<path fill-rule="evenodd" clip-rule="evenodd" d="M191.329 136.494C191.682 136.724 191.986 136.921 192.147 137.024C193.131 137.65 195.391 139.486 197.388 140.254C198.911 140.84 200.287 140.808 201.031 139.524C201.706 138.357 201.27 136.847 200.157 135.294C197.761 131.95 192.287 128.329 190.358 127.643C190.148 127.568 189.921 127.672 189.851 127.875C189.782 128.077 189.895 128.302 190.106 128.377C191.957 129.036 197.205 132.518 199.505 135.728C200.404 136.983 200.875 138.18 200.329 139.122C199.79 140.053 198.765 139.952 197.661 139.527C195.717 138.78 193.527 136.982 192.569 136.372C191.969 135.991 189.719 134.473 189.496 134.387C189.216 134.28 189.065 134.448 189.02 134.508C188.985 134.553 188.825 134.794 189.086 135.05C192.808 138.709 196.007 146.757 196.055 154.333C196.103 161.843 193.036 168.906 184.168 170.679C183.952 170.723 183.819 170.93 183.87 171.141C183.921 171.353 184.138 171.49 184.353 171.446C193.645 169.588 196.908 162.222 196.857 154.355C196.815 147.724 194.405 140.751 191.329 136.494Z" fill="#C8B2D8"/>
<path fill-rule="evenodd" clip-rule="evenodd" d="M184.532 170.899C185.098 170.192 185.685 169.506 186.193 168.753C187.549 166.749 188.516 164.37 188.738 161.935C188.757 161.722 188.596 161.529 188.379 161.503C188.162 161.478 187.97 161.629 187.951 161.841C187.742 164.152 186.818 166.408 185.531 168.31C184.948 169.171 184.261 169.944 183.623 170.763C183.592 170.804 183.303 171.152 183.264 171.242C183.17 171.452 183.269 171.602 183.324 171.666C183.369 171.72 183.437 171.775 183.538 171.808C183.621 171.835 183.789 171.85 184.018 171.823C184.749 171.738 186.419 171.3 186.701 171.257C189.942 170.761 193.06 170.838 196.342 170.837C196.56 170.836 196.731 170.663 196.724 170.449C196.717 170.235 196.534 170.062 196.317 170.062C192.994 170.062 189.836 169.989 186.556 170.491C186.361 170.52 185.295 170.74 184.532 170.899Z" fill="#C8B2D8"/>
<path fill-rule="evenodd" clip-rule="evenodd" d="M251.69 103.452C253.638 105.223 255.549 106.992 257.547 108.705C257.975 109.076 258.618 109.027 258.984 108.6C259.354 108.172 259.304 107.526 258.878 107.159C256.892 105.454 254.997 103.7 253.063 101.941C252.645 101.562 251.999 101.594 251.622 102.007C251.244 102.426 251.271 103.073 251.69 103.452Z" fill="#C8B2D8"/>
<path fill-rule="evenodd" clip-rule="evenodd" d="M256.338 82.1846C264.654 82.3667 272.973 82.1286 281.287 82.1333C281.853 82.1321 282.308 81.6752 282.309 81.1137C282.308 80.5485 281.855 80.0912 281.288 80.0886C272.988 80.0865 264.683 80.3274 256.384 80.1424C255.818 80.1307 255.353 80.5779 255.34 81.1405C255.328 81.7069 255.776 82.1713 256.338 82.1846Z" fill="#C8B2D8"/>
<path fill-rule="evenodd" clip-rule="evenodd" d="M246.187 53.9686C252.106 50.1742 257.929 46.2081 263.891 42.4799C264.366 42.1795 264.511 41.5508 264.214 41.0742C263.916 40.5939 263.284 40.4507 262.807 40.7474C256.839 44.4826 251.009 48.4519 245.083 52.2534C244.61 52.5575 244.47 53.1884 244.774 53.6617C245.08 54.1388 245.71 54.2744 246.187 53.9686Z" fill="#C8B2D8"/>
<path d="M181.152 77C181.152 112.261 150.222 141.985 108.018 151.11C101.164 152.589 94.2003 153.501 87.1977 153.839C86.857 153.856 86.5163 153.873 86.1733 153.885C84.3509 153.961 82.5147 153.999 80.6648 154C77.4483 154 74.2698 153.885 71.1294 153.656C69.3873 153.531 67.6597 153.373 65.9468 153.18C49.2874 151.306 33.9565 146.3 21.0074 138.966C19.3894 138.051 17.8095 137.099 16.2677 136.111C13.4445 134.308 10.7188 132.356 8.10222 130.263C-9.19469 116.435 5.22633 86.9185 14.2409 68.336C38.572 18.1822 25.1681 0 80.6648 0C136.161 0 181.152 34.4731 181.152 77Z" fill="#C8B2D8" fill-opacity="0.3"/>
<g clip-path="url(#clip0_629:11)">
<path d="M63.5565 153.007C63.5213 152.895 63.4969 152.779 63.4836 152.661L58.9319 126.629C58.9251 126.562 58.9148 126.495 58.901 126.429C58.8046 125.955 58.5646 125.522 58.2136 125.189C57.8627 124.857 57.418 124.641 56.9402 124.571L30.9851 124.684C30.494 124.611 29.9923 124.696 29.5532 124.929C29.1141 125.161 28.7607 125.529 28.5446 125.977C28.1224 126.86 27.709 127.755 27.3044 128.662C25.6663 132.319 24.1587 136.185 22.7815 140.259C34.5465 146.923 48.4756 151.471 63.6118 153.174L63.5565 153.007Z" fill="#654373"/>
<path d="M88.8932 83.3454C88.8294 83.6268 88.7878 83.9129 88.7688 84.2009L66.4293 97.1281L60.9993 93.9926L55.2107 101.594L64.2855 108.082C65.0187 108.606 65.9015 108.877 66.8015 108.855C67.7015 108.833 68.5702 108.519 69.277 107.96L92.3129 89.7309C93.3525 90.1169 94.4846 90.1763 95.5587 89.9011C96.6328 89.626 97.5979 89.0294 98.3256 88.1906C99.0534 87.3519 99.5094 86.3107 99.6328 85.2057C99.7563 84.1007 99.5415 82.9841 99.0169 82.0046C98.4923 81.025 97.6829 80.2289 96.6962 79.722C95.7095 79.2152 94.5923 79.0217 93.4933 79.1672C92.3943 79.3128 91.3655 79.7905 90.5438 80.5369C89.7221 81.2832 89.1464 82.2628 88.8932 83.3454V83.3454Z" fill="#FFB8B8"/>
<path d="M66.1231 95.8357C66.0553 95.5051 65.9174 95.1929 65.7187 94.9205C65.5199 94.6481 65.2651 94.4218 64.9714 94.2569L54.7207 88.5072C53.3585 87.453 51.6352 86.9835 49.9286 87.2018C48.2219 87.4201 46.6712 88.3082 45.6163 89.6715C44.5615 91.0349 44.0886 92.7621 44.3014 94.4746C44.5142 96.1871 45.3952 97.7451 46.7514 98.8071L54.924 107.32C55.1573 107.563 55.4401 107.753 55.753 107.876C56.066 108 56.4018 108.054 56.7377 108.036C57.0735 108.018 57.4015 107.927 57.6993 107.77C57.9971 107.613 58.2577 107.394 58.4633 107.127L60.0549 105.056L60.5987 104.351L65.6832 97.7405C65.8688 97.4992 66.0049 97.2234 66.0833 96.9289C66.1828 96.5728 66.1964 96.1981 66.1231 95.8357Z" fill="#7B2D6A"/>
<path d="M51.2812 78.3035C56.2692 73.3002 56.2692 65.1881 51.2812 60.1848C46.2932 55.1814 38.206 55.1814 33.2179 60.1848C28.2299 65.1881 28.2299 73.3002 33.2179 78.3035C38.206 83.3068 46.2932 83.3068 51.2812 78.3035Z" fill="#FFB8B8"/>
<path d="M58.3993 117.738C58.9121 116.968 62.1728 111.775 60.9393 105.688C60.8487 105.237 60.735 104.791 60.5988 104.351C60.0175 102.519 59.089 100.817 57.8642 99.3377C57.8798 98.9297 57.8754 98.5284 57.8511 98.1292V98.127C57.6708 95.3537 56.4978 92.7392 54.548 90.7647C52.5982 88.7902 50.003 87.5887 47.2401 87.3814L32.9549 86.2927C31.1162 86.1423 29.2686 86.4423 27.5712 87.1669C25.8737 87.8916 24.3772 89.0191 23.2105 90.4525C22.9418 90.7792 22.6901 91.1197 22.4566 91.4725C22.4563 91.4725 22.456 91.4726 22.4558 91.4727C22.4555 91.4728 22.4553 91.473 22.455 91.4732C22.4548 91.4734 22.4547 91.4736 22.4546 91.4739C22.4545 91.4742 22.4544 91.4745 22.4544 91.4748C21.5537 92.8383 20.956 94.3803 20.702 95.9961C20.448 97.6118 20.5435 99.2635 20.9821 100.839L21.1038 101.376L22.6268 108.074L25.1735 119.283L27.3045 128.663L27.53 129.652C27.6489 130.17 27.9391 130.632 28.3533 130.964C28.7676 131.295 29.2815 131.476 29.8114 131.477C29.9388 131.477 30.066 131.467 30.1916 131.446L57.8334 126.9C58.2235 126.838 58.5911 126.676 58.9011 126.43C59.0872 126.281 59.2504 126.106 59.3852 125.909C59.5654 125.648 59.6901 125.352 59.7517 125.04C59.8132 124.729 59.8104 124.408 59.7433 124.097L58.3993 117.738Z" fill="#7B2D6A"/>
<path d="M3.99949 155.572C3.53065 154.901 3.21414 154.135 3.07225 153.328C2.93037 152.522 2.96656 151.693 3.17828 150.902C3.39 150.111 3.7721 149.376 4.29766 148.749C4.82322 148.122 5.47946 147.618 6.22016 147.273L21.9583 98.7363L31.079 103.077L13.8589 150.337C14.3545 151.623 14.3623 153.047 13.881 154.339C13.3997 155.632 12.4626 156.702 11.2473 157.347C10.032 157.992 8.62292 158.168 7.28711 157.841C5.9513 157.513 4.78154 156.706 3.99949 155.572V155.572Z" fill="#FFB8B8"/>
<path d="M30.9718 87.2699C29.2858 86.7611 27.4702 86.9116 25.8904 87.6912C24.3105 88.4708 23.0836 89.8216 22.4565 91.4719C22.4562 91.4719 22.4559 91.4719 22.4556 91.472C22.4554 91.4721 22.4551 91.4723 22.4549 91.4725C22.4547 91.4727 22.4546 91.473 22.4544 91.4732C22.4543 91.4735 22.4543 91.4738 22.4543 91.4741C22.3968 91.6226 22.3438 91.7779 22.2974 91.9331L20.9643 94.7691L16.9366 103.339C16.7826 103.666 16.7007 104.022 16.6965 104.383C16.6922 104.744 16.7657 105.102 16.912 105.432C17.0583 105.762 17.2739 106.057 17.544 106.296C17.8141 106.535 18.1325 106.712 18.4773 106.816L19.2622 107.054L22.6267 108.074L28.5977 109.883L30.5872 110.486C30.9319 110.591 31.295 110.619 31.6518 110.57C32.0086 110.521 32.3506 110.396 32.6546 110.202C32.9586 110.008 33.2174 109.751 33.4134 109.448C33.6094 109.145 33.738 108.803 33.7904 108.446L35.6297 95.9311C36.1522 94.163 35.9556 92.2593 35.0827 90.6363C34.2099 89.0132 32.7318 87.8029 30.9718 87.2699Z" fill="#7B2D6A"/>
<path d="M53.9779 64.5848C49.4266 68.5783 42.4396 69.5056 37.0096 66.8367C39.4488 69.7394 44.0812 84.0677 44.0812 84.0677C44.0812 84.0677 31.0011 82.6888 29.1531 82.2925C18.238 79.9512 22.2055 51.5964 33.8361 51.7395C35.8061 51.7638 37.5281 52.0027 38.8393 53.4776C39.7095 51.0307 42.4768 49.5893 45.06 49.7759C47.6433 49.9625 49.9795 51.5189 51.6413 53.5115C52.9674 55.1247 53.9247 57.0101 54.4455 59.0347C54.9663 61.0593 55.038 63.1738 54.6556 65.2292L53.9779 64.5848Z" fill="#654373"/>
<path d="M111.898 103.061C111.827 103.063 111.756 103.044 111.696 103.006C111.636 102.968 111.588 102.913 111.559 102.847C111.529 102.782 111.52 102.709 111.532 102.639C111.544 102.568 111.577 102.503 111.626 102.451L112.829 101.176C112.867 101.135 112.887 101.082 112.886 101.027C112.884 100.972 112.861 100.92 112.821 100.882L111.543 99.6687C111.508 99.6351 111.479 99.5949 111.459 99.5503C111.439 99.5058 111.428 99.4577 111.427 99.4089C111.426 99.3601 111.434 99.3116 111.451 99.266C111.469 99.2204 111.495 99.1786 111.528 99.1432C111.596 99.0721 111.688 99.0305 111.786 99.0275C111.884 99.0245 111.979 99.0603 112.051 99.1271L113.77 100.739C113.804 100.771 113.831 100.809 113.85 100.851C113.869 100.894 113.88 100.939 113.881 100.986C113.882 101.032 113.874 101.079 113.858 101.122C113.841 101.166 113.816 101.205 113.784 101.239L112.149 102.95C112.083 103.019 111.993 103.059 111.898 103.061V103.061Z" fill="#CCCCCC"/>
<path d="M110.584 101.205C110.545 101.241 110.494 101.262 110.441 101.264L106.432 101.374C106.403 101.375 106.374 101.37 106.347 101.36C106.32 101.35 106.295 101.334 106.274 101.314C106.253 101.294 106.236 101.27 106.224 101.243C106.212 101.217 106.205 101.188 106.205 101.159C106.204 101.13 106.209 101.101 106.219 101.074C106.23 101.046 106.245 101.022 106.265 101C106.285 100.979 106.309 100.962 106.336 100.95C106.362 100.939 106.391 100.932 106.42 100.931L110.429 100.82C110.474 100.819 110.518 100.832 110.556 100.856C110.593 100.881 110.623 100.917 110.64 100.959C110.657 101 110.66 101.047 110.651 101.091C110.641 101.135 110.618 101.175 110.584 101.205V101.205Z" fill="#CCCCCC"/>
<path d="M80.9495 67.7105C80.8781 67.7126 80.8077 67.6933 80.7473 67.6553C80.6868 67.6172 80.639 67.5619 80.6098 67.4966C80.5807 67.4312 80.5715 67.3586 80.5836 67.288C80.5956 67.2174 80.6282 67.152 80.6773 67.1L81.8803 65.8249C81.918 65.7849 81.9383 65.7315 81.9368 65.6765C81.9353 65.6214 81.9121 65.5692 81.8722 65.5313L80.5941 64.3181C80.5588 64.2845 80.5304 64.2443 80.5105 64.1998C80.4907 64.1552 80.4798 64.1071 80.4784 64.0583C80.4771 64.0095 80.4853 63.961 80.5027 63.9154C80.5201 63.8698 80.5462 63.8281 80.5797 63.7926C80.6471 63.7215 80.7397 63.6799 80.8375 63.6769C80.9352 63.6739 81.0302 63.7097 81.1019 63.7765L82.8213 65.3882C82.8552 65.42 82.8825 65.4582 82.9015 65.5006C82.9206 65.543 82.931 65.5888 82.9323 65.6353C82.9336 65.6819 82.9257 65.7282 82.909 65.7716C82.8923 65.815 82.8671 65.8546 82.835 65.8882L81.2001 67.5994C81.1345 67.6682 81.0444 67.7081 80.9495 67.7105V67.7105Z" fill="#CCCCCC"/>
<path d="M79.6355 65.8546C79.5963 65.8909 79.5453 65.9117 79.492 65.9131L75.483 66.0239C75.454 66.0248 75.4251 66.0199 75.3979 66.0095C75.3708 65.9991 75.3459 65.9835 75.3248 65.9634C75.3037 65.9434 75.2867 65.9194 75.2749 65.8928C75.263 65.8662 75.2565 65.8375 75.2557 65.8084C75.2549 65.7793 75.2598 65.7503 75.2702 65.7231C75.2806 65.6959 75.2962 65.671 75.3162 65.6498C75.3362 65.6287 75.3601 65.6117 75.3867 65.5998C75.4132 65.5879 75.4418 65.5814 75.4708 65.5807L79.4798 65.4698C79.5248 65.4686 79.5691 65.4811 79.6068 65.5058C79.6445 65.5305 79.6738 65.5662 79.6907 65.608C79.7077 65.6499 79.7114 65.6959 79.7016 65.74C79.6917 65.7841 79.6687 65.8241 79.6355 65.8546V65.8546Z" fill="#CCCCCC"/>
<path d="M110.572 32.896C110.5 32.8981 110.43 32.8789 110.37 32.8408C110.309 32.8027 110.261 32.7475 110.232 32.6821C110.203 32.6167 110.194 32.5442 110.206 32.4736C110.218 32.403 110.251 32.3375 110.3 32.2856L111.503 31.0105C111.54 30.9704 111.561 30.9171 111.559 30.862C111.558 30.807 111.534 30.7548 111.495 30.7169L110.216 29.5036C110.181 29.4701 110.153 29.4299 110.133 29.3853C110.113 29.3407 110.102 29.2927 110.101 29.2439C110.099 29.1951 110.108 29.1465 110.125 29.1009C110.142 29.0553 110.169 29.0136 110.202 28.9781V28.9781C110.269 28.9071 110.362 28.8655 110.46 28.8625C110.558 28.8595 110.653 28.8953 110.724 28.9621L112.444 30.5738C112.478 30.6055 112.505 30.6437 112.524 30.6862C112.543 30.7286 112.553 30.7744 112.555 30.8209C112.556 30.8674 112.548 30.9137 112.531 30.9571C112.515 31.0005 112.489 31.0402 112.457 31.0738L110.822 32.785C110.757 32.8537 110.667 32.8936 110.572 32.896V32.896Z" fill="#CCCCCC"/>
<path d="M109.258 31.0412C109.219 31.0774 109.168 31.0982 109.115 31.0996L105.106 31.2104C105.077 31.2113 105.048 31.2064 105.021 31.196C104.994 31.1856 104.969 31.17 104.948 31.15C104.927 31.1299 104.91 31.1059 104.898 31.0793C104.886 31.0528 104.879 31.0241 104.879 30.9949C104.878 30.9658 104.883 30.9368 104.893 30.9096C104.903 30.8824 104.919 30.8575 104.939 30.8363C104.959 30.8152 104.983 30.7982 105.009 30.7863C105.036 30.7745 105.065 30.768 105.094 30.7672L109.103 30.6563C109.148 30.6551 109.192 30.6676 109.23 30.6924C109.267 30.7171 109.297 30.7527 109.313 30.7946C109.33 30.8364 109.334 30.8824 109.324 30.9265C109.314 30.9706 109.291 31.0106 109.258 31.0412V31.0412Z" fill="#CCCCCC"/>
<path d="M106.467 145.909C105.431 148.069 103.742 149.816 101.836 151.293C95.6086 152.636 89.282 153.465 82.9197 153.772C82.6102 153.788 82.3006 153.803 81.989 153.814C80.3332 153.883 78.6649 153.918 76.9841 153.918C74.0617 153.918 71.1739 153.814 68.3207 153.606C68.212 152.947 68.1971 152.277 68.2764 151.614C68.5926 149.022 70.5534 146.641 73.0978 146.091C75.6423 145.541 78.5426 147.064 79.3141 149.557C79.7408 144.749 80.2294 139.742 82.7782 135.649C85.0839 131.944 89.0785 129.292 93.409 128.817C95.9542 128.552 98.522 129.023 100.808 130.177C101.018 130.283 101.226 130.394 101.431 130.509C102.804 131.289 104.014 132.326 104.997 133.563C107.699 136.991 108.36 141.975 106.467 145.909Z" fill="#F18BAB"/>
<path d="M101.431 130.51C101.437 130.568 101.427 130.627 101.403 130.68C101.379 130.733 101.341 130.779 101.294 130.814C93.6216 137.079 87.3592 144.904 82.9194 153.773C82.61 153.788 82.3004 153.804 81.9888 153.815C82.3822 153.014 82.7904 152.222 83.2135 151.438C85.4105 147.377 87.995 143.54 90.9307 139.98C93.8659 136.418 97.1431 133.154 100.715 130.235C100.743 130.212 100.775 130.192 100.808 130.177C100.87 130.151 100.938 130.138 101.005 130.141C101.073 130.144 101.139 130.162 101.199 130.194C101.259 130.226 101.311 130.271 101.351 130.325C101.391 130.38 101.418 130.443 101.431 130.51V130.51Z" fill="#FFADC7"/>
</g>
<defs>
<clipPath id="clip0_629:11">
<rect width="165.283" height="144" fill="white" transform="translate(3 14)"/>
</clipPath>
</defs>
</svg>
