<svg width="10" height="64" viewBox="0 0 10 64" fill="none" xmlns="http://www.w3.org/2000/svg">
<path fill-rule="evenodd" clip-rule="evenodd" d="M3.97403 17.6757C3.15153 14.9812 2.32691 11.8685 2.08968 8.86625C1.88714 6.30015 2.11062 3.81564 3.18147 1.76952C3.33224 1.4811 3.22077 1.12414 2.93211 0.973367C2.64368 0.822357 2.28671 0.934068 2.1357 1.2225C0.967866 3.45455 0.692274 6.16002 0.913429 8.95905C1.15473 12.0153 1.98534 15.1843 2.81994 17.933C2.17573 18.2623 1.58024 18.934 1.15044 20.1084C0.490178 21.9122 0.533169 24.3618 0.955811 26.9371C1.5685 30.6721 2.96062 34.6796 3.94595 37.255C3.98615 37.3607 4.04996 37.5179 4.13387 37.7103C4.00443 37.7711 3.87699 37.839 3.752 37.9139C2.66268 38.5642 1.7905 39.6999 1.48945 40.8489C-0.419385 48.1361 2.10953 56.5739 4.16767 63.4441C4.26102 63.7543 4.59017 63.9314 4.90209 63.8397C5.21398 63.7456 5.39134 63.4174 5.29795 63.1048C3.29728 56.4274 0.776256 48.2302 2.63108 41.1468C2.85955 40.275 3.53011 39.4205 4.35682 38.9274C4.44904 38.8718 4.54347 38.8233 4.63936 38.7771C5.12401 39.7215 5.79673 40.8308 6.50843 41.4226C7.23807 42.0307 8.00976 42.1733 8.72901 41.625C9.34384 41.1537 9.38684 40.4521 9.05445 39.7275C8.69838 38.9465 7.88041 38.1484 7.4982 37.8918C6.78429 37.4109 6.01514 37.266 5.26857 37.3662C5.16762 37.1363 5.0923 36.9495 5.04819 36.8342C4.08465 34.3152 2.71952 30.3982 2.12027 26.746C1.73456 24.3961 1.65611 22.1599 2.25841 20.5138C2.51547 19.8118 2.82047 19.3461 3.17847 19.0906C3.33315 19.5827 3.48523 20.0571 3.6304 20.5103C3.91752 21.4067 4.39818 23.2747 5.22669 24.6025C5.88545 25.6585 6.77135 26.3683 7.86855 26.3108C8.43224 26.2814 8.80405 25.9497 9.0077 25.4273C9.31181 24.6468 9.14047 23.3066 9.02724 22.8083C8.68449 21.2969 7.32552 19.2923 5.81223 18.3124C5.20838 17.9213 4.57921 17.6925 3.97403 17.6757ZM4.36017 18.9158C4.49505 19.3423 4.62737 19.7544 4.75426 20.1504C5.02237 20.9871 5.45418 22.738 6.22788 23.9778C6.63743 24.6344 7.12455 25.1683 7.80688 25.1324C7.85995 25.1296 7.8743 25.0767 7.89536 25.0299C7.92762 24.9575 7.94936 24.8748 7.96605 24.7868C8.07899 24.1911 7.95047 23.3949 7.8765 23.0693C7.58886 21.8011 6.44057 20.125 5.17072 19.3028C4.90251 19.1291 4.62984 18.9916 4.36017 18.9158ZM5.82822 38.5243C6.12133 39.0749 6.47452 39.6505 6.85641 40.103C7.05924 40.3433 7.26719 40.5457 7.48188 40.6725C7.65945 40.7786 7.84035 40.8185 8.01268 40.6863C8.08251 40.6334 8.08282 40.5555 8.06847 40.4754C8.05312 40.3907 8.02169 40.3038 7.98152 40.217C7.71997 39.6448 7.11951 39.0584 6.83907 38.8712C6.5138 38.6516 6.17147 38.5454 5.82822 38.5243Z" fill="#C8B2D8"/>
</svg>
