<svg width="439" height="123" viewBox="0 0 439 123" fill="none" xmlns="http://www.w3.org/2000/svg">
<path d="M286.028 0.0769806C281.196 0.441757 276.283 1.82155 271.98 3.97847C264.868 7.57863 258.237 14.2714 254.721 21.4559C249.969 31.1145 249.76 43.2155 254.143 53.0961C257.627 60.9308 264.354 68.0042 271.852 71.7154C275.063 73.3014 279.125 74.6019 282.544 75.157L283.781 75.3632V80.9617V86.5601H277.391H270.985L270.599 86.9725L270.214 87.3848V91.9525V96.5201L270.599 96.9324L270.985 97.3448H277.375H283.765L283.813 103.768L283.861 110.175L284.23 110.54C284.583 110.905 284.648 110.905 289.255 110.952L293.911 111L294.377 110.524L294.858 110.064V103.705V97.3448H301.329H307.815L308.2 96.9324L308.585 96.5201V91.9525V87.3848L308.2 86.9725L307.815 86.5601L301.377 86.5284L294.939 86.4808V80.9458V75.4266L297.106 74.9825C300.927 74.1895 303.528 73.3173 306.771 71.7154C310.335 69.955 313.386 67.7822 316.228 64.9909C322.361 58.9483 326.166 51.5894 327.402 43.2789C327.787 40.6938 327.787 34.9843 327.402 32.4784C326.101 24.0252 322.585 17.2214 316.356 11.0836C309.934 4.72388 302.404 1.10786 293.751 0.203857C291.776 -0.00231934 287.923 -0.0657578 286.028 0.0769806ZM295.115 11.4484C300.863 12.6379 305.952 15.6354 309.966 20.1554C314.799 25.627 316.934 31.6537 316.645 39.0602C316.356 46.3557 313.563 52.4141 308.104 57.521C303.833 61.5018 298.84 63.9124 293.253 64.6896C291.278 64.9592 287.088 64.9116 285.001 64.5944C275.271 63.1194 266.457 55.7288 263.407 46.4826C262.379 43.3741 262.187 41.9943 262.203 37.7121C262.203 34.4768 262.251 33.7789 262.556 32.3991C263.808 26.7848 266.425 22.233 270.664 18.2522C274.902 14.3032 279.799 11.9242 285.37 11.1471C287.826 10.7823 292.659 10.9409 295.115 11.4484Z" fill="#FFADC7"/>
<path d="M236.52 57.2048C236.88 57.3248 237.08 57.4448 237.52 57.4448C238.6 57.4448 238.88 55.8848 238.96 55.0448C239 54.8048 239.04 53.9248 239.04 53.8048C239.04 53.2048 238.84 52.6048 238.84 52.0048C238.64 50.6848 238.56 49.4448 238.48 48.1248L238.4 48.0048C238.28 47.2048 238.12 46.1248 238.12 45.4048C238.12 44.9648 238.88 45.0848 239.12 44.9648C239.44 44.8448 239.76 44.6048 240.12 44.4448C241.04 44.0048 242.6 42.5248 243.2 41.7648L243.44 41.3248C243.52 41.1648 244.56 40.3248 244.4 40.0048C244.6 39.7648 245.4 38.6448 245.56 38.3648C245.6 38.3248 245.84 37.8848 245.88 37.7648L246.4 36.2448C246.32 35.9648 246.72 34.8048 246.72 34.3648V34.2448C246.4 33.0848 246.08 32.4048 245.2 31.5648C245 31.6448 244.12 31.0448 243.88 30.9248C242.6 30.4448 240.76 29.9648 239.4 29.9648C237.24 29.9648 234.28 30.1248 232.36 31.1248C232.32 31.1248 231.96 31.3648 231.88 31.4048C231.8 31.4848 231.2 31.5248 231.2 31.7248V33.0448C231.2 33.3248 232.04 33.6448 232.28 33.6448C232.64 33.6448 232.96 33.4848 233.28 33.4848C233.4 33.4848 233.44 33.5248 233.52 33.6448C233.4 37.6048 233.68 41.4448 234.04 45.4048C234.36 46.7248 234.4 48.3248 234.52 49.6848V49.8048L234.96 53.6848C235 53.7648 235.12 54.2448 235.12 54.3648V54.4048L235.52 56.2848L236.52 57.2048ZM237.88 40.7648V39.0448C237.88 38.0848 237.96 37.1248 237.96 36.1648C237.96 35.2848 237.76 34.4448 237.76 33.5648C237.76 33.2848 238.28 33.3648 238.4 33.2448C239.76 33.2448 240.8 33.6448 241.2 35.0448V35.9648C241.2 36.6848 241.24 36.8848 241.04 37.5248C240.76 38.4848 240.16 39.0048 239.52 39.6848C239.44 39.7248 239.04 40.2448 238.96 40.3248C238.84 40.4848 238.2 40.9648 238.08 40.9648C237.96 40.9648 237.84 40.9248 237.88 40.7648ZM247.567 46.1648C247.567 47.9648 247.727 50.5648 248.287 52.2048C248.567 53.1248 248.647 54.0848 249.127 54.9648C249.567 55.7648 250.287 56.4848 250.927 57.1248L251.367 57.4448C252.087 57.8848 253.407 57.8848 254.247 57.8848C254.447 57.8848 255.767 57.6848 255.967 57.6848C256.207 57.6048 256.567 57.5648 256.807 57.4448C256.807 57.4048 256.887 57.2848 256.927 57.2848C257.127 57.2048 257.447 57.2048 257.647 57.0448C259.607 55.4448 260.207 52.3248 260.807 50.0048C260.847 49.5648 261.047 49.0848 261.247 48.7248C261.287 48.4848 261.367 47.0448 261.407 46.7648C261.407 46.7248 261.367 46.5248 261.407 46.5248L262.327 39.7648C262.367 39.6448 262.367 39.2448 262.447 39.0848C262.487 38.8848 262.607 37.9248 262.607 37.6848V37.5248C262.607 37.0448 262.607 36.4448 262.447 36.0048C262.447 35.9648 262.247 35.4048 262.247 35.3248C262.207 35.2448 262.247 34.4848 262.247 34.4048C262.167 33.5248 261.727 32.8848 261.247 32.2048C260.767 32.0048 260.567 31.7248 260.327 31.2448L260.247 31.1648C260.167 31.1648 259.687 30.9648 259.647 30.9248C259.607 30.9248 259.407 30.8048 259.407 30.8048C258.887 30.6848 258.407 30.7648 257.967 30.4848C257.927 30.4448 257.727 30.3248 257.727 30.3248C257.127 30.1648 256.367 29.8448 255.767 29.8448C255.487 29.8448 255.287 30.0848 255.007 30.0848C255.007 30.0848 254.727 30.0048 254.687 30.0048H254.647C254.607 30.0048 254.367 30.0848 254.327 30.0848H254.287C254.167 30.0848 253.887 29.9648 253.727 29.9648C253.167 29.9648 252.607 30.1248 252.087 30.2448C252.007 30.3648 251.527 30.8448 251.407 30.9248C251.367 31.0048 250.927 31.3248 250.887 31.4048C250.607 31.6848 250.447 32.3648 250.087 32.5648C249.047 34.6048 248.687 36.4048 248.287 38.6848C248.287 38.9648 248.127 39.1248 248.207 39.4048L247.727 43.2048V43.4048C247.727 43.5248 247.607 44.5248 247.567 44.6848V46.1648ZM253.647 53.0448C253.607 53.0448 253.567 53.0048 253.567 52.9648C253.327 52.2048 253.367 51.3248 253.247 50.5248C253.127 49.7648 252.927 49.0448 252.807 48.2848C252.607 47.0048 252.567 45.6848 252.567 44.4048V42.9248C252.567 42.8048 252.647 42.0848 252.647 42.0048V41.0848C252.647 41.0048 252.767 40.4448 252.807 40.3648C252.887 39.8848 252.807 38.7648 253.127 38.3648C253.127 38.2848 253.167 38.2048 253.167 38.1248C253.447 36.7648 253.807 35.0048 254.927 34.0048C255.127 33.8848 255.647 33.4448 255.727 33.4048C255.727 33.4048 255.807 33.3248 255.847 33.3248H255.927C256.087 33.3248 256.127 33.6848 256.167 33.7648L256.487 34.2048C257.207 35.0048 257.407 35.9648 257.407 37.0448C257.407 39.4448 257.087 41.7248 256.647 44.0848C256.647 44.1248 256.567 44.3248 256.567 44.3648L255.967 48.5248C255.767 49.1648 254.687 54.4448 254.327 54.4448L254.247 54.4048C254.007 54.0848 253.767 53.3648 253.647 53.0448ZM267.114 57.4448C267.434 57.6848 267.954 58.2848 268.434 58.2848H268.474L269.554 58.0448C269.834 57.2848 270.474 56.6048 270.594 55.7248C270.594 55.6848 270.634 54.8048 270.634 54.5248V54.4048C270.634 52.8448 270.434 51.3248 270.434 49.7648C270.434 49.7248 270.474 49.3248 270.594 49.2048H270.634C271.874 50.8048 272.914 52.5248 274.154 54.1248C274.794 54.8848 275.034 55.9248 275.914 56.4048C276.274 56.6048 276.714 56.6048 277.074 56.6048C277.714 56.6048 278.594 56.5648 279.194 56.1648C279.634 55.9248 280.074 55.0048 280.074 54.4848C280.074 53.9648 279.914 53.2848 279.634 52.8448C279.434 52.5648 279.074 52.2848 279.074 51.8848H278.994L278.634 51.5248C277.914 50.7648 277.354 50.0448 276.754 49.2448C276.714 49.2048 276.674 49.1248 276.634 49.0848C276.394 48.7248 275.994 48.4848 275.874 48.0448V47.9248C275.674 47.6048 275.474 47.5648 275.394 47.2848C275.394 47.2448 275.274 47.0448 275.234 46.9648C275.034 46.6448 274.194 45.4448 274.114 45.2848C273.794 44.9248 272.714 43.9648 272.714 43.4848V43.4448C272.834 43.3648 273.234 42.9248 273.314 42.8448C273.474 42.7248 273.754 42.4448 273.914 42.3648L275.074 41.2048C275.154 41.0048 275.754 40.2848 275.914 40.0848C275.994 40.0448 276.434 39.6048 276.474 39.5248C276.594 39.4048 276.674 39.1648 276.794 39.0048C278.074 37.2848 278.754 35.8448 278.754 33.6848V33.6448C278.754 33.6048 278.634 33.4448 278.634 33.4048C278.594 33.3648 278.634 33.2048 278.634 33.1648C278.354 32.4448 276.914 31.6848 276.234 31.2448C276.194 31.2448 275.754 31.1248 275.874 31.0448C273.354 30.0048 270.754 29.6448 267.994 29.6448C266.514 29.6448 265.034 29.7648 263.834 30.5648C263.554 30.7248 263.114 30.8448 263.114 31.2048C263.114 31.4048 263.194 31.5648 263.194 31.7248C263.194 31.8848 263.154 32.0048 263.154 32.1648C263.154 32.4848 263.834 32.8848 264.154 32.8848C264.474 32.8848 264.714 32.6848 264.954 32.6848C265.154 32.6848 265.194 32.6848 265.354 32.8048C265.314 37.9248 265.594 42.8048 266.234 47.8048C266.474 49.8448 266.274 51.9648 266.514 53.9648C266.634 55.0848 266.674 56.3648 267.114 57.4448ZM269.874 39.0048C269.874 37.3648 270.034 35.7248 270.034 34.0848C270.034 33.9648 269.954 33.8848 269.954 33.7648C269.954 33.6048 270.074 33.2848 270.234 33.2448H270.874C272.314 33.2448 273.954 33.8048 273.954 35.4448C273.954 35.5248 273.954 35.8448 273.914 35.8848C273.914 35.9648 273.634 36.5248 273.554 36.6048C273.634 36.8048 273.474 36.8448 273.394 36.9248C273.394 36.9648 273.274 37.2048 273.274 37.2448C273.074 37.4848 272.474 38.3648 272.394 38.4848C272.394 38.5248 271.994 38.8848 271.874 39.0048C271.554 39.2848 270.434 40.4848 270.194 40.4848C269.914 40.4848 269.994 40.1648 269.954 40.0048C269.954 39.8848 269.874 39.1648 269.874 39.0848V39.0048ZM295.42 40.0448C295.42 43.9248 295.62 47.9648 296.18 51.8448C296.18 51.8848 296.26 52.2048 296.26 52.2448C296.38 53.4048 296.26 55.2048 296.98 56.1248C297.1 56.3248 297.54 56.8848 297.58 56.8848C298.18 57.4848 299.38 57.4848 300.14 57.4848C300.86 57.4848 301.26 57.4448 302.06 57.3648C302.1 57.3648 302.14 57.3648 302.18 57.3648C302.58 57.0848 303.34 57.0848 303.78 57.0048C305.06 56.6448 308.14 55.7648 308.14 54.2448C308.14 54.2048 308.14 54.1648 308.14 54.1648C308.14 54.0448 308.1 53.8448 308.1 53.8448L307.14 52.9248C307.14 52.9248 306.98 52.9248 306.9 52.9248C305.78 52.9248 304.58 53.2048 303.5 53.4848C303.42 53.4848 303.38 53.5248 303.3 53.5248C302.9 53.6448 302.42 53.8448 301.98 53.8448C301.94 53.8448 301.74 53.8848 301.7 53.7648C301.74 53.0448 301.26 52.6448 301.18 52.0048C300.86 49.4848 300.34 47.2448 300.34 44.6048C300.34 44.4048 300.34 43.4048 300.34 43.2048C300.66 42.2448 305.62 42.5648 305.62 41.3648V40.4848C305.62 39.6848 302.82 39.4848 302.62 39.4848C301.98 39.4848 301.34 39.6048 300.66 39.6048C300.62 39.6048 300.42 39.6048 300.42 39.6048C300.06 39.4448 300.02 37.2048 299.98 36.8448C299.98 36.8048 299.94 36.7648 299.94 36.7248C299.82 36.2448 299.7 35.7248 299.7 35.2848C299.7 35.0448 300.22 34.9648 300.34 34.9248C302.46 34.8448 304.66 34.8448 306.78 34.3248C307.18 33.9648 307.54 33.7648 307.54 33.2448C307.54 33.2048 307.54 33.0848 307.54 33.0848C307.5 33.0448 307.3 32.8048 307.3 32.8048C306.26 31.2448 303.14 31.2048 301.62 31.2048C300.14 31.2048 298.74 31.4448 297.26 31.7248H297.14L295.42 32.0848C295.1 32.0048 293.74 32.4048 293.74 32.8848C293.74 32.9248 293.74 33.0448 293.74 33.0848C293.74 33.1248 293.82 33.2848 293.82 33.3248C293.82 33.3248 293.74 33.5648 293.74 33.6048C293.74 33.6448 293.7 33.8448 293.7 33.8448V33.8848C293.7 34.0048 294.18 34.4448 294.34 34.4448C294.62 34.4848 295.58 34.4048 295.58 34.8448C295.58 36.6048 295.42 38.2848 295.42 40.0448ZM310.781 57.0848V57.2848C310.781 57.3248 311.061 57.5648 311.181 57.6048L311.621 57.8048H312.221C314.381 57.8048 316.501 57.6848 318.661 57.4048H318.781C319.581 57.3248 320.941 57.1648 321.381 56.4448C321.741 55.8848 321.701 55.4048 321.661 54.7648C321.741 54.6448 321.741 54.6048 321.741 54.4848C321.741 54.2848 321.541 53.8448 321.421 53.6448C321.261 53.3248 320.221 53.3248 319.781 53.3248H319.661C318.461 53.3248 317.181 53.5248 316.061 53.8048C315.661 53.8848 314.701 54.0848 314.701 54.0848L314.461 53.8448C314.461 53.8448 314.381 53.1248 314.341 52.8448C314.301 52.4048 314.341 51.9648 314.261 51.5648C314.181 50.8848 313.981 50.2448 313.941 49.6048V46.5648C313.941 46.4448 314.061 45.4448 314.141 45.1248C314.181 44.4048 314.541 43.7248 314.661 43.0048C314.701 42.4048 314.941 40.8848 314.941 40.8448V38.2448C314.941 38.1648 314.981 37.6448 314.981 37.6048C315.021 37.4048 314.941 37.3248 315.101 37.2048V36.2848C315.101 35.6048 315.101 35.0848 314.981 34.4048C314.861 34.2448 314.941 33.8448 314.861 33.7248C314.661 33.2048 313.941 32.6048 313.421 32.4048C313.261 32.3248 312.821 32.3248 312.701 32.0848C311.661 31.8048 310.661 31.8448 309.621 31.6448H309.581C309.341 31.6448 309.061 31.9248 308.941 32.0848V32.8448C308.941 33.0448 308.701 33.2048 308.661 33.3648V33.4448C308.661 33.4848 308.741 33.6048 308.781 33.6048L308.861 34.1648V37.5248C308.941 37.8448 308.941 38.0048 308.941 38.3248V38.6848C308.941 38.6848 308.901 38.7648 308.861 38.7648V38.8448C308.901 38.8448 308.941 38.8848 308.941 38.8848V39.7248H309.021C309.021 40.7648 309.061 41.8048 309.101 42.8448C309.141 43.6448 309.301 44.5248 309.221 45.3248L309.301 45.4048C309.221 46.5648 309.541 47.6448 309.661 48.7648C309.821 49.9648 309.941 51.2048 309.981 52.4448C309.981 53.0448 310.181 55.6448 310.181 56.2448C310.421 56.5648 310.421 56.8448 310.781 57.0848ZM323.93 55.4048C323.93 56.0448 324.17 56.7248 324.33 57.3648C324.33 57.4448 325.05 57.9648 325.17 57.9648C325.45 57.9648 325.65 57.8448 325.93 57.7648C327.25 56.6848 328.09 54.4048 328.45 52.8448C328.57 52.4048 328.49 52.2848 328.85 52.0048C328.93 51.9648 329.57 51.9248 329.85 51.9248L332.13 51.5648C332.53 51.5648 332.93 51.4448 333.29 51.4448C333.33 51.4448 333.57 51.4448 333.57 51.4448L333.65 51.5648C333.69 51.5648 333.85 52.1248 333.89 52.3248C333.97 52.6848 334.37 54.5248 334.41 54.9248V55.0048C334.49 55.1248 334.69 55.7648 334.77 55.9248C334.85 55.9648 334.85 56.1248 334.89 56.2448C335.21 56.8448 335.65 57.0448 336.37 57.2048C336.37 57.2048 336.53 57.1248 336.57 57.1248L336.77 57.2048C336.77 57.2048 336.81 57.2048 336.85 57.2048C336.97 57.2048 338.33 56.6848 338.33 56.6448C338.53 56.4048 338.53 56.2048 338.81 56.0048C338.81 55.9648 338.93 55.8448 338.97 55.8448C339.21 55.4448 339.25 55.0048 339.25 54.6048C339.25 53.6048 338.81 52.4048 338.65 51.5648C338.49 51.3648 338.41 50.8048 338.41 50.5648C338.41 49.9648 339.21 49.8848 339.21 48.8448C339.21 48.2848 338.61 47.7248 338.09 47.7248C338.09 47.3648 337.89 47.0048 337.81 46.6448C337.69 46.2848 337.37 45.4848 337.25 44.9648C337.17 44.4048 337.09 43.7248 336.89 43.2048C336.85 43.1648 336.73 42.9248 336.73 42.8848C336.73 42.8448 336.73 42.2848 336.73 42.2048C336.69 41.9648 336.41 40.8448 336.37 40.6048C336.37 40.6048 336.41 40.2448 336.25 40.2048C336.09 39.4448 336.01 38.6048 335.89 37.8048C335.77 37.2448 335.49 36.5648 335.41 36.0048C335.37 35.8448 335.37 35.6448 335.33 35.4848C335.05 32.9648 334.73 30.1648 331.41 30.1648C331.17 30.1648 330.73 30.1248 330.45 30.2448C329.09 31.1648 328.57 33.6448 328.13 35.1648C328.17 35.2048 328.17 35.2848 328.13 35.3248C328.13 35.4048 327.89 36.2048 327.85 36.4448C327.69 37.0048 327.69 37.9248 327.29 38.4448C327.09 39.6848 326.81 40.9248 326.53 42.1648C326.49 42.2448 326.49 42.3648 326.45 42.4448C326.41 42.6848 326.29 42.4848 326.41 42.8048C326.05 44.5648 325.41 46.1648 325.09 47.9248C325.05 48.2848 325.05 48.7248 324.85 49.0048C324.65 49.3648 323.33 49.7648 323.33 50.1248C323.33 50.3648 323.45 50.3648 323.45 50.6048C323.49 50.6848 323.45 51.2448 323.45 51.3248C323.57 51.7648 323.89 51.6048 324.25 51.6848C324.37 51.7248 324.33 51.8848 324.33 51.9648C324.33 52.0048 324.33 52.1648 324.33 52.1648C324.29 52.2048 324.17 52.8448 324.17 52.9248C324.05 53.7248 323.93 54.5648 323.93 55.4048ZM329.69 48.0848C329.69 46.5248 330.37 45.0448 330.61 43.4848C330.61 43.3248 330.73 42.1248 330.73 41.9648C330.77 41.8848 330.89 41.0448 330.93 40.9648C331.01 40.1248 330.93 39.2048 331.21 38.3648L331.29 38.2848C331.33 38.3248 331.33 38.4848 331.37 38.5248C331.85 40.7648 332.13 43.0848 332.45 45.3248C332.53 46.0848 332.81 46.8448 332.81 47.6048V47.6448C332.81 47.6848 332.73 47.7648 332.69 47.7648C332.37 47.8448 331.13 48.0448 330.85 48.1248C330.53 48.1248 330.29 48.2448 330.01 48.2448C329.89 48.2448 329.69 48.2448 329.69 48.0848ZM341.966 55.7248C342.566 55.7248 343.086 56.0448 343.686 56.0448H343.966C344.006 56.0448 344.286 55.9248 344.286 55.8848C346.286 55.3248 347.366 54.8048 349.046 53.3648C349.086 53.3248 349.206 53.1248 349.206 53.1248L349.966 52.1248C350.286 51.7648 350.766 51.3248 350.886 50.8448C351.006 50.3248 350.846 49.9248 351.286 49.5248V48.9248C351.286 48.0048 351.086 47.3248 350.566 46.5248C350.566 46.4848 350.526 46.4048 350.526 46.3648C348.766 44.4048 346.766 43.8448 344.926 42.2448C344.326 41.7248 343.846 41.0048 343.446 40.3248C343.486 40.2048 343.286 39.6848 343.286 39.4448C343.286 38.5648 343.686 37.6448 343.966 36.8448C344.366 36.5648 344.366 35.8848 344.686 35.4848L345.126 35.0448C345.606 34.4048 346.006 33.8848 346.566 33.3248L347.886 33.0448C348.246 32.9248 348.686 32.6448 348.886 32.5648H350.046C350.686 32.5648 350.806 31.7648 350.806 31.3248C350.806 29.7648 349.126 29.4848 347.926 29.4848C345.486 29.4848 344.126 30.4448 342.606 32.2448C342.606 32.2848 342.566 32.4048 342.526 32.4048C342.046 32.8848 341.686 33.3648 341.246 34.0048C340.166 35.6048 339.286 37.2448 339.286 39.2448C339.286 40.0048 339.486 40.5248 339.606 41.2048C340.166 42.1248 340.526 42.9648 341.246 43.7648C341.726 44.2848 342.446 44.7248 342.926 45.2848L345.126 46.9648C345.926 47.5648 346.446 48.2448 346.446 49.2048C346.446 50.2448 345.366 50.8848 344.526 51.3648L343.006 52.1248C342.846 52.2048 341.886 52.5248 341.766 52.6048C341.726 52.6048 341.606 52.6448 341.606 52.6448C341.206 53.0848 341.286 53.6448 341.126 54.1248C341.126 54.2048 340.926 54.5248 340.926 54.6048C340.926 54.6048 340.886 54.6848 340.886 54.7248C340.886 55.0848 341.206 55.9248 341.566 55.9248C341.766 55.9248 341.766 55.7248 341.966 55.7248Z" fill="#9162A4"/>
<path d="M44.96 56.68C44.96 56.68 45.04 56.8 45.08 56.84C45.44 56.96 46.4 56.96 46.8 56.96H46.84C46.88 56.96 46.88 56.84 46.88 56.84L47.16 56.48H47.24C47.24 56.52 47.48 56.6 47.48 56.6C47.48 56.6 47.52 56.44 47.56 56.4C47.76 56 47.76 55.48 47.8 55.08V54.12C47.8 53.36 47.68 52.76 47.64 52V50.48C47.64 50.44 47.56 50.2 47.56 50.16C47.52 50 47.48 49.72 47.48 49.68C47.48 49.64 47.56 48.96 47.56 48.88V47.12L47.28 43.36V42.96C47.96 42.96 48.64 45.6 49.28 46.12H49.44L49.96 46.92C50.08 47.2 50.08 47.48 50.28 47.76C50.44 48.04 50.72 48.28 50.72 48.68C50.96 48.68 51.2 49.96 51.16 50.16L51.68 51.08V51.2C51.96 51.8 52.2 52.4 52.28 53C52.32 53.08 52.52 53.24 52.52 53.32C52.64 53.56 52.68 53.88 52.8 54.04C52.8 54.08 53.04 54.24 53.04 54.28C53.24 54.6 53.04 55.24 53.36 55.4C53.4 55.44 53.64 55.32 53.72 55.32C53.72 55.56 53.84 55.96 54.12 56.04C54.16 56.04 54.24 55.96 54.28 55.96C55.04 55.76 55.8 55.8 56.52 55.56C56.8 55.48 56.76 55.28 57.04 55.08L57.12 55C57.28 54.72 57.28 54.44 57.36 54.16C57.48 53.84 57.64 53.6 57.68 53.24C57.84 51.8 57.76 50.2 58 48.76C58.28 47.28 58.4 45.8 58.4 44.32V44.28C58.4 44.24 58.36 43.88 58.36 43.8V43.76C58.4 43.6 58.48 43.28 58.48 43.16C58.48 43.04 58.4 42.96 58.4 42.84C58.4 42.44 58.52 42.08 58.52 41.72C58.52 40.6 58.28 39.48 58.36 38.32L58.24 38.16V37.16C58.36 37.04 58.36 36.96 58.36 36.84C58.36 36.56 58.24 36.32 58.24 36.04C58.24 35.2 58.4 34.44 58.36 33.6C58.48 33.28 58.52 32.8 58.52 32.48V32.4C58.52 32.12 58.52 31.68 58.24 31.52V30.64C58.24 30.6 58.16 30.52 58.16 30.48C58.16 30.44 58.36 30.32 58.36 30.32V29.84C58.32 29.8 58.12 29.76 58.12 29.72C57.28 29.6 57.92 29.32 57.36 29.12L57.24 29.16C56.88 29.16 56.84 28.84 56.56 28.84H56.52L56.48 28.88H56.36L56.2 28.76L56.16 28.72C56.04 28.72 55.6 28.96 55.28 28.96C55.16 28.96 55.12 28.88 55.04 28.88C54.84 28.88 54.56 29.36 54.44 29.4C54.44 29.44 54.16 29.48 54.12 29.52C54.12 29.52 54.04 29.72 54.04 29.84V29.96C53.64 30.84 53.36 31.68 53.44 32.68L53.36 32.8C53.44 34.12 53.16 35.4 53.08 36.72C53.08 36.92 53.08 37.6 53.04 37.72L52.96 37.88C52.96 37.92 53 38.04 53.04 38.08V39.12C53.04 40 53 40.84 52.96 41.64C52.96 41.84 52.88 42.36 52.84 42.36L52.72 42.56C52.6 42.48 52.52 42.32 52.48 42.24C52.24 41.76 49.52 36.52 49.52 36.48C48.72 35.52 48.28 34.28 47.64 33.24C47.48 33.08 47.48 32.72 47.32 32.52C46.64 31.84 46.04 31.28 45.32 30.64C44.96 30.28 44.48 30.24 43.92 30.24C43.44 30.24 43.2 31.16 43.2 31.56C43.2 31.64 43.32 32 43.4 32.04C43.24 32.2 43.24 32.28 43.24 32.48C43.24 32.72 43.32 32.92 43.32 33.16C43.32 33.6 43.24 34 43.24 34.48C43.24 34.92 43.24 35.48 43.44 35.92V36.72C43.44 37.36 43.32 37.96 43.32 38.6V39.04C43.36 39.04 43.44 39.16 43.44 39.2C43.44 39.24 43.32 39.24 43.32 39.28V39.32C43.32 40.16 43.52 41 43.52 41.88C43.72 41.96 43.64 43.64 43.64 44.12C43.76 45.92 43.8 47.72 43.8 49.56C43.8 50.72 43.64 51.92 43.64 53.12V53.16C43.68 53.16 43.72 53.24 43.76 53.24C43.76 53.28 43.8 53.44 43.8 53.48V53.6L43.72 53.68L43.76 53.72L43.8 53.8C43.8 53.84 43.76 53.96 43.76 53.96C43.8 54.44 44.04 54.76 44.08 55.28C44.08 55.36 44.12 55.68 44.12 55.72C44.28 56.08 44.6 56.36 44.68 56.72L44.96 56.68ZM43.44 38.64C43.52 38.64 43.52 38.8 43.44 38.8C43.32 38.8 43.32 38.64 43.44 38.64ZM57.92 30.48C57.92 30.52 57.84 30.52 57.84 30.48C57.84 30.44 57.96 30.44 57.92 30.48ZM60.9344 45.2C60.9344 47 61.0944 49.6 61.6544 51.24C61.9344 52.16 62.0144 53.12 62.4944 54C62.9344 54.8 63.6544 55.52 64.2944 56.16L64.7344 56.48C65.4544 56.92 66.7744 56.92 67.6144 56.92C67.8144 56.92 69.1344 56.72 69.3344 56.72C69.5744 56.64 69.9344 56.6 70.1744 56.48C70.1744 56.44 70.2544 56.32 70.2944 56.32C70.4944 56.24 70.8144 56.24 71.0144 56.08C72.9744 54.48 73.5744 51.36 74.1744 49.04C74.2144 48.6 74.4144 48.12 74.6144 47.76C74.6544 47.52 74.7344 46.08 74.7744 45.8C74.7744 45.76 74.7344 45.56 74.7744 45.56L75.6944 38.8C75.7344 38.68 75.7344 38.28 75.8144 38.12C75.8544 37.92 75.9744 36.96 75.9744 36.72V36.56C75.9744 36.08 75.9744 35.48 75.8144 35.04C75.8144 35 75.6144 34.44 75.6144 34.36C75.5744 34.28 75.6144 33.52 75.6144 33.44C75.5344 32.56 75.0944 31.92 74.6144 31.24C74.1344 31.04 73.9344 30.76 73.6944 30.28L73.6144 30.2C73.5344 30.2 73.0544 30 73.0144 29.96C72.9744 29.96 72.7744 29.84 72.7744 29.84C72.2544 29.72 71.7744 29.8 71.3344 29.52C71.2944 29.48 71.0944 29.36 71.0944 29.36C70.4944 29.2 69.7344 28.88 69.1344 28.88C68.8544 28.88 68.6544 29.12 68.3744 29.12C68.3744 29.12 68.0944 29.04 68.0544 29.04H68.0144C67.9744 29.04 67.7344 29.12 67.6944 29.12H67.6544C67.5344 29.12 67.2544 29 67.0944 29C66.5344 29 65.9744 29.16 65.4544 29.28C65.3744 29.4 64.8944 29.88 64.7744 29.96C64.7344 30.04 64.2944 30.36 64.2544 30.44C63.9744 30.72 63.8144 31.4 63.4544 31.6C62.4144 33.64 62.0544 35.44 61.6544 37.72C61.6544 38 61.4944 38.16 61.5744 38.44L61.0944 42.24V42.44C61.0944 42.56 60.9744 43.56 60.9344 43.72V45.2ZM67.0144 52.08C66.9744 52.08 66.9344 52.04 66.9344 52C66.6944 51.24 66.7344 50.36 66.6144 49.56C66.4944 48.8 66.2944 48.08 66.1744 47.32C65.9744 46.04 65.9344 44.72 65.9344 43.44V41.96C65.9344 41.84 66.0144 41.12 66.0144 41.04V40.12C66.0144 40.04 66.1344 39.48 66.1744 39.4C66.2544 38.92 66.1744 37.8 66.4944 37.4C66.4944 37.32 66.5344 37.24 66.5344 37.16C66.8144 35.8 67.1744 34.04 68.2944 33.04C68.4944 32.92 69.0144 32.48 69.0944 32.44C69.0944 32.44 69.1744 32.36 69.2144 32.36H69.2944C69.4544 32.36 69.4944 32.72 69.5344 32.8L69.8544 33.24C70.5744 34.04 70.7744 35 70.7744 36.08C70.7744 38.48 70.4544 40.76 70.0144 43.12C70.0144 43.16 69.9344 43.36 69.9344 43.4L69.3344 47.56C69.1344 48.2 68.0544 53.48 67.6944 53.48L67.6144 53.44C67.3744 53.12 67.1344 52.4 67.0144 52.08ZM80.4113 54.76C81.0113 54.76 81.5312 55.08 82.1313 55.08H82.4112C82.4513 55.08 82.7313 54.96 82.7313 54.92C84.7313 54.36 85.8113 53.84 87.4913 52.4C87.5313 52.36 87.6513 52.16 87.6513 52.16L88.4113 51.16C88.7313 50.8 89.2113 50.36 89.3313 49.88C89.4513 49.36 89.2913 48.96 89.7313 48.56V47.96C89.7313 47.04 89.5313 46.36 89.0113 45.56C89.0113 45.52 88.9713 45.44 88.9713 45.4C87.2113 43.44 85.2113 42.88 83.3713 41.28C82.7713 40.76 82.2913 40.04 81.8913 39.36C81.9313 39.24 81.7313 38.72 81.7313 38.48C81.7313 37.6 82.1313 36.68 82.4112 35.88C82.8113 35.6 82.8113 34.92 83.1313 34.52L83.5713 34.08C84.0513 33.44 84.4513 32.92 85.0113 32.36L86.3313 32.08C86.6913 31.96 87.1313 31.68 87.3313 31.6H88.4913C89.1313 31.6 89.2513 30.8 89.2513 30.36C89.2513 28.8 87.5713 28.52 86.3713 28.52C83.9313 28.52 82.5713 29.48 81.0513 31.28C81.0513 31.32 81.0113 31.44 80.9713 31.44C80.4913 31.92 80.1313 32.4 79.6913 33.04C78.6113 34.64 77.7313 36.28 77.7313 38.28C77.7313 39.04 77.9313 39.56 78.0513 40.24C78.6113 41.16 78.9713 42 79.6913 42.8C80.1713 43.32 80.8913 43.76 81.3713 44.32L83.5713 46C84.3713 46.6 84.8913 47.28 84.8913 48.24C84.8913 49.28 83.8113 49.92 82.9713 50.4L81.4513 51.16C81.2913 51.24 80.3313 51.56 80.2113 51.64C80.1713 51.64 80.0513 51.68 80.0513 51.68C79.6513 52.12 79.7313 52.68 79.5713 53.16C79.5713 53.24 79.3713 53.56 79.3713 53.64C79.3713 53.64 79.3313 53.72 79.3313 53.76C79.3313 54.12 79.6513 54.96 80.0113 54.96C80.2113 54.96 80.2113 54.76 80.4113 54.76ZM92.2863 54.76C92.8863 54.76 93.4062 55.08 94.0063 55.08H94.2862C94.3263 55.08 94.6063 54.96 94.6063 54.92C96.6063 54.36 97.6863 53.84 99.3663 52.4C99.4063 52.36 99.5263 52.16 99.5263 52.16L100.286 51.16C100.606 50.8 101.086 50.36 101.206 49.88C101.326 49.36 101.166 48.96 101.606 48.56V47.96C101.606 47.04 101.406 46.36 100.886 45.56C100.886 45.52 100.846 45.44 100.846 45.4C99.0863 43.44 97.0863 42.88 95.2463 41.28C94.6463 40.76 94.1663 40.04 93.7663 39.36C93.8063 39.24 93.6063 38.72 93.6063 38.48C93.6063 37.6 94.0063 36.68 94.2862 35.88C94.6863 35.6 94.6863 34.92 95.0063 34.52L95.4463 34.08C95.9263 33.44 96.3263 32.92 96.8863 32.36L98.2063 32.08C98.5663 31.96 99.0063 31.68 99.2063 31.6H100.366C101.006 31.6 101.126 30.8 101.126 30.36C101.126 28.8 99.4463 28.52 98.2463 28.52C95.8063 28.52 94.4463 29.48 92.9263 31.28C92.9263 31.32 92.8863 31.44 92.8463 31.44C92.3663 31.92 92.0063 32.4 91.5663 33.04C90.4863 34.64 89.6063 36.28 89.6063 38.28C89.6063 39.04 89.8063 39.56 89.9263 40.24C90.4863 41.16 90.8463 42 91.5663 42.8C92.0463 43.32 92.7663 43.76 93.2463 44.32L95.4463 46C96.2463 46.6 96.7663 47.28 96.7663 48.24C96.7663 49.28 95.6863 49.92 94.8463 50.4L93.3263 51.16C93.1663 51.24 92.2063 51.56 92.0863 51.64C92.0463 51.64 91.9263 51.68 91.9263 51.68C91.5263 52.12 91.6063 52.68 91.4463 53.16C91.4463 53.24 91.2463 53.56 91.2463 53.64C91.2463 53.64 91.2063 53.72 91.2063 53.76C91.2063 54.12 91.5263 54.96 91.8863 54.96C92.0863 54.96 92.0863 54.76 92.2863 54.76ZM103.234 54.44C103.234 55.08 103.474 55.76 103.634 56.4C103.634 56.48 104.354 57 104.474 57C104.754 57 104.954 56.88 105.234 56.8C106.554 55.72 107.394 53.44 107.754 51.88C107.874 51.44 107.794 51.32 108.154 51.04C108.234 51 108.874 50.96 109.154 50.96L111.434 50.6C111.834 50.6 112.234 50.48 112.594 50.48C112.634 50.48 112.874 50.48 112.874 50.48L112.954 50.6C112.994 50.6 113.154 51.16 113.194 51.36C113.274 51.72 113.674 53.56 113.714 53.96V54.04C113.794 54.16 113.994 54.8 114.074 54.96C114.154 55 114.154 55.16 114.194 55.28C114.514 55.88 114.954 56.08 115.674 56.24C115.674 56.24 115.834 56.16 115.874 56.16L116.074 56.24C116.074 56.24 116.114 56.24 116.154 56.24C116.274 56.24 117.634 55.72 117.634 55.68C117.834 55.44 117.834 55.24 118.114 55.04C118.114 55 118.234 54.88 118.274 54.88C118.514 54.48 118.554 54.04 118.554 53.64C118.554 52.64 118.114 51.44 117.954 50.6C117.794 50.4 117.714 49.84 117.714 49.6C117.714 49 118.514 48.92 118.514 47.88C118.514 47.32 117.914 46.76 117.394 46.76C117.394 46.4 117.194 46.04 117.114 45.68C116.994 45.32 116.674 44.52 116.554 44C116.474 43.44 116.394 42.76 116.194 42.24C116.154 42.2 116.034 41.96 116.034 41.92C116.034 41.88 116.034 41.32 116.034 41.24C115.994 41 115.714 39.88 115.674 39.64C115.674 39.64 115.714 39.28 115.554 39.24C115.394 38.48 115.314 37.64 115.194 36.84C115.074 36.28 114.794 35.6 114.714 35.04C114.674 34.88 114.674 34.68 114.634 34.52C114.354 32 114.034 29.2 110.714 29.2C110.474 29.2 110.034 29.16 109.754 29.28C108.394 30.2 107.874 32.68 107.434 34.2C107.474 34.24 107.474 34.32 107.434 34.36C107.434 34.44 107.194 35.24 107.154 35.48C106.994 36.04 106.994 36.96 106.594 37.48C106.394 38.72 106.114 39.96 105.834 41.2C105.794 41.28 105.794 41.4 105.754 41.48C105.714 41.72 105.594 41.52 105.714 41.84C105.354 43.6 104.714 45.2 104.394 46.96C104.354 47.32 104.354 47.76 104.154 48.04C103.954 48.4 102.634 48.8 102.634 49.16C102.634 49.4 102.754 49.4 102.754 49.64C102.794 49.72 102.754 50.28 102.754 50.36C102.874 50.8 103.194 50.64 103.554 50.72C103.674 50.76 103.634 50.92 103.634 51C103.634 51.04 103.634 51.2 103.634 51.2C103.594 51.24 103.474 51.88 103.474 51.96C103.354 52.76 103.234 53.6 103.234 54.44ZM108.994 47.12C108.994 45.56 109.674 44.08 109.914 42.52C109.914 42.36 110.034 41.16 110.034 41C110.074 40.92 110.194 40.08 110.234 40C110.314 39.16 110.234 38.24 110.514 37.4L110.594 37.32C110.634 37.36 110.634 37.52 110.674 37.56C111.154 39.8 111.434 42.12 111.754 44.36C111.834 45.12 112.114 45.88 112.114 46.64V46.68C112.114 46.72 112.034 46.8 111.994 46.8C111.674 46.88 110.434 47.08 110.154 47.16C109.834 47.16 109.594 47.28 109.314 47.28C109.194 47.28 108.994 47.28 108.994 47.12ZM121.271 54.76C121.871 54.76 122.391 55.08 122.991 55.08H123.271C123.311 55.08 123.591 54.96 123.591 54.92C125.591 54.36 126.671 53.84 128.351 52.4C128.391 52.36 128.511 52.16 128.511 52.16L129.271 51.16C129.591 50.8 130.071 50.36 130.191 49.88C130.311 49.36 130.151 48.96 130.591 48.56V47.96C130.591 47.04 130.391 46.36 129.871 45.56C129.871 45.52 129.831 45.44 129.831 45.4C128.071 43.44 126.071 42.88 124.231 41.28C123.631 40.76 123.151 40.04 122.751 39.36C122.791 39.24 122.591 38.72 122.591 38.48C122.591 37.6 122.991 36.68 123.271 35.88C123.671 35.6 123.671 34.92 123.991 34.52L124.431 34.08C124.911 33.44 125.311 32.92 125.871 32.36L127.191 32.08C127.551 31.96 127.991 31.68 128.191 31.6H129.351C129.991 31.6 130.111 30.8 130.111 30.36C130.111 28.8 128.431 28.52 127.231 28.52C124.791 28.52 123.431 29.48 121.911 31.28C121.911 31.32 121.871 31.44 121.831 31.44C121.351 31.92 120.991 32.4 120.551 33.04C119.471 34.64 118.591 36.28 118.591 38.28C118.591 39.04 118.791 39.56 118.911 40.24C119.471 41.16 119.831 42 120.551 42.8C121.031 43.32 121.751 43.76 122.231 44.32L124.431 46C125.231 46.6 125.751 47.28 125.751 48.24C125.751 49.28 124.671 49.92 123.831 50.4L122.311 51.16C122.151 51.24 121.191 51.56 121.071 51.64C121.031 51.64 120.911 51.68 120.911 51.68C120.511 52.12 120.591 52.68 120.431 53.16C120.431 53.24 120.231 53.56 120.231 53.64C120.231 53.64 120.191 53.72 120.191 53.76C120.191 54.12 120.511 54.96 120.871 54.96C121.071 54.96 121.071 54.76 121.271 54.76ZM144.016 54.44C144.016 55.08 144.256 55.76 144.416 56.4C144.416 56.48 145.136 57 145.256 57C145.536 57 145.736 56.88 146.016 56.8C147.336 55.72 148.176 53.44 148.536 51.88C148.656 51.44 148.576 51.32 148.936 51.04C149.016 51 149.656 50.96 149.936 50.96L152.216 50.6C152.616 50.6 153.016 50.48 153.376 50.48C153.416 50.48 153.656 50.48 153.656 50.48L153.736 50.6C153.776 50.6 153.936 51.16 153.976 51.36C154.056 51.72 154.456 53.56 154.496 53.96V54.04C154.576 54.16 154.776 54.8 154.856 54.96C154.936 55 154.936 55.16 154.976 55.28C155.296 55.88 155.736 56.08 156.456 56.24C156.456 56.24 156.616 56.16 156.656 56.16L156.856 56.24C156.856 56.24 156.896 56.24 156.936 56.24C157.056 56.24 158.416 55.72 158.416 55.68C158.616 55.44 158.616 55.24 158.896 55.04C158.896 55 159.016 54.88 159.056 54.88C159.296 54.48 159.336 54.04 159.336 53.64C159.336 52.64 158.896 51.44 158.736 50.6C158.576 50.4 158.496 49.84 158.496 49.6C158.496 49 159.296 48.92 159.296 47.88C159.296 47.32 158.696 46.76 158.176 46.76C158.176 46.4 157.976 46.04 157.896 45.68C157.776 45.32 157.456 44.52 157.336 44C157.256 43.44 157.176 42.76 156.976 42.24C156.936 42.2 156.816 41.96 156.816 41.92C156.816 41.88 156.816 41.32 156.816 41.24C156.776 41 156.496 39.88 156.456 39.64C156.456 39.64 156.496 39.28 156.336 39.24C156.176 38.48 156.096 37.64 155.976 36.84C155.856 36.28 155.576 35.6 155.496 35.04C155.456 34.88 155.456 34.68 155.416 34.52C155.136 32 154.816 29.2 151.496 29.2C151.256 29.2 150.816 29.16 150.536 29.28C149.176 30.2 148.656 32.68 148.216 34.2C148.256 34.24 148.256 34.32 148.216 34.36C148.216 34.44 147.976 35.24 147.936 35.48C147.776 36.04 147.776 36.96 147.376 37.48C147.176 38.72 146.896 39.96 146.616 41.2C146.576 41.28 146.576 41.4 146.536 41.48C146.496 41.72 146.376 41.52 146.496 41.84C146.136 43.6 145.496 45.2 145.176 46.96C145.136 47.32 145.136 47.76 144.936 48.04C144.736 48.4 143.416 48.8 143.416 49.16C143.416 49.4 143.536 49.4 143.536 49.64C143.576 49.72 143.536 50.28 143.536 50.36C143.656 50.8 143.976 50.64 144.336 50.72C144.456 50.76 144.416 50.92 144.416 51C144.416 51.04 144.416 51.2 144.416 51.2C144.376 51.24 144.256 51.88 144.256 51.96C144.136 52.76 144.016 53.6 144.016 54.44ZM149.776 47.12C149.776 45.56 150.456 44.08 150.696 42.52C150.696 42.36 150.816 41.16 150.816 41C150.856 40.92 150.976 40.08 151.016 40C151.096 39.16 151.016 38.24 151.296 37.4L151.376 37.32C151.416 37.36 151.416 37.52 151.456 37.56C151.936 39.8 152.216 42.12 152.536 44.36C152.616 45.12 152.896 45.88 152.896 46.64V46.68C152.896 46.72 152.816 46.8 152.776 46.8C152.456 46.88 151.216 47.08 150.936 47.16C150.616 47.16 150.376 47.28 150.096 47.28C149.976 47.28 149.776 47.28 149.776 47.12ZM165.069 63C164.789 64.32 166.109 63.84 166.989 63.84C167.189 63.84 167.349 63.88 167.509 63.88C167.589 63.88 167.629 63.84 167.669 63.84C168.949 63.68 169.309 63.64 169.709 63.36C169.989 63.24 170.029 62.92 170.229 62.8C171.109 62.2 171.429 61.68 171.429 60.56C171.349 60.4 170.869 59.6 170.869 59.6C170.669 59.32 170.269 58.96 169.989 58.76C169.909 58.68 169.029 58.32 169.149 58.24C169.109 58.24 169.029 58.28 168.989 58.28H168.949C168.509 58.28 168.349 57.2 168.029 56.24C171.349 56.04 173.909 54.92 173.749 50.72C173.829 50.56 173.829 50.32 173.829 50.12C173.829 49.48 173.589 48.84 173.429 48.24C173.429 48.24 173.349 48.16 173.349 48.12C172.829 47.04 172.149 46.04 171.189 45.2H171.109C169.669 45.64 171.349 52.32 167.869 51.4C166.909 51.4 166.429 47.64 166.229 46.92C166.069 46.28 165.829 45.72 165.749 45.08C165.749 44.84 165.469 41.4 165.469 40.84C165.469 40.84 165.429 40.56 165.429 40.44C165.429 39.88 165.629 39.32 165.749 38.76C165.789 38.52 165.749 38.04 165.909 37.8C165.949 37.72 166.069 37.52 166.069 37.52C166.269 36.84 166.389 35.88 166.829 35.32L166.949 35.2C167.389 34.64 168.149 33.68 168.869 33.68C169.389 33.68 169.429 34.28 169.669 34.56V37.16C169.669 37.44 169.989 38 170.269 38.12C170.389 38.12 170.989 38.32 171.189 38.32H171.269C173.069 38.32 173.869 37.12 173.869 35.36C173.869 33.88 173.149 31.72 171.949 30.84C171.549 30.48 171.029 30.28 170.589 30C169.509 29.64 168.269 29.44 167.149 29.44C166.869 29.44 165.549 29.48 165.309 29.52C161.589 31.52 160.309 38.24 160.309 42.04C160.309 44.44 160.869 48.24 161.549 50.52C161.909 51.8 162.269 52.88 163.029 54.04C163.429 54.68 163.909 54.92 164.389 55.4C164.709 55.76 165.149 56.04 165.629 56.16C165.549 56.64 165.509 57.12 165.509 57.6C165.509 58.04 165.629 58.96 165.789 59.32C166.069 60 166.949 60.44 167.629 60.44C167.829 60.44 168.029 60.36 168.229 60.36C168.389 60.36 168.949 60.8 168.949 60.96C168.949 61.32 166.229 61.92 165.909 62.04C165.469 62.28 165.309 62.56 165.109 62.92C165.109 62.96 165.069 62.96 165.069 63ZM176.286 45.2C176.286 47 176.446 49.6 177.006 51.24C177.286 52.16 177.366 53.12 177.846 54C178.286 54.8 179.006 55.52 179.646 56.16L180.086 56.48C180.806 56.92 182.126 56.92 182.966 56.92C183.166 56.92 184.486 56.72 184.686 56.72C184.926 56.64 185.286 56.6 185.526 56.48C185.526 56.44 185.606 56.32 185.646 56.32C185.846 56.24 186.166 56.24 186.366 56.08C188.326 54.48 188.926 51.36 189.526 49.04C189.566 48.6 189.766 48.12 189.966 47.76C190.006 47.52 190.086 46.08 190.126 45.8C190.126 45.76 190.086 45.56 190.126 45.56L191.046 38.8C191.086 38.68 191.086 38.28 191.166 38.12C191.206 37.92 191.326 36.96 191.326 36.72V36.56C191.326 36.08 191.326 35.48 191.166 35.04C191.166 35 190.966 34.44 190.966 34.36C190.926 34.28 190.966 33.52 190.966 33.44C190.886 32.56 190.446 31.92 189.966 31.24C189.486 31.04 189.286 30.76 189.046 30.28L188.966 30.2C188.886 30.2 188.406 30 188.366 29.96C188.326 29.96 188.126 29.84 188.126 29.84C187.606 29.72 187.126 29.8 186.686 29.52C186.646 29.48 186.446 29.36 186.446 29.36C185.846 29.2 185.086 28.88 184.486 28.88C184.206 28.88 184.006 29.12 183.726 29.12C183.726 29.12 183.446 29.04 183.406 29.04H183.366C183.326 29.04 183.086 29.12 183.046 29.12H183.006C182.886 29.12 182.606 29 182.446 29C181.886 29 181.326 29.16 180.806 29.28C180.726 29.4 180.246 29.88 180.126 29.96C180.086 30.04 179.646 30.36 179.606 30.44C179.326 30.72 179.166 31.4 178.806 31.6C177.766 33.64 177.406 35.44 177.006 37.72C177.006 38 176.846 38.16 176.926 38.44L176.446 42.24V42.44C176.446 42.56 176.326 43.56 176.286 43.72V45.2ZM182.366 52.08C182.326 52.08 182.286 52.04 182.286 52C182.046 51.24 182.086 50.36 181.966 49.56C181.846 48.8 181.646 48.08 181.526 47.32C181.326 46.04 181.286 44.72 181.286 43.44V41.96C181.286 41.84 181.366 41.12 181.366 41.04V40.12C181.366 40.04 181.486 39.48 181.526 39.4C181.606 38.92 181.526 37.8 181.846 37.4C181.846 37.32 181.886 37.24 181.886 37.16C182.166 35.8 182.526 34.04 183.646 33.04C183.846 32.92 184.366 32.48 184.446 32.44C184.446 32.44 184.526 32.36 184.566 32.36H184.646C184.806 32.36 184.846 32.72 184.886 32.8L185.206 33.24C185.926 34.04 186.126 35 186.126 36.08C186.126 38.48 185.806 40.76 185.366 43.12C185.366 43.16 185.286 43.36 185.286 43.4L184.686 47.56C184.486 48.2 183.406 53.48 183.046 53.48L182.966 53.44C182.726 53.12 182.486 52.4 182.366 52.08ZM184.246 25.92C184.326 25.88 184.566 26.2 184.646 26.2C185.246 26.56 185.806 26.72 186.486 26.72C187.366 26.72 187.686 26.2 188.206 25.6C188.326 25.48 188.446 25.44 188.486 25.32C188.566 25 188.486 24.88 188.646 24.64V24.12C188.646 23.84 188.526 23.52 188.526 23.24C188.526 23.04 188.766 22.8 188.766 22.6C188.766 22.48 188.646 22.32 188.486 22.32C188.166 22.32 187.966 22.64 187.646 22.64C187.526 22.76 187.126 23.2 186.966 23.24C186.966 23.28 186.886 23.4 186.886 23.44L186.806 23.4C186.806 23.72 186.726 23.56 186.566 23.84C186.366 24.08 186.326 24.44 185.886 24.44C185.446 24.44 185.286 23.84 185.046 23.6C184.566 23.16 183.406 22.6 182.646 22.6C181.246 22.6 179.886 23.08 179.566 24.44C179.446 24.8 179.206 25.28 179.206 25.68C179.206 25.96 179.566 26.6 179.886 26.6C180.406 26.6 181.246 25.36 181.646 25.16C181.726 25.16 182.206 25 182.206 25C182.446 24.88 182.606 24.8 182.806 24.8C183.166 24.8 183.366 25.12 183.606 25.32C183.646 25.44 184.126 25.88 184.246 25.92ZM195.428 39.08C195.428 42.96 195.628 47 196.188 50.88C196.188 50.92 196.268 51.24 196.268 51.28C196.388 52.44 196.268 54.24 196.988 55.16C197.108 55.36 197.548 55.92 197.588 55.92C198.188 56.52 199.388 56.52 200.148 56.52C200.868 56.52 201.268 56.48 202.068 56.4C202.108 56.4 202.148 56.4 202.188 56.4C202.588 56.12 203.348 56.12 203.788 56.04C205.068 55.68 208.148 54.8 208.148 53.28C208.148 53.24 208.148 53.2 208.148 53.2C208.148 53.08 208.108 52.88 208.108 52.88L207.148 51.96C207.148 51.96 206.988 51.96 206.908 51.96C205.788 51.96 204.588 52.24 203.508 52.52C203.428 52.52 203.388 52.56 203.308 52.56C202.908 52.68 202.428 52.88 201.988 52.88C201.948 52.88 201.748 52.92 201.708 52.8C201.748 52.08 201.268 51.68 201.188 51.04C200.868 48.52 200.348 46.28 200.348 43.64C200.348 43.44 200.348 42.44 200.348 42.24C200.668 41.28 205.628 41.6 205.628 40.4V39.52C205.628 38.72 202.828 38.52 202.628 38.52C201.988 38.52 201.348 38.64 200.668 38.64C200.628 38.64 200.428 38.64 200.428 38.64C200.068 38.48 200.028 36.24 199.988 35.88C199.988 35.84 199.948 35.8 199.948 35.76C199.828 35.28 199.708 34.76 199.708 34.32C199.708 34.08 200.228 34 200.348 33.96C202.468 33.88 204.668 33.88 206.788 33.36C207.188 33 207.548 32.8 207.548 32.28C207.548 32.24 207.548 32.12 207.548 32.12C207.508 32.08 207.308 31.84 207.308 31.84C206.268 30.28 203.148 30.24 201.628 30.24C200.148 30.24 198.748 30.48 197.268 30.76H197.148L195.428 31.12C195.108 31.04 193.748 31.44 193.748 31.92C193.748 31.96 193.748 32.08 193.748 32.12C193.748 32.16 193.828 32.32 193.828 32.36C193.828 32.36 193.748 32.6 193.748 32.64C193.748 32.68 193.708 32.88 193.708 32.88V32.92C193.708 33.04 194.188 33.48 194.348 33.48C194.628 33.52 195.588 33.44 195.588 33.88C195.588 35.64 195.428 37.32 195.428 39.08ZM211.661 54.76C212.261 54.76 212.781 55.08 213.381 55.08H213.661C213.701 55.08 213.981 54.96 213.981 54.92C215.981 54.36 217.061 53.84 218.741 52.4C218.781 52.36 218.901 52.16 218.901 52.16L219.661 51.16C219.981 50.8 220.461 50.36 220.581 49.88C220.701 49.36 220.541 48.96 220.981 48.56V47.96C220.981 47.04 220.781 46.36 220.261 45.56C220.261 45.52 220.221 45.44 220.221 45.4C218.461 43.44 216.461 42.88 214.621 41.28C214.021 40.76 213.541 40.04 213.141 39.36C213.181 39.24 212.981 38.72 212.981 38.48C212.981 37.6 213.381 36.68 213.661 35.88C214.061 35.6 214.061 34.92 214.381 34.52L214.821 34.08C215.301 33.44 215.701 32.92 216.261 32.36L217.581 32.08C217.941 31.96 218.381 31.68 218.581 31.6H219.741C220.381 31.6 220.501 30.8 220.501 30.36C220.501 28.8 218.821 28.52 217.621 28.52C215.181 28.52 213.821 29.48 212.301 31.28C212.301 31.32 212.261 31.44 212.221 31.44C211.741 31.92 211.381 32.4 210.941 33.04C209.861 34.64 208.981 36.28 208.981 38.28C208.981 39.04 209.181 39.56 209.301 40.24C209.861 41.16 210.221 42 210.941 42.8C211.421 43.32 212.141 43.76 212.621 44.32L214.821 46C215.621 46.6 216.141 47.28 216.141 48.24C216.141 49.28 215.061 49.92 214.221 50.4L212.701 51.16C212.541 51.24 211.581 51.56 211.461 51.64C211.421 51.64 211.301 51.68 211.301 51.68C210.901 52.12 210.981 52.68 210.821 53.16C210.821 53.24 210.621 53.56 210.621 53.64C210.621 53.64 210.581 53.72 210.581 53.76C210.581 54.12 210.901 54.96 211.261 54.96C211.461 54.96 211.461 54.76 211.661 54.76Z" fill="#9162A4"/>
<path fill-rule="evenodd" clip-rule="evenodd" d="M10.3722 31.7287C7.41212 30.8971 4.31305 30.4776 1.30674 30.0933C0.659231 30.0128 0.0580608 30.4623 0.01181 31.0957C-0.0806917 31.7296 0.382087 32.3093 0.983348 32.3898C3.89715 32.7598 6.90318 33.1556 9.72448 33.9562C10.3257 34.1298 10.9735 33.7724 11.1585 33.1575C11.3435 32.5431 10.9734 31.9027 10.3722 31.7287Z" fill="#C8B2D8"/>
<path fill-rule="evenodd" clip-rule="evenodd" d="M19.3444 19.9389C14.5806 15.0723 9.21551 10.8321 4.54418 5.83487C4.12792 5.36816 3.38791 5.34315 2.9254 5.77884C2.46289 6.21499 2.41682 6.94839 2.87933 7.4151C7.55066 12.4267 12.9158 16.6807 17.6796 21.5617C18.1421 22.0173 18.8819 22.0238 19.3444 21.5756C19.7607 21.1279 19.8069 20.3945 19.3444 19.9389Z" fill="#C8B2D8"/>
<path fill-rule="evenodd" clip-rule="evenodd" d="M28.2715 1.22037C28.4102 4.0058 28.5487 6.79123 28.6875 9.57713C28.6875 10.2151 29.2427 10.7078 29.8903 10.6768C30.5378 10.6453 31 10.1022 31 9.4637C30.8613 6.67363 30.7228 3.88403 30.584 1.09443C30.5378 0.45641 29.9827 -0.0329859 29.3352 0.00173943C28.7339 0.0364647 28.2252 0.582811 28.2715 1.22037Z" fill="#C8B2D8"/>
<path fill-rule="evenodd" clip-rule="evenodd" d="M394.639 30.3595C398.391 29.3366 402.093 28.2916 405.872 27.3785C406.685 27.1791 407.498 27.674 407.693 28.4815C407.892 29.2938 407.392 30.1108 406.585 30.3063C402.827 31.2173 399.156 32.2524 395.43 33.2693C394.625 33.4865 393.797 33.0117 393.579 32.2148C393.362 31.4094 393.834 30.5767 394.639 30.3595Z" fill="#C8B2D8"/>
<path fill-rule="evenodd" clip-rule="evenodd" d="M386.466 61.4604C397.528 66.8023 408.312 72.7001 419.252 78.2745C419.995 78.6555 420.288 79.5626 419.911 80.3015C419.53 81.0444 418.627 81.342 417.879 80.9649C406.96 75.3967 396.196 69.5052 385.154 64.178C384.402 63.8133 384.091 62.9131 384.451 62.164C384.817 61.411 385.717 61.1002 386.466 61.4604Z" fill="#C8B2D8"/>
<path fill-rule="evenodd" clip-rule="evenodd" d="M354.156 91.7699C359.394 100.736 364.39 109.862 369.728 118.769C370.151 119.483 369.919 120.408 369.209 120.836C368.494 121.267 367.565 121.031 367.138 120.321C361.796 111.401 356.793 102.265 351.552 93.2859C351.133 92.568 351.374 91.6444 352.092 91.2258C352.814 90.8034 353.733 91.0473 354.156 91.7699Z" fill="#C8B2D8"/>
</svg>
