<svg width="17" height="113" viewBox="0 0 17 113" fill="none" xmlns="http://www.w3.org/2000/svg">
<path fill-rule="evenodd" clip-rule="evenodd" d="M6.76049 29.9522C5.29903 25.1645 3.8338 19.6336 3.41227 14.299C3.0524 9.73947 3.44948 5.32485 5.35222 1.68921C5.62012 1.17672 5.42206 0.542456 4.90915 0.274559C4.39665 0.00623599 3.76238 0.204729 3.49405 0.717227C1.41898 4.68326 0.929293 9.49047 1.32225 14.4639C1.75101 19.8944 3.22688 25.5254 4.70983 30.4093C3.56517 30.9945 2.50708 32.1879 1.74339 34.2746C0.570198 37.4797 0.646586 41.8323 1.39756 46.4082C2.48622 53.0448 4.9598 60.1656 6.7106 64.7417C6.78203 64.9294 6.89541 65.2088 7.0445 65.5506C6.81451 65.6587 6.58806 65.7793 6.36598 65.9124C4.43041 67.0678 2.88067 69.086 2.34576 71.1276C-1.04596 84.0757 3.44755 99.0686 7.10456 111.276C7.27043 111.827 7.85528 112.142 8.40952 111.979C8.96369 111.812 9.27883 111.228 9.1129 110.673C5.55801 98.8082 1.07852 84.2429 4.37426 71.6568C4.78023 70.1077 5.97171 68.5895 7.44066 67.7133C7.60451 67.6145 7.77231 67.5283 7.94268 67.4462C8.80383 69.1242 9.99916 71.0953 11.2637 72.1469C12.5602 73.2275 13.9314 73.4807 15.2094 72.5065C16.3019 71.6692 16.3782 70.4225 15.7877 69.1349C15.155 67.7472 13.7015 66.3292 13.0224 65.8732C11.7539 65.0188 10.3872 64.7612 9.0607 64.9393C8.88132 64.5308 8.74749 64.1988 8.66911 63.994C6.95705 59.5181 4.53142 52.5581 3.46664 46.0687C2.78128 41.8933 2.64188 37.9199 3.71208 34.9951C4.16885 33.7477 4.71078 32.9201 5.34689 32.4662C5.62174 33.3405 5.89196 34.1835 6.1499 34.9889C6.66008 36.5816 7.51413 39.9008 8.98628 42.2601C10.1568 44.1364 11.7309 45.3975 13.6805 45.2954C14.6821 45.2432 15.3427 44.6538 15.7046 43.7256C16.2449 42.3387 15.9405 39.9575 15.7393 39.072C15.1303 36.3865 12.7156 32.8246 10.0267 31.0834C8.95375 30.3885 7.83581 29.9819 6.76049 29.9522ZM7.44661 32.1556C7.68627 32.9135 7.92137 33.6458 8.14685 34.3493C8.62324 35.836 9.3905 38.9471 10.7652 41.1501C11.493 42.3167 12.3585 43.2653 13.5709 43.2017C13.6652 43.1966 13.6907 43.1027 13.7281 43.0195C13.7854 42.8908 13.8241 42.7439 13.8537 42.5875C14.0544 41.5291 13.826 40.1143 13.6946 39.5357C13.1835 37.2824 11.1432 34.3041 8.88683 32.8433C8.41026 32.5346 7.92577 32.2902 7.44661 32.1556ZM10.0551 66.997C10.5759 67.9753 11.2035 68.9981 11.8821 69.8022C12.2425 70.2291 12.612 70.5888 12.9934 70.8141C13.3089 71.0025 13.6304 71.0735 13.9366 70.8385C14.0606 70.7445 14.0612 70.6061 14.0357 70.4639C14.0084 70.3133 13.9526 70.1589 13.8812 70.0047C13.4165 68.9879 12.3495 67.9461 11.8512 67.6134C11.2733 67.2231 10.665 67.0346 10.0551 66.997Z" fill="#C8B2D8"/>
</svg>
