<svg width="285" height="139" viewBox="0 0 285 139" fill="none" xmlns="http://www.w3.org/2000/svg">
<rect x="1.47353" y="1.47353" width="281.813" height="135.78" rx="4.42059" fill="#9162A4" stroke="#C8B2D8" stroke-width="2.94706"/>
<path d="M20.76 123.112H24.44V124.232H21.92V125.568H24.104V126.688H21.92V129H20.76V123.112ZM24.7806 127.208C24.7806 126.851 24.8632 126.531 25.0286 126.248C25.1992 125.965 25.4366 125.744 25.7406 125.584C26.0446 125.419 26.3939 125.336 26.7886 125.336C27.1886 125.336 27.5352 125.419 27.8286 125.584C28.1219 125.744 28.3459 125.965 28.5006 126.248C28.6606 126.531 28.7406 126.851 28.7406 127.208C28.7406 127.565 28.6606 127.888 28.5006 128.176C28.3459 128.459 28.1219 128.683 27.8286 128.848C27.5352 129.013 27.1832 129.096 26.7726 129.096C26.3886 129.096 26.0446 129.021 25.7406 128.872C25.4419 128.723 25.2072 128.507 25.0366 128.224C24.8659 127.941 24.7806 127.603 24.7806 127.208ZM25.9086 127.216C25.9086 127.493 25.9886 127.725 26.1486 127.912C26.3086 128.093 26.5112 128.184 26.7566 128.184C27.0179 128.184 27.2259 128.093 27.3806 127.912C27.5352 127.725 27.6126 127.493 27.6126 127.216C27.6126 126.939 27.5352 126.709 27.3806 126.528C27.2259 126.341 27.0179 126.248 26.7566 126.248C26.5112 126.248 26.3086 126.341 26.1486 126.528C25.9886 126.709 25.9086 126.939 25.9086 127.216ZM30.6389 125.504L30.7189 126.064C30.8415 125.845 31.0149 125.669 31.2389 125.536C31.4629 125.403 31.7349 125.336 32.0549 125.336C32.3855 125.336 32.6602 125.435 32.8789 125.632C33.1029 125.824 33.2175 126.075 33.2229 126.384V129H32.1029V126.8C32.0975 126.645 32.0549 126.523 31.9749 126.432C31.9002 126.336 31.7722 126.288 31.5909 126.288C31.3295 126.288 31.1215 126.411 30.9669 126.656C30.8175 126.896 30.7429 127.203 30.7429 127.576V129H29.6229V125.504H30.6389ZM34.7009 123.968H35.8209V125.488H36.6689V126.36H35.8209V129H34.7009V126.36H34.1569V125.488H34.7009V123.968ZM39.2413 129.096C38.8146 129.096 38.452 129.016 38.1533 128.856C37.86 128.696 37.636 128.475 37.4813 128.192C37.3266 127.909 37.2493 127.584 37.2493 127.216C37.2493 126.864 37.34 126.547 37.5213 126.264C37.7026 125.981 37.9453 125.757 38.2493 125.592C38.5533 125.421 38.892 125.336 39.2653 125.336C39.7666 125.336 40.1773 125.483 40.4973 125.776C40.8226 126.064 41.0333 126.483 41.1293 127.032L38.5693 127.848C38.74 128.045 38.972 128.144 39.2653 128.144C39.388 128.144 39.5053 128.123 39.6173 128.08C39.7346 128.037 39.8493 127.981 39.9613 127.912L40.4573 128.744C40.2706 128.851 40.068 128.936 39.8493 129C39.636 129.064 39.4333 129.096 39.2413 129.096ZM38.3533 127.152C38.3533 127.179 38.3533 127.203 38.3533 127.224L39.8893 126.704C39.8413 126.571 39.764 126.456 39.6573 126.36C39.5506 126.259 39.3906 126.208 39.1773 126.208C38.9266 126.208 38.7266 126.293 38.5773 126.464C38.428 126.635 38.3533 126.864 38.3533 127.152ZM41.4872 126.144C41.4872 125.979 41.5459 125.84 41.6632 125.728C41.7859 125.616 41.9192 125.56 42.0632 125.56C42.1965 125.56 42.3219 125.616 42.4392 125.728C42.5619 125.84 42.6232 125.979 42.6232 126.144C42.6232 126.32 42.5619 126.461 42.4392 126.568C42.3219 126.669 42.1965 126.72 42.0632 126.72C41.9192 126.72 41.7859 126.669 41.6632 126.568C41.5459 126.461 41.4872 126.32 41.4872 126.144ZM41.4872 128.424C41.4872 128.259 41.5459 128.12 41.6632 128.008C41.7859 127.896 41.9192 127.84 42.0632 127.84C42.1965 127.84 42.3219 127.896 42.4392 128.008C42.5619 128.12 42.6232 128.259 42.6232 128.424C42.6232 128.6 42.5619 128.741 42.4392 128.848C42.3219 128.949 42.1965 129 42.0632 129C41.9192 129 41.7859 128.949 41.6632 128.848C41.5459 128.741 41.4872 128.6 41.4872 128.424ZM46.1601 123.216H46.9361V129H46.1601V123.216ZM50.0936 123.216C50.6696 123.216 51.123 123.336 51.4536 123.576C51.7896 123.811 51.9576 124.176 51.9576 124.672C51.9576 124.981 51.8883 125.248 51.7496 125.472C51.611 125.696 51.419 125.872 51.1736 126C51.4936 126.123 51.7523 126.301 51.9496 126.536C52.147 126.771 52.2456 127.051 52.2456 127.376C52.2456 127.76 52.1523 128.072 51.9656 128.312C51.7843 128.552 51.547 128.728 51.2536 128.84C50.9603 128.947 50.6483 129 50.3176 129H48.5976V123.216H50.0936ZM50.2536 125.744C50.5683 125.744 50.7976 125.656 50.9416 125.48C51.0856 125.299 51.1576 125.083 51.1576 124.832C51.1576 124.528 51.0643 124.307 50.8776 124.168C50.691 124.029 50.4403 123.96 50.1256 123.96H49.3736V125.744H50.2536ZM50.2856 128.28C50.6056 128.28 50.8776 128.208 51.1016 128.064C51.331 127.915 51.4456 127.688 51.4456 127.384C51.4456 127.16 51.3843 126.984 51.2616 126.856C51.139 126.728 50.9843 126.637 50.7976 126.584C50.6163 126.525 50.427 126.496 50.2296 126.496H49.3736V128.28H50.2856ZM58.0868 128.504C57.9748 128.595 57.8121 128.683 57.5988 128.768C57.3854 128.853 57.1561 128.925 56.9108 128.984C56.6654 129.037 56.4334 129.064 56.2148 129.064C55.6014 129.064 55.0681 128.941 54.6148 128.696C54.1614 128.445 53.8094 128.107 53.5588 127.68C53.3134 127.248 53.1908 126.76 53.1908 126.216C53.1908 125.731 53.2681 125.299 53.4228 124.92C53.5828 124.541 53.7988 124.221 54.0708 123.96C54.3481 123.693 54.6654 123.493 55.0228 123.36C55.3801 123.221 55.7588 123.152 56.1588 123.152C56.4948 123.152 56.8068 123.192 57.0948 123.272C57.3828 123.352 57.6361 123.453 57.8548 123.576L57.5988 124.288C57.4868 124.224 57.3508 124.165 57.1908 124.112C57.0361 124.059 56.8761 124.016 56.7108 123.984C56.5454 123.952 56.3934 123.936 56.2548 123.936C55.8014 123.936 55.4041 124.027 55.0628 124.208C54.7214 124.389 54.4574 124.645 54.2708 124.976C54.0841 125.307 53.9908 125.699 53.9908 126.152C53.9908 126.573 54.0841 126.947 54.2708 127.272C54.4574 127.592 54.7188 127.843 55.0548 128.024C55.3908 128.2 55.7828 128.288 56.2308 128.288C56.4228 128.288 56.6148 128.269 56.8068 128.232C56.9988 128.195 57.1614 128.136 57.2948 128.056V126.92H56.1508V126.168H58.0868V128.504ZM59.5664 123.216H63.3264V123.96H60.3424V125.72H63.0064V126.464H60.3424V128.248H63.4384V129H59.5664V123.216ZM64.2329 128.576C64.2329 128.453 64.2756 128.352 64.3609 128.272C64.4516 128.187 64.5503 128.144 64.6569 128.144C64.7529 128.144 64.8463 128.187 64.9369 128.272C65.0276 128.352 65.0729 128.453 65.0729 128.576C65.0729 128.704 65.0276 128.808 64.9369 128.888C64.8463 128.963 64.7529 129 64.6569 129C64.5503 129 64.4516 128.963 64.3609 128.888C64.2756 128.808 64.2329 128.704 64.2329 128.576Z" fill="#FBFBFB"/>
<path d="M56.98 110.08C56.68 110.08 56.39 110.03 56.11 109.93C55.8367 109.823 55.61 109.667 55.43 109.46L55.83 108.92C55.9967 109.087 56.1733 109.213 56.36 109.3C56.5467 109.38 56.7267 109.42 56.9 109.42C57.1 109.42 57.2733 109.38 57.42 109.3C57.5733 109.22 57.65 109.083 57.65 108.89C57.65 108.743 57.6 108.627 57.5 108.54C57.4067 108.453 57.2833 108.387 57.13 108.34C56.9833 108.287 56.83 108.233 56.67 108.18C55.9633 107.953 55.61 107.55 55.61 106.97C55.61 106.757 55.6633 106.553 55.77 106.36C55.8833 106.167 56.0467 106.01 56.26 105.89C56.48 105.77 56.75 105.71 57.07 105.71C57.3567 105.71 57.6133 105.747 57.84 105.82C58.0667 105.893 58.28 106.01 58.48 106.17L58.11 106.74C57.99 106.62 57.8467 106.53 57.68 106.47C57.52 106.403 57.3733 106.367 57.24 106.36C57.06 106.36 56.9 106.403 56.76 106.49C56.6267 106.577 56.56 106.697 56.56 106.85C56.5533 106.99 56.5967 107.103 56.69 107.19C56.7833 107.27 56.9033 107.337 57.05 107.39C57.2033 107.443 57.3567 107.493 57.51 107.54C57.81 107.64 58.0633 107.777 58.27 107.95C58.4833 108.123 58.59 108.377 58.59 108.71C58.59 109.083 58.4567 109.407 58.19 109.68C57.9233 109.947 57.52 110.08 56.98 110.08ZM61.622 110.1C61.2287 110.1 60.872 110.017 60.552 109.85C60.2387 109.683 59.9887 109.44 59.802 109.12C59.622 108.793 59.532 108.397 59.532 107.93C59.532 107.463 59.6254 107.063 59.812 106.73C60.0054 106.397 60.262 106.14 60.582 105.96C60.9087 105.78 61.2654 105.69 61.652 105.69C62.0254 105.69 62.342 105.77 62.602 105.93C62.862 106.09 63.0654 106.283 63.212 106.51L63.282 105.86H64.142V110H63.212V109.32C63.132 109.427 63.0154 109.54 62.862 109.66C62.7154 109.78 62.5354 109.883 62.322 109.97C62.1154 110.057 61.882 110.1 61.622 110.1ZM61.872 109.33C62.212 109.33 62.502 109.237 62.742 109.05C62.982 108.857 63.1387 108.597 63.212 108.27V107.45C63.132 107.163 62.9654 106.927 62.712 106.74C62.4587 106.553 62.1687 106.46 61.842 106.46C61.5887 106.46 61.3587 106.52 61.152 106.64C60.9454 106.76 60.7787 106.927 60.652 107.14C60.532 107.353 60.472 107.6 60.472 107.88C60.472 108.153 60.5354 108.4 60.662 108.62C60.7887 108.833 60.9587 109.007 61.172 109.14C61.3854 109.267 61.6187 109.33 61.872 109.33ZM62.922 105.28C62.702 105.28 62.522 105.233 62.382 105.14C62.2487 105.04 62.1254 104.937 62.012 104.83C61.932 104.757 61.8487 104.69 61.762 104.63C61.682 104.563 61.5954 104.53 61.502 104.53C61.3687 104.53 61.2654 104.6 61.192 104.74C61.1187 104.873 61.0854 105.057 61.092 105.29L60.582 105.28C60.562 104.893 60.6387 104.57 60.812 104.31C60.992 104.043 61.2354 103.91 61.542 103.91C61.7154 103.91 61.8654 103.957 61.992 104.05C62.1187 104.143 62.2387 104.243 62.352 104.35C62.4387 104.437 62.5254 104.517 62.612 104.59C62.6987 104.657 62.792 104.69 62.892 104.69C63.0254 104.69 63.1187 104.62 63.172 104.48C63.232 104.333 63.262 104.14 63.262 103.9L63.762 103.91C63.8087 104.33 63.7454 104.663 63.572 104.91C63.3987 105.157 63.182 105.28 62.922 105.28ZM65.4012 107.89C65.4012 107.477 65.4978 107.103 65.6912 106.77C65.8912 106.437 66.1645 106.173 66.5112 105.98C66.8578 105.787 67.2545 105.69 67.7012 105.69C68.1478 105.69 68.5412 105.787 68.8812 105.98C69.2212 106.173 69.4845 106.437 69.6712 106.77C69.8645 107.103 69.9612 107.477 69.9612 107.89C69.9612 108.303 69.8645 108.677 69.6712 109.01C69.4845 109.343 69.2178 109.61 68.8712 109.81C68.5312 110.003 68.1345 110.1 67.6812 110.1C67.2412 110.1 66.8478 110.01 66.5012 109.83C66.1612 109.65 65.8912 109.393 65.6912 109.06C65.4978 108.727 65.4012 108.337 65.4012 107.89ZM66.3412 107.9C66.3412 108.167 66.3978 108.41 66.5112 108.63C66.6312 108.843 66.7912 109.013 66.9912 109.14C67.1912 109.267 67.4178 109.33 67.6712 109.33C67.9312 109.33 68.1612 109.267 68.3612 109.14C68.5612 109.013 68.7178 108.843 68.8312 108.63C68.9512 108.41 69.0112 108.167 69.0112 107.9C69.0112 107.633 68.9512 107.393 68.8312 107.18C68.7178 106.96 68.5612 106.787 68.3612 106.66C68.1612 106.527 67.9312 106.46 67.6712 106.46C67.4178 106.46 67.1878 106.527 66.9812 106.66C66.7812 106.793 66.6245 106.97 66.5112 107.19C66.3978 107.403 66.3412 107.64 66.3412 107.9ZM75.2145 105.86L75.2745 106.65C75.4345 106.35 75.6511 106.117 75.9245 105.95C76.2045 105.777 76.5245 105.69 76.8845 105.69C77.2245 105.69 77.5078 105.77 77.7345 105.93C77.9678 106.09 78.1111 106.307 78.1645 106.58C78.3311 106.3 78.5478 106.083 78.8145 105.93C79.0878 105.77 79.3778 105.69 79.6845 105.69C80.0845 105.69 80.4011 105.807 80.6345 106.04C80.8745 106.273 81.0011 106.57 81.0145 106.93V110H80.0845V107.28C80.0711 107.067 80.0145 106.89 79.9145 106.75C79.8211 106.603 79.6578 106.523 79.4245 106.51C79.1778 106.51 78.9611 106.583 78.7745 106.73C78.5878 106.87 78.4411 107.057 78.3345 107.29C78.2278 107.523 78.1711 107.77 78.1645 108.03V110H77.2245V107.28C77.2178 107.067 77.1611 106.89 77.0545 106.75C76.9545 106.603 76.7845 106.523 76.5445 106.51C76.3045 106.51 76.0911 106.583 75.9045 106.73C75.7178 106.87 75.5711 107.057 75.4645 107.29C75.3578 107.523 75.3045 107.773 75.3045 108.04V110H74.3745V105.86H75.2145ZM83.9464 110.16C83.5664 110.16 83.2531 110.047 83.0064 109.82C82.7597 109.587 82.6331 109.287 82.6264 108.92V105.86H83.5564V108.59C83.5697 108.817 83.6364 109 83.7564 109.14C83.8764 109.28 84.0631 109.353 84.3164 109.36C84.5431 109.36 84.7497 109.293 84.9364 109.16C85.1231 109.02 85.2697 108.833 85.3764 108.6C85.4897 108.36 85.5464 108.09 85.5464 107.79V105.86H86.4764V110H85.6364L85.5664 109.22C85.4331 109.493 85.2197 109.72 84.9264 109.9C84.6397 110.073 84.3131 110.16 83.9464 110.16ZM88.0952 102.25H89.0252V110H88.0952V102.25ZM90.644 110V102.25H91.554V106.61C91.7007 106.343 91.9173 106.127 92.204 105.96C92.4907 105.787 92.8273 105.7 93.214 105.7C93.6007 105.7 93.9173 105.817 94.164 106.05C94.4173 106.277 94.5507 106.573 94.564 106.94V110H93.624V107.26C93.6107 107.04 93.5407 106.86 93.414 106.72C93.294 106.58 93.104 106.507 92.844 106.5C92.604 106.5 92.3873 106.57 92.194 106.71C92.0073 106.843 91.8573 107.027 91.744 107.26C91.6307 107.493 91.574 107.76 91.574 108.06V110H90.644ZM98.0913 110.1C97.6247 110.1 97.218 110.007 96.8713 109.82C96.5313 109.627 96.268 109.363 96.0813 109.03C95.9013 108.697 95.8113 108.32 95.8113 107.9C95.8113 107.493 95.9113 107.123 96.1113 106.79C96.318 106.45 96.5947 106.183 96.9413 105.99C97.2947 105.79 97.6847 105.69 98.1113 105.69C98.658 105.69 99.1113 105.85 99.4713 106.17C99.8313 106.49 100.078 106.93 100.211 107.49L96.9313 108.64C97.0447 108.847 97.2047 109.01 97.4113 109.13C97.618 109.243 97.8513 109.3 98.1113 109.3C98.298 109.3 98.4747 109.267 98.6413 109.2C98.808 109.133 98.968 109.047 99.1213 108.94L99.5513 109.63C99.338 109.77 99.1013 109.883 98.8413 109.97C98.588 110.057 98.338 110.1 98.0913 110.1ZM96.7313 107.85C96.7247 107.93 96.728 108.007 96.7413 108.08L99.1513 107.19C99.058 106.99 98.9213 106.813 98.7413 106.66C98.568 106.507 98.3347 106.43 98.0413 106.43C97.6613 106.43 97.348 106.563 97.1013 106.83C96.8547 107.097 96.7313 107.437 96.7313 107.85ZM102.197 105.86L102.267 106.83C102.38 106.597 102.537 106.397 102.737 106.23C102.937 106.057 103.143 105.927 103.357 105.84C103.577 105.747 103.767 105.697 103.927 105.69L103.887 106.62C103.573 106.607 103.297 106.67 103.057 106.81C102.817 106.943 102.63 107.127 102.497 107.36C102.363 107.593 102.297 107.843 102.297 108.11V110H101.367V105.86H102.197ZM106.871 110.1C106.404 110.1 105.997 110.007 105.651 109.82C105.311 109.627 105.047 109.363 104.861 109.03C104.681 108.697 104.591 108.32 104.591 107.9C104.591 107.493 104.691 107.123 104.891 106.79C105.097 106.45 105.374 106.183 105.721 105.99C106.074 105.79 106.464 105.69 106.891 105.69C107.437 105.69 107.891 105.85 108.251 106.17C108.611 106.49 108.857 106.93 108.991 107.49L105.711 108.64C105.824 108.847 105.984 109.01 106.191 109.13C106.397 109.243 106.631 109.3 106.891 109.3C107.077 109.3 107.254 109.267 107.421 109.2C107.587 109.133 107.747 109.047 107.901 108.94L108.331 109.63C108.117 109.77 107.881 109.883 107.621 109.97C107.367 110.057 107.117 110.1 106.871 110.1ZM105.511 107.85C105.504 107.93 105.507 108.007 105.521 108.08L107.931 107.19C107.837 106.99 107.701 106.813 107.521 106.66C107.347 106.507 107.114 106.43 106.821 106.43C106.441 106.43 106.127 106.563 105.881 106.83C105.634 107.097 105.511 107.437 105.511 107.85ZM111.316 110.08C111.016 110.08 110.726 110.03 110.446 109.93C110.173 109.823 109.946 109.667 109.766 109.46L110.166 108.92C110.333 109.087 110.509 109.213 110.696 109.3C110.883 109.38 111.063 109.42 111.236 109.42C111.436 109.42 111.609 109.38 111.756 109.3C111.909 109.22 111.986 109.083 111.986 108.89C111.986 108.743 111.936 108.627 111.836 108.54C111.743 108.453 111.619 108.387 111.466 108.34C111.319 108.287 111.166 108.233 111.006 108.18C110.299 107.953 109.946 107.55 109.946 106.97C109.946 106.757 109.999 106.553 110.106 106.36C110.219 106.167 110.383 106.01 110.596 105.89C110.816 105.77 111.086 105.71 111.406 105.71C111.693 105.71 111.949 105.747 112.176 105.82C112.403 105.893 112.616 106.01 112.816 106.17L112.446 106.74C112.326 106.62 112.183 106.53 112.016 106.47C111.856 106.403 111.709 106.367 111.576 106.36C111.396 106.36 111.236 106.403 111.096 106.49C110.963 106.577 110.896 106.697 110.896 106.85C110.889 106.99 110.933 107.103 111.026 107.19C111.119 107.27 111.239 107.337 111.386 107.39C111.539 107.443 111.693 107.493 111.846 107.54C112.146 107.64 112.399 107.777 112.606 107.95C112.819 108.123 112.926 108.377 112.926 108.71C112.926 109.083 112.793 109.407 112.526 109.68C112.259 109.947 111.856 110.08 111.316 110.08ZM118.232 105.86L118.292 106.66C118.432 106.367 118.649 106.133 118.942 105.96C119.235 105.787 119.575 105.7 119.962 105.7C120.349 105.7 120.665 105.817 120.912 106.05C121.165 106.277 121.299 106.573 121.312 106.94V110H120.372V107.26C120.359 107.04 120.289 106.86 120.162 106.72C120.042 106.58 119.852 106.507 119.592 106.5C119.232 106.5 118.929 106.647 118.682 106.94C118.442 107.227 118.322 107.6 118.322 108.06V110H117.392V105.86H118.232ZM124.839 110.1C124.373 110.1 123.966 110.007 123.619 109.82C123.279 109.627 123.016 109.363 122.829 109.03C122.649 108.697 122.559 108.32 122.559 107.9C122.559 107.493 122.659 107.123 122.859 106.79C123.066 106.45 123.343 106.183 123.689 105.99C124.043 105.79 124.433 105.69 124.859 105.69C125.406 105.69 125.859 105.85 126.219 106.17C126.579 106.49 126.826 106.93 126.959 107.49L123.679 108.64C123.793 108.847 123.953 109.01 124.159 109.13C124.366 109.243 124.599 109.3 124.859 109.3C125.046 109.3 125.223 109.267 125.389 109.2C125.556 109.133 125.716 109.047 125.869 108.94L126.299 109.63C126.086 109.77 125.849 109.883 125.589 109.97C125.336 110.057 125.086 110.1 124.839 110.1ZM123.479 107.85C123.473 107.93 123.476 108.007 123.489 108.08L125.899 107.19C125.806 106.99 125.669 106.813 125.489 106.66C125.316 106.507 125.083 106.43 124.789 106.43C124.409 106.43 124.096 106.563 123.849 106.83C123.603 107.097 123.479 107.437 123.479 107.85ZM130.115 112.05C129.655 112.05 129.271 111.97 128.965 111.81C128.658 111.657 128.375 111.46 128.115 111.22L128.665 110.58C128.878 110.793 129.098 110.953 129.325 111.06C129.551 111.173 129.808 111.23 130.095 111.23C130.561 111.23 130.918 111.117 131.165 110.89C131.411 110.67 131.538 110.377 131.545 110.01V109.25C131.405 109.497 131.188 109.7 130.895 109.86C130.601 110.02 130.255 110.1 129.855 110.1C129.468 110.1 129.115 110.003 128.795 109.81C128.481 109.617 128.228 109.357 128.035 109.03C127.848 108.697 127.755 108.323 127.755 107.91C127.755 107.477 127.855 107.093 128.055 106.76C128.255 106.427 128.518 106.167 128.845 105.98C129.171 105.787 129.528 105.69 129.915 105.69C130.275 105.69 130.601 105.76 130.895 105.9C131.188 106.04 131.408 106.22 131.555 106.44L131.635 105.86H132.485V110.03C132.485 110.403 132.388 110.743 132.195 111.05C132.001 111.357 131.728 111.6 131.375 111.78C131.021 111.96 130.601 112.05 130.115 112.05ZM128.695 107.88C128.695 108.153 128.758 108.4 128.885 108.62C129.011 108.833 129.181 109.007 129.395 109.14C129.615 109.267 129.858 109.33 130.125 109.33C130.485 109.33 130.791 109.233 131.045 109.04C131.305 108.84 131.471 108.587 131.545 108.28V107.46C131.458 107.167 131.285 106.927 131.025 106.74C130.765 106.553 130.465 106.46 130.125 106.46C129.851 106.46 129.605 106.52 129.385 106.64C129.171 106.76 129.001 106.927 128.875 107.14C128.755 107.353 128.695 107.6 128.695 107.88ZM134.931 105.86L135.001 106.83C135.114 106.597 135.271 106.397 135.471 106.23C135.671 106.057 135.878 105.927 136.091 105.84C136.311 105.747 136.501 105.697 136.661 105.69L136.621 106.62C136.308 106.607 136.031 106.67 135.791 106.81C135.551 106.943 135.364 107.127 135.231 107.36C135.098 107.593 135.031 107.843 135.031 108.11V110H134.101V105.86H134.931ZM139.493 110.1C139.1 110.1 138.743 110.017 138.423 109.85C138.11 109.683 137.86 109.44 137.673 109.12C137.493 108.793 137.403 108.397 137.403 107.93C137.403 107.463 137.496 107.063 137.683 106.73C137.876 106.397 138.133 106.14 138.453 105.96C138.78 105.78 139.136 105.69 139.523 105.69C139.896 105.69 140.213 105.77 140.473 105.93C140.733 106.09 140.936 106.283 141.083 106.51L141.153 105.86H142.013V110H141.083V109.32C141.003 109.427 140.886 109.54 140.733 109.66C140.586 109.78 140.406 109.883 140.193 109.97C139.986 110.057 139.753 110.1 139.493 110.1ZM139.743 109.33C140.083 109.33 140.373 109.237 140.613 109.05C140.853 108.857 141.01 108.597 141.083 108.27V107.45C141.003 107.163 140.836 106.927 140.583 106.74C140.33 106.553 140.04 106.46 139.713 106.46C139.46 106.46 139.23 106.52 139.023 106.64C138.816 106.76 138.65 106.927 138.523 107.14C138.403 107.353 138.343 107.6 138.343 107.88C138.343 108.153 138.406 108.4 138.533 108.62C138.66 108.833 138.83 109.007 139.043 109.14C139.256 109.267 139.49 109.33 139.743 109.33ZM144.802 110.08C144.502 110.08 144.212 110.03 143.932 109.93C143.659 109.823 143.432 109.667 143.252 109.46L143.652 108.92C143.819 109.087 143.996 109.213 144.182 109.3C144.369 109.38 144.549 109.42 144.722 109.42C144.922 109.42 145.096 109.38 145.242 109.3C145.396 109.22 145.472 109.083 145.472 108.89C145.472 108.743 145.422 108.627 145.322 108.54C145.229 108.453 145.106 108.387 144.952 108.34C144.806 108.287 144.652 108.233 144.492 108.18C143.786 107.953 143.432 107.55 143.432 106.97C143.432 106.757 143.486 106.553 143.592 106.36C143.706 106.167 143.869 106.01 144.082 105.89C144.302 105.77 144.572 105.71 144.892 105.71C145.179 105.71 145.436 105.747 145.662 105.82C145.889 105.893 146.102 106.01 146.302 106.17L145.932 106.74C145.812 106.62 145.669 106.53 145.502 106.47C145.342 106.403 145.196 106.367 145.062 106.36C144.882 106.36 144.722 106.403 144.582 106.49C144.449 106.577 144.382 106.697 144.382 106.85C144.376 106.99 144.419 107.103 144.512 107.19C144.606 107.27 144.726 107.337 144.872 107.39C145.026 107.443 145.179 107.493 145.332 107.54C145.632 107.64 145.886 107.777 146.092 107.95C146.306 108.123 146.412 108.377 146.412 108.71C146.412 109.083 146.279 109.407 146.012 109.68C145.746 109.947 145.342 110.08 144.802 110.08ZM147.244 109.47C147.244 109.317 147.298 109.19 147.404 109.09C147.518 108.983 147.641 108.93 147.774 108.93C147.894 108.93 148.011 108.983 148.124 109.09C148.238 109.19 148.294 109.317 148.294 109.47C148.294 109.63 148.238 109.76 148.124 109.86C148.011 109.953 147.894 110 147.774 110C147.641 110 147.518 109.953 147.404 109.86C147.298 109.76 147.244 109.63 147.244 109.47Z" fill="#FBFBFB"/>
<path d="M27.0834 100.837L23.4438 110.606H21.0567L23.989 102.9H20.482V100.837H27.0834ZM31.9303 110.621C31.1837 110.621 30.496 110.444 29.8673 110.09C29.2485 109.737 28.7524 109.191 28.3791 108.455C28.0058 107.718 27.8191 106.79 27.8191 105.67C27.8191 104.412 27.996 103.425 28.3496 102.708C28.7131 101.981 29.2043 101.465 29.8231 101.161C30.442 100.856 31.1444 100.709 31.9303 100.719C32.6867 100.709 33.3743 100.886 33.9932 101.249C34.6121 101.603 35.1082 102.148 35.4815 102.885C35.8548 103.612 36.0414 104.54 36.0414 105.67C36.0414 106.839 35.8499 107.792 35.4668 108.528C35.0935 109.255 34.5974 109.786 33.9785 110.12C33.3596 110.454 32.6769 110.621 31.9303 110.621ZM31.9155 108.573C32.4067 108.573 32.7898 108.445 33.0649 108.189C33.34 107.924 33.5315 107.566 33.6396 107.114C33.7575 106.662 33.8164 106.161 33.8164 105.611C33.8164 105.071 33.7575 104.589 33.6396 104.167C33.5315 103.744 33.34 103.41 33.0649 103.165C32.7898 102.909 32.4067 102.782 31.9155 102.782C31.4342 102.782 31.056 102.909 30.7809 103.165C30.5059 103.42 30.3143 103.764 30.2063 104.196C30.0982 104.628 30.0442 105.115 30.0442 105.655C30.0442 106.195 30.0982 106.686 30.2063 107.129C30.3143 107.571 30.5059 107.924 30.7809 108.189C31.056 108.445 31.4342 108.573 31.9155 108.573ZM39.4442 106.274C38.904 106.274 38.457 106.151 38.1033 105.906C37.7497 105.66 37.4894 105.326 37.3224 104.904C37.1554 104.481 37.0719 104.005 37.0719 103.474C37.0719 102.944 37.1554 102.472 37.3224 102.06C37.4894 101.637 37.7497 101.303 38.1033 101.058C38.457 100.812 38.904 100.689 39.4442 100.689C39.9845 100.689 40.4266 100.812 40.7704 101.058C41.1241 101.303 41.3844 101.637 41.5514 102.06C41.7282 102.472 41.8166 102.944 41.8166 103.474C41.8166 104.005 41.7282 104.481 41.5514 104.904C41.3844 105.326 41.1241 105.66 40.7704 105.906C40.4266 106.151 39.9845 106.274 39.4442 106.274ZM47.2834 100.689L40.1221 110.636L38.1033 110.606L45.2352 100.689H47.2834ZM38.8696 103.474C38.8696 103.877 38.9089 104.206 38.9875 104.461C39.066 104.707 39.2183 104.83 39.4442 104.83C39.6702 104.83 39.8175 104.707 39.8863 104.461C39.9649 104.206 40.0042 103.877 40.0042 103.474C40.0042 103.012 39.9649 102.678 39.8863 102.472C39.8175 102.256 39.6702 102.148 39.4442 102.148C39.2183 102.148 39.066 102.256 38.9875 102.472C38.9089 102.678 38.8696 103.012 38.8696 103.474ZM45.6036 111.019C45.0633 111.019 44.6163 110.896 44.2627 110.65C43.909 110.405 43.6487 110.071 43.4817 109.648C43.3147 109.226 43.2312 108.749 43.2312 108.219C43.2312 107.688 43.3147 107.217 43.4817 106.804C43.6487 106.382 43.909 106.048 44.2627 105.802C44.6163 105.557 45.0633 105.434 45.6036 105.434C46.1439 105.434 46.586 105.557 46.9298 105.802C47.2834 106.048 47.5438 106.382 47.7108 106.804C47.8876 107.217 47.976 107.688 47.976 108.219C47.976 108.749 47.8876 109.226 47.7108 109.648C47.5438 110.071 47.2834 110.405 46.9298 110.65C46.586 110.896 46.1439 111.019 45.6036 111.019ZM45.0289 108.219C45.0289 108.622 45.0682 108.951 45.1468 109.206C45.2254 109.452 45.3777 109.575 45.6036 109.575C45.8295 109.575 45.9769 109.452 46.0457 109.206C46.1243 108.951 46.1635 108.622 46.1635 108.219C46.1635 107.757 46.1243 107.423 46.0457 107.217C45.9769 107.001 45.8295 106.893 45.6036 106.893C45.3777 106.893 45.2254 107.001 45.1468 107.217C45.0682 107.423 45.0289 107.757 45.0289 108.219Z" fill="#FFADC7"/>
<path d="M27.3501 62.5252C29.0184 62.5252 30.3708 61.1011 30.3708 59.3445C30.3708 57.5879 29.0184 56.1638 27.3501 56.1638C25.6818 56.1638 24.3293 57.5879 24.3293 59.3445C24.3293 61.1011 25.6818 62.5252 27.3501 62.5252Z" fill="#FBFBFB"/>
<path d="M35.7871 72.4931L33.7721 64.5747C33.771 64.5685 33.7687 64.5627 33.7673 64.5565L33.7319 64.4172L33.7267 64.4188C33.5429 63.8152 33.0121 63.3754 32.3777 63.3754C32.3729 63.3754 32.3682 63.3769 32.3634 63.3769V63.3494H22.8794V63.3754C22.245 63.3754 21.7142 63.8152 21.5303 64.4188L21.5252 64.4172L21.4898 64.5561C21.4883 64.5627 21.4861 64.5685 21.485 64.5751L19.47 72.4931L19.4891 72.4985C19.4799 72.564 19.47 72.6292 19.47 72.6975C19.469 73.0125 19.5728 73.318 19.7633 73.5609C19.9538 73.8039 20.2191 73.969 20.5131 74.0276C20.8071 74.0862 21.1113 74.0347 21.373 73.882C21.6346 73.7292 21.8373 73.4848 21.9459 73.1913L21.9547 73.1936L23.433 67.3853V67.4075H23.4445C23.485 67.2162 23.6393 67.0704 23.8327 67.0704C24.0265 67.0704 24.1809 67.2166 24.2214 67.4075H24.2335V67.4699C24.2343 67.4796 24.2387 67.4877 24.2387 67.4974C24.2387 67.5071 24.2339 67.5153 24.2335 67.525V67.5843L21.867 76.8851C21.8281 76.9685 21.8051 77.0592 21.7993 77.152L21.7941 77.1718L21.797 77.1725C21.7967 77.183 21.7941 77.1931 21.7941 77.204C21.7941 77.2992 21.8119 77.3936 21.8466 77.4816C21.8812 77.5697 21.932 77.6496 21.996 77.717C22.06 77.7844 22.136 77.8378 22.2196 77.8742C22.3032 77.9106 22.3929 77.9294 22.4833 77.9293H24.2335V84.0769C24.2335 84.4917 24.39 84.8895 24.6686 85.1828C24.9471 85.4761 25.3249 85.6409 25.7189 85.6409C26.1128 85.6409 26.4906 85.4761 26.7691 85.1828C27.0477 84.8895 27.2042 84.4917 27.2042 84.0769V77.9293H28.0489V84.0769C28.055 84.4875 28.2142 84.8791 28.4921 85.1672C28.7701 85.4552 29.1444 85.6167 29.5344 85.6167C29.9243 85.6167 30.2987 85.4552 30.5766 85.1672C30.8545 84.8791 31.0137 84.4875 31.0199 84.0769V77.9293H32.7752C32.8657 77.9294 32.9553 77.9106 33.039 77.8742C33.1226 77.8378 33.1986 77.7844 33.2626 77.717C33.3266 77.6496 33.3773 77.5697 33.412 77.4816C33.4466 77.3936 33.4645 77.2992 33.4645 77.204C33.4645 77.1931 33.4619 77.183 33.4615 77.1725L33.4645 77.1718L33.4593 77.152C33.4531 77.0593 33.4301 76.9687 33.3915 76.8851L31.0324 67.613L31.0401 67.6107C31.0302 67.5739 31.0184 67.5378 31.0184 67.4978C31.0184 67.262 31.2 67.0704 31.4244 67.0704C31.6152 67.0704 31.7677 67.212 31.8112 67.3989L31.8266 67.3947L33.3024 73.194L33.3112 73.1916C33.4198 73.4852 33.6224 73.7296 33.8841 73.8823C34.1458 74.0351 34.45 74.0866 34.744 74.028C35.038 73.9694 35.3032 73.8043 35.4938 73.5613C35.6843 73.3184 35.7881 73.0129 35.7871 72.6979C35.7871 72.6296 35.7772 72.5644 35.768 72.4989L35.7871 72.4931Z" fill="#FBFBFB"/>
<path d="M156.284 62.5252C157.952 62.5252 159.305 61.1011 159.305 59.3445C159.305 57.5879 157.952 56.1638 156.284 56.1638C154.616 56.1638 153.263 57.5879 153.263 59.3445C153.263 61.1011 154.616 62.5252 156.284 62.5252Z" fill="#FBFBFB"/>
<path d="M164.721 72.4931L162.706 64.5747C162.705 64.5685 162.703 64.5627 162.701 64.5565L162.666 64.4172L162.661 64.4188C162.477 63.8152 161.946 63.3754 161.312 63.3754C161.307 63.3754 161.302 63.3769 161.297 63.3769V63.3494H151.813V63.3754C151.179 63.3754 150.648 63.8152 150.464 64.4188L150.459 64.4172L150.424 64.5561C150.422 64.5627 150.42 64.5685 150.419 64.5751L148.404 72.4931L148.423 72.4985C148.414 72.564 148.404 72.6292 148.404 72.6975C148.403 73.0125 148.507 73.318 148.697 73.5609C148.888 73.8039 149.153 73.969 149.447 74.0276C149.741 74.0862 150.045 74.0347 150.307 73.882C150.569 73.7292 150.771 73.4848 150.88 73.1913L150.889 73.1936L152.367 67.3853V67.4075H152.379C152.419 67.2162 152.573 67.0704 152.767 67.0704C152.961 67.0704 153.115 67.2166 153.155 67.4075H153.168V67.4699C153.168 67.4796 153.173 67.4877 153.173 67.4974C153.173 67.5071 153.168 67.5153 153.168 67.525V67.5843L150.801 76.8851C150.762 76.9685 150.739 77.0592 150.733 77.152L150.728 77.1718L150.731 77.1725C150.731 77.183 150.728 77.1931 150.728 77.204C150.728 77.2992 150.746 77.3936 150.781 77.4816C150.815 77.5697 150.866 77.6496 150.93 77.717C150.994 77.7844 151.07 77.8378 151.154 77.8742C151.237 77.9106 151.327 77.9294 151.417 77.9293H153.168V84.0769C153.168 84.4917 153.324 84.8895 153.603 85.1828C153.881 85.4761 154.259 85.6409 154.653 85.6409C155.047 85.6409 155.425 85.4761 155.703 85.1828C155.982 84.8895 156.138 84.4917 156.138 84.0769V77.9293H156.983V84.0769C156.989 84.4875 157.148 84.8791 157.426 85.1672C157.704 85.4552 158.078 85.6167 158.468 85.6167C158.858 85.6167 159.233 85.4552 159.511 85.1672C159.789 84.8791 159.948 84.4875 159.954 84.0769V77.9293H161.709C161.8 77.9294 161.889 77.9106 161.973 77.8742C162.057 77.8378 162.133 77.7844 162.197 77.717C162.261 77.6496 162.311 77.5697 162.346 77.4816C162.381 77.3936 162.399 77.2992 162.399 77.204C162.399 77.1931 162.396 77.183 162.396 77.1725L162.399 77.1718L162.393 77.152C162.387 77.0593 162.364 76.9687 162.326 76.8851L159.966 67.613L159.974 67.6107C159.964 67.5739 159.952 67.5378 159.952 67.4978C159.952 67.262 160.134 67.0704 160.358 67.0704C160.549 67.0704 160.702 67.212 160.745 67.3989L160.761 67.3947L162.236 73.194L162.245 73.1916C162.354 73.4852 162.557 73.7296 162.818 73.8823C163.08 74.0351 163.384 74.0866 163.678 74.028C163.972 73.9694 164.237 73.8043 164.428 73.5613C164.618 73.3184 164.722 73.0129 164.721 72.6979C164.721 72.6296 164.711 72.5644 164.702 72.4989L164.721 72.4931Z" fill="#FBFBFB"/>
<path d="M78.9236 62.5252C80.5919 62.5252 81.9443 61.1011 81.9443 59.3445C81.9443 57.5879 80.5919 56.1638 78.9236 56.1638C77.2553 56.1638 75.9028 57.5879 75.9028 59.3445C75.9028 61.1011 77.2553 62.5252 78.9236 62.5252Z" fill="#FBFBFB"/>
<path d="M87.3606 72.4931L85.3455 64.5747C85.3444 64.5685 85.3422 64.5627 85.3408 64.5565L85.3054 64.4172L85.3002 64.4188C85.1164 63.8152 84.5856 63.3754 83.9512 63.3754C83.9464 63.3754 83.9416 63.3769 83.9369 63.3769V63.3494H74.4528V63.3754C73.8185 63.3754 73.2876 63.8152 73.1038 64.4188L73.0987 64.4172L73.0633 64.5561C73.0618 64.5627 73.0596 64.5685 73.0585 64.5751L71.0435 72.4931L71.0626 72.4985C71.0534 72.564 71.0435 72.6292 71.0435 72.6975C71.0425 73.0125 71.1463 73.318 71.3368 73.5609C71.5273 73.8039 71.7926 73.969 72.0866 74.0276C72.3805 74.0862 72.6847 74.0347 72.9464 73.882C73.2081 73.7292 73.4108 73.4848 73.5194 73.1913L73.5282 73.1936L75.0065 67.3853V67.4075H75.0179C75.0585 67.2162 75.2128 67.0704 75.4062 67.0704C75.6 67.0704 75.7543 67.2166 75.7949 67.4075H75.807V67.4699C75.8078 67.4796 75.8122 67.4877 75.8122 67.4974C75.8122 67.5071 75.8074 67.5153 75.807 67.525V67.5843L73.4405 76.8851C73.4016 76.9685 73.3786 77.0592 73.3727 77.152L73.3676 77.1718L73.3705 77.1725C73.3702 77.183 73.3676 77.1931 73.3676 77.204C73.3676 77.2992 73.3854 77.3936 73.4201 77.4816C73.4547 77.5697 73.5055 77.6496 73.5695 77.717C73.6335 77.7844 73.7095 77.8378 73.7931 77.8742C73.8767 77.9106 73.9663 77.9294 74.0568 77.9293H75.807V84.0769C75.807 84.4917 75.9635 84.8895 76.2421 85.1828C76.5206 85.4761 76.8984 85.6409 77.2923 85.6409C77.6863 85.6409 78.0641 85.4761 78.3426 85.1828C78.6212 84.8895 78.7777 84.4917 78.7777 84.0769V77.9293H79.6224V84.0769C79.6285 84.4875 79.7877 84.8791 80.0656 85.1672C80.3435 85.4552 80.7179 85.6167 81.1079 85.6167C81.4978 85.6167 81.8722 85.4552 82.1501 85.1672C82.428 84.8791 82.5872 84.4875 82.5934 84.0769V77.9293H84.3487C84.4392 77.9294 84.5288 77.9106 84.6124 77.8742C84.6961 77.8378 84.772 77.7844 84.8361 77.717C84.9001 77.6496 84.9508 77.5697 84.9855 77.4816C85.0201 77.3936 85.0379 77.2992 85.0379 77.204C85.0379 77.1931 85.0354 77.183 85.035 77.1725L85.0379 77.1718L85.0328 77.152C85.0266 77.0593 85.0036 76.9687 84.965 76.8851L82.6059 67.613L82.6136 67.6107C82.6037 67.5739 82.5919 67.5378 82.5919 67.4978C82.5919 67.262 82.7735 67.0704 82.9978 67.0704C83.1887 67.0704 83.3412 67.212 83.3846 67.3989L83.4001 67.3947L84.8759 73.194L84.8847 73.1916C84.9932 73.4852 85.1959 73.7296 85.4576 73.8823C85.7193 74.0351 86.0235 74.0866 86.3175 74.028C86.6115 73.9694 86.8767 73.8043 87.0672 73.5613C87.2578 73.3184 87.3615 73.0129 87.3606 72.6979C87.3606 72.6296 87.3507 72.5644 87.3414 72.4989L87.3606 72.4931Z" fill="#FBFBFB"/>
<path d="M207.858 62.5252C209.526 62.5252 210.878 61.1011 210.878 59.3445C210.878 57.5879 209.526 56.1638 207.858 56.1638C206.189 56.1638 204.837 57.5879 204.837 59.3445C204.837 61.1011 206.189 62.5252 207.858 62.5252Z" fill="#C8B2D8"/>
<path d="M216.295 72.4931L214.28 64.5747C214.279 64.5685 214.276 64.5627 214.275 64.5565L214.239 64.4172L214.234 64.4188C214.05 63.8152 213.52 63.3754 212.885 63.3754C212.881 63.3754 212.876 63.3769 212.871 63.3769V63.3494H203.387V63.3754C202.753 63.3754 202.222 63.8152 202.038 64.4188L202.033 64.4172L201.997 64.5561C201.996 64.5627 201.994 64.5685 201.993 64.5751L199.978 72.4931L199.997 72.4985C199.987 72.564 199.978 72.6292 199.978 72.6975C199.977 73.0125 200.08 73.318 200.271 73.5609C200.461 73.8039 200.727 73.969 201.021 74.0276C201.315 74.0862 201.619 74.0347 201.881 73.882C202.142 73.7292 202.345 73.4848 202.453 73.1913L202.462 73.1936L203.941 67.3853V67.4075H203.952C203.993 67.2162 204.147 67.0704 204.34 67.0704C204.534 67.0704 204.688 67.2166 204.729 67.4075H204.741V67.4699C204.742 67.4796 204.746 67.4877 204.746 67.4974C204.746 67.5071 204.741 67.5153 204.741 67.525V67.5843L202.375 76.8851C202.336 76.9685 202.313 77.0592 202.307 77.152L202.302 77.1718L202.305 77.1725C202.304 77.183 202.302 77.1931 202.302 77.204C202.302 77.2992 202.32 77.3936 202.354 77.4816C202.389 77.5697 202.44 77.6496 202.504 77.717C202.568 77.7844 202.644 77.8378 202.727 77.8742C202.811 77.9106 202.9 77.9294 202.991 77.9293H204.741V84.0769C204.741 84.4917 204.898 84.8895 205.176 85.1828C205.455 85.4761 205.832 85.6409 206.226 85.6409C206.62 85.6409 206.998 85.4761 207.277 85.1828C207.555 84.8895 207.712 84.4917 207.712 84.0769V77.9293H208.556V84.0769C208.563 84.4875 208.722 84.8791 209 85.1672C209.278 85.4552 209.652 85.6167 210.042 85.6167C210.432 85.6167 210.806 85.4552 211.084 85.1672C211.362 84.8791 211.521 84.4875 211.527 84.0769V77.9293H213.283C213.373 77.9294 213.463 77.9106 213.547 77.8742C213.63 77.8378 213.706 77.7844 213.77 77.717C213.834 77.6496 213.885 77.5697 213.92 77.4816C213.954 77.3936 213.972 77.2992 213.972 77.204C213.972 77.1931 213.969 77.183 213.969 77.1725L213.972 77.1718L213.967 77.152C213.961 77.0593 213.938 76.9687 213.899 76.8851L211.54 67.613L211.548 67.6107C211.538 67.5739 211.526 67.5378 211.526 67.4978C211.526 67.262 211.708 67.0704 211.932 67.0704C212.123 67.0704 212.275 67.212 212.319 67.3989L212.334 67.3947L213.81 73.194L213.819 73.1916C213.927 73.4852 214.13 73.7296 214.392 73.8823C214.653 74.0351 214.958 74.0866 215.252 74.028C215.546 73.9694 215.811 73.8043 216.001 73.5613C216.192 73.3184 216.296 73.0129 216.295 72.6979C216.295 72.6296 216.285 72.5644 216.276 72.4989L216.295 72.4931Z" fill="#C8B2D8"/>
<path d="M53.1369 62.5252C54.8053 62.5252 56.1577 61.1011 56.1577 59.3445C56.1577 57.5879 54.8053 56.1638 53.1369 56.1638C51.4686 56.1638 50.1162 57.5879 50.1162 59.3445C50.1162 61.1011 51.4686 62.5252 53.1369 62.5252Z" fill="#FBFBFB"/>
<path d="M61.574 72.4931L59.5589 64.5747C59.5578 64.5685 59.5556 64.5627 59.5541 64.5565L59.5188 64.4172L59.5136 64.4188C59.3298 63.8152 58.799 63.3754 58.1646 63.3754C58.1598 63.3754 58.155 63.3769 58.1502 63.3769V63.3494H48.6662V63.3754C48.0319 63.3754 47.501 63.8152 47.3172 64.4188L47.312 64.4172L47.2767 64.5561C47.2752 64.5627 47.273 64.5685 47.2719 64.5751L45.2568 72.4931L45.276 72.4985C45.2668 72.564 45.2568 72.6292 45.2568 72.6975C45.2559 73.0125 45.3597 73.318 45.5502 73.5609C45.7407 73.8039 46.0059 73.969 46.2999 74.0276C46.5939 74.0862 46.8981 74.0347 47.1598 73.882C47.4215 73.7292 47.6242 73.4848 47.7327 73.1913L47.7416 73.1936L49.2199 67.3853V67.4075H49.2313C49.2718 67.2162 49.4262 67.0704 49.6196 67.0704C49.8134 67.0704 49.9677 67.2166 50.0082 67.4075H50.0204V67.4699C50.0211 67.4796 50.0256 67.4877 50.0256 67.4974C50.0256 67.5071 50.0208 67.5153 50.0204 67.525V67.5843L47.6539 76.8851C47.615 76.9685 47.5919 77.0592 47.5861 77.152L47.581 77.1718L47.5839 77.1725C47.5835 77.183 47.581 77.1931 47.581 77.204C47.581 77.2992 47.5988 77.3936 47.6334 77.4816C47.6681 77.5697 47.7189 77.6496 47.7829 77.717C47.8469 77.7844 47.9229 77.8378 48.0065 77.8742C48.0901 77.9106 48.1797 77.9294 48.2702 77.9293H50.0204V84.0769C50.0204 84.4917 50.1769 84.8895 50.4554 85.1828C50.734 85.4761 51.1118 85.6409 51.5057 85.6409C51.8996 85.6409 52.2774 85.4761 52.556 85.1828C52.8345 84.8895 52.991 84.4917 52.991 84.0769V77.9293H53.8357V84.0769C53.8419 84.4875 54.0011 84.8791 54.279 85.1672C54.5569 85.4552 54.9313 85.6167 55.3212 85.6167C55.7112 85.6167 56.0856 85.4552 56.3635 85.1672C56.6414 84.8791 56.8006 84.4875 56.8067 84.0769V77.9293H58.5621C58.6526 77.9294 58.7422 77.9106 58.8258 77.8742C58.9094 77.8378 58.9854 77.7844 59.0494 77.717C59.1134 77.6496 59.1642 77.5697 59.1989 77.4816C59.2335 77.3936 59.2513 77.2992 59.2513 77.204C59.2513 77.1931 59.2487 77.183 59.2484 77.1725L59.2513 77.1718L59.2462 77.152C59.24 77.0593 59.217 76.9687 59.1784 76.8851L56.8193 67.613L56.827 67.6107C56.8171 67.5739 56.8053 67.5378 56.8053 67.4978C56.8053 67.262 56.9869 67.0704 57.2112 67.0704C57.402 67.0704 57.5546 67.212 57.598 67.3989L57.6135 67.3947L59.0892 73.194L59.0981 73.1916C59.2066 73.4852 59.4093 73.7296 59.671 73.8823C59.9327 74.0351 60.2369 74.0866 60.5309 74.028C60.8249 73.9694 61.0901 73.8043 61.2806 73.5613C61.4711 73.3184 61.5749 73.0129 61.574 72.6979C61.574 72.6296 61.564 72.5644 61.5548 72.4989L61.574 72.4931Z" fill="#FBFBFB"/>
<path d="M182.071 62.5252C183.739 62.5252 185.092 61.1011 185.092 59.3445C185.092 57.5879 183.739 56.1638 182.071 56.1638C180.402 56.1638 179.05 57.5879 179.05 59.3445C179.05 61.1011 180.402 62.5252 182.071 62.5252Z" fill="#FBFBFB"/>
<path d="M190.508 72.4931L188.493 64.5747C188.492 64.5685 188.489 64.5627 188.488 64.5565L188.453 64.4172L188.447 64.4188C188.264 63.8152 187.733 63.3754 187.098 63.3754C187.094 63.3754 187.089 63.3769 187.084 63.3769V63.3494H177.6V63.3754C176.966 63.3754 176.435 63.8152 176.251 64.4188L176.246 64.4172L176.211 64.5561C176.209 64.5627 176.207 64.5685 176.206 64.5751L174.191 72.4931L174.21 72.4985C174.201 72.564 174.191 72.6292 174.191 72.6975C174.19 73.0125 174.294 73.318 174.484 73.5609C174.675 73.8039 174.94 73.969 175.234 74.0276C175.528 74.0862 175.832 74.0347 176.094 73.882C176.355 73.7292 176.558 73.4848 176.667 73.1913L176.675 73.1936L178.154 67.3853V67.4075H178.165C178.206 67.2162 178.36 67.0704 178.553 67.0704C178.747 67.0704 178.902 67.2166 178.942 67.4075H178.954V67.4699C178.955 67.4796 178.959 67.4877 178.959 67.4974C178.959 67.5071 178.955 67.5153 178.954 67.525V67.5843L176.588 76.8851C176.549 76.9685 176.526 77.0592 176.52 77.152L176.515 77.1718L176.518 77.1725C176.517 77.183 176.515 77.1931 176.515 77.204C176.515 77.2992 176.533 77.3936 176.567 77.4816C176.602 77.5697 176.653 77.6496 176.717 77.717C176.781 77.7844 176.857 77.8378 176.94 77.8742C177.024 77.9106 177.114 77.9294 177.204 77.9293H178.954V84.0769C178.954 84.4917 179.111 84.8895 179.389 85.1828C179.668 85.4761 180.046 85.6409 180.44 85.6409C180.833 85.6409 181.211 85.4761 181.49 85.1828C181.768 84.8895 181.925 84.4917 181.925 84.0769V77.9293H182.77V84.0769C182.776 84.4875 182.935 84.8791 183.213 85.1672C183.491 85.4552 183.865 85.6167 184.255 85.6167C184.645 85.6167 185.019 85.4552 185.297 85.1672C185.575 84.8791 185.734 84.4875 185.741 84.0769V77.9293H187.496C187.586 77.9294 187.676 77.9106 187.76 77.8742C187.843 77.8378 187.919 77.7844 187.983 77.717C188.047 77.6496 188.098 77.5697 188.133 77.4816C188.167 77.3936 188.185 77.2992 188.185 77.204C188.185 77.1931 188.183 77.183 188.182 77.1725L188.185 77.1718L188.18 77.152C188.174 77.0593 188.151 76.9687 188.112 76.8851L185.753 67.613L185.761 67.6107C185.751 67.5739 185.739 67.5378 185.739 67.4978C185.739 67.262 185.921 67.0704 186.145 67.0704C186.336 67.0704 186.488 67.212 186.532 67.3989L186.547 67.3947L188.023 73.194L188.032 73.1916C188.14 73.4852 188.343 73.7296 188.605 73.8823C188.867 74.0351 189.171 74.0866 189.465 74.028C189.759 73.9694 190.024 73.8043 190.214 73.5613C190.405 73.3184 190.509 73.0129 190.508 72.6979C190.508 72.6296 190.498 72.5644 190.489 72.4989L190.508 72.4931Z" fill="#FBFBFB"/>
<path d="M104.71 62.5252C106.379 62.5252 107.731 61.1011 107.731 59.3445C107.731 57.5879 106.379 56.1638 104.71 56.1638C103.042 56.1638 101.69 57.5879 101.69 59.3445C101.69 61.1011 103.042 62.5252 104.71 62.5252Z" fill="#FBFBFB"/>
<path d="M113.147 72.4931L111.132 64.5747C111.131 64.5685 111.129 64.5627 111.128 64.5565L111.092 64.4172L111.087 64.4188C110.903 63.8152 110.372 63.3754 109.738 63.3754C109.733 63.3754 109.729 63.3769 109.724 63.3769V63.3494H100.24V63.3754C99.6054 63.3754 99.0745 63.8152 98.8907 64.4188L98.8855 64.4172L98.8502 64.5561C98.8487 64.5627 98.8465 64.5685 98.8454 64.5751L96.8303 72.4931L96.8495 72.4985C96.8403 72.564 96.8303 72.6292 96.8303 72.6975C96.8294 73.0125 96.9332 73.318 97.1237 73.5609C97.3142 73.8039 97.5794 73.969 97.8734 74.0276C98.1674 74.0862 98.4716 74.0347 98.7333 73.882C98.995 73.7292 99.1977 73.4848 99.3062 73.1913L99.3151 73.1936L100.793 67.3853V67.4075H100.805C100.845 67.2162 101 67.0704 101.193 67.0704C101.387 67.0704 101.541 67.2166 101.582 67.4075H101.594V67.4699C101.595 67.4796 101.599 67.4877 101.599 67.4974C101.599 67.5071 101.594 67.5153 101.594 67.525V67.5843L99.2274 76.8851C99.1884 76.9685 99.1654 77.0592 99.1596 77.152L99.1545 77.1718L99.1574 77.1725C99.157 77.183 99.1545 77.1931 99.1545 77.204C99.1545 77.2992 99.1723 77.3936 99.2069 77.4816C99.2416 77.5697 99.2923 77.6496 99.3564 77.717C99.4204 77.7844 99.4963 77.8378 99.58 77.8742C99.6636 77.9106 99.7532 77.9294 99.8437 77.9293H101.594V84.0769C101.594 84.4917 101.75 84.8895 102.029 85.1828C102.307 85.4761 102.685 85.6409 103.079 85.6409C103.473 85.6409 103.851 85.4761 104.129 85.1828C104.408 84.8895 104.565 84.4917 104.565 84.0769V77.9293H105.409V84.0769C105.415 84.4875 105.575 84.8791 105.852 85.1672C106.13 85.4552 106.505 85.6167 106.895 85.6167C107.285 85.6167 107.659 85.4552 107.937 85.1672C108.215 84.8791 108.374 84.4875 108.38 84.0769V77.9293H110.136C110.226 77.9294 110.316 77.9106 110.399 77.8742C110.483 77.8378 110.559 77.7844 110.623 77.717C110.687 77.6496 110.738 77.5697 110.772 77.4816C110.807 77.3936 110.825 77.2992 110.825 77.204C110.825 77.1931 110.822 77.183 110.822 77.1725L110.825 77.1718L110.82 77.152C110.813 77.0593 110.79 76.9687 110.752 76.8851L108.393 67.613L108.4 67.6107C108.391 67.5739 108.379 67.5378 108.379 67.4978C108.379 67.262 108.56 67.0704 108.785 67.0704C108.976 67.0704 109.128 67.212 109.172 67.3989L109.187 67.3947L110.663 73.194L110.672 73.1916C110.78 73.4852 110.983 73.7296 111.244 73.8823C111.506 74.0351 111.81 74.0866 112.104 74.028C112.398 73.9694 112.664 73.8043 112.854 73.5613C113.045 73.3184 113.148 73.0129 113.147 72.6979C113.147 72.6296 113.138 72.5644 113.128 72.4989L113.147 72.4931Z" fill="#FBFBFB"/>
<path d="M233.644 62.5252C235.313 62.5252 236.665 61.1011 236.665 59.3445C236.665 57.5879 235.313 56.1638 233.644 56.1638C231.976 56.1638 230.624 57.5879 230.624 59.3445C230.624 61.1011 231.976 62.5252 233.644 62.5252Z" fill="#C8B2D8"/>
<path d="M242.081 72.4931L240.066 64.5747C240.065 64.5685 240.063 64.5627 240.061 64.5565L240.026 64.4172L240.021 64.4188C239.837 63.8152 239.306 63.3754 238.672 63.3754C238.667 63.3754 238.662 63.3769 238.658 63.3769V63.3494H229.174V63.3754C228.539 63.3754 228.008 63.8152 227.825 64.4188L227.819 64.4172L227.784 64.5561C227.783 64.5627 227.78 64.5685 227.779 64.5751L225.764 72.4931L225.783 72.4985C225.774 72.564 225.764 72.6292 225.764 72.6975C225.763 73.0125 225.867 73.318 226.058 73.5609C226.248 73.8039 226.513 73.969 226.807 74.0276C227.101 74.0862 227.405 74.0347 227.667 73.882C227.929 73.7292 228.132 73.4848 228.24 73.1913L228.249 73.1936L229.727 67.3853V67.4075H229.739C229.779 67.2162 229.934 67.0704 230.127 67.0704C230.321 67.0704 230.475 67.2166 230.516 67.4075H230.528V67.4699C230.528 67.4796 230.533 67.4877 230.533 67.4974C230.533 67.5071 230.528 67.5153 230.528 67.525V67.5843L228.161 76.8851C228.122 76.9685 228.099 77.0592 228.093 77.152L228.088 77.1718L228.091 77.1725C228.091 77.183 228.088 77.1931 228.088 77.204C228.088 77.2992 228.106 77.3936 228.141 77.4816C228.175 77.5697 228.226 77.6496 228.29 77.717C228.354 77.7844 228.43 77.8378 228.514 77.8742C228.597 77.9106 228.687 77.9294 228.778 77.9293H230.528V84.0769C230.528 84.4917 230.684 84.8895 230.963 85.1828C231.241 85.4761 231.619 85.6409 232.013 85.6409C232.407 85.6409 232.785 85.4761 233.063 85.1828C233.342 84.8895 233.498 84.4917 233.498 84.0769V77.9293H234.343V84.0769C234.349 84.4875 234.508 84.8791 234.786 85.1672C235.064 85.4552 235.439 85.6167 235.829 85.6167C236.219 85.6167 236.593 85.4552 236.871 85.1672C237.149 84.8791 237.308 84.4875 237.314 84.0769V77.9293H239.069C239.16 77.9294 239.25 77.9106 239.333 77.8742C239.417 77.8378 239.493 77.7844 239.557 77.717C239.621 77.6496 239.672 77.5697 239.706 77.4816C239.741 77.3936 239.759 77.2992 239.759 77.204C239.759 77.1931 239.756 77.183 239.756 77.1725L239.759 77.1718L239.753 77.152C239.747 77.0593 239.724 76.9687 239.686 76.8851L237.327 67.613L237.334 67.6107C237.324 67.5739 237.313 67.5378 237.313 67.4978C237.313 67.262 237.494 67.0704 237.719 67.0704C237.909 67.0704 238.062 67.212 238.105 67.3989L238.121 67.3947L239.597 73.194L239.605 73.1916C239.714 73.4852 239.917 73.7296 240.178 73.8823C240.44 74.0351 240.744 74.0866 241.038 74.028C241.332 73.9694 241.597 73.8043 241.788 73.5613C241.978 73.3184 242.082 73.0129 242.081 72.6979C242.081 72.6296 242.071 72.5644 242.062 72.4989L242.081 72.4931Z" fill="#C8B2D8"/>
<path d="M130.497 62.5252C132.166 62.5252 133.518 61.1011 133.518 59.3445C133.518 57.5879 132.166 56.1638 130.497 56.1638C128.829 56.1638 127.477 57.5879 127.477 59.3445C127.477 61.1011 128.829 62.5252 130.497 62.5252Z" fill="#FBFBFB"/>
<path d="M138.934 72.4931L136.919 64.5747C136.918 64.5685 136.916 64.5627 136.914 64.5565L136.879 64.4172L136.874 64.4188C136.69 63.8152 136.159 63.3754 135.525 63.3754C135.52 63.3754 135.515 63.3769 135.511 63.3769V63.3494H126.027V63.3754C125.392 63.3754 124.861 63.8152 124.678 64.4188L124.672 64.4172L124.637 64.5561C124.636 64.5627 124.633 64.5685 124.632 64.5751L122.617 72.4931L122.636 72.4985C122.627 72.564 122.617 72.6292 122.617 72.6975C122.616 73.0125 122.72 73.318 122.911 73.5609C123.101 73.8039 123.366 73.969 123.66 74.0276C123.954 74.0862 124.258 74.0347 124.52 73.882C124.782 73.7292 124.985 73.4848 125.093 73.1913L125.102 73.1936L126.58 67.3853V67.4075H126.592C126.632 67.2162 126.787 67.0704 126.98 67.0704C127.174 67.0704 127.328 67.2166 127.369 67.4075H127.381V67.4699C127.381 67.4796 127.386 67.4877 127.386 67.4974C127.386 67.5071 127.381 67.5153 127.381 67.525V67.5843L125.014 76.8851C124.975 76.9685 124.952 77.0592 124.946 77.152L124.941 77.1718L124.944 77.1725C124.944 77.183 124.941 77.1931 124.941 77.204C124.941 77.2992 124.959 77.3936 124.994 77.4816C125.028 77.5697 125.079 77.6496 125.143 77.717C125.207 77.7844 125.283 77.8378 125.367 77.8742C125.45 77.9106 125.54 77.9294 125.631 77.9293H127.381V84.0769C127.381 84.4917 127.537 84.8895 127.816 85.1828C128.094 85.4761 128.472 85.6409 128.866 85.6409C129.26 85.6409 129.638 85.4761 129.916 85.1828C130.195 84.8895 130.351 84.4917 130.351 84.0769V77.9293H131.196V84.0769C131.202 84.4875 131.361 84.8791 131.639 85.1672C131.917 85.4552 132.292 85.6167 132.682 85.6167C133.072 85.6167 133.446 85.4552 133.724 85.1672C134.002 84.8791 134.161 84.4875 134.167 84.0769V77.9293H135.922C136.013 77.9294 136.103 77.9106 136.186 77.8742C136.27 77.8378 136.346 77.7844 136.41 77.717C136.474 77.6496 136.525 77.5697 136.559 77.4816C136.594 77.3936 136.612 77.2992 136.612 77.204C136.612 77.1931 136.609 77.183 136.609 77.1725L136.612 77.1718L136.607 77.152C136.6 77.0593 136.577 76.9687 136.539 76.8851L134.18 67.613L134.187 67.6107C134.177 67.5739 134.166 67.5378 134.166 67.4978C134.166 67.262 134.347 67.0704 134.572 67.0704C134.762 67.0704 134.915 67.212 134.958 67.3989L134.974 67.3947L136.45 73.194L136.458 73.1916C136.567 73.4852 136.77 73.7296 137.031 73.8823C137.293 74.0351 137.597 74.0866 137.891 74.028C138.185 73.9694 138.45 73.8043 138.641 73.5613C138.831 73.3184 138.935 73.0129 138.934 72.6979C138.934 72.6296 138.924 72.5644 138.915 72.4989L138.934 72.4931Z" fill="#FBFBFB"/>
<path d="M259.431 62.5252C261.099 62.5252 262.452 61.1011 262.452 59.3445C262.452 57.5879 261.099 56.1638 259.431 56.1638C257.763 56.1638 256.41 57.5879 256.41 59.3445C256.41 61.1011 257.763 62.5252 259.431 62.5252Z" fill="#C8B2D8"/>
<path d="M267.868 72.4931L265.853 64.5747C265.852 64.5685 265.85 64.5627 265.848 64.5565L265.813 64.4172L265.808 64.4188C265.624 63.8152 265.093 63.3754 264.459 63.3754C264.454 63.3754 264.449 63.3769 264.444 63.3769V63.3494H254.96V63.3754C254.326 63.3754 253.795 63.8152 253.611 64.4188L253.606 64.4172L253.571 64.5561C253.569 64.5627 253.567 64.5685 253.566 64.5751L251.551 72.4931L251.57 72.4985C251.561 72.564 251.551 72.6292 251.551 72.6975C251.55 73.0125 251.654 73.318 251.844 73.5609C252.035 73.8039 252.3 73.969 252.594 74.0276C252.888 74.0862 253.192 74.0347 253.454 73.882C253.716 73.7292 253.918 73.4848 254.027 73.1913L254.036 73.1936L255.514 67.3853V67.4075H255.526C255.566 67.2162 255.72 67.0704 255.914 67.0704C256.108 67.0704 256.262 67.2166 256.302 67.4075H256.315V67.4699C256.315 67.4796 256.32 67.4877 256.32 67.4974C256.32 67.5071 256.315 67.5153 256.315 67.525V67.5843L253.948 76.8851C253.909 76.9685 253.886 77.0592 253.88 77.152L253.875 77.1718L253.878 77.1725C253.878 77.183 253.875 77.1931 253.875 77.204C253.875 77.2992 253.893 77.3936 253.928 77.4816C253.962 77.5697 254.013 77.6496 254.077 77.717C254.141 77.7844 254.217 77.8378 254.301 77.8742C254.384 77.9106 254.474 77.9294 254.564 77.9293H256.315V84.0769C256.315 84.4917 256.471 84.8895 256.75 85.1828C257.028 85.4761 257.406 85.6409 257.8 85.6409C258.194 85.6409 258.572 85.4761 258.85 85.1828C259.129 84.8895 259.285 84.4917 259.285 84.0769V77.9293H260.13V84.0769C260.136 84.4875 260.295 84.8791 260.573 85.1672C260.851 85.4552 261.225 85.6167 261.615 85.6167C262.005 85.6167 262.38 85.4552 262.658 85.1672C262.936 84.8791 263.095 84.4875 263.101 84.0769V77.9293H264.856C264.947 77.9294 265.036 77.9106 265.12 77.8742C265.204 77.8378 265.28 77.7844 265.344 77.717C265.408 77.6496 265.458 77.5697 265.493 77.4816C265.528 77.3936 265.546 77.2992 265.546 77.204C265.546 77.1931 265.543 77.183 265.543 77.1725L265.546 77.1718L265.54 77.152C265.534 77.0593 265.511 76.9687 265.473 76.8851L263.113 67.613L263.121 67.6107C263.111 67.5739 263.099 67.5378 263.099 67.4978C263.099 67.262 263.281 67.0704 263.505 67.0704C263.696 67.0704 263.849 67.212 263.892 67.3989L263.908 67.3947L265.383 73.194L265.392 73.1916C265.501 73.4852 265.703 73.7296 265.965 73.8823C266.227 74.0351 266.531 74.0866 266.825 74.028C267.119 73.9694 267.384 73.8043 267.575 73.5613C267.765 73.3184 267.869 73.0129 267.868 72.6979C267.868 72.6296 267.858 72.5644 267.849 72.4989L267.868 72.4931Z" fill="#C8B2D8"/>
<path d="M46.65 34.86L46.71 35.65C46.87 35.35 47.0867 35.1167 47.36 34.95C47.64 34.7767 47.96 34.69 48.32 34.69C48.66 34.69 48.9433 34.77 49.17 34.93C49.4033 35.09 49.5467 35.3067 49.6 35.58C49.7667 35.3 49.9833 35.0833 50.25 34.93C50.5233 34.77 50.8133 34.69 51.12 34.69C51.52 34.69 51.8367 34.8067 52.07 35.04C52.31 35.2733 52.4367 35.57 52.45 35.93V39H51.52V36.28C51.5067 36.0667 51.45 35.89 51.35 35.75C51.2567 35.6033 51.0933 35.5233 50.86 35.51C50.6133 35.51 50.3967 35.5833 50.21 35.73C50.0233 35.87 49.8767 36.0567 49.77 36.29C49.6633 36.5233 49.6067 36.77 49.6 37.03V39H48.66V36.28C48.6533 36.0667 48.5967 35.89 48.49 35.75C48.39 35.6033 48.22 35.5233 47.98 35.51C47.74 35.51 47.5267 35.5833 47.34 35.73C47.1533 35.87 47.0067 36.0567 46.9 36.29C46.7933 36.5233 46.74 36.7733 46.74 37.04V39H45.81V34.86H46.65ZM55.382 39.16C55.002 39.16 54.6886 39.0467 54.442 38.82C54.1953 38.5867 54.0686 38.2867 54.062 37.92V34.86H54.992V37.59C55.0053 37.8167 55.072 38 55.192 38.14C55.312 38.28 55.4986 38.3533 55.752 38.36C55.9786 38.36 56.1853 38.2933 56.372 38.16C56.5586 38.02 56.7053 37.8333 56.812 37.6C56.9253 37.36 56.982 37.09 56.982 36.79V34.86H57.912V39H57.072L57.002 38.22C56.8686 38.4933 56.6553 38.72 56.362 38.9C56.0753 39.0733 55.7486 39.16 55.382 39.16ZM59.5307 31.25H60.4607V39H59.5307V31.25ZM62.0795 39V31.25H62.9895V35.61C63.1362 35.3433 63.3529 35.1267 63.6395 34.96C63.9262 34.7867 64.2629 34.7 64.6495 34.7C65.0362 34.7 65.3529 34.8167 65.5995 35.05C65.8529 35.2767 65.9862 35.5733 65.9995 35.94V39H65.0595V36.26C65.0462 36.04 64.9762 35.86 64.8495 35.72C64.7295 35.58 64.5395 35.5067 64.2795 35.5C64.0395 35.5 63.8229 35.57 63.6295 35.71C63.4429 35.8433 63.2929 36.0267 63.1795 36.26C63.0662 36.4933 63.0095 36.76 63.0095 37.06V39H62.0795ZM69.5269 39.1C69.0602 39.1 68.6535 39.0067 68.3069 38.82C67.9669 38.6267 67.7035 38.3633 67.5169 38.03C67.3369 37.6967 67.2469 37.32 67.2469 36.9C67.2469 36.4933 67.3469 36.1233 67.5469 35.79C67.7535 35.45 68.0302 35.1833 68.3769 34.99C68.7302 34.79 69.1202 34.69 69.5469 34.69C70.0935 34.69 70.5469 34.85 70.9069 35.17C71.2669 35.49 71.5135 35.93 71.6469 36.49L68.3669 37.64C68.4802 37.8467 68.6402 38.01 68.8469 38.13C69.0535 38.2433 69.2869 38.3 69.5469 38.3C69.7335 38.3 69.9102 38.2667 70.0769 38.2C70.2435 38.1333 70.4035 38.0467 70.5569 37.94L70.9869 38.63C70.7735 38.77 70.5369 38.8833 70.2769 38.97C70.0235 39.0567 69.7735 39.1 69.5269 39.1ZM68.1669 36.85C68.1602 36.93 68.1635 37.0067 68.1769 37.08L70.5869 36.19C70.4935 35.99 70.3569 35.8133 70.1769 35.66C70.0035 35.5067 69.7702 35.43 69.4769 35.43C69.0969 35.43 68.7835 35.5633 68.5369 35.83C68.2902 36.0967 68.1669 36.4367 68.1669 36.85ZM73.6322 34.86L73.7022 35.83C73.8155 35.5967 73.9722 35.3967 74.1722 35.23C74.3722 35.0567 74.5789 34.9267 74.7922 34.84C75.0122 34.7467 75.2022 34.6967 75.3622 34.69L75.3222 35.62C75.0089 35.6067 74.7322 35.67 74.4922 35.81C74.2522 35.9433 74.0655 36.1267 73.9322 36.36C73.7989 36.5933 73.7322 36.8433 73.7322 37.11V39H72.8022V34.86H73.6322ZM78.3062 39.1C77.8395 39.1 77.4328 39.0067 77.0862 38.82C76.7462 38.6267 76.4828 38.3633 76.2962 38.03C76.1162 37.6967 76.0262 37.32 76.0262 36.9C76.0262 36.4933 76.1262 36.1233 76.3262 35.79C76.5328 35.45 76.8095 35.1833 77.1562 34.99C77.5095 34.79 77.8995 34.69 78.3262 34.69C78.8728 34.69 79.3262 34.85 79.6862 35.17C80.0462 35.49 80.2928 35.93 80.4262 36.49L77.1462 37.64C77.2595 37.8467 77.4195 38.01 77.6262 38.13C77.8328 38.2433 78.0662 38.3 78.3262 38.3C78.5128 38.3 78.6895 38.2667 78.8562 38.2C79.0228 38.1333 79.1828 38.0467 79.3362 37.94L79.7662 38.63C79.5528 38.77 79.3162 38.8833 79.0562 38.97C78.8028 39.0567 78.5528 39.1 78.3062 39.1ZM76.9462 36.85C76.9395 36.93 76.9428 37.0067 76.9562 37.08L79.3662 36.19C79.2728 35.99 79.1362 35.8133 78.9562 35.66C78.7828 35.5067 78.5495 35.43 78.2562 35.43C77.8762 35.43 77.5628 35.5633 77.3162 35.83C77.0695 36.0967 76.9462 36.4367 76.9462 36.85ZM82.7515 39.08C82.4515 39.08 82.1615 39.03 81.8815 38.93C81.6082 38.8233 81.3815 38.6667 81.2015 38.46L81.6015 37.92C81.7682 38.0867 81.9448 38.2133 82.1315 38.3C82.3182 38.38 82.4982 38.42 82.6715 38.42C82.8715 38.42 83.0448 38.38 83.1915 38.3C83.3448 38.22 83.4215 38.0833 83.4215 37.89C83.4215 37.7433 83.3715 37.6267 83.2715 37.54C83.1782 37.4533 83.0548 37.3867 82.9015 37.34C82.7548 37.2867 82.6015 37.2333 82.4415 37.18C81.7348 36.9533 81.3815 36.55 81.3815 35.97C81.3815 35.7567 81.4348 35.5533 81.5415 35.36C81.6548 35.1667 81.8182 35.01 82.0315 34.89C82.2515 34.77 82.5215 34.71 82.8415 34.71C83.1282 34.71 83.3848 34.7467 83.6115 34.82C83.8382 34.8933 84.0515 35.01 84.2515 35.17L83.8815 35.74C83.7615 35.62 83.6182 35.53 83.4515 35.47C83.2915 35.4033 83.1448 35.3667 83.0115 35.36C82.8315 35.36 82.6715 35.4033 82.5315 35.49C82.3982 35.5767 82.3315 35.6967 82.3315 35.85C82.3248 35.99 82.3682 36.1033 82.4615 36.19C82.5548 36.27 82.6748 36.3367 82.8215 36.39C82.9748 36.4433 83.1282 36.4933 83.2815 36.54C83.5815 36.64 83.8348 36.7767 84.0415 36.95C84.2548 37.1233 84.3615 37.3767 84.3615 37.71C84.3615 38.0833 84.2282 38.4067 83.9615 38.68C83.6948 38.9467 83.2915 39.08 82.7515 39.08ZM90.7476 39.1C90.2809 39.1 89.8742 39.0067 89.5276 38.82C89.1876 38.6267 88.9242 38.3633 88.7376 38.03C88.5576 37.6967 88.4676 37.32 88.4676 36.9C88.4676 36.4933 88.5676 36.1233 88.7676 35.79C88.9742 35.45 89.2509 35.1833 89.5976 34.99C89.9509 34.79 90.3409 34.69 90.7676 34.69C91.3142 34.69 91.7676 34.85 92.1276 35.17C92.4876 35.49 92.7342 35.93 92.8676 36.49L89.5876 37.64C89.7009 37.8467 89.8609 38.01 90.0676 38.13C90.2742 38.2433 90.5076 38.3 90.7676 38.3C90.9542 38.3 91.1309 38.2667 91.2976 38.2C91.4642 38.1333 91.6242 38.0467 91.7776 37.94L92.2076 38.63C91.9942 38.77 91.7576 38.8833 91.4976 38.97C91.2442 39.0567 90.9942 39.1 90.7476 39.1ZM89.3876 36.85C89.3809 36.93 89.3842 37.0067 89.3976 37.08L91.8076 36.19C91.7142 35.99 91.5776 35.8133 91.3976 35.66C91.2242 35.5067 90.9909 35.43 90.6976 35.43C90.3176 35.43 90.0042 35.5633 89.7576 35.83C89.5109 36.0967 89.3876 36.4367 89.3876 36.85ZM94.8629 34.86L94.9229 35.65C95.0829 35.35 95.2996 35.1167 95.5729 34.95C95.8529 34.7767 96.1729 34.69 96.5329 34.69C96.8729 34.69 97.1562 34.77 97.3829 34.93C97.6162 35.09 97.7596 35.3067 97.8129 35.58C97.9796 35.3 98.1962 35.0833 98.4629 34.93C98.7362 34.77 99.0262 34.69 99.3329 34.69C99.7329 34.69 100.05 34.8067 100.283 35.04C100.523 35.2733 100.65 35.57 100.663 35.93V39H99.7329V36.28C99.7196 36.0667 99.6629 35.89 99.5629 35.75C99.4696 35.6033 99.3062 35.5233 99.0729 35.51C98.8262 35.51 98.6096 35.5833 98.4229 35.73C98.2362 35.87 98.0896 36.0567 97.9829 36.29C97.8762 36.5233 97.8196 36.77 97.8129 37.03V39H96.8729V36.28C96.8662 36.0667 96.8096 35.89 96.7029 35.75C96.6029 35.6033 96.4329 35.5233 96.1929 35.51C95.9529 35.51 95.7396 35.5833 95.5529 35.73C95.3662 35.87 95.2196 36.0567 95.1129 36.29C95.0062 36.5233 94.9529 36.7733 94.9529 37.04V39H94.0229V34.86H94.8629ZM106.609 39.08C106.309 39.08 106.019 39.03 105.739 38.93C105.466 38.8233 105.239 38.6667 105.059 38.46L105.459 37.92C105.626 38.0867 105.802 38.2133 105.989 38.3C106.176 38.38 106.356 38.42 106.529 38.42C106.729 38.42 106.902 38.38 107.049 38.3C107.202 38.22 107.279 38.0833 107.279 37.89C107.279 37.7433 107.229 37.6267 107.129 37.54C107.036 37.4533 106.912 37.3867 106.759 37.34C106.612 37.2867 106.459 37.2333 106.299 37.18C105.592 36.9533 105.239 36.55 105.239 35.97C105.239 35.7567 105.292 35.5533 105.399 35.36C105.512 35.1667 105.676 35.01 105.889 34.89C106.109 34.77 106.379 34.71 106.699 34.71C106.986 34.71 107.242 34.7467 107.469 34.82C107.696 34.8933 107.909 35.01 108.109 35.17L107.739 35.74C107.619 35.62 107.476 35.53 107.309 35.47C107.149 35.4033 107.002 35.3667 106.869 35.36C106.689 35.36 106.529 35.4033 106.389 35.49C106.256 35.5767 106.189 35.6967 106.189 35.85C106.182 35.99 106.226 36.1033 106.319 36.19C106.412 36.27 106.532 36.3367 106.679 36.39C106.832 36.4433 106.986 36.4933 107.139 36.54C107.439 36.64 107.692 36.7767 107.899 36.95C108.112 37.1233 108.219 37.3767 108.219 37.71C108.219 38.0833 108.086 38.4067 107.819 38.68C107.552 38.9467 107.149 39.08 106.609 39.08ZM109.521 34.86H110.451V39H109.521V34.86ZM109.451 33.37C109.451 33.2167 109.508 33.0933 109.621 33C109.741 32.9 109.871 32.85 110.011 32.85C110.151 32.85 110.278 32.9 110.391 33C110.504 33.0933 110.561 33.2167 110.561 33.37C110.561 33.5233 110.504 33.65 110.391 33.75C110.278 33.8433 110.151 33.89 110.011 33.89C109.871 33.89 109.741 33.8433 109.621 33.75C109.508 33.65 109.451 33.5233 109.451 33.37ZM112.47 33.04H113.41V34.87H114.54V35.61H113.41V39H112.47V35.61H111.71V34.87H112.47V33.04ZM116.993 39.16C116.613 39.16 116.3 39.0467 116.053 38.82C115.807 38.5867 115.68 38.2867 115.673 37.92V34.86H116.603V37.59C116.617 37.8167 116.683 38 116.803 38.14C116.923 38.28 117.11 38.3533 117.363 38.36C117.59 38.36 117.797 38.2933 117.983 38.16C118.17 38.02 118.317 37.8333 118.423 37.6C118.537 37.36 118.593 37.09 118.593 36.79V34.86H119.523V39H118.683L118.613 38.22C118.48 38.4933 118.267 38.72 117.973 38.9C117.687 39.0733 117.36 39.16 116.993 39.16ZM122.872 39.1C122.479 39.1 122.122 39.0167 121.802 38.85C121.489 38.6833 121.239 38.44 121.052 38.12C120.872 37.7933 120.782 37.3967 120.782 36.93C120.782 36.4633 120.875 36.0633 121.062 35.73C121.255 35.3967 121.512 35.14 121.832 34.96C122.159 34.78 122.515 34.69 122.902 34.69C123.275 34.69 123.592 34.77 123.852 34.93C124.112 35.09 124.315 35.2833 124.462 35.51L124.532 34.86H125.392V39H124.462V38.32C124.382 38.4267 124.265 38.54 124.112 38.66C123.965 38.78 123.785 38.8833 123.572 38.97C123.365 39.0567 123.132 39.1 122.872 39.1ZM123.122 38.33C123.462 38.33 123.752 38.2367 123.992 38.05C124.232 37.8567 124.389 37.5967 124.462 37.27V36.45C124.382 36.1633 124.215 35.9267 123.962 35.74C123.709 35.5533 123.419 35.46 123.092 35.46C122.839 35.46 122.609 35.52 122.402 35.64C122.195 35.76 122.029 35.9267 121.902 36.14C121.782 36.3533 121.722 36.6 121.722 36.88C121.722 37.1533 121.785 37.4 121.912 37.62C122.039 37.8333 122.209 38.0067 122.422 38.14C122.635 38.2667 122.869 38.33 123.122 38.33ZM130.371 38.61C130.185 38.7633 129.961 38.8833 129.701 38.97C129.441 39.0567 129.181 39.1 128.921 39.1C128.475 39.1 128.078 39.01 127.731 38.83C127.391 38.65 127.125 38.3967 126.931 38.07C126.745 37.7433 126.651 37.36 126.651 36.92C126.651 36.48 126.751 36.1 126.951 35.78C127.158 35.4533 127.425 35.2 127.751 35.02C128.085 34.84 128.445 34.75 128.831 34.75C129.165 34.75 129.461 34.7967 129.721 34.89C129.981 34.9833 130.208 35.11 130.401 35.27L129.931 35.88C129.811 35.7933 129.665 35.7133 129.491 35.64C129.318 35.56 129.125 35.52 128.911 35.52C128.665 35.52 128.441 35.5833 128.241 35.71C128.041 35.83 127.881 35.9967 127.761 36.21C127.641 36.4167 127.581 36.6533 127.581 36.92C127.581 37.18 127.641 37.4167 127.761 37.63C127.881 37.8433 128.048 38.0133 128.261 38.14C128.475 38.2667 128.721 38.33 129.001 38.33C129.175 38.33 129.335 38.3033 129.481 38.25C129.635 38.1967 129.771 38.1233 129.891 38.03L130.371 38.61ZM127.681 40.51C127.755 40.59 127.848 40.6533 127.961 40.7C128.075 40.7533 128.201 40.78 128.341 40.78C128.515 40.78 128.671 40.74 128.811 40.66C128.958 40.5867 129.031 40.4733 129.031 40.32C129.031 40.2067 128.981 40.1033 128.881 40.01C128.788 39.9167 128.621 39.87 128.381 39.87C128.275 39.87 128.161 39.8833 128.041 39.91C127.921 39.9367 127.818 39.9667 127.731 40L127.561 39.54L128.261 38.9L128.971 38.93L128.531 39.44C128.558 39.44 128.585 39.44 128.611 39.44C128.965 39.4333 129.251 39.5033 129.471 39.65C129.698 39.7967 129.811 40.0167 129.811 40.31C129.811 40.53 129.748 40.7133 129.621 40.86C129.495 41.0067 129.325 41.1133 129.111 41.18C128.905 41.2533 128.681 41.29 128.441 41.29C128.188 41.29 127.975 41.2533 127.801 41.18C127.628 41.1067 127.488 41.0167 127.381 40.91L127.681 40.51ZM133.302 39.1C132.908 39.1 132.552 39.0167 132.232 38.85C131.918 38.6833 131.668 38.44 131.482 38.12C131.302 37.7933 131.212 37.3967 131.212 36.93C131.212 36.4633 131.305 36.0633 131.492 35.73C131.685 35.3967 131.942 35.14 132.262 34.96C132.588 34.78 132.945 34.69 133.332 34.69C133.705 34.69 134.022 34.77 134.282 34.93C134.542 35.09 134.745 35.2833 134.892 35.51L134.962 34.86H135.822V39H134.892V38.32C134.812 38.4267 134.695 38.54 134.542 38.66C134.395 38.78 134.215 38.8833 134.002 38.97C133.795 39.0567 133.562 39.1 133.302 39.1ZM133.552 38.33C133.892 38.33 134.182 38.2367 134.422 38.05C134.662 37.8567 134.818 37.5967 134.892 37.27V36.45C134.812 36.1633 134.645 35.9267 134.392 35.74C134.138 35.5533 133.848 35.46 133.522 35.46C133.268 35.46 133.038 35.52 132.832 35.64C132.625 35.76 132.458 35.9267 132.332 36.14C132.212 36.3533 132.152 36.6 132.152 36.88C132.152 37.1533 132.215 37.4 132.342 37.62C132.468 37.8333 132.638 38.0067 132.852 38.14C133.065 38.2667 133.298 38.33 133.552 38.33ZM134.602 34.28C134.382 34.28 134.202 34.2333 134.062 34.14C133.928 34.04 133.805 33.9367 133.692 33.83C133.612 33.7567 133.528 33.69 133.442 33.63C133.362 33.5633 133.275 33.53 133.182 33.53C133.048 33.53 132.945 33.6 132.872 33.74C132.798 33.8733 132.765 34.0567 132.772 34.29L132.262 34.28C132.242 33.8933 132.318 33.57 132.492 33.31C132.672 33.0433 132.915 32.91 133.222 32.91C133.395 32.91 133.545 32.9567 133.672 33.05C133.798 33.1433 133.918 33.2433 134.032 33.35C134.118 33.4367 134.205 33.5167 134.292 33.59C134.378 33.6567 134.472 33.69 134.572 33.69C134.705 33.69 134.798 33.62 134.852 33.48C134.912 33.3333 134.942 33.14 134.942 32.9L135.442 32.91C135.488 33.33 135.425 33.6633 135.252 33.91C135.078 34.1567 134.862 34.28 134.602 34.28ZM137.081 36.89C137.081 36.4767 137.178 36.1033 137.371 35.77C137.571 35.4367 137.844 35.1733 138.191 34.98C138.538 34.7867 138.934 34.69 139.381 34.69C139.828 34.69 140.221 34.7867 140.561 34.98C140.901 35.1733 141.164 35.4367 141.351 35.77C141.544 36.1033 141.641 36.4767 141.641 36.89C141.641 37.3033 141.544 37.6767 141.351 38.01C141.164 38.3433 140.898 38.61 140.551 38.81C140.211 39.0033 139.814 39.1 139.361 39.1C138.921 39.1 138.528 39.01 138.181 38.83C137.841 38.65 137.571 38.3933 137.371 38.06C137.178 37.7267 137.081 37.3367 137.081 36.89ZM138.021 36.9C138.021 37.1667 138.078 37.41 138.191 37.63C138.311 37.8433 138.471 38.0133 138.671 38.14C138.871 38.2667 139.098 38.33 139.351 38.33C139.611 38.33 139.841 38.2667 140.041 38.14C140.241 38.0133 140.398 37.8433 140.511 37.63C140.631 37.41 140.691 37.1667 140.691 36.9C140.691 36.6333 140.631 36.3933 140.511 36.18C140.398 35.96 140.241 35.7867 140.041 35.66C139.841 35.5267 139.611 35.46 139.351 35.46C139.098 35.46 138.868 35.5267 138.661 35.66C138.461 35.7933 138.304 35.97 138.191 36.19C138.078 36.4033 138.021 36.64 138.021 36.9ZM147.744 39.1C147.351 39.1 146.997 39.01 146.684 38.83C146.377 38.6433 146.134 38.3833 145.954 38.05C145.781 37.71 145.694 37.3167 145.694 36.87C145.694 36.4167 145.787 36.0267 145.974 35.7C146.161 35.3733 146.417 35.1233 146.744 34.95C147.077 34.7767 147.447 34.69 147.854 34.69C148.167 34.69 148.467 34.7567 148.754 34.89C149.041 35.0167 149.271 35.1933 149.444 35.42V31.25H150.374V39H149.434V38.36C149.234 38.58 148.987 38.76 148.694 38.9C148.407 39.0333 148.091 39.1 147.744 39.1ZM148.034 38.3C148.394 38.3 148.697 38.2033 148.944 38.01C149.191 37.8167 149.351 37.5567 149.424 37.23V36.45C149.351 36.1567 149.184 35.9133 148.924 35.72C148.671 35.5267 148.374 35.43 148.034 35.43C147.781 35.43 147.547 35.4933 147.334 35.62C147.121 35.74 146.951 35.9067 146.824 36.12C146.697 36.3333 146.634 36.58 146.634 36.86C146.634 37.1267 146.697 37.37 146.824 37.59C146.951 37.81 147.121 37.9833 147.334 38.11C147.547 38.2367 147.781 38.3 148.034 38.3ZM153.902 39.1C153.435 39.1 153.029 39.0067 152.682 38.82C152.342 38.6267 152.079 38.3633 151.892 38.03C151.712 37.6967 151.622 37.32 151.622 36.9C151.622 36.4933 151.722 36.1233 151.922 35.79C152.129 35.45 152.405 35.1833 152.752 34.99C153.105 34.79 153.495 34.69 153.922 34.69C154.469 34.69 154.922 34.85 155.282 35.17C155.642 35.49 155.889 35.93 156.022 36.49L152.742 37.64C152.855 37.8467 153.015 38.01 153.222 38.13C153.429 38.2433 153.662 38.3 153.922 38.3C154.109 38.3 154.285 38.2667 154.452 38.2C154.619 38.1333 154.779 38.0467 154.932 37.94L155.362 38.63C155.149 38.77 154.912 38.8833 154.652 38.97C154.399 39.0567 154.149 39.1 153.902 39.1ZM152.542 36.85C152.535 36.93 152.539 37.0067 152.552 37.08L154.962 36.19C154.869 35.99 154.732 35.8133 154.552 35.66C154.379 35.5067 154.145 35.43 153.852 35.43C153.472 35.43 153.159 35.5633 152.912 35.83C152.665 36.0967 152.542 36.4367 152.542 36.85ZM162.261 39.1C161.795 39.1 161.388 39.0067 161.041 38.82C160.701 38.6267 160.438 38.3633 160.251 38.03C160.071 37.6967 159.981 37.32 159.981 36.9C159.981 36.4933 160.081 36.1233 160.281 35.79C160.488 35.45 160.765 35.1833 161.111 34.99C161.465 34.79 161.855 34.69 162.281 34.69C162.828 34.69 163.281 34.85 163.641 35.17C164.001 35.49 164.248 35.93 164.381 36.49L161.101 37.64C161.215 37.8467 161.375 38.01 161.581 38.13C161.788 38.2433 162.021 38.3 162.281 38.3C162.468 38.3 162.645 38.2667 162.811 38.2C162.978 38.1333 163.138 38.0467 163.291 37.94L163.721 38.63C163.508 38.77 163.271 38.8833 163.011 38.97C162.758 39.0567 162.508 39.1 162.261 39.1ZM160.901 36.85C160.895 36.93 160.898 37.0067 160.911 37.08L163.321 36.19C163.228 35.99 163.091 35.8133 162.911 35.66C162.738 35.5067 162.505 35.43 162.211 35.43C161.831 35.43 161.518 35.5633 161.271 35.83C161.025 36.0967 160.901 36.4367 160.901 36.85ZM169.089 39H167.959L166.839 37.53L165.809 39H164.859L166.379 36.92L164.809 34.86H165.969L167.049 36.3L167.989 34.86H168.929L167.479 36.87L169.089 39ZM170.487 33.04H171.427V34.87H172.557V35.61H171.427V39H170.487V35.61H169.727V34.87H170.487V33.04ZM174.521 34.86L174.591 35.83C174.704 35.5967 174.861 35.3967 175.061 35.23C175.261 35.0567 175.468 34.9267 175.681 34.84C175.901 34.7467 176.091 34.6967 176.251 34.69L176.211 35.62C175.898 35.6067 175.621 35.67 175.381 35.81C175.141 35.9433 174.954 36.1267 174.821 36.36C174.688 36.5933 174.621 36.8433 174.621 37.11V39H173.691V34.86H174.521ZM179.195 39.1C178.728 39.1 178.322 39.0067 177.975 38.82C177.635 38.6267 177.372 38.3633 177.185 38.03C177.005 37.6967 176.915 37.32 176.915 36.9C176.915 36.4933 177.015 36.1233 177.215 35.79C177.422 35.45 177.698 35.1833 178.045 34.99C178.398 34.79 178.788 34.69 179.215 34.69C179.762 34.69 180.215 34.85 180.575 35.17C180.935 35.49 181.182 35.93 181.315 36.49L178.035 37.64C178.148 37.8467 178.308 38.01 178.515 38.13C178.722 38.2433 178.955 38.3 179.215 38.3C179.402 38.3 179.578 38.2667 179.745 38.2C179.912 38.1333 180.072 38.0467 180.225 37.94L180.655 38.63C180.442 38.77 180.205 38.8833 179.945 38.97C179.692 39.0567 179.442 39.1 179.195 39.1ZM177.835 36.85C177.828 36.93 177.832 37.0067 177.845 37.08L180.255 36.19C180.162 35.99 180.025 35.8133 179.845 35.66C179.672 35.5067 179.438 35.43 179.145 35.43C178.765 35.43 178.452 35.5633 178.205 35.83C177.958 36.0967 177.835 36.4367 177.835 36.85ZM183.31 34.86L183.37 35.65C183.53 35.35 183.747 35.1167 184.02 34.95C184.3 34.7767 184.62 34.69 184.98 34.69C185.32 34.69 185.603 34.77 185.83 34.93C186.063 35.09 186.207 35.3067 186.26 35.58C186.427 35.3 186.643 35.0833 186.91 34.93C187.183 34.77 187.473 34.69 187.78 34.69C188.18 34.69 188.497 34.8067 188.73 35.04C188.97 35.2733 189.097 35.57 189.11 35.93V39H188.18V36.28C188.167 36.0667 188.11 35.89 188.01 35.75C187.917 35.6033 187.753 35.5233 187.52 35.51C187.273 35.51 187.057 35.5833 186.87 35.73C186.683 35.87 186.537 36.0567 186.43 36.29C186.323 36.5233 186.267 36.77 186.26 37.03V39H185.32V36.28C185.313 36.0667 185.257 35.89 185.15 35.75C185.05 35.6033 184.88 35.5233 184.64 35.51C184.4 35.51 184.187 35.5833 184 35.73C183.813 35.87 183.667 36.0567 183.56 36.29C183.453 36.5233 183.4 36.7733 183.4 37.04V39H182.47V34.86H183.31ZM192.452 39.1C192.059 39.1 191.702 39.0167 191.382 38.85C191.069 38.6833 190.819 38.44 190.632 38.12C190.452 37.7933 190.362 37.3967 190.362 36.93C190.362 36.4633 190.455 36.0633 190.642 35.73C190.835 35.3967 191.092 35.14 191.412 34.96C191.739 34.78 192.095 34.69 192.482 34.69C192.855 34.69 193.172 34.77 193.432 34.93C193.692 35.09 193.895 35.2833 194.042 35.51L194.112 34.86H194.972V39H194.042V38.32C193.962 38.4267 193.845 38.54 193.692 38.66C193.545 38.78 193.365 38.8833 193.152 38.97C192.945 39.0567 192.712 39.1 192.452 39.1ZM192.702 38.33C193.042 38.33 193.332 38.2367 193.572 38.05C193.812 37.8567 193.969 37.5967 194.042 37.27V36.45C193.962 36.1633 193.795 35.9267 193.542 35.74C193.289 35.5533 192.999 35.46 192.672 35.46C192.419 35.46 192.189 35.52 191.982 35.64C191.775 35.76 191.609 35.9267 191.482 36.14C191.362 36.3533 191.302 36.6 191.302 36.88C191.302 37.1533 191.365 37.4 191.492 37.62C191.619 37.8333 191.789 38.0067 192.002 38.14C192.215 38.2667 192.449 38.33 192.702 38.33ZM202.205 39.1C201.905 39.1 201.615 39.0367 201.335 38.91C201.062 38.7767 200.845 38.6 200.685 38.38V40.99H199.755V34.79H200.565L200.645 35.49C200.845 35.2567 201.092 35.0667 201.385 34.92C201.685 34.7667 202.015 34.69 202.375 34.69C202.769 34.69 203.119 34.7833 203.425 34.97C203.739 35.1567 203.985 35.4167 204.165 35.75C204.345 36.0833 204.435 36.4733 204.435 36.92C204.435 37.3667 204.335 37.7533 204.135 38.08C203.942 38.4067 203.675 38.66 203.335 38.84C203.002 39.0133 202.625 39.1 202.205 39.1ZM202.025 38.35C202.285 38.35 202.525 38.29 202.745 38.17C202.972 38.0433 203.152 37.8733 203.285 37.66C203.419 37.4467 203.485 37.2033 203.485 36.93C203.485 36.65 203.422 36.4033 203.295 36.19C203.169 35.97 202.999 35.8 202.785 35.68C202.579 35.5533 202.345 35.49 202.085 35.49C201.725 35.49 201.422 35.59 201.175 35.79C200.929 35.99 200.765 36.25 200.685 36.57V37.27C200.739 37.5833 200.889 37.8433 201.135 38.05C201.389 38.25 201.685 38.35 202.025 38.35ZM205.323 36.89C205.323 36.4767 205.42 36.1033 205.613 35.77C205.813 35.4367 206.086 35.1733 206.433 34.98C206.78 34.7867 207.176 34.69 207.623 34.69C208.07 34.69 208.463 34.7867 208.803 34.98C209.143 35.1733 209.406 35.4367 209.593 35.77C209.786 36.1033 209.883 36.4767 209.883 36.89C209.883 37.3033 209.786 37.6767 209.593 38.01C209.406 38.3433 209.14 38.61 208.793 38.81C208.453 39.0033 208.056 39.1 207.603 39.1C207.163 39.1 206.77 39.01 206.423 38.83C206.083 38.65 205.813 38.3933 205.613 38.06C205.42 37.7267 205.323 37.3367 205.323 36.89ZM206.263 36.9C206.263 37.1667 206.32 37.41 206.433 37.63C206.553 37.8433 206.713 38.0133 206.913 38.14C207.113 38.2667 207.34 38.33 207.593 38.33C207.853 38.33 208.083 38.2667 208.283 38.14C208.483 38.0133 208.64 37.8433 208.753 37.63C208.873 37.41 208.933 37.1667 208.933 36.9C208.933 36.6333 208.873 36.3933 208.753 36.18C208.64 35.96 208.483 35.7867 208.283 35.66C208.083 35.5267 207.853 35.46 207.593 35.46C207.34 35.46 207.11 35.5267 206.903 35.66C206.703 35.7933 206.546 35.97 206.433 36.19C206.32 36.4033 206.263 36.64 206.263 36.9ZM213.662 39.1C213.309 39.1 212.996 39.0333 212.722 38.9C212.456 38.76 212.236 38.5833 212.062 38.37V39H211.132V31.25H212.062V35.42C212.229 35.2 212.462 35.0233 212.762 34.89C213.062 34.7567 213.402 34.69 213.782 34.69C214.149 34.69 214.486 34.78 214.792 34.96C215.099 35.1333 215.346 35.3833 215.532 35.71C215.719 36.0367 215.812 36.42 215.812 36.86C215.812 37.3333 215.712 37.7367 215.512 38.07C215.312 38.4033 215.049 38.66 214.722 38.84C214.396 39.0133 214.042 39.1 213.662 39.1ZM213.462 38.3C213.869 38.3 214.202 38.1667 214.462 37.9C214.729 37.6267 214.862 37.28 214.862 36.86C214.862 36.5933 214.799 36.3533 214.672 36.14C214.552 35.92 214.386 35.7467 214.172 35.62C213.966 35.4933 213.729 35.43 213.462 35.43C213.116 35.43 212.816 35.5233 212.562 35.71C212.309 35.8967 212.142 36.1367 212.062 36.43V37.28C212.142 37.5733 212.306 37.8167 212.552 38.01C212.799 38.2033 213.102 38.3 213.462 38.3ZM217.89 34.86L217.96 35.83C218.073 35.5967 218.23 35.3967 218.43 35.23C218.63 35.0567 218.837 34.9267 219.05 34.84C219.27 34.7467 219.46 34.6967 219.62 34.69L219.58 35.62C219.267 35.6067 218.99 35.67 218.75 35.81C218.51 35.9433 218.323 36.1267 218.19 36.36C218.057 36.5933 217.99 36.8433 217.99 37.11V39H217.06V34.86H217.89ZM222.564 39.1C222.097 39.1 221.691 39.0067 221.344 38.82C221.004 38.6267 220.741 38.3633 220.554 38.03C220.374 37.6967 220.284 37.32 220.284 36.9C220.284 36.4933 220.384 36.1233 220.584 35.79C220.791 35.45 221.067 35.1833 221.414 34.99C221.767 34.79 222.157 34.69 222.584 34.69C223.131 34.69 223.584 34.85 223.944 35.17C224.304 35.49 224.551 35.93 224.684 36.49L221.404 37.64C221.517 37.8467 221.677 38.01 221.884 38.13C222.091 38.2433 222.324 38.3 222.584 38.3C222.771 38.3 222.947 38.2667 223.114 38.2C223.281 38.1333 223.441 38.0467 223.594 37.94L224.024 38.63C223.811 38.77 223.574 38.8833 223.314 38.97C223.061 39.0567 222.811 39.1 222.564 39.1ZM221.204 36.85C221.197 36.93 221.201 37.0067 221.214 37.08L223.624 36.19C223.531 35.99 223.394 35.8133 223.214 35.66C223.041 35.5067 222.807 35.43 222.514 35.43C222.134 35.43 221.821 35.5633 221.574 35.83C221.327 36.0967 221.204 36.4367 221.204 36.85ZM226.229 35.62C226.016 35.62 225.836 35.5567 225.689 35.43C225.549 35.3033 225.479 35.1133 225.479 34.86V34.46H226.189V34.59C226.189 34.7033 226.216 34.7767 226.269 34.81C226.323 34.8433 226.409 34.86 226.529 34.86H229.179L226.829 38.23H229.139V39H225.309L227.659 35.62H226.229ZM232.198 39.1C231.805 39.1 231.448 39.0167 231.128 38.85C230.815 38.6833 230.565 38.44 230.378 38.12C230.198 37.7933 230.108 37.3967 230.108 36.93C230.108 36.4633 230.202 36.0633 230.388 35.73C230.582 35.3967 230.838 35.14 231.158 34.96C231.485 34.78 231.842 34.69 232.228 34.69C232.602 34.69 232.918 34.77 233.178 34.93C233.438 35.09 233.642 35.2833 233.788 35.51L233.858 34.86H234.718V39H233.788V38.32C233.708 38.4267 233.592 38.54 233.438 38.66C233.292 38.78 233.112 38.8833 232.898 38.97C232.692 39.0567 232.458 39.1 232.198 39.1ZM232.448 38.33C232.788 38.33 233.078 38.2367 233.318 38.05C233.558 37.8567 233.715 37.5967 233.788 37.27V36.45C233.708 36.1633 233.542 35.9267 233.288 35.74C233.035 35.5533 232.745 35.46 232.418 35.46C232.165 35.46 231.935 35.52 231.728 35.64C231.522 35.76 231.355 35.9267 231.228 36.14C231.108 36.3533 231.048 36.6 231.048 36.88C231.048 37.1533 231.112 37.4 231.238 37.62C231.365 37.8333 231.535 38.0067 231.748 38.14C231.962 38.2667 232.195 38.33 232.448 38.33ZM237.187 38.12C237.034 38.4733 236.884 38.8233 236.737 39.17C236.597 39.5167 236.457 39.8633 236.317 40.21H235.547C235.681 39.8633 235.811 39.5167 235.937 39.17C236.071 38.8233 236.204 38.4733 236.337 38.12H237.187Z" fill="#FBFBFB"/>
<path d="M109.631 20.1632C109.631 19.6524 109.724 19.2202 109.911 18.8665C110.097 18.5129 110.323 18.2231 110.588 17.9971C110.864 17.7614 111.114 17.5747 111.34 17.4372C111.124 17.2112 110.937 16.9804 110.78 16.7446C110.633 16.499 110.559 16.1552 110.559 15.7131C110.559 15.2711 110.682 14.8781 110.927 14.5343C111.183 14.1905 111.522 13.9253 111.944 13.7386C112.367 13.5421 112.833 13.4439 113.344 13.4439C113.855 13.4439 114.321 13.5421 114.744 13.7386C115.176 13.9253 115.52 14.1807 115.775 14.5049C116.041 14.829 116.173 15.1974 116.173 15.61C116.173 16.1012 116.09 16.4696 115.923 16.7151C115.765 16.9607 115.569 17.2014 115.333 17.4372C115.569 17.5845 115.815 17.7761 116.07 18.0119C116.335 18.2476 116.561 18.5423 116.748 18.896C116.934 19.2398 117.028 19.6622 117.028 20.1632C117.028 20.733 116.866 21.2684 116.542 21.7694C116.217 22.2704 115.775 22.678 115.215 22.9924C114.665 23.2969 114.032 23.4492 113.315 23.4492C112.597 23.4492 111.959 23.2969 111.399 22.9924C110.849 22.678 110.417 22.2704 110.102 21.7694C109.788 21.2684 109.631 20.733 109.631 20.1632ZM112.637 15.9784C112.637 16.1749 112.715 16.3468 112.872 16.4941C113.039 16.6415 113.211 16.7151 113.388 16.7151C113.565 16.7151 113.732 16.6415 113.889 16.4941C114.046 16.3468 114.125 16.1749 114.125 15.9784C114.125 15.7819 114.046 15.61 113.889 15.4626C113.742 15.3055 113.575 15.2269 113.388 15.2269C113.202 15.2269 113.03 15.3055 112.872 15.4626C112.715 15.61 112.637 15.7819 112.637 15.9784ZM111.826 20.0748C111.826 20.507 111.974 20.8803 112.268 21.1947C112.563 21.4992 112.917 21.6515 113.329 21.6515C113.614 21.6515 113.874 21.5827 114.11 21.4452C114.346 21.2978 114.533 21.1063 114.67 20.8705C114.818 20.6249 114.891 20.3597 114.891 20.0748C114.891 19.6524 114.749 19.2889 114.464 18.9844C114.179 18.67 113.83 18.5079 113.418 18.4981C113.143 18.4883 112.882 18.5521 112.637 18.6897C112.401 18.8272 112.204 19.0188 112.047 19.2644C111.9 19.5001 111.826 19.7703 111.826 20.0748ZM117.473 22.2704C117.473 21.9658 117.581 21.7104 117.797 21.5041C118.023 21.2978 118.269 21.1947 118.534 21.1947C118.78 21.1947 119.011 21.2978 119.227 21.5041C119.453 21.7104 119.566 21.9658 119.566 22.2704C119.566 22.5945 119.453 22.8549 119.227 23.0513C119.011 23.238 118.78 23.3313 118.534 23.3313C118.269 23.3313 118.023 23.238 117.797 23.0513C117.581 22.8549 117.473 22.5945 117.473 22.2704ZM124.412 23.346C123.665 23.346 122.977 23.1692 122.349 22.8156C121.73 22.4619 121.234 21.9167 120.86 21.1799C120.487 20.4432 120.301 19.5149 120.301 18.395C120.301 17.1376 120.477 16.1503 120.831 15.4332C121.194 14.7062 121.686 14.1905 122.305 13.886C122.923 13.5814 123.626 13.4341 124.412 13.4439C125.168 13.4341 125.856 13.6109 126.475 13.9744C127.094 14.328 127.59 14.8732 127.963 15.61C128.336 16.3369 128.523 17.2653 128.523 18.395C128.523 19.564 128.331 20.5169 127.948 21.2536C127.575 21.9806 127.079 22.511 126.46 22.845C125.841 23.179 125.158 23.346 124.412 23.346ZM124.397 21.2978C124.888 21.2978 125.271 21.1701 125.546 20.9147C125.821 20.6495 126.013 20.2909 126.121 19.839C126.239 19.3872 126.298 18.8861 126.298 18.336C126.298 17.7957 126.239 17.3144 126.121 16.892C126.013 16.4696 125.821 16.1356 125.546 15.89C125.271 15.6346 124.888 15.5069 124.397 15.5069C123.916 15.5069 123.537 15.6346 123.262 15.89C122.987 16.1454 122.796 16.4892 122.688 16.9214C122.58 17.3537 122.526 17.8399 122.526 18.3802C122.526 18.9205 122.58 19.4117 122.688 19.8538C122.796 20.2958 122.987 20.6495 123.262 20.9147C123.537 21.1701 123.916 21.2978 124.397 21.2978ZM133.664 23.346C132.918 23.346 132.23 23.1692 131.601 22.8156C130.983 22.4619 130.487 21.9167 130.113 21.1799C129.74 20.4432 129.553 19.5149 129.553 18.395C129.553 17.1376 129.73 16.1503 130.084 15.4332C130.447 14.7062 130.938 14.1905 131.557 13.886C132.176 13.5814 132.879 13.4341 133.664 13.4439C134.421 13.4341 135.108 13.6109 135.727 13.9744C136.346 14.328 136.842 14.8732 137.216 15.61C137.589 16.3369 137.776 17.2653 137.776 18.395C137.776 19.564 137.584 20.5169 137.201 21.2536C136.828 21.9806 136.332 22.511 135.713 22.845C135.094 23.179 134.411 23.346 133.664 23.346ZM133.65 21.2978C134.141 21.2978 134.524 21.1701 134.799 20.9147C135.074 20.6495 135.266 20.2909 135.374 19.839C135.492 19.3872 135.551 18.8861 135.551 18.336C135.551 17.7957 135.492 17.3144 135.374 16.892C135.266 16.4696 135.074 16.1356 134.799 15.89C134.524 15.6346 134.141 15.5069 133.65 15.5069C133.168 15.5069 132.79 15.6346 132.515 15.89C132.24 16.1454 132.048 16.4892 131.94 16.9214C131.832 17.3537 131.778 17.8399 131.778 18.3802C131.778 18.9205 131.832 19.4117 131.94 19.8538C132.048 20.2958 132.24 20.6495 132.515 20.9147C132.79 21.1701 133.168 21.2978 133.65 21.2978ZM142.917 23.346C142.171 23.346 141.483 23.1692 140.854 22.8156C140.235 22.4619 139.739 21.9167 139.366 21.1799C138.993 20.4432 138.806 19.5149 138.806 18.395C138.806 17.1376 138.983 16.1503 139.336 15.4332C139.7 14.7062 140.191 14.1905 140.81 13.886C141.429 13.5814 142.131 13.4341 142.917 13.4439C143.674 13.4341 144.361 13.6109 144.98 13.9744C145.599 14.328 146.095 14.8732 146.468 15.61C146.842 16.3369 147.028 17.2653 147.028 18.395C147.028 19.564 146.837 20.5169 146.454 21.2536C146.08 21.9806 145.584 22.511 144.965 22.845C144.346 23.179 143.664 23.346 142.917 23.346ZM142.902 21.2978C143.394 21.2978 143.777 21.1701 144.052 20.9147C144.327 20.6495 144.518 20.2909 144.626 19.839C144.744 19.3872 144.803 18.8861 144.803 18.336C144.803 17.7957 144.744 17.3144 144.626 16.892C144.518 16.4696 144.327 16.1356 144.052 15.89C143.777 15.6346 143.394 15.5069 142.902 15.5069C142.421 15.5069 142.043 15.6346 141.768 15.89C141.493 16.1454 141.301 16.4892 141.193 16.9214C141.085 17.3537 141.031 17.8399 141.031 18.3802C141.031 18.9205 141.085 19.4117 141.193 19.8538C141.301 20.2958 141.493 20.6495 141.768 20.9147C142.043 21.1701 142.421 21.2978 142.902 21.2978ZM147.764 22.2704C147.764 21.9658 147.872 21.7104 148.088 21.5041C148.314 21.2978 148.56 21.1947 148.825 21.1947C149.071 21.1947 149.301 21.2978 149.518 21.5041C149.743 21.7104 149.856 21.9658 149.856 22.2704C149.856 22.5945 149.743 22.8549 149.518 23.0513C149.301 23.238 149.071 23.3313 148.825 23.3313C148.56 23.3313 148.314 23.238 148.088 23.0513C147.872 22.8549 147.764 22.5945 147.764 22.2704ZM154.703 23.346C153.956 23.346 153.268 23.1692 152.64 22.8156C152.021 22.4619 151.525 21.9167 151.151 21.1799C150.778 20.4432 150.591 19.5149 150.591 18.395C150.591 17.1376 150.768 16.1503 151.122 15.4332C151.485 14.7062 151.976 14.1905 152.595 13.886C153.214 13.5814 153.917 13.4341 154.703 13.4439C155.459 13.4341 156.147 13.6109 156.765 13.9744C157.384 14.328 157.88 14.8732 158.254 15.61C158.627 16.3369 158.814 17.2653 158.814 18.395C158.814 19.564 158.622 20.5169 158.239 21.2536C157.866 21.9806 157.37 22.511 156.751 22.845C156.132 23.179 155.449 23.346 154.703 23.346ZM154.688 21.2978C155.179 21.2978 155.562 21.1701 155.837 20.9147C156.112 20.6495 156.304 20.2909 156.412 19.839C156.53 19.3872 156.589 18.8861 156.589 18.336C156.589 17.7957 156.53 17.3144 156.412 16.892C156.304 16.4696 156.112 16.1356 155.837 15.89C155.562 15.6346 155.179 15.5069 154.688 15.5069C154.206 15.5069 153.828 15.6346 153.553 15.89C153.278 16.1454 153.087 16.4892 152.978 16.9214C152.87 17.3537 152.816 17.8399 152.816 18.3802C152.816 18.9205 152.87 19.4117 152.978 19.8538C153.087 20.2958 153.278 20.6495 153.553 20.9147C153.828 21.1701 154.206 21.2978 154.688 21.2978ZM163.955 23.346C163.209 23.346 162.521 23.1692 161.892 22.8156C161.273 22.4619 160.777 21.9167 160.404 21.1799C160.031 20.4432 159.844 19.5149 159.844 18.395C159.844 17.1376 160.021 16.1503 160.375 15.4332C160.738 14.7062 161.229 14.1905 161.848 13.886C162.467 13.5814 163.169 13.4341 163.955 13.4439C164.712 13.4341 165.399 13.6109 166.018 13.9744C166.637 14.328 167.133 14.8732 167.506 15.61C167.88 16.3369 168.066 17.2653 168.066 18.395C168.066 19.564 167.875 20.5169 167.492 21.2536C167.118 21.9806 166.622 22.511 166.003 22.845C165.385 23.179 164.702 23.346 163.955 23.346ZM163.941 21.2978C164.432 21.2978 164.815 21.1701 165.09 20.9147C165.365 20.6495 165.556 20.2909 165.665 19.839C165.782 19.3872 165.841 18.8861 165.841 18.336C165.841 17.7957 165.782 17.3144 165.665 16.892C165.556 16.4696 165.365 16.1356 165.09 15.89C164.815 15.6346 164.432 15.5069 163.941 15.5069C163.459 15.5069 163.081 15.6346 162.806 15.89C162.531 16.1454 162.339 16.4892 162.231 16.9214C162.123 17.3537 162.069 17.8399 162.069 18.3802C162.069 18.9205 162.123 19.4117 162.231 19.8538C162.339 20.2958 162.531 20.6495 162.806 20.9147C163.081 21.1701 163.459 21.2978 163.941 21.2978ZM173.208 23.346C172.461 23.346 171.774 23.1692 171.145 22.8156C170.526 22.4619 170.03 21.9167 169.657 21.1799C169.283 20.4432 169.097 19.5149 169.097 18.395C169.097 17.1376 169.274 16.1503 169.627 15.4332C169.991 14.7062 170.482 14.1905 171.101 13.886C171.72 13.5814 172.422 13.4341 173.208 13.4439C173.964 13.4341 174.652 13.6109 175.271 13.9744C175.89 14.328 176.386 14.8732 176.759 15.61C177.132 16.3369 177.319 17.2653 177.319 18.395C177.319 19.564 177.128 20.5169 176.744 21.2536C176.371 21.9806 175.875 22.511 175.256 22.845C174.637 23.179 173.955 23.346 173.208 23.346ZM173.193 21.2978C173.684 21.2978 174.068 21.1701 174.343 20.9147C174.618 20.6495 174.809 20.2909 174.917 19.839C175.035 19.3872 175.094 18.8861 175.094 18.336C175.094 17.7957 175.035 17.3144 174.917 16.892C174.809 16.4696 174.618 16.1356 174.343 15.89C174.068 15.6346 173.684 15.5069 173.193 15.5069C172.712 15.5069 172.334 15.6346 172.059 15.89C171.784 16.1454 171.592 16.4892 171.484 16.9214C171.376 17.3537 171.322 17.8399 171.322 18.3802C171.322 18.9205 171.376 19.4117 171.484 19.8538C171.592 20.2958 171.784 20.6495 172.059 20.9147C172.334 21.1701 172.712 21.2978 173.193 21.2978Z" fill="#FFADC7"/>
</svg>
