<svg width="285" height="139" viewBox="0 0 285 139" fill="none" xmlns="http://www.w3.org/2000/svg">
<rect x="1.47353" y="1.47353" width="281.813" height="135.78" rx="4.42059" fill="#9162A4" stroke="#C8B2D8" stroke-width="2.94706"/>
<path d="M20.0141 123.696H22.3865V124.418H20.7619V125.279H22.1699V126.001H20.7619V127.491H20.0141V123.696ZM22.6061 126.336C22.6061 126.106 22.6593 125.9 22.7659 125.717C22.876 125.535 23.029 125.392 23.2249 125.289C23.4209 125.183 23.6461 125.129 23.9005 125.129C24.1584 125.129 24.3819 125.183 24.571 125.289C24.7601 125.392 24.9045 125.535 25.0042 125.717C25.1074 125.9 25.1589 126.106 25.1589 126.336C25.1589 126.567 25.1074 126.775 25.0042 126.96C24.9045 127.142 24.7601 127.287 24.571 127.393C24.3819 127.5 24.155 127.553 23.8902 127.553C23.6427 127.553 23.4209 127.505 23.2249 127.409C23.0324 127.313 22.8811 127.173 22.7711 126.991C22.6611 126.809 22.6061 126.591 22.6061 126.336ZM23.3332 126.341C23.3332 126.52 23.3848 126.67 23.488 126.79C23.5911 126.907 23.7218 126.965 23.8799 126.965C24.0484 126.965 24.1825 126.907 24.2822 126.79C24.3819 126.67 24.4318 126.52 24.4318 126.341C24.4318 126.163 24.3819 126.015 24.2822 125.898C24.1825 125.777 24.0484 125.717 23.8799 125.717C23.7218 125.717 23.5911 125.777 23.488 125.898C23.3848 126.015 23.3332 126.163 23.3332 126.341ZM26.3827 125.238L26.4343 125.599C26.5134 125.458 26.6251 125.344 26.7695 125.258C26.9139 125.172 27.0893 125.129 27.2956 125.129C27.5087 125.129 27.6858 125.193 27.8268 125.32C27.9712 125.444 28.0451 125.606 28.0486 125.805V127.491H27.3265V126.073C27.3231 125.973 27.2956 125.894 27.244 125.836C27.1959 125.774 27.1134 125.743 26.9965 125.743C26.828 125.743 26.6939 125.822 26.5942 125.98C26.4979 126.135 26.4498 126.333 26.4498 126.573V127.491H25.7277V125.238H26.3827ZM29.0014 124.247H29.7234V125.227H30.2701V125.79H29.7234V127.491H29.0014V125.79H28.6507V125.227H29.0014V124.247ZM31.9285 127.553C31.6534 127.553 31.4196 127.502 31.2271 127.399C31.038 127.295 30.8935 127.153 30.7938 126.971C30.6941 126.788 30.6443 126.579 30.6443 126.341C30.6443 126.114 30.7027 125.91 30.8196 125.728C30.9365 125.545 31.093 125.401 31.2889 125.294C31.4849 125.184 31.7033 125.129 31.9439 125.129C32.2671 125.129 32.5319 125.224 32.7382 125.413C32.9479 125.599 33.0837 125.869 33.1456 126.223L31.4952 126.749C31.6053 126.876 31.7548 126.94 31.9439 126.94C32.023 126.94 32.0986 126.926 32.1709 126.898C32.2465 126.871 32.3204 126.835 32.3926 126.79L32.7124 127.326C32.592 127.395 32.4614 127.45 32.3204 127.491C32.1829 127.533 32.0522 127.553 31.9285 127.553ZM31.356 126.3C31.356 126.317 31.356 126.333 31.356 126.347L32.3462 126.011C32.3153 125.925 32.2654 125.851 32.1966 125.79C32.1279 125.724 32.0247 125.692 31.8872 125.692C31.7256 125.692 31.5967 125.747 31.5004 125.857C31.4041 125.967 31.356 126.114 31.356 126.3ZM33.3763 125.65C33.3763 125.544 33.4141 125.454 33.4898 125.382C33.5688 125.31 33.6548 125.274 33.7476 125.274C33.8336 125.274 33.9144 125.31 33.99 125.382C34.0691 125.454 34.1086 125.544 34.1086 125.65C34.1086 125.764 34.0691 125.855 33.99 125.924C33.9144 125.989 33.8336 126.022 33.7476 126.022C33.6548 126.022 33.5688 125.989 33.4898 125.924C33.4141 125.855 33.3763 125.764 33.3763 125.65ZM33.3763 127.12C33.3763 127.014 33.4141 126.924 33.4898 126.852C33.5688 126.78 33.6548 126.744 33.7476 126.744C33.8336 126.744 33.9144 126.78 33.99 126.852C34.0691 126.924 34.1086 127.014 34.1086 127.12C34.1086 127.234 34.0691 127.325 33.99 127.393C33.9144 127.459 33.8336 127.491 33.7476 127.491C33.6548 127.491 33.5688 127.459 33.4898 127.393C33.4141 127.325 33.3763 127.234 33.3763 127.12ZM36.3888 123.763H36.8891V127.491H36.3888V123.763ZM38.9246 123.763C39.2959 123.763 39.5882 123.84 39.8014 123.995C40.018 124.146 40.1263 124.382 40.1263 124.701C40.1263 124.901 40.0816 125.073 39.9922 125.217C39.9028 125.361 39.779 125.475 39.6208 125.557C39.8271 125.637 39.9939 125.752 40.1211 125.903C40.2483 126.054 40.3119 126.235 40.3119 126.445C40.3119 126.692 40.2518 126.893 40.1314 127.048C40.0145 127.203 39.8615 127.316 39.6724 127.388C39.4833 127.457 39.2822 127.491 39.069 127.491H37.9602V123.763H38.9246ZM39.0278 125.392C39.2306 125.392 39.3785 125.336 39.4713 125.222C39.5641 125.105 39.6105 124.966 39.6105 124.804C39.6105 124.608 39.5504 124.466 39.43 124.376C39.3097 124.287 39.1481 124.242 38.9452 124.242H38.4604V125.392H39.0278ZM39.0484 127.027C39.2547 127.027 39.43 126.981 39.5744 126.888C39.7223 126.792 39.7962 126.646 39.7962 126.45C39.7962 126.305 39.7567 126.192 39.6776 126.109C39.5985 126.027 39.4988 125.968 39.3785 125.934C39.2616 125.896 39.1395 125.877 39.0123 125.877H38.4604V127.027H39.0484ZM44.0775 127.172C44.0053 127.23 43.9005 127.287 43.7629 127.342C43.6254 127.397 43.4776 127.443 43.3194 127.481C43.1612 127.516 43.0117 127.533 42.8707 127.533C42.4753 127.533 42.1315 127.454 41.8392 127.295C41.547 127.134 41.3201 126.916 41.1585 126.64C41.0003 126.362 40.9212 126.047 40.9212 125.697C40.9212 125.384 40.9711 125.105 41.0708 124.861C41.1739 124.617 41.3132 124.411 41.4885 124.242C41.6673 124.07 41.8719 123.941 42.1023 123.856C42.3326 123.766 42.5767 123.721 42.8346 123.721C43.0512 123.721 43.2524 123.747 43.438 123.799C43.6237 123.85 43.787 123.916 43.928 123.995L43.7629 124.454C43.6907 124.413 43.6031 124.375 43.4999 124.34C43.4002 124.306 43.2971 124.278 43.1905 124.258C43.0839 124.237 42.9859 124.227 42.8965 124.227C42.6042 124.227 42.3481 124.285 42.1281 124.402C41.908 124.519 41.7378 124.684 41.6175 124.897C41.4971 125.11 41.437 125.363 41.437 125.655C41.437 125.927 41.4971 126.168 41.6175 126.377C41.7378 126.584 41.9063 126.745 42.1229 126.862C42.3395 126.976 42.5922 127.032 42.881 127.032C43.0048 127.032 43.1286 127.02 43.2524 126.996C43.3761 126.972 43.481 126.934 43.567 126.883V126.151H42.8295V125.666H44.0775V127.172ZM45.0314 123.763H47.4554V124.242H45.5317V125.377H47.2491V125.857H45.5317V127.007H47.5276V127.491H45.0314V123.763ZM48.0398 127.218C48.0398 127.139 48.0673 127.074 48.1223 127.022C48.1808 126.967 48.2444 126.94 48.3131 126.94C48.375 126.94 48.4352 126.967 48.4936 127.022C48.5521 127.074 48.5813 127.139 48.5813 127.218C48.5813 127.301 48.5521 127.368 48.4936 127.419C48.4352 127.467 48.375 127.491 48.3131 127.491C48.2444 127.491 48.1808 127.467 48.1223 127.419C48.0673 127.368 48.0398 127.301 48.0398 127.218Z" fill="#FBFBFB"/>
<path d="M56.2711 111.331C56.0058 111.331 55.7494 111.287 55.5019 111.199C55.2602 111.105 55.0598 110.966 54.9007 110.783L55.2543 110.306C55.4017 110.453 55.5579 110.565 55.7229 110.642C55.8879 110.713 56.0471 110.748 56.2003 110.748C56.3772 110.748 56.5304 110.713 56.6601 110.642C56.7956 110.571 56.8634 110.45 56.8634 110.279C56.8634 110.15 56.8192 110.047 56.7308 109.97C56.6483 109.893 56.5392 109.834 56.4037 109.793C56.274 109.746 56.1384 109.699 55.997 109.652C55.3722 109.451 55.0598 109.095 55.0598 108.582C55.0598 108.393 55.107 108.213 55.2013 108.043C55.3015 107.872 55.4459 107.733 55.6345 107.627C55.829 107.521 56.0677 107.468 56.3506 107.468C56.6041 107.468 56.831 107.5 57.0314 107.565C57.2318 107.63 57.4204 107.733 57.5972 107.875L57.2701 108.379C57.164 108.272 57.0373 108.193 56.8899 108.14C56.7485 108.081 56.6188 108.048 56.5009 108.043C56.3418 108.043 56.2003 108.081 56.0766 108.157C55.9587 108.234 55.8997 108.34 55.8997 108.476C55.8938 108.6 55.9321 108.7 56.0147 108.776C56.0972 108.847 56.2033 108.906 56.3329 108.953C56.4685 109 56.6041 109.045 56.7396 109.086C57.0049 109.174 57.2289 109.295 57.4116 109.448C57.6002 109.602 57.6945 109.826 57.6945 110.12C57.6945 110.45 57.5766 110.736 57.3408 110.978C57.1051 111.214 56.7485 111.331 56.2711 111.331ZM60.3752 111.349C60.0274 111.349 59.7121 111.275 59.4292 111.128C59.1521 110.981 58.9311 110.766 58.7661 110.483C58.6069 110.194 58.5274 109.843 58.5274 109.431C58.5274 109.018 58.6099 108.664 58.7749 108.37C58.9458 108.075 59.1728 107.848 59.4557 107.689C59.7445 107.53 60.0598 107.45 60.4017 107.45C60.7318 107.45 61.0117 107.521 61.2416 107.662C61.4715 107.804 61.6512 107.975 61.7809 108.175L61.8428 107.6H62.6031V111.261H61.7809V110.66C61.7102 110.754 61.607 110.854 61.4715 110.96C61.3418 111.066 61.1827 111.158 60.994 111.234C60.8113 111.311 60.605 111.349 60.3752 111.349ZM60.5962 110.668C60.8968 110.668 61.1532 110.586 61.3654 110.421C61.5776 110.25 61.7161 110.02 61.7809 109.731V109.006C61.7102 108.753 61.5628 108.544 61.3389 108.379C61.1149 108.213 60.8585 108.131 60.5697 108.131C60.3457 108.131 60.1423 108.184 59.9596 108.29C59.7769 108.396 59.6296 108.544 59.5176 108.732C59.4115 108.921 59.3584 109.139 59.3584 109.386C59.3584 109.628 59.4144 109.846 59.5264 110.041C59.6384 110.229 59.7887 110.383 59.9773 110.5C60.1659 110.612 60.3722 110.668 60.5962 110.668ZM61.5245 107.088C61.33 107.088 61.1709 107.046 61.0471 106.964C60.9292 106.876 60.8202 106.784 60.72 106.69C60.6492 106.625 60.5756 106.566 60.4989 106.513C60.4282 106.454 60.3516 106.425 60.2691 106.425C60.1512 106.425 60.0598 106.487 59.995 106.61C59.9302 106.728 59.9007 106.89 59.9066 107.097L59.4557 107.088C59.438 106.746 59.5058 106.46 59.659 106.23C59.8182 105.994 60.0333 105.876 60.3044 105.876C60.4577 105.876 60.5903 105.918 60.7023 106C60.8143 106.083 60.9204 106.171 61.0206 106.265C61.0972 106.342 61.1738 106.413 61.2504 106.478C61.3271 106.537 61.4096 106.566 61.498 106.566C61.6159 106.566 61.6984 106.504 61.7455 106.38C61.7986 106.251 61.8251 106.08 61.8251 105.868L62.2672 105.876C62.3084 106.248 62.2524 106.542 62.0992 106.761C61.9459 106.979 61.7544 107.088 61.5245 107.088ZM63.7164 109.395C63.7164 109.03 63.8018 108.7 63.9728 108.405C64.1496 108.11 64.3912 107.878 64.6977 107.707C65.0042 107.536 65.3549 107.45 65.7498 107.45C66.1447 107.45 66.4925 107.536 66.7931 107.707C67.0937 107.878 67.3265 108.11 67.4916 108.405C67.6625 108.7 67.7479 109.03 67.7479 109.395C67.7479 109.761 67.6625 110.091 67.4916 110.385C67.3265 110.68 67.0908 110.916 66.7843 111.093C66.4837 111.264 66.133 111.349 65.7322 111.349C65.3431 111.349 64.9954 111.27 64.6889 111.11C64.3883 110.951 64.1496 110.724 63.9728 110.43C63.8018 110.135 63.7164 109.79 63.7164 109.395ZM64.5474 109.404C64.5474 109.64 64.5975 109.855 64.6977 110.05C64.8038 110.238 64.9453 110.388 65.1221 110.5C65.2989 110.612 65.4993 110.668 65.7233 110.668C65.9532 110.668 66.1565 110.612 66.3334 110.5C66.5102 110.388 66.6487 110.238 66.7489 110.05C66.855 109.855 66.908 109.64 66.908 109.404C66.908 109.168 66.855 108.956 66.7489 108.768C66.6487 108.573 66.5102 108.42 66.3334 108.308C66.1565 108.19 65.9532 108.131 65.7233 108.131C65.4993 108.131 65.296 108.19 65.1133 108.308C64.9365 108.426 64.7979 108.582 64.6977 108.776C64.5975 108.965 64.5474 109.174 64.5474 109.404ZM72.3925 107.6L72.4455 108.299C72.587 108.034 72.7785 107.827 73.0202 107.68C73.2677 107.527 73.5507 107.45 73.8689 107.45C74.1695 107.45 74.42 107.521 74.6204 107.662C74.8267 107.804 74.9535 107.995 75.0006 108.237C75.148 107.99 75.3395 107.798 75.5753 107.662C75.817 107.521 76.0733 107.45 76.3445 107.45C76.6981 107.45 76.9781 107.553 77.1844 107.76C77.3966 107.966 77.5086 108.228 77.5204 108.546V111.261H76.6981V108.856C76.6863 108.667 76.6362 108.511 76.5478 108.387C76.4653 108.258 76.3209 108.187 76.1146 108.175C75.8965 108.175 75.705 108.24 75.5399 108.37C75.3749 108.493 75.2452 108.658 75.1509 108.865C75.0566 109.071 75.0065 109.289 75.0006 109.519V111.261H74.1695V108.856C74.1637 108.667 74.1136 108.511 74.0192 108.387C73.9308 108.258 73.7805 108.187 73.5683 108.175C73.3562 108.175 73.1675 108.24 73.0025 108.37C72.8375 108.493 72.7078 108.658 72.6135 108.865C72.5192 109.071 72.472 109.292 72.472 109.528V111.261H71.6498V107.6H72.3925ZM80.1125 111.402C79.7766 111.402 79.4996 111.302 79.2815 111.102C79.0634 110.895 78.9514 110.63 78.9455 110.306V107.6H79.7677V110.014C79.7795 110.215 79.8385 110.377 79.9446 110.5C80.0507 110.624 80.2157 110.689 80.4397 110.695C80.6401 110.695 80.8228 110.636 80.9878 110.518C81.1529 110.394 81.2825 110.229 81.3768 110.023C81.477 109.811 81.5271 109.572 81.5271 109.307V107.6H82.3494V111.261H81.6067L81.5448 110.571C81.4269 110.813 81.2383 111.013 80.979 111.172C80.7255 111.326 80.4367 111.402 80.1125 111.402ZM83.7805 104.409H84.6028V111.261H83.7805V104.409ZM86.034 111.261V104.409H86.8385V108.264C86.9682 108.028 87.1598 107.836 87.4132 107.689C87.6667 107.536 87.9643 107.459 88.3062 107.459C88.648 107.459 88.928 107.562 89.1461 107.768C89.3701 107.969 89.4879 108.231 89.4997 108.555V111.261H88.6687V108.838C88.6569 108.644 88.595 108.485 88.483 108.361C88.3769 108.237 88.2089 108.172 87.9791 108.166C87.7669 108.166 87.5753 108.228 87.4044 108.352C87.2393 108.47 87.1067 108.632 87.0065 108.838C86.9063 109.045 86.8562 109.28 86.8562 109.546V111.261H86.034ZM92.6183 111.349C92.2057 111.349 91.8462 111.267 91.5397 111.102C91.2391 110.931 91.0063 110.698 90.8413 110.403C90.6821 110.108 90.6025 109.775 90.6025 109.404C90.6025 109.045 90.691 108.717 90.8678 108.423C91.0505 108.122 91.2951 107.886 91.6016 107.715C91.914 107.539 92.2588 107.45 92.636 107.45C93.1193 107.45 93.5201 107.592 93.8384 107.875C94.1567 108.157 94.3748 108.546 94.4927 109.042L91.5928 110.058C91.693 110.241 91.8344 110.385 92.0171 110.492C92.1998 110.592 92.4061 110.642 92.636 110.642C92.801 110.642 92.9572 110.612 93.1046 110.553C93.2519 110.495 93.3934 110.418 93.529 110.324L93.9091 110.934C93.7205 111.057 93.5113 111.158 93.2814 111.234C93.0574 111.311 92.8364 111.349 92.6183 111.349ZM91.4159 109.36C91.41 109.431 91.413 109.498 91.4248 109.563L93.5555 108.776C93.473 108.6 93.3521 108.443 93.193 108.308C93.0398 108.172 92.8335 108.104 92.5741 108.104C92.2382 108.104 91.9611 108.222 91.7431 108.458C91.525 108.694 91.4159 108.994 91.4159 109.36ZM96.2479 107.6L96.3098 108.458C96.41 108.252 96.5485 108.075 96.7253 107.928C96.9022 107.774 97.0849 107.659 97.2735 107.583C97.468 107.5 97.636 107.456 97.7774 107.45L97.7421 108.272C97.465 108.261 97.2204 108.317 97.0082 108.44C96.7961 108.558 96.631 108.72 96.5131 108.927C96.3953 109.133 96.3363 109.354 96.3363 109.59V111.261H95.5141V107.6H96.2479ZM100.38 111.349C99.9677 111.349 99.6081 111.267 99.3016 111.102C99.001 110.931 98.7682 110.698 98.6032 110.403C98.444 110.108 98.3645 109.775 98.3645 109.404C98.3645 109.045 98.4529 108.717 98.6297 108.423C98.8124 108.122 99.057 107.886 99.3635 107.715C99.6759 107.539 100.021 107.45 100.398 107.45C100.881 107.45 101.282 107.592 101.6 107.875C101.919 108.157 102.137 108.546 102.255 109.042L99.3547 110.058C99.4549 110.241 99.5963 110.385 99.7791 110.492C99.9618 110.592 100.168 110.642 100.398 110.642C100.563 110.642 100.719 110.612 100.867 110.553C101.014 110.495 101.155 110.418 101.291 110.324L101.671 110.934C101.482 111.057 101.273 111.158 101.043 111.234C100.819 111.311 100.598 111.349 100.38 111.349ZM99.1779 109.36C99.172 109.431 99.1749 109.498 99.1867 109.563L101.317 108.776C101.235 108.6 101.114 108.443 100.955 108.308C100.802 108.172 100.595 108.104 100.336 108.104C100 108.104 99.7231 108.222 99.505 108.458C99.2869 108.694 99.1779 108.994 99.1779 109.36ZM104.31 111.331C104.045 111.331 103.789 111.287 103.541 111.199C103.3 111.105 103.099 110.966 102.94 110.783L103.294 110.306C103.441 110.453 103.597 110.565 103.762 110.642C103.927 110.713 104.086 110.748 104.24 110.748C104.417 110.748 104.57 110.713 104.699 110.642C104.835 110.571 104.903 110.45 104.903 110.279C104.903 110.15 104.859 110.047 104.77 109.97C104.688 109.893 104.579 109.834 104.443 109.793C104.313 109.746 104.178 109.699 104.036 109.652C103.412 109.451 103.099 109.095 103.099 108.582C103.099 108.393 103.146 108.213 103.241 108.043C103.341 107.872 103.485 107.733 103.674 107.627C103.868 107.521 104.107 107.468 104.39 107.468C104.643 107.468 104.87 107.5 105.071 107.565C105.271 107.63 105.46 107.733 105.637 107.875L105.309 108.379C105.203 108.272 105.077 108.193 104.929 108.14C104.788 108.081 104.658 108.048 104.54 108.043C104.381 108.043 104.24 108.081 104.116 108.157C103.998 108.234 103.939 108.34 103.939 108.476C103.933 108.6 103.972 108.7 104.054 108.776C104.137 108.847 104.243 108.906 104.372 108.953C104.508 109 104.643 109.045 104.779 109.086C105.044 109.174 105.268 109.295 105.451 109.448C105.64 109.602 105.734 109.826 105.734 110.12C105.734 110.45 105.616 110.736 105.38 110.978C105.144 111.214 104.788 111.331 104.31 111.331ZM110.425 107.6L110.478 108.308C110.602 108.048 110.793 107.842 111.053 107.689C111.312 107.536 111.613 107.459 111.955 107.459C112.296 107.459 112.576 107.562 112.795 107.768C113.018 107.969 113.136 108.231 113.148 108.555V111.261H112.317V108.838C112.305 108.644 112.243 108.485 112.131 108.361C112.025 108.237 111.857 108.172 111.627 108.166C111.309 108.166 111.041 108.296 110.823 108.555C110.611 108.809 110.505 109.139 110.505 109.546V111.261H109.682V107.6H110.425ZM116.267 111.349C115.854 111.349 115.495 111.267 115.188 111.102C114.888 110.931 114.655 110.698 114.49 110.403C114.331 110.108 114.251 109.775 114.251 109.404C114.251 109.045 114.339 108.717 114.516 108.423C114.699 108.122 114.944 107.886 115.25 107.715C115.562 107.539 115.907 107.45 116.284 107.45C116.768 107.45 117.169 107.592 117.487 107.875C117.805 108.157 118.023 108.546 118.141 109.042L115.241 110.058C115.341 110.241 115.483 110.385 115.666 110.492C115.848 110.592 116.055 110.642 116.284 110.642C116.449 110.642 116.606 110.612 116.753 110.553C116.9 110.495 117.042 110.418 117.177 110.324L117.558 110.934C117.369 111.057 117.16 111.158 116.93 111.234C116.706 111.311 116.485 111.349 116.267 111.349ZM115.064 109.36C115.058 109.431 115.061 109.498 115.073 109.563L117.204 108.776C117.121 108.6 117.001 108.443 116.841 108.308C116.688 108.172 116.482 108.104 116.223 108.104C115.887 108.104 115.61 108.222 115.391 108.458C115.173 108.694 115.064 108.994 115.064 109.36ZM120.931 113.073C120.524 113.073 120.185 113.002 119.914 112.861C119.643 112.725 119.392 112.552 119.163 112.339L119.649 111.774C119.837 111.962 120.032 112.104 120.232 112.198C120.433 112.298 120.66 112.348 120.913 112.348C121.326 112.348 121.641 112.248 121.859 112.048C122.077 111.853 122.189 111.594 122.195 111.27V110.598C122.071 110.816 121.88 110.996 121.62 111.137C121.361 111.278 121.055 111.349 120.701 111.349C120.359 111.349 120.047 111.264 119.764 111.093C119.487 110.922 119.263 110.692 119.092 110.403C118.927 110.108 118.844 109.778 118.844 109.413C118.844 109.03 118.933 108.691 119.109 108.396C119.286 108.101 119.519 107.872 119.808 107.707C120.097 107.536 120.412 107.45 120.754 107.45C121.072 107.45 121.361 107.512 121.62 107.636C121.88 107.76 122.074 107.919 122.204 108.113L122.275 107.6H123.026V111.287C123.026 111.617 122.941 111.918 122.77 112.189C122.599 112.46 122.357 112.675 122.045 112.834C121.732 112.994 121.361 113.073 120.931 113.073ZM119.675 109.386C119.675 109.628 119.731 109.846 119.843 110.041C119.955 110.229 120.106 110.383 120.294 110.5C120.489 110.612 120.704 110.668 120.94 110.668C121.258 110.668 121.529 110.583 121.753 110.412C121.983 110.235 122.13 110.011 122.195 109.74V109.015C122.118 108.756 121.965 108.544 121.735 108.379C121.505 108.213 121.24 108.131 120.94 108.131C120.698 108.131 120.48 108.184 120.285 108.29C120.097 108.396 119.946 108.544 119.834 108.732C119.728 108.921 119.675 109.139 119.675 109.386ZM125.189 107.6L125.251 108.458C125.351 108.252 125.49 108.075 125.666 107.928C125.843 107.774 126.026 107.659 126.215 107.583C126.409 107.5 126.577 107.456 126.718 107.45L126.683 108.272C126.406 108.261 126.161 108.317 125.949 108.44C125.737 108.558 125.572 108.72 125.454 108.927C125.336 109.133 125.277 109.354 125.277 109.59V111.261H124.455V107.6H125.189ZM129.222 111.349C128.875 111.349 128.559 111.275 128.276 111.128C127.999 110.981 127.778 110.766 127.613 110.483C127.454 110.194 127.375 109.843 127.375 109.431C127.375 109.018 127.457 108.664 127.622 108.37C127.793 108.075 128.02 107.848 128.303 107.689C128.592 107.53 128.907 107.45 129.249 107.45C129.579 107.45 129.859 107.521 130.089 107.662C130.319 107.804 130.498 107.975 130.628 108.175L130.69 107.6H131.45V111.261H130.628V110.66C130.557 110.754 130.454 110.854 130.319 110.96C130.189 111.066 130.03 111.158 129.841 111.234C129.659 111.311 129.452 111.349 129.222 111.349ZM129.443 110.668C129.744 110.668 130 110.586 130.213 110.421C130.425 110.25 130.563 110.02 130.628 109.731V109.006C130.557 108.753 130.41 108.544 130.186 108.379C129.962 108.213 129.706 108.131 129.417 108.131C129.193 108.131 128.99 108.184 128.807 108.29C128.624 108.396 128.477 108.544 128.365 108.732C128.259 108.921 128.206 109.139 128.206 109.386C128.206 109.628 128.262 109.846 128.374 110.041C128.486 110.229 128.636 110.383 128.825 110.5C129.013 110.612 129.219 110.668 129.443 110.668ZM133.916 111.331C133.651 111.331 133.395 111.287 133.147 111.199C132.905 111.105 132.705 110.966 132.546 110.783L132.9 110.306C133.047 110.453 133.203 110.565 133.368 110.642C133.533 110.713 133.692 110.748 133.846 110.748C134.022 110.748 134.176 110.713 134.305 110.642C134.441 110.571 134.509 110.45 134.509 110.279C134.509 110.15 134.464 110.047 134.376 109.97C134.294 109.893 134.184 109.834 134.049 109.793C133.919 109.746 133.784 109.699 133.642 109.652C133.017 109.451 132.705 109.095 132.705 108.582C132.705 108.393 132.752 108.213 132.847 108.043C132.947 107.872 133.091 107.733 133.28 107.627C133.474 107.521 133.713 107.468 133.996 107.468C134.249 107.468 134.476 107.5 134.677 107.565C134.877 107.63 135.066 107.733 135.242 107.875L134.915 108.379C134.809 108.272 134.683 108.193 134.535 108.14C134.394 108.081 134.264 108.048 134.146 108.043C133.987 108.043 133.846 108.081 133.722 108.157C133.604 108.234 133.545 108.34 133.545 108.476C133.539 108.6 133.577 108.7 133.66 108.776C133.742 108.847 133.849 108.906 133.978 108.953C134.114 109 134.249 109.045 134.385 109.086C134.65 109.174 134.874 109.295 135.057 109.448C135.245 109.602 135.34 109.826 135.34 110.12C135.34 110.45 135.222 110.736 134.986 110.978C134.75 111.214 134.394 111.331 133.916 111.331ZM136.075 110.792C136.075 110.657 136.123 110.545 136.217 110.456C136.317 110.362 136.426 110.315 136.544 110.315C136.65 110.315 136.753 110.362 136.853 110.456C136.954 110.545 137.004 110.657 137.004 110.792C137.004 110.934 136.954 111.049 136.853 111.137C136.753 111.219 136.65 111.261 136.544 111.261C136.426 111.261 136.317 111.219 136.217 111.137C136.123 111.049 136.075 110.934 136.075 110.792Z" fill="#FBFBFB"/>
<path d="M27.0834 100.837L23.4438 110.606H21.0567L23.989 102.9H20.482V100.837H27.0834ZM31.9303 110.621C31.1837 110.621 30.496 110.444 29.8673 110.09C29.2485 109.737 28.7524 109.191 28.3791 108.455C28.0058 107.718 27.8191 106.79 27.8191 105.67C27.8191 104.412 27.996 103.425 28.3496 102.708C28.7131 101.981 29.2043 101.465 29.8231 101.161C30.442 100.856 31.1444 100.709 31.9303 100.719C32.6867 100.709 33.3743 100.886 33.9932 101.249C34.6121 101.603 35.1082 102.148 35.4815 102.885C35.8548 103.612 36.0414 104.54 36.0414 105.67C36.0414 106.839 35.8499 107.792 35.4668 108.528C35.0935 109.255 34.5974 109.786 33.9785 110.12C33.3596 110.454 32.6769 110.621 31.9303 110.621ZM31.9155 108.573C32.4067 108.573 32.7898 108.445 33.0649 108.189C33.34 107.924 33.5315 107.566 33.6396 107.114C33.7575 106.662 33.8164 106.161 33.8164 105.611C33.8164 105.071 33.7575 104.589 33.6396 104.167C33.5315 103.744 33.34 103.41 33.0649 103.165C32.7898 102.909 32.4067 102.782 31.9155 102.782C31.4342 102.782 31.056 102.909 30.7809 103.165C30.5059 103.42 30.3143 103.764 30.2063 104.196C30.0982 104.628 30.0442 105.115 30.0442 105.655C30.0442 106.195 30.0982 106.686 30.2063 107.129C30.3143 107.571 30.5059 107.924 30.7809 108.189C31.056 108.445 31.4342 108.573 31.9155 108.573ZM39.4442 106.274C38.904 106.274 38.457 106.151 38.1033 105.906C37.7497 105.66 37.4894 105.326 37.3224 104.904C37.1554 104.481 37.0719 104.005 37.0719 103.474C37.0719 102.944 37.1554 102.472 37.3224 102.06C37.4894 101.637 37.7497 101.303 38.1033 101.058C38.457 100.812 38.904 100.689 39.4442 100.689C39.9845 100.689 40.4266 100.812 40.7704 101.058C41.1241 101.303 41.3844 101.637 41.5514 102.06C41.7282 102.472 41.8166 102.944 41.8166 103.474C41.8166 104.005 41.7282 104.481 41.5514 104.904C41.3844 105.326 41.1241 105.66 40.7704 105.906C40.4266 106.151 39.9845 106.274 39.4442 106.274ZM47.2834 100.689L40.1221 110.636L38.1033 110.606L45.2352 100.689H47.2834ZM38.8696 103.474C38.8696 103.877 38.9089 104.206 38.9875 104.461C39.066 104.707 39.2183 104.83 39.4442 104.83C39.6702 104.83 39.8175 104.707 39.8863 104.461C39.9649 104.206 40.0042 103.877 40.0042 103.474C40.0042 103.012 39.9649 102.678 39.8863 102.472C39.8175 102.256 39.6702 102.148 39.4442 102.148C39.2183 102.148 39.066 102.256 38.9875 102.472C38.9089 102.678 38.8696 103.012 38.8696 103.474ZM45.6036 111.019C45.0633 111.019 44.6163 110.896 44.2627 110.65C43.909 110.405 43.6487 110.071 43.4817 109.648C43.3147 109.226 43.2312 108.749 43.2312 108.219C43.2312 107.688 43.3147 107.217 43.4817 106.804C43.6487 106.382 43.909 106.048 44.2627 105.802C44.6163 105.557 45.0633 105.434 45.6036 105.434C46.1439 105.434 46.586 105.557 46.9298 105.802C47.2834 106.048 47.5438 106.382 47.7108 106.804C47.8876 107.217 47.976 107.688 47.976 108.219C47.976 108.749 47.8876 109.226 47.7108 109.648C47.5438 110.071 47.2834 110.405 46.9298 110.65C46.586 110.896 46.1439 111.019 45.6036 111.019ZM45.0289 108.219C45.0289 108.622 45.0682 108.951 45.1468 109.206C45.2254 109.452 45.3777 109.575 45.6036 109.575C45.8295 109.575 45.9769 109.452 46.0457 109.206C46.1243 108.951 46.1635 108.622 46.1635 108.219C46.1635 107.757 46.1243 107.423 46.0457 107.217C45.9769 107.001 45.8295 106.893 45.6036 106.893C45.3777 106.893 45.2254 107.001 45.1468 107.217C45.0682 107.423 45.0289 107.757 45.0289 108.219Z" fill="#FFADC7"/>
<path d="M27.3501 62.5252C29.0184 62.5252 30.3708 61.1011 30.3708 59.3445C30.3708 57.5879 29.0184 56.1638 27.3501 56.1638C25.6818 56.1638 24.3293 57.5879 24.3293 59.3445C24.3293 61.1011 25.6818 62.5252 27.3501 62.5252Z" fill="#FBFBFB"/>
<path d="M35.7871 72.4931L33.7721 64.5747C33.771 64.5685 33.7687 64.5627 33.7673 64.5565L33.7319 64.4172L33.7267 64.4188C33.5429 63.8152 33.0121 63.3754 32.3777 63.3754C32.3729 63.3754 32.3682 63.3769 32.3634 63.3769V63.3494H22.8794V63.3754C22.245 63.3754 21.7142 63.8152 21.5303 64.4188L21.5252 64.4172L21.4898 64.5561C21.4883 64.5627 21.4861 64.5685 21.485 64.5751L19.47 72.4931L19.4891 72.4985C19.4799 72.564 19.47 72.6292 19.47 72.6975C19.469 73.0125 19.5728 73.318 19.7633 73.5609C19.9538 73.8039 20.2191 73.969 20.5131 74.0276C20.8071 74.0862 21.1113 74.0347 21.373 73.882C21.6346 73.7292 21.8373 73.4848 21.9459 73.1913L21.9547 73.1936L23.433 67.3853V67.4075H23.4445C23.485 67.2162 23.6393 67.0704 23.8327 67.0704C24.0265 67.0704 24.1809 67.2166 24.2214 67.4075H24.2335V67.4699C24.2343 67.4796 24.2387 67.4877 24.2387 67.4974C24.2387 67.5071 24.2339 67.5153 24.2335 67.525V67.5843L21.867 76.8851C21.8281 76.9685 21.8051 77.0592 21.7993 77.152L21.7941 77.1718L21.797 77.1725C21.7967 77.183 21.7941 77.1931 21.7941 77.204C21.7941 77.2992 21.8119 77.3936 21.8466 77.4816C21.8812 77.5697 21.932 77.6496 21.996 77.717C22.06 77.7844 22.136 77.8378 22.2196 77.8742C22.3032 77.9106 22.3929 77.9294 22.4833 77.9293H24.2335V84.0769C24.2335 84.4917 24.39 84.8895 24.6686 85.1828C24.9471 85.4761 25.3249 85.6409 25.7189 85.6409C26.1128 85.6409 26.4906 85.4761 26.7691 85.1828C27.0477 84.8895 27.2042 84.4917 27.2042 84.0769V77.9293H28.0489V84.0769C28.055 84.4875 28.2142 84.8791 28.4921 85.1672C28.7701 85.4552 29.1444 85.6167 29.5344 85.6167C29.9243 85.6167 30.2987 85.4552 30.5766 85.1672C30.8545 84.8791 31.0137 84.4875 31.0199 84.0769V77.9293H32.7752C32.8657 77.9294 32.9553 77.9106 33.039 77.8742C33.1226 77.8378 33.1986 77.7844 33.2626 77.717C33.3266 77.6496 33.3773 77.5697 33.412 77.4816C33.4466 77.3936 33.4645 77.2992 33.4645 77.204C33.4645 77.1931 33.4619 77.183 33.4615 77.1725L33.4645 77.1718L33.4593 77.152C33.4531 77.0593 33.4301 76.9687 33.3915 76.8851L31.0324 67.613L31.0401 67.6107C31.0302 67.5739 31.0184 67.5378 31.0184 67.4978C31.0184 67.262 31.2 67.0704 31.4244 67.0704C31.6152 67.0704 31.7677 67.212 31.8112 67.3989L31.8266 67.3947L33.3024 73.194L33.3112 73.1916C33.4198 73.4852 33.6224 73.7296 33.8841 73.8823C34.1458 74.0351 34.45 74.0866 34.744 74.028C35.038 73.9694 35.3032 73.8043 35.4938 73.5613C35.6843 73.3184 35.7881 73.0129 35.7871 72.6979C35.7871 72.6296 35.7772 72.5644 35.768 72.4989L35.7871 72.4931Z" fill="#FBFBFB"/>
<path d="M156.284 62.5252C157.952 62.5252 159.305 61.1011 159.305 59.3445C159.305 57.5879 157.952 56.1638 156.284 56.1638C154.616 56.1638 153.263 57.5879 153.263 59.3445C153.263 61.1011 154.616 62.5252 156.284 62.5252Z" fill="#FBFBFB"/>
<path d="M164.721 72.4931L162.706 64.5747C162.705 64.5685 162.703 64.5627 162.701 64.5565L162.666 64.4172L162.661 64.4188C162.477 63.8152 161.946 63.3754 161.312 63.3754C161.307 63.3754 161.302 63.3769 161.297 63.3769V63.3494H151.813V63.3754C151.179 63.3754 150.648 63.8152 150.464 64.4188L150.459 64.4172L150.424 64.5561C150.422 64.5627 150.42 64.5685 150.419 64.5751L148.404 72.4931L148.423 72.4985C148.414 72.564 148.404 72.6292 148.404 72.6975C148.403 73.0125 148.507 73.318 148.697 73.5609C148.888 73.8039 149.153 73.969 149.447 74.0276C149.741 74.0862 150.045 74.0347 150.307 73.882C150.569 73.7292 150.771 73.4848 150.88 73.1913L150.889 73.1936L152.367 67.3853V67.4075H152.379C152.419 67.2162 152.573 67.0704 152.767 67.0704C152.961 67.0704 153.115 67.2166 153.155 67.4075H153.168V67.4699C153.168 67.4796 153.173 67.4877 153.173 67.4974C153.173 67.5071 153.168 67.5153 153.168 67.525V67.5843L150.801 76.8851C150.762 76.9685 150.739 77.0592 150.733 77.152L150.728 77.1718L150.731 77.1725C150.731 77.183 150.728 77.1931 150.728 77.204C150.728 77.2992 150.746 77.3936 150.781 77.4816C150.815 77.5697 150.866 77.6496 150.93 77.717C150.994 77.7844 151.07 77.8378 151.154 77.8742C151.237 77.9106 151.327 77.9294 151.417 77.9293H153.168V84.0769C153.168 84.4917 153.324 84.8895 153.603 85.1828C153.881 85.4761 154.259 85.6409 154.653 85.6409C155.047 85.6409 155.425 85.4761 155.703 85.1828C155.982 84.8895 156.138 84.4917 156.138 84.0769V77.9293H156.983V84.0769C156.989 84.4875 157.148 84.8791 157.426 85.1672C157.704 85.4552 158.078 85.6167 158.468 85.6167C158.858 85.6167 159.233 85.4552 159.511 85.1672C159.789 84.8791 159.948 84.4875 159.954 84.0769V77.9293H161.709C161.8 77.9294 161.889 77.9106 161.973 77.8742C162.057 77.8378 162.133 77.7844 162.197 77.717C162.261 77.6496 162.311 77.5697 162.346 77.4816C162.381 77.3936 162.399 77.2992 162.399 77.204C162.399 77.1931 162.396 77.183 162.396 77.1725L162.399 77.1718L162.393 77.152C162.387 77.0593 162.364 76.9687 162.326 76.8851L159.966 67.613L159.974 67.6107C159.964 67.5739 159.952 67.5378 159.952 67.4978C159.952 67.262 160.134 67.0704 160.358 67.0704C160.549 67.0704 160.702 67.212 160.745 67.3989L160.761 67.3947L162.236 73.194L162.245 73.1916C162.354 73.4852 162.557 73.7296 162.818 73.8823C163.08 74.0351 163.384 74.0866 163.678 74.028C163.972 73.9694 164.237 73.8043 164.428 73.5613C164.618 73.3184 164.722 73.0129 164.721 72.6979C164.721 72.6296 164.711 72.5644 164.702 72.4989L164.721 72.4931Z" fill="#FBFBFB"/>
<path d="M78.9236 62.5252C80.5919 62.5252 81.9443 61.1011 81.9443 59.3445C81.9443 57.5879 80.5919 56.1638 78.9236 56.1638C77.2553 56.1638 75.9028 57.5879 75.9028 59.3445C75.9028 61.1011 77.2553 62.5252 78.9236 62.5252Z" fill="#FBFBFB"/>
<path d="M87.3606 72.4931L85.3455 64.5747C85.3444 64.5685 85.3422 64.5627 85.3408 64.5565L85.3054 64.4172L85.3002 64.4188C85.1164 63.8152 84.5856 63.3754 83.9512 63.3754C83.9464 63.3754 83.9416 63.3769 83.9369 63.3769V63.3494H74.4528V63.3754C73.8185 63.3754 73.2876 63.8152 73.1038 64.4188L73.0987 64.4172L73.0633 64.5561C73.0618 64.5627 73.0596 64.5685 73.0585 64.5751L71.0435 72.4931L71.0626 72.4985C71.0534 72.564 71.0435 72.6292 71.0435 72.6975C71.0425 73.0125 71.1463 73.318 71.3368 73.5609C71.5273 73.8039 71.7926 73.969 72.0866 74.0276C72.3805 74.0862 72.6847 74.0347 72.9464 73.882C73.2081 73.7292 73.4108 73.4848 73.5194 73.1913L73.5282 73.1936L75.0065 67.3853V67.4075H75.0179C75.0585 67.2162 75.2128 67.0704 75.4062 67.0704C75.6 67.0704 75.7543 67.2166 75.7949 67.4075H75.807V67.4699C75.8078 67.4796 75.8122 67.4877 75.8122 67.4974C75.8122 67.5071 75.8074 67.5153 75.807 67.525V67.5843L73.4405 76.8851C73.4016 76.9685 73.3786 77.0592 73.3727 77.152L73.3676 77.1718L73.3705 77.1725C73.3702 77.183 73.3676 77.1931 73.3676 77.204C73.3676 77.2992 73.3854 77.3936 73.4201 77.4816C73.4547 77.5697 73.5055 77.6496 73.5695 77.717C73.6335 77.7844 73.7095 77.8378 73.7931 77.8742C73.8767 77.9106 73.9663 77.9294 74.0568 77.9293H75.807V84.0769C75.807 84.4917 75.9635 84.8895 76.2421 85.1828C76.5206 85.4761 76.8984 85.6409 77.2923 85.6409C77.6863 85.6409 78.0641 85.4761 78.3426 85.1828C78.6212 84.8895 78.7777 84.4917 78.7777 84.0769V77.9293H79.6224V84.0769C79.6285 84.4875 79.7877 84.8791 80.0656 85.1672C80.3435 85.4552 80.7179 85.6167 81.1079 85.6167C81.4978 85.6167 81.8722 85.4552 82.1501 85.1672C82.428 84.8791 82.5872 84.4875 82.5934 84.0769V77.9293H84.3487C84.4392 77.9294 84.5288 77.9106 84.6124 77.8742C84.6961 77.8378 84.772 77.7844 84.8361 77.717C84.9001 77.6496 84.9508 77.5697 84.9855 77.4816C85.0201 77.3936 85.0379 77.2992 85.0379 77.204C85.0379 77.1931 85.0354 77.183 85.035 77.1725L85.0379 77.1718L85.0328 77.152C85.0266 77.0593 85.0036 76.9687 84.965 76.8851L82.6059 67.613L82.6136 67.6107C82.6037 67.5739 82.5919 67.5378 82.5919 67.4978C82.5919 67.262 82.7735 67.0704 82.9978 67.0704C83.1887 67.0704 83.3412 67.212 83.3846 67.3989L83.4001 67.3947L84.8759 73.194L84.8847 73.1916C84.9932 73.4852 85.1959 73.7296 85.4576 73.8823C85.7193 74.0351 86.0235 74.0866 86.3175 74.028C86.6115 73.9694 86.8767 73.8043 87.0672 73.5613C87.2578 73.3184 87.3615 73.0129 87.3606 72.6979C87.3606 72.6296 87.3507 72.5644 87.3414 72.4989L87.3606 72.4931Z" fill="#FBFBFB"/>
<path d="M207.858 62.5252C209.526 62.5252 210.878 61.1011 210.878 59.3445C210.878 57.5879 209.526 56.1638 207.858 56.1638C206.189 56.1638 204.837 57.5879 204.837 59.3445C204.837 61.1011 206.189 62.5252 207.858 62.5252Z" fill="#C8B2D8"/>
<path d="M216.295 72.4931L214.28 64.5747C214.279 64.5685 214.276 64.5627 214.275 64.5565L214.239 64.4172L214.234 64.4188C214.05 63.8152 213.52 63.3754 212.885 63.3754C212.881 63.3754 212.876 63.3769 212.871 63.3769V63.3494H203.387V63.3754C202.753 63.3754 202.222 63.8152 202.038 64.4188L202.033 64.4172L201.997 64.5561C201.996 64.5627 201.994 64.5685 201.993 64.5751L199.978 72.4931L199.997 72.4985C199.987 72.564 199.978 72.6292 199.978 72.6975C199.977 73.0125 200.08 73.318 200.271 73.5609C200.461 73.8039 200.727 73.969 201.021 74.0276C201.315 74.0862 201.619 74.0347 201.881 73.882C202.142 73.7292 202.345 73.4848 202.453 73.1913L202.462 73.1936L203.941 67.3853V67.4075H203.952C203.993 67.2162 204.147 67.0704 204.34 67.0704C204.534 67.0704 204.688 67.2166 204.729 67.4075H204.741V67.4699C204.742 67.4796 204.746 67.4877 204.746 67.4974C204.746 67.5071 204.741 67.5153 204.741 67.525V67.5843L202.375 76.8851C202.336 76.9685 202.313 77.0592 202.307 77.152L202.302 77.1718L202.305 77.1725C202.304 77.183 202.302 77.1931 202.302 77.204C202.302 77.2992 202.32 77.3936 202.354 77.4816C202.389 77.5697 202.44 77.6496 202.504 77.717C202.568 77.7844 202.644 77.8378 202.727 77.8742C202.811 77.9106 202.9 77.9294 202.991 77.9293H204.741V84.0769C204.741 84.4917 204.898 84.8895 205.176 85.1828C205.455 85.4761 205.832 85.6409 206.226 85.6409C206.62 85.6409 206.998 85.4761 207.277 85.1828C207.555 84.8895 207.712 84.4917 207.712 84.0769V77.9293H208.556V84.0769C208.563 84.4875 208.722 84.8791 209 85.1672C209.278 85.4552 209.652 85.6167 210.042 85.6167C210.432 85.6167 210.806 85.4552 211.084 85.1672C211.362 84.8791 211.521 84.4875 211.527 84.0769V77.9293H213.283C213.373 77.9294 213.463 77.9106 213.547 77.8742C213.63 77.8378 213.706 77.7844 213.77 77.717C213.834 77.6496 213.885 77.5697 213.92 77.4816C213.954 77.3936 213.972 77.2992 213.972 77.204C213.972 77.1931 213.969 77.183 213.969 77.1725L213.972 77.1718L213.967 77.152C213.961 77.0593 213.938 76.9687 213.899 76.8851L211.54 67.613L211.548 67.6107C211.538 67.5739 211.526 67.5378 211.526 67.4978C211.526 67.262 211.708 67.0704 211.932 67.0704C212.123 67.0704 212.275 67.212 212.319 67.3989L212.334 67.3947L213.81 73.194L213.819 73.1916C213.927 73.4852 214.13 73.7296 214.392 73.8823C214.653 74.0351 214.958 74.0866 215.252 74.028C215.546 73.9694 215.811 73.8043 216.001 73.5613C216.192 73.3184 216.296 73.0129 216.295 72.6979C216.295 72.6296 216.285 72.5644 216.276 72.4989L216.295 72.4931Z" fill="#C8B2D8"/>
<path d="M53.1369 62.5252C54.8053 62.5252 56.1577 61.1011 56.1577 59.3445C56.1577 57.5879 54.8053 56.1638 53.1369 56.1638C51.4686 56.1638 50.1162 57.5879 50.1162 59.3445C50.1162 61.1011 51.4686 62.5252 53.1369 62.5252Z" fill="#FBFBFB"/>
<path d="M61.574 72.4931L59.5589 64.5747C59.5578 64.5685 59.5556 64.5627 59.5541 64.5565L59.5188 64.4172L59.5136 64.4188C59.3298 63.8152 58.799 63.3754 58.1646 63.3754C58.1598 63.3754 58.155 63.3769 58.1502 63.3769V63.3494H48.6662V63.3754C48.0319 63.3754 47.501 63.8152 47.3172 64.4188L47.312 64.4172L47.2767 64.5561C47.2752 64.5627 47.273 64.5685 47.2719 64.5751L45.2568 72.4931L45.276 72.4985C45.2668 72.564 45.2568 72.6292 45.2568 72.6975C45.2559 73.0125 45.3597 73.318 45.5502 73.5609C45.7407 73.8039 46.0059 73.969 46.2999 74.0276C46.5939 74.0862 46.8981 74.0347 47.1598 73.882C47.4215 73.7292 47.6242 73.4848 47.7327 73.1913L47.7416 73.1936L49.2199 67.3853V67.4075H49.2313C49.2718 67.2162 49.4262 67.0704 49.6196 67.0704C49.8134 67.0704 49.9677 67.2166 50.0082 67.4075H50.0204V67.4699C50.0211 67.4796 50.0256 67.4877 50.0256 67.4974C50.0256 67.5071 50.0208 67.5153 50.0204 67.525V67.5843L47.6539 76.8851C47.615 76.9685 47.5919 77.0592 47.5861 77.152L47.581 77.1718L47.5839 77.1725C47.5835 77.183 47.581 77.1931 47.581 77.204C47.581 77.2992 47.5988 77.3936 47.6334 77.4816C47.6681 77.5697 47.7189 77.6496 47.7829 77.717C47.8469 77.7844 47.9229 77.8378 48.0065 77.8742C48.0901 77.9106 48.1797 77.9294 48.2702 77.9293H50.0204V84.0769C50.0204 84.4917 50.1769 84.8895 50.4554 85.1828C50.734 85.4761 51.1118 85.6409 51.5057 85.6409C51.8996 85.6409 52.2774 85.4761 52.556 85.1828C52.8345 84.8895 52.991 84.4917 52.991 84.0769V77.9293H53.8357V84.0769C53.8419 84.4875 54.0011 84.8791 54.279 85.1672C54.5569 85.4552 54.9313 85.6167 55.3212 85.6167C55.7112 85.6167 56.0856 85.4552 56.3635 85.1672C56.6414 84.8791 56.8006 84.4875 56.8067 84.0769V77.9293H58.5621C58.6526 77.9294 58.7422 77.9106 58.8258 77.8742C58.9094 77.8378 58.9854 77.7844 59.0494 77.717C59.1134 77.6496 59.1642 77.5697 59.1989 77.4816C59.2335 77.3936 59.2513 77.2992 59.2513 77.204C59.2513 77.1931 59.2487 77.183 59.2484 77.1725L59.2513 77.1718L59.2462 77.152C59.24 77.0593 59.217 76.9687 59.1784 76.8851L56.8193 67.613L56.827 67.6107C56.8171 67.5739 56.8053 67.5378 56.8053 67.4978C56.8053 67.262 56.9869 67.0704 57.2112 67.0704C57.402 67.0704 57.5546 67.212 57.598 67.3989L57.6135 67.3947L59.0892 73.194L59.0981 73.1916C59.2066 73.4852 59.4093 73.7296 59.671 73.8823C59.9327 74.0351 60.2369 74.0866 60.5309 74.028C60.8249 73.9694 61.0901 73.8043 61.2806 73.5613C61.4711 73.3184 61.5749 73.0129 61.574 72.6979C61.574 72.6296 61.564 72.5644 61.5548 72.4989L61.574 72.4931Z" fill="#FBFBFB"/>
<path d="M182.071 62.5252C183.739 62.5252 185.092 61.1011 185.092 59.3445C185.092 57.5879 183.739 56.1638 182.071 56.1638C180.402 56.1638 179.05 57.5879 179.05 59.3445C179.05 61.1011 180.402 62.5252 182.071 62.5252Z" fill="#FBFBFB"/>
<path d="M190.508 72.4931L188.493 64.5747C188.492 64.5685 188.489 64.5627 188.488 64.5565L188.453 64.4172L188.447 64.4188C188.264 63.8152 187.733 63.3754 187.098 63.3754C187.094 63.3754 187.089 63.3769 187.084 63.3769V63.3494H177.6V63.3754C176.966 63.3754 176.435 63.8152 176.251 64.4188L176.246 64.4172L176.211 64.5561C176.209 64.5627 176.207 64.5685 176.206 64.5751L174.191 72.4931L174.21 72.4985C174.201 72.564 174.191 72.6292 174.191 72.6975C174.19 73.0125 174.294 73.318 174.484 73.5609C174.675 73.8039 174.94 73.969 175.234 74.0276C175.528 74.0862 175.832 74.0347 176.094 73.882C176.355 73.7292 176.558 73.4848 176.667 73.1913L176.675 73.1936L178.154 67.3853V67.4075H178.165C178.206 67.2162 178.36 67.0704 178.553 67.0704C178.747 67.0704 178.902 67.2166 178.942 67.4075H178.954V67.4699C178.955 67.4796 178.959 67.4877 178.959 67.4974C178.959 67.5071 178.955 67.5153 178.954 67.525V67.5843L176.588 76.8851C176.549 76.9685 176.526 77.0592 176.52 77.152L176.515 77.1718L176.518 77.1725C176.517 77.183 176.515 77.1931 176.515 77.204C176.515 77.2992 176.533 77.3936 176.567 77.4816C176.602 77.5697 176.653 77.6496 176.717 77.717C176.781 77.7844 176.857 77.8378 176.94 77.8742C177.024 77.9106 177.114 77.9294 177.204 77.9293H178.954V84.0769C178.954 84.4917 179.111 84.8895 179.389 85.1828C179.668 85.4761 180.046 85.6409 180.44 85.6409C180.833 85.6409 181.211 85.4761 181.49 85.1828C181.768 84.8895 181.925 84.4917 181.925 84.0769V77.9293H182.77V84.0769C182.776 84.4875 182.935 84.8791 183.213 85.1672C183.491 85.4552 183.865 85.6167 184.255 85.6167C184.645 85.6167 185.019 85.4552 185.297 85.1672C185.575 84.8791 185.734 84.4875 185.741 84.0769V77.9293H187.496C187.586 77.9294 187.676 77.9106 187.76 77.8742C187.843 77.8378 187.919 77.7844 187.983 77.717C188.047 77.6496 188.098 77.5697 188.133 77.4816C188.167 77.3936 188.185 77.2992 188.185 77.204C188.185 77.1931 188.183 77.183 188.182 77.1725L188.185 77.1718L188.18 77.152C188.174 77.0593 188.151 76.9687 188.112 76.8851L185.753 67.613L185.761 67.6107C185.751 67.5739 185.739 67.5378 185.739 67.4978C185.739 67.262 185.921 67.0704 186.145 67.0704C186.336 67.0704 186.488 67.212 186.532 67.3989L186.547 67.3947L188.023 73.194L188.032 73.1916C188.14 73.4852 188.343 73.7296 188.605 73.8823C188.867 74.0351 189.171 74.0866 189.465 74.028C189.759 73.9694 190.024 73.8043 190.214 73.5613C190.405 73.3184 190.509 73.0129 190.508 72.6979C190.508 72.6296 190.498 72.5644 190.489 72.4989L190.508 72.4931Z" fill="#FBFBFB"/>
<path d="M104.71 62.5252C106.379 62.5252 107.731 61.1011 107.731 59.3445C107.731 57.5879 106.379 56.1638 104.71 56.1638C103.042 56.1638 101.69 57.5879 101.69 59.3445C101.69 61.1011 103.042 62.5252 104.71 62.5252Z" fill="#FBFBFB"/>
<path d="M113.147 72.4931L111.132 64.5747C111.131 64.5685 111.129 64.5627 111.128 64.5565L111.092 64.4172L111.087 64.4188C110.903 63.8152 110.372 63.3754 109.738 63.3754C109.733 63.3754 109.729 63.3769 109.724 63.3769V63.3494H100.24V63.3754C99.6054 63.3754 99.0745 63.8152 98.8907 64.4188L98.8855 64.4172L98.8502 64.5561C98.8487 64.5627 98.8465 64.5685 98.8454 64.5751L96.8303 72.4931L96.8495 72.4985C96.8403 72.564 96.8303 72.6292 96.8303 72.6975C96.8294 73.0125 96.9332 73.318 97.1237 73.5609C97.3142 73.8039 97.5794 73.969 97.8734 74.0276C98.1674 74.0862 98.4716 74.0347 98.7333 73.882C98.995 73.7292 99.1977 73.4848 99.3062 73.1913L99.3151 73.1936L100.793 67.3853V67.4075H100.805C100.845 67.2162 101 67.0704 101.193 67.0704C101.387 67.0704 101.541 67.2166 101.582 67.4075H101.594V67.4699C101.595 67.4796 101.599 67.4877 101.599 67.4974C101.599 67.5071 101.594 67.5153 101.594 67.525V67.5843L99.2274 76.8851C99.1884 76.9685 99.1654 77.0592 99.1596 77.152L99.1545 77.1718L99.1574 77.1725C99.157 77.183 99.1545 77.1931 99.1545 77.204C99.1545 77.2992 99.1723 77.3936 99.2069 77.4816C99.2416 77.5697 99.2923 77.6496 99.3564 77.717C99.4204 77.7844 99.4963 77.8378 99.58 77.8742C99.6636 77.9106 99.7532 77.9294 99.8437 77.9293H101.594V84.0769C101.594 84.4917 101.75 84.8895 102.029 85.1828C102.307 85.4761 102.685 85.6409 103.079 85.6409C103.473 85.6409 103.851 85.4761 104.129 85.1828C104.408 84.8895 104.565 84.4917 104.565 84.0769V77.9293H105.409V84.0769C105.415 84.4875 105.575 84.8791 105.852 85.1672C106.13 85.4552 106.505 85.6167 106.895 85.6167C107.285 85.6167 107.659 85.4552 107.937 85.1672C108.215 84.8791 108.374 84.4875 108.38 84.0769V77.9293H110.136C110.226 77.9294 110.316 77.9106 110.399 77.8742C110.483 77.8378 110.559 77.7844 110.623 77.717C110.687 77.6496 110.738 77.5697 110.772 77.4816C110.807 77.3936 110.825 77.2992 110.825 77.204C110.825 77.1931 110.822 77.183 110.822 77.1725L110.825 77.1718L110.82 77.152C110.813 77.0593 110.79 76.9687 110.752 76.8851L108.393 67.613L108.4 67.6107C108.391 67.5739 108.379 67.5378 108.379 67.4978C108.379 67.262 108.56 67.0704 108.785 67.0704C108.976 67.0704 109.128 67.212 109.172 67.3989L109.187 67.3947L110.663 73.194L110.672 73.1916C110.78 73.4852 110.983 73.7296 111.244 73.8823C111.506 74.0351 111.81 74.0866 112.104 74.028C112.398 73.9694 112.664 73.8043 112.854 73.5613C113.045 73.3184 113.148 73.0129 113.147 72.6979C113.147 72.6296 113.138 72.5644 113.128 72.4989L113.147 72.4931Z" fill="#FBFBFB"/>
<path d="M233.644 62.5252C235.313 62.5252 236.665 61.1011 236.665 59.3445C236.665 57.5879 235.313 56.1638 233.644 56.1638C231.976 56.1638 230.624 57.5879 230.624 59.3445C230.624 61.1011 231.976 62.5252 233.644 62.5252Z" fill="#C8B2D8"/>
<path d="M242.081 72.4931L240.066 64.5747C240.065 64.5685 240.063 64.5627 240.061 64.5565L240.026 64.4172L240.021 64.4188C239.837 63.8152 239.306 63.3754 238.672 63.3754C238.667 63.3754 238.662 63.3769 238.658 63.3769V63.3494H229.174V63.3754C228.539 63.3754 228.008 63.8152 227.825 64.4188L227.819 64.4172L227.784 64.5561C227.783 64.5627 227.78 64.5685 227.779 64.5751L225.764 72.4931L225.783 72.4985C225.774 72.564 225.764 72.6292 225.764 72.6975C225.763 73.0125 225.867 73.318 226.058 73.5609C226.248 73.8039 226.513 73.969 226.807 74.0276C227.101 74.0862 227.405 74.0347 227.667 73.882C227.929 73.7292 228.132 73.4848 228.24 73.1913L228.249 73.1936L229.727 67.3853V67.4075H229.739C229.779 67.2162 229.934 67.0704 230.127 67.0704C230.321 67.0704 230.475 67.2166 230.516 67.4075H230.528V67.4699C230.528 67.4796 230.533 67.4877 230.533 67.4974C230.533 67.5071 230.528 67.5153 230.528 67.525V67.5843L228.161 76.8851C228.122 76.9685 228.099 77.0592 228.093 77.152L228.088 77.1718L228.091 77.1725C228.091 77.183 228.088 77.1931 228.088 77.204C228.088 77.2992 228.106 77.3936 228.141 77.4816C228.175 77.5697 228.226 77.6496 228.29 77.717C228.354 77.7844 228.43 77.8378 228.514 77.8742C228.597 77.9106 228.687 77.9294 228.778 77.9293H230.528V84.0769C230.528 84.4917 230.684 84.8895 230.963 85.1828C231.241 85.4761 231.619 85.6409 232.013 85.6409C232.407 85.6409 232.785 85.4761 233.063 85.1828C233.342 84.8895 233.498 84.4917 233.498 84.0769V77.9293H234.343V84.0769C234.349 84.4875 234.508 84.8791 234.786 85.1672C235.064 85.4552 235.439 85.6167 235.829 85.6167C236.219 85.6167 236.593 85.4552 236.871 85.1672C237.149 84.8791 237.308 84.4875 237.314 84.0769V77.9293H239.069C239.16 77.9294 239.25 77.9106 239.333 77.8742C239.417 77.8378 239.493 77.7844 239.557 77.717C239.621 77.6496 239.672 77.5697 239.706 77.4816C239.741 77.3936 239.759 77.2992 239.759 77.204C239.759 77.1931 239.756 77.183 239.756 77.1725L239.759 77.1718L239.753 77.152C239.747 77.0593 239.724 76.9687 239.686 76.8851L237.327 67.613L237.334 67.6107C237.324 67.5739 237.313 67.5378 237.313 67.4978C237.313 67.262 237.494 67.0704 237.719 67.0704C237.909 67.0704 238.062 67.212 238.105 67.3989L238.121 67.3947L239.597 73.194L239.605 73.1916C239.714 73.4852 239.917 73.7296 240.178 73.8823C240.44 74.0351 240.744 74.0866 241.038 74.028C241.332 73.9694 241.597 73.8043 241.788 73.5613C241.978 73.3184 242.082 73.0129 242.081 72.6979C242.081 72.6296 242.071 72.5644 242.062 72.4989L242.081 72.4931Z" fill="#C8B2D8"/>
<path d="M130.497 62.5252C132.166 62.5252 133.518 61.1011 133.518 59.3445C133.518 57.5879 132.166 56.1638 130.497 56.1638C128.829 56.1638 127.477 57.5879 127.477 59.3445C127.477 61.1011 128.829 62.5252 130.497 62.5252Z" fill="#FBFBFB"/>
<path d="M138.934 72.4931L136.919 64.5747C136.918 64.5685 136.916 64.5627 136.914 64.5565L136.879 64.4172L136.874 64.4188C136.69 63.8152 136.159 63.3754 135.525 63.3754C135.52 63.3754 135.515 63.3769 135.511 63.3769V63.3494H126.027V63.3754C125.392 63.3754 124.861 63.8152 124.678 64.4188L124.672 64.4172L124.637 64.5561C124.636 64.5627 124.633 64.5685 124.632 64.5751L122.617 72.4931L122.636 72.4985C122.627 72.564 122.617 72.6292 122.617 72.6975C122.616 73.0125 122.72 73.318 122.911 73.5609C123.101 73.8039 123.366 73.969 123.66 74.0276C123.954 74.0862 124.258 74.0347 124.52 73.882C124.782 73.7292 124.985 73.4848 125.093 73.1913L125.102 73.1936L126.58 67.3853V67.4075H126.592C126.632 67.2162 126.787 67.0704 126.98 67.0704C127.174 67.0704 127.328 67.2166 127.369 67.4075H127.381V67.4699C127.381 67.4796 127.386 67.4877 127.386 67.4974C127.386 67.5071 127.381 67.5153 127.381 67.525V67.5843L125.014 76.8851C124.975 76.9685 124.952 77.0592 124.946 77.152L124.941 77.1718L124.944 77.1725C124.944 77.183 124.941 77.1931 124.941 77.204C124.941 77.2992 124.959 77.3936 124.994 77.4816C125.028 77.5697 125.079 77.6496 125.143 77.717C125.207 77.7844 125.283 77.8378 125.367 77.8742C125.45 77.9106 125.54 77.9294 125.631 77.9293H127.381V84.0769C127.381 84.4917 127.537 84.8895 127.816 85.1828C128.094 85.4761 128.472 85.6409 128.866 85.6409C129.26 85.6409 129.638 85.4761 129.916 85.1828C130.195 84.8895 130.351 84.4917 130.351 84.0769V77.9293H131.196V84.0769C131.202 84.4875 131.361 84.8791 131.639 85.1672C131.917 85.4552 132.292 85.6167 132.682 85.6167C133.072 85.6167 133.446 85.4552 133.724 85.1672C134.002 84.8791 134.161 84.4875 134.167 84.0769V77.9293H135.922C136.013 77.9294 136.103 77.9106 136.186 77.8742C136.27 77.8378 136.346 77.7844 136.41 77.717C136.474 77.6496 136.525 77.5697 136.559 77.4816C136.594 77.3936 136.612 77.2992 136.612 77.204C136.612 77.1931 136.609 77.183 136.609 77.1725L136.612 77.1718L136.607 77.152C136.6 77.0593 136.577 76.9687 136.539 76.8851L134.18 67.613L134.187 67.6107C134.177 67.5739 134.166 67.5378 134.166 67.4978C134.166 67.262 134.347 67.0704 134.572 67.0704C134.762 67.0704 134.915 67.212 134.958 67.3989L134.974 67.3947L136.45 73.194L136.458 73.1916C136.567 73.4852 136.77 73.7296 137.031 73.8823C137.293 74.0351 137.597 74.0866 137.891 74.028C138.185 73.9694 138.45 73.8043 138.641 73.5613C138.831 73.3184 138.935 73.0129 138.934 72.6979C138.934 72.6296 138.924 72.5644 138.915 72.4989L138.934 72.4931Z" fill="#FBFBFB"/>
<path d="M259.431 62.5252C261.099 62.5252 262.452 61.1011 262.452 59.3445C262.452 57.5879 261.099 56.1638 259.431 56.1638C257.763 56.1638 256.41 57.5879 256.41 59.3445C256.41 61.1011 257.763 62.5252 259.431 62.5252Z" fill="#C8B2D8"/>
<path d="M267.868 72.4931L265.853 64.5747C265.852 64.5685 265.85 64.5627 265.848 64.5565L265.813 64.4172L265.808 64.4188C265.624 63.8152 265.093 63.3754 264.459 63.3754C264.454 63.3754 264.449 63.3769 264.444 63.3769V63.3494H254.96V63.3754C254.326 63.3754 253.795 63.8152 253.611 64.4188L253.606 64.4172L253.571 64.5561C253.569 64.5627 253.567 64.5685 253.566 64.5751L251.551 72.4931L251.57 72.4985C251.561 72.564 251.551 72.6292 251.551 72.6975C251.55 73.0125 251.654 73.318 251.844 73.5609C252.035 73.8039 252.3 73.969 252.594 74.0276C252.888 74.0862 253.192 74.0347 253.454 73.882C253.716 73.7292 253.918 73.4848 254.027 73.1913L254.036 73.1936L255.514 67.3853V67.4075H255.526C255.566 67.2162 255.72 67.0704 255.914 67.0704C256.108 67.0704 256.262 67.2166 256.302 67.4075H256.315V67.4699C256.315 67.4796 256.32 67.4877 256.32 67.4974C256.32 67.5071 256.315 67.5153 256.315 67.525V67.5843L253.948 76.8851C253.909 76.9685 253.886 77.0592 253.88 77.152L253.875 77.1718L253.878 77.1725C253.878 77.183 253.875 77.1931 253.875 77.204C253.875 77.2992 253.893 77.3936 253.928 77.4816C253.962 77.5697 254.013 77.6496 254.077 77.717C254.141 77.7844 254.217 77.8378 254.301 77.8742C254.384 77.9106 254.474 77.9294 254.564 77.9293H256.315V84.0769C256.315 84.4917 256.471 84.8895 256.75 85.1828C257.028 85.4761 257.406 85.6409 257.8 85.6409C258.194 85.6409 258.572 85.4761 258.85 85.1828C259.129 84.8895 259.285 84.4917 259.285 84.0769V77.9293H260.13V84.0769C260.136 84.4875 260.295 84.8791 260.573 85.1672C260.851 85.4552 261.225 85.6167 261.615 85.6167C262.005 85.6167 262.38 85.4552 262.658 85.1672C262.936 84.8791 263.095 84.4875 263.101 84.0769V77.9293H264.856C264.947 77.9294 265.036 77.9106 265.12 77.8742C265.204 77.8378 265.28 77.7844 265.344 77.717C265.408 77.6496 265.458 77.5697 265.493 77.4816C265.528 77.3936 265.546 77.2992 265.546 77.204C265.546 77.1931 265.543 77.183 265.543 77.1725L265.546 77.1718L265.54 77.152C265.534 77.0593 265.511 76.9687 265.473 76.8851L263.113 67.613L263.121 67.6107C263.111 67.5739 263.099 67.5378 263.099 67.4978C263.099 67.262 263.281 67.0704 263.505 67.0704C263.696 67.0704 263.849 67.212 263.892 67.3989L263.908 67.3947L265.383 73.194L265.392 73.1916C265.501 73.4852 265.703 73.7296 265.965 73.8823C266.227 74.0351 266.531 74.0866 266.825 74.028C267.119 73.9694 267.384 73.8043 267.575 73.5613C267.765 73.3184 267.869 73.0129 267.868 72.6979C267.868 72.6296 267.858 72.5644 267.849 72.4989L267.868 72.4931Z" fill="#C8B2D8"/>
<path d="M58.9266 33.9018L58.9796 34.6002C59.1211 34.335 59.3126 34.1287 59.5543 33.9813C59.8018 33.8281 60.0848 33.7515 60.403 33.7515C60.7036 33.7515 60.9541 33.8222 61.1545 33.9637C61.3608 34.1051 61.4876 34.2967 61.5347 34.5383C61.6821 34.2908 61.8736 34.0992 62.1094 33.9637C62.3511 33.8222 62.6074 33.7515 62.8786 33.7515C63.2322 33.7515 63.5122 33.8546 63.7185 34.0609C63.9307 34.2672 64.0427 34.5295 64.0545 34.8478V37.562H63.2322V35.1572C63.2204 34.9686 63.1703 34.8124 63.0819 34.6886C62.9994 34.559 62.855 34.4882 62.6487 34.4764C62.4306 34.4764 62.2391 34.5413 62.074 34.6709C61.909 34.7947 61.7793 34.9598 61.685 35.1661C61.5907 35.3723 61.5406 35.5904 61.5347 35.8203V37.562H60.7036V35.1572C60.6978 34.9686 60.6477 34.8124 60.5533 34.6886C60.4649 34.559 60.3146 34.4882 60.1024 34.4764C59.8903 34.4764 59.7016 34.5413 59.5366 34.6709C59.3716 34.7947 59.2419 34.9598 59.1476 35.1661C59.0533 35.3723 59.0061 35.5934 59.0061 35.8291V37.562H58.1839V33.9018H58.9266ZM66.6466 37.7035C66.3107 37.7035 66.0337 37.6033 65.8156 37.4029C65.5975 37.1966 65.4855 36.9313 65.4796 36.6072V33.9018H66.3018V36.3154C66.3136 36.5158 66.3726 36.6779 66.4787 36.8017C66.5848 36.9254 66.7498 36.9903 66.9738 36.9962C67.1742 36.9962 67.3569 36.9372 67.5219 36.8194C67.687 36.6956 67.8166 36.5305 67.9109 36.3242C68.0111 36.1121 68.0612 35.8733 68.0612 35.6081V33.9018H68.8835V37.562H68.1408L68.0789 36.8724C67.961 37.1141 67.7724 37.3145 67.5131 37.4736C67.2596 37.6268 66.9708 37.7035 66.6466 37.7035ZM70.3146 30.7101H71.1369V37.562H70.3146V30.7101ZM72.5681 37.562V30.7101H73.3726V34.5649C73.5023 34.3291 73.6939 34.1375 73.9473 33.9902C74.2008 33.8369 74.4984 33.7603 74.8403 33.7603C75.1821 33.7603 75.4621 33.8635 75.6802 34.0697C75.9042 34.2701 76.022 34.5324 76.0338 34.8566V37.562H75.2028V35.1395C75.191 34.945 75.1291 34.7859 75.0171 34.6621C74.911 34.5383 74.743 34.4735 74.5132 34.4676C74.301 34.4676 74.1094 34.5295 73.9385 34.6533C73.7734 34.7711 73.6408 34.9332 73.5406 35.1395C73.4404 35.3458 73.3903 35.5816 73.3903 35.8468V37.562H72.5681ZM79.1524 37.6504C78.7398 37.6504 78.3803 37.5679 78.0738 37.4029C77.7732 37.2319 77.5404 36.9991 77.3753 36.7044C77.2162 36.4097 77.1366 36.0767 77.1366 35.7054C77.1366 35.3458 77.225 35.0187 77.4019 34.724C77.5846 34.4234 77.8292 34.1876 78.1357 34.0167C78.4481 33.8399 78.7929 33.7515 79.1701 33.7515C79.6534 33.7515 80.0542 33.8929 80.3725 34.1758C80.6908 34.4588 80.9089 34.8478 81.0268 35.3429L78.1268 36.3596C78.227 36.5423 78.3685 36.6867 78.5512 36.7928C78.7339 36.893 78.9402 36.9431 79.1701 36.9431C79.3351 36.9431 79.4913 36.9137 79.6387 36.8547C79.786 36.7958 79.9275 36.7192 80.0631 36.6248L80.4432 37.2349C80.2546 37.3587 80.0454 37.4589 79.8155 37.5355C79.5915 37.6121 79.3705 37.6504 79.1524 37.6504ZM77.95 35.6612C77.9441 35.7319 77.9471 35.7997 77.9589 35.8645L80.0896 35.0776C80.0071 34.9008 79.8862 34.7446 79.7271 34.6091C79.5739 34.4735 79.3676 34.4057 79.1082 34.4057C78.7723 34.4057 78.4952 34.5236 78.2771 34.7594C78.0591 34.9951 77.95 35.2957 77.95 35.6612ZM82.782 33.9018L82.8439 34.7594C82.9441 34.5531 83.0826 34.3762 83.2594 34.2289C83.4363 34.0756 83.619 33.9607 83.8076 33.8841C84.0021 33.8016 84.1701 33.7574 84.3115 33.7515L84.2762 34.5737C83.9991 34.5619 83.7545 34.6179 83.5423 34.7417C83.3302 34.8596 83.1651 35.0216 83.0472 35.2279C82.9294 35.4342 82.8704 35.6553 82.8704 35.891V37.562H82.0482V33.9018H82.782ZM86.9144 37.6504C86.5018 37.6504 86.1422 37.5679 85.8357 37.4029C85.5351 37.2319 85.3023 36.9991 85.1373 36.7044C84.9781 36.4097 84.8986 36.0767 84.8986 35.7054C84.8986 35.3458 84.987 35.0187 85.1638 34.724C85.3465 34.4234 85.5911 34.1876 85.8976 34.0167C86.21 33.8399 86.5548 33.7515 86.932 33.7515C87.4154 33.7515 87.8162 33.8929 88.1344 34.1758C88.4527 34.4588 88.6708 34.8478 88.7887 35.3429L85.8888 36.3596C85.989 36.5423 86.1304 36.6867 86.3132 36.7928C86.4959 36.893 86.7022 36.9431 86.932 36.9431C87.0971 36.9431 87.2533 36.9137 87.4006 36.8547C87.548 36.7958 87.6894 36.7192 87.825 36.6248L88.2052 37.2349C88.0166 37.3587 87.8073 37.4589 87.5774 37.5355C87.3535 37.6121 87.1324 37.6504 86.9144 37.6504ZM85.712 35.6612C85.7061 35.7319 85.709 35.7997 85.7208 35.8645L87.8515 35.0776C87.769 34.9008 87.6482 34.7446 87.489 34.6091C87.3358 34.4735 87.1295 34.4057 86.8702 34.4057C86.5342 34.4057 86.2572 34.5236 86.0391 34.7594C85.821 34.9951 85.712 35.2957 85.712 35.6612ZM90.8445 37.6327C90.5793 37.6327 90.3229 37.5885 90.0754 37.5001C89.8337 37.4058 89.6333 37.2673 89.4742 37.0846L89.8278 36.6072C89.9752 36.7545 90.1314 36.8665 90.2964 36.9431C90.4614 37.0139 90.6206 37.0492 90.7738 37.0492C90.9506 37.0492 91.1039 37.0139 91.2336 36.9431C91.3691 36.8724 91.4369 36.7516 91.4369 36.5806C91.4369 36.451 91.3927 36.3478 91.3043 36.2712C91.2218 36.1946 91.1127 36.1356 90.9772 36.0944C90.8475 36.0472 90.7119 36.0001 90.5705 35.9529C89.9457 35.7525 89.6333 35.3959 89.6333 34.8831C89.6333 34.6945 89.6805 34.5148 89.7748 34.3438C89.875 34.1729 90.0194 34.0344 90.208 33.9283C90.4025 33.8222 90.6412 33.7691 90.9241 33.7691C91.1776 33.7691 91.4045 33.8016 91.6049 33.8664C91.8053 33.9312 91.9939 34.0344 92.1707 34.1758L91.8436 34.6798C91.7375 34.5737 91.6108 34.4941 91.4634 34.4411C91.322 34.3821 91.1923 34.3497 91.0744 34.3438C90.9153 34.3438 90.7738 34.3821 90.65 34.4588C90.5322 34.5354 90.4732 34.6415 90.4732 34.777C90.4673 34.9008 90.5056 35.001 90.5881 35.0776C90.6707 35.1484 90.7768 35.2073 90.9064 35.2545C91.042 35.3016 91.1776 35.3458 91.3131 35.3871C91.5784 35.4755 91.8023 35.5963 91.9851 35.7496C92.1737 35.9028 92.268 36.1268 92.268 36.4215C92.268 36.7516 92.1501 37.0374 91.9143 37.2791C91.6786 37.5149 91.322 37.6327 90.8445 37.6327ZM97.914 37.6504C97.5014 37.6504 97.1419 37.5679 96.8354 37.4029C96.5348 37.2319 96.302 36.9991 96.137 36.7044C95.9778 36.4097 95.8982 36.0767 95.8982 35.7054C95.8982 35.3458 95.9867 35.0187 96.1635 34.724C96.3462 34.4234 96.5908 34.1876 96.8973 34.0167C97.2097 33.8399 97.5545 33.7515 97.9317 33.7515C98.415 33.7515 98.8158 33.8929 99.1341 34.1758C99.4524 34.4588 99.6705 34.8478 99.7884 35.3429L96.8885 36.3596C96.9887 36.5423 97.1301 36.6867 97.3128 36.7928C97.4955 36.893 97.7018 36.9431 97.9317 36.9431C98.0967 36.9431 98.2529 36.9137 98.4003 36.8547C98.5476 36.7958 98.6891 36.7192 98.8247 36.6248L99.2048 37.2349C99.0162 37.3587 98.807 37.4589 98.5771 37.5355C98.3531 37.6121 98.1321 37.6504 97.914 37.6504ZM96.7116 35.6612C96.7057 35.7319 96.7087 35.7997 96.7205 35.8645L98.8512 35.0776C98.7687 34.9008 98.6478 34.7446 98.4887 34.6091C98.3355 34.4735 98.1292 34.4057 97.8698 34.4057C97.5339 34.4057 97.2568 34.5236 97.0388 34.7594C96.8207 34.9951 96.7116 35.2957 96.7116 35.6612ZM101.552 33.9018L101.606 34.6002C101.747 34.335 101.939 34.1287 102.18 33.9813C102.428 33.8281 102.711 33.7515 103.029 33.7515C103.33 33.7515 103.58 33.8222 103.78 33.9637C103.987 34.1051 104.113 34.2967 104.161 34.5383C104.308 34.2908 104.5 34.0992 104.735 33.9637C104.977 33.8222 105.233 33.7515 105.504 33.7515C105.858 33.7515 106.138 33.8546 106.344 34.0609C106.557 34.2672 106.669 34.5295 106.68 34.8478V37.562H105.858V35.1572C105.846 34.9686 105.796 34.8124 105.708 34.6886C105.625 34.559 105.481 34.4882 105.275 34.4764C105.057 34.4764 104.865 34.5413 104.7 34.6709C104.535 34.7947 104.405 34.9598 104.311 35.1661C104.217 35.3723 104.166 35.5904 104.161 35.8203V37.562H103.33V35.1572C103.324 34.9686 103.274 34.8124 103.179 34.6886C103.091 34.559 102.941 34.4882 102.728 34.4764C102.516 34.4764 102.328 34.5413 102.162 34.6709C101.997 34.7947 101.868 34.9598 101.773 35.1661C101.679 35.3723 101.632 35.5934 101.632 35.8291V37.562H100.81V33.9018H101.552ZM111.937 37.6327C111.672 37.6327 111.416 37.5885 111.168 37.5001C110.926 37.4058 110.726 37.2673 110.567 37.0846L110.921 36.6072C111.068 36.7545 111.224 36.8665 111.389 36.9431C111.554 37.0139 111.713 37.0492 111.867 37.0492C112.043 37.0492 112.197 37.0139 112.326 36.9431C112.462 36.8724 112.53 36.7516 112.53 36.5806C112.53 36.451 112.485 36.3478 112.397 36.2712C112.315 36.1946 112.205 36.1356 112.07 36.0944C111.94 36.0472 111.805 36.0001 111.663 35.9529C111.038 35.7525 110.726 35.3959 110.726 34.8831C110.726 34.6945 110.773 34.5148 110.868 34.3438C110.968 34.1729 111.112 34.0344 111.301 33.9283C111.495 33.8222 111.734 33.7691 112.017 33.7691C112.27 33.7691 112.497 33.8016 112.698 33.8664C112.898 33.9312 113.087 34.0344 113.263 34.1758L112.936 34.6798C112.83 34.5737 112.704 34.4941 112.556 34.4411C112.415 34.3821 112.285 34.3497 112.167 34.3438C112.008 34.3438 111.867 34.3821 111.743 34.4588C111.625 34.5354 111.566 34.6415 111.566 34.777C111.56 34.9008 111.598 35.001 111.681 35.0776C111.763 35.1484 111.87 35.2073 111.999 35.2545C112.135 35.3016 112.27 35.3458 112.406 35.3871C112.671 35.4755 112.895 35.5963 113.078 35.7496C113.266 35.9028 113.361 36.1268 113.361 36.4215C113.361 36.7516 113.243 37.0374 113.007 37.2791C112.771 37.5149 112.415 37.6327 111.937 37.6327ZM114.512 33.9018H115.334V37.562H114.512V33.9018ZM114.45 32.5844C114.45 32.4489 114.5 32.3398 114.6 32.2573C114.706 32.1689 114.821 32.1247 114.945 32.1247C115.069 32.1247 115.181 32.1689 115.281 32.2573C115.381 32.3398 115.431 32.4489 115.431 32.5844C115.431 32.72 115.381 32.832 115.281 32.9204C115.181 33.0029 115.069 33.0442 114.945 33.0442C114.821 33.0442 114.706 33.0029 114.6 32.9204C114.5 32.832 114.45 32.72 114.45 32.5844ZM117.119 32.2927H117.95V33.9106H118.949V34.5649H117.95V37.562H117.119V34.5649H116.447V33.9106H117.119V32.2927ZM121.118 37.7035C120.782 37.7035 120.505 37.6033 120.287 37.4029C120.069 37.1966 119.957 36.9313 119.951 36.6072V33.9018H120.774V36.3154C120.785 36.5158 120.844 36.6779 120.95 36.8017C121.056 36.9254 121.221 36.9903 121.445 36.9962C121.646 36.9962 121.829 36.9372 121.994 36.8194C122.159 36.6956 122.288 36.5305 122.383 36.3242C122.483 36.1121 122.533 35.8733 122.533 35.6081V33.9018H123.355V37.562H122.612L122.551 36.8724C122.433 37.1141 122.244 37.3145 121.985 37.4736C121.731 37.6268 121.443 37.7035 121.118 37.7035ZM126.316 37.6504C125.968 37.6504 125.653 37.5767 125.37 37.4294C125.093 37.282 124.872 37.0669 124.707 36.784C124.548 36.4952 124.468 36.1445 124.468 35.7319C124.468 35.3193 124.551 34.9657 124.716 34.6709C124.887 34.3762 125.113 34.1493 125.396 33.9902C125.685 33.831 126 33.7515 126.342 33.7515C126.672 33.7515 126.952 33.8222 127.182 33.9637C127.412 34.1051 127.592 34.276 127.722 34.4764L127.783 33.9018H128.544V37.562H127.722V36.9608C127.651 37.0551 127.548 37.1553 127.412 37.2614C127.282 37.3675 127.123 37.4589 126.935 37.5355C126.752 37.6121 126.546 37.6504 126.316 37.6504ZM126.537 36.9697C126.837 36.9697 127.094 36.8871 127.306 36.7221C127.518 36.5512 127.657 36.3213 127.722 36.0325V35.3075C127.651 35.0541 127.504 34.8448 127.28 34.6798C127.056 34.5148 126.799 34.4322 126.51 34.4322C126.286 34.4322 126.083 34.4853 125.9 34.5914C125.718 34.6975 125.57 34.8448 125.458 35.0334C125.352 35.222 125.299 35.4401 125.299 35.6877C125.299 35.9293 125.355 36.1474 125.467 36.3419C125.579 36.5305 125.729 36.6838 125.918 36.8017C126.107 36.9137 126.313 36.9697 126.537 36.9697ZM132.946 37.2172C132.781 37.3528 132.583 37.4589 132.354 37.5355C132.124 37.6121 131.894 37.6504 131.664 37.6504C131.269 37.6504 130.918 37.5709 130.612 37.4117C130.311 37.2526 130.076 37.0286 129.905 36.7398C129.74 36.451 129.657 36.1121 129.657 35.723C129.657 35.334 129.745 34.9981 129.922 34.7152C130.105 34.4263 130.341 34.2024 130.63 34.0432C130.924 33.8841 131.243 33.8045 131.584 33.8045C131.879 33.8045 132.141 33.8458 132.371 33.9283C132.601 34.0108 132.802 34.1228 132.972 34.2643L132.557 34.8036C132.451 34.7269 132.321 34.6562 132.168 34.5914C132.015 34.5206 131.844 34.4853 131.655 34.4853C131.437 34.4853 131.24 34.5413 131.063 34.6533C130.886 34.7594 130.745 34.9067 130.638 35.0953C130.532 35.278 130.479 35.4873 130.479 35.723C130.479 35.9529 130.532 36.1622 130.638 36.3508C130.745 36.5394 130.892 36.6897 131.08 36.8017C131.269 36.9137 131.487 36.9697 131.735 36.9697C131.888 36.9697 132.029 36.9461 132.159 36.8989C132.295 36.8518 132.415 36.7869 132.522 36.7044L132.946 37.2172ZM130.568 38.897C130.633 38.9678 130.715 39.0238 130.815 39.065C130.915 39.1122 131.027 39.1357 131.151 39.1357C131.304 39.1357 131.443 39.1004 131.567 39.0296C131.696 38.9648 131.761 38.8646 131.761 38.729C131.761 38.6288 131.717 38.5375 131.629 38.455C131.546 38.3725 131.399 38.3312 131.187 38.3312C131.092 38.3312 130.992 38.343 130.886 38.3666C130.78 38.3901 130.689 38.4167 130.612 38.4461L130.462 38.0394L131.08 37.4736L131.708 37.5001L131.319 37.951C131.343 37.951 131.366 37.951 131.39 37.951C131.702 37.9451 131.956 38.007 132.15 38.1367C132.351 38.2664 132.451 38.4609 132.451 38.7202C132.451 38.9147 132.395 39.0768 132.283 39.2065C132.171 39.3361 132.021 39.4304 131.832 39.4894C131.649 39.5542 131.452 39.5866 131.24 39.5866C131.016 39.5866 130.827 39.5542 130.674 39.4894C130.521 39.4246 130.397 39.345 130.302 39.2507L130.568 38.897ZM135.537 37.6504C135.189 37.6504 134.874 37.5767 134.591 37.4294C134.314 37.282 134.093 37.0669 133.928 36.784C133.769 36.4952 133.689 36.1445 133.689 35.7319C133.689 35.3193 133.772 34.9657 133.937 34.6709C134.108 34.3762 134.335 34.1493 134.617 33.9902C134.906 33.831 135.222 33.7515 135.563 33.7515C135.894 33.7515 136.173 33.8222 136.403 33.9637C136.633 34.1051 136.813 34.276 136.943 34.4764L137.005 33.9018H137.765V37.562H136.943V36.9608C136.872 37.0551 136.769 37.1553 136.633 37.2614C136.504 37.3675 136.344 37.4589 136.156 37.5355C135.973 37.6121 135.767 37.6504 135.537 37.6504ZM135.758 36.9697C136.059 36.9697 136.315 36.8871 136.527 36.7221C136.739 36.5512 136.878 36.3213 136.943 36.0325V35.3075C136.872 35.0541 136.725 34.8448 136.501 34.6798C136.277 34.5148 136.02 34.4322 135.731 34.4322C135.507 34.4322 135.304 34.4853 135.121 34.5914C134.939 34.6975 134.791 34.8448 134.679 35.0334C134.573 35.222 134.52 35.4401 134.52 35.6877C134.52 35.9293 134.576 36.1474 134.688 36.3419C134.8 36.5305 134.95 36.6838 135.139 36.8017C135.328 36.9137 135.534 36.9697 135.758 36.9697ZM136.686 33.389C136.492 33.389 136.333 33.3477 136.209 33.2652C136.091 33.1768 135.982 33.0854 135.882 32.9911C135.811 32.9263 135.737 32.8673 135.661 32.8143C135.59 32.7554 135.513 32.7259 135.431 32.7259C135.313 32.7259 135.222 32.7878 135.157 32.9116C135.092 33.0294 135.062 33.1915 135.068 33.3978L134.617 33.389C134.6 33.0471 134.668 32.7613 134.821 32.5314C134.98 32.2956 135.195 32.1777 135.466 32.1777C135.619 32.1777 135.752 32.219 135.864 32.3015C135.976 32.384 136.082 32.4724 136.182 32.5667C136.259 32.6434 136.336 32.7141 136.412 32.7789C136.489 32.8379 136.571 32.8673 136.66 32.8673C136.778 32.8673 136.86 32.8055 136.907 32.6817C136.96 32.552 136.987 32.3811 136.987 32.1689L137.429 32.1777C137.47 32.5491 137.414 32.8438 137.261 33.0619C137.108 33.2799 136.916 33.389 136.686 33.389ZM138.878 35.6965C138.878 35.3311 138.964 35.001 139.135 34.7063C139.311 34.4116 139.553 34.1788 139.859 34.0079C140.166 33.8369 140.517 33.7515 140.912 33.7515C141.306 33.7515 141.654 33.8369 141.955 34.0079C142.255 34.1788 142.488 34.4116 142.653 34.7063C142.824 35.001 142.91 35.3311 142.91 35.6965C142.91 36.062 142.824 36.392 142.653 36.6867C142.488 36.9814 142.252 37.2172 141.946 37.394C141.645 37.565 141.295 37.6504 140.894 37.6504C140.505 37.6504 140.157 37.5709 139.851 37.4117C139.55 37.2526 139.311 37.0256 139.135 36.7309C138.964 36.4362 138.878 36.0914 138.878 35.6965ZM139.709 35.7054C139.709 35.9411 139.759 36.1563 139.859 36.3508C139.966 36.5394 140.107 36.6897 140.284 36.8017C140.461 36.9137 140.661 36.9697 140.885 36.9697C141.115 36.9697 141.318 36.9137 141.495 36.8017C141.672 36.6897 141.81 36.5394 141.911 36.3508C142.017 36.1563 142.07 35.9411 142.07 35.7054C142.07 35.4696 142.017 35.2574 141.911 35.0688C141.81 34.8743 141.672 34.721 141.495 34.6091C141.318 34.4912 141.115 34.4322 140.885 34.4322C140.661 34.4322 140.458 34.4912 140.275 34.6091C140.098 34.7269 139.96 34.8831 139.859 35.0776C139.759 35.2663 139.709 35.4755 139.709 35.7054ZM148.306 37.6504C147.958 37.6504 147.646 37.5709 147.369 37.4117C147.097 37.2467 146.882 37.0168 146.723 36.7221C146.57 36.4215 146.493 36.0737 146.493 35.6788C146.493 35.278 146.576 34.9332 146.741 34.6444C146.906 34.3556 147.133 34.1346 147.422 33.9813C147.716 33.8281 148.043 33.7515 148.403 33.7515C148.68 33.7515 148.945 33.8104 149.199 33.9283C149.452 34.0403 149.655 34.1965 149.809 34.3969V30.7101H150.631V37.562H149.8V36.9962C149.623 37.1907 149.405 37.3498 149.146 37.4736C148.892 37.5915 148.612 37.6504 148.306 37.6504ZM148.562 36.9431C148.88 36.9431 149.149 36.8577 149.367 36.6867C149.585 36.5158 149.726 36.2859 149.791 35.9971V35.3075C149.726 35.0482 149.579 34.833 149.349 34.6621C149.125 34.4912 148.863 34.4057 148.562 34.4057C148.338 34.4057 148.132 34.4617 147.943 34.5737C147.755 34.6798 147.604 34.8271 147.492 35.0158C147.38 35.2044 147.324 35.4224 147.324 35.67C147.324 35.9058 147.38 36.1209 147.492 36.3154C147.604 36.5099 147.755 36.6632 147.943 36.7751C148.132 36.8871 148.338 36.9431 148.562 36.9431ZM153.75 37.6504C153.337 37.6504 152.978 37.5679 152.671 37.4029C152.371 37.2319 152.138 36.9991 151.973 36.7044C151.814 36.4097 151.734 36.0767 151.734 35.7054C151.734 35.3458 151.822 35.0187 151.999 34.724C152.182 34.4234 152.427 34.1876 152.733 34.0167C153.046 33.8399 153.39 33.7515 153.768 33.7515C154.251 33.7515 154.652 33.8929 154.97 34.1758C155.288 34.4588 155.506 34.8478 155.624 35.3429L152.724 36.3596C152.825 36.5423 152.966 36.6867 153.149 36.7928C153.331 36.893 153.538 36.9431 153.768 36.9431C153.933 36.9431 154.089 36.9137 154.236 36.8547C154.383 36.7958 154.525 36.7192 154.661 36.6248L155.041 37.2349C154.852 37.3587 154.643 37.4589 154.413 37.5355C154.189 37.6121 153.968 37.6504 153.75 37.6504ZM152.547 35.6612C152.542 35.7319 152.545 35.7997 152.556 35.8645L154.687 35.0776C154.605 34.9008 154.484 34.7446 154.325 34.6091C154.171 34.4735 153.965 34.4057 153.706 34.4057C153.37 34.4057 153.093 34.5236 152.875 34.7594C152.657 34.9951 152.547 35.2957 152.547 35.6612ZM161.141 37.6504C160.728 37.6504 160.368 37.5679 160.062 37.4029C159.761 37.2319 159.529 36.9991 159.363 36.7044C159.204 36.4097 159.125 36.0767 159.125 35.7054C159.125 35.3458 159.213 35.0187 159.39 34.724C159.573 34.4234 159.817 34.1876 160.124 34.0167C160.436 33.8399 160.781 33.7515 161.158 33.7515C161.642 33.7515 162.042 33.8929 162.361 34.1758C162.679 34.4588 162.897 34.8478 163.015 35.3429L160.115 36.3596C160.215 36.5423 160.357 36.6867 160.539 36.7928C160.722 36.893 160.928 36.9431 161.158 36.9431C161.323 36.9431 161.479 36.9137 161.627 36.8547C161.774 36.7958 161.916 36.7192 162.051 36.6248L162.431 37.2349C162.243 37.3587 162.034 37.4589 161.804 37.5355C161.58 37.6121 161.359 37.6504 161.141 37.6504ZM159.938 35.6612C159.932 35.7319 159.935 35.7997 159.947 35.8645L162.078 35.0776C161.995 34.9008 161.874 34.7446 161.715 34.6091C161.562 34.4735 161.356 34.4057 161.096 34.4057C160.76 34.4057 160.483 34.5236 160.265 34.7594C160.047 34.9951 159.938 35.2957 159.938 35.6612ZM167.177 37.562H166.178L165.188 36.2624L164.277 37.562H163.437L164.781 35.723L163.393 33.9018H164.419L165.374 35.1749L166.205 33.9018H167.036L165.754 35.6788L167.177 37.562ZM168.413 32.2927H169.244V33.9106H170.244V34.5649H169.244V37.562H168.413V34.5649H167.741V33.9106H168.413V32.2927ZM171.979 33.9018L172.041 34.7594C172.142 34.5531 172.28 34.3762 172.457 34.2289C172.634 34.0756 172.816 33.9607 173.005 33.8841C173.2 33.8016 173.368 33.7574 173.509 33.7515L173.474 34.5737C173.197 34.5619 172.952 34.6179 172.74 34.7417C172.528 34.8596 172.363 35.0216 172.245 35.2279C172.127 35.4342 172.068 35.6553 172.068 35.891V37.562H171.246V33.9018H171.979ZM176.112 37.6504C175.699 37.6504 175.34 37.5679 175.033 37.4029C174.733 37.2319 174.5 36.9991 174.335 36.7044C174.176 36.4097 174.096 36.0767 174.096 35.7054C174.096 35.3458 174.184 35.0187 174.361 34.724C174.544 34.4234 174.789 34.1876 175.095 34.0167C175.407 33.8399 175.752 33.7515 176.13 33.7515C176.613 33.7515 177.014 33.8929 177.332 34.1758C177.65 34.4588 177.868 34.8478 177.986 35.3429L175.086 36.3596C175.186 36.5423 175.328 36.6867 175.511 36.7928C175.693 36.893 175.9 36.9431 176.13 36.9431C176.295 36.9431 176.451 36.9137 176.598 36.8547C176.745 36.7958 176.887 36.7192 177.022 36.6248L177.403 37.2349C177.214 37.3587 177.005 37.4589 176.775 37.5355C176.551 37.6121 176.33 37.6504 176.112 37.6504ZM174.909 35.6612C174.904 35.7319 174.906 35.7997 174.918 35.8645L177.049 35.0776C176.966 34.9008 176.846 34.7446 176.687 34.6091C176.533 34.4735 176.327 34.4057 176.068 34.4057C175.732 34.4057 175.455 34.5236 175.237 34.7594C175.018 34.9951 174.909 35.2957 174.909 35.6612ZM179.75 33.9018L179.803 34.6002C179.945 34.335 180.136 34.1287 180.378 33.9813C180.626 33.8281 180.908 33.7515 181.227 33.7515C181.527 33.7515 181.778 33.8222 181.978 33.9637C182.185 34.1051 182.311 34.2967 182.358 34.5383C182.506 34.2908 182.697 34.0992 182.933 33.9637C183.175 33.8222 183.431 33.7515 183.702 33.7515C184.056 33.7515 184.336 33.8546 184.542 34.0609C184.754 34.2672 184.866 34.5295 184.878 34.8478V37.562H184.056V35.1572C184.044 34.9686 183.994 34.8124 183.906 34.6886C183.823 34.559 183.679 34.4882 183.472 34.4764C183.254 34.4764 183.063 34.5413 182.898 34.6709C182.733 34.7947 182.603 34.9598 182.509 35.1661C182.414 35.3723 182.364 35.5904 182.358 35.8203V37.562H181.527V35.1572C181.521 34.9686 181.471 34.8124 181.377 34.6886C181.289 34.559 181.138 34.4882 180.926 34.4764C180.714 34.4764 180.525 34.5413 180.36 34.6709C180.195 34.7947 180.066 34.9598 179.971 35.1661C179.877 35.3723 179.83 35.5934 179.83 35.8291V37.562H179.008V33.9018H179.75ZM187.833 37.6504C187.485 37.6504 187.17 37.5767 186.887 37.4294C186.61 37.282 186.389 37.0669 186.224 36.784C186.065 36.4952 185.985 36.1445 185.985 35.7319C185.985 35.3193 186.068 34.9657 186.233 34.6709C186.404 34.3762 186.63 34.1493 186.913 33.9902C187.202 33.831 187.517 33.7515 187.859 33.7515C188.189 33.7515 188.469 33.8222 188.699 33.9637C188.929 34.1051 189.109 34.276 189.239 34.4764L189.3 33.9018H190.061V37.562H189.239V36.9608C189.168 37.0551 189.065 37.1553 188.929 37.2614C188.799 37.3675 188.64 37.4589 188.452 37.5355C188.269 37.6121 188.063 37.6504 187.833 37.6504ZM188.054 36.9697C188.354 36.9697 188.611 36.8871 188.823 36.7221C189.035 36.5512 189.174 36.3213 189.239 36.0325V35.3075C189.168 35.0541 189.02 34.8448 188.797 34.6798C188.573 34.5148 188.316 34.4322 188.027 34.4322C187.803 34.4322 187.6 34.4853 187.417 34.5914C187.235 34.6975 187.087 34.8448 186.975 35.0334C186.869 35.222 186.816 35.4401 186.816 35.6877C186.816 35.9293 186.872 36.1474 186.984 36.3419C187.096 36.5305 187.246 36.6838 187.435 36.8017C187.624 36.9137 187.83 36.9697 188.054 36.9697ZM196.456 37.6504C196.191 37.6504 195.934 37.5944 195.687 37.4824C195.445 37.3646 195.253 37.2084 195.112 37.0139V39.3214H194.29V33.8399H195.006L195.077 34.4588C195.253 34.2525 195.471 34.0845 195.731 33.9548C195.996 33.8192 196.288 33.7515 196.606 33.7515C196.954 33.7515 197.263 33.834 197.534 33.999C197.811 34.1641 198.03 34.3939 198.189 34.6886C198.348 34.9833 198.427 35.3281 198.427 35.723C198.427 36.118 198.339 36.4598 198.162 36.7486C197.991 37.0374 197.755 37.2614 197.455 37.4206C197.16 37.5738 196.827 37.6504 196.456 37.6504ZM196.297 36.9873C196.527 36.9873 196.739 36.9343 196.933 36.8282C197.134 36.7162 197.293 36.5659 197.411 36.3773C197.529 36.1887 197.587 35.9735 197.587 35.7319C197.587 35.4843 197.531 35.2663 197.42 35.0776C197.308 34.8831 197.157 34.7328 196.969 34.6267C196.786 34.5148 196.58 34.4588 196.35 34.4588C196.031 34.4588 195.763 34.5472 195.545 34.724C195.327 34.9008 195.183 35.1307 195.112 35.4136V36.0325C195.159 36.3095 195.292 36.5394 195.51 36.7221C195.734 36.8989 195.996 36.9873 196.297 36.9873ZM199.212 35.6965C199.212 35.3311 199.298 35.001 199.469 34.7063C199.645 34.4116 199.887 34.1788 200.194 34.0079C200.5 33.8369 200.851 33.7515 201.246 33.7515C201.641 33.7515 201.988 33.8369 202.289 34.0079C202.59 34.1788 202.822 34.4116 202.987 34.7063C203.158 35.001 203.244 35.3311 203.244 35.6965C203.244 36.062 203.158 36.392 202.987 36.6867C202.822 36.9814 202.587 37.2172 202.28 37.394C201.98 37.565 201.629 37.6504 201.228 37.6504C200.839 37.6504 200.491 37.5709 200.185 37.4117C199.884 37.2526 199.645 37.0256 199.469 36.7309C199.298 36.4362 199.212 36.0914 199.212 35.6965ZM200.043 35.7054C200.043 35.9411 200.093 36.1563 200.194 36.3508C200.3 36.5394 200.441 36.6897 200.618 36.8017C200.795 36.9137 200.995 36.9697 201.219 36.9697C201.449 36.9697 201.652 36.9137 201.829 36.8017C202.006 36.6897 202.145 36.5394 202.245 36.3508C202.351 36.1563 202.404 35.9411 202.404 35.7054C202.404 35.4696 202.351 35.2574 202.245 35.0688C202.145 34.8743 202.006 34.721 201.829 34.6091C201.652 34.4912 201.449 34.4322 201.219 34.4322C200.995 34.4322 200.792 34.4912 200.609 34.6091C200.432 34.7269 200.294 34.8831 200.194 35.0776C200.093 35.2663 200.043 35.4755 200.043 35.7054ZM206.585 37.6504C206.273 37.6504 205.996 37.5915 205.754 37.4736C205.518 37.3498 205.324 37.1936 205.171 37.005V37.562H204.348V30.7101H205.171V34.3969C205.318 34.2024 205.524 34.0462 205.789 33.9283C206.055 33.8104 206.355 33.7515 206.691 33.7515C207.015 33.7515 207.313 33.831 207.584 33.9902C207.855 34.1434 208.073 34.3645 208.238 34.6533C208.403 34.9421 208.486 35.281 208.486 35.67C208.486 36.0885 208.398 36.4451 208.221 36.7398C208.044 37.0345 207.811 37.2614 207.522 37.4206C207.233 37.5738 206.921 37.6504 206.585 37.6504ZM206.408 36.9431C206.768 36.9431 207.063 36.8252 207.292 36.5895C207.528 36.3478 207.646 36.0413 207.646 35.67C207.646 35.4342 207.59 35.222 207.478 35.0334C207.372 34.8389 207.225 34.6857 207.036 34.5737C206.853 34.4617 206.644 34.4057 206.408 34.4057C206.102 34.4057 205.837 34.4882 205.613 34.6533C205.389 34.8183 205.241 35.0305 205.171 35.2898V36.0413C205.241 36.3007 205.386 36.5158 205.604 36.6867C205.822 36.8577 206.09 36.9431 206.408 36.9431ZM210.323 33.9018L210.385 34.7594C210.485 34.5531 210.624 34.3762 210.8 34.2289C210.977 34.0756 211.16 33.9607 211.349 33.8841C211.543 33.8016 211.711 33.7574 211.852 33.7515L211.817 34.5737C211.54 34.5619 211.295 34.6179 211.083 34.7417C210.871 34.8596 210.706 35.0216 210.588 35.2279C210.47 35.4342 210.411 35.6553 210.411 35.891V37.562H209.589V33.9018H210.323ZM214.455 37.6504C214.043 37.6504 213.683 37.5679 213.377 37.4029C213.076 37.2319 212.843 36.9991 212.678 36.7044C212.519 36.4097 212.439 36.0767 212.439 35.7054C212.439 35.3458 212.528 35.0187 212.705 34.724C212.887 34.4234 213.132 34.1876 213.439 34.0167C213.751 33.8399 214.096 33.7515 214.473 33.7515C214.956 33.7515 215.357 33.8929 215.675 34.1758C215.994 34.4588 216.212 34.8478 216.33 35.3429L213.43 36.3596C213.53 36.5423 213.671 36.6867 213.854 36.7928C214.037 36.893 214.243 36.9431 214.473 36.9431C214.638 36.9431 214.794 36.9137 214.942 36.8547C215.089 36.7958 215.23 36.7192 215.366 36.6248L215.746 37.2349C215.557 37.3587 215.348 37.4589 215.118 37.5355C214.894 37.6121 214.673 37.6504 214.455 37.6504ZM213.253 35.6612C213.247 35.7319 213.25 35.7997 213.262 35.8645L215.392 35.0776C215.31 34.9008 215.189 34.7446 215.03 34.6091C214.877 34.4735 214.67 34.4057 214.411 34.4057C214.075 34.4057 213.798 34.5236 213.58 34.7594C213.362 34.9951 213.253 35.2957 213.253 35.6612ZM217.696 34.5737C217.507 34.5737 217.348 34.5177 217.218 34.4057C217.095 34.2937 217.033 34.1257 217.033 33.9018V33.5481H217.66V33.6631C217.66 33.7633 217.684 33.8281 217.731 33.8576C217.778 33.887 217.855 33.9018 217.961 33.9018H220.304L218.226 36.8812H220.269V37.562H216.882L218.96 34.5737H217.696ZM222.973 37.6504C222.625 37.6504 222.31 37.5767 222.027 37.4294C221.75 37.282 221.529 37.0669 221.364 36.784C221.205 36.4952 221.125 36.1445 221.125 35.7319C221.125 35.3193 221.208 34.9657 221.373 34.6709C221.544 34.3762 221.771 34.1493 222.054 33.9902C222.342 33.831 222.658 33.7515 223 33.7515C223.33 33.7515 223.61 33.8222 223.84 33.9637C224.069 34.1051 224.249 34.276 224.379 34.4764L224.441 33.9018H225.201V37.562H224.379V36.9608C224.308 37.0551 224.205 37.1553 224.069 37.2614C223.94 37.3675 223.781 37.4589 223.592 37.5355C223.409 37.6121 223.203 37.6504 222.973 37.6504ZM223.194 36.9697C223.495 36.9697 223.751 36.8871 223.963 36.7221C224.175 36.5512 224.314 36.3213 224.379 36.0325V35.3075C224.308 35.0541 224.161 34.8448 223.937 34.6798C223.713 34.5148 223.456 34.4322 223.168 34.4322C222.944 34.4322 222.74 34.4853 222.558 34.5914C222.375 34.6975 222.227 34.8448 222.115 35.0334C222.009 35.222 221.956 35.4401 221.956 35.6877C221.956 35.9293 222.012 36.1474 222.124 36.3419C222.236 36.5305 222.387 36.6838 222.575 36.8017C222.764 36.9137 222.97 36.9697 223.194 36.9697ZM227.384 36.784C227.248 37.0964 227.116 37.4058 226.986 37.7123C226.862 38.0188 226.739 38.3253 226.615 38.6318H225.934C226.052 38.3253 226.167 38.0188 226.279 37.7123C226.397 37.4058 226.515 37.0964 226.633 36.784H227.384Z" fill="#FBFBFB"/>
<path d="M109.631 20.1632C109.631 19.6524 109.724 19.2202 109.911 18.8665C110.097 18.5129 110.323 18.2231 110.588 17.9971C110.864 17.7614 111.114 17.5747 111.34 17.4372C111.124 17.2112 110.937 16.9804 110.78 16.7446C110.633 16.499 110.559 16.1552 110.559 15.7131C110.559 15.2711 110.682 14.8781 110.927 14.5343C111.183 14.1905 111.522 13.9253 111.944 13.7386C112.367 13.5421 112.833 13.4439 113.344 13.4439C113.855 13.4439 114.321 13.5421 114.744 13.7386C115.176 13.9253 115.52 14.1807 115.775 14.5049C116.041 14.829 116.173 15.1974 116.173 15.61C116.173 16.1012 116.09 16.4696 115.923 16.7151C115.765 16.9607 115.569 17.2014 115.333 17.4372C115.569 17.5845 115.815 17.7761 116.07 18.0119C116.335 18.2476 116.561 18.5423 116.748 18.896C116.934 19.2398 117.028 19.6622 117.028 20.1632C117.028 20.733 116.866 21.2684 116.542 21.7694C116.217 22.2704 115.775 22.678 115.215 22.9924C114.665 23.2969 114.032 23.4492 113.315 23.4492C112.597 23.4492 111.959 23.2969 111.399 22.9924C110.849 22.678 110.417 22.2704 110.102 21.7694C109.788 21.2684 109.631 20.733 109.631 20.1632ZM112.637 15.9784C112.637 16.1749 112.715 16.3468 112.872 16.4941C113.039 16.6415 113.211 16.7151 113.388 16.7151C113.565 16.7151 113.732 16.6415 113.889 16.4941C114.046 16.3468 114.125 16.1749 114.125 15.9784C114.125 15.7819 114.046 15.61 113.889 15.4626C113.742 15.3055 113.575 15.2269 113.388 15.2269C113.202 15.2269 113.03 15.3055 112.872 15.4626C112.715 15.61 112.637 15.7819 112.637 15.9784ZM111.826 20.0748C111.826 20.507 111.974 20.8803 112.268 21.1947C112.563 21.4992 112.917 21.6515 113.329 21.6515C113.614 21.6515 113.874 21.5827 114.11 21.4452C114.346 21.2978 114.533 21.1063 114.67 20.8705C114.818 20.6249 114.891 20.3597 114.891 20.0748C114.891 19.6524 114.749 19.2889 114.464 18.9844C114.179 18.67 113.83 18.5079 113.418 18.4981C113.143 18.4883 112.882 18.5521 112.637 18.6897C112.401 18.8272 112.204 19.0188 112.047 19.2644C111.9 19.5001 111.826 19.7703 111.826 20.0748ZM117.473 22.2704C117.473 21.9658 117.581 21.7104 117.797 21.5041C118.023 21.2978 118.269 21.1947 118.534 21.1947C118.78 21.1947 119.011 21.2978 119.227 21.5041C119.453 21.7104 119.566 21.9658 119.566 22.2704C119.566 22.5945 119.453 22.8549 119.227 23.0513C119.011 23.238 118.78 23.3313 118.534 23.3313C118.269 23.3313 118.023 23.238 117.797 23.0513C117.581 22.8549 117.473 22.5945 117.473 22.2704ZM124.412 23.346C123.665 23.346 122.977 23.1692 122.349 22.8156C121.73 22.4619 121.234 21.9167 120.86 21.1799C120.487 20.4432 120.301 19.5149 120.301 18.395C120.301 17.1376 120.477 16.1503 120.831 15.4332C121.194 14.7062 121.686 14.1905 122.305 13.886C122.923 13.5814 123.626 13.4341 124.412 13.4439C125.168 13.4341 125.856 13.6109 126.475 13.9744C127.094 14.328 127.59 14.8732 127.963 15.61C128.336 16.3369 128.523 17.2653 128.523 18.395C128.523 19.564 128.331 20.5169 127.948 21.2536C127.575 21.9806 127.079 22.511 126.46 22.845C125.841 23.179 125.158 23.346 124.412 23.346ZM124.397 21.2978C124.888 21.2978 125.271 21.1701 125.546 20.9147C125.821 20.6495 126.013 20.2909 126.121 19.839C126.239 19.3872 126.298 18.8861 126.298 18.336C126.298 17.7957 126.239 17.3144 126.121 16.892C126.013 16.4696 125.821 16.1356 125.546 15.89C125.271 15.6346 124.888 15.5069 124.397 15.5069C123.916 15.5069 123.537 15.6346 123.262 15.89C122.987 16.1454 122.796 16.4892 122.688 16.9214C122.58 17.3537 122.526 17.8399 122.526 18.3802C122.526 18.9205 122.58 19.4117 122.688 19.8538C122.796 20.2958 122.987 20.6495 123.262 20.9147C123.537 21.1701 123.916 21.2978 124.397 21.2978ZM133.664 23.346C132.918 23.346 132.23 23.1692 131.601 22.8156C130.983 22.4619 130.487 21.9167 130.113 21.1799C129.74 20.4432 129.553 19.5149 129.553 18.395C129.553 17.1376 129.73 16.1503 130.084 15.4332C130.447 14.7062 130.938 14.1905 131.557 13.886C132.176 13.5814 132.879 13.4341 133.664 13.4439C134.421 13.4341 135.108 13.6109 135.727 13.9744C136.346 14.328 136.842 14.8732 137.216 15.61C137.589 16.3369 137.776 17.2653 137.776 18.395C137.776 19.564 137.584 20.5169 137.201 21.2536C136.828 21.9806 136.332 22.511 135.713 22.845C135.094 23.179 134.411 23.346 133.664 23.346ZM133.65 21.2978C134.141 21.2978 134.524 21.1701 134.799 20.9147C135.074 20.6495 135.266 20.2909 135.374 19.839C135.492 19.3872 135.551 18.8861 135.551 18.336C135.551 17.7957 135.492 17.3144 135.374 16.892C135.266 16.4696 135.074 16.1356 134.799 15.89C134.524 15.6346 134.141 15.5069 133.65 15.5069C133.168 15.5069 132.79 15.6346 132.515 15.89C132.24 16.1454 132.048 16.4892 131.94 16.9214C131.832 17.3537 131.778 17.8399 131.778 18.3802C131.778 18.9205 131.832 19.4117 131.94 19.8538C132.048 20.2958 132.24 20.6495 132.515 20.9147C132.79 21.1701 133.168 21.2978 133.65 21.2978ZM142.917 23.346C142.171 23.346 141.483 23.1692 140.854 22.8156C140.235 22.4619 139.739 21.9167 139.366 21.1799C138.993 20.4432 138.806 19.5149 138.806 18.395C138.806 17.1376 138.983 16.1503 139.336 15.4332C139.7 14.7062 140.191 14.1905 140.81 13.886C141.429 13.5814 142.131 13.4341 142.917 13.4439C143.674 13.4341 144.361 13.6109 144.98 13.9744C145.599 14.328 146.095 14.8732 146.468 15.61C146.842 16.3369 147.028 17.2653 147.028 18.395C147.028 19.564 146.837 20.5169 146.454 21.2536C146.08 21.9806 145.584 22.511 144.965 22.845C144.346 23.179 143.664 23.346 142.917 23.346ZM142.902 21.2978C143.394 21.2978 143.777 21.1701 144.052 20.9147C144.327 20.6495 144.518 20.2909 144.626 19.839C144.744 19.3872 144.803 18.8861 144.803 18.336C144.803 17.7957 144.744 17.3144 144.626 16.892C144.518 16.4696 144.327 16.1356 144.052 15.89C143.777 15.6346 143.394 15.5069 142.902 15.5069C142.421 15.5069 142.043 15.6346 141.768 15.89C141.493 16.1454 141.301 16.4892 141.193 16.9214C141.085 17.3537 141.031 17.8399 141.031 18.3802C141.031 18.9205 141.085 19.4117 141.193 19.8538C141.301 20.2958 141.493 20.6495 141.768 20.9147C142.043 21.1701 142.421 21.2978 142.902 21.2978ZM147.764 22.2704C147.764 21.9658 147.872 21.7104 148.088 21.5041C148.314 21.2978 148.56 21.1947 148.825 21.1947C149.071 21.1947 149.301 21.2978 149.518 21.5041C149.743 21.7104 149.856 21.9658 149.856 22.2704C149.856 22.5945 149.743 22.8549 149.518 23.0513C149.301 23.238 149.071 23.3313 148.825 23.3313C148.56 23.3313 148.314 23.238 148.088 23.0513C147.872 22.8549 147.764 22.5945 147.764 22.2704ZM154.703 23.346C153.956 23.346 153.268 23.1692 152.64 22.8156C152.021 22.4619 151.525 21.9167 151.151 21.1799C150.778 20.4432 150.591 19.5149 150.591 18.395C150.591 17.1376 150.768 16.1503 151.122 15.4332C151.485 14.7062 151.976 14.1905 152.595 13.886C153.214 13.5814 153.917 13.4341 154.703 13.4439C155.459 13.4341 156.147 13.6109 156.765 13.9744C157.384 14.328 157.88 14.8732 158.254 15.61C158.627 16.3369 158.814 17.2653 158.814 18.395C158.814 19.564 158.622 20.5169 158.239 21.2536C157.866 21.9806 157.37 22.511 156.751 22.845C156.132 23.179 155.449 23.346 154.703 23.346ZM154.688 21.2978C155.179 21.2978 155.562 21.1701 155.837 20.9147C156.112 20.6495 156.304 20.2909 156.412 19.839C156.53 19.3872 156.589 18.8861 156.589 18.336C156.589 17.7957 156.53 17.3144 156.412 16.892C156.304 16.4696 156.112 16.1356 155.837 15.89C155.562 15.6346 155.179 15.5069 154.688 15.5069C154.206 15.5069 153.828 15.6346 153.553 15.89C153.278 16.1454 153.087 16.4892 152.978 16.9214C152.87 17.3537 152.816 17.8399 152.816 18.3802C152.816 18.9205 152.87 19.4117 152.978 19.8538C153.087 20.2958 153.278 20.6495 153.553 20.9147C153.828 21.1701 154.206 21.2978 154.688 21.2978ZM163.955 23.346C163.209 23.346 162.521 23.1692 161.892 22.8156C161.273 22.4619 160.777 21.9167 160.404 21.1799C160.031 20.4432 159.844 19.5149 159.844 18.395C159.844 17.1376 160.021 16.1503 160.375 15.4332C160.738 14.7062 161.229 14.1905 161.848 13.886C162.467 13.5814 163.169 13.4341 163.955 13.4439C164.712 13.4341 165.399 13.6109 166.018 13.9744C166.637 14.328 167.133 14.8732 167.506 15.61C167.88 16.3369 168.066 17.2653 168.066 18.395C168.066 19.564 167.875 20.5169 167.492 21.2536C167.118 21.9806 166.622 22.511 166.003 22.845C165.385 23.179 164.702 23.346 163.955 23.346ZM163.941 21.2978C164.432 21.2978 164.815 21.1701 165.09 20.9147C165.365 20.6495 165.556 20.2909 165.665 19.839C165.782 19.3872 165.841 18.8861 165.841 18.336C165.841 17.7957 165.782 17.3144 165.665 16.892C165.556 16.4696 165.365 16.1356 165.09 15.89C164.815 15.6346 164.432 15.5069 163.941 15.5069C163.459 15.5069 163.081 15.6346 162.806 15.89C162.531 16.1454 162.339 16.4892 162.231 16.9214C162.123 17.3537 162.069 17.8399 162.069 18.3802C162.069 18.9205 162.123 19.4117 162.231 19.8538C162.339 20.2958 162.531 20.6495 162.806 20.9147C163.081 21.1701 163.459 21.2978 163.941 21.2978ZM173.208 23.346C172.461 23.346 171.774 23.1692 171.145 22.8156C170.526 22.4619 170.03 21.9167 169.657 21.1799C169.283 20.4432 169.097 19.5149 169.097 18.395C169.097 17.1376 169.274 16.1503 169.627 15.4332C169.991 14.7062 170.482 14.1905 171.101 13.886C171.72 13.5814 172.422 13.4341 173.208 13.4439C173.964 13.4341 174.652 13.6109 175.271 13.9744C175.89 14.328 176.386 14.8732 176.759 15.61C177.132 16.3369 177.319 17.2653 177.319 18.395C177.319 19.564 177.128 20.5169 176.744 21.2536C176.371 21.9806 175.875 22.511 175.256 22.845C174.637 23.179 173.955 23.346 173.208 23.346ZM173.193 21.2978C173.684 21.2978 174.068 21.1701 174.343 20.9147C174.618 20.6495 174.809 20.2909 174.917 19.839C175.035 19.3872 175.094 18.8861 175.094 18.336C175.094 17.7957 175.035 17.3144 174.917 16.892C174.809 16.4696 174.618 16.1356 174.343 15.89C174.068 15.6346 173.684 15.5069 173.193 15.5069C172.712 15.5069 172.334 15.6346 172.059 15.89C171.784 16.1454 171.592 16.4892 171.484 16.9214C171.376 17.3537 171.322 17.8399 171.322 18.3802C171.322 18.9205 171.376 19.4117 171.484 19.8538C171.592 20.2958 171.784 20.6495 172.059 20.9147C172.334 21.1701 172.712 21.2978 173.193 21.2978Z" fill="#FFADC7"/>
</svg>
