<svg width="351" height="384" viewBox="0 0 351 384" fill="none" xmlns="http://www.w3.org/2000/svg">
<g clip-path="url(#clip0_51:150)">
<path d="M17.5953 142.867L16.4044 142.843L16.7136 141.758L16.5934 141.26L16.4502 140.966L15.7345 140.547L15.6544 140.277L15.809 139.587L15.3681 138.418L14.744 138.034L11.5378 137.285L7.33529 137.171L7.48988 136.835L8.91552 135.48L9.42508 134.743L9.59112 134.023L9.46516 133.286L9.07583 132.74L8.60062 132.476L7.63874 130.708L7.19788 130.444L6.68259 130.33L6.03561 129.653L5.50887 128.226L4.36378 127.308L3.80268 125.138L3.30457 124.155L2.22818 123.507L2.18238 122.806L2.64614 122.866L2.88661 122.554L2.92669 122.152L2.81218 121.9L1.59838 121.343L1.39227 120.947L0.149841 119.814L0.172743 119.592L0.527721 119.562L0.813994 118.771L0.808269 117.985L2.53163 117.751L2.8179 117.517L2.69194 116.708L2.02207 115.767L12.2993 120.251L25.8457 123.645L32.7964 125.528L47.9345 134.023L64.2578 141.296L65.9583 142.051L65.7865 142.339L64.8876 142.735L63.691 143.688L62.0535 145.361L61.1088 145.877L60.7309 145.769L59.8549 145.877L59.8263 146.212L58.727 146.992L57.5361 147.585L56.7116 148.683L56.4597 149.39L56.1105 149.558L55.4406 149.108L55.0055 149.03L53.6485 149.06L53.2592 149.216L52.8985 149.486L52.6924 150.002L51.2954 152.088L49.1369 152.837L48.6559 153.251L47.5452 153.557L46.9555 153.575L47.0013 152.31L46.2226 152.43L44.1901 151.968L41.1899 151.686L38.2757 151.914L37.8978 151.566L36.5981 151.464L34.5598 152.562L32.9968 152.933L32.0349 152.532L31.2334 151.668L30.2944 152.364L30.3173 141.842L30.3459 141.182L30.615 140.756L30.6551 139.347L30.5062 138.82L31.0616 138.112L31.3364 137.429L30.6723 137.549L28.9718 139.102L28.0557 139.707L26.8763 141.134L25.7598 141.536L25.3877 142.183L24.3514 142.777L17.5953 142.867Z" fill="#C8B2D8"/>
<path d="M321.874 138.387L321.76 137.949L320.947 137.481L320.689 137.535L320.105 137.361L319.796 136.522L320.552 135.88L320.918 135.227L322.161 134.771L323.523 132.798L323.575 132.384L324.044 132.025L324.617 132.756L325.573 132.936L326.191 132.864L327.651 134.075L328.739 135.347L329.758 135.976L330.852 136.264L332.283 135.874L334.081 136.048L334.751 135.982L335.816 135.347L336.48 135.377L337.516 134.711L338.764 133.338L338.833 133.068L339.721 132.325L340.866 132.181L342.148 132.69L343.614 131.917L344.456 131.803L345.555 132.289L347.215 132.45L347.37 132.576L345.778 135.55L343.173 138.626L341.123 140.773L339.383 143.519L337.476 145.246L336.904 146.463L336.148 147.537L335.804 146.751L333.749 145.414L333.486 145.396L332.535 144.922L331.528 144.053L330.783 142.584L327.68 140.743L325.573 140.173L321.874 138.387Z" fill="#C8B2D8"/>
<path d="M95.0909 28.6599L95.5031 29.1276L95.9325 29.3314L96.2818 29.3374L96.9288 29.0856L97.2895 29.1516L97.3238 29.7272L98.0166 30.4287L98.572 30.6505L99.0758 30.5246L99.8545 30.5905L100.971 31.1601L101.251 31.5559L100.73 33.5464L100.324 34.4458L101.887 36.6882L102.837 39.5422L102.946 40.8972L103.444 41.5687L103.473 41.8385L102.545 42.7139L102.752 43.6673L103.129 44.6146L102.689 46.4373L102.362 47.0129L102.528 49.9988L103.032 51.2998L103.731 51.8035L104.063 52.3431L104.71 54.9392L104.675 55.287L104.023 56.0784L102.969 55.8806L102.889 56.5641L105.757 59.2142L106.055 59.2382L107.177 60.0236L108.025 61.0129L108.62 62.2361L108.924 62.278L109.691 62.0262L111.042 62.6498L110.79 61.3847L111.219 60.0116L111.363 58.9744L111.151 57.8951L111.62 56.1144L112.204 55.3589L112.937 54.9452L114.134 54.5195L114.449 53.9859L115.365 53.9499L116.985 54.5075L118.056 55.7307L118.582 57.2356L119.624 57.3735L120.34 57.0977L121.147 56.2523L122.31 55.9225L122.55 55.6887L122.562 55.3709L121.909 54.5255L121.777 54.0878L121.84 53.6921L122.499 52.1093L122.539 51.4317L123.489 49.615L124.823 47.6604L124.806 47.2527L135.392 47.2947L135.621 50.2086L135.375 51.078L135.478 52.439L135.616 52.8467L136.589 53.3564L136.692 53.6022L136.492 54.0159L136.463 55.281L137.511 56.4742L137.717 56.5881L138.118 56.4801L139.171 57.2176L139.486 58.3148L139.509 58.8724L139.681 59.1423L142.337 61.4026L144.96 62.9256L145.32 63.4652L146.093 64.1187L147.17 64.5204L148.527 65.3059L149.821 65.6956L150.599 65.7855L151.355 66.2772L151.401 66.6429L152.128 67.4464L153.674 68.3097L154.304 69.6108L155.374 70.0845L155.861 69.7187L156.651 69.5089L156.76 69.7967L156.685 70.2644L157.722 71.2656L140.603 109.782L140.156 110.568L139.326 111.245L138.994 111.827L138.977 112.504L139.446 113.901L139.664 114.243L140.276 114.591L141.181 115.526L141.547 116.282L141.633 117.457L141.959 117.799L141.284 118.518L141.169 118.884L141.135 119.339L141.33 119.843L141.175 120.449L140.488 121.54L139.996 121.924L139.755 122.433L139.812 122.943L140.19 123.764L140.454 124.928L139.664 127.458L138.988 130.587L138.295 131.025L110.899 131.217L110.922 130.797L110.716 130.57L109.92 130.402L108.821 131.049L108.511 132.092L108.122 132.206L106.267 131.319L105.878 129.592L105.523 129.472L104.962 129.55L104.698 129.424L103.983 127.464L102.528 126.876L101.767 126.115L101.309 124.969L101.051 124.676L99.8201 123.998L93.6423 124.034L92.8522 125.569L91.8674 125.869L91.919 126.57L91.7701 126.702L90.3502 127.02L89.6689 127.973L89.6402 128.375L90.1555 128.795L90.2529 129.065L90.0468 129.676L89.583 130.366L88.4035 131.091L88.3406 132.176L88.478 133.052L86.2622 132.776L85.0427 133.004L84.3556 133.645L83.3308 133.585L82.8499 133.256L82.5865 133.244L81.5845 133.999L81.2811 134.503L81.4299 135.552L79.9757 137.447L79.5863 137.495L79.197 137.177L78.8306 135.822L78.613 135.768L77.5595 136.379L76.8152 137.105L76.0308 137.339L75.59 137.261L74.9716 137.561L74.7369 137.878L74.6624 138.31L73.9639 138.784L73.7521 138.796L72.4295 137.399L72.0173 137.177L70.3741 137.375L68.1068 137.219L68.1984 137.992L68.1125 138.328L67.2251 139.413L66.1258 139.761L64.2593 141.296L47.936 134.023L32.7979 125.527L25.8472 123.644L12.3007 120.251L2.02354 115.766L1.98346 115.376L2.38424 113.626L3.08275 112.786L5.89967 110.706L7.19363 110.562L7.46272 110.382L8.02382 109.447L8.06962 108.829L7.07339 106.137L7.29096 105.423L7.96656 104.11L8.69942 103.319L9.22617 102.569L9.46663 101.982L9.6384 100.939L9.47236 100.147L9.85597 98.924L10.0335 97.539L10.4514 97.0893L12.5469 96.112L13.8008 95.3745L14.4592 94.751L14.7112 93.9115L15.1577 93.6897L15.965 93.6238L16.9097 93.0662L18.9365 91.4293L20.3221 91.1715L21.1867 91.3454L23.5856 90.6139L24.4444 90.1522L25.4865 89.9364L27.393 90.1642L28.1374 89.2109L28.4981 88.3415L29.1221 87.9758L30.3474 88.0957L30.7138 88.4195L31.4696 88.2756L32.0994 87.8319L33.0784 87.9038L33.2559 88.2216L33.2445 88.9291L34.1663 89.7025L35.7866 89.7505L36.1186 89.5107L36.382 89.043L36.319 88.8092L36.9889 85.8593L40.825 63.5731L41.4891 61.8223L40.9223 58.8485L40.991 58.6926L40.2467 58.063L39.3993 56.4142L39.3764 56.1204L39.7486 55.287L39.4509 54.2198L39.239 53.9799L38.2657 53.6262L36.5309 52.2172L35.4201 50.8501L35.5347 43.9491L37.7619 43.7932L38.7638 43.0917L40.7677 42.54L42.3021 43.5953L43.0007 43.6613L43.7278 43.4034L43.4472 42.3902L43.619 41.3589L42.8346 40.0998L42.5083 39.776L41.8498 39.4163L40.9853 39.734L39.3879 39.3683L37.3439 39.4223L37.3095 33.4865L37.8592 33.5105L38.6149 33.1627L39.9203 32.803L41.5464 33.3246L52.4419 33.3606L52.1786 32.9649L51.7263 32.8809L51.5087 32.1614L52.0526 31.0042L52.8713 31.2441L53.2206 32.1554L53.7187 32.9469L54.0966 33.1567L54.5718 33.1627L55.4936 32.797L56.6043 31.5439L56.7876 31.0402L57.509 30.2967L58.969 29.4633L59.7075 29.7391L60.3774 31.286L61.3049 32.4792L61.7286 33.2586L62.1065 34.3259L62.2382 35.2552L61.9576 37.4317L62.0722 38.4869L63.9043 38.0372L68.6622 42.2702L69.1145 42.4381L70.5458 42.564L71.8627 41.9645L72.836 40.9452L74.0441 40.2497L75.298 40.1837L75.6186 40.3576L76.0595 41.0051L76.048 41.5867L75.4125 42.606L75.6243 43.1936L75.9564 43.3555L76.7179 42.9238L77.0385 42.3782L77.1702 41.6047L77.7427 40.9092L78.0118 40.7713L78.5844 40.8792L78.8993 40.7713L79.134 40.3756L79.3974 38.9906L79.6894 38.7687L80.5539 38.5529L82.2315 37.4916L82.7869 37.8214L83.3193 37.6475L84.2354 37.024L84.8194 36.0587L86.0275 35.3332L87.1898 35.6629L88.541 34.6736L88.8559 34.182L89.1078 32.5871L89.0906 31.8137L89.5315 31.2621L90.1212 31.0102L91.1174 30.9983L91.8846 30.7644L93.0641 29.8051L93.6137 29.5833L94.9191 29.4034L95.0909 28.6599Z" fill="#C8B2D8"/>
<path d="M197.668 60.0838L197.13 60.0478L196.689 60.2517L195.945 60.3236L194.347 59.9159L193.517 59.2984L193.271 58.399L192.2 57.5656L192.137 56.7862L192.257 56.3724L192.08 55.4251L191.891 55.1433L191.347 55.0294L191.112 54.4658L191.158 53.0088L189.48 51.0422L189.034 51.2581L188.564 51.1442L187.706 49.0576L187.78 48.1103L187.442 47.0251L187.087 46.6893L186.704 45.784L186.595 44.5189L186.841 42.6362L186.744 42.4383L185.272 42.0007L184.116 40.6456L183.681 38.9488L183.789 38.5171L184.179 38.3792L183.898 37.6717L183.509 37.6897L181.883 36.0949L181.345 36.1788L181.127 36.4306L180.366 36.5146L179.885 36.3527L179.427 35.7651L178.774 35.2614L178.093 35.1895L177.812 34.422L177.428 33.9424L176.323 33.3128L175.585 33.019L173.644 32.7972L173.026 32.9711L172.356 32.9591L172.178 32.6353L172.041 31.7719L172.184 29.0499L172.539 28.2704L172.327 26.8914L171.972 26.5496L172.172 26.4237L172.739 26.6036L172.734 27.0893L172.567 27.1972L172.762 27.7788L173.604 27.7428L174.073 27.8807L174.274 28.4203L174.755 28.846L176.043 29.3137L177.927 29.7633L179.507 28.6961L179.707 28.2404L180.698 27.5389L181.173 27.3651L181.568 27.9287L183.12 28.4923L183.738 28.4203L184.723 27.8147L184.791 27.5629L184.975 27.5809L185.81 28.3603L185.696 28.882L187.053 28.78L187.345 29.0798L187.889 29.1818L188.244 29.1758L188.765 28.888L189.721 27.9886L190.74 27.3291L191.742 25.9501L191.954 25.3505L191.839 25.0267L193.631 21.1295L193.694 20.0383L194.33 19.2588L194.748 19.1449L196.809 15.6734L196.941 14.9839L197.422 14.2644L198.447 13.335L198.807 12.3397L200.015 11.6562L200.284 11.1046L200.88 10.7569L201.201 11.6322L201.704 12.4477L200.748 9.5697L200.708 8.79625L200.811 8.59839L202.741 10.0494L203.393 10.7748L203.914 11.5063L204.212 12.2198L204.229 13.1671L204.481 13.353L204.664 13.0652L204.882 13.0053L205.002 13.2451L205.122 17.9757L205.5 20.2961L207.052 23.9235L208.575 29.2837L210.476 32.2816L211.054 32.4914L212.926 32.4434L214.518 33.007L215.257 33.5167L215.697 35.1056L215.606 37.1021L214.867 37.6777L213.877 37.9355L213.659 38.1334L214.684 38.0435L215.279 37.7916L215.44 37.9295L215.508 38.2833L215.411 38.721L212.531 41.1553L211.861 42.4144L210.63 43.2598L209.52 45.4902L207.853 47.5887L207.453 47.8645L206.915 47.8105L206.084 48.1223L204.893 49.909L204.126 49.951L203.697 50.4906L202.855 51.4979L202.3 52.829L201.659 53.9502L201.178 54.3399L199.454 56.4084L199.248 57.8474L199.345 58.9266L198.229 60.0119L197.668 60.0838ZM211.043 31.9098L210.785 31.712L210.155 30.5968L210.195 30.0691L210.327 29.8233L211.277 29.5535L211.524 29.7873L211.999 31.1484L211.432 31.8079L211.043 31.9098ZM212.468 42.4683L212.239 42.3184L212.193 41.8927L212.829 41.2332L213.333 41.1433L214.048 41.2872L214.312 41.2212L214.564 40.8375L214.592 41.1912L214.037 42.0546L213.47 42.3544L212.468 42.4683ZM214.438 40.7475L213.991 40.6096V40.2739L214.403 39.6503L215.119 39.5904L215.222 39.8002L215.165 40.106L214.438 40.7475ZM210.321 29.7034L209.886 29.4036L210.035 28.906L210.539 28.804L211.031 28.9959L211.037 29.4336L210.321 29.7034Z" fill="#C8B2D8"/>
<path d="M302.168 219.348L301.962 218.851L302.351 218.041L302.346 217.723L302.042 217.1L299.678 215.271L299.592 214.965L299.718 214.06L299.391 213.323L299.019 213.466L298.905 213.736L298.71 213.844L298.584 213.694L298.887 211.056L299.357 209.078L299.826 208.55L301.241 208.694L301.825 208.268V208.016L301.504 207.405L301.596 205.816L304.435 203.286L305.277 201.439L305.037 200.738L304.59 200.126L304.08 200.09L303.662 199.862L302.042 198.381L300.828 198.393L299.574 198.033L298.275 197.386L296.712 197.05L295.578 196.966L294.822 197.56L293.981 197.86L292.486 197.59L292.16 197.716L291.908 195.341L288.175 191.624L287.958 191.516L285.444 192.254L284.568 191.51L284.276 191.636L283.744 191.504L282.289 190.773L281.047 189.801L280.486 189.909L277.995 187.733L277.365 187.409L275.802 186.959L274.789 187.109L273.713 187.649L273.249 188.32L272.882 188.428L269.831 187.547L269.481 187.253L269.333 186.354L269.413 185.82L270.151 184.177L269.659 183.901L268.354 183.59L267.105 183.566L266.418 183.266L265.393 183.218L263.201 184.165L260.762 185.982L260.395 186.648L258.466 187.769L257.309 188.009L256.765 188.716L255.729 189.645L254.91 189.957L254.338 189.867L253.278 191.414L252.683 191.876L251.463 191.648L251.051 191.726L250.656 192.325L249.889 192.877L249.66 192.733L250.479 190.677L250.187 189.232L251.034 188.051L251.177 187.589L251.045 186.827L250.662 185.796L250.719 185.394L251.126 184.543L251.097 184.267L249.259 182.696L248.292 180.622L247.937 178.511L247.965 177.582L248.652 175.286L249.563 174.668L249.694 174.44L249.729 173.877L248.795 173.373L248.732 173.175L249.007 171.664L249.826 171.029L249.815 170.807L248.257 169.332L248.234 168.774L249.013 167.347L248.99 166.706L248.893 166.454L248.057 166.16L247.519 165.77L247.318 165.015L247.353 163.264L247.461 162.755L248.578 161.753L249.231 161.501L249.78 161.07L249.614 160.692L249.282 160.38L248.755 160.206L248.166 160.314L247.965 160.116L247.914 159.817L248.154 159.241L249.322 158.749L249.643 158.48L249.62 158.024L248.543 157.436L246.494 157.035L245.429 155.859L245.297 155.308L245.583 154.612L246.162 154.175L247.032 152.088L247.547 151.722L248.125 151.56L248.326 151.333L247.587 150.253L247.696 150.032L249.534 148.461L251.721 147.25L252.042 146.968L252.168 146.38L252.563 145.99L253.897 145.978L254.721 146.782L255.099 147.405L255.403 148.73L256.41 150.223L258.803 151.339L259.834 151.027L261.042 151.135L261.231 151.009L261.66 150.139L262.313 149.918L262.697 149.396L263.367 148.862L264.632 148.413L265.393 148.515L266.241 148.832L267.014 148.581L268.714 147.13L270.403 144.102L270.815 143.586L270.953 143.035L271.125 141.5L271.056 140.804L269.773 138.148L269.802 137.59L271.657 136.601L272.774 136.589L273.632 136.865L273.867 137.423L274.05 137.53L275.264 137.273L276.06 136.949L276.822 137.177L277.801 137.77L277.726 138.16L277.835 138.334L278.304 138.502L280.022 138.436L280.864 138.052L281.837 137.992L282.306 137.261L283.171 136.457L284.734 136.253L285.175 136.037L285.639 135.45L286.881 135.456L287.236 135.834L287.414 135.864L288.479 134.778L288.421 133.339L289.561 133.112L290.013 133.22L290.614 132.824L291.473 131.439L291.736 130.749L292.246 130.989L292.91 130.827L294.17 131.001L295.784 131.834L296.036 132.14L296.002 133.777L296.414 134.94L297.679 135.486L297.834 136.685L297.307 137.692L298.355 138.064L298.905 137.932L299.374 137.381L301.017 136.853L301.458 134.706L301.744 134.185L302.174 134.089L302.62 134.407L302.981 134.437L304.35 133.825L304.979 133.082L305.077 132.728L304.934 131.912L305.1 131.763L306.382 131.493L306.823 130.264L307.768 130L309.216 129.124L309.554 129.064L310.407 129.4L310.882 130.264L311.661 130.749L313.012 131.217L314.724 131.457L315.629 132.146L315.938 133.136L316.161 133.297L316.407 133.208L316.573 132.158L316.82 131.894L317.392 131.888L317.65 132.08L317.661 132.458L317.306 132.986L317.564 133.483L317.85 133.705L319.052 134.221L319.064 134.784L319.762 136.613L320.072 137.452L320.656 137.626L320.913 137.572L321.732 138.046L321.847 138.478L321.463 139.173L321.583 140.456L322.316 141.955L323.455 143.124L323.885 143.814L323.839 145.685L323.461 146.656L323.41 147.184L323.845 148.832L323.673 149.18L323.278 149.51L321.818 150.109L321.171 149.66L320.192 149.654L320.009 149.834L319.671 150.781L319.682 151.243L320.226 152.202L320.856 152.598L321.154 153.491L321.972 154.396L322.058 154.63L321.984 155.482L321.789 155.716L321.858 155.967L322.196 156.279L323.301 156.831L323.576 157.256L323.885 157.46L324.772 157.844L326.427 157.316L326.793 157.304L326.999 157.55L324.663 162.844L322.471 165.956L321.881 167.353L319.001 170.795L317.598 171.55L317.1 171.544L317.272 170.687L317.484 170.597L317.564 169.937L317.306 168.78L316.236 168.63L315.989 167.851L315.6 167.401L315.388 167.761L315.125 169.158L314.839 169.68L314.524 169.907L314.203 169.734L313.922 168.69L313.985 168.498L314.163 168.42L314.146 168.187L313.648 168.96L314.18 169.973L314.444 170.111L314.655 170.021L315.314 170.177L315.05 171.262L314.358 171.952L314.214 173.043L313.499 173.625L313.298 174.026L313.184 174.53L313.287 175.04L312.514 174.806L312.394 175.04L312.188 176.551L312.394 176.119L312.823 176.245L312.961 176.569L312.829 176.815L312.863 177.186L313.035 177.366L313.224 177.966L312.629 179.471L312.955 181.533L312.64 181.827L312.314 181.695L312.233 182.373L312.571 182.648L313.264 181.617L312.995 180.292L313.464 179.926L313.608 180.25L313.573 181.305L313.024 182.87L312.6 186.126L312.308 187.211L312.422 188.692L312.869 190.401L312.978 193.123L313.476 196.966L314.043 199.017L312.777 203.01L312.004 206.997L311.735 207.603L311.644 209.317L311.037 211.548L310.985 212.945L311.209 215.595L311.718 216.62L310.436 218.407L309.399 218.809L308.861 219.192L307.304 221.525L306.978 222.748L302.346 219.666L302.168 219.348ZM314.924 172.582L314.793 171.862L315.216 171.616L315.823 170.993L315.915 170.609L315.703 170.171L316.138 170.255L316.608 170.885L316.579 171.203L314.924 172.582ZM313.476 176.689L313.115 176.671L313.121 176.269L313.27 176.053L312.812 175.921L312.571 175.681L312.646 175.04L313.716 174.95L313.808 175.07L313.871 175.747L313.476 176.689Z" fill="#C8B2D8"/>
<path d="M328.667 94.3487L325.868 95.302L324.373 96.5071L322.484 100.518L322.003 101.19L321.505 101.532L321.133 102.533L321.219 102.977L320.417 104.44L319.581 105.345L319.255 106.004L318.665 106.16L318.219 105.855L317.927 105.896L317.446 106.424L316.639 107.773L316.444 108.954L316.81 109.056L317.188 108.828L317.142 109.152L316.661 109.842L316.072 111.64L316.369 112.426L315.992 113.211L315.368 113.589L315.27 113.817L315.202 114.374L315.339 114.62L315.671 114.794L315.871 115.226L315.86 116.221L316.57 116.755L316.965 116.803L317.16 117.516L316.238 119.609L315.557 120.28L315.654 120.43L314.744 120.724L314.131 121.222L313.249 122.595L312.305 122.625L311.944 121.641L311.497 121.3L310.719 121.012L310.14 120.37L309.877 119.777L308.829 119.279L307.198 118.14L305.434 117.888L304.696 117.948L303.471 118.428L302.537 118.541L302.028 118.398L299.205 118.278L299.24 117.486L298.85 117.079L298.805 116.497L299.457 114.632L300.316 113.283L300.322 112.87L299.881 112.174L298.415 111.892L297.665 111.502L297.087 109.902L296.486 106.784L296.051 105.243L296.188 104.973L295.65 100.081L295.587 99.8528L295.06 99.4391L295.518 99.0913L295.856 98.144L295.513 96.3513L294.94 95.1461L295.215 94.1868L294.763 91.8664L295.186 91.051L295.198 90.5953L294.419 89.642L294.167 88.6048L292.364 84.7555L291.333 81.9255L291.167 81.1521L291.27 80.2767L292.175 79.0955L292.799 77.9863L292.862 77.5066L292.971 77.4227L292.948 77.051L292.719 76.6553L293.091 76.1696L296.95 76.0377L298.604 75.7799L299.789 75.3842L304.026 75.8578L305.24 76.5293L306.35 77.4287L308.709 78.7358L309.545 79.0476L312.305 80.8463L312.997 80.9662L314.268 82.3392L315.98 83.6043L317.452 84.036L318.849 85.7808L319.547 86.1465L321.242 88.4309L323.623 90.2776L324.459 91.4767L325.055 92.0703L325.913 92.5619L326.572 92.5799L327.929 93.1315L328.381 93.5333L328.667 94.3487Z" fill="#C8B2D8"/>
<path d="M238.737 200.486L230.326 200.474L230.028 198.518L230.555 197.421L230.773 195.183L237.615 195.189L238.662 196.377L238.697 197.703L238.359 198.416L238.239 199.88L238.737 200.486Z" fill="#C8B2D8"/>
<path d="M287.359 246.952L287.193 246.868L287.445 245.465L287.771 244.686L287.434 242.815L287.525 242.563L288.51 241.328L291.458 241.346L291.773 241.154L292.328 239.212L292.964 238.45L293.468 237.077L293.605 236.046L293.754 235.782L294.464 235.267L295.443 234.013L295.752 232.233L295.586 230.776L294.859 229.091L294.229 228.33L293.931 228.276L293.674 228.449L293.239 228.282L292.958 227.856L293.204 227.526L294.052 227.472L294.51 227.682L295.065 227.7L295.609 227.556L295.792 227.304L295.695 226.273L294.945 226.063L294.824 225.817L294.996 224.894L295.013 223.743L294.716 223.347L293.954 222.945L293.783 222.526L294.452 221.368L295.695 220.583L295.872 220.571L296.473 221.015L297.12 221.081L297.132 220.595L296.176 219.234L296.943 219.312L298.191 219.138L298.672 218.772L299.29 218.58L300.194 218.532L301.649 219.018L302.17 219.348L302.341 219.666L306.979 222.747L306.446 224.756L306.269 226.471L306.337 228.623L306.75 232.311L306.572 233.792L305.719 235.698L304.145 236.532L303.83 236.891L302.874 238.888L302.313 241.166L301.872 242.048L301.397 241.64L300.893 241.562L300.727 242.33L301.5 242.641L300.389 245.184L298.414 247.486L298.277 247.324L297.212 247.72L296.754 248.457L296.719 249.291L296.479 250.04L295.569 251.251L295.403 251.929L294.475 251.293L292.763 251.515L290.279 250.909L288.848 250.232L288.464 247.408L287.359 246.952Z" fill="#C8B2D8"/>
<path d="M238.735 200.487L238.237 199.882L238.358 198.419L238.695 197.705L238.661 196.38L237.613 195.193L230.771 195.187L230.554 197.423L230.027 198.521L230.325 200.475L238.735 200.487L238.432 201.399L238.609 202.34L238.22 203.293L237.625 204.043L237.39 204.924L237.877 205.65L238.363 205.853L239.176 206.471L240.121 209.205V209.565L238.793 211.19L236.938 212.994L236.691 214.277L237.316 214.943L237.831 214.661L238.735 215.003L239.005 215.369L239.108 215.968L239.01 216.394L238.592 216.934L238.3 218.067L238.982 220.141L237.212 221.376L236.548 221.496L236.056 222.036L235.781 222.707L232.981 224.35L232.581 223.889L230.09 222.773L229.775 223.061L229.443 223.115L228.441 223.121L227.594 222.953L225.384 223.049L224.233 222.516L221.868 224.098L220.202 225.849H220.013L219.263 224.998L218.393 224.818L216.566 225.801L214.442 225.43L213.022 226.005L211.746 226.329L210.938 227.588L210.246 229.063L210.28 229.663L209.799 230.442L209.329 230.61L208.849 230.514L208.591 230.598L208.053 231.042L207.114 232.301L206.787 233.44L207.108 233.806L207.102 234.009L206.896 234.147L206.404 233.872L206.266 233.602L204.743 232.259L202.94 231.893L202.012 230.964L200.924 230.706L200.071 230.682L198.153 229.878L197.764 229.369L196.006 228.433L195.623 228.068L194.798 227.642L194.146 227.54L192.6 226.533L191.008 226.629L188.832 226.209L188.758 226.011L188.907 225.507L189.233 224.806L189.983 223.751L189.937 223.499L188.649 222.959L187.996 223.361L187.619 223.247L187.458 223.001L187.327 222.336L187.475 220.789L187.367 219.728L186.823 218.409L186.72 216.352L185.912 215.039L185.821 214.613L186.05 212.569L187.51 210.26L187.727 208.516L188.128 208.054L189.285 207.55L190.384 206.489L191.1 205.278L191.289 204.109L191.575 203.503L192.308 202.88L192.777 202.022L192.823 201.099L193.825 200.517L194.626 198.946L196.144 198.868L197.701 198.353L197.884 198.185L199.018 195.673L199.424 195.097L199.791 192.639L200.008 192.195L201.108 191.032L202.052 190.426L202.665 190.271L203.369 190.678L204.062 190.241L204.858 189.383L205.339 187.626L206.009 185.906L206.003 185.426L205.728 184.742L206.06 183.1L206.976 181.247L206.908 178.141L207.6 177.673L208.19 176.097L209.335 174.196L209.558 173.554L209.467 171.924L209.667 171.384L210.223 170.868L210.377 170.191L210.331 169.813L210.526 169.543L210.641 168.416L211.018 167.679L212.055 166.425L212.375 166.246L212.358 167.271L211.66 168.398L211.362 169.801L212.736 170.041L213.996 170.658L216.246 170.898L218.015 171.924L220.345 172.781L220.706 172.643L221.639 169.082L222.481 167.649L223.156 167.067L223.815 167.852L224.41 168.98L225.046 171.204L225.395 173.063L226.048 173.093L226.477 172.643L226.649 172.043L226.97 171.72L228.55 171.924L231.143 171.606L231.269 172.049L230.949 172.985L232.741 173.866L234.659 174.274L235.054 174.226L235.346 172.247L235.661 172.265L236.525 173.836L236.789 173.98L237.808 173.44L239.251 172.193L241.844 171.594H242.732L244.198 170.934L245.194 170.131L248.263 169.279L249.82 170.754L249.831 170.982L249.013 171.618L248.738 173.129L248.795 173.327L249.728 173.83L249.694 174.394L249.562 174.622L248.652 175.239L247.971 177.536L247.942 178.465L248.297 180.575L249.27 182.65L251.108 184.221L251.137 184.503L250.725 185.354L250.667 185.756L251.051 186.787L251.183 187.554L251.039 188.016L250.192 189.197L249.62 189.803L247.77 189.599L247.255 188.544L245.869 187.656L245.199 188.55L245.532 190.81L245.205 191.134L244.976 191.212L243.384 190.528L242.715 190.666L242.503 190.834L242.091 192.741L242.503 192.801L242.783 193.496L242.457 194.06L242.039 194.48L242.062 195.619L242.302 195.984L242.606 196.098L243.001 198.653L242.697 198.97L240.774 199.51L239.463 200.415L238.735 200.487Z" fill="#C8B2D8"/>
<path d="M262.705 77.6045L262.682 77.8023L261.514 79.0914L261.267 79.1933L261.244 80.0567L262.372 79.0374L262.762 78.312L263.976 77.3646L264.485 76.6811L265.075 72.8858L265.733 72.4661L266.369 72.3942L267.325 71.8426L267.697 71.7646L267.961 71.8366L268.007 72.8139L267.892 73.0837L267.079 74.2049L265.241 75.2541L265.224 75.6858L265.642 75.7578L265.9 75.2721L266.558 75.0863L266.684 75.5839L266.346 75.8897L266.489 76.0696L268.9 73.0897L269.392 73.2875L270.87 72.7299L273.183 72.9877L272.919 71.5428L273.269 71.4049L274.654 71.4528L275.673 71.6807L277.179 72.3102L277.775 72.3762L279.006 73.2036L279.807 73.2216L280.529 74.001L281.611 74.7925L283.043 75.1402L283.707 75.0263L284.027 75.482L284.222 75.5119L285.132 75.458L286.541 75.8537L286.69 75.3141L286.306 75.0323L287.262 74.8045L287.589 74.8704L287.537 75.1222L287.274 75.9796L287.406 76.4113L287.766 76.7351L287.549 77.6524L286.524 79.0135L284.159 81.3938L282.258 81.6696L281.8 81.5736L280.128 83.6122L280.151 84.6914L279.647 85.7887L278.565 86.8979L278.095 88.085L277.729 88.1869L277.288 88.8165L277.494 89.9677L278.199 90.4653L278.416 91.2328L278.256 92.1082L277.603 93.8289L278.508 95.5137L278.823 97.3005L278.76 98.7574L278.639 99.0872L276.292 101.737L276.195 103.224L276.263 104.489L276.555 105.868L277.574 107.092L278.496 107.637L278.594 107.937L278.668 108.441L278.445 109.76L278.279 110.023L278.21 110.749L277.924 111.624L277.231 112.41L275.92 112.584L275.547 112.416L275.072 112.44L273.681 112.955L272.811 113.021L271.379 111.93L270.801 111.804L269.965 111.918L269.387 112.278L268.745 112.434L268.614 112.254L268.133 112.398L267.846 112.53L266.758 113.675L266.764 113.951L266.403 114.472L265.253 115.671L263.913 116.217L262.269 117.752L261.508 118.07L260.907 118.094L259.933 119.011L259.315 119.227L257.82 119.419L256.263 119.874L255.043 121.044L254.482 122.824L254.259 124.605L253.898 125.996L253.068 127.639L252.896 127.771L252.702 128.262L252.627 129.174L251.94 130.661L250.967 131.5L250.549 132.699L250.955 133.862L251.224 135.769L252.215 137.604L252.192 137.916L251.757 138.755L251.682 142.568L251.024 144.037L250.875 144.673L250.846 145.824L250.114 145.428L249.764 144.937L249.295 144.667L248.728 144.493L247.709 144.613L247.302 144.505L246.529 143.306L245.962 141.591L244.743 140.62L244.663 139.63L245.602 138.545L245.556 138.227L243.334 137.058L242.979 136.429L242.945 135.433L242.515 134.48L241.977 134.066L240.786 133.898L240.672 133.647L240.821 133.221L242.326 131.698L242.115 130.913L242.533 129.306L242.928 128.448L243.254 128.119L244.021 127.795L245.962 127.585L245.739 126.776L246.105 124.827L246.06 123.772L245.029 123.046L242.584 123.61L241.353 124.413L240.053 122.602L239.532 122.093L237.815 119.605L237.311 119.647L236.83 118.783L237.179 118.07L237.116 117.542L236.973 117.338L236.188 117.194L235.948 117.356L234.843 116.559L234.946 116.133L235.954 115.737L236.956 114.514L237.099 113.561L236.939 112.961L237.116 111.546L238.129 107.853L238.135 107.595L237.746 106.912L237.614 106.264L237.734 104.034L237.368 103.134L237.099 101.042L236.618 100.424L234.671 99.5609L233.973 99.5489L233.812 99.357L233.766 98.7394L233.429 98.3257L232.432 98.1519L231.883 98.4636L231.081 98.4097L229.489 97.5043L228.997 97.4683L227.875 97.7861L226.374 98.8953L226.071 99.2791L225.79 99.2311L234.213 92.1381L235.559 92.276L236.229 91.7244L237.116 90.4234L237.362 89.7338L238.25 89.0323L238.605 87.3056L239.246 87.0298L240.643 85.6388L240.912 84.9133L241.078 83.7741L241.994 80.9621L243.117 80.0387L243.964 78.9835L244.439 78.1141L244.703 77.3466L244.6 76.2554L245.052 75.7698L244.456 74.8224L246.564 72.9698L246.489 71.9865L246.775 70.5595L247.772 69.6181L247.978 69.1924L248.493 67.3817L248.539 66.4164L248.293 66.0986L247.726 66.1946L247.571 65.9008L247.6 65.529L248.253 65.4391L248.579 64.9954L248.986 62.3633L248.894 61.5359L249.163 60.9183L249.604 60.6485H249.965L250.102 60.5046L250.068 60.1808L250.262 59.7312L250.594 59.4134L251.362 60.001L251.619 61.1042L252.301 61.1761L252.742 60.3607L253.091 62.1175L253.658 62.1415L253.824 61.8477L253.864 61.2841L254.351 61.2601L255.318 61.5779L255.605 61.9916L254.786 63.0108L255.169 63.4305L255.181 63.7603L255.874 62.5372L256.154 61.6138H256.412L256.641 62.2254V62.5731L256.143 63.1248L255.988 63.7183L256.034 65.3432L256.183 65.541L256.452 65.613L256.784 65.529L257.334 64.9714L257.065 64.3719L257.145 64.0121L257.901 63.1547L258.502 63.0048L259.721 63.3586L260.58 62.6931L260.609 63.2447L260.403 63.3706L259.756 64.2879L260.094 64.6357L260.151 64.4138L260.867 64.0541L261.199 64.5278L261.118 65.2532L262.052 66.3025L262.544 66.0387L263.449 66.4404L263.89 67.8794L263.827 68.449L262.573 70.0858L262.355 70.6194L262.413 71.0151L262.756 70.3976L263.758 69.3903L264.233 69.3723L264.731 69.858L265.029 70.9912L264.875 71.7286L264.319 71.8426L263.729 72.3882L263.065 73.2815L263.105 73.7432L262.441 75.1522L262.086 77.2627L262.206 77.4666L262.705 77.6045ZM263.002 77.8743L262.968 77.4006L263.271 76.4833L263.037 75.8417L263.111 75.446L263.632 74.7025L263.947 74.5886L263.976 75.9976L263.85 76.801L263.392 77.1608L263.002 77.8743ZM259.395 62.4292L259.143 62.1534L259.097 61.7937L259.555 61.1222L260.036 61.1042L260.426 61.356L260.483 61.5599L260.374 61.7757L259.395 62.4292ZM261.399 64.9355L261.233 64.7556L261.267 64.4378L261.874 63.9042L262.149 63.9462L262.435 64.4558L262.355 64.8215L262.126 64.7196L261.399 64.9355ZM253.291 62.0515L253.171 62.0215L253.715 59.8751L253.887 59.929L253.904 60.0669L253.669 61.9016L253.291 62.0515Z" fill="#C8B2D8"/>
<path d="M302.169 219.349L301.648 219.02L300.194 218.534L299.289 218.582L298.671 218.774L298.19 219.14L296.941 219.313L296.174 219.235L297.13 220.596L297.119 221.082L296.472 221.016L295.871 220.573L295.693 220.585L294.451 221.37L293.781 222.527L293.953 222.947L294.714 223.349L295.012 223.744L294.995 224.895L294.823 225.819L294.943 226.065L295.693 226.274L295.791 227.306L295.607 227.558L295.064 227.701L294.508 227.683L294.05 227.474L293.203 227.528L292.957 227.857L293.237 228.283L293.672 228.451L293.93 228.277L294.228 228.331L294.857 229.092L295.585 230.777L295.751 232.234L295.441 234.015L294.462 235.268L293.752 235.784L293.604 236.048L293.466 237.079L292.962 238.452L292.327 239.213L291.771 241.156L291.457 241.348L288.508 241.33L287.523 242.565L287.432 242.817L287.769 244.687L287.443 245.467L287.191 246.87L287.357 246.954L285.909 248.363L285.199 248.525L284.878 248.824L285.302 249.244L283.95 252.872L282.863 255.096L282.811 255.546L283.636 255.624L283.802 255.989L283.681 256.301L282.233 256.889L276.788 259.605L276.003 259.725L276.015 259.449L275.734 259.347L274.286 259.185L273.96 259.221L273.032 259.785L272.316 259.881L270.484 259.929L270.278 259.737L269.986 259.785L267.639 260.852L267.037 261.314L266.058 261.775L265.772 261.607L264.289 261.709L262.623 262.513L261.238 262.956L260.848 263.25L260.133 263.688L258.873 263.82L257.768 264.431L257.064 265.175L256.039 265.577L254.676 265.726L253.336 265.678L253.331 265.385L253.531 265.091L253.48 264.881L252.798 265.079L252.695 266.458L252.833 266.596L252.804 267.099L252.375 267.687L251.63 267.879L251.304 267.621L249.237 268.221L249.128 267.903L247.977 268.047L247.336 267.897L246.174 265.912L246.872 265.487L246.575 264.461L245.544 263.964L244.519 263.226L244.113 262.261L244.416 261.326L244.525 259.257L244.376 257.494L245.441 255.863L245.842 254.556L245.87 253.795L245.739 253.573L243.62 252.782L243.048 252.812L242.887 253.027L242.441 253.213L241.519 253.243L241.536 252.734L241.061 251.54L240.317 250.467L240.105 249.142L239.927 248.77L239.475 248.327L239.584 247.164L240.454 245.946L240.488 245.611L240.259 244.681L239.183 243.956L238.851 243.59L239.017 242.169L239.343 241.564L239.229 240.94L237.357 238.931L236.612 239.105L236.126 239.489L235.181 239.021L233.818 239.087L233.641 239.453L233.755 239.729L233.503 240.322L231.912 240.73L231.276 240.472L230.412 239.603L229.833 240.352L225.15 240.76L224.887 241.048L224.612 241.761L224.766 243.284L224.532 243.548L223.85 243.236L223.845 241.57L223.701 240.994L223.495 240.76L223.175 240.73L223.026 240.844L222.791 241.522L222.407 242.085L222.098 242.277L221.743 242.265L221.051 241.006L220.862 240.155L220.942 239.609L219.98 239.135L218.732 238.284L217.592 238.638L216.665 238.506L215.709 238.716L213.252 238.14L211.792 238.092L210.802 237.163L210.373 237.079L209.514 237.445L208.695 238.458L207.596 238.68L206.365 239.345L205.666 240.023L205.844 238.452L205.506 236.527L206.073 234.021L206.405 233.871L206.897 234.147L207.103 234.009L207.109 233.805L206.788 233.439L207.115 232.3L208.054 231.041L208.592 230.597L208.85 230.513L209.331 230.609L209.8 230.441L210.281 229.662L210.247 229.062L210.939 227.588L211.747 226.328L213.023 226.005L214.443 225.429L216.568 225.801L218.394 224.817L219.264 224.997L220.014 225.849H220.203L221.869 224.098L224.234 222.515L225.385 223.049L227.595 222.953L228.442 223.121L229.444 223.115L229.776 223.061L230.091 222.773L232.582 223.888L232.982 224.35L235.782 222.707L236.057 222.035L236.549 221.496L237.214 221.376L238.983 220.141L238.301 218.066L238.593 216.933L239.011 216.393L239.109 215.968L239.006 215.368L238.736 215.002L237.832 214.661L237.317 214.943L236.692 214.277L236.939 212.994L238.794 211.189L240.122 209.564V209.205L239.177 206.471L238.364 205.853L237.878 205.649L237.391 204.924L237.626 204.042L238.221 203.293L238.611 202.339L238.433 201.398L238.736 200.487L239.464 200.415L240.775 199.509L242.699 198.97L243.002 198.652L242.607 196.098L242.303 195.984L242.063 195.618L242.04 194.479L242.458 194.059L242.784 193.496L242.504 192.8L242.092 192.74L242.504 190.834L242.716 190.666L243.386 190.528L244.977 191.211L245.206 191.133L245.533 190.81L245.201 188.549L245.87 187.656L247.256 188.543L247.771 189.599L249.621 189.802L250.193 189.197L250.485 190.642L249.666 192.704L249.895 192.842L250.663 192.297L251.063 191.697L251.476 191.619L252.695 191.847L253.291 191.385L254.35 189.844L254.917 189.934L255.735 189.616L256.772 188.687L257.316 187.986L258.472 187.74L260.402 186.625L260.768 185.959L263.213 184.142L265.4 183.195L266.431 183.249L267.118 183.549L268.366 183.567L269.671 183.885L270.158 184.16L269.419 185.803L269.333 186.337L269.482 187.23L269.831 187.53L272.883 188.405L273.25 188.303L273.713 187.632L274.79 187.098L275.803 186.942L277.366 187.392L277.996 187.716L280.487 189.898L281.048 189.79L282.29 190.762L283.739 191.493L284.271 191.625L284.563 191.499L285.439 192.243L287.953 191.505L288.17 191.613L291.903 195.33L292.155 197.705L292.481 197.579L293.976 197.849L294.817 197.549L295.573 196.955L296.712 197.045L298.276 197.381L299.569 198.029L300.823 198.394L302.037 198.376L303.657 199.857L304.075 200.085L304.585 200.127L305.032 200.739L305.272 201.44L304.43 203.287L301.591 205.817L301.505 207.406L301.825 208.017V208.269L301.241 208.695L299.821 208.551L299.352 209.079L298.882 211.057L298.579 213.695L298.705 213.845L298.905 213.731L299.02 213.462L299.386 213.318L299.718 214.055L299.592 214.961L299.678 215.266L302.049 217.101L302.352 217.725L302.358 218.042L301.968 218.852L302.169 219.349Z" fill="#C8B2D8"/>
<path d="M205.667 240.02L205.438 241.495L205.277 241.734L204.419 242.202L203.663 242.226L203.394 242.358L202.695 242.976L201.556 244.582L201.138 244.972L200.559 245.152L200.204 246.159L200.113 247.916L198.63 250.098L198.08 250.41L197.949 250.638L198.126 251.795L198.08 252.365L197.387 253.768L196.242 255.123L196.443 255.633L196.282 256.358L195.458 256.976L195.229 257.701L194.238 258.714L193.517 260.177L192.4 261.298L188.072 264.015L187.35 264.698L186.927 265.621L186.446 266.269L183.348 267.63L182.712 268.122L182.18 269.519L182.191 270.208L181.361 272.343L180.978 272.75L180.027 273.356L179.392 273.548L179.203 273.758L178.304 278.506L178.098 278.998L176.735 279.933L175.275 278.536L173.322 277.403L171.038 278.584L170.648 279.034L169.698 279.328L168.221 279.585L166.869 279.31L166.291 278.92L166.022 276.36L165.839 275.94L165.324 275.37L165.192 273.89L165.484 273.086L165.117 272.612L165.066 272.349V270.628L164.556 269.447L164.213 267.804L164.184 267.372L164.522 266.557L164.533 265.591L163.634 264.938L163.417 264.458L163.325 263.163L162.381 262.072L161.138 261.916L160.273 262.102L159.226 261.928L157.817 260.753L157.497 259.86L156.615 260.057L155.372 261.7L154.8 261.34L153.815 261.826L153.197 261.922L152.2 261.508L150.734 261.215L148.753 261.352L146.658 260.927L146.383 260.381L145.244 260.303L144.734 260.615L143.303 260.087L143.824 255.728L143.577 254.301L143.921 253.45L144.482 252.575L144.826 248.959L144.448 247.562L144.419 246.525L143.984 245.949L143.738 245.895L143.457 246.285L143.091 244.331L142.638 243.209L141.946 241.998L141.745 240.901L144.053 239.522L144.488 238.994L142.083 236.68L145.163 229.833L145.805 229.797L145.644 228.52L145.221 228.442L147.07 222.248L147.448 221.553L145.679 218.045L145.696 216.9L146.097 217.02L146.681 217.679L147.912 218.591L151.13 217.41L152.303 216.211L153.46 214.442L153.511 213.74L154.313 212.871L155.796 212.889L156.689 212.757L157.13 212.961L158.081 212.655L158.853 211.906L160.01 211.612L160.737 211.732L161.172 212.421L162.77 213.171L164.27 213.453L164.642 213.662L164.797 214.178L165.243 214.79L166.978 215.485L167.7 216.151L168.41 216.492L170.998 216.115L171.719 215.635L172 215.125L172.818 214.76L174.216 214.802L175.126 215.425L175.298 216.247L175.435 216.396L176.002 216.42L177.222 215.893L177.8 215.929L181.018 212.325L181.785 212.247L181.081 216.211L180.05 216.63L179.1 218.327L178.991 218.603L179.077 218.921L179.821 218.987L180.817 219.748L183.463 219.91L183.789 219.568L185.312 219.52L185.81 219.568L186.48 219.91L187.367 219.724L187.476 220.785L187.327 222.332L187.459 222.998L187.619 223.244L187.997 223.357L188.65 222.956L189.938 223.495L189.984 223.747L189.234 224.802L188.908 225.504L188.759 226.008L188.833 226.205L191.009 226.625L192.601 226.529L194.147 227.536L194.799 227.638L195.624 228.064L196.008 228.43L197.765 229.365L198.155 229.875L200.073 230.678L200.926 230.702L202.014 230.96L202.941 231.889L204.745 232.255L206.268 233.598L206.405 233.868L206.073 234.018L205.506 236.524L205.844 238.449L205.667 240.02Z" fill="#C8B2D8"/>
<path d="M118.644 177.81L119.486 176.952L121.839 175.412L122.137 173.943L122.955 171.676L123.488 171.029L124.427 170.711L124.673 170.465L125.005 169.962L125.303 168.612L126.253 167.407L126.574 166.064L126.614 165.039L126.282 164.146L126.305 162.917L125.429 160.914L124.914 160.932L124.581 160.626L124.335 158.678L124.415 157.886L125.194 157.239L125.996 156.189L126.093 155.74L125.286 153.587L124.673 153.329L124.038 153.264L122.034 153.318L121.335 152.652L121.473 152.316L111.648 152.286L112.163 146.89L111.304 145.241L111.149 144.186L111.167 143.706L111.739 141.596L111.522 140.439L112.06 139.437L111.585 138.076L111.499 137.243L111.35 136.877L110.903 136.596L110.869 136.386L111.607 133.394L112.043 132.542L111.699 131.799L110.898 131.217L138.294 131.026L138.987 130.588L139.662 127.458L140.453 124.928L140.189 123.765L139.811 122.943L139.754 122.434L139.995 121.924L140.487 121.54L141.174 120.449L141.329 119.844L141.134 119.34L141.168 118.884L141.283 118.519L141.958 117.799L142.628 118.447L144.031 120.881L144.26 121.936L145.044 124.31L145.8 125.468L146.241 126.439L146.109 127.902L146.384 129.341L146.802 130.66L147.678 131.325L149.396 132.974L151.331 133.993L151.463 134.557L151.44 135.217L151.572 135.51L152.115 135.75L152.585 135.648L153.518 135.918L153.827 136.35L153.942 136.997L154.142 137.189L154.927 136.919L157.039 137.813L176.529 139.264L212.583 141.35L212.21 141.962L211.89 143.095L211.26 143.844L211.008 145.727L210.762 146.237L210.55 146.398L209.439 149.57L209.13 151.351L209.107 153.12L208.031 156.711L208.065 157.227L208.861 158.03L208.769 158.552L208.3 159.085L208.271 159.385L208.901 160.734L208.632 162.719L208.638 163.66L208.935 164.008L209.187 165.836L208.764 167.491L209.325 169.494L209.874 169.8L210.332 169.812L210.378 170.189L210.224 170.867L209.668 171.382L209.468 171.922L209.56 173.553L209.336 174.194L208.191 176.095L207.601 177.672L206.909 178.14L206.977 181.245L206.061 183.098L205.729 184.741L206.004 185.424L206.01 185.904L205.34 187.625L204.859 189.382L204.063 190.239L203.37 190.677L202.666 190.269L202.053 190.425L201.109 191.03L200.009 192.194L199.792 192.637L199.425 195.095L199.019 195.671L197.885 198.183L197.702 198.351L196.145 198.867L194.627 198.945L193.826 200.516L192.824 201.097L192.778 202.02L192.309 202.878L191.576 203.501L191.289 204.107L191.1 205.276L190.385 206.487L189.285 207.548L188.129 208.052L187.728 208.514L187.511 210.259L186.051 212.567L185.822 214.611L185.913 215.037L186.72 216.35L186.824 218.407L187.367 219.726L186.48 219.912L185.81 219.57L185.312 219.522L183.789 219.57L183.463 219.912L180.817 219.75L179.821 218.988L179.077 218.922L178.991 218.605L179.1 218.329L180.05 216.632L181.081 216.212L181.785 212.249L181.018 212.327L177.8 215.93L177.222 215.894L176.002 216.422L175.435 216.398L175.298 216.248L175.126 215.427L174.216 214.803L172.819 214.761L172 215.127L171.72 215.637L170.998 216.116L168.41 216.494L167.7 216.152L166.979 215.487L165.244 214.791L164.797 214.18L164.643 213.664L164.271 213.454L162.771 213.172L161.173 212.423L160.738 211.733L160.011 211.614L158.854 211.907L158.081 212.657L157.131 212.963L156.69 212.759L155.797 212.891L154.314 212.873L153.512 213.742L153.461 214.443L152.304 216.212L151.131 217.411L147.913 218.593L146.682 217.681L146.098 217.022L145.697 216.902L145.319 216.5L145.136 216.02L145.445 215.595L144.048 214.306L143.315 214.683L143.018 214.653L142.348 214.246L142.09 213.826L140.934 212.981L139.851 212.525L139.68 212.333L139.508 211.662L139.376 209.905L139.027 208.844L138.918 206.649L139.422 205.666L140.075 205.012L140.269 203.945L140.241 202.812L139.691 202.848L139.462 203.208L139.245 203.304L123.866 202.656L123.265 195.071L120.19 191.396L122.984 191.36L122.784 186.833L121.272 183.644L120.992 182.463L121.14 181.827L121.49 181.497L121.862 180.73L121.037 178.973L119.257 178.349L118.644 177.81Z" fill="#C8B2D8"/>
<path d="M212.583 141.35L176.529 139.264L157.04 137.813L154.927 136.92L154.142 137.189L153.942 137.003L153.828 136.35L153.513 135.918L152.579 135.648L152.11 135.75L151.566 135.517L151.434 135.217L151.457 134.557L151.326 133.994L149.39 132.974L147.673 131.319L146.791 130.654L146.379 129.335L146.104 127.902L146.236 126.439L145.795 125.462L145.033 124.304L144.249 121.936L144.026 120.881L142.623 118.447L141.947 117.799L141.621 117.463L141.535 116.288L141.168 115.533L140.258 114.597L139.646 114.25L139.434 113.908L138.958 112.505L138.976 111.827L139.308 111.246L140.138 110.568L140.584 109.783L157.704 71.2662L156.667 70.2649L156.742 69.7972L156.633 69.5094L155.837 69.7193L155.351 70.085L154.28 69.6173L153.65 68.3162L152.11 67.4469L151.383 66.6434L151.337 66.2837L150.581 65.792L149.797 65.7021L148.509 65.3124L147.146 64.5269L146.07 64.1252L145.297 63.4717L144.936 62.9321L142.314 61.4092L139.657 59.1488L139.485 58.885L139.462 58.3273L139.147 57.2301L138.094 56.4927L137.693 56.6066L137.487 56.4867L136.439 55.2995L136.468 54.0344L136.668 53.6207L136.565 53.3749L135.598 52.8652L135.46 52.4575L135.357 51.0965L135.603 50.2271L135.374 47.3132L134.464 37.1384L134.893 37.3303L135.14 37.678L135.128 37.9658L135.386 38.2056L135.912 38.3735L136.697 37.9478L136.966 37.4622L138.518 37.6001L138.981 36.9705L138.672 35.8853L139.697 35.6694L140.504 34.6921L142.016 35.2977L143.092 35.3157L143.401 34.4043L145.308 33.433L146.436 33.6669L147.1 33.6009L147.381 33.451L148.068 32.5637L148.297 31.7242L149.133 31.0647L149.625 30.9988L149.997 31.2746L151.205 30.597L151.44 30.663L151.652 31.2566L152.07 31.5264L153.232 31.8142L154.154 31.9641L154.475 31.6043L155.431 31.3705L155.877 31.5384L156.347 31.5324L156.839 31.3285L158.122 31.5084L160.796 32.3358L161.345 32.2519L161.918 31.7302L161.901 30.3632L160.715 28.8643L160.005 28.4865L160.286 27.4793L161.036 26.6099L161.196 25.9444L161.374 25.8424L161.78 25.9563L162.256 26.412L163.601 27.0776L170.254 25.6805L171.153 26.6938L171.737 26.7298L171.989 26.5559L172.344 26.8977L172.556 28.2767L172.201 29.0561L172.058 31.7782L172.195 32.6416L172.372 32.9654L173.042 32.9774L173.661 32.8035L175.602 33.0253L176.34 33.3191L177.445 33.9487L177.829 34.4283L178.109 35.1958L178.791 35.2677L179.443 35.7714L179.901 36.359L180.382 36.5208L181.144 36.4369L181.362 36.1851L181.9 36.1011L183.526 37.696L183.915 37.678L184.196 38.3855L183.806 38.5234L183.698 38.9551L184.133 40.6519L185.289 42.0069L186.761 42.4446L186.858 42.6425L186.612 44.5252L186.721 45.7903L187.104 46.6956L187.459 47.0314L187.797 48.1166L187.723 49.0639L188.581 51.1504L189.051 51.2644L189.497 51.0485L191.175 53.0151L191.129 54.4721L191.364 55.0357L191.908 55.1496L192.097 55.4314L192.274 56.3787L192.154 56.7924L192.217 57.5719L193.288 58.4053L193.534 59.3047L194.364 59.9222L195.962 60.3299L196.706 60.258L197.147 60.0541L197.685 60.0901L197.381 60.5338L197.547 61.4871L197.45 61.8049L196.712 62.4704L195.916 62.5723L195.629 62.4644L195.149 61.9907L194.771 61.9008L192.835 62.8481L192.624 63.1719L191.707 63.6036L191.347 63.5916L190.459 63.9454L190.482 64.2931L194.181 63.6576L194.685 64.0533L194.759 64.3291V64.7248L194.404 65.0246L194.576 65.2404L194.937 65.1205L195.429 64.5209L196.013 64.515L196.317 64.3531L196.66 64.425L197.273 64.1732L197.925 63.8314L199.803 62.4284L200.662 62.2186L201.716 61.7329L203.525 60.6297L203.834 60.0301L204.218 59.7184L205.414 59.1128L205.792 58.6811L205.649 58.2794L205.769 58.0336L206.416 57.8657L207.04 57.9016L207.275 58.0276L207.493 60.3059L207.195 61.8528L207.384 62.8242L207.848 63.7835L208.598 64.5929L208.769 65.5762L208.701 65.858L207.647 66.9612L207.378 67.0392L206.88 66.7274L205.838 66.4156L205.117 66.2297L204.584 66.3137L203.365 65.6901L203.216 65.0186L202.712 64.7008L201.406 66.9912L201.057 68.4122L201.447 70.1929L201.721 70.5766L202.248 70.9484L201.67 70.2649L201.424 68.652L201.492 68.3402L202.964 65.81L204.286 66.5175L204.349 66.7873L205.798 68.2563L205.655 69.4674L205.231 69.7972L205.46 71.1942L205.758 71.8717L206.399 72.3214L206.823 72.4113L207.121 72.7051L206.926 72.3214L206.485 72.1775L205.798 71.5539L205.672 71.1462L205.867 68.628L206.336 67.9145L207.155 68.3522L207.63 69.0717L207.579 69.5454L208.266 70.061L208.409 69.8871L207.836 69.1317L207.309 67.8726V67.6087L208.603 66.2177L209.531 66.2717L210.636 66.6554L210.831 66.9912L210.481 67.3449L210.665 67.5128L210.939 67.5308L211.529 67.4289L212.291 66.8893L214.632 66.3137L215.073 66.4336L216.069 67.0691L217.884 66.8173L218.497 66.5715L219.081 65.9659L219.642 65.6122L220.638 65.3064L221.079 65.3484L221.114 65.798L219.946 68.2083L219.808 69.1077L219.545 69.7492L219.07 70.3668L219.064 70.8944L219.396 71.7458L219.213 73.2268L219.717 72.5133L219.722 71.6739L220.604 69.8751L221.251 67.9625L221.892 67.0272L222.047 66.8653L222.482 66.8353L222.814 66.6255L223.856 66.4875L224.36 65.6781L225.225 64.6648L226.003 63.3098L226.301 63.034L226.753 63.3278L227.108 63.052L228.036 64.455L228.717 64.8087L228.689 64.3651L228.488 63.9154L228.843 63.3098L230.853 63.004L230.263 62.8122L228.253 63.088L228.076 62.9621L228.242 61.5051L228.534 61.3312L228.918 61.5591L229.502 61.625L230.114 59.7663L229.725 58.9329L229.742 58.5252L230.412 57.44L232.038 55.953L232.244 55.9051L232.88 56.5886L234.557 55.3355L234.821 55.2935L235.05 55.5633L235.107 55.9051L234.924 56.3068L235.536 56.2109L236 55.8631L236.206 55.3954L236.567 55.2815L236.727 55.3714L237.151 56.2049L237.912 56.9243L238.027 56.5886L237.964 56.3607L237.414 56.067L237.334 55.8931L237.26 55.1736L237.357 54.9218L237.609 54.8078L238.914 54.9637L239.59 55.3535L239.945 55.965L240.878 56.3907L241.823 55.9231L242.126 57.2061L241.84 57.392L241.823 57.7458L242.35 57.434L243.014 56.025L243.231 56.1629L243.1 56.9603L243.334 57.2241L244.771 57.0682L245.029 57.458L245.292 58.4653L244.949 59.0348L245.436 58.7351L245.584 58.9569L246.667 59.0408L248.688 58.2974L248.51 59.2447L248.081 60.3419L248.922 60.0481L249.26 59.6764L249.621 60.6477L249.18 60.9175L248.911 61.5351L249.003 62.3625L248.596 64.9946L248.27 65.4383L247.617 65.5282L247.588 65.9L247.743 66.1938L248.31 66.0978L248.556 66.4156L248.51 67.3809L247.995 69.1916L247.789 69.6173L246.793 70.5587L246.506 71.9856L246.581 72.9689L244.474 74.8216L245.069 75.769L244.617 76.2546L244.72 77.3458L244.457 78.1133L243.981 78.9827L243.134 80.0379L242.012 80.9613L241.096 83.7733L240.93 84.9125L240.661 85.6379L239.264 87.029L238.622 87.3048L238.267 89.0315L237.38 89.733L237.134 90.4225L236.246 91.7236L235.576 92.2752L234.231 92.1373L225.809 99.2303L226.089 99.2783L227.4 99.7639L228.471 99.62L229.21 99.692L229.794 100.687L230.017 100.873L230.515 100.957L231.236 101.659L231.213 102.036L231.002 102.438L230.589 102.66L230.034 102.702L229.868 102.87L229.919 103.715L230.498 104.519L229.971 106.167L229.605 106.455L228.769 106.731L228.626 107.007L228.792 107.726L228.683 108.53L227.938 108.62L227.074 109.423L226.587 110.185L226.673 111.09L226.536 111.39L225.104 112.109L223.152 112.793L221.738 113.86L221.629 114.07L221.875 115.383L221.91 116.984L221.177 118.243L220.369 119.25L220.283 119.592L220.381 120.119L220.719 120.695L221.675 121.738L222.104 121.93L222.19 122.11L221.812 124.532L220.804 127.62L220.186 128.106L219.213 130.048L219.11 130.642L218.572 131.565L218.148 132.075L217.547 132.171L216.762 132.722L216.173 133.874L215.48 134.881L214.804 135.535L214.146 136.482L213.499 139.156L212.583 141.35ZM224.698 63.2199L222.11 64.395L220.169 64.7068L219.012 64.5209L218.64 65.1985L217.587 65.912L217.175 65.5462L216.825 64.6289L216.694 64.7967L216.934 65.5342L216.739 66.0199L216.333 66.2657L214.174 65.2824L213.716 65.7141L211.317 66.4696L209.485 66.1278L209.021 65.7621L208.884 64.6529L208.752 64.407L208.117 63.7955L207.51 62.8361L207.39 61.7689L207.687 60.1201L208.042 59.8922L209.05 60.1081L209.583 59.6584L209.628 59.3226L208.884 59.5805L208.185 59.5025L207.647 59.0768L207.544 58.4473L207.739 55.4014L208.157 54.9458L208.357 55.3954L209.365 55.7552L209.68 55.7192L209.416 55.4674L208.689 55.3355L208.174 54.0404L208.38 53.0331L208.89 51.852L209.651 51.0545L210.201 50.7128L210.968 50.419L211.724 50.341L213.705 50.6528L217.833 51.714L219.951 51.4382L220.014 51.2584L220.667 50.8866L221.904 50.6648L223.558 50.8387L225.162 51.3303L228.872 51.84L229.232 52.1218L229.204 52.8592L228.803 53.3029L228.414 54.2023L228.208 55.7912L227.715 57.7697L226.977 58.1775L226.776 58.5912L226.908 59.3047L225.774 60.8516L224.978 62.9501L224.698 63.2199ZM197.668 63.1179L197.238 62.8122L197.868 61.4631L197.817 60.3899L197.96 60.264L199.294 59.9762L199.809 59.4605L199.895 59.1608L199.78 57.7578L200.273 56.2109L200.994 55.3175L202.305 54.4361L203.949 54.3162L204.361 55.7312L203.731 57.0443L203.244 58.867L202.615 59.2687L201.847 60.4858L201.401 60.9175L198.572 62.9021L197.668 63.1179ZM213.974 49.3877L213.384 49.2378L211.981 49.2858L211.529 49.1898L211.363 49.034L211.146 48.3804L211.151 47.6369L212.016 47.3851L213.098 47.4091L214.352 46.6357L217.106 46.2759L217.547 46.4318L217.936 46.8395L217.833 47.4511L216.367 48.2845L215.348 49.7714L214.718 50.0712L213.974 49.3877ZM216.716 49.3877L217.781 48.6682L218.915 48.6862L219.86 49.0579L220.163 49.6515L220.192 50.0232L219.688 50.4849L218.056 50.6528L217.386 50.8447L216.092 50.311L215.978 49.9933L216.716 49.3877ZM206.995 52.0198L206.708 51.8639L206.359 51.8879L205.477 51.4742L205.598 50.7787L205.964 50.2271L207.063 49.9873L208.415 49.4477L209.17 49.4956L209.628 49.9033L209.68 49.9813L208.575 50.9466L207.962 51.1504L206.995 52.0198ZM212.388 46.21L211.919 46.0301L211.821 45.0348L211.907 44.675L212.577 43.8896L213.98 43.338L214.123 43.4099L214.426 43.8177L214.449 44.3513L213.333 45.5444L212.388 46.21ZM204.47 58.3333L204.389 58.0875L204.498 57.5299L205.094 55.8451L206.577 54.8318L206.989 54.6639L207.384 54.7479L207.292 55.8211L206.399 56.0849L205.472 57.398L204.47 58.3333ZM210.716 47.7988L210.035 47.613L209.863 47.3252L210.367 46.7496L210.773 44.3813L211.283 43.6438L211.449 43.7217L211.489 43.9136L211.478 45.4005L211.821 46.5217L211.638 47.0494L211.048 47.2892L210.716 47.7988ZM202.237 53.9085L202.082 53.7946L202.151 53.4288L202.466 53.213L203.147 52.1877L203.582 51.2644L204 50.8686L204.83 50.5449L204.716 51.4382L204.487 52.0378L203.502 53.0331L202.237 53.9085ZM210.178 49.6935L209.834 49.6035L209.353 49.1778L208.804 48.1945L208.775 47.9667L208.907 47.7928L209.371 47.4451L210.43 47.9487L210.596 48.2065L210.733 49.4596L210.178 49.6935ZM207.098 68.0165L206.725 67.9505L206.222 67.6387L205.827 67.9145L205.397 67.7467L204.435 66.7034V66.3377L205.168 66.3317L206.92 67.1231L207.098 68.0165ZM194.988 64.6948L195.011 64.0773L194.897 63.8974L195.24 63.3038L196.591 62.7762L197.038 63.004L197.536 63.5197L197.37 63.7295L196.78 64.0113L195.326 64.2571L194.988 64.6948ZM202.26 60.6837L202.157 60.6657L202.162 60.4558L202.471 59.8922L203.496 58.9209L203.737 58.1775L203.765 57.398L203.903 57.2181L204.086 57.482V58.3873L203.576 60.0241L203.221 60.4139L202.26 60.6837ZM205.867 54.7479L206.811 52.9732L207.315 52.8472L207.722 52.9612L207.876 53.4828L207.544 53.9085L205.867 54.7479ZM223.856 66.1218L223.375 65.912L223.181 65.2764L223.776 64.2451L224.389 64.0473L224.497 64.1072L224.486 64.5509L224.062 65.894L223.856 66.1218ZM204.687 54.4481L204.378 54.3282L204.561 53.1051L205.323 52.0198L205.454 52.0438L206.193 52.5714L206.187 52.7213L205.3 53.1051L204.687 54.4481ZM205.964 57.464L206.376 57.482L206.147 57.7518L205.609 57.9376L205.546 58.6091L205.094 59.0348L204.126 59.5385L204.035 59.4306L204.189 58.9329L204.458 58.5552L205.449 57.5539L205.964 57.464ZM193.047 63.5856L192.732 63.4717L192.692 63.2618L192.938 63.022L194.977 62.0627L195.286 62.4824L195.28 62.6023L194.479 63.04L193.047 63.5856ZM229.421 60.7196L228.832 60.6057L228.362 60.1321L228.86 59.3826L229.627 59.3766L229.736 60.0901L229.679 60.4438L229.421 60.7196ZM208.094 49.3877L206.743 49.8074L206.405 49.8134L206.302 49.6875L206.892 49.0639L207.487 48.7581L208.082 48.8601L208.334 49.0639L208.42 49.2018L208.334 49.3277L208.094 49.3877ZM205.077 54.538L205.031 54.0824L205.174 53.7826L206.594 52.9072L206.078 54.1063L205.615 54.4841L205.077 54.538ZM206.302 57.2541L206.044 57.1822L206.004 57.0443L206.451 56.1449L207.132 56.1569L207.063 56.9663L206.302 57.2541ZM222.356 66.7454L222.196 66.6075L222.711 65.6481L223.1 65.4083L223.232 65.858L223.524 66.0798L223.375 66.3916L223.129 66.5955L222.768 66.4875L222.356 66.7454ZM207.092 52.7633L206.582 52.7213L206.594 52.6074L207.945 51.5042L207.968 52.0798L207.836 52.4575L207.693 52.6614L207.092 52.7633ZM245.716 58.8909L245.499 58.5732L245.607 58.1175L246.191 57.5719L246.335 57.6618L246.466 58.7111L245.716 58.8909Z" fill="#C8B2D8"/>
<path d="M349.649 119.711L348.218 118.476L347.748 118.32L346.231 118.194L344.908 118.835L344.061 119.603L343.803 120.682L342.716 121.3L341.565 121.569L340.912 121.557V121.917L340.454 122.235L339.206 122.409L336.984 122.253L336.063 122.781L335.748 123.164L334.706 123.224L334.196 123.638L333.887 124.094L334.11 124.531L334.116 124.855L333.887 125.143L332.868 126.06L332.101 126.156L331.156 126.66L330.24 126.186L329.696 125.623L329.495 124.28L329.633 123.986L329.53 123.806L328.877 123.614L328.625 123.788L327.761 123.938L327.784 123.668L329.232 122.085L329.329 121.827L328.917 120.706L328.894 120.424L329.106 119.957L330.824 119.315L330.887 119.135L330.6 118.302L328.597 117.151L327.749 117.396L326.478 118.152L325.946 119.057L325.098 119.579L324.497 119.765L322.951 120.892L322.081 121.875L321.148 122.013L319.642 122.595L319.201 122.397L319.23 121.989L318.869 121.246L318.651 121.198L318.119 121.635L317.254 121.827L316.688 121.629L315.886 120.484L315.657 120.43L315.56 120.28L316.241 119.609L317.163 117.516L316.968 116.803L316.573 116.755L315.863 116.221L315.875 115.226L315.674 114.794L315.342 114.62L315.205 114.375L315.273 113.817L315.371 113.589L315.995 113.211L316.373 112.426L316.075 111.641L316.665 109.842L317.146 109.152L317.191 108.829L317.518 108.553L318.623 109.536L319.138 109.788L320.787 110.154L321.451 109.476L323.3 108.481L323.77 108.055L323.827 107.432L324.062 106.862L325.883 106.136L326.701 106.064L328.568 105.441L328.934 105.489L329.238 105.753L329.244 106.466L327.532 108.391L327.28 108.966L327.062 110.01L326.827 110.238L326.341 110.387L326.22 110.573L326.175 111.605L328.196 111.916L328.379 112.054L328.556 112.882L328.723 113.02L330.526 112.264L331.539 112.216L332.656 112.396L333.165 113.097L332.868 114.021L333.343 114.465L334.688 113.907L334.975 113.463L335.29 112.738L335.021 112.174L334.929 111.323L335.204 110.969L335.782 111.161L335.479 110.244L335.066 109.776L335.244 108.888L336.286 108.079L337.076 108.049L337.316 108.283L337.259 108.882L337.614 109.176L339.572 109.416L339.876 109.626L343.214 109.392L344.456 109.572L345.865 110.232L346.46 109.992L348.464 110.118L348.996 109.974L349.048 111.413L349.878 114.045L349.912 114.429L349.809 114.992L349.598 115.262L349.58 115.79L349.912 115.346L350.204 114.447L350.21 115.634L350.548 116.239L350.393 119.345L350.187 119.705L349.649 119.711Z" fill="#C8B2D8"/>
<path d="M319.794 136.523L319.095 134.7L319.089 134.137L317.881 133.621L317.595 133.399L317.337 132.902L317.687 132.368L317.675 131.996L317.417 131.804L316.845 131.81L316.599 132.074L316.433 133.118L316.186 133.207L315.963 133.052L315.654 132.062L314.749 131.373L313.037 131.133L311.686 130.671L310.913 130.186L310.438 129.322L309.585 128.986L309.247 129.052L307.798 129.928L306.854 130.192L306.413 131.421L305.136 131.691L304.97 131.84L305.113 132.656L305.016 133.01L304.386 133.753L303.017 134.371L302.651 134.335L302.21 134.017L301.775 134.119L301.489 134.64L301.048 136.781L299.405 137.309L298.935 137.86L298.385 137.998L297.332 137.626L297.859 136.619L297.71 135.42L296.444 134.874L296.032 133.711L296.067 132.074L295.815 131.768L294.206 130.941L292.946 130.767L292.282 130.923L291.767 130.683L293.267 129.922L294.395 128.897L294.704 128.375L296.015 127.577L296.57 127.41L298.798 125.089L299.221 124.034L299.256 122.673L299.09 122.349L298.162 121.402L298.202 120.089L297.859 119.411L297.824 118.842L297.887 118.572L298.185 118.374L299.21 118.278L302.033 118.398L302.542 118.542L303.476 118.428L304.701 117.948L305.439 117.888L307.203 118.14L308.835 119.279L309.882 119.777L310.146 120.371L310.724 121.012L311.503 121.3L311.949 121.642L312.31 122.625L313.255 122.595L314.137 121.222L314.749 120.724L315.66 120.431L315.889 120.485L316.69 121.63L317.257 121.828L318.122 121.636L318.654 121.198L318.872 121.246L319.232 121.989L319.204 122.397L319.645 122.595L321.151 122.013L322.084 121.876L322.954 120.892L324.5 119.765L325.101 119.579L325.949 119.058L326.481 118.152L327.752 117.397L328.6 117.151L330.604 118.302L330.89 119.135L330.827 119.315L329.109 119.957L328.897 120.425L328.92 120.706L329.332 121.828L329.235 122.085L327.787 123.668L327.764 123.938L328.628 123.788L328.88 123.614L329.533 123.806L329.636 123.986L329.499 124.28L329.699 125.623L330.243 126.186L331.159 126.66L332.104 126.156L332.871 126.061L333.89 125.143L334.119 124.855L334.113 124.532L333.89 124.094L334.199 123.638L334.709 123.225L335.751 123.165L336.066 122.781L336.988 122.253L339.209 122.409L340.457 122.235L340.915 121.917V121.558L341.568 121.57L342.719 121.3L343.807 120.682L344.065 119.603L344.912 118.836L346.235 118.194L347.752 118.32L348.221 118.476L349.653 119.711L350.157 119.849L350.472 120.58L349.744 121.612L349.681 121.941L349.687 122.229L350.088 122.451L350.243 122.751L350.351 123.386L349.229 127.212L347.368 132.578L347.214 132.452L345.553 132.29L344.454 131.804L343.612 131.918L342.146 132.692L340.864 132.182L339.719 132.326L338.831 133.07L338.763 133.339L337.514 134.712L336.478 135.378L335.814 135.348L334.749 135.984L334.079 136.049L332.281 135.876L330.85 136.265L329.756 135.978L328.737 135.348L327.649 134.077L326.189 132.866L325.571 132.938L324.615 132.758L324.042 132.026L323.573 132.386L323.521 132.8L322.158 134.772L320.916 135.228L320.549 135.882L319.794 136.523Z" fill="#C8B2D8"/>
<path d="M289.685 76.4001L290.435 76.472L290.83 76.3341L292.112 76.6399L292.679 77.1496L292.862 77.5093L292.799 77.989L292.175 79.0982L291.271 80.2793L291.168 81.1547L291.334 81.9282L292.364 84.7582L294.168 88.6074L294.42 89.6447L295.198 90.598L295.187 91.0537L294.763 91.8691L295.216 94.1895L294.941 95.1488L295.513 96.3539L295.857 98.1466L295.519 99.094L295.061 99.4417L295.588 99.8554L295.651 100.083L296.189 104.976L296.052 105.246L296.487 106.786L297.088 109.904L297.666 111.505L298.416 111.895L299.882 112.177L300.323 112.872L300.317 113.286L299.458 114.635L298.806 116.5L298.851 117.081L299.241 117.489L299.206 118.28L298.181 118.376L297.884 118.574L297.821 118.844L297.855 119.414L298.199 120.091L298.159 121.404L299.086 122.351L299.252 122.675L299.218 124.036L298.794 125.091L296.567 127.412L296.011 127.58L294.7 128.377L294.391 128.899L293.263 129.924L291.763 130.686L291.505 131.381L290.647 132.76L290.045 133.162L289.593 133.054L288.448 133.282L288.511 134.721L287.446 135.8L287.263 135.77L286.908 135.398L285.671 135.392L285.201 135.98L284.761 136.196L283.197 136.399L282.333 137.203L281.863 137.934L280.89 137.994L280.043 138.378L278.325 138.444L277.855 138.276L277.747 138.108L277.821 137.713L276.842 137.125L276.08 136.891L275.285 137.221L274.065 137.479L273.882 137.371L273.647 136.813L272.788 136.537L271.672 136.549L269.817 137.539L269.782 138.096L271.065 140.758L271.133 141.448L270.967 142.989L270.824 143.534L270.412 144.05L268.723 147.078L267.022 148.529L266.249 148.781L265.402 148.463L264.635 148.361L263.375 148.811L262.705 149.344L262.322 149.866L261.669 150.094L261.24 150.963L261.051 151.089L259.842 150.981L258.812 151.293L256.419 150.184L255.405 148.691L255.102 147.366L254.724 146.742L253.899 145.939L252.565 145.951L250.882 145.825L250.91 144.674L251.059 144.038L251.718 142.569L251.792 138.756L252.227 137.916L252.245 137.611L251.254 135.776L250.985 133.863L250.584 132.7L251.002 131.501L251.975 130.662L252.663 129.175L252.737 128.269L252.932 127.772L253.103 127.646L253.928 126.003L254.289 124.612L254.512 122.831L255.073 121.044L256.293 119.875L257.85 119.42L259.344 119.234L259.957 119.012L260.93 118.094L261.532 118.07L262.299 117.759L263.936 116.218L265.276 115.672L266.427 114.473L266.788 113.951V113.676L267.876 112.524L268.162 112.393L268.643 112.249L268.775 112.428L269.416 112.273L269.988 111.913L270.824 111.799L271.403 111.925L272.84 113.016L273.704 112.956L275.101 112.44L275.577 112.417L275.949 112.584L277.254 112.411L277.947 111.625L278.233 110.75L278.302 110.024L278.468 109.76L278.691 108.441L278.617 107.932L278.52 107.632L277.598 107.086L276.579 105.869L276.287 104.49L276.224 103.225L276.321 101.738L278.668 99.082L278.789 98.7522L278.846 97.2952L278.531 95.5085L277.626 93.8297L278.279 92.1089L278.439 91.2276L278.222 90.4661L277.518 89.9625L277.317 88.8113L277.758 88.1817L278.125 88.0798L278.594 86.8926L279.676 85.7834L280.18 84.6862L280.157 83.613L281.829 81.5684L282.293 81.6644L284.188 81.3885L286.553 79.0082L287.578 77.6472L287.801 76.7299L287.434 76.4121L287.308 75.9804L287.572 75.117L287.99 75.189L288.831 75.7106L289.123 76.0164L289.049 76.2022L289.685 76.4001Z" fill="#C8B2D8"/>
<path d="M227.311 299.733L224.311 299.715L224.122 299.979L223.126 300.123L222.691 300.081L222.628 299.847L221.729 300.189L220.956 301.046L219.038 302.323L218.214 302.227L217.509 301.856L215.717 300.297L215.127 300.063L214.692 300.057L213.066 300.495L211.732 300.597L211.269 300.579L210.456 300.123L209.82 300.207L208.944 300.597L208.606 301.478L208.188 302L207.118 302.587L205.074 302.341L203.928 303.031L203.516 303.493L203.121 304.446L203.608 306.239L203.11 306.754L202.583 306.766L202.154 306.994L202.056 307.288L201.295 306.155L198.861 306.233L196.709 305.975L195.804 305.267L195.712 305.021L195.123 304.644L192.684 304.428L189.655 303.421L188.315 303.762L186.775 303.744L185.618 302.899L185.435 302.593L184.828 302.449L184.525 302.443L184.118 302.665L182.04 302.653L181.914 301.928L180.466 299.421L180.477 297.869L179.91 296.142L177.952 294.721L177.328 295.398L176.114 295.332L175.484 295.59L174.872 296.13L174.036 295.482L173.566 295.518L173.406 294.199L173.784 293.258L174.397 292.496L175.095 291.189L175.129 290.985L174.849 290.536L174.86 289.792L175.376 287.61L176.097 285.799L175.954 284.42L176.687 282.993L176.567 282.382L176.086 281.854L175.908 280.895L176.286 280.259L176.738 279.935L178.101 279L178.307 278.508L179.206 273.76L179.395 273.55L180.03 273.358L180.981 272.752L181.364 272.345L182.195 270.21L182.183 269.521L182.716 268.124L183.351 267.632L186.449 266.271L188.315 264.898L190.508 265.288L192.804 265.222L194.676 265.396L195.369 265.024L195.569 264.664L195.987 264.442L196.657 264.616L197.505 265.084L198.947 265.36L200.459 266.013L201.209 266.091L201.822 265.767L203.299 265.761L203.745 266.361L204.747 266.865L206.757 267.344L207.118 267.65L207.524 268.441L208.515 268.483L208.755 268.28L209.7 268.369L210.078 268.693L213.118 268.771L214.818 268.262L215.465 269.191L217.521 270.888L218.03 271.943L218.036 273.586L217.813 273.934L217.721 274.419L217.939 275.522L218.683 276.428L218.637 277.483L218.431 277.819L219.284 279.617L219.977 280.307L220.361 280.475L220.647 280.883L220.618 281.416L221.145 282.597L221.488 282.771L221.632 283.035L221.488 283.665L220.761 284.942L220.945 286.165L221.288 286.393L221.866 286.519L223.229 286.447L225.187 286.129L225.473 286.363L226.378 286.249L227.288 286.327L228.21 287.082L228.13 287.328L227.62 287.718L227.225 289.696L227.426 290.164L228.038 290.482L228.411 289.972L229.04 288.317L229.475 288.215L230.701 288.563L230.472 289.732L230.89 291.711L231.703 292.059L231.794 292.85L231.021 293.462L230.672 294.349L230.357 294.277L230.512 293.114L231.336 292.544L230.529 292.712L230.019 293.006L229.521 292.994L229.327 292.76L229 292.658L228.691 292.88L228.531 293.438L228.829 293.917L228.411 294.493L228.239 294.553L226.819 294.235L226.367 293.911L226.109 293.983L226.006 294.523L226.201 294.745L227.122 295.081L227.924 294.931L229.143 295.29L229.298 295.578L228.743 295.986L227.861 297.653L227.151 298.114L225.765 298.456L225.651 298.726L227.34 298.606L227.426 299.319L227.311 299.733Z" fill="#C8B2D8"/>
<path d="M268.303 270.284L268.263 269.816L268.48 269.654L270.307 269.786L271.789 269.432L270.341 268.503L269.539 268.203L267.931 268.611L267.152 269.57L266.562 269.762L266.161 269.732L265.389 268.443H265.114L264.599 268.695L264.049 269.331L262.245 269.81L262.051 270.356L261.942 271.495L263.196 271.573L263.808 272.178L263.15 272.826L262.612 272.724L261.799 272.826L261.524 272.67L260.591 271.633L260.562 271.387L261.186 269.289L261.81 268.599L263.156 267.993L263.442 268.083L265.028 267.868L265.887 267.442L266.831 266.153L266.402 265.169L265.429 265.163L263.625 265.481L262.612 265.247L261.908 264.294L261.587 263.593L260.86 263.269L261.249 262.975L262.635 262.531L264.301 261.728L265.778 261.626L266.064 261.788L267.049 261.326L267.65 260.865L269.992 259.791L270.289 259.749L270.495 259.935L272.327 259.893L273.043 259.791L273.976 259.228L274.303 259.192L275.751 259.354L276.032 259.456L276.02 259.737L276.81 259.617L282.255 256.901L283.703 256.308L283.824 255.996L283.663 255.63L282.839 255.552L282.89 255.103L283.972 252.878L285.324 249.257L284.906 248.831L285.226 248.537L285.936 248.375L287.385 246.96L288.49 247.416L288.873 250.24L290.305 250.918L292.783 251.523L294.495 251.301L295.423 251.937L295.377 252.698L294.839 253.664L294.713 254.941L295.366 259.006L295.079 259.414L293.316 260.463L289.898 261.626L288.278 262.657L286.274 264.87L286.211 265.865L286.388 266.578L286.28 267.55L285.862 268.437L284.82 268.743L281.07 268.641L277.755 269.061L276.387 268.785L276.106 268.557L276.072 268.149L276.661 267.262L277.045 266.393L276.993 266.021L276.547 265.913L274.95 266.602L274.801 267.016L274.978 267.49L275.768 268.191L275.911 268.773L275.574 269.085L274.64 269.39L273.742 269.372L269.139 270.014L268.303 270.284ZM265.377 271.477L264.994 270.895L266.202 269.966L267.266 270.53L267.513 270.949L266.104 271.249L265.869 271.039H265.6L265.377 271.477Z" fill="#C8B2D8"/>
<path d="M348.992 109.974L348.459 110.118L346.455 109.992L345.86 110.232L344.452 109.572L343.209 109.392L339.871 109.626L339.568 109.416L337.61 109.177L337.255 108.883L337.312 108.283L337.071 108.049L336.281 108.079L335.239 108.889L335.062 109.776L335.474 110.244L335.777 111.161L335.199 110.969L334.924 111.323L335.016 112.175L335.285 112.738L334.97 113.464L334.684 113.907L333.338 114.465L332.863 114.021L333.161 113.098L332.651 112.396L331.535 112.216L330.521 112.264L328.718 113.02L328.552 112.882L328.374 112.055L328.191 111.917L326.17 111.605L326.216 110.574L326.336 110.388L326.823 110.238L327.058 110.01L327.275 108.967L327.527 108.391L329.239 106.467L329.233 105.753L328.93 105.489L328.563 105.441L326.697 106.065L325.878 106.137L324.057 106.862L323.823 107.432L323.765 108.055L323.296 108.481L321.447 109.476L320.782 110.154L319.134 109.788L318.618 109.536L317.513 108.553L317.187 108.829L316.809 109.057L316.443 108.955L316.637 107.774L317.445 106.425L317.925 105.897L318.217 105.855L318.664 106.161L319.254 106.005L319.58 105.345L320.416 104.44L321.218 102.977L321.132 102.533L321.504 101.532L322.002 101.19L322.483 100.519L324.372 96.5076L325.867 95.3025L328.666 94.3492L328.936 94.8049L329.428 95.2545L331.22 95.2485L331.918 95.4944L332.886 96.5436L333.642 96.8434L335.548 96.6515L337.197 96.9633L338.652 96.8194L339.986 96.3817L342.562 96.9333L343.289 96.9573L344.406 97.473L344.99 97.9646L345.356 98.5282L346.679 101.37L346.965 102.443L346.942 102.893L347.789 106.119L347.91 107.126L348.322 107.45L348.872 109.063L348.992 109.974Z" fill="#C8B2D8"/>
<path d="M107.401 174.752L106.662 173.882L106.411 172.755L105.517 172.443L105.025 172.635L103.989 172.683L101.658 171.598L101.653 171.358L101.275 170.992L100.548 171.346L99.4141 170.339L98.5439 169.757L98.0515 168.882L97.8912 168.048L97.2957 167.814L96.2823 168.486L95.5838 168.468L94.7766 167.988L94.2785 167.191L92.4864 166.244L91.3643 166.142L90.7116 166.465L90.1963 166.975L89.3775 166.873L89.2001 166.693L87.9748 166.387L86.2229 166.22L85.7877 165.962L85.1121 165.248L84.9404 164.067L84.0358 163.773L82.9537 163.192L82.4842 162.16L82.3182 162.04L80.7609 161.873L80.5433 161.663L80.0624 159.438L79.5585 158.905L79.2837 159.6L78.9058 159.408L78.7512 159.025L79.1062 158.107L78.6253 157.196L77.8466 156.962L77.1252 154.881L77.0279 153.886L77.9153 152.141L77.7951 151.146L77.131 149.965L76.7016 148.67L76.6672 147.297L77.0222 146.997L77.2397 146.175L77.8352 145.546L78.0413 144.664L77.9039 143.771L77.6634 143.237L77.6119 142.32L77.9211 141.331L77.2512 140.024L76.6672 139.796L76.0431 140.383L76.0088 140.689L75.5279 141.265H75.2015L73.9534 140.653L70.9876 140.701L67.7757 141.769L66.8081 141.763L65.9608 142.05L64.2603 141.295L66.1268 139.76L67.2261 139.412L68.1135 138.327L68.1994 137.991L68.1078 137.218L70.375 137.374L72.0182 137.176L72.4304 137.398L73.753 138.795L73.9648 138.783L74.6633 138.309L74.7378 137.877L74.9725 137.559L75.5908 137.26L76.0317 137.338L76.8161 137.104L77.5604 136.378L78.6138 135.767L78.8314 135.821L79.1978 137.176L79.5871 137.493L79.9765 137.445L81.4307 135.551L81.2819 134.502L81.5853 133.998L82.5872 133.242L82.8506 133.254L83.3315 133.584L84.3564 133.644L85.0434 133.003L86.2629 132.775L88.4787 133.051L88.3413 132.175L88.4042 131.09L89.5837 130.364L90.0474 129.675L90.2535 129.063L90.1562 128.793L89.6409 128.374L89.6695 127.972L90.3509 127.019L91.7708 126.701L91.9196 126.569L91.8681 125.868L92.8529 125.568L93.6429 124.033L99.8206 123.997L101.052 124.674L101.309 124.968L101.767 126.113L102.529 126.875L103.983 127.462L104.699 129.423L104.962 129.549L105.523 129.471L105.878 129.591L106.267 131.318L108.122 132.205L108.512 132.091L108.821 131.048L109.92 130.4L110.716 130.568L110.922 130.796L110.899 131.216L111.701 131.797L112.044 132.541L111.609 133.392L110.871 136.384L110.905 136.594L111.352 136.876L111.5 137.242L111.586 138.075L112.061 139.436L111.523 140.437L111.741 141.595L111.168 143.705L111.151 144.185L111.306 145.24L112.165 146.889L111.649 152.285L121.474 152.315L121.337 152.651L122.035 153.316L124.039 153.263L124.674 153.328L125.287 153.586L126.094 155.739L125.997 156.188L125.195 157.238L124.417 157.885L124.337 158.677L124.583 160.625L124.915 160.931L125.43 160.913L126.306 162.916L126.283 164.145L126.615 165.038L126.575 166.064L126.255 167.407L125.304 168.612L125.007 169.961L124.674 170.465L124.428 170.71L123.489 171.028L122.957 171.676L122.138 173.942L121.84 175.411L119.487 176.952L118.646 177.809L118.222 177.786L116.739 176.856L116.012 175.999L111.958 176.574L111.203 176.317L111.06 176.137L109.124 176.532L108.85 176.436L108.552 175.627L107.401 174.752Z" fill="#C8B2D8"/>
<path d="M134.472 37.1205L135.388 47.2953L124.802 47.2533L124.819 47.661L123.485 49.6157L122.535 51.4324L122.495 52.1099L121.836 53.6928L121.773 54.0885L121.905 54.5262L122.558 55.3716L122.546 55.6893L122.306 55.9232L121.144 56.2529L120.336 57.0983L119.621 57.3741L118.579 57.2362L118.052 55.7313L116.981 54.5082L115.361 53.9506L114.445 53.9865L114.13 54.5202L112.933 54.9459L112.201 55.3596L111.617 56.115L111.147 57.8958L111.359 58.975L111.216 60.0123L110.786 61.3853L111.038 62.6504L109.687 62.0268L108.92 62.2787L108.616 62.2367L108.021 61.0135L107.174 60.0243L106.052 59.2388L105.754 59.2148L102.885 56.5647L102.966 55.8812L104.019 56.0791L104.672 55.2876L104.706 54.9399L104.059 52.3437L103.727 51.8041L103.029 51.3005L102.525 49.9994L102.359 47.0135L102.685 46.4379L103.126 44.6152L102.748 43.6679L102.542 42.7146L103.469 41.8392L103.441 41.5694L102.943 40.8979L102.834 39.5428L101.883 36.6888L100.32 34.4464L100.727 33.5471L101.248 31.5565L100.967 31.1608L99.851 30.5912L99.0723 30.5252L98.5685 30.6511L98.0131 30.4293L97.3204 29.7278L97.286 29.1522L96.9253 29.0862L96.2783 29.3381L95.9291 29.3321L95.4997 29.1282L95.0875 28.6605L95.2592 28.3847L95.3909 27.0177L95.2191 26.8858L93.2897 26.7479L91.1427 26.8319L89.2476 26.4121L89.1331 26.0524L89.5911 24.9972L89.6598 24.1098L89.2419 23.0485L88.1311 20.926L87.7132 19.6909L87.4441 17.4605L87.8964 16.5731L87.8506 15.9975L86.7971 14.7984L85.5605 14.1629L83.9516 12.496L83.3447 11.4108L83.1787 10.8352L82.526 10.4455L82.3829 10.2117L82.4001 9.70802L82.5661 9.51016L83.0814 9.55213L83.7226 9.94785L84.2608 10.9851L84.61 11.0391L86.5509 10.7393L87.3239 10.7992L88.4174 11.153L88.7667 11.8725L89.0816 13.0297L89.3907 13.2395L89.9404 13.1915L90.364 12.8018L90.9079 12.562L92.7286 12.6579L92.9977 12.6879L93.7477 13.4134L94.0913 13.5033L94.389 13.4194L94.7382 12.484L95.4882 12.568L96.3184 13.1256L98.5685 15.8656L99.1696 16.2074L99.5761 16.2734L100.441 15.8656L100.864 15.1881L100.922 14.6845L100.446 13.0297L100.653 11.9864L100.916 11.8185L102.021 11.7885L102.599 11.129L103.487 10.4755L103.916 10.5055L106.149 11.3089L106.487 11.207L106.945 10.7753L107.534 10.5954L108.181 10.8052L108.771 10.6793L109.538 9.91187L110.111 9.76198L110.769 9.89988L111.405 9.85791L111.794 9.34828L111.823 8.53885L113.557 7.45362L114.891 7.56754L116.472 7.33371L116.981 6.65619L117.033 6.23049L117.371 5.55897L117.8 5.48102L118.859 4.94141L119.489 4.31785L120.124 3.29258L119.437 1.1581L118.768 0.94225L119.134 0.834327L119.953 0.876297L120.411 1.06816L122.455 1.0082L123.062 0.438608L123.485 0.306702L124.27 0.558523L124.573 1.34396L125.169 1.82362L125.443 2.64504L125.06 5.58295L124.648 6.41036L123.932 6.83006L123.966 7.32771L124.888 7.57354L125.815 7.44163L127.161 7.92728L128.203 8.58682L127.699 9.44421L127.693 10.1337L129.033 12.1843L129.148 13.1136L128.283 14.8644L127.207 15.7098L126.795 16.6091L126.949 16.8429L126.983 18.144L126.142 19.589L125.627 21.2498L125.449 22.7907L125.398 24.3916L125.959 25.5128L126.251 26.568L126.245 27.4074L127.144 28.025L127.659 28.1449L127.733 28.5526L127.47 31.6404L127.539 32.0841L128.575 32.258L128.197 32.9595L128.461 33.2593L129.692 33.703L130.527 34.8541L132.05 36.497L134.472 37.1205Z" fill="#C8B2D8"/>
<path d="M184.502 383.147L184.296 383.153L183.185 382.487L183.071 382.211L183.368 379.651L183.105 377.103L183.191 376.462L183.552 375.718L185.178 374.291L185.653 373.356L186.97 371.821L186.134 370.832L185.521 370.46L184.233 370.1L182.905 368.751L182.212 367.78L182.155 366.826L181.908 366.119L181.204 364.902L180.025 363.559L179.641 363.205L178.273 362.479L177.442 362.605L176.355 361.7L175.484 360.723L174.769 360.255L174.689 359.236L173.601 357.941L171.7 357.665L171.173 357.383L170.183 356.388L169.175 356.466L167.932 355.638L166.839 353.414L166.203 352.521L164.755 351.249L164.354 351.297L163.97 352.371L162.488 353.714L160.959 353.786L161.016 352.071L161.245 351.303L161.022 350.704L158.932 348.132L157.575 347.07L156.327 345.835L155.325 344.57L153.785 343.245L152.697 343.161L151.466 343.287L150.813 344.103L150.779 344.678L150.189 345.26L149.554 345.272L149.222 344.984L147.412 345.068L147.04 344.78L146.949 344.234L146.668 344.103L147.155 343.971L147.75 343.539L149.193 341.878L149.256 340.775L149.6 340.025L150.069 339.756L150.808 339.714L151.174 339.558L151.701 338.958L154.821 335.073L155.182 334.222L155.279 333.556L155.749 332.915L156.436 332.405L157.22 332.159L158.342 329.629L158.4 329.263L158.577 329.041L159.516 328.526L160.449 327.446L160.936 326.757L161.228 325.983L161.995 324.724L162.528 324.55L163.427 324.658L163.741 325.132L164.011 324.365L163.89 324.017L163.117 323.525L163.089 323.309L163.289 323.111L163.907 322.884L164.377 322.308L165.974 321.738L166.576 321.097L166.633 320.545L167.102 320L168.368 319.31L169.782 319.07L170.795 317.985L170.881 317.35L171.637 315.935L171.826 315.911L171.854 316.126L172.02 316.246L172.782 316.144L174.179 315.467L175.713 315.113L176.406 314.771L177.609 313.362L177.895 313.368L178.278 313.135L178.857 312.325L180.179 311.887L180.351 312.115L182.366 312.349L184.233 311.66L184.553 311.174L185.326 311.522L185.241 312.073L187.004 312.055L187.937 312.649L189.403 312.427L190.502 313.117L191.979 312.871L192.861 312.979L194.464 312.883L195.758 313.434L197.178 314.274L197.751 315.737L198.661 315.851L198.713 315.563L199.749 315.353L202.932 317.475L203.717 318.405L204.123 318.387L205.016 318.974L206.751 321.067L207.69 322.392L207.965 323.279L209.207 324.874L209.877 325.204L213.708 325.84L214.916 325.6L216.834 325.804L217.337 327.207L216.147 328.154L215.419 328.4L215.001 329.515L215.127 330.828L214.91 331.763L214.612 332.543L213.937 332.663L213.198 333.676L213.181 334.521L214.211 335.223L214.366 335.103L214.206 334.521L214.211 333.946L215.064 333.454L215.969 333.838L216.387 334.383L217.057 334.893L217.315 334.875L216.513 335.912L214.28 340.133L211.87 347.088L208.263 353.372L205.148 357.365L201.421 360.939L197.934 363.145L196.159 365.729L196.056 365.471L196.428 364.524L196.623 363.217L195.947 362.192L196.004 361.94L196.537 361.838L197.115 362.078L197.436 362.426L198.02 362.45L199.497 361.604L199.966 361.196L201.598 358.972L202.028 358.558L202.285 358.672L202.869 358.558L203.47 358.055L204.003 357.293L204.215 356.406L204.318 355.848L204.186 354.589L204.301 353.768L205.199 353.726L205.623 353.906L205.778 354.403L205.978 354.247L205.812 353.408L206.104 352.167L206.379 351.825L207.948 350.872L208.366 350.224L208.635 348.575L208.515 347.208L208.835 346.801L209.121 347.28L209.333 347.298L209.579 347.046L209.849 345.2L209.791 344.936L209.247 344.204L208.864 344.186L208.715 344.6L208.812 344.834L208.732 345.176L208.532 345.296L207.667 345.284L206.516 345.524L206.322 346.489L206.018 346.519L205.554 346.255L205.612 345.23L205.142 344.696L204.547 344.894L204.203 344.606L203.785 343.851L203.556 342.981L203.625 342.64L203.259 342.226L202.909 343.851L203.161 345.2L203.877 346.465L203.551 346.951L203.127 348.473L203.344 350.29L203.241 350.752L202.967 350.53L203.115 350.386L203.098 349.96L202.829 349.193L202.572 348.959L202.268 349.355L202.251 350.176L201.444 352.137L201.415 353.27L201.541 353.582L201.129 354.002L200.207 354.385L199.858 355.333L197.516 356.274L197.104 356.592L196.8 357.545L196.743 358.906L196.188 360.267L194.836 361.047L194.773 362.102L195.048 362.599L195.191 363.211L194.647 363.547L194.504 364.452L194.751 364.812L195.14 364.728L195.884 365.106L195.97 365.651L194.751 366.641L193.422 369.351L192.317 373.476L191.166 376.168L190.205 377.679L185.744 382.193L184.502 383.147Z" fill="#C8B2D8"/>
<path d="M217.319 334.874L217.061 334.893L216.391 334.383L215.973 333.831L215.063 333.454L214.216 333.945L214.21 334.521L214.37 335.102L214.216 335.222L213.185 334.521L213.208 333.675L213.941 332.662L214.616 332.542L214.92 331.757L215.132 330.827L215.006 329.514L215.424 328.399L216.151 328.147L217.342 327.2L216.838 325.797L214.92 325.593L213.712 325.833L209.881 325.197L209.217 324.874L207.975 323.279L207.694 322.391L206.761 321.066L205.026 318.974L204.127 318.38L203.72 318.398L202.936 317.469L199.753 315.346L198.716 315.55L198.665 315.838L197.749 315.724L197.176 314.261L195.762 313.428L194.462 312.87L192.865 312.966L191.983 312.858L190.5 313.104L189.406 312.414L187.935 312.63L187.002 312.043L185.238 312.061L185.324 311.503L184.551 311.155L184.23 311.641L182.364 312.337L180.348 312.103L181.179 310.346L181.597 309.093L181.264 307.144L181.499 305.22L181.476 303.691L182.026 302.641L184.104 302.653L184.511 302.426L184.814 302.432L185.421 302.575L185.599 302.881L186.761 303.727L188.296 303.745L189.635 303.397L192.664 304.404L195.103 304.62L195.687 304.998L195.785 305.244L196.684 305.951L198.842 306.203L201.276 306.125L202.037 307.264L202.14 306.964L202.564 306.737L203.091 306.725L203.589 306.209L203.102 304.416L203.497 303.469L203.909 303.001L205.055 302.318L207.099 302.557L208.169 301.976L208.587 301.454L208.925 300.567L209.801 300.177L210.437 300.093L211.25 300.549L211.714 300.567L213.048 300.465L214.674 300.027L215.103 300.033L215.699 300.273L217.485 301.832L218.189 302.204L219.014 302.3L220.932 301.023L221.705 300.165L222.598 299.823L222.667 300.057L223.102 300.099L224.098 299.961L224.287 299.698L227.287 299.715L227.064 300.507L227.356 301.496L227.316 301.73L226.457 302.414L225.896 302.126L225.426 300.609L225.415 301.28L225.753 302.911L226.732 303.907L227.053 304.476L226.474 305.849L226.383 307.24L226.44 307.498L226.875 307.936L227.024 311.449L227.201 311.779L227.448 311.899L227.889 311.593L228.089 312.025L228.146 312.546L227.877 312.582L227.631 312.414L226.95 312.792L226.755 315.095L227.081 316.647L226.755 317.097L226.932 318.254L227.453 319.382L226.961 320.785L226.663 323.189L225.684 325.995L225.489 325.935L225.283 325.479L225.404 324.898L224.877 324.19L224.728 324.388L224.831 325.845L225.495 326.343L224.968 327.338L224.029 327.728L221.665 329.55L220.062 331.085L217.914 333.747L217.319 334.874ZM227.556 318.956L227.471 318.674L227.614 317.625L228.049 316.186L227.82 315.478L227.911 314.867L228.713 314.411L228.839 314.447L229.217 315.011L228.908 316.546L228.438 317.061L228.1 317.793L228.215 318.494L227.556 318.956ZM227.299 304.344L226.228 303.133L227.688 301.67L227.831 301.694L228.203 302.324L227.711 303.115L227.299 304.344Z" fill="#C8B2D8"/>
<path d="M326.469 157.209L324.808 157.742L323.921 157.359L323.612 157.155L323.337 156.723L322.237 156.172L321.894 155.86L321.825 155.614L322.02 155.38L322.094 154.529L322.008 154.295L321.19 153.389L320.892 152.496L320.268 152.094L319.718 151.135L319.707 150.673L320.045 149.726L320.228 149.546L321.201 149.552L321.848 150.002L323.308 149.408L323.703 149.078L323.875 148.73L323.44 147.082L323.486 146.554L323.863 145.583L323.909 143.718L323.48 143.028L322.34 141.859L321.613 140.36L321.487 139.077L321.871 138.387L325.57 140.174L327.677 140.744L330.78 142.585L331.524 144.054L332.532 144.923L333.482 145.397L333.746 145.415L335.801 146.752L336.145 147.537L334.782 147.993L332.165 149.756L331.61 150.289L330.723 151.615L330.539 151.603L330.602 150.943L330.001 149.852L329.434 149.948L329.629 150.643H330.339L330.471 150.787L330.173 151.968L329.446 153.221L329.142 153.012L328.93 152.61L328.364 152.514L328.478 152.922L329.125 153.293L328.976 154.355L328.484 155.044L327.951 156.261L327.505 156.351L327.333 156.076L327.608 155.236L327.843 155.158L328.02 154.9L328.232 154.277L327.768 154.055L327.825 154.463L327.568 155.14L327.293 155.44L327.144 156.094L327.304 156.525L327.156 156.837L326.469 157.209Z" fill="#C8B2D8"/>
<path d="M231.789 292.851L231.697 292.054L230.884 291.712L230.466 289.733L230.695 288.564L229.47 288.216L229.035 288.318L228.405 289.979L228.027 290.489L227.42 290.171L227.22 289.703L227.615 287.725L228.124 287.329L228.204 287.089L227.283 286.328L226.372 286.25L225.468 286.364L225.181 286.136L223.229 286.454L221.866 286.526L221.288 286.4L220.945 286.166L220.756 284.943L221.488 283.672L221.632 283.042L221.488 282.778L221.145 282.598L220.618 281.417L220.653 280.884L220.366 280.476L219.983 280.302L219.29 279.618L218.437 277.814L218.643 277.484L218.689 276.429L217.944 275.517L217.727 274.414L217.824 273.929L218.047 273.581L218.036 271.938L217.526 270.883L215.471 269.186L214.824 268.257L213.124 268.772L210.083 268.694L209.705 268.37L208.761 268.287L208.52 268.49L207.536 268.448L207.123 267.657L206.763 267.351L204.753 266.872L203.751 266.368L203.304 265.768L201.827 265.774L201.215 266.098L200.459 266.02L198.947 265.367L197.499 265.091L196.651 264.617L195.982 264.443L195.564 264.665L195.369 265.025L194.676 265.397L192.798 265.223L190.502 265.289L188.309 264.899L186.449 266.272L186.93 265.624L187.348 264.701L188.069 264.018L192.397 261.296L193.514 260.174L194.235 258.717L195.226 257.704L195.455 256.979L196.279 256.361L196.44 255.63L196.239 255.126L197.384 253.771L198.077 252.368L198.117 251.804L197.94 250.647L198.071 250.413L198.621 250.101L200.11 247.919L200.201 246.162L200.556 245.155L201.134 244.975L201.552 244.591L202.692 242.985L203.39 242.373L203.659 242.235L204.409 242.211L205.268 241.743L205.429 241.504L205.658 240.029L206.356 239.351L207.587 238.686L208.686 238.464L209.505 237.45L210.364 237.085L210.793 237.169L211.784 238.098L213.244 238.146L215.7 238.722L216.656 238.506L217.584 238.638L218.729 238.284L219.977 239.135L220.933 239.609L220.859 240.161L221.048 241.012L221.74 242.265L222.101 242.283L222.41 242.091L222.794 241.528L223.029 240.85L223.178 240.736L223.492 240.766L223.699 241L223.842 241.576L223.847 243.242L224.534 243.56L224.769 243.29L224.615 241.767L224.895 241.054L225.153 240.766L229.836 240.364L230.414 239.615L231.273 240.49L231.915 240.748L233.506 240.334L233.758 239.741L233.644 239.465L233.821 239.099L235.184 239.033L236.134 239.501L236.621 239.117L237.371 238.943L239.237 240.952L239.352 241.576L239.026 242.181L238.86 243.602L239.192 243.968L240.274 244.693L240.503 245.623L240.468 245.958L239.598 247.176L239.495 248.339L239.947 248.782L240.125 249.148L240.337 250.473L241.081 251.552L241.556 252.746L241.539 253.255L242.461 253.225L242.907 253.039L243.068 252.824L243.64 252.794L245.759 253.585L245.89 253.807L245.862 254.568L245.461 255.875L244.396 257.506L244.545 259.269L244.436 261.337L244.133 262.273L244.545 263.232L245.564 263.976L246.6 264.473L246.892 265.505L246.2 265.924L247.356 267.909L248.003 268.059L249.154 267.915L249.257 268.233L251.33 267.633L251.65 267.885L252.4 267.693L252.83 267.105L252.858 266.602L252.721 266.458L252.818 265.079L253.5 264.881L253.551 265.091L253.351 265.385L253.356 265.672L254.696 265.72L256.065 265.57L257.089 265.169L257.794 264.425L258.899 263.814L260.164 263.682L260.874 263.244L261.601 263.568L261.922 264.269L262.626 265.223L263.639 265.457L265.443 265.139L266.416 265.145L266.846 266.128L265.901 267.417L265.042 267.843L263.456 268.059L263.17 267.969L261.824 268.574L261.2 269.264L260.576 271.362L260.605 271.608L261.538 272.645L261.813 272.801L261.779 272.921L260.811 273.173L260.204 272.681L259.357 273.347L259.11 273.737L259.265 273.869L258.83 274.252L256.986 275.182L255.698 275.601L255.538 275.865L255.561 276.441L255.847 277.37L255.664 277.622L254.862 277.778L254.461 277.394L253.694 277.22L251.908 276.92L251.415 277.01L250.66 277.214L249.669 277.706L249.383 278.012L248.69 279.301L247.94 279.642L247.654 279.571L247.986 279.289L247.711 278.557L247.041 278.048L246.566 278.785L246.715 279.235L246.543 279.601L242.18 282.143L241.636 282.634L241.459 283.33L239.587 285.129L237.726 286.298L236.627 286.616L234.05 288.54L232.716 289.715L232.333 289.763L232.081 290.135L232.596 290.393L232.974 290.429L233.506 290.213V290.669L233.151 291.454L232.395 291.964L231.789 292.851ZM257.158 279.055L256.276 278.665L255.612 278.773L255.332 278.545L255.389 278.078L255.933 277.688L256.557 276.579L256.969 276.729L257.347 277.118L257.421 278.863L257.158 279.055Z" fill="#C8B2D8"/>
<path d="M248.264 169.278L245.196 170.13L244.199 170.933L242.734 171.592H241.846L239.253 172.192L237.81 173.439L236.791 173.979L236.527 173.835L235.663 172.264L235.348 172.246L235.056 174.225L234.661 174.273L232.743 173.865L230.951 172.983L231.271 172.048L231.145 171.604L228.552 171.922L226.972 171.718L226.651 172.042L226.479 172.642L226.05 173.091L225.397 173.061L225.048 171.203L224.412 168.978L223.817 167.851L223.158 167.066L222.483 167.647L221.641 169.08L220.708 172.642L220.347 172.78L218.017 171.922L216.248 170.897L213.998 170.657L212.738 170.04L211.364 169.8L211.662 168.397L212.36 167.27L212.377 166.244L212.057 166.424L211.02 167.677L210.642 168.415L210.528 169.542L210.333 169.812L209.875 169.8L209.326 169.494L208.765 167.491L209.188 165.837L208.936 164.008L208.639 163.66L208.633 162.719L208.902 160.734L208.272 159.385L208.301 159.085L208.77 158.552L208.862 158.03L208.066 157.227L208.032 156.711L209.108 153.12L209.131 151.351L209.44 149.57L210.551 146.398L210.763 146.236L211.009 145.727L211.261 143.844L211.891 143.095L212.211 141.962L212.583 141.35L213.511 139.138L214.158 136.469L214.816 135.522L215.498 134.863L216.19 133.855L216.78 132.704L217.565 132.152L218.166 132.057L218.584 131.547L219.122 130.624L219.225 130.03L220.198 128.087L220.822 127.608L221.83 124.52L222.208 122.098L222.122 121.918L221.698 121.726L220.742 120.683L220.399 120.113L220.307 119.585L220.387 119.244L221.195 118.23L221.933 116.971L221.899 115.37L221.653 114.063L221.761 113.853L223.176 112.786L225.128 112.103L226.559 111.377L226.697 111.077L226.611 110.172L227.103 109.411L227.968 108.607L228.706 108.517L228.815 107.714L228.649 106.994L228.792 106.719L229.628 106.443L229.995 106.155L230.527 104.506L229.943 103.703L229.891 102.863L230.058 102.695L230.613 102.647L231.025 102.426L231.237 102.03L231.254 101.646L230.533 100.945L230.035 100.861L229.811 100.675L229.227 99.6795L228.489 99.6076L227.418 99.7575L226.107 99.2718L226.41 98.8881L227.91 97.7789L229.033 97.4611L229.531 97.4911L231.122 98.4024L231.924 98.4504L232.468 98.1386L233.464 98.3125L233.802 98.7262L233.848 99.3438L234.008 99.5356L234.707 99.5536L236.653 100.411L237.134 101.029L237.403 103.127L237.77 104.026L237.649 106.257L237.781 106.904L238.165 107.582L238.159 107.846L237.146 111.533L236.968 112.954L237.128 113.554L236.985 114.507L235.983 115.73L234.976 116.132L234.873 116.558L235.983 117.349L236.224 117.187L237.008 117.331L237.151 117.541L237.214 118.068L236.859 118.782L237.346 119.645L237.85 119.603L239.568 122.098L240.089 122.607L241.394 124.418L242.619 123.615L245.064 123.051L246.095 123.782L246.14 124.832L245.774 126.78L245.997 127.59L244.056 127.8L243.289 128.123L242.963 128.453L242.573 129.311L242.155 130.917L242.367 131.697L240.861 133.226L240.713 133.645L240.827 133.897L242.018 134.071L242.556 134.485L242.98 135.438L243.014 136.433L243.369 137.057L245.591 138.226L245.642 138.544L244.703 139.629L244.778 140.618L246.003 141.59L246.57 143.311L247.337 144.51L247.743 144.618L248.763 144.492L249.335 144.672L249.805 144.935L250.154 145.427L250.887 145.823L252.57 145.949L252.175 146.338L252.049 146.926L251.728 147.208L249.541 148.419L247.703 149.99L247.595 150.212L248.333 151.291L248.127 151.525L247.549 151.687L247.033 152.052L246.163 154.145L245.585 154.577L245.299 155.272L245.43 155.824L246.495 156.993L248.551 157.395L249.621 157.988L249.65 158.444L249.329 158.714L248.161 159.199L247.915 159.775L247.967 160.075L248.167 160.273L248.757 160.165L249.284 160.338L249.616 160.644L249.782 161.028L249.232 161.454L248.574 161.706L247.457 162.707L247.348 163.216L247.32 164.967L247.52 165.717L248.058 166.112L248.66 166.256L248.894 166.406L248.992 166.658L249.02 167.294L248.242 168.721L248.264 169.278Z" fill="#C8B2D8"/>
</g>
<defs>
<clipPath id="clip0_51:150">
<rect width="350.694" height="383.154" fill="white" transform="translate(0 0.14978)"/>
</clipPath>
</defs>
</svg>
