<svg width="74" height="74" viewBox="0 0 74 74" fill="none" xmlns="http://www.w3.org/2000/svg">
<circle cx="36.9581" cy="36.9581" r="34.5905" fill="#9162A4" stroke="#C8B2D8" stroke-width="4.73526"/>
<path d="M27.2014 29.6725L22.4522 41.8687H20.05L24.0784 31.7422H19.126V29.6725H27.2014ZM33.4125 41.9057C32.4269 41.918 31.5461 41.6839 30.77 41.2035C30.0062 40.723 29.3964 40.0208 28.9406 39.0969C28.4971 38.1729 28.2753 37.0457 28.2753 35.7152C28.2753 34.2615 28.4909 33.0788 28.9221 32.1672C29.3533 31.2556 29.9507 30.5903 30.7145 30.1715C31.4907 29.7403 32.39 29.5309 33.4125 29.5432C34.3857 29.5309 35.2604 29.7649 36.0365 30.2454C36.8126 30.7258 37.4224 31.4281 37.8659 32.352C38.3094 33.2636 38.5312 34.3847 38.5312 35.7152C38.5312 37.0826 38.3033 38.2283 37.8475 39.1523C37.404 40.0762 36.7941 40.7723 36.018 41.2404C35.2542 41.6962 34.3857 41.918 33.4125 41.9057ZM33.394 39.8545C34.0716 39.8545 34.6198 39.6759 35.0386 39.3186C35.4698 38.9613 35.784 38.4686 35.9811 37.8403C36.1905 37.1997 36.2952 36.4728 36.2952 35.6598C36.2952 34.8713 36.1905 34.1753 35.9811 33.5716C35.784 32.9557 35.4698 32.4752 35.0386 32.1303C34.6075 31.7853 34.0592 31.6128 33.394 31.6128C32.7164 31.6128 32.1682 31.7915 31.7494 32.1487C31.3305 32.4937 31.0164 32.9741 30.8069 33.5901C30.6098 34.2061 30.5113 34.9144 30.5113 35.7152C30.5113 36.5036 30.6098 37.212 30.8069 37.8403C31.0164 38.4686 31.3305 38.9613 31.7494 39.3186C32.1682 39.6759 32.7164 39.8545 33.394 39.8545Z" fill="white"/>
<path d="M51.7991 30.1345L43.576 41.9057L41.5433 41.8687L49.7295 30.1345H51.7991ZM42.8922 36.7315C41.9683 36.7315 41.2722 36.4236 40.8041 35.8076C40.3483 35.1793 40.1204 34.3909 40.1204 33.4423C40.1204 32.4814 40.3483 31.6929 40.8041 31.0769C41.2722 30.461 41.9683 30.153 42.8922 30.153C43.8039 30.153 44.4937 30.461 44.9619 31.0769C45.43 31.6929 45.6641 32.4814 45.6641 33.4423C45.6641 34.4032 45.43 35.1916 44.9619 35.8076C44.4937 36.4236 43.8039 36.7315 42.8922 36.7315ZM41.9498 33.4423C41.9498 33.9966 42.0237 34.4401 42.1715 34.7728C42.3194 35.1054 42.5596 35.2717 42.8922 35.2717C43.2249 35.2717 43.4651 35.1054 43.6129 34.7728C43.7607 34.4401 43.8347 33.9966 43.8347 33.4423C43.8347 32.235 43.5205 31.6313 42.8922 31.6313C42.5596 31.6313 42.3194 31.7792 42.1715 32.0748C42.0237 32.3582 41.9498 32.814 41.9498 33.4423ZM50.1545 42.2568C49.2305 42.2568 48.5345 41.9488 48.0664 41.3328C47.6105 40.7045 47.3826 39.9099 47.3826 38.949C47.3826 38.0004 47.6105 37.2182 48.0664 36.6022C48.5345 35.9739 49.2305 35.6598 50.1545 35.6598C51.0661 35.6598 51.756 35.9739 52.2242 36.6022C52.6923 37.2182 52.9264 38.0004 52.9264 38.949C52.9264 39.9099 52.6923 40.7045 52.2242 41.3328C51.756 41.9488 51.0661 42.2568 50.1545 42.2568ZM49.1936 38.949C49.1936 39.5157 49.2675 39.9654 49.4153 40.298C49.5755 40.6306 49.8219 40.7969 50.1545 40.7969C50.4871 40.7969 50.7273 40.6306 50.8752 40.298C51.023 39.9654 51.0969 39.5157 51.0969 38.949C51.0969 37.7417 50.7828 37.1381 50.1545 37.1381C49.8219 37.1381 49.5755 37.2859 49.4153 37.5816C49.2675 37.8772 49.1936 38.3331 49.1936 38.949Z" fill="#C8B2D8"/>
</svg>
