<svg width="73" height="73" viewBox="0 0 73 73" fill="none" xmlns="http://www.w3.org/2000/svg">
<circle cx="36.1235" cy="36.4622" r="33.7269" fill="#9162A4" stroke="#C8B2D8" stroke-width="4.79314"/>
<path d="M39.6018 42.967L37.0958 47.2681C37.5934 47.3273 38.0555 47.4813 38.4821 47.7302C38.9086 47.979 39.2522 48.3522 39.5129 48.8498C39.7854 49.3475 39.9217 49.9932 39.9217 50.7871C39.9217 51.6283 39.7262 52.3511 39.3352 52.9554C38.956 53.5596 38.4465 54.0276 37.8067 54.3594C37.1787 54.6793 36.4915 54.8393 35.7451 54.8393C35.1645 54.8393 34.578 54.7208 33.9856 54.4838C33.3931 54.2468 32.9133 53.9329 32.546 53.5419L33.5946 51.8357C33.796 52.0845 34.0863 52.3155 34.4654 52.5288C34.8564 52.7421 35.2652 52.8487 35.6917 52.8487C36.2368 52.8487 36.7226 52.6591 37.1491 52.28C37.5757 51.889 37.7889 51.3499 37.7889 50.6627C37.7889 50.0584 37.6053 49.5785 37.238 49.2231C36.8825 48.8558 36.3967 48.6721 35.7806 48.6721C35.437 48.6721 35.1586 48.6958 34.9453 48.7432C34.732 48.7787 34.5306 48.8261 34.341 48.8854L34.2877 48.8321L36.6159 44.9576H33.3457V42.967H39.6018Z" fill="white"/>
<rect x="23.9319" y="35.6992" width="24.8349" height="2.39757" rx="1.19879" fill="#C8B2D8"/>
<path d="M31.4883 29.1229C32.2229 28.3765 32.9338 27.6537 33.621 26.9546C34.3082 26.2556 34.9244 25.5802 35.4694 24.9285C36.0144 24.2769 36.441 23.643 36.749 23.0269C37.0689 22.4107 37.2289 21.8124 37.2289 21.2318C37.2289 20.5564 37.0275 20.0588 36.6246 19.7389C36.2218 19.4071 35.7419 19.2413 35.185 19.2413C34.7348 19.2413 34.3616 19.3301 34.0653 19.5079C33.781 19.6856 33.5677 19.9107 33.4255 20.1832C33.2833 20.4439 33.2123 20.7046 33.2123 20.9652C33.2123 21.3562 33.2715 21.7058 33.39 22.0138C33.5203 22.31 33.6921 22.5707 33.9054 22.7958L32.6435 23.951C32.3355 23.7852 32.0748 23.5245 31.8615 23.169C31.6482 22.8136 31.4824 22.4404 31.3639 22.0494C31.2572 21.6584 31.2039 21.3148 31.2039 21.0185C31.2039 20.3787 31.3698 19.7744 31.7016 19.2057C32.0452 18.6251 32.5369 18.1571 33.1767 17.8017C33.8165 17.4344 34.6045 17.2507 35.5405 17.2507C36.3106 17.2507 36.9801 17.4284 37.5488 17.7839C38.1294 18.1393 38.5796 18.6074 38.8995 19.1879C39.2195 19.7567 39.3794 20.3787 39.3794 21.0541C39.3794 21.7768 39.2135 22.4818 38.8818 23.169C38.55 23.8444 38.1235 24.5079 37.6021 25.1596C37.0808 25.8113 36.5417 26.4689 35.9848 27.1324H39.6638V29.1229H31.4883Z" fill="white"/>
</svg>
