<svg width="75" height="75" viewBox="0 0 75 75" fill="none" xmlns="http://www.w3.org/2000/svg">
<path d="M71.5902 37.5322C71.5902 56.5423 56.1791 71.9531 37.1685 71.9531C18.1579 71.9531 2.74688 56.5423 2.74688 37.5322C2.74688 18.5221 18.1579 3.11126 37.1685 3.11126C56.1791 3.11126 71.5902 18.5221 71.5902 37.5322Z" fill="#9162A4" stroke="#C8B2D8" stroke-width="5.49376"/>
<path d="M29.2323 19.5669C30.4679 19.5669 31.4696 18.5862 31.4696 17.3764C31.4696 16.1665 30.4679 15.1858 29.2323 15.1858C27.9968 15.1858 26.9951 16.1665 26.9951 17.3764C26.9951 18.5862 27.9968 19.5669 29.2323 19.5669Z" fill="#FBFBFB"/>
<path d="M35.4809 26.432L33.9885 20.9786C33.9876 20.9743 33.986 20.9703 33.9849 20.966L33.9587 20.8701L33.9549 20.8712C33.8188 20.4555 33.4256 20.1525 32.9558 20.1525C32.9522 20.1525 32.9487 20.1536 32.9451 20.1536V20.1346H25.9211V20.1525C25.4512 20.1525 25.0581 20.4555 24.922 20.8712L24.9181 20.8701L24.8919 20.9657C24.8909 20.9703 24.8892 20.9743 24.8884 20.9788L23.396 26.432L23.4102 26.4358C23.4034 26.4809 23.396 26.5258 23.396 26.5728C23.3953 26.7898 23.4722 27.0002 23.6133 27.1675C23.7544 27.3348 23.9508 27.4485 24.1685 27.4889C24.3863 27.5293 24.6116 27.4938 24.8054 27.3886C24.9992 27.2834 25.1493 27.1151 25.2297 26.9129L25.2363 26.9145L26.3311 22.9143V22.9295H26.3396C26.3696 22.7978 26.4839 22.6974 26.6272 22.6974C26.7707 22.6974 26.885 22.7981 26.915 22.9295H26.924V22.9725C26.9245 22.9792 26.9278 22.9848 26.9278 22.9915C26.9278 22.9982 26.9243 23.0038 26.924 23.0104V23.0513L25.1713 29.4569C25.1425 29.5144 25.1254 29.5768 25.1211 29.6407L25.1173 29.6543L25.1195 29.6548C25.1192 29.6621 25.1173 29.669 25.1173 29.6765C25.1173 29.7421 25.1305 29.8071 25.1562 29.8677C25.1818 29.9283 25.2194 29.9834 25.2668 30.0298C25.3142 30.0762 25.3705 30.113 25.4324 30.1381C25.4944 30.1632 25.5607 30.1761 25.6278 30.176H26.924V34.41C26.924 34.6957 27.0399 34.9696 27.2462 35.1716C27.4525 35.3736 27.7323 35.4871 28.0241 35.4871C28.3158 35.4871 28.5956 35.3736 28.8019 35.1716C29.0082 34.9696 29.1241 34.6957 29.1241 34.41V30.176H29.7497V34.41C29.7543 34.6928 29.8722 34.9625 30.078 35.1608C30.2839 35.3592 30.5611 35.4704 30.8499 35.4704C31.1388 35.4704 31.416 35.3592 31.6218 35.1608C31.8277 34.9625 31.9456 34.6928 31.9501 34.41V30.176H33.2502C33.3172 30.1761 33.3836 30.1632 33.4455 30.1381C33.5074 30.113 33.5637 30.0762 33.6111 30.0298C33.6585 29.9834 33.6961 29.9283 33.7218 29.8677C33.7474 29.8071 33.7606 29.7421 33.7606 29.6765C33.7606 29.669 33.7587 29.6621 33.7585 29.6548L33.7606 29.6543L33.7568 29.6407C33.7523 29.5768 33.7352 29.5144 33.7066 29.4569L31.9594 23.0711L31.9651 23.0695C31.9578 23.0441 31.949 23.0193 31.949 22.9917C31.949 22.8293 32.0835 22.6974 32.2497 22.6974C32.391 22.6974 32.504 22.7949 32.5362 22.9236L32.5476 22.9207L33.6406 26.9148L33.6471 26.9131C33.7275 27.1154 33.8776 27.2836 34.0715 27.3888C34.2653 27.4941 34.4906 27.5295 34.7083 27.4892C34.926 27.4488 35.1225 27.3351 35.2636 27.1678C35.4047 27.0004 35.4815 26.7901 35.4809 26.5731C35.4809 26.5261 35.4735 26.4812 35.4667 26.436L35.4809 26.432Z" fill="#FBFBFB"/>
<path d="M44.6928 19.5668C45.9284 19.5668 46.93 18.5861 46.93 17.3762C46.93 16.1664 45.9284 15.1857 44.6928 15.1857C43.4572 15.1857 42.4556 16.1664 42.4556 17.3762C42.4556 18.5861 43.4572 19.5668 44.6928 19.5668Z" fill="#C8B2D8"/>
<path d="M50.9411 26.4319L49.4487 20.9784C49.4478 20.9742 49.4462 20.9701 49.4451 20.9659L49.4189 20.87L49.4151 20.871C49.279 20.4554 48.8858 20.1524 48.416 20.1524C48.4124 20.1524 48.4089 20.1535 48.4054 20.1535V20.1345H41.3813V20.1524C40.9115 20.1524 40.5183 20.4554 40.3822 20.871L40.3783 20.87L40.3521 20.9656C40.3511 20.9701 40.3494 20.9742 40.3486 20.9787L38.8562 26.4319L38.8704 26.4356C38.8636 26.4808 38.8562 26.5257 38.8562 26.5727C38.8555 26.7897 38.9324 27.0001 39.0735 27.1674C39.2146 27.3347 39.411 27.4484 39.6287 27.4888C39.8465 27.5292 40.0718 27.4937 40.2656 27.3885C40.4594 27.2833 40.6095 27.115 40.6899 26.9128L40.6965 26.9144L41.7913 22.9142V22.9294H41.7998C41.8298 22.7977 41.9441 22.6972 42.0874 22.6972C42.2309 22.6972 42.3452 22.7979 42.3752 22.9294H42.3842V22.9724C42.3848 22.9791 42.388 22.9847 42.388 22.9914C42.388 22.998 42.3845 23.0036 42.3842 23.0103V23.0512L40.6315 29.4568C40.6027 29.5142 40.5856 29.5767 40.5813 29.6406L40.5775 29.6542L40.5797 29.6547C40.5794 29.6619 40.5775 29.6689 40.5775 29.6764C40.5775 29.742 40.5907 29.807 40.6164 29.8676C40.642 29.9282 40.6796 29.9833 40.727 30.0297C40.7744 30.0761 40.8307 30.1129 40.8926 30.138C40.9546 30.1631 41.021 30.176 41.088 30.1759H42.3842V34.4099C42.3842 34.6956 42.5001 34.9695 42.7064 35.1715C42.9127 35.3735 43.1925 35.487 43.4843 35.487C43.776 35.487 44.0558 35.3735 44.2621 35.1715C44.4684 34.9695 44.5843 34.6956 44.5843 34.4099V30.1759H45.2099V34.4099C45.2145 34.6926 45.3324 34.9623 45.5382 35.1607C45.7441 35.3591 46.0213 35.4703 46.3101 35.4703C46.599 35.4703 46.8762 35.3591 47.082 35.1607C47.2879 34.9623 47.4058 34.6926 47.4103 34.4099V30.1759H48.7104C48.7774 30.176 48.8438 30.1631 48.9057 30.138C48.9676 30.1129 49.0239 30.0761 49.0713 30.0297C49.1187 29.9833 49.1563 29.9282 49.182 29.8676C49.2076 29.807 49.2209 29.742 49.2209 29.6764C49.2209 29.6689 49.2189 29.6619 49.2187 29.6547L49.2209 29.6542L49.217 29.6406C49.2125 29.5767 49.1954 29.5143 49.1668 29.4568L47.4196 23.071L47.4253 23.0694C47.418 23.044 47.4092 23.0191 47.4092 22.9916C47.4092 22.8292 47.5437 22.6972 47.7099 22.6972C47.8512 22.6972 47.9642 22.7947 47.9964 22.9235L48.0078 22.9206L49.1008 26.9146L49.1074 26.913C49.1877 27.1152 49.3379 27.2835 49.5317 27.3887C49.7255 27.4939 49.9508 27.5294 50.1685 27.489C50.3863 27.4487 50.5827 27.335 50.7238 27.1676C50.8649 27.0003 50.9418 26.7899 50.9411 26.573C50.9411 26.5259 50.9337 26.4811 50.9269 26.4359L50.9411 26.4319Z" fill="#C8B2D8"/>
<path d="M29.2321 44.1441C30.4677 44.1441 31.4693 43.1633 31.4693 41.9535C31.4693 40.7437 30.4677 39.7629 29.2321 39.7629C27.9965 39.7629 26.9949 40.7437 26.9949 41.9535C26.9949 43.1633 27.9965 44.1441 29.2321 44.1441Z" fill="#C8B2D8"/>
<path d="M35.4806 51.0092L33.9882 45.5557C33.9874 45.5514 33.9858 45.5474 33.9847 45.5431L33.9585 45.4472L33.9547 45.4483C33.8185 45.0326 33.4254 44.7297 32.9555 44.7297C32.952 44.7297 32.9484 44.7308 32.9449 44.7308V44.7118H25.9208V44.7297C25.451 44.7297 25.0579 45.0326 24.9217 45.4483L24.9179 45.4472L24.8917 45.5429C24.8906 45.5474 24.889 45.5514 24.8882 45.556L23.3958 51.0092L23.4099 51.0129C23.4031 51.0581 23.3958 51.1029 23.3958 51.15C23.3951 51.3669 23.4719 51.5773 23.613 51.7446C23.7541 51.912 23.9506 52.0257 24.1683 52.066C24.386 52.1064 24.6113 52.0709 24.8051 51.9657C24.999 51.8605 25.1491 51.6922 25.2295 51.49L25.236 51.4916L26.3309 47.4914V47.5067H26.3393C26.3694 47.3749 26.4837 47.2745 26.6269 47.2745C26.7704 47.2745 26.8847 47.3752 26.9148 47.5067H26.9238V47.5497C26.9243 47.5563 26.9276 47.5619 26.9276 47.5686C26.9276 47.5753 26.924 47.5809 26.9238 47.5876V47.6285L25.1711 54.034C25.1422 54.0915 25.1252 54.1539 25.1209 54.2178L25.1171 54.2315L25.1192 54.232C25.119 54.2392 25.1171 54.2462 25.1171 54.2536C25.1171 54.3193 25.1303 54.3842 25.1559 54.4449C25.1816 54.5055 25.2192 54.5606 25.2666 54.607C25.314 54.6534 25.3703 54.6902 25.4322 54.7152C25.4941 54.7403 25.5605 54.7532 25.6275 54.7532H26.9238V58.9872C26.9238 59.2728 27.0397 59.5468 27.246 59.7488C27.4523 59.9508 27.7321 60.0643 28.0238 60.0643C28.3156 60.0643 28.5954 59.9508 28.8017 59.7488C29.008 59.5468 29.1239 59.2728 29.1239 58.9872V54.7532H29.7495V58.9872C29.754 59.2699 29.8719 59.5396 30.0778 59.738C30.2836 59.9364 30.5609 60.0476 30.8497 60.0476C31.1385 60.0476 31.4158 59.9364 31.6216 59.738C31.8274 59.5396 31.9453 59.2699 31.9499 58.9872V54.7532H33.2499C33.3169 54.7532 33.3833 54.7403 33.4453 54.7152C33.5072 54.6902 33.5635 54.6534 33.6109 54.607C33.6583 54.5606 33.6959 54.5055 33.7215 54.4449C33.7472 54.3842 33.7604 54.3193 33.7604 54.2536C33.7604 54.2462 33.7585 54.2392 33.7582 54.232L33.7604 54.2315L33.7566 54.2178C33.752 54.154 33.735 54.0916 33.7064 54.034L31.9592 47.6482L31.9649 47.6466C31.9575 47.6213 31.9488 47.5964 31.9488 47.5689C31.9488 47.4065 32.0833 47.2745 32.2494 47.2745C32.3908 47.2745 32.5037 47.372 32.5359 47.5008L32.5474 47.4978L33.6404 51.4919L33.6469 51.4903C33.7273 51.6925 33.8774 51.8608 34.0712 51.966C34.265 52.0712 34.4903 52.1067 34.7081 52.0663C34.9258 52.0259 35.1222 51.9122 35.2633 51.7449C35.4044 51.5776 35.4813 51.3672 35.4806 51.1502C35.4806 51.1032 35.4732 51.0583 35.4664 51.0132L35.4806 51.0092Z" fill="#C8B2D8"/>
<path d="M44.4911 44.144C45.7267 44.144 46.7284 43.1632 46.7284 41.9534C46.7284 40.7436 45.7267 39.7628 44.4911 39.7628C43.2555 39.7628 42.2539 40.7436 42.2539 41.9534C42.2539 43.1632 43.2555 44.144 44.4911 44.144Z" fill="#C8B2D8"/>
<path d="M50.7399 51.009L49.2475 45.5556C49.2467 45.5513 49.245 45.5473 49.2439 45.543L49.2178 45.4471L49.2139 45.4482C49.0778 45.0325 48.6846 44.7296 48.2148 44.7296C48.2113 44.7296 48.2077 44.7306 48.2042 44.7306V44.7117H41.1801V44.7296C40.7103 44.7296 40.3171 45.0325 40.181 45.4482L40.1772 45.4471L40.151 45.5428C40.1499 45.5473 40.1482 45.5513 40.1474 45.5558L38.655 51.009L38.6692 51.0128C38.6624 51.0579 38.655 51.1028 38.655 51.1498C38.6543 51.3668 38.7312 51.5772 38.8723 51.7445C39.0134 51.9118 39.2098 52.0255 39.4276 52.0659C39.6453 52.1063 39.8706 52.0708 40.0644 51.9656C40.2582 51.8604 40.4084 51.6921 40.4887 51.4899L40.4953 51.4915L41.5902 47.4913V47.5065H41.5986C41.6286 47.3748 41.743 47.2744 41.8862 47.2744C42.0297 47.2744 42.144 47.3751 42.174 47.5065H42.183V47.5495C42.1836 47.5562 42.1869 47.5618 42.1869 47.5685C42.1869 47.5752 42.1833 47.5808 42.183 47.5875V47.6283L40.4304 54.0339C40.4015 54.0914 40.3845 54.1538 40.3802 54.2177L40.3763 54.2313L40.3785 54.2319C40.3782 54.2391 40.3763 54.246 40.3763 54.2535C40.3763 54.3191 40.3895 54.3841 40.4152 54.4447C40.4409 54.5054 40.4785 54.5605 40.5259 54.6068C40.5733 54.6532 40.6295 54.69 40.6915 54.7151C40.7534 54.7402 40.8198 54.7531 40.8868 54.7531H42.183V58.987C42.183 59.2727 42.2989 59.5467 42.5052 59.7487C42.7115 59.9507 42.9913 60.0642 43.2831 60.0642C43.5749 60.0642 43.8547 59.9507 44.061 59.7487C44.2673 59.5467 44.3832 59.2727 44.3832 58.987V54.7531H45.0088V58.987C45.0133 59.2698 45.1312 59.5395 45.3371 59.7379C45.5429 59.9363 45.8201 60.0475 46.109 60.0475C46.3978 60.0475 46.675 59.9363 46.8809 59.7379C47.0867 59.5395 47.2046 59.2698 47.2092 58.987V54.7531H48.5092C48.5762 54.7531 48.6426 54.7402 48.7045 54.7151C48.7665 54.69 48.8227 54.6532 48.8701 54.6068C48.9176 54.5605 48.9552 54.5054 48.9808 54.4447C49.0065 54.3841 49.0197 54.3191 49.0197 54.2535C49.0197 54.246 49.0178 54.2391 49.0175 54.2319L49.0197 54.2313L49.0159 54.2177C49.0113 54.1539 48.9943 54.0915 48.9657 54.0339L47.2184 47.6481L47.2242 47.6465C47.2168 47.6211 47.2081 47.5963 47.2081 47.5688C47.2081 47.4063 47.3426 47.2744 47.5087 47.2744C47.6501 47.2744 47.763 47.3719 47.7952 47.5007L47.8067 47.4977L48.8996 51.4918L48.9062 51.4902C48.9866 51.6924 49.1367 51.8607 49.3305 51.9659C49.5243 52.0711 49.7496 52.1066 49.9673 52.0662C50.1851 52.0258 50.3815 51.9121 50.5226 51.7448C50.6637 51.5775 50.7406 51.3671 50.7399 51.1501C50.7399 51.1031 50.7325 51.0582 50.7257 51.0131L50.7399 51.009Z" fill="#C8B2D8"/>
</svg>
