<svg width="74" height="74" viewBox="0 0 74 74" fill="none" xmlns="http://www.w3.org/2000/svg">
<circle cx="36.9667" cy="36.9751" r="34.6575" fill="#9162A4" stroke="#C8B2D8" stroke-width="4.61844"/>
<path d="M18.5688 54.7329C19.3206 53.969 20.0481 53.2294 20.7513 52.514C21.4546 51.7986 22.0851 51.1075 22.6428 50.4406C23.2006 49.7737 23.6371 49.125 23.9523 48.4945C24.2797 47.864 24.4434 47.2517 24.4434 46.6576C24.4434 45.9665 24.2373 45.4572 23.825 45.1298C23.4128 44.7903 22.9217 44.6206 22.3518 44.6206C21.8911 44.6206 21.5091 44.7115 21.206 44.8934C20.915 45.0753 20.6968 45.3056 20.5513 45.5845C20.4058 45.8513 20.333 46.118 20.333 46.3848C20.333 46.7849 20.3936 47.1426 20.5149 47.4578C20.6483 47.761 20.8241 48.0277 21.0423 48.2581L19.751 49.4403C19.4357 49.2706 19.169 49.0038 18.9507 48.64C18.7325 48.2763 18.5627 47.8944 18.4415 47.4942C18.3324 47.0941 18.2778 46.7425 18.2778 46.4393C18.2778 45.7846 18.4476 45.1662 18.7871 44.5842C19.1387 43.9901 19.6419 43.5111 20.2966 43.1474C20.9514 42.7715 21.7577 42.5836 22.7156 42.5836C23.5037 42.5836 24.1888 42.7654 24.7708 43.1292C25.3649 43.4929 25.8257 43.9719 26.1531 44.566C26.4804 45.148 26.6441 45.7846 26.6441 46.4757C26.6441 47.2153 26.4744 47.9368 26.1349 48.64C25.7954 49.3312 25.3589 50.0102 24.8254 50.6771C24.2919 51.3439 23.7402 52.0169 23.1703 52.6959H26.9351V54.7329H18.5688ZM31.0013 47.0395L31.1468 48.4036C31.4378 47.8701 31.8319 47.4518 32.329 47.1487C32.8262 46.8455 33.4021 46.694 34.0569 46.694C34.6874 46.694 35.2148 46.8334 35.6392 47.1123C36.0636 47.3912 36.3243 47.7792 36.4213 48.2763C36.7486 47.7913 37.1488 47.4093 37.6217 47.1305C38.1067 46.8395 38.6159 46.694 39.1494 46.694C39.9133 46.694 40.5135 46.9122 40.95 47.3487C41.3986 47.7731 41.629 48.3248 41.6411 49.0038V54.7329H39.6223V49.7859C39.598 49.4221 39.5132 49.119 39.3677 48.8765C39.2222 48.6219 38.9554 48.4824 38.5674 48.4582C38.1309 48.4582 37.755 48.5976 37.4398 48.8765C37.1245 49.1432 36.876 49.4949 36.6941 49.9314C36.5243 50.3557 36.4395 50.8044 36.4395 51.2773V54.7329H34.3842V49.7859C34.3721 49.4221 34.2872 49.119 34.1296 48.8765C33.972 48.6219 33.6931 48.4824 33.293 48.4582C32.8686 48.4582 32.4988 48.5976 32.1835 48.8765C31.8683 49.1432 31.6258 49.4949 31.456 49.9314C31.2863 50.3557 31.2014 50.8044 31.2014 51.2773V54.7329H29.1644V47.0395H31.0013ZM44.4392 47.0395H46.4762V54.7329H44.4392V47.0395ZM44.3482 44.2932C44.3482 43.9779 44.4695 43.7173 44.712 43.5111C44.9666 43.305 45.2394 43.2019 45.5304 43.2019C45.8093 43.2019 46.07 43.305 46.3125 43.5111C46.555 43.7173 46.6763 43.9779 46.6763 44.2932C46.6763 44.6084 46.555 44.8691 46.3125 45.0753C46.07 45.2693 45.8093 45.3663 45.5304 45.3663C45.2394 45.3663 44.9666 45.2693 44.712 45.0753C44.4695 44.8691 44.3482 44.6084 44.3482 44.2932ZM51.1072 47.0395L51.2527 48.4218C51.5195 47.9004 51.9135 47.4882 52.4349 47.185C52.9563 46.8698 53.5747 46.7122 54.2901 46.7122C55.0054 46.7122 55.5996 46.9304 56.0725 47.3669C56.5575 47.7913 56.806 48.343 56.8182 49.022V54.7329H54.7811V49.7495C54.7569 49.3615 54.6417 49.0523 54.4356 48.8219C54.2416 48.5794 53.9203 48.4521 53.4716 48.44C52.8411 48.44 52.3197 48.7128 51.9075 49.2584C51.5074 49.7919 51.3073 50.477 51.3073 51.3136V54.7329H49.2703V47.0395H51.1072Z" fill="white"/>
<path d="M36.9667 33.6987C41.7008 33.6987 45.5385 29.893 45.5385 25.1985C45.5385 20.504 41.7008 16.6983 36.9667 16.6983C32.2325 16.6983 28.3948 20.504 28.3948 25.1985C28.3948 29.893 32.2325 33.6987 36.9667 33.6987Z" stroke="#C8B2D8" stroke-width="2.12395" stroke-linecap="round" stroke-linejoin="round"/>
<path d="M39.5381 28.5985L37.4689 26.5466C37.1473 26.2278 36.9666 25.7955 36.9666 25.3447V20.0983" stroke="#C8B2D8" stroke-width="2.12395" stroke-linecap="round" stroke-linejoin="round"/>
</svg>
