<svg width="123" height="130" viewBox="0 0 123 130" fill="none" xmlns="http://www.w3.org/2000/svg">
<path d="M119.925 64.9118C119.925 98.8757 93.6382 126.17 61.5 126.17C29.3618 126.17 3.075 98.8757 3.075 64.9118C3.075 30.9478 29.3618 3.65361 61.5 3.65361C93.6382 3.65361 119.925 30.9478 119.925 64.9118Z" fill="#9162A4" stroke="#C8B2D8" stroke-width="6.15"/>
<path d="M46.0328 57.5335L38.13 77.8285H34.1325L40.836 60.9775H32.595V57.5335H46.0328ZM56.3684 77.89C54.7284 77.9105 53.2626 77.521 51.9711 76.7215C50.7001 75.922 49.6854 74.7535 48.9269 73.216C48.1889 71.6785 47.8199 69.8027 47.8199 67.5887C47.8199 65.1697 48.1786 63.2017 48.8961 61.6847C49.6136 60.1677 50.6079 59.0607 51.8789 58.3637C53.1704 57.6462 54.6669 57.2977 56.3684 57.3182C57.9879 57.2977 59.4434 57.6872 60.7349 58.4867C62.0264 59.2862 63.0411 60.4547 63.7791 61.9922C64.5171 63.5092 64.8861 65.3747 64.8861 67.5887C64.8861 69.8642 64.5069 71.7707 63.7484 73.3082C63.0104 74.8457 61.9956 76.004 60.7041 76.783C59.4331 77.5415 57.9879 77.9105 56.3684 77.89ZM56.3376 74.4767C57.4651 74.4767 58.3774 74.1795 59.0744 73.585C59.7919 72.9905 60.3146 72.1705 60.6426 71.125C60.9911 70.059 61.1654 68.8495 61.1654 67.4965C61.1654 66.1845 60.9911 65.0262 60.6426 64.0217C60.3146 62.9967 59.7919 62.1972 59.0744 61.6232C58.3569 61.0492 57.4446 60.7622 56.3376 60.7622C55.2101 60.7622 54.2979 61.0595 53.6009 61.654C52.9039 62.228 52.3811 63.0275 52.0326 64.0525C51.7046 65.0775 51.5406 66.2562 51.5406 67.5887C51.5406 68.9007 51.7046 70.0795 52.0326 71.125C52.3811 72.1705 52.9039 72.9905 53.6009 73.585C54.2979 74.1795 55.2101 74.4767 56.3376 74.4767Z" fill="white"/>
<path d="M86.9646 58.3022L73.2809 77.89L69.8984 77.8285L83.5206 58.3022H86.9646ZM72.1431 69.28C70.6056 69.28 69.4474 68.7675 68.6684 67.7425C67.9099 66.697 67.5306 65.385 67.5306 63.8065C67.5306 62.2075 67.9099 60.8955 68.6684 59.8705C69.4474 58.8455 70.6056 58.333 72.1431 58.333C73.6601 58.333 74.8081 58.8455 75.5871 59.8705C76.3661 60.8955 76.7556 62.2075 76.7556 63.8065C76.7556 65.4055 76.3661 66.7175 75.5871 67.7425C74.8081 68.7675 73.6601 69.28 72.1431 69.28ZM70.5749 63.8065C70.5749 64.729 70.6979 65.467 70.9439 66.0205C71.1899 66.574 71.5896 66.8507 72.1431 66.8507C72.6966 66.8507 73.0964 66.574 73.3424 66.0205C73.5884 65.467 73.7114 64.729 73.7114 63.8065C73.7114 61.7975 73.1886 60.793 72.1431 60.793C71.5896 60.793 71.1899 61.039 70.9439 61.531C70.6979 62.0025 70.5749 62.761 70.5749 63.8065ZM84.2279 78.4742C82.6904 78.4742 81.5321 77.9617 80.7531 76.9367C79.9946 75.8912 79.6154 74.569 79.6154 72.97C79.6154 71.3915 79.9946 70.0897 80.7531 69.0647C81.5321 68.0192 82.6904 67.4965 84.2279 67.4965C85.7449 67.4965 86.8929 68.0192 87.6719 69.0647C88.4509 70.0897 88.8404 71.3915 88.8404 72.97C88.8404 74.569 88.4509 75.8912 87.6719 76.9367C86.8929 77.9617 85.7449 78.4742 84.2279 78.4742ZM82.6289 72.97C82.6289 73.913 82.7519 74.6612 82.9979 75.2147C83.2644 75.7682 83.6744 76.045 84.2279 76.045C84.7814 76.045 85.1811 75.7682 85.4271 75.2147C85.6731 74.6612 85.7961 73.913 85.7961 72.97C85.7961 70.961 85.2734 69.9565 84.2279 69.9565C83.6744 69.9565 83.2644 70.2025 82.9979 70.6945C82.7519 71.1865 82.6289 71.945 82.6289 72.97Z" fill="#C8B2D8"/>
</svg>
