<svg width="123" height="130" viewBox="0 0 123 130" fill="none" xmlns="http://www.w3.org/2000/svg">
<path d="M119.953 65.1926C119.953 99.1707 93.6547 126.479 61.5 126.479C29.3453 126.479 3.04719 99.1707 3.04719 65.1926C3.04719 31.2146 29.3453 3.90669 61.5 3.90669C93.6547 3.90669 119.953 31.2146 119.953 65.1926Z" fill="#9162A4" stroke="#C8B2D8" stroke-width="6.09438"/>
<path d="M30.6654 92.5872C31.7775 91.4571 32.8538 90.3629 33.8941 89.3046C34.9345 88.2463 35.8673 87.2239 36.6924 86.2373C37.5175 85.2508 38.1632 84.2911 38.6296 83.3584C39.1139 82.4256 39.3561 81.5198 39.3561 80.6409C39.3561 79.6184 39.0511 78.8651 38.4413 78.3808C37.8314 77.8785 37.1049 77.6274 36.2619 77.6274C35.5803 77.6274 35.0152 77.7619 34.5668 78.031C34.1363 78.3 33.8134 78.6409 33.5982 79.0534C33.3829 79.448 33.2753 79.8427 33.2753 80.2373C33.2753 80.8292 33.365 81.3584 33.5444 81.8247C33.7417 82.2732 34.0018 82.6678 34.3246 83.0086L32.4143 84.7575C31.9479 84.5064 31.5533 84.1118 31.2304 83.5736C30.9076 83.0355 30.6565 82.4705 30.4771 81.8786C30.3156 81.2866 30.2349 80.7664 30.2349 80.318C30.2349 79.3494 30.486 78.4346 30.9883 77.5736C31.5085 76.6947 32.2529 75.9861 33.2215 75.448C34.1901 74.8919 35.3829 74.6139 36.8 74.6139C37.9659 74.6139 38.9794 74.883 39.8404 75.4211C40.7193 75.9592 41.4009 76.6677 41.8852 77.5467C42.3696 78.4077 42.6117 79.3494 42.6117 80.3718C42.6117 81.466 42.3606 82.5333 41.8583 83.5736C41.3561 84.5961 40.7103 85.6006 39.9211 86.5871C39.1319 87.5737 38.3157 88.5692 37.4727 89.5737H43.0422V92.5872H30.6654ZM49.0576 81.2059L49.2728 83.2239C49.7033 82.4346 50.2863 81.8158 51.0217 81.3673C51.7572 80.9189 52.6092 80.6947 53.5778 80.6947C54.5106 80.6947 55.2908 80.901 55.9186 81.3135C56.5464 81.7261 56.9321 82.3001 57.0756 83.0355C57.5599 82.318 58.1518 81.753 58.8514 81.3404C59.5689 80.9099 60.3223 80.6947 61.1115 80.6947C62.2416 80.6947 63.1295 81.0176 63.7752 81.6633C64.4389 82.2911 64.7797 83.1073 64.7976 84.1118V92.5872H61.8111V85.2687C61.7752 84.7306 61.6496 84.2822 61.4344 83.9234C61.2191 83.5467 60.8245 83.3404 60.2505 83.3046C59.6048 83.3046 59.0487 83.5109 58.5823 83.9234C58.116 84.318 57.7483 84.8382 57.4792 85.484C57.2281 86.1118 57.1025 86.7755 57.1025 87.475V92.5872H54.0621V85.2687C54.0442 84.7306 53.9186 84.2822 53.6854 83.9234C53.4523 83.5467 53.0397 83.3404 52.4478 83.3046C51.82 83.3046 51.2729 83.5109 50.8065 83.9234C50.3401 84.318 49.9814 84.8382 49.7302 85.484C49.4791 86.1118 49.3536 86.7755 49.3536 87.475V92.5872H46.3401V81.2059H49.0576ZM68.937 81.2059H71.9504V92.5872H68.937V81.2059ZM68.8024 77.1431C68.8024 76.6767 68.9818 76.2911 69.3406 75.9861C69.7172 75.6812 70.1208 75.5287 70.5513 75.5287C70.9639 75.5287 71.3495 75.6812 71.7083 75.9861C72.067 76.2911 72.2464 76.6767 72.2464 77.1431C72.2464 77.6095 72.067 77.9951 71.7083 78.3C71.3495 78.587 70.9639 78.7305 70.5513 78.7305C70.1208 78.7305 69.7172 78.587 69.3406 78.3C68.9818 77.9951 68.8024 77.6095 68.8024 77.1431ZM78.8014 81.2059L79.0166 83.2508C79.4113 82.4795 79.9942 81.8696 80.7655 81.4211C81.5368 80.9548 82.4516 80.7216 83.51 80.7216C84.5683 80.7216 85.4472 81.0445 86.1467 81.6902C86.8642 82.318 87.232 83.1342 87.2499 84.1387V92.5872H84.2364V85.2149C84.2005 84.6409 84.0301 84.1835 83.7252 83.8427C83.4382 83.4839 82.9629 83.2956 82.2992 83.2777C81.3664 83.2777 80.5951 83.6813 79.9853 84.4884C79.3933 85.2777 79.0974 86.2911 79.0974 87.5288V92.5872H76.0839V81.2059H78.8014Z" fill="white"/>
<path d="M61.1156 67.1788C68.9257 67.1788 75.2571 60.5558 75.2571 52.3859C75.2571 44.216 68.9257 37.593 61.1156 37.593C53.3055 37.593 46.9742 44.216 46.9742 52.3859C46.9742 60.5558 53.3055 67.1788 61.1156 67.1788Z" stroke="#C8B2D8" stroke-width="2.80271" stroke-linecap="round" stroke-linejoin="round"/>
<path d="M65.3581 58.303L61.9443 54.732C61.4139 54.1773 61.1158 53.4249 61.1156 52.6403V43.5101" stroke="#C8B2D8" stroke-width="2.80271" stroke-linecap="round" stroke-linejoin="round"/>
</svg>
