<svg width="123" height="130" viewBox="0 0 123 130" fill="none" xmlns="http://www.w3.org/2000/svg">
<path d="M119.764 65.0522C119.764 98.934 93.5424 126.149 61.5 126.149C29.4576 126.149 3.23628 98.934 3.23628 65.0522C3.23628 31.1704 29.4576 3.95533 61.5 3.95533C93.5424 3.95533 119.764 31.1704 119.764 65.0522Z" fill="#9162A4" stroke="#C8B2D8" stroke-width="6.47255"/>
<path d="M68.8081 77.2244L64.1024 85.301C65.0369 85.4122 65.9046 85.7015 66.7056 86.1687C67.5066 86.6359 68.1518 87.3368 68.6413 88.2713C69.153 89.2057 69.4089 90.4183 69.4089 91.909C69.4089 93.4887 69.0418 94.846 68.3075 95.9807C67.5955 97.1154 66.6388 97.9943 65.4374 98.6172C64.2581 99.218 62.9677 99.5183 61.566 99.5183C60.4757 99.5183 59.3744 99.2958 58.2619 98.8509C57.1495 98.4059 56.2484 97.8163 55.5586 97.082L57.5277 93.8781C57.9059 94.3453 58.451 94.7792 59.163 95.1797C59.8973 95.5802 60.6649 95.7804 61.4658 95.7804C62.4893 95.7804 63.4015 95.4244 64.2025 94.7125C65.0035 93.9782 65.404 92.9659 65.404 91.6754C65.404 90.5407 65.0591 89.6396 64.3694 88.9721C63.7019 88.2824 62.7897 87.9375 61.6327 87.9375C60.9875 87.9375 60.4646 87.982 60.0641 88.071C59.6636 88.1378 59.2854 88.2268 58.9294 88.338L58.8293 88.2379L63.2013 80.9623H57.0605V77.2244H68.8081Z" fill="white"/>
<rect x="40.7437" y="63.6931" width="42.2812" height="4.2699" rx="2.13495" fill="#C8B2D8"/>
<path d="M53.7769 53.7057C55.1564 52.304 56.4913 50.9468 57.7818 49.6341C59.0723 48.3214 60.2292 47.0532 61.2527 45.8295C62.2762 44.6057 63.0772 43.4154 63.6556 42.2584C64.2564 41.1015 64.5567 39.9779 64.5567 38.8876C64.5567 37.6194 64.1785 36.685 63.422 36.0842C62.6655 35.4612 61.7644 35.1497 60.7187 35.1497C59.8732 35.1497 59.1724 35.3166 58.6161 35.6504C58.0822 35.9841 57.6817 36.4068 57.4147 36.9186C57.1477 37.4081 57.0142 37.8975 57.0142 38.387C57.0142 39.1213 57.1254 39.7776 57.3479 40.3561C57.5927 40.9123 57.9153 41.4018 58.3158 41.8246L55.9462 43.9939C55.3677 43.6824 54.8782 43.1929 54.4778 42.5254C54.0773 41.8579 53.7658 41.1571 53.5433 40.4229C53.343 39.6886 53.2429 39.0434 53.2429 38.4872C53.2429 37.2857 53.5544 36.151 54.1774 35.083C54.8226 33.9928 55.746 33.1139 56.9474 32.4464C58.1489 31.7567 59.6285 31.4118 61.3862 31.4118C62.8324 31.4118 64.0895 31.7456 65.1575 32.4131C66.2477 33.0806 67.0932 33.9594 67.6939 35.0496C68.2946 36.1176 68.595 37.2857 68.595 38.5539C68.595 39.9111 68.2835 41.235 67.6605 42.5254C67.0375 43.7936 66.2366 45.0396 65.2576 46.2633C64.2786 47.487 63.2663 48.7219 62.2206 49.9678H69.129V53.7057H53.7769Z" fill="white"/>
</svg>
