<svg width="123" height="129" viewBox="0 0 123 129" fill="none" xmlns="http://www.w3.org/2000/svg">
<path d="M119.146 64.3331C119.146 97.9004 93.1755 124.813 61.5 124.813C29.8245 124.813 3.85366 97.9004 3.85366 64.3331C3.85366 30.7658 29.8245 3.85366 61.5 3.85366C93.1755 3.85366 119.146 30.7658 119.146 64.3331Z" fill="#9162A4" stroke="#C8B2D8" stroke-width="7.70732"/>
<path d="M48.368 33.2374C50.4124 33.2374 52.0698 31.5399 52.0698 29.4458C52.0698 27.3517 50.4124 25.6542 48.368 25.6542C46.3236 25.6542 44.6662 27.3517 44.6662 29.4458C44.6662 31.5399 46.3236 33.2374 48.368 33.2374Z" fill="#FBFBFB"/>
<path d="M58.7072 45.12L56.2379 35.6807C56.2365 35.6733 56.2338 35.6663 56.232 35.6589L56.1887 35.4929L56.1824 35.4948C55.9571 34.7753 55.3066 34.251 54.5292 34.251C54.5233 34.251 54.5175 34.2528 54.5116 34.2528V34.22H42.8894V34.251C42.112 34.251 41.4615 34.7753 41.2362 35.4948L41.2299 35.4929L41.1865 35.6585C41.1847 35.6663 41.182 35.6733 41.1807 35.6811L38.7113 45.12L38.7348 45.1265C38.7235 45.2046 38.7113 45.2823 38.7113 45.3637C38.7102 45.7393 38.8374 46.1034 39.0708 46.393C39.3043 46.6826 39.6293 46.8794 39.9896 46.9493C40.3499 47.0192 40.7226 46.9578 41.0433 46.7757C41.364 46.5936 41.6124 46.3023 41.7454 45.9523L41.7563 45.9551L43.5679 39.0312V39.0575H43.5819C43.6315 38.8296 43.8207 38.6557 44.0577 38.6557C44.2951 38.6557 44.4843 38.83 44.5339 39.0575H44.5488V39.132C44.5497 39.1435 44.5552 39.1533 44.5552 39.1648C44.5552 39.1764 44.5493 39.1861 44.5488 39.1976V39.2684L41.6488 50.3557C41.6011 50.4552 41.5729 50.5632 41.5658 50.6738L41.5594 50.6974L41.563 50.6983C41.5626 50.7108 41.5594 50.7228 41.5594 50.7358C41.5594 50.8494 41.5813 50.9618 41.6237 51.0668C41.6662 51.1717 41.7284 51.2671 41.8069 51.3474C41.8853 51.4277 41.9784 51.4913 42.0809 51.5348C42.1834 51.5782 42.2932 51.6005 42.4041 51.6005H44.5488V58.9289C44.5488 59.4234 44.7406 59.8976 45.082 60.2473C45.4233 60.5969 45.8863 60.7933 46.369 60.7933C46.8518 60.7933 47.3148 60.5969 47.6561 60.2473C47.9975 59.8976 48.1892 59.4234 48.1892 58.9289V51.6005H49.2244V58.9289C49.2319 59.4184 49.427 59.8852 49.7676 60.2286C50.1082 60.572 50.5669 60.7644 51.0448 60.7644C51.5227 60.7644 51.9814 60.572 52.322 60.2286C52.6626 59.8852 52.8577 59.4184 52.8652 58.9289V51.6005H55.0163C55.1272 51.6005 55.237 51.5782 55.3395 51.5348C55.442 51.4913 55.5351 51.4277 55.6135 51.3474C55.692 51.2671 55.7542 51.1717 55.7966 51.0668C55.8391 50.9618 55.8609 50.8494 55.8609 50.7358C55.8609 50.7228 55.8578 50.7108 55.8573 50.6983L55.8609 50.6974L55.8546 50.6738C55.8471 50.5633 55.8189 50.4553 55.7715 50.3557L52.8806 39.3026L52.89 39.2998C52.8778 39.2559 52.8634 39.2129 52.8634 39.1653C52.8634 38.8841 53.086 38.6557 53.3609 38.6557C53.5947 38.6557 53.7816 38.8245 53.8349 39.0474L53.8538 39.0423L55.6623 45.9555L55.6731 45.9528C55.8062 46.3028 56.0545 46.594 56.3752 46.7761C56.6959 46.9582 57.0687 47.0197 57.429 46.9498C57.7892 46.8799 58.1143 46.6831 58.3477 46.3935C58.5812 46.1039 58.7084 45.7397 58.7072 45.3641C58.7072 45.2828 58.695 45.2051 58.6838 45.1269L58.7072 45.12Z" fill="#FBFBFB"/>
<path d="M73.9494 33.2374C75.9938 33.2374 77.6512 31.5399 77.6512 29.4458C77.6512 27.3517 75.9938 25.6542 73.9494 25.6542C71.905 25.6542 70.2476 27.3517 70.2476 29.4458C70.2476 31.5399 71.905 33.2374 73.9494 33.2374Z" fill="#C8B2D8"/>
<path d="M84.2887 45.12L81.8193 35.6807C81.8179 35.6733 81.8152 35.6663 81.8134 35.6589L81.7701 35.4929L81.7638 35.4948C81.5385 34.7753 80.888 34.251 80.1106 34.251C80.1047 34.251 80.0989 34.2528 80.093 34.2528V34.22H68.4708V34.251C67.6934 34.251 67.0429 34.7753 66.8176 35.4948L66.8113 35.4929L66.768 35.6585C66.7662 35.6663 66.7635 35.6733 66.7621 35.6811L64.2927 45.12L64.3162 45.1265C64.3049 45.2046 64.2927 45.2823 64.2927 45.3637C64.2916 45.7393 64.4188 46.1034 64.6522 46.393C64.8857 46.6826 65.2107 46.8794 65.571 46.9493C65.9313 47.0192 66.3041 46.9578 66.6248 46.7757C66.9455 46.5936 67.1938 46.3023 67.3268 45.9523L67.3377 45.9551L69.1493 39.0312V39.0575H69.1633C69.2129 38.8296 69.4021 38.6557 69.6391 38.6557C69.8766 38.6557 70.0657 38.83 70.1154 39.0575H70.1303V39.132C70.1312 39.1435 70.1366 39.1533 70.1366 39.1648C70.1366 39.1764 70.1307 39.1861 70.1303 39.1976V39.2684L67.2302 50.3557C67.1825 50.4552 67.1543 50.5632 67.1472 50.6738L67.1409 50.6974L67.1445 50.6983C67.144 50.7108 67.1409 50.7228 67.1409 50.7358C67.1409 50.8494 67.1627 50.9618 67.2052 51.0668C67.2476 51.1717 67.3098 51.2671 67.3883 51.3474C67.4667 51.4277 67.5598 51.4913 67.6623 51.5348C67.7648 51.5782 67.8746 51.6005 67.9855 51.6005H70.1303V58.9289C70.1303 59.4234 70.322 59.8976 70.6634 60.2473C71.0047 60.5969 71.4677 60.7933 71.9505 60.7933C72.4332 60.7933 72.8962 60.5969 73.2375 60.2473C73.5789 59.8976 73.7706 59.4234 73.7706 58.9289V51.6005H74.8058V58.9289C74.8133 59.4184 75.0084 59.8852 75.349 60.2286C75.6896 60.572 76.1483 60.7644 76.6262 60.7644C77.1041 60.7644 77.5628 60.572 77.9034 60.2286C78.244 59.8852 78.4391 59.4184 78.4466 58.9289V51.6005H80.5977C80.7086 51.6005 80.8184 51.5782 80.9209 51.5348C81.0234 51.4913 81.1165 51.4277 81.1949 51.3474C81.2734 51.2671 81.3356 51.1717 81.378 51.0668C81.4205 50.9618 81.4424 50.8494 81.4424 50.7358C81.4424 50.7228 81.4392 50.7108 81.4387 50.6983L81.4424 50.6974L81.436 50.6738C81.4285 50.5633 81.4003 50.4553 81.353 50.3557L78.462 39.3026L78.4714 39.2998C78.4593 39.2559 78.4448 39.2129 78.4448 39.1653C78.4448 38.8841 78.6674 38.6557 78.9423 38.6557C79.1761 38.6557 79.363 38.8245 79.4163 39.0474L79.4353 39.0423L81.2437 45.9555L81.2546 45.9528C81.3876 46.3028 81.6359 46.594 81.9566 46.7761C82.2773 46.9582 82.6501 47.0197 83.0104 46.9498C83.3707 46.8799 83.6957 46.6831 83.9292 46.3935C84.1626 46.1039 84.2898 45.7397 84.2887 45.3641C84.2887 45.2828 84.2765 45.2051 84.2652 45.1269L84.2887 45.12Z" fill="#C8B2D8"/>
<path d="M48.368 75.7777C50.4124 75.7777 52.0698 74.0802 52.0698 71.9861C52.0698 69.892 50.4124 68.1945 48.368 68.1945C46.3236 68.1945 44.6662 69.892 44.6662 71.9861C44.6662 74.0802 46.3236 75.7777 48.368 75.7777Z" fill="#C8B2D8"/>
<path d="M58.7072 87.6603L56.2379 78.221C56.2365 78.2136 56.2338 78.2066 56.232 78.1992L56.1887 78.0332L56.1824 78.0351C55.9571 77.3156 55.3066 76.7912 54.5292 76.7912C54.5233 76.7912 54.5175 76.7931 54.5116 76.7931V76.7603H42.8894V76.7912C42.112 76.7912 41.4615 77.3156 41.2362 78.0351L41.2299 78.0332L41.1865 78.1988C41.1847 78.2066 41.182 78.2136 41.1807 78.2214L38.7113 87.6603L38.7348 87.6668C38.7235 87.7449 38.7113 87.8226 38.7113 87.904C38.7102 88.2795 38.8374 88.6437 39.0708 88.9333C39.3043 89.2229 39.6293 89.4197 39.9896 89.4896C40.3499 89.5595 40.7226 89.4981 41.0433 89.316C41.364 89.1339 41.6124 88.8426 41.7454 88.4926L41.7563 88.4954L43.5679 81.5715V81.5978H43.5819C43.6315 81.3699 43.8207 81.196 44.0577 81.196C44.2951 81.196 44.4843 81.3703 44.5339 81.5978H44.5488V81.6723C44.5497 81.6838 44.5552 81.6935 44.5552 81.7051C44.5552 81.7167 44.5493 81.7264 44.5488 81.7379V81.8087L41.6488 92.896C41.6011 92.9954 41.5729 93.1035 41.5658 93.2141L41.5594 93.2377L41.563 93.2386C41.5626 93.2511 41.5594 93.2631 41.5594 93.2761C41.5594 93.3897 41.5813 93.5021 41.6237 93.6071C41.6662 93.712 41.7284 93.8073 41.8069 93.8876C41.8853 93.9679 41.9784 94.0316 42.0809 94.0751C42.1834 94.1185 42.2932 94.1408 42.4041 94.1407H44.5488V101.469C44.5488 101.964 44.7406 102.438 45.082 102.788C45.4233 103.137 45.8863 103.334 46.369 103.334C46.8518 103.334 47.3148 103.137 47.6561 102.788C47.9975 102.438 48.1892 101.964 48.1892 101.469V94.1407H49.2244V101.469C49.2319 101.959 49.427 102.425 49.7676 102.769C50.1082 103.112 50.5669 103.305 51.0448 103.305C51.5227 103.305 51.9814 103.112 52.322 102.769C52.6626 102.425 52.8577 101.959 52.8652 101.469V94.1407H55.0163C55.1272 94.1408 55.237 94.1185 55.3395 94.0751C55.442 94.0316 55.5351 93.9679 55.6135 93.8876C55.692 93.8073 55.7542 93.712 55.7966 93.6071C55.8391 93.5021 55.8609 93.3897 55.8609 93.2761C55.8609 93.2631 55.8578 93.2511 55.8573 93.2386L55.8609 93.2377L55.8546 93.2141C55.8471 93.1036 55.8189 92.9956 55.7715 92.896L52.8806 81.8429L52.89 81.8401C52.8778 81.7962 52.8634 81.7532 52.8634 81.7056C52.8634 81.4244 53.086 81.196 53.3609 81.196C53.5947 81.196 53.7816 81.3648 53.8349 81.5877L53.8538 81.5826L55.6623 88.4958L55.6731 88.4931C55.8062 88.843 56.0545 89.1343 56.3752 89.3164C56.6959 89.4985 57.0687 89.5599 57.429 89.4901C57.7892 89.4202 58.1143 89.2234 58.3477 88.9338C58.5812 88.6441 58.7084 88.28 58.7072 87.9044C58.7072 87.823 58.695 87.7454 58.6838 87.6672L58.7072 87.6603Z" fill="#C8B2D8"/>
<path d="M73.6161 75.7777C75.6605 75.7777 77.3179 74.0802 77.3179 71.9861C77.3179 69.892 75.6605 68.1945 73.6161 68.1945C71.5717 68.1945 69.9143 69.892 69.9143 71.9861C69.9143 74.0802 71.5717 75.7777 73.6161 75.7777Z" fill="#C8B2D8"/>
<path d="M83.9554 87.6603L81.486 78.221C81.4847 78.2136 81.482 78.2066 81.4802 78.1992L81.4368 78.0332L81.4305 78.0351C81.2052 77.3156 80.5547 76.7912 79.7773 76.7912C79.7715 76.7912 79.7656 76.7931 79.7597 76.7931V76.7603H68.1375V76.7912C67.3601 76.7912 66.7096 77.3156 66.4844 78.0351L66.478 78.0332L66.4347 78.1988C66.4329 78.2066 66.4302 78.2136 66.4288 78.2214L63.9595 87.6603L63.983 87.6668C63.9717 87.7449 63.9595 87.8226 63.9595 87.904C63.9583 88.2795 64.0855 88.6437 64.319 88.9333C64.5524 89.2229 64.8775 89.4197 65.2377 89.4896C65.598 89.5595 65.9708 89.4981 66.2915 89.316C66.6122 89.1339 66.8606 88.8426 66.9936 88.4926L67.0044 88.4954L68.816 81.5715V81.5978H68.83C68.8797 81.3699 69.0688 81.196 69.3058 81.196C69.5433 81.196 69.7324 81.3703 69.7821 81.5978H69.797V81.6723C69.7979 81.6838 69.8033 81.6935 69.8033 81.7051C69.8033 81.7167 69.7975 81.7264 69.797 81.7379V81.8087L66.897 92.896C66.8492 92.9954 66.821 93.1035 66.8139 93.2141L66.8076 93.2377L66.8112 93.2386C66.8107 93.2511 66.8076 93.2631 66.8076 93.2761C66.8076 93.3897 66.8294 93.5021 66.8719 93.6071C66.9143 93.712 66.9766 93.8073 67.055 93.8876C67.1334 93.9679 67.2266 94.0316 67.329 94.0751C67.4315 94.1185 67.5413 94.1408 67.6522 94.1407H69.797V101.469C69.797 101.964 69.9888 102.438 70.3301 102.788C70.6715 103.137 71.1344 103.334 71.6172 103.334C72.0999 103.334 72.5629 103.137 72.9043 102.788C73.2456 102.438 73.4374 101.964 73.4374 101.469V94.1407H74.4725V101.469C74.48 101.959 74.6751 102.425 75.0157 102.769C75.3563 103.112 75.815 103.305 76.2929 103.305C76.7708 103.305 77.2296 103.112 77.5701 102.769C77.9107 102.425 78.1058 101.959 78.1134 101.469V94.1407H80.2644C80.3753 94.1408 80.4852 94.1185 80.5876 94.0751C80.6901 94.0316 80.7832 93.9679 80.8617 93.8876C80.9401 93.8073 81.0023 93.712 81.0448 93.6071C81.0872 93.5021 81.1091 93.3897 81.1091 93.2761C81.1091 93.2631 81.1059 93.2511 81.1055 93.2386L81.1091 93.2377L81.1028 93.2141C81.0952 93.1036 81.067 92.9956 81.0197 92.896L78.1287 81.8429L78.1382 81.8401C78.126 81.7962 78.1115 81.7532 78.1115 81.7056C78.1115 81.4244 78.3341 81.196 78.609 81.196C78.8429 81.196 79.0298 81.3648 79.083 81.5877L79.102 81.5826L80.9104 88.4958L80.9213 88.4931C81.0543 88.843 81.3027 89.1343 81.6234 89.3164C81.9441 89.4985 82.3169 89.5599 82.6771 89.4901C83.0374 89.4202 83.3624 89.2234 83.5959 88.9338C83.8294 88.6441 83.9565 88.28 83.9554 87.9044C83.9554 87.823 83.9432 87.7454 83.9319 87.6672L83.9554 87.6603Z" fill="#C8B2D8"/>
</svg>
