<svg width="171" height="181" viewBox="0 0 171 181" fill="none" xmlns="http://www.w3.org/2000/svg">
<path d="M119.104 32.148C119.104 48.9666 105.47 62.6009 88.6509 62.6009C71.8323 62.6009 58.198 48.9666 58.198 32.148C58.198 15.3294 71.8323 1.69508 88.6509 1.69508C105.47 1.69508 119.104 15.3294 119.104 32.148Z" fill="#9162A4"/>
<path d="M121.849 32.148C121.849 48.9666 107.175 62.6009 89.0718 62.6009C70.9688 62.6009 56.2944 48.9666 56.2944 32.148C56.2944 15.3294 70.9688 1.69508 89.0718 1.69508C107.175 1.69508 121.849 15.3294 121.849 32.148Z" stroke="#9162A4" stroke-width="2.322"/>
<path d="M105.736 68.9523L95.6995 58.1187L101.821 56.4296L105.736 68.9523Z" fill="#9162A4"/>
<path d="M67.915 68.9523L77.9504 58.1187L71.8285 56.4296L67.915 68.9523Z" fill="#9162A4"/>
<path d="M85.0917 42.3142V39.1496C85.0917 37.1596 85.3397 35.4977 85.8382 34.1628C86.3354 32.8291 86.9732 31.6841 87.7492 30.7292C88.5253 29.773 89.3112 28.918 90.1082 28.1605C91.184 27.1661 92.139 26.1803 92.9755 25.2044C93.8107 24.2298 94.229 22.9454 94.229 21.3526C94.229 20.4779 94.0094 19.7401 93.5726 19.143C93.1334 18.5458 92.6066 18.0782 91.9897 17.7402C91.3716 17.4021 90.7658 17.2319 90.1687 17.2319C89.0126 17.2319 88.0478 17.5008 87.2718 18.0375C86.4957 18.5754 85.8579 19.2626 85.3607 20.0979C84.8622 20.9344 84.4354 21.8103 84.0763 22.7258H82.4503L77.2092 19.5007C77.4473 18.7852 77.8656 17.8685 78.4627 16.7544C79.0599 15.6403 79.905 14.525 81.0006 13.4097C82.0962 12.2956 83.4693 11.3592 85.1213 10.6029C86.7733 9.84657 88.7548 9.4678 91.0644 9.4678C93.3333 9.4678 95.3727 9.85644 97.1851 10.6325C98.9962 11.4085 100.441 12.604 101.516 14.2166C102.59 15.8278 103.128 17.9487 103.128 20.5766C103.128 22.7665 102.83 24.5382 102.232 25.8916C101.634 27.2451 100.897 28.39 100.023 29.3252C99.1455 30.2616 98.2695 31.1869 97.3948 32.1024C96.7175 32.7797 96.071 33.5261 95.4529 34.3417C94.836 35.1584 94.3486 36.1035 93.9908 37.1793C93.6318 38.2539 93.4529 39.5481 93.4529 41.0607V42.3142H85.0917ZM89.2717 54.9159C87.8393 54.9159 86.6635 54.5285 85.7493 53.7512C84.8326 52.9752 84.3749 51.9511 84.3749 50.6754C84.3749 49.4429 84.8425 48.4065 85.7789 47.57C86.7141 46.7348 87.8788 46.3165 89.2717 46.3165C90.6659 46.3165 91.8108 46.7348 92.7065 47.57C93.6022 48.4065 94.0501 49.4429 94.0501 50.6754C94.0501 51.9511 93.6109 52.9752 92.7361 53.7512C91.8601 54.5285 90.7053 54.9159 89.2717 54.9159Z" fill="#654373"/>
<path d="M83.4655 42.3142V39.1496C83.4655 37.1596 83.7135 35.4977 84.2119 34.1628C84.7092 32.8291 85.3458 31.6841 86.123 30.7292C86.8991 29.773 87.685 28.918 88.482 28.1605C89.5566 27.1661 90.5115 26.1803 91.348 25.2044C92.1845 24.2297 92.6028 22.9454 92.6028 21.3526C92.6028 20.4779 92.3831 19.7401 91.9452 19.143C91.5072 18.5458 90.9791 18.0782 90.3635 17.7402C89.7454 17.4021 89.1384 17.2319 88.5412 17.2319C87.3864 17.2319 86.4216 17.5008 85.6443 18.0375C84.8683 18.5754 84.2317 19.2626 83.7332 20.0979C83.2348 20.9344 82.8079 21.8103 82.4501 22.7258L75.5818 19.5007C75.8211 18.7852 76.2394 17.8685 76.8365 16.7544C77.4337 15.6403 78.2788 14.525 79.3744 13.4097C80.4687 12.2956 81.8419 11.3592 83.4951 10.6029C85.1471 9.84656 87.1273 9.4678 89.4369 9.4678C91.707 9.4678 93.7465 9.85643 95.5589 10.6325C97.37 11.4085 98.8135 12.604 99.8881 14.2165C100.964 15.8278 101.501 17.9487 101.501 20.5766C101.501 22.7665 101.202 24.5382 100.605 25.8916C100.008 27.2451 99.2712 28.39 98.3953 29.3252C97.5193 30.2616 96.6433 31.1869 95.7674 32.1024C95.09 32.7797 94.4435 33.5261 93.8266 34.3417C93.2085 35.1584 92.7212 36.1035 92.3634 37.1793C92.0056 38.2539 91.8255 39.5481 91.8255 41.0607V42.3142H83.4655ZM87.6455 54.9159C86.2119 54.9159 85.0373 54.5285 84.1219 53.7512C83.2052 52.9752 82.7487 51.9511 82.7487 50.6754C82.7487 49.4429 83.2163 48.4065 84.1515 47.57C85.0867 46.7348 86.2514 46.3165 87.6455 46.3165C89.0384 46.3165 90.1834 46.7348 91.0791 47.57C91.9748 48.4065 92.4239 49.4429 92.4239 50.6754C92.4239 51.9511 91.9846 52.9752 91.1099 53.7512C90.2327 54.5285 89.0791 54.9159 87.6455 54.9159Z" fill="white"/>
<path d="M46.9585 33.0425C46.9585 43.5393 38.4492 52.0486 27.9524 52.0486C17.4568 52.0486 8.94751 43.5393 8.94751 33.0425C8.94751 22.5456 17.4568 14.0364 27.9524 14.0364C38.4492 14.0364 46.9585 22.5456 46.9585 33.0425Z" fill="#654373"/>
<path d="M48.6365 33.0425C48.6365 43.5393 39.3475 52.0486 27.8871 52.0486C16.4279 52.0486 7.13892 43.5393 7.13892 33.0425C7.13892 22.5456 16.4279 14.0364 27.8871 14.0364C39.3475 14.0364 48.6365 22.5456 48.6365 33.0425Z" stroke="#654373" stroke-width="2.797"/>
<path d="M23.1409 50.5051L26.3166 58.5036L28.0969 50.5051H23.1409Z" fill="#654373"/>
<path d="M26.7815 39.4938L26.4608 37.6111C26.2597 36.4279 26.2399 35.4138 26.4015 34.5699C26.5619 33.7272 26.8247 32.982 27.1899 32.3343C27.5551 31.6878 27.9363 31.0993 28.3336 30.5688C28.8728 29.8693 29.3416 29.1857 29.7401 28.522C30.1386 27.857 30.2571 27.0513 30.0967 26.1038C30.0078 25.5832 29.803 25.1674 29.4822 24.8565C29.1615 24.5456 28.8 24.321 28.399 24.1816C27.998 24.0434 27.6193 24.004 27.2652 24.0632C26.578 24.1804 26.0314 24.4382 25.623 24.8355C25.2159 25.234 24.9062 25.7065 24.6953 26.2543C24.483 26.8021 24.3177 27.3659 24.1968 27.9471L23.2295 28.1111L19.7874 26.7232C19.8564 26.2728 20.0131 25.6856 20.2549 24.9626C20.498 24.2396 20.8879 23.4907 21.427 22.7171C21.9649 21.9436 22.6879 21.249 23.5935 20.6308C24.4991 20.0152 25.6391 19.5896 27.0123 19.3564C28.362 19.1269 29.6143 19.1516 30.7703 19.4304C31.9263 19.708 32.9059 20.2731 33.7079 21.1231C34.5098 21.9732 35.044 23.1798 35.3093 24.743C35.5314 26.0458 35.5326 27.1291 35.3142 27.9939C35.0959 28.86 34.7726 29.6151 34.347 30.2604C33.9201 30.9044 33.4932 31.5435 33.0651 32.1764C32.7307 32.6477 32.4211 33.1572 32.1373 33.705C31.8523 34.2528 31.6586 34.8648 31.5537 35.5396C31.4489 36.2157 31.4735 37.0029 31.6265 37.9023L31.7536 38.6487L26.7815 39.4938ZM30.5408 46.5645C29.6883 46.7101 28.9505 46.5978 28.3274 46.2289C27.7044 45.8588 27.3281 45.2962 27.1998 44.5387C27.0752 43.8046 27.2479 43.1408 27.7204 42.5499C28.1917 41.9576 28.8419 41.5912 29.671 41.4506C30.5001 41.3099 31.2231 41.4432 31.84 41.8491C32.4581 42.2562 32.8282 42.8262 32.9528 43.5603C33.0824 44.3191 32.9244 44.9717 32.4828 45.522C32.0398 46.0722 31.3933 46.4202 30.5408 46.5645Z" fill="#9162A4"/>
<path d="M25.813 39.6584L25.4935 37.7757C25.2924 36.5925 25.2726 35.5784 25.433 34.7345C25.5947 33.8918 25.8574 33.1467 26.2226 32.5002C26.5878 31.8524 26.9691 31.2652 27.3663 30.7347C27.9055 30.0339 28.3743 29.3516 28.7728 28.6866C29.1713 28.0216 29.2898 27.216 29.1294 26.2684C29.0405 25.7478 28.8357 25.332 28.515 25.0211C28.1942 24.7102 27.8327 24.4856 27.4317 24.3462C27.0307 24.2081 26.652 24.1686 26.2979 24.229C25.6107 24.345 25.0641 24.6029 24.6558 25.0014C24.2486 25.3986 23.9389 25.8724 23.728 26.419C23.5158 26.9667 23.3504 27.5306 23.2295 28.1117L18.8201 26.8878C18.8892 26.4375 19.0458 25.8514 19.2877 25.1272C19.5307 24.4042 19.9206 23.6566 20.4597 22.8818C20.9977 22.1094 21.7194 21.4136 22.6262 20.7967C23.5318 20.1798 24.6718 19.7542 26.045 19.521C27.3947 19.2915 28.647 19.3162 29.803 19.595C30.959 19.8738 31.9387 20.4377 32.7406 21.2877C33.5425 22.139 34.0768 23.3444 34.342 24.9076C34.5641 26.2104 34.5653 27.2937 34.347 28.1598C34.1286 29.0247 33.8053 29.7797 33.3797 30.425C32.9528 31.0702 32.5259 31.7093 32.0978 32.3422C31.7635 32.8135 31.4538 33.3218 31.17 33.8696C30.885 34.4174 30.6913 35.0294 30.5864 35.7042C30.4816 36.3803 30.5063 37.1675 30.6592 38.0681L30.7863 38.8133L25.813 39.6584ZM29.5735 46.7304C28.721 46.8747 27.9832 46.7624 27.3602 46.3935C26.7371 46.0247 26.3608 45.4608 26.2325 44.7033C26.1079 43.9692 26.2806 43.3067 26.7532 42.7145C27.2244 42.1223 27.8746 41.7558 28.7037 41.6152C29.5328 41.4745 30.2558 41.6078 30.8727 42.0137C31.4908 42.4208 31.8609 42.9921 31.9855 43.7249C32.1151 44.4837 31.9572 45.1376 31.5155 45.6878C31.0726 46.2381 30.4261 46.5848 29.5735 46.7304Z" fill="white"/>
<path d="M133.12 30.3973C130.237 39.727 135.463 49.6267 144.793 52.51C154.123 55.3921 164.022 50.1659 166.906 40.8362C169.789 31.5064 164.563 21.6068 155.233 18.7247C145.903 15.8414 136.002 21.0676 133.12 30.3973Z" fill="#392242"/>
<path d="M131.469 30.0383C128.587 39.368 134.488 49.4762 144.649 52.6161C154.811 55.756 165.386 50.7383 168.269 41.4086C171.151 32.0789 165.252 21.9707 155.089 18.8308C144.927 15.6909 134.352 20.7086 131.469 30.0383Z" stroke="#392242" stroke-width="3.963"/>
<path d="M149.494 52.4594L144.475 58.6961L145.089 51.0986L149.494 52.4594Z" fill="#392242"/>
<path d="M147.127 40.5475L147.397 38.9053C147.566 37.8727 147.837 37.0312 148.208 36.381C148.581 35.7309 149.009 35.1905 149.492 34.7611C149.977 34.3305 150.457 33.953 150.936 33.6285C151.577 33.2041 152.157 32.7735 152.674 32.338C153.191 31.9025 153.518 31.272 153.653 30.4454C153.728 29.9914 153.676 29.5892 153.5 29.2425C153.323 28.8946 153.089 28.6071 152.798 28.3789C152.506 28.1519 152.205 28.0112 151.896 27.9606C151.296 27.8632 150.773 27.9199 150.324 28.1334C149.875 28.3456 149.486 28.6478 149.157 29.0402C148.827 29.4313 148.531 29.8495 148.267 30.2949L147.422 30.1567L144.977 28.0371C145.162 27.6855 145.457 27.245 145.861 26.717C146.266 26.1902 146.799 25.6831 147.463 25.197C148.125 24.7121 148.919 24.3432 149.84 24.0916C150.762 23.8386 151.823 23.8115 153.021 24.0077C154.199 24.2001 155.224 24.5752 156.099 25.1328C156.974 25.6893 157.622 26.432 158.042 27.361C158.463 28.2888 158.562 29.435 158.338 30.7995C158.152 31.9358 157.846 32.8303 157.421 33.4817C156.996 34.1331 156.516 34.6649 155.982 35.0757C155.448 35.4878 154.914 35.8937 154.382 36.2935C153.972 36.5883 153.574 36.9202 153.184 37.2916C152.794 37.6629 152.461 38.112 152.183 38.6388C151.906 39.1669 151.703 39.8232 151.574 40.6079L151.468 41.2593L147.127 40.5475ZM148.225 47.4442C147.481 47.322 146.905 47.021 146.496 46.5398C146.086 46.0587 145.937 45.4887 146.045 44.8274C146.15 44.1871 146.481 43.6886 147.037 43.3345C147.594 42.9804 148.234 42.862 148.957 42.9804C149.68 43.0989 150.239 43.4135 150.632 43.923C151.027 44.4338 151.172 45.01 151.067 45.6491C150.958 46.3116 150.643 46.8051 150.123 47.1345C149.602 47.4627 148.969 47.5663 148.225 47.4442Z" fill="#9162A4"/>
<path d="M146.284 40.4093L146.552 38.7671C146.723 37.7332 146.993 36.8918 147.364 36.2416C147.736 35.5927 148.164 35.0523 148.649 34.6217C149.132 34.1924 149.613 33.8148 150.091 33.4903C150.734 33.0647 151.314 32.6353 151.83 32.1998C152.347 31.7643 152.673 31.1339 152.809 30.3072C152.883 29.852 152.832 29.451 152.656 29.1043C152.479 28.7564 152.245 28.4689 151.954 28.2407C151.661 28.0124 151.362 27.873 151.052 27.8224C150.452 27.7237 149.928 27.7817 149.48 27.9952C149.031 28.2074 148.642 28.5096 148.313 28.902C147.982 29.2931 147.686 29.7113 147.422 30.1567L144.132 27.8977C144.317 27.5461 144.612 27.1069 145.016 26.5788C145.421 26.052 145.955 25.5449 146.619 25.0588C147.282 24.574 148.074 24.2051 148.997 23.9521C149.918 23.7004 150.978 23.6721 152.177 23.8695C153.355 24.0619 154.381 24.437 155.255 24.9947C156.129 25.5511 156.777 26.2938 157.197 27.2228C157.618 28.1506 157.717 29.2968 157.493 30.6601C157.307 31.7976 157.001 32.6921 156.577 33.3435C156.151 33.995 155.671 34.5267 155.138 34.9375C154.603 35.3484 154.07 35.7543 153.538 36.1553C153.128 36.4489 152.73 36.782 152.34 37.1534C151.95 37.5235 151.616 37.9738 151.339 38.5006C151.062 39.0287 150.858 39.6851 150.73 40.4697L150.623 41.1212L146.284 40.4093ZM147.382 47.306C146.638 47.1839 146.061 46.8828 145.652 46.4017C145.242 45.9205 145.092 45.3505 145.2 44.688C145.305 44.0476 145.636 43.5504 146.193 43.1963C146.75 42.841 147.389 42.7238 148.113 42.8423C148.836 42.9607 149.395 43.2753 149.789 43.7848C150.182 44.2956 150.327 44.8706 150.222 45.5109C150.113 46.1734 149.798 46.6669 149.279 46.9963C148.757 47.3245 148.126 47.4281 147.382 47.306Z" fill="white"/>
<g style="mix-blend-mode:multiply" opacity="0.4">
<g style="mix-blend-mode:multiply" opacity="0.4">
<g style="mix-blend-mode:multiply" opacity="0.4">
<path d="M49.2657 16.9456L48.8734 15.5761C48.6267 14.715 48.528 13.9661 48.5773 13.327C48.6279 12.6879 48.7611 12.1142 48.9783 11.6046C49.1954 11.0951 49.4298 10.6275 49.6803 10.2006C50.022 9.63803 50.3132 9.09271 50.5538 8.56713C50.7944 8.04155 50.8153 7.43454 50.6179 6.74486C50.5094 6.36733 50.3231 6.07493 50.0603 5.87136C49.7963 5.66779 49.51 5.53084 49.2016 5.46052C48.8931 5.39143 48.6094 5.39266 48.3515 5.46669C47.8519 5.6098 47.4669 5.84545 47.198 6.17487C46.929 6.50305 46.739 6.87934 46.6267 7.30252C46.5157 7.7257 46.4392 8.15752 46.3972 8.59797L43.0266 8.05512C43.0414 7.71583 43.1093 7.26798 43.2289 6.71155C43.3486 6.15513 43.5769 5.56786 43.9125 4.94974C44.2468 4.33286 44.7255 3.75793 45.3461 3.22494C45.9667 2.69319 46.7772 2.28358 47.7754 1.99735C48.7574 1.71605 49.6877 1.63092 50.5674 1.74196C51.447 1.853 52.2206 2.19105 52.8844 2.75488C53.5494 3.31994 54.0453 4.17 54.371 5.3063C54.6425 6.25383 54.7325 7.05701 54.6425 7.71583C54.5524 8.3759 54.3747 8.96317 54.1132 9.47518C53.8492 9.98966 53.5851 10.498 53.3199 11.0026C53.1114 11.3801 52.9238 11.7823 52.7585 12.2117C52.5932 12.6422 52.4994 13.1111 52.4772 13.6206C52.4562 14.1302 52.5389 14.7113 52.7264 15.3664L52.8819 15.908L49.2657 16.9456ZM52.6364 21.8769C52.0158 22.0546 51.4606 22.0324 50.9683 21.8103C50.4748 21.5882 50.1504 21.2021 49.9924 20.6506C49.8394 20.1164 49.9135 19.6105 50.2145 19.1331C50.5155 18.6556 50.9671 18.3299 51.5704 18.1572C52.1725 17.9844 52.719 18.0239 53.2101 18.2744C53.7023 18.5248 54.0244 18.9171 54.1773 19.4501C54.3353 20.0016 54.2723 20.5001 53.9898 20.9442C53.7073 21.3884 53.2557 21.6993 52.6364 21.8769Z" fill="#9162A4"/>
</g>
</g>
<g style="mix-blend-mode:multiply" opacity="0.4">
<g style="mix-blend-mode:multiply" opacity="0.4">
<path d="M124.744 17.6772L125.228 16.3386C125.533 15.4959 125.893 14.8309 126.309 14.3424C126.724 13.855 127.168 13.4689 127.643 13.1826C128.118 12.8976 128.582 12.6558 129.035 12.4584C129.642 12.2018 130.197 11.9316 130.7 11.6466C131.204 11.3616 131.577 10.8829 131.822 10.2093C131.955 9.83914 131.976 9.49369 131.882 9.17291C131.787 8.85337 131.637 8.57454 131.427 8.33766C131.217 8.09954 130.986 7.93545 130.735 7.84292C130.246 7.66649 129.796 7.63195 129.385 7.74052C128.974 7.84909 128.6 8.04155 128.261 8.31915C127.922 8.59675 127.607 8.90272 127.316 9.2346L124.904 6.81766C125.115 6.55117 125.432 6.22793 125.855 5.84793C126.278 5.46793 126.808 5.12618 127.442 4.82144C128.076 4.51793 128.8 4.33287 129.616 4.26625C130.43 4.19962 131.326 4.34274 132.303 4.69559C133.263 5.04351 134.066 5.52098 134.714 6.12676C135.361 6.73253 135.789 7.45922 135.997 8.30558C136.205 9.15317 136.108 10.1328 135.704 11.2444C135.369 12.171 134.972 12.8742 134.511 13.3554C134.051 13.8365 133.564 14.2079 133.051 14.4694C132.536 14.731 132.024 14.9889 131.513 15.2418C131.123 15.4244 130.735 15.6415 130.349 15.892C129.962 16.1424 129.612 16.4681 129.295 16.8679C128.979 17.2676 128.705 17.7883 128.473 18.4274L128.281 18.9579L124.744 17.6772ZM124.582 23.6486C123.975 23.429 123.538 23.0848 123.269 22.616C123 22.1471 122.965 21.6438 123.159 21.1046C123.348 20.5827 123.705 20.2163 124.229 20.0053C124.752 19.7956 125.31 19.7968 125.9 20.0103C126.488 20.2237 126.909 20.5766 127.161 21.0676C127.411 21.5586 127.442 22.0657 127.253 22.5876C127.057 23.1268 126.715 23.4919 126.225 23.6869C125.736 23.8806 125.188 23.8682 124.582 23.6486Z" fill="#9162A4"/>
</g>
</g>
<g style="mix-blend-mode:multiply" opacity="0.4">
<g style="mix-blend-mode:multiply" opacity="0.4">
<path d="M159.125 82.4114L159.487 81.5243C159.716 80.9667 159.976 80.5299 160.268 80.2128C160.561 79.897 160.871 79.649 161.199 79.4701C161.526 79.2912 161.844 79.1419 162.154 79.021C162.569 78.8656 162.949 78.699 163.296 78.5213C163.642 78.3449 163.906 78.0328 164.089 77.5862C164.189 77.3419 164.213 77.1099 164.159 76.8915C164.104 76.6744 164.009 76.4832 163.876 76.3178C163.741 76.1525 163.591 76.0353 163.423 75.9662C163.1 75.8342 162.799 75.7984 162.52 75.8601C162.24 75.9218 161.983 76.0415 161.748 76.2179C161.512 76.3956 161.292 76.5917 161.086 76.8077L159.533 75.1162C159.681 74.9422 159.903 74.7337 160.199 74.4894C160.494 74.2464 160.859 74.0305 161.294 73.8442C161.728 73.6579 162.22 73.553 162.771 73.5308C163.32 73.5086 163.918 73.6295 164.566 73.8935C165.201 74.1538 165.728 74.4968 166.146 74.9225C166.564 75.3469 166.832 75.8478 166.948 76.4227C167.065 76.9977 166.973 77.6528 166.67 78.3893C166.42 79.0037 166.133 79.4652 165.811 79.7761C165.487 80.087 165.15 80.3226 164.798 80.4843C164.445 80.6459 164.093 80.805 163.743 80.9617C163.475 81.074 163.209 81.2085 162.942 81.3664C162.676 81.5243 162.43 81.7328 162.207 81.9931C161.983 82.2535 161.785 82.5952 161.611 83.0196L161.468 83.37L159.125 82.4114ZM158.851 86.4211C158.45 86.257 158.165 86.014 157.997 85.6907C157.829 85.3687 157.819 85.0294 157.965 84.6716C158.107 84.3262 158.356 84.0893 158.715 83.9622C159.073 83.8352 159.447 83.8524 159.837 84.0116C160.228 84.172 160.5 84.42 160.656 84.7568C160.81 85.0948 160.817 85.4353 160.676 85.782C160.53 86.1386 160.289 86.3755 159.955 86.4927C159.621 86.6099 159.252 86.5852 158.851 86.4211Z" fill="#9162A4"/>
</g>
</g>
<g style="mix-blend-mode:multiply" opacity="0.4">
<g style="mix-blend-mode:multiply" opacity="0.4">
<path d="M10.8835 59.2537L10.3974 58.6258C10.0902 58.231 9.88412 57.8633 9.77802 57.5215C9.67068 57.181 9.62133 56.8553 9.62873 56.5469C9.6349 56.2372 9.65957 55.9473 9.70152 55.6746C9.76198 55.3119 9.79899 54.9689 9.81503 54.6469C9.83107 54.3249 9.71633 54.0053 9.47081 53.6895C9.33633 53.5168 9.17964 53.4033 9.00074 53.3527C8.82185 53.3021 8.64542 53.2897 8.47146 53.3181C8.29627 53.3453 8.14945 53.4057 8.03101 53.497C7.80276 53.6747 7.65224 53.877 7.58069 54.1028C7.51036 54.3286 7.48939 54.563 7.519 54.806C7.54861 55.0479 7.59919 55.2872 7.66828 55.5241L5.81024 55.9411C5.74732 55.7622 5.68933 55.5167 5.63628 55.2033C5.58323 54.8912 5.57953 54.5395 5.62518 54.1497C5.67082 53.7598 5.79914 53.3638 6.01134 52.9591C6.22232 52.5544 6.55667 52.1744 7.01439 51.8191C7.46471 51.47 7.92861 51.2331 8.40854 51.1085C8.88724 50.9838 9.3573 50.9987 9.81873 51.1529C10.2789 51.3083 10.712 51.6451 11.1166 52.167C11.4535 52.6013 11.6669 52.9986 11.757 53.3588C11.847 53.7191 11.8766 54.0596 11.847 54.3804C11.8174 54.6999 11.7853 55.0182 11.7533 55.3353C11.7224 55.5734 11.7089 55.8214 11.7126 56.078C11.715 56.3347 11.7644 56.5975 11.8581 56.8652C11.9531 57.1341 12.116 57.4179 12.3492 57.7177L12.5416 57.9669L10.8835 59.2537ZM13.652 61.1093C13.367 61.3302 13.0746 61.4338 12.7736 61.4202C12.4725 61.4079 12.2246 61.2746 12.0284 61.0217C11.8384 60.7774 11.7718 60.4998 11.8285 60.1902C11.8853 59.8805 12.0518 59.6177 12.3282 59.403C12.6046 59.1896 12.897 59.0958 13.2029 59.1242C13.5089 59.1526 13.7569 59.2883 13.9469 59.5338C14.1431 59.7855 14.2134 60.0569 14.1591 60.3456C14.1048 60.6343 13.9358 60.8885 13.652 61.1093Z" fill="#9162A4"/>
</g>
</g>
<g style="mix-blend-mode:multiply" opacity="0.4">
<g style="mix-blend-mode:multiply" opacity="0.4">
<path d="M123.154 52.51L123.519 51.7389C123.749 51.254 124.002 50.8777 124.277 50.61C124.552 50.3423 124.839 50.1363 125.139 49.9931C125.439 49.85 125.729 49.7328 126.01 49.6403C126.388 49.5218 126.735 49.3923 127.05 49.2516C127.367 49.1098 127.617 48.8457 127.801 48.4571C127.902 48.2449 127.934 48.0389 127.897 47.8439C127.858 47.6478 127.783 47.4726 127.672 47.3183C127.561 47.1654 127.433 47.0531 127.287 46.984C127.006 46.8507 126.739 46.8051 126.489 46.847C126.237 46.8878 126.003 46.9815 125.785 47.1283C125.567 47.2739 125.361 47.438 125.169 47.6194L123.869 46.0414C124.009 45.8933 124.216 45.7194 124.49 45.5158C124.765 45.3135 125.1 45.1395 125.496 44.9952C125.891 44.8496 126.334 44.7805 126.823 44.7867C127.313 44.7928 127.84 44.9298 128.403 45.1963C128.955 45.4591 129.408 45.7885 129.76 46.187C130.111 46.5855 130.325 47.0432 130.4 47.5602C130.477 48.0771 130.362 48.6557 130.058 49.2961C129.805 49.8303 129.529 50.2276 129.227 50.4879C128.924 50.7482 128.614 50.9419 128.292 51.069C127.97 51.1961 127.65 51.3207 127.33 51.4428C127.087 51.5292 126.843 51.6365 126.599 51.7636C126.355 51.8919 126.126 52.0659 125.915 52.2855C125.703 52.5063 125.511 52.8012 125.335 53.1701L125.191 53.4748L123.154 52.51ZM122.717 56.062C122.368 55.8967 122.126 55.6672 121.993 55.3723C121.86 55.0775 121.866 54.774 122.014 54.4643C122.156 54.1632 122.389 53.9646 122.714 53.8696C123.038 53.7734 123.371 53.8067 123.711 53.9671C124.05 54.1287 124.281 54.3619 124.403 54.6691C124.524 54.9763 124.514 55.281 124.371 55.5808C124.224 55.8917 123.998 56.0904 123.696 56.1792C123.392 56.2668 123.067 56.2286 122.717 56.062Z" fill="#9162A4"/>
</g>
</g>
<g style="mix-blend-mode:multiply" opacity="0.4">
<g style="mix-blend-mode:multiply" opacity="0.4">
<path d="M152.128 68.3848L152.493 67.6137C152.723 67.1288 152.976 66.7525 153.251 66.4848C153.526 66.2171 153.813 66.0123 154.113 65.8691C154.413 65.726 154.703 65.6076 154.984 65.515C155.362 65.3966 155.707 65.2671 156.024 65.1264C156.34 64.9845 156.59 64.7205 156.774 64.3319C156.875 64.1197 156.908 63.9149 156.869 63.7187C156.832 63.5225 156.757 63.3473 156.646 63.1931C156.535 63.0401 156.407 62.9279 156.261 62.86C155.98 62.7255 155.713 62.6799 155.463 62.7218C155.211 62.7625 154.977 62.8563 154.758 63.0031C154.541 63.1487 154.335 63.3128 154.143 63.4941L152.841 61.9162C152.983 61.7681 153.19 61.5942 153.464 61.3906C153.738 61.1882 154.074 61.0143 154.468 60.8699C154.864 60.7244 155.307 60.6553 155.797 60.6614C156.287 60.6676 156.814 60.8046 157.376 61.071C157.929 61.3338 158.381 61.6632 158.732 62.0618C159.084 62.4603 159.299 62.918 159.374 63.4349C159.449 63.9519 159.336 64.5305 159.032 65.1708C158.779 65.705 158.502 66.1023 158.2 66.3626C157.898 66.623 157.586 66.8167 157.265 66.9437C156.943 67.0708 156.624 67.1954 156.304 67.3176C156.061 67.4039 155.817 67.5113 155.573 67.6384C155.328 67.7667 155.1 67.9406 154.889 68.1602C154.677 68.3811 154.484 68.6759 154.309 69.0448L154.165 69.3496L152.128 68.3848ZM151.69 71.938C151.341 71.7715 151.1 71.542 150.967 71.2471C150.832 70.9522 150.84 70.6487 150.987 70.3391C151.13 70.038 151.363 69.8394 151.687 69.7444C152.012 69.6482 152.344 69.6815 152.684 69.8418C153.024 70.0035 153.254 70.2367 153.375 70.5439C153.497 70.8511 153.486 71.1558 153.344 71.4556C153.198 71.7665 152.972 71.9652 152.67 72.054C152.366 72.1416 152.04 72.1033 151.69 71.938Z" fill="#9162A4"/>
</g>
</g>
<g style="mix-blend-mode:multiply" opacity="0.4">
<g style="mix-blend-mode:multiply" opacity="0.4">
<path d="M52.8398 57.5869L52.4215 56.7245C52.16 56.1817 52.0082 55.6968 51.9675 55.2675C51.928 54.8381 51.9502 54.4421 52.0366 54.0793C52.1217 53.7166 52.2229 53.3798 52.3401 53.0689C52.5017 52.6556 52.6325 52.2608 52.7312 51.8845C52.8312 51.5094 52.7756 51.1035 52.5659 50.6692C52.4499 50.4311 52.2932 50.2596 52.0946 50.1548C51.8972 50.0499 51.6912 49.9919 51.4789 49.9808C51.2655 49.9697 51.078 50.003 50.9151 50.082C50.6005 50.2349 50.3735 50.4348 50.2329 50.684C50.0922 50.9333 50.0083 51.2035 49.9836 51.4971C49.9577 51.7907 49.9565 52.0856 49.9799 52.3829L47.6827 52.4101C47.6531 52.1831 47.6469 51.8783 47.6629 51.4959C47.679 51.1134 47.7616 50.6976 47.9134 50.2498C48.0651 49.8019 48.3156 49.3651 48.666 48.9407C49.0164 48.5176 49.5062 48.1536 50.1354 47.8489C50.7547 47.5491 51.3617 47.3862 51.9576 47.3591C52.5536 47.3319 53.1038 47.4664 53.6097 47.7637C54.1155 48.0623 54.5411 48.5694 54.8878 49.285C55.1765 49.8821 55.3295 50.404 55.3443 50.8518C55.3604 51.2997 55.311 51.7081 55.195 52.0782C55.0803 52.4496 54.9631 52.8172 54.8459 53.1812C54.7497 53.4563 54.6719 53.745 54.6115 54.0485C54.551 54.352 54.5424 54.674 54.5868 55.0145C54.6312 55.3538 54.7534 55.7301 54.952 56.1422L55.1173 56.484L52.8398 57.5869ZM55.6404 60.469C55.2493 60.659 54.878 60.7083 54.5263 60.617C54.1747 60.5257 53.9144 60.3074 53.7466 59.9595C53.5837 59.6239 53.5751 59.2797 53.7195 58.928C53.8638 58.5776 54.1266 58.3099 54.5066 58.1261C54.8854 57.9423 55.253 57.9052 55.6071 58.015C55.9612 58.1249 56.2203 58.3482 56.3832 58.6837C56.5509 59.0317 56.567 59.3685 56.43 59.6954C56.2943 60.0224 56.0303 60.2802 55.6404 60.469Z" fill="#9162A4"/>
</g>
</g>
<g style="mix-blend-mode:multiply" opacity="0.4">
<g style="mix-blend-mode:multiply" opacity="0.4">
<path d="M5.18459 75.6788L4.76758 74.8152C4.50479 74.2736 4.35427 73.7875 4.31356 73.3581C4.27284 72.93 4.29629 72.534 4.38142 72.1712C4.46778 71.8085 4.56895 71.4717 4.68615 71.1595C4.84778 70.7475 4.97856 70.3527 5.07726 69.9764C5.17596 69.6001 5.12044 69.1954 4.9107 68.7611C4.79596 68.523 4.63804 68.3503 4.44064 68.2454C4.242 68.1405 4.0372 68.0825 3.82376 68.0714C3.61155 68.0616 3.42402 68.0949 3.26116 68.1738C2.94655 68.3256 2.71831 68.5267 2.57766 68.7759C2.43701 69.0239 2.35435 69.2953 2.32844 69.589C2.30376 69.8826 2.30253 70.1775 2.32597 70.4748L0.0287069 70.5007C-0.000903378 70.2737 -0.00707243 69.9702 0.0077327 69.5865C0.0237716 69.204 0.107667 68.7895 0.25942 68.3404C0.409939 67.8925 0.661626 67.457 1.01201 67.0326C1.3624 66.6094 1.85221 66.2442 2.48142 65.9395C3.09954 65.6409 3.70655 65.4781 4.30369 65.4497C4.8996 65.4226 5.44985 65.5583 5.95569 65.8556C6.46154 66.1529 6.88718 66.66 7.23387 67.3756C7.52257 67.9727 7.67432 68.4959 7.69036 68.9425C7.7064 69.3903 7.65582 69.7999 7.54108 70.1701C7.4251 70.5402 7.30913 70.9079 7.19069 71.273C7.09569 71.5469 7.01796 71.8356 6.95751 72.1391C6.89705 72.4439 6.88842 72.7647 6.93283 73.1052C6.97725 73.4457 7.09816 73.822 7.29803 74.2341L7.46335 74.5758L5.18459 75.6788ZM7.98647 78.5609C7.59536 78.7496 7.224 78.799 6.87238 78.7077C6.51952 78.6176 6.26043 78.398 6.09264 78.0513C5.92979 77.7145 5.91992 77.3715 6.0655 77.0199C6.20985 76.6683 6.47264 76.4018 6.8514 76.218C7.2314 76.0341 7.59906 75.9971 7.95315 76.1069C8.30724 76.2167 8.56633 76.4388 8.72919 76.7756C8.89698 77.1223 8.91302 77.4604 8.77607 77.7873C8.64036 78.1143 8.37633 78.3721 7.98647 78.5609Z" fill="#9162A4"/>
</g>
</g>
</g>
<path d="M115.303 84.6495C115.446 82.594 115.57 81.0543 115.678 80.0303C115.901 77.902 116.198 75.7614 116.926 73.7492C117.655 71.7369 118.849 69.8419 120.584 68.5884C122.397 70.497 124.391 72.4439 126.416 74.123C127.796 75.2667 129.708 75.8577 131.045 77.0495C132.815 78.6275 134.532 80.3227 135.691 82.3917C137.348 85.3502 137.736 88.8282 138.093 92.2001C138.573 96.7416 139.059 101.17 139.539 105.711C135.24 108.118 130.434 109.808 125.597 110.752C126.282 107.162 125.746 103.337 124.529 99.8901C123.4 100.192 122.261 100.496 121.094 100.556C119.927 100.617 118.714 100.414 117.736 99.7754C116.462 98.9438 115.778 97.5225 115.426 96.0087C115.989 95.9643 116.425 95.6608 116.425 95.2894C116.425 94.8872 115.913 94.5603 115.283 94.5603C115.25 94.5603 115.218 94.5652 115.184 94.5664C115.176 94.4899 115.166 94.4135 115.16 94.3357C115.049 93.1538 114.887 92.6837 114.982 91.5005C114.876 91.487 113.969 91.0761 112.261 90.268L115.303 84.6495Z" fill="#FF8775"/>
<path d="M117.322 84.7519C117.322 85.444 117.665 86.0041 118.087 86.0041C118.51 86.0041 118.853 85.444 118.853 84.7519C118.853 84.0597 118.51 83.4996 118.087 83.4996C117.665 83.4996 117.322 84.0597 117.322 84.7519Z" fill="#392242"/>
<path d="M121.364 83.4527C121.114 82.9654 120.847 82.4916 120.503 82.1005C120.335 81.9019 120.153 81.7255 119.952 81.5749C119.757 81.4183 119.543 81.2875 119.32 81.1814C119.095 81.0753 118.857 81.0037 118.618 80.9581C118.381 80.9038 118.148 80.8606 117.913 80.8001C117.678 80.7397 117.437 80.694 117.184 80.6459L116.369 80.5225L116.339 80.4337C116.791 80.0167 117.421 79.8514 118.031 79.8674C118.651 79.8785 119.215 80.1956 119.701 80.5349C120.2 80.8668 120.612 81.3294 120.89 81.8353C121.162 82.346 121.341 82.8803 121.453 83.4219L121.364 83.4527Z" fill="#392242"/>
<path d="M124.529 99.8901L127.058 98.7501L124.947 101.182L124.529 99.8901Z" fill="#392242"/>
<path d="M116.986 161.979L113.874 180.896H157.517L155.692 172.945C153.232 162.22 150.517 151.176 151.49 140.217C152.112 133.21 150.087 125.224 147.736 120.413C144.469 113.728 141.737 108.827 139.539 105.711C132.784 105.462 127.089 107.142 122.455 110.752C117.821 114.362 114.622 118.561 112.856 123.346L116.986 161.979Z" fill="#9162A4"/>
<path d="M101.228 112.218L110.491 130.753L112.856 123.346C115.077 123.346 117.327 124.599 119.606 127.106C121.885 129.613 123.518 131.778 124.505 133.601L111.63 150.806C106.921 143.59 103.92 137.931 102.628 133.828C101.337 129.726 99.1194 123.551 95.9771 115.304L101.228 112.218Z" fill="#FF8775"/>
<path d="M119.161 140.744C120.138 139.394 121.141 138.065 122.149 136.739C123.156 135.413 124.185 134.105 125.201 132.786C126.239 131.484 127.265 130.173 128.311 128.879C129.359 127.584 130.41 126.293 131.488 125.023C130.512 126.373 129.509 127.702 128.501 129.027C127.493 130.353 126.466 131.662 125.448 132.98C124.41 134.281 123.385 135.593 122.338 136.887C121.29 138.181 120.239 139.473 119.161 140.744Z" fill="#392242"/>
<path d="M111.045 129.016C110.867 129.762 110.656 130.497 110.439 131.23C110.227 131.965 109.991 132.693 109.755 133.42C109.512 134.146 109.268 134.87 109.001 135.587C108.738 136.306 108.469 137.021 108.168 137.727C108.346 136.981 108.557 136.245 108.773 135.513C108.985 134.777 109.222 134.051 109.457 133.324C109.702 132.598 109.945 131.874 110.212 131.157C110.475 130.439 110.744 129.722 111.045 129.016Z" fill="#392242"/>
<path d="M153.133 148.389C157.725 144.901 159.502 141.933 158.462 139.483C157.27 145.654 153.085 148.74 145.91 148.74C135.145 148.74 129.836 97.6324 129.945 94.7466C130.053 91.8608 129.304 88.8899 127.541 86.6038C125.822 84.3756 123.265 82.9148 121.516 80.7101C119.469 78.1315 118.714 74.7905 118.016 71.5729C117.09 72.9016 116.507 74.5043 116.27 76.1057C114.45 74.6388 113.34 72.4143 113.574 70.0886C113.808 67.7642 115.555 65.594 117.844 65.1203C119.466 64.7835 121.131 65.2659 122.756 65.5928C124.931 66.0296 127.163 66.19 129.379 66.0666C131.604 65.9432 133.819 65.5361 136.048 65.6101C141.695 65.7976 145.205 69.5729 146.792 74.9965C151.174 89.9769 165.234 126.918 162.89 137.727C161.518 144.051 156.673 147.302 153.133 148.389Z" fill="#392242"/>
<path d="M131.467 85.9758C131.596 87.3033 131.127 88.6777 130.214 89.6499C129.929 89.9547 129.592 90.2273 129.193 90.3544C128.298 90.6406 127.291 90.0929 126.801 89.2884C126.313 88.484 126.244 87.4921 126.309 86.5532C126.393 85.3392 126.794 83.9894 127.879 83.4404C129.631 82.557 131.309 84.3312 131.467 85.9758Z" fill="#FF8775"/>
<g style="mix-blend-mode:multiply">
<path d="M127.851 89.4994C128.221 89.2823 128.527 88.959 128.725 88.5778C128.765 88.5013 128.801 88.4186 128.795 88.3323C128.783 88.1682 128.626 88.0584 128.485 87.972C128.2 87.7993 127.915 87.6266 127.63 87.4538C127.574 87.4193 127.514 87.3823 127.481 87.3243C127.445 87.2601 127.448 87.1824 127.453 87.1096C127.502 86.1781 127.584 85.1677 128.208 84.4743C128.377 84.2868 128.587 84.1276 128.83 84.0647C129.191 83.9697 129.583 84.098 129.883 84.3213C130.184 84.5434 130.409 84.8506 130.622 85.1578C131.05 86.3669 130.925 87.4477 130.245 88.4026C129.565 89.3575 128.767 89.724 127.851 89.4994Z" fill="#FF8775"/>
</g>
<path d="M130.622 85.1578C130.37 84.8666 130.122 84.5631 129.803 84.3743C129.498 84.1794 129.115 84.093 128.808 84.2201C128.503 84.3484 128.254 84.6322 128.086 84.9444C127.913 85.2577 127.808 85.613 127.749 85.9795C127.681 86.3459 127.655 86.7247 127.628 87.1071C127.621 87.212 127.624 87.2404 127.638 87.2527C127.659 87.2799 127.765 87.3403 127.84 87.3909C128.004 87.4933 128.165 87.5994 128.325 87.708C128.479 87.8227 128.655 87.8955 128.814 88.0867C128.891 88.1793 128.928 88.3397 128.887 88.4569C128.85 88.5741 128.794 88.653 128.74 88.7382C128.51 89.0663 128.205 89.339 127.851 89.4994C128.161 89.2674 128.42 88.98 128.583 88.6444C128.625 88.563 128.672 88.4754 128.684 88.405C128.697 88.336 128.679 88.2878 128.631 88.2348C128.535 88.1299 128.342 88.0485 128.177 87.9523C128.007 87.861 127.838 87.7672 127.673 87.6697C127.587 87.6142 127.513 87.5945 127.395 87.4884C127.337 87.4341 127.293 87.3391 127.284 87.2688C127.273 87.196 127.276 87.1367 127.278 87.0886C127.294 86.7012 127.317 86.3101 127.384 85.9153C127.454 85.5242 127.57 85.1269 127.781 84.7704C127.996 84.4237 128.286 84.0844 128.716 83.9499C129.152 83.8204 129.592 83.9808 129.907 84.2263C130.221 84.4879 130.437 84.8197 130.622 85.1578Z" fill="#392242"/>
<path d="M101.228 112.218L97.2948 92.0323C96.8186 91.9607 96.4916 92.2457 96.314 92.8861C96.1363 93.5276 96.4213 96.1962 97.1677 100.892L96.2695 100.864C95.8044 100.849 95.3677 101.091 95.1333 101.493C94.9062 101.884 94.488 102.123 94.0364 102.123H93.4134C92.9063 102.123 92.4486 102.426 92.2487 102.891L92.2265 102.941C92.0476 103.358 91.6602 103.647 91.2099 103.7L91.0261 103.722C90.4857 103.785 90.0465 104.186 89.9342 104.718L89.8577 105.077C89.7886 105.405 89.8515 105.747 90.0329 106.028L96.0302 115.304L101.228 112.218Z" fill="#FF8775"/>
<path d="M128.889 100.912C125.793 100.912 123.275 98.3936 123.275 95.2981C123.275 92.2026 125.793 89.6845 128.889 89.6845V90.0546C125.997 90.0546 123.646 92.4074 123.646 95.2981C123.646 98.19 125.997 100.542 128.889 100.542C131.78 100.542 134.079 98.1888 134.131 95.2981C134.182 92.4999 131.722 90.1027 129.697 90.1027L130.096 89.7721C132.716 90.2446 134.501 92.5924 134.501 95.2981C134.501 98.3936 131.983 100.912 128.889 100.912Z" fill="white"/>
<g opacity="0.29">
<g opacity="0.29">
<path opacity="0.29" d="M158.462 139.483C158.673 138.84 158.698 138.156 158.712 137.487C158.72 136.814 158.673 136.14 158.606 135.472L158.487 134.469L158.323 133.473C158.224 132.807 158.061 132.153 157.928 131.494C157.345 128.865 156.548 126.288 155.687 123.737C155.226 122.472 154.799 121.195 154.302 119.942L153.576 118.056C153.333 117.429 153.065 116.81 152.811 116.187C151.784 113.701 150.739 111.198 149.854 108.646C149.617 108.014 149.428 107.365 149.215 106.724C149.009 106.081 148.794 105.441 148.597 104.796C148.224 103.498 147.812 102.211 147.473 100.904L146.945 98.9487L146.45 96.9858C146.111 95.6793 145.822 94.3604 145.523 93.0452C144.951 90.4074 144.408 87.7635 143.937 85.1059C143.475 82.4484 143.049 79.7835 142.706 77.1075C143.109 79.7749 143.595 82.4274 144.115 85.0726C144.622 87.7215 145.195 90.3556 145.801 92.981C147.042 98.2245 148.414 103.445 150.203 108.525C151.075 111.075 152.099 113.556 153.122 116.06C153.375 116.685 153.64 117.306 153.882 117.936L154.6 119.83C155.097 121.085 155.511 122.373 155.955 123.646C156.786 126.216 157.558 128.809 158.103 131.456C158.224 132.121 158.372 132.781 158.456 133.452L158.599 134.455L158.696 135.463C158.748 136.137 158.779 136.813 158.758 137.488C158.727 138.159 158.688 138.845 158.462 139.483Z" fill="white"/>
</g>
<g opacity="0.29">
<path opacity="0.29" d="M138.347 79.1864C138.819 82.2202 139.378 85.2392 139.984 88.2483C140.583 91.2587 141.233 94.258 141.956 97.24C142.684 100.22 143.461 103.188 144.344 106.126C145.221 109.064 146.183 111.979 147.142 114.895C148.091 117.815 149.034 120.742 149.83 123.714C150.619 126.686 151.243 129.714 151.526 132.782C151.684 134.315 151.726 135.855 151.716 137.395C151.712 138.164 151.644 138.934 151.609 139.702L151.465 140.85L151.391 141.423L151.274 141.99C150.976 143.496 150.503 145.003 149.633 146.287L149.297 146.757C149.186 146.915 149.04 147.046 148.914 147.191L148.718 147.403C148.648 147.47 148.572 147.529 148.498 147.592C148.348 147.712 148.215 147.854 148.046 147.951C147.416 148.387 146.68 148.704 145.91 148.74C146.679 148.689 147.404 148.358 148.02 147.914C148.184 147.816 148.314 147.671 148.461 147.55C148.533 147.486 148.606 147.426 148.675 147.359L148.865 147.146C148.987 146.999 149.126 146.867 149.234 146.709L149.558 146.236C150.392 144.952 150.831 143.453 151.097 141.955L151.205 141.394L151.272 140.824L151.401 139.685C151.427 138.921 151.486 138.158 151.483 137.393C151.475 135.862 151.416 134.331 151.242 132.811C150.916 129.767 150.307 126.758 149.504 123.802C148.702 120.843 147.748 117.926 146.792 115.01C145.842 112.091 144.89 109.169 144.021 106.221C143.152 103.273 142.367 100.3 141.681 97.3054C140.299 91.3167 139.183 85.27 138.347 79.1864Z" fill="white"/>
</g>
<g opacity="0.29">
<path opacity="0.29" d="M136.296 88.3643L138.626 102.591C139.423 107.328 140.211 112.069 141.133 116.782C141.352 117.962 141.594 119.138 141.838 120.311L142.61 123.832L142.802 124.715L142.969 125.602L143.297 127.378L143.566 129.165C143.659 129.759 143.7 130.362 143.771 130.96C143.846 131.558 143.868 132.162 143.905 132.762C143.954 133.363 143.946 133.968 143.949 134.571L143.952 135.023L143.928 135.475L143.879 136.379C143.856 136.68 143.81 136.979 143.777 137.279L143.722 137.728C143.699 137.878 143.667 138.026 143.637 138.174C143.429 139.363 143.059 140.524 142.561 141.62C142.072 142.721 141.46 143.758 140.912 144.826C141.433 143.744 142.019 142.692 142.479 141.584C142.946 140.481 143.282 139.324 143.46 138.142L143.535 137.701L143.583 137.255C143.611 136.957 143.652 136.661 143.671 136.364L143.708 135.467L143.725 135.019L143.716 134.57C143.703 133.973 143.704 133.374 143.647 132.777C143.601 132.18 143.571 131.583 143.487 130.989C143.363 129.798 143.165 128.616 142.981 127.431L142.645 125.665L142.476 124.781L142.28 123.904L141.493 120.387C141.243 119.21 140.993 118.033 140.77 116.852C139.878 112.127 139.083 107.385 138.347 102.636L137.278 95.5065L136.296 88.3643Z" fill="white"/>
</g>
</g>
<path d="M68.0198 133.427C67.6138 135.568 66.4122 137.549 64.6997 138.897C62.9885 140.245 60.7813 140.95 58.6037 140.842C57.5217 140.788 56.4557 140.541 55.4305 140.188C53.6699 139.581 52.4238 138.937 51.3257 137.432C49.654 140.682 46.2217 142.955 42.5784 143.225C38.9338 143.495 35.3066 142.165 33.1746 139.197C28.9342 141.089 23.7031 140.551 19.9376 137.833C16.1722 135.115 13.812 130.274 14.2722 125.652C10.656 122.594 9.14714 117.269 10.6227 112.769C12.1995 107.958 18.029 105.32 19.7871 100.571C21.8092 95.1068 23.1405 90.7442 26.6641 75.6788C29.0132 65.6335 34.3924 60.9279 42.8017 61.5609C50.8865 59.9607 56.5754 64.7884 59.8695 76.0452C64.8095 92.9292 67.1055 105.934 71.0819 111.277C72.407 113.057 73.2065 115.085 74.2058 117.068C75.7271 120.088 76.0972 123.725 74.9683 126.914C73.8394 130.104 71.2905 132.566 68.0198 133.427Z" fill="#392242"/>
<path d="M53.7612 97.9531C50.6854 100.704 45.7997 101.193 42.2403 99.1054C41.1842 98.4861 40.2527 97.6743 39.3792 96.8168C37.6396 95.1068 36.0925 93.176 34.9944 90.9959C34.2122 89.4451 33.6657 87.7844 33.224 86.1041C32.2481 82.388 31.7817 78.4362 32.7292 74.7127C33.6768 70.9893 36.2294 67.5273 39.848 66.2343C43.9762 64.7588 48.6534 65.2646 52.1055 67.9665C55.5575 70.6685 57.5821 74.9472 58.0485 79.306C58.2841 81.5046 58.1533 83.7254 57.9485 85.9276C57.7413 88.1644 57.455 90.4111 56.7666 92.5505C56.0794 94.6898 55.4354 96.4541 53.7612 97.9531Z" fill="#FF8775"/>
<path d="M33.4561 88.2052C34.2111 87.4637 34.6417 86.4532 34.9378 85.4379C35.4103 83.8204 35.8792 81.2246 36.3455 77.6491C41.2904 76.8792 44.682 74.3389 46.5216 70.0282C49.4937 74.1021 53.9735 76.7534 58.9826 77.337C58.2658 74.2439 57.0554 71.2323 54.9457 68.8623C52.8347 66.491 49.9946 64.7341 46.8794 64.1209C42.006 63.1635 36.7465 65.1844 33.5017 68.9437C30.2557 72.703 29.0108 78.0094 29.8979 82.8963C30.2113 84.6211 30.8602 86.4224 32.3037 87.4168" fill="#392242"/>
<path d="M44.6339 81.7279C44.6339 82.3633 44.244 82.879 43.7629 82.879C43.2817 82.879 42.8918 82.3633 42.8918 81.7279C42.8918 81.0913 43.2817 80.5756 43.7629 80.5756C44.244 80.5756 44.6339 81.0913 44.6339 81.7279Z" fill="#392242"/>
<path d="M53.7943 81.7279C53.7943 82.3633 53.4044 82.879 52.9233 82.879C52.4421 82.879 52.0522 82.3633 52.0522 81.7279C52.0522 81.0913 52.4421 80.5756 52.9233 80.5756C53.4044 80.5756 53.7943 81.0913 53.7943 81.7279Z" fill="#392242"/>
<path d="M29.0909 85.2405C29.3093 86.7753 30.2149 88.2002 31.5128 89.0503C31.9187 89.3156 32.3727 89.5315 32.8576 89.566C33.9495 89.6437 34.9365 88.7505 35.2696 87.7067C35.6027 86.6642 35.409 85.5255 35.0784 84.4817C34.6515 83.1332 33.8298 81.7168 32.4529 81.3948C30.2309 80.8742 28.8195 83.338 29.0909 85.2405Z" fill="#FF8775"/>
<g style="mix-blend-mode:multiply">
<path d="M34.1418 88.2335C33.6643 88.0879 33.2288 87.8066 32.9018 87.4303C32.8352 87.3551 32.7723 87.2712 32.755 87.1725C32.7242 86.9825 32.871 86.8159 33.0079 86.6802C33.2818 86.4076 33.557 86.1337 33.8321 85.861C33.8864 85.8067 33.9431 85.7475 33.9641 85.6735C33.9875 85.592 33.9629 85.5044 33.9382 85.423C33.6273 84.3842 33.2596 83.2639 32.3639 82.652C32.1221 82.4867 31.842 82.3645 31.5496 82.3584C31.1141 82.3497 30.707 82.6026 30.4281 82.9358C30.1493 83.2701 29.9803 83.6797 29.8224 84.0844C29.6681 85.5674 30.1061 86.7555 31.1363 87.6487C32.1665 88.542 33.1671 88.7369 34.1418 88.2335Z" fill="#FF8775"/>
</g>
<path d="M29.8225 84.0844C29.9397 83.6514 30.0927 83.2183 30.3765 82.8371C30.6615 82.4707 31.1167 82.1634 31.6472 82.1955C32.1704 82.2338 32.5911 82.536 32.9279 82.8692C33.2647 83.2146 33.5028 83.6329 33.6904 84.0548C33.8729 84.4817 34.0062 84.9184 34.1308 85.3515C34.1456 85.4058 34.1653 85.4712 34.1728 85.5563C34.1826 85.639 34.1579 85.7586 34.1074 85.8351C34.0025 85.9881 33.9248 86.0301 33.8433 86.1164L33.3523 86.5754C33.1919 86.7296 32.9994 86.8777 32.9193 87.0183C32.8798 87.0911 32.8711 87.1478 32.9032 87.2231C32.9353 87.2984 33.0118 87.386 33.0809 87.4674C33.3572 87.8017 33.7286 88.0559 34.1419 88.2336C33.6978 88.1484 33.2783 87.9239 32.9291 87.6154C32.844 87.5352 32.7589 87.4612 32.6836 87.3391C32.6034 87.2169 32.6009 87.0245 32.6626 86.8974C32.7194 86.7654 32.8057 86.6704 32.8847 86.5828L33.1142 86.336L33.5768 85.8475C33.6496 85.7697 33.752 85.6723 33.7681 85.6353C33.7804 85.6192 33.7767 85.5847 33.7385 85.4687C33.604 85.0443 33.472 84.6223 33.2943 84.2275C33.1265 83.829 32.9118 83.4564 32.6318 83.1492C32.3567 82.8432 31.9964 82.5879 31.6164 82.5311C31.2376 82.4768 30.8293 82.673 30.5344 82.9753C30.2259 83.2751 30.0285 83.6859 29.8225 84.0844Z" fill="#392242"/>
<path d="M48.3968 80.1969C48.4708 81.1863 48.5362 82.1881 48.7792 83.1209C48.8422 83.3491 48.9162 83.5774 49.0223 83.7674C49.1198 83.9426 49.2987 84.1128 49.464 84.2695C49.8131 84.5816 50.2375 84.8518 50.6089 85.2442C51.3899 86.035 51.586 87.3021 51.1308 88.2916C50.6731 89.2872 49.5837 89.8955 48.5794 89.777C49.5676 89.6327 50.3979 88.9603 50.7064 88.1151C51.0197 87.2688 50.8211 86.2608 50.2116 85.6168C49.9032 85.2824 49.4973 84.9925 49.1284 84.6187C48.9421 84.4274 48.7743 84.2313 48.6411 83.9648C48.5226 83.7106 48.4609 83.4564 48.4116 83.2035C48.245 82.1894 48.287 81.1876 48.3968 80.1969Z" fill="#392242"/>
<path d="M39.468 79.6404C39.6679 79.0013 40.0528 78.4165 40.5463 77.9366C41.0497 77.4653 41.669 77.1038 42.355 76.9126C43.0348 76.7263 43.7886 76.6559 44.4734 76.8953C45.1495 77.1248 45.7701 77.5554 46.1254 78.1611L46.0748 78.2154C45.4567 77.928 44.8793 77.7219 44.2822 77.6109C43.6937 77.5085 43.0916 77.39 42.4833 77.4912C41.88 77.5862 41.2915 77.8416 40.7844 78.2191C40.27 78.588 39.8394 79.0877 39.5359 79.6688L39.468 79.6404Z" fill="#392242"/>
<path d="M50.74 93.403C50.7659 93.7805 50.1256 94.1309 49.3113 94.1864C48.497 94.2432 47.8148 93.9828 47.7888 93.6053C47.7629 93.229 48.4033 92.8774 49.2175 92.8219C50.0318 92.7664 50.7141 93.0267 50.74 93.403Z" fill="#392242"/>
<path d="M46.0996 150.093C37.5287 150.093 31.2316 148.415 27.2083 145.057C23.407 150.758 20.7939 156.507 19.3689 162.304C17.9439 168.1 17.2481 174.297 17.2814 180.896H66.6898C69.3511 173.229 69.8261 165.909 68.1148 158.937C66.4048 151.963 64.7898 147.338 63.2686 145.057C60.394 148.415 54.6705 150.093 46.0996 150.093Z" fill="#392242"/>
<path d="M0.270508 180.896H7.96671L17.8097 149.822C14.1392 149.542 10.4096 148.766 7.4473 146.759C5.01679 158.01 2.62329 169.389 0.270508 180.896Z" fill="#FF8775"/>
<path d="M80.4871 96.8008C81.2212 95.8878 81.9109 95.0032 82.5241 94.1729C86.3167 89.0417 89.7305 84.0104 92.7655 79.0766L84.999 77.1075C80.2873 80.8544 75.937 84.5853 71.9446 88.2989C74.9315 90.4778 78.5785 93.635 80.4871 96.8008Z" fill="#FF8775"/>
<path d="M46.6363 103.142C45.6641 102.979 45.0854 102.807 44.9028 102.627L44.3007 94.6108L34.2764 87.344C34.3936 95.8878 34.195 100.729 33.6805 101.87C33.5646 102.127 33.113 102.481 32.4246 102.917L45.5962 120.89L46.6363 103.142Z" fill="#FF8775"/>
<path d="M80.4869 96.8008C78.5783 93.6349 74.9313 90.4777 71.9444 88.2989C69.4818 90.5912 57.8067 100.529 52.9124 102.446C50.3918 103.435 48.1858 103.404 46.6362 103.142L45.5962 120.89L32.4245 102.917C28.5332 105.374 17.0099 110.424 14.9508 115.268C13.828 117.909 10.5943 132.191 7.44702 146.759C10.4093 148.766 14.1389 149.542 17.8094 149.822L23.7882 130.946L27.2082 145.057C31.2315 148.415 37.5286 150.093 46.0995 150.093C54.6705 150.093 60.3939 148.415 63.2685 145.057C62.0336 136.886 61.7017 131.516 62.2717 128.951C63.1267 125.102 65.5498 123.962 65.9767 120.542C66.2629 118.261 65.9298 116.076 64.9798 113.985C71.2683 107.559 76.4365 101.831 80.4869 96.8008Z" fill="#654373"/>
<path d="M92.7654 79.0766C86.9396 77.3431 81.173 75.9367 75.4619 74.8559C69.7521 73.7764 65.1995 72.6635 61.8067 71.5173L57.1295 65.3868C56.6261 64.7279 55.8932 64.2826 55.0765 64.1394L53.6169 63.8853L52.8384 62.8711C52.2142 62.0593 51.2481 61.5831 50.2253 61.5831H49.2642L47.2655 61.0008C46.4981 60.7774 45.6765 60.8379 44.9522 61.1772C43.1472 62.0211 39.9296 63.6743 40.7352 64.3948C41.473 65.0524 42.6611 64.8834 44.3008 63.8865C43.4508 64.8476 43.3385 65.5435 43.9665 65.974C44.5945 66.4046 46.2539 66.0456 48.9447 64.8982C47.5111 65.8667 47.0805 66.5662 47.6542 66.9968C48.2279 67.4274 50.6991 67.288 55.0703 66.5774C56.3793 68.0579 57.4145 69.6519 58.1745 71.3582C58.9357 73.0657 59.5008 74.6276 59.8696 76.0452C61.7351 76.3636 71.0056 79.9994 87.6823 86.9542L92.7654 79.0766Z" fill="#FF8775"/>
<path d="M54.0267 63.8952C52.978 64.1098 51.9293 64.2135 50.9139 64.4442C49.8973 64.6663 48.9177 65.0055 47.9985 65.5509C48.3674 65.1622 48.8178 64.8464 49.3039 64.6107C49.7887 64.3689 50.3081 64.2024 50.8337 64.0827C51.8898 63.8557 52.9632 63.8199 54.0267 63.8952Z" fill="#392242"/>
<path d="M49.8465 61.5621C49.2629 61.6337 48.6979 61.7657 48.1439 61.9162C47.5924 62.0716 47.0483 62.2678 46.5388 62.5096C46.0305 62.7551 45.5592 63.0833 45.1064 63.4362C44.6586 63.7977 44.2255 64.1863 43.8184 64.6107C44.1194 64.1036 44.4969 63.6422 44.9238 63.2289C45.3532 62.8181 45.8356 62.4529 46.3772 62.1814C46.9188 61.9137 47.49 61.7336 48.0761 61.6225C48.6596 61.5127 49.2617 61.4794 49.8465 61.5621Z" fill="#392242"/>
<path d="M51.0123 161.599C49.7403 163.113 48.4016 164.559 47.0507 165.993L47.1395 165.809C47.0322 167.071 46.9186 168.334 46.7854 169.595C46.6596 170.856 46.5078 172.115 46.3548 173.373C46.1981 174.63 46.0266 175.887 45.8366 177.141C45.6479 178.396 45.4406 179.648 45.1938 180.896C45.2185 179.624 45.2851 178.356 45.369 177.09C45.4529 175.824 45.5553 174.561 45.6701 173.299C45.791 172.037 45.9119 170.775 46.06 169.516C46.1994 168.257 46.3598 166.998 46.5263 165.742L46.5411 165.626L46.6151 165.557C48.0488 164.206 49.4972 162.869 51.0123 161.599Z" fill="white"/>
<path d="M32.4246 102.917L45.5962 120.89L46.6363 103.142L48.3944 103.23L46.7461 125.832L30.7615 103.886L32.4246 102.917Z" fill="#392242"/>
<path d="M65.2574 114.889C64.7836 113.997 64.3074 113.112 63.7979 112.246C63.2859 111.384 62.7603 110.53 62.1989 109.701C61.6437 108.867 61.0528 108.056 60.4494 107.256C60.1459 106.856 59.835 106.462 59.5167 106.073L59.0417 105.485C58.8789 105.294 58.7172 105.1 58.5593 104.903C58.9381 105.237 59.2946 105.595 59.6524 105.952C60.0004 106.319 60.3384 106.696 60.6703 107.077C61.3328 107.843 61.9386 108.656 62.5061 109.495C63.0663 110.339 63.5894 111.207 64.0471 112.111C64.5073 113.011 64.9231 113.935 65.2574 114.889Z" fill="#392242"/>
<path d="M22.7246 134.215C23.0318 133.051 23.3908 131.904 23.7671 130.763C24.1397 129.62 24.5518 128.491 24.975 127.367C25.408 126.246 25.8522 125.129 26.3358 124.029L27.0712 122.383C27.3315 121.84 27.5832 121.295 27.8595 120.76C27.6609 121.328 27.4425 121.887 27.2389 122.452L26.5999 124.136L25.3204 127.498L24.0336 130.859C23.6018 131.978 23.1762 133.101 22.7246 134.215Z" fill="#392242"/>
<path d="M44.7462 100.116C41.5866 99.0191 39.3683 97.2524 38.0913 94.8157C38.5577 95.9964 39.2325 97.1129 40.1147 98.1629C41.1683 99.4139 43.2386 100.719 44.8054 101.184L44.7462 100.116Z" fill="#392242"/>
<path d="M35.2634 89.3834C35.2634 90.178 34.6193 90.8208 33.8248 90.8208C33.0303 90.8208 32.3862 90.178 32.3862 89.3834C32.3862 88.5889 33.0303 87.9449 33.8248 87.9449C34.6193 87.9449 35.2634 88.5889 35.2634 89.3834Z" fill="white"/>
<path d="M56.0843 77.8527C55.5489 77.9612 55.011 78.0501 54.4755 78.1512L52.8654 78.4214C52.33 78.5103 51.8032 78.6657 51.2603 78.6768C50.7162 78.6929 50.1734 78.6855 49.6058 78.567L49.5935 78.4942C50.1006 78.208 50.6348 78.0575 51.1703 77.9415C51.7057 77.8218 52.2597 77.8576 52.805 77.8329L54.4397 77.7823C54.9863 77.7799 55.5316 77.77 56.0782 77.7786L56.0843 77.8527Z" fill="#392242"/>
<path d="M75.626 82.0031C76.481 82.2683 77.3212 82.5718 78.1601 82.8803C79.0028 83.1813 79.8232 83.5342 80.6585 83.8216C81.495 84.1177 82.3438 84.3818 83.1926 84.6544L85.749 85.4539C85.3048 85.3959 84.8656 85.3058 84.4252 85.2257C83.9884 85.1319 83.5517 85.032 83.1161 84.9283C82.2451 84.7198 81.3852 84.4632 80.5363 84.1708C79.685 83.8673 78.8683 83.5046 78.0528 83.1431C77.2373 82.7791 76.4242 82.4102 75.626 82.0031Z" fill="#392242"/>
</svg>
