<svg width="189" height="302" viewBox="0 0 189 302" fill="none" xmlns="http://www.w3.org/2000/svg">
<path d="M14.5357 42.624C13.6923 45.4935 10.4339 45.6194 8.02911 43.5949C7.51089 43.1575 6.96558 42.7532 6.48461 42.2728C3.63271 39.4099 1.80709 35.596 0.811296 31.7324C-0.126919 28.0941 -0.411436 23.9157 0.828227 20.3106C0.889194 20.135 0.970487 19.9593 1.06532 19.797C1.18048 19.6048 1.27871 19.565 1.50564 19.6247C7.06041 21.0628 14.4544 31.5468 14.7694 39.0023C14.7863 39.3767 15.0065 41.0236 14.5357 42.624Z" fill="#F7CDDC"/>
<g style="mix-blend-mode:multiply" opacity="0.251">
<path d="M14.8371 40.1325C14.81 40.9741 14.7761 41.8157 14.5323 42.6276C13.7431 45.3016 10.671 45.7986 7.98508 43.552C7.41606 43.0749 7.39913 43.0749 7.44655 42.3393C7.50413 41.3817 7.88347 40.54 8.51007 39.811C10.4339 37.5777 11.8633 37.0244 9.77683 32.7598C8.16798 29.4695 6.42704 26.7921 7.12139 23.8663C7.15187 23.7404 7.22639 23.568 7.33477 23.6443C7.87331 24.0253 9.60749 26.2222 10.5288 27.6536C13.4687 32.223 14.6982 36.809 14.7626 38.9031C14.7727 39.314 14.8947 39.7183 14.8371 40.1325Z" fill="#F7CDDC"/>
</g>
<path d="M2.73511 22.8357C3.33123 23.4851 3.97138 24.1247 4.44218 24.8934C4.91975 25.6555 5.28218 26.4773 5.60395 27.309C6.23395 28.9856 6.56587 30.7286 6.97571 32.4284C7.35845 34.1382 7.80553 35.8082 8.59471 37.359C8.98083 38.1376 9.4347 38.8865 9.90889 39.6287C10.3458 40.3909 10.9386 41.0734 11.2705 41.9051C10.8132 41.1497 10.1799 40.5201 9.64471 39.8077C9.10956 39.0953 8.5981 38.363 8.14762 37.5876C7.21956 36.0402 6.72845 34.2774 6.33555 32.5709C5.93588 30.8478 5.62426 29.1281 5.12298 27.4647C4.86895 26.6363 4.56751 25.8179 4.16107 25.0491C3.97139 24.6581 3.74784 24.2837 3.50059 23.9192C3.25333 23.558 2.96204 23.2201 2.73511 22.8357Z" fill="#F18BAB"/>
<path d="M186.009 188.665C184.241 190.716 181.182 189.613 179.651 187.055C179.319 186.505 178.957 185.971 178.679 185.398C177.019 181.985 176.643 178.175 177.047 174.629C177.426 171.312 178.625 167.72 180.986 165.239C181.104 165.116 181.24 165.003 181.385 164.904C181.555 164.788 181.66 164.795 181.853 164.927C186.496 168.164 189.738 179.523 187.472 185.773C187.357 186.087 186.991 187.522 186.009 188.665Z" fill="#F7CDDC"/>
<g style="mix-blend-mode:multiply" opacity="0.251">
<path d="M187.143 186.73C186.828 187.41 186.507 188.089 186.005 188.669C184.352 190.574 181.338 189.848 179.624 187.009C179.262 186.402 179.248 186.396 179.543 185.809C179.926 185.04 180.566 184.49 181.396 184.123C183.943 182.999 185.46 183.072 184.993 178.791C184.637 175.491 183.943 172.641 185.592 170.491C185.663 170.398 185.792 170.285 185.866 170.388C186.232 170.905 187.086 173.35 187.445 174.868C188.593 179.716 188.156 183.944 187.496 185.69C187.367 186.031 187.34 186.409 187.143 186.73Z" fill="#F7CDDC"/>
</g>
<path d="M181.887 168.022C182.202 168.751 182.578 169.483 182.75 170.282C182.933 171.077 182.998 171.892 183.008 172.701C183.021 174.331 182.723 175.921 182.517 177.492C182.276 179.069 182.127 180.62 182.33 182.181C182.422 182.959 182.584 183.738 182.767 184.51C182.906 185.292 183.211 186.054 183.231 186.866C183.065 186.084 182.706 185.365 182.459 184.596C182.208 183.831 181.988 183.052 181.833 182.254C181.667 181.458 181.619 180.633 181.633 179.818C181.656 179.003 181.758 178.198 181.863 177.406C182.09 175.815 182.398 174.255 182.503 172.687C182.554 171.902 182.547 171.114 182.435 170.338C182.391 169.947 182.317 169.559 182.209 169.178C182.107 168.797 181.961 168.416 181.887 168.022Z" fill="#F18BAB"/>
<path d="M108.831 290.063C111.135 291.316 110.664 294.523 108.503 296.578C108.039 297.018 107.595 297.492 107.097 297.89C101.193 302.618 92.1534 303.115 87.3133 300.16C87.1745 300.074 87.039 299.964 86.917 299.848C86.7714 299.709 86.7579 299.606 86.8493 299.391C89.0678 294.172 99.3475 288.496 105.776 289.295C106.101 289.334 107.548 289.364 108.831 290.063Z" fill="#F7CDDC"/>
<g style="mix-blend-mode:multiply" opacity="0.251">
<path d="M106.758 289.397C107.47 289.55 108.184 289.709 108.835 290.067C110.979 291.24 110.86 294.318 108.462 296.611C107.951 297.101 107.947 297.115 107.327 296.962C106.518 296.76 105.868 296.266 105.356 295.541C103.788 293.327 103.568 291.846 99.5508 293.251C96.4516 294.338 93.8504 295.643 91.4727 294.527C91.3711 294.48 91.2389 294.381 91.3236 294.285C91.747 293.814 93.9317 292.443 95.317 291.757C99.7506 289.56 103.89 289.04 105.692 289.288C106.044 289.338 106.413 289.278 106.758 289.397Z" fill="#F7CDDC"/>
</g>
<path d="M89.813 298.669C90.4396 298.205 91.0526 297.688 91.7808 297.34C92.5023 296.985 93.2746 296.734 94.0536 296.545C95.6218 296.164 97.2239 296.094 98.7853 295.942C100.357 295.822 101.884 295.614 103.334 295.064C104.062 294.798 104.774 294.467 105.475 294.119C106.193 293.814 106.857 293.354 107.636 293.152C106.921 293.486 106.315 293.987 105.634 294.394C104.957 294.802 104.262 295.189 103.531 295.521C102.802 295.859 102.017 296.094 101.227 296.263C100.435 296.425 99.6354 296.508 98.8462 296.584C97.2611 296.724 95.6895 296.773 94.1586 297.028C93.3897 297.154 92.6344 297.343 91.9129 297.625C91.5471 297.757 91.1915 297.916 90.8494 298.102C90.5073 298.284 90.1754 298.51 89.813 298.669Z" fill="#F18BAB"/>
<path d="M68.4101 232.245C68.5185 232.51 68.61 232.775 68.6777 233.043C68.7184 233.169 68.7455 233.292 68.7726 233.418C68.7726 233.424 68.776 233.434 68.776 233.444C68.8098 233.64 68.776 233.822 68.6371 233.974C68.6371 233.978 68.6337 233.984 68.6303 233.984C68.3594 234.276 68.0681 234.538 67.7599 234.78C67.7531 234.783 67.7463 234.786 67.7395 234.793C67.096 235.3 66.3915 235.717 65.6938 236.122C65.2365 236.387 64.786 236.645 64.3592 236.92C64.3525 236.93 64.3423 236.933 64.3288 236.94C64.2949 236.96 64.261 236.986 64.2238 237.006C63.9325 237.195 63.167 237.636 62.1983 238.173C62.1238 238.216 62.0459 238.259 61.9714 238.299C60.2473 239.256 57.9916 240.482 56.6537 241.205C56.5995 241.231 56.5487 241.261 56.4979 241.284L55.5563 241.798C54.8518 242.179 54.8552 242.126 54.696 242.182C54.6926 242.182 54.6926 242.182 54.6892 242.182C54.6655 242.189 54.6384 242.199 54.6079 242.215C54.5943 242.222 54.5808 242.225 54.5706 242.229C54.4995 242.262 54.4013 242.308 54.2625 242.384C53.8526 242.603 53.4834 242.798 53.1481 242.977C52.2438 243.461 51.6002 243.809 51.1294 244.061C51.0515 244.104 50.977 244.144 50.9025 244.18C49.9609 244.687 49.8694 244.727 49.6764 244.77C49.673 244.77 49.6696 244.773 49.6662 244.773C49.6628 244.773 49.6561 244.777 49.6459 244.78C49.6391 244.78 49.6289 244.783 49.6154 244.79C49.6052 244.793 49.5951 244.8 49.5883 244.8C49.2564 244.939 47.8948 245.694 46.7499 246.291C46.1572 246.599 45.6255 246.867 45.3206 246.987C45.2664 247.01 45.219 247.027 45.1783 247.036C45.1783 247.04 45.175 247.04 45.1716 247.04C44.9954 247.093 44.8396 247.209 44.6771 247.295C44.0606 247.626 43.4848 247.938 42.9531 248.223L42.8311 248.289C41.3103 249.111 40.1384 249.744 39.2307 250.227C38.4957 250.622 37.9334 250.92 37.4999 251.139C36.9241 251.434 36.5752 251.586 36.3483 251.656L36.3415 251.659C36.2331 251.689 36.1552 251.699 36.0909 251.695H36.0841C35.9689 251.689 35.9046 251.632 35.8199 251.559C35.803 251.546 35.786 251.53 35.7691 251.516C35.6573 251.42 35.5557 251.318 35.4575 251.212C35.3389 251.079 35.2339 250.933 35.1391 250.777C30.1771 242.513 40.4737 241.118 37.2662 236.771C36.8326 236.178 36.3991 235.585 35.9757 234.982C32.6903 230.32 36.4025 226.025 38.0825 222.195C39.8979 218.06 39.4068 215.485 39.6744 214.554C39.9657 213.553 41.8658 217.357 45.7846 219.945C49.1209 222.148 51.2852 221.154 53.4123 221.824C54.4928 222.162 55.5597 222.927 56.7654 224.75C57.9746 226.579 59.1025 226.098 61.0027 226.363C64.0679 226.784 67.2281 229.332 68.4101 232.245Z" fill="#F7CDDC"/>
<path d="M50.3911 244.455C48.8499 245.277 51.7222 243.667 46.7974 246.261C44.5247 247.461 46.4655 246.337 43.4882 247.941C42.3265 248.564 42.2215 248.72 42.042 248.263C39.9488 242.895 44.7651 240.293 42.1232 237.079C41.1647 235.91 40.0944 235.373 39.102 234.193C36.6972 231.34 36.8191 224.723 37.3407 223.736C38.6515 221.251 38.5668 220.545 38.7938 220.631C38.9089 220.677 38.8412 221.068 38.9767 222.182C40.5652 235.154 44.9209 230.731 49.5714 237.162C50.4181 238.335 50.767 239.641 51.0007 241.006C51.1464 241.857 51.0651 242.706 51.0007 243.557C50.9669 244.011 50.7907 244.336 50.3911 244.455Z" fill="#F18BAB"/>
<path d="M59.0348 239.909C55.8442 241.639 55.5597 241.914 55.9356 241.172C57.1042 238.869 56.5656 236.248 55.1159 234.071C52.5486 230.21 47.5832 231.695 45.2766 226.274C44.3587 224.117 44.2401 220.84 44.6533 219.402C44.7685 218.997 45.1411 219.69 46.7195 220.495C46.9058 220.591 46.9938 220.71 47.0209 220.916C47.302 222.921 48.3622 225.253 50.1573 226.294C52.1049 227.42 54.0897 227.642 56.4979 229.087C59.3701 230.813 61.9511 234.2 62.3473 237.51C62.3948 237.921 62.2762 238.186 61.8732 238.388C60.9146 238.869 59.9798 239.402 59.0348 239.909Z" fill="#F18BAB"/>
<g style="mix-blend-mode:multiply" opacity="0.251">
<path d="M68.4102 232.245C68.4948 232.526 68.5897 232.795 68.6777 233.043C68.6879 233.063 68.6947 233.08 68.7014 233.096C68.7455 233.219 68.7726 233.332 68.776 233.444C68.7895 233.633 68.7387 233.812 68.6371 233.974C68.5795 234.074 68.505 234.163 68.4135 234.253C68.2679 234.395 68.0444 234.571 67.7599 234.78C67.7531 234.783 67.7463 234.786 67.7395 234.793C67.2281 235.157 66.5202 235.615 65.6938 236.122C65.2772 236.377 64.83 236.645 64.3592 236.92C64.3525 236.93 64.3423 236.933 64.3288 236.94C63.648 237.341 62.9299 237.759 62.1983 238.173C62.1238 238.216 62.0459 238.259 61.9714 238.299C60.0475 239.392 58.083 240.459 56.6537 241.205C56.5995 241.231 56.5487 241.261 56.4979 241.284C55.6376 241.735 54.9906 242.056 54.696 242.182C54.6926 242.182 54.6926 242.182 54.6892 242.182C54.6655 242.189 54.6384 242.199 54.6079 242.215C54.5944 242.222 54.5808 242.225 54.5706 242.229C54.5673 242.229 54.5639 242.229 54.5605 242.232C54.4893 242.248 53.9 242.57 53.1481 242.977C52.5215 243.322 51.7797 243.723 51.1294 244.061C51.0515 244.104 50.977 244.144 50.9025 244.18C50.3707 244.455 49.9236 244.677 49.6764 244.77C49.673 244.77 49.6696 244.773 49.6662 244.773C49.6459 244.78 49.6289 244.787 49.6154 244.79C49.6052 244.793 49.5951 244.8 49.5883 244.8C49.5748 244.803 49.5646 244.806 49.5544 244.81C49.4528 244.836 49.7102 244.714 46.7499 246.291C46.6314 246.354 46.5061 246.42 46.3774 246.49C45.5442 246.934 45.4426 246.954 45.3206 246.987C45.2834 246.997 45.2461 247.01 45.1783 247.036C45.1783 247.04 45.175 247.04 45.1716 247.04C45.0971 247.076 44.9887 247.129 44.8126 247.222C44.1927 247.557 43.5695 247.891 42.9531 248.223L42.8311 248.289C41.6287 248.932 40.4297 249.578 39.2307 250.227C38.8005 250.459 38.3704 250.698 37.9402 250.93C37.7946 251.009 37.6489 251.079 37.4999 251.139C37.1172 251.304 36.7242 251.437 36.3652 251.646L36.3415 251.659C36.2602 251.699 36.1688 251.719 36.0909 251.695H36.0841C36.057 251.692 36.0333 251.679 36.0062 251.665C35.9249 251.619 35.8436 251.569 35.7691 251.516C35.6472 251.427 35.5422 251.331 35.4575 251.212C35.366 251.079 35.3085 250.927 35.2949 250.741C35.0781 247.812 37.2052 245.996 40.1012 245.028C41.4661 244.571 43.5627 244.399 44.7956 241.655C45.4121 240.29 45.385 238.951 47.214 237.507C50.1438 235.201 53.4529 235.674 55.4005 234.965C56.3319 234.627 57.0534 233.646 56.8976 232.748C56.7959 232.142 56.5893 231.595 56.2201 231.078C55.5969 230.214 54.9026 229.408 54.1642 228.643C52.5791 227.003 52.22 224.448 52.64 222.304C52.7078 221.963 52.745 221.698 53.0668 221.757C53.182 221.781 53.2971 221.804 53.4123 221.824C54.4928 222.162 55.5597 222.927 56.7655 224.75C57.9746 226.579 59.1025 226.098 61.0027 226.363C64.0679 226.784 67.2281 229.332 68.4102 232.245Z" fill="#F18BAB"/>
</g>
<path d="M75.0793 234.1C75.6957 235.207 75.6855 236.649 75.5839 237.918C75.4925 239.412 75.3706 240.015 75.9701 242.05C77.0946 245.883 80.1294 249.588 81.6061 252.308C83.3572 255.529 83.9432 259.886 82.2124 263.031C81.6027 264.138 84.8848 266.451 84.8001 270.573C84.7967 270.662 84.7934 270.752 84.7832 270.841C84.7866 270.844 84.7866 270.848 84.7832 270.854C84.5122 273.648 81.1489 276.113 79.1099 277.66C75.8346 280.145 72.0004 282.269 67.9901 283.366C65.9647 283.923 62.4422 284.904 60.4743 283.751C59.9357 283.436 59.4243 283.048 58.9569 282.601C58.8858 282.535 58.818 282.465 58.7469 282.395C58.1135 281.746 57.5716 280.98 57.1651 280.122C56.2913 278.734 56.1287 277.866 55.4039 277.624C55.1837 277.577 54.2624 277.584 52.8128 277.034C51.7966 276.676 50.9092 276.179 50.1268 275.576C44.8159 271.756 44.8972 266.146 40.4466 261.291C39.0003 259.717 38.411 259.499 37.0697 258.78C35.9181 258.19 34.6615 257.434 34.0315 256.338C31.7453 252.643 38.8479 247.802 42.7633 245.698L42.7871 245.685C45.7914 243.918 48.9075 242.311 51.9897 240.684C55.0347 238.991 58.0796 237.262 61.2025 235.708L61.2296 235.694C64.8029 233.739 71.9293 230.731 74.5407 233.362C74.7507 233.57 74.9302 233.815 75.0793 234.1Z" fill="#C8B2D8"/>
<g style="mix-blend-mode:multiply" opacity="0.349">
<path d="M75.0793 234.1C75.6957 235.207 75.6855 236.649 75.5839 237.918C75.4925 239.412 75.3706 240.015 75.9701 242.05C77.0946 245.883 80.1294 249.588 81.6061 252.308C83.3572 255.529 83.9432 259.886 82.2124 263.031C81.6027 264.138 84.8848 266.451 84.8001 270.573C84.7967 270.662 84.7933 270.752 84.7832 270.841C84.7866 270.844 84.7866 270.848 84.7832 270.854C84.5122 273.648 81.1489 276.113 79.1099 277.66C75.8346 280.146 72.0004 282.27 67.9901 283.366C65.9647 283.923 62.4422 284.904 60.4743 283.751C59.9357 283.436 59.4243 283.048 58.9569 282.601C58.8858 282.535 58.818 282.465 58.7469 282.395C59.1025 282.289 67.7192 281.786 73.9074 276.766C80.7018 271.245 76.5831 268.691 78.4325 263.107C78.7373 262.189 78.9947 261.258 79.3097 260.344C79.7669 258.995 79.6653 257.68 79.2013 256.381C78.9303 255.632 78.5781 254.916 78.0598 254.058C77.1724 252.408 70.4898 243.644 74.3307 233.796C74.3748 233.683 74.4527 233.507 74.5407 233.362C74.7507 233.57 74.9302 233.816 75.0793 234.1Z" fill="#C8B2D8"/>
</g>
<path d="M72.5661 238.763C71.0792 239.303 69.6329 239.919 68.2103 240.595C66.781 241.254 65.3754 241.957 63.9799 242.686C61.189 244.134 58.4319 245.645 55.6714 247.166C52.8805 248.634 50.1065 250.118 47.3698 251.662C46.0014 252.431 44.6466 253.23 43.3222 254.068C41.9844 254.893 40.6905 255.778 39.4271 256.715C41.7777 254.628 44.423 252.882 47.1089 251.238C49.805 249.598 52.5926 248.114 55.3531 246.603C58.1338 245.135 60.8977 243.607 63.7529 242.245C66.6015 240.897 69.5076 239.594 72.5661 238.763Z" fill="#AA84B9"/>
<path d="M57.5546 277.462C59.824 277.13 62.0526 276.63 64.2068 275.921C66.361 275.212 68.4576 274.337 70.4288 273.237C72.4238 272.183 74.2968 270.911 76.0513 269.499C77.8092 268.091 79.4248 266.507 80.9151 264.801C80.5866 265.261 80.2513 265.715 79.9092 266.169L78.8186 267.475L77.6331 268.707L76.3833 269.877C74.666 271.388 72.7557 272.683 70.7472 273.8C68.7116 274.874 66.5777 275.772 64.3558 276.391C62.1373 277.014 59.8511 277.395 57.5546 277.462Z" fill="#AA84B9"/>
<path d="M44.8362 255.456C45.8117 255.967 46.6585 256.692 47.407 257.494C48.142 258.313 48.7618 259.22 49.3275 260.155C50.452 262.027 51.2717 264.032 52.3521 265.877C53.3818 267.753 54.5943 269.532 56.0034 271.149C56.7045 271.958 57.47 272.717 58.3134 273.386C59.1432 274.075 60.0679 274.652 61.0772 275.086C60.0171 274.788 59.0314 274.254 58.1169 273.638C57.2159 273.005 56.3929 272.266 55.6274 271.477C54.0998 269.893 52.8669 268.071 51.7729 266.189C50.7229 264.274 49.8965 262.279 48.8838 260.393C47.8812 258.515 46.6382 256.715 44.8362 255.456Z" fill="#AA84B9"/>
<path d="M68.6032 242.583C68.803 243.637 68.9961 244.687 69.3788 245.678C69.7378 246.675 70.2222 247.626 70.7608 248.544C71.8582 250.363 73.0741 252.169 74.1275 254.051C75.1504 255.953 76.0818 257.938 76.6102 260.042C76.888 261.093 77.037 262.17 77.1217 263.243C77.186 264.323 77.1284 265.4 76.993 266.464C77.0099 264.323 76.7525 262.196 76.1225 260.175C75.506 258.147 74.6051 256.215 73.5483 254.36C73.0402 253.419 72.5017 252.494 71.9462 251.573C71.4077 250.652 70.8048 249.75 70.317 248.776C69.8225 247.815 69.3755 246.818 69.074 245.774C68.7827 244.724 68.654 243.65 68.6032 242.583Z" fill="#AA84B9"/>
<path d="M67.3805 265.4C66.7234 266.58 66.6116 266.61 65.2737 266.56C64.5658 266.534 63.8783 266.378 63.1873 266.242C51.1362 263.886 53.1684 254.77 59.824 256.46C60.2575 256.57 60.6572 256.818 61.1314 256.782C61.5852 256.006 61.2668 255.334 62.4117 253.776C63.3736 252.461 65.0604 251.749 66.9097 252.719C70.6896 254.701 69.4398 261.722 67.3805 265.4Z" fill="white"/>
<g style="mix-blend-mode:multiply" opacity="0.502">
<path d="M55.0685 261.626C54.6011 260.924 54.425 260.148 54.5097 259.31C54.5469 258.942 54.6655 258.598 54.784 258.25C54.8585 258.034 54.9839 257.965 55.2176 257.991C58.3946 258.356 59.1195 261.583 61.3989 262.309C63.7699 263.061 64.366 259.214 67.5499 259.058C68.0748 259.032 68.5253 259.197 68.9588 259.449C69.1655 259.568 69.2468 259.744 69.2027 259.963C68.925 261.424 67.6007 266.48 66.2323 266.537C65.3584 266.573 65.2974 266.649 63.2144 266.252C60.0204 265.636 57.978 264.595 56.2845 263.157C55.7832 262.726 55.3632 262.226 55.0685 261.626Z" fill="#D1DBFF"/>
</g>
<path d="M63.902 253.906C64.2644 253.73 64.6877 253.67 65.1044 253.727C65.5244 253.776 65.9308 253.959 66.2661 254.217C66.9334 254.75 67.2857 255.576 67.2145 256.361C66.7776 255.705 66.3847 255.132 65.8529 254.717C65.3313 254.29 64.6945 254.071 63.902 253.906Z" fill="#C8B2D8"/>
<path d="M49.3749 138.747C50.6857 140.914 53.9949 141.58 55.4682 146.305C56.1287 148.419 56.4064 149.406 57.4632 150.563C58.6284 151.842 60.2677 151.762 61.0501 151.994C62.9096 152.551 62.6353 154.294 65.7344 154.552C67.7057 154.718 69.2502 153.836 70.5203 152.372C70.8319 152.011 71.2011 151.809 71.6888 151.855C72.0445 151.888 72.4069 151.898 72.7558 151.964C73.9345 152.183 74.9133 151.802 75.7736 151.037C77.6297 149.373 77.501 148.744 79.496 148.015C84.1668 146.305 88.404 146.709 89.393 146.5C90.1314 146.341 90.6259 145.891 90.9409 145.251C91.4557 144.204 90.443 142.444 88.1737 142.282C85.315 142.08 82.2802 143.879 79.0896 144.184C75.1436 144.562 74.8727 144.098 73.5958 142.441C73.0403 141.719 72.18 141.056 71.279 140.857C68.1358 140.155 67.7599 142.686 65.6497 140.513C65.1755 140.026 64.576 139.734 63.9765 139.436C63.7902 139.343 63.587 139.353 63.3906 139.313C61.8799 138.985 60.2677 139.187 58.2998 140.436C56.6503 141.484 54.9331 139.979 53.6053 138.548C52.2234 137.053 51.3293 135.986 50.2725 135.95C49.6391 135.927 48.6806 137.6 49.3749 138.747Z" fill="#BA457C"/>
<g style="mix-blend-mode:multiply" opacity="0.251">
<path d="M76.6136 147.451C75.2926 146.898 74.0902 147.206 72.898 147.647C71.7227 148.084 71.157 148.816 69.5651 149.32C66.8758 150.172 65.7615 145.834 62.5167 146.166C60.8468 146.338 60.5725 146.719 59.2583 147.133C56.6537 147.955 55.5833 146.616 55.8069 147.385C56.4775 149.665 57.497 151.351 59.8747 151.775C60.8062 151.944 61.3413 151.881 62.2931 152.76C63.167 153.561 63.6784 154.383 65.7411 154.552C67.2754 154.681 68.5964 154.161 69.7345 153.174C70.9199 152.15 70.6219 151.57 72.8268 151.968C75.4586 152.441 76.7863 149.698 78.0632 148.73C78.2766 148.568 78.2699 148.435 78.0565 148.253C77.6128 147.879 77.1352 147.554 76.6136 147.451Z" fill="#802C5A"/>
</g>
<path d="M61.8732 141.55C61.6496 142.312 61.5649 143.074 61.7173 143.79C61.7986 144.144 61.9172 144.489 62.0866 144.814C62.2525 145.115 62.4828 145.523 62.598 145.92C62.7166 146.331 62.7673 146.772 62.7098 147.203C62.642 147.633 62.4794 148.048 62.2356 148.396C62.0086 148.747 61.6767 149.042 61.399 149.287C61.1178 149.545 60.8807 149.847 60.7148 150.208C60.7385 149.81 60.918 149.423 61.1517 149.085C61.4058 148.75 61.6259 148.475 61.7919 148.14C62.1306 147.494 62.1882 146.782 61.968 146.103C61.8698 145.745 61.7106 145.466 61.5243 145.069C61.3617 144.684 61.2398 144.277 61.2093 143.856C61.1348 143.018 61.4024 142.189 61.8732 141.55Z" fill="#802C5A"/>
<path d="M70.1612 151.268C69.5753 150.778 69.179 150.019 69.1214 149.214C69.0706 148.816 69.179 148.396 69.1485 148.101C69.135 147.776 69.0435 147.458 68.8945 147.146C68.759 146.828 68.5659 146.533 68.3627 146.212C68.1561 145.864 67.9868 145.483 67.9258 145.082C67.8513 144.681 67.875 144.273 67.9597 143.896C68.0071 143.704 68.0681 143.518 68.1426 143.342C68.1798 143.253 68.2171 143.167 68.2645 143.081C68.2916 143.038 68.2984 143.001 68.3424 142.948C68.3966 142.908 68.461 142.931 68.4881 142.968C68.4508 142.941 68.3898 142.955 68.3796 142.981C68.3695 143.008 68.3627 143.071 68.356 143.11L68.3187 143.385C68.2984 143.571 68.278 143.753 68.2814 143.932C68.2746 144.29 68.3255 144.641 68.4237 144.969C68.5321 145.294 68.6811 145.602 68.8877 145.881C69.1011 146.185 69.3247 146.517 69.4974 146.885C69.66 147.252 69.7785 147.667 69.7717 148.091C69.7717 148.289 69.7277 148.535 69.6972 148.687C69.6701 148.859 69.643 149.032 69.6362 149.204C69.5956 149.9 69.7887 150.602 70.1612 151.268Z" fill="#802C5A"/>
<path d="M152.612 173.917C150.208 174.818 147.193 173.33 143.037 176.137C141.181 177.392 140.334 177.999 138.773 178.264C137.045 178.556 135.813 177.499 135.054 177.207C133.242 176.511 132.348 178.045 129.756 176.365C128.107 175.295 127.457 173.665 127.392 171.746C127.375 171.276 127.216 170.891 126.803 170.63C126.502 170.441 126.214 170.229 125.899 170.066C124.835 169.523 124.31 168.628 124.124 167.508C123.721 165.076 124.222 164.662 123.125 162.879C120.55 158.701 116.97 156.441 116.33 155.675C115.849 155.106 115.748 154.449 115.907 153.757C116.171 152.624 118.081 151.862 119.961 153.111C122.332 154.691 123.568 157.945 125.875 160.122C128.727 162.816 129.231 162.617 131.284 162.094C132.178 161.865 133.272 161.872 134.105 162.259C134.901 162.634 135.511 163.171 135.999 163.883C136.317 164.354 136.534 164.94 137.052 165.242C137.797 165.672 138.712 165.344 139.518 165.397C142.085 165.563 143.776 167.584 144.548 169.821C145.174 171.64 147.474 171.504 149.425 171.19C151.457 170.861 152.836 170.57 153.686 171.18C154.197 171.547 153.886 173.443 152.612 173.917Z" fill="#BA457C"/>
<g style="mix-blend-mode:multiply" opacity="0.251">
<path d="M125.739 164.188C127.125 164.556 127.873 165.53 128.527 166.6C129.171 167.657 129.15 168.572 130.078 169.934C131.643 172.236 135.271 169.516 137.604 171.746C138.803 172.893 138.776 173.36 139.542 174.483C141.062 176.71 142.753 176.312 142.089 176.779C140.114 178.161 138.244 178.86 136.111 177.75C135.277 177.313 134.895 176.942 133.591 177.048C132.398 177.147 131.477 177.482 129.753 176.362C128.466 175.527 127.762 174.317 127.494 172.853C127.22 171.329 127.819 171.057 125.841 170.03C123.477 168.8 124.178 165.845 123.792 164.31C123.728 164.052 123.816 163.953 124.1 163.939C124.686 163.916 125.265 163.953 125.739 164.188Z" fill="#802C5A"/>
</g>
<path d="M141.035 168.519C141.002 169.308 140.683 170.119 140.094 170.732C139.806 171.041 139.45 171.286 139.078 171.491C138.678 171.687 138.377 171.809 138.075 172.031C137.469 172.429 137.062 173.022 136.917 173.735C136.835 174.099 136.832 174.447 136.822 174.864C136.788 175.269 136.683 175.683 136.449 176.011C136.548 175.627 136.554 175.246 136.497 174.874C136.436 174.513 136.361 174.076 136.409 173.665C136.439 173.244 136.575 172.823 136.795 172.442C137.022 172.068 137.344 171.753 137.696 171.505C138.038 171.263 138.478 171.084 138.8 170.948C139.139 170.799 139.45 170.6 139.738 170.371C140.314 169.901 140.731 169.255 141.035 168.519Z" fill="#802C5A"/>
<path d="M128.371 171.1C129.086 170.805 129.685 170.371 130.095 169.801C130.2 169.662 130.288 169.509 130.376 169.36C130.447 169.221 130.569 169.003 130.695 168.847C130.959 168.509 131.315 168.257 131.677 168.068C132.046 167.886 132.432 167.76 132.791 167.654C133.13 167.561 133.442 167.409 133.733 167.217C134.021 167.021 134.282 166.779 134.502 166.491C134.62 166.352 134.719 166.199 134.82 166.044L134.966 165.802C134.986 165.765 135.02 165.712 135.03 165.689C135.04 165.659 135 165.613 134.952 165.613C135 165.6 135.064 165.619 135.081 165.686C135.081 165.755 135.067 165.785 135.057 165.838C135.04 165.931 135.013 166.024 134.99 166.116C134.932 166.299 134.864 166.481 134.78 166.657C134.607 167.008 134.363 167.342 134.055 167.611C133.75 167.889 133.377 168.085 132.991 168.23C132.629 168.356 132.29 168.476 131.982 168.638C131.667 168.79 131.392 168.986 131.176 169.231C130.969 169.447 130.786 169.841 130.492 170.123C129.936 170.719 129.143 171.07 128.371 171.1Z" fill="#802C5A"/>
<path d="M158.492 179.937C158.116 180.799 157.497 181.488 156.907 181.79C156.894 181.796 156.883 181.803 156.873 181.806C156.653 181.912 156.436 181.965 156.24 181.952C155.837 181.919 155.512 181.614 155.39 180.925C155.38 180.892 155.376 180.855 155.369 180.819C155.366 180.792 155.363 180.762 155.359 180.736C155.356 180.696 155.349 180.653 155.346 180.613C155.336 180.501 155.325 180.405 155.312 180.328C155.309 180.312 155.308 180.302 155.305 180.285C155.285 180.159 155.251 180.096 155.18 180.123C155.163 180.13 155.139 180.143 155.115 180.163C154.855 180.371 154.638 180.57 154.404 180.709C154.377 180.726 154.35 180.743 154.323 180.756C154.201 180.822 154.069 180.868 153.923 180.888C153.896 180.895 153.866 180.895 153.835 180.895C153.805 180.902 153.774 180.902 153.744 180.898C153.727 180.902 153.713 180.902 153.7 180.898C153.669 180.898 153.639 180.895 153.601 180.892C153.578 180.892 153.554 180.888 153.527 180.885C153.507 180.882 153.486 180.878 153.466 180.872C153.236 180.829 153.06 180.719 152.941 180.54C152.921 180.507 152.897 180.474 152.883 180.431C152.86 180.391 152.839 180.345 152.826 180.298C152.755 180.08 152.7 179.861 152.717 179.629C152.724 179.54 152.734 179.46 152.741 179.387C152.792 178.85 152.826 178.632 152.748 178.625C152.731 178.619 152.704 178.635 152.667 178.658C152.582 178.708 152.463 178.814 152.28 178.953C152.243 178.983 152.199 179.019 152.155 179.053C152.114 179.082 152.074 179.112 152.033 179.139C151.942 179.198 151.847 179.248 151.755 179.285C151.725 179.298 151.698 179.308 151.671 179.318C151.644 179.328 151.617 179.338 151.59 179.344C151.556 179.357 151.522 179.364 151.488 179.371C151.44 179.381 151.393 179.387 151.346 179.394C151.339 179.397 151.335 179.397 151.332 179.397C151.285 179.401 151.234 179.401 151.186 179.401C151.183 179.401 151.183 179.404 151.18 179.404C151.129 179.401 151.081 179.394 151.034 179.387C150.98 179.377 150.932 179.367 150.885 179.348C150.817 179.324 150.753 179.295 150.692 179.255C150.631 179.212 150.573 179.165 150.519 179.102C150.523 179.099 150.519 179.099 150.516 179.099C150.495 179.069 150.472 179.039 150.451 179.006C150.428 178.973 150.407 178.933 150.39 178.897C150.37 178.857 150.353 178.817 150.34 178.771C150.326 178.744 150.319 178.718 150.313 178.688C150.306 178.668 150.302 178.652 150.299 178.632C150.289 178.595 150.285 178.559 150.275 178.519C150.272 178.486 150.265 178.453 150.258 178.42C150.255 178.387 150.252 178.353 150.248 178.324C150.245 178.291 150.245 178.264 150.241 178.234C150.241 178.175 150.241 178.122 150.245 178.072C150.255 177.919 150.289 177.784 150.33 177.648C150.33 177.641 150.33 177.638 150.333 177.634C150.36 177.542 150.39 177.449 150.414 177.343L150.418 177.333C150.435 177.257 150.424 177.217 150.38 177.21C150.35 177.204 150.313 177.207 150.258 177.217C150.255 177.22 150.252 177.22 150.248 177.22C150.075 177.267 149.801 177.386 149.439 177.485C149.422 177.492 149.405 177.499 149.385 177.502C149.347 177.512 149.313 177.515 149.28 177.522C149.073 177.558 148.873 177.545 148.694 177.492C148.66 177.485 148.626 177.472 148.599 177.462C148.568 177.452 148.541 177.442 148.511 177.429C148.497 177.422 148.484 177.419 148.47 177.409C148.426 177.393 148.389 177.366 148.348 177.343C148.321 177.326 148.294 177.306 148.27 177.29C148.246 177.27 148.223 177.25 148.199 177.23C148.179 177.21 148.162 177.194 148.145 177.174C148.03 177.055 147.955 176.912 147.925 176.756C147.881 176.551 147.918 176.319 148.06 176.077C148.074 176.047 148.094 176.017 148.114 175.988C148.213 175.832 148.304 175.709 148.477 175.53C148.484 175.527 148.484 175.52 148.487 175.52C148.69 175.312 148.998 175.027 149.53 174.526C149.608 174.453 149.693 174.374 149.777 174.294C149.943 174.142 150.109 173.99 150.275 173.824C151.386 172.734 152.23 171.561 152.623 170.348C152.633 170.321 152.643 170.292 152.65 170.262C152.819 169.708 152.894 169.148 152.86 168.585C152.853 168.499 152.849 168.413 152.836 168.33C152.822 168.214 152.799 168.098 152.775 167.985C152.626 167.276 152.291 166.57 151.732 165.875C151.444 165.52 151.139 165.189 150.814 164.877C150.807 164.871 150.804 164.867 150.797 164.861C148.287 162.478 144.737 161.395 141.445 160.421C139.765 159.927 138.624 159.96 136.554 158.631C135.687 158.075 134.888 157.432 134.122 156.752C133.838 156.491 133.56 156.239 133.293 155.994C133.089 155.801 132.89 155.613 132.686 155.42C131.718 154.496 130.82 153.876 129.95 153.449C129.906 153.429 129.858 153.406 129.814 153.383C129.133 153.068 128.463 152.859 127.782 152.71C127.369 152.617 126.891 152.551 126.386 152.508C126.329 152.504 126.268 152.501 126.207 152.498C125.618 152.458 124.994 152.461 124.415 152.514C123.944 152.558 123.504 152.63 123.125 152.743C116.842 154.625 111.805 161.613 110.027 167.853C108.11 174.589 109.834 176.786 108.252 180.342C107.575 181.869 107.676 182.121 105.719 185.769C102.938 190.952 98.1621 199.361 94.5142 204.912C92.5802 207.854 90.0907 211.621 86.8019 213.341C85.1219 214.219 82.7374 214.11 80.9829 213.497C80.0074 213.156 79.0421 212.821 78.192 212.228C77.1115 211.482 76.1902 210.594 75.7093 209.365C75.3435 208.421 75.0691 207.443 74.9709 206.432C74.7812 204.557 74.7067 202.675 74.8896 200.793C75.8752 190.597 78.3749 175.577 79.8008 171.339C79.8787 171.117 79.9736 170.494 80.1023 170.195C81.7213 166.471 82.961 166.554 85.1626 162.564C85.7587 161.488 86.3175 160.387 86.7138 159.218C86.9611 158.492 87.249 157.776 87.4725 157.041C89.078 151.706 89.0678 144.87 85.9822 140.254C85.0271 138.823 82.8628 137.133 80.2412 136.49C77.7991 135.89 75.2995 136.639 72.8337 136.599C69.5618 136.546 66.8013 135.029 63.8241 133.939C61.8291 133.21 58.4014 132.507 56.4607 132.706C54.3133 132.925 52.6265 133.611 51.7255 135.536C50.2996 138.581 51.7255 141.689 51.4884 143.174C51.3868 143.8 50.811 144.154 50.2047 143.939C49.1412 143.561 49.2801 142.723 49.0024 142.7C48.7077 142.68 48.6806 143.376 48.0844 143.84C47.2038 144.529 46.4079 143.614 46.2588 142.537C46.2318 142.319 46.0522 142.415 46.0014 142.517C45.8456 142.839 45.4256 143.366 45.1005 143.558C44.1758 144.105 43.5153 143.26 43.3798 142.229C43.3223 141.792 42.9734 142.279 42.6618 142.517C42.1774 142.892 41.4492 143.104 41.1173 142.604C40.6024 141.825 40.6668 141.036 40.7955 140.122C40.9276 139.187 41.9572 136.208 43.4679 133.849C45.4459 130.761 48.4604 128.935 51.9897 127.968C59.5801 125.883 63.4481 129.989 67.6955 131.023C70.7405 131.765 72.7727 131.623 76.7627 131.208C78.8592 130.986 81.3623 131.188 83.2692 132.023C85.4911 132.998 87.6487 134.502 90.1144 134.804C93.9926 135.284 99.0834 128.988 110.698 133.617C114.064 134.959 116.699 136.891 119.517 141.109C121.092 143.468 121.59 145.586 123.863 146.431C128.212 148.054 130.102 147.246 133.604 149.545C136.056 151.156 137.438 153.27 140.531 155.354C145.29 158.558 151.657 158.002 155.888 162.177C159.972 166.206 161.293 172.025 159.42 177.373C159.122 178.228 158.858 179.109 158.492 179.937Z" fill="#F18BAB"/>
<g style="mix-blend-mode:multiply" opacity="0.502">
<path d="M71.3738 133.919C74.5542 133.65 75.733 133.342 79.1912 133.975C81.1015 134.323 83.4351 135.383 84.8611 137.01C86.3175 138.664 86.4767 140.944 85.8907 140.115C84.9288 138.75 82.6967 137.04 80.1463 136.467C76.8033 135.711 73.3519 137.375 69.7447 136.119C69.4737 136.023 68.7489 135.93 68.5185 135.794C68.1561 135.582 63.631 133.872 63.6005 133.863C61.0839 132.925 57.8358 132.577 56.4945 132.706C54.3437 132.908 52.6434 133.607 51.739 135.506C50.2792 138.581 51.739 141.702 51.4816 143.207C51.3868 143.77 50.8584 144.118 50.2996 143.966C48.7923 143.561 49.358 141.765 48.5722 143.26C48.1183 144.121 47.1665 144.383 46.672 143.604C46.164 142.799 46.3333 142.458 46.1775 142.405C45.981 142.342 46.0996 142.571 45.4324 143.286C44.9074 143.846 44.1859 143.929 43.7456 143.24C43.4103 142.723 43.4442 142.494 43.373 142.196C43.285 141.835 43.0242 142.229 42.6855 142.498C42.1537 142.928 41.3916 143.121 41.0597 142.517C40.6871 141.848 40.6769 141.378 40.7277 140.609C40.7447 140.327 40.8598 140.152 41.124 140.069C41.5305 139.943 41.9268 139.8 42.3569 139.764C43.5322 139.671 43.9929 140.582 44.2537 140.887C45.0666 141.828 45.2833 139.211 47.5493 140.065C47.6949 140.118 47.8372 140.185 47.9896 140.228C48.7822 140.466 49.1378 139.83 49.2902 139.028C49.8457 136.146 49.8965 134.316 52.0642 132.299C53.9237 130.562 56.8501 129.694 60.2169 130.426C66.4219 131.778 66.9435 134.293 71.3738 133.919Z" fill="#F18BAB"/>
</g>
<g style="mix-blend-mode:multiply" opacity="0.502">
<path d="M158.143 180.564C157.825 181.067 157.429 181.491 156.907 181.79C156.894 181.796 156.883 181.803 156.873 181.806C156.64 181.935 156.426 181.975 156.24 181.952C155.796 181.892 155.491 181.458 155.39 180.925C155.38 180.892 155.376 180.855 155.369 180.819C155.366 180.792 155.363 180.762 155.359 180.736C155.356 180.696 155.349 180.653 155.346 180.613C155.336 180.501 155.325 180.405 155.312 180.328C155.308 180.312 155.308 180.299 155.305 180.285C155.285 180.159 155.251 180.096 155.18 180.123C155.163 180.13 155.139 180.143 155.115 180.163C154.855 180.371 154.638 180.57 154.404 180.709C154.377 180.726 154.35 180.743 154.323 180.756C154.201 180.822 154.069 180.868 153.923 180.888C153.896 180.895 153.866 180.895 153.835 180.895C153.805 180.902 153.774 180.902 153.744 180.898C153.727 180.902 153.713 180.902 153.7 180.898C153.669 180.898 153.639 180.895 153.601 180.892C153.554 180.888 153.51 180.882 153.466 180.872C153.219 180.819 153.049 180.703 152.941 180.54C152.921 180.507 152.897 180.474 152.883 180.431C152.86 180.391 152.839 180.345 152.826 180.299C152.741 180.04 152.728 179.725 152.741 179.387C152.748 179.192 152.761 178.986 152.775 178.784C152.782 178.685 152.775 178.635 152.748 178.625C152.731 178.619 152.704 178.635 152.667 178.658C152.589 178.708 152.47 178.811 152.28 178.953C152.243 178.983 152.199 179.02 152.155 179.053C152.138 179.066 152.125 179.073 152.108 179.086C152.084 179.102 152.057 179.122 152.033 179.139C151.942 179.198 151.847 179.248 151.755 179.285C151.725 179.298 151.698 179.308 151.671 179.318C151.644 179.328 151.617 179.338 151.589 179.344C151.556 179.358 151.522 179.364 151.488 179.371C151.44 179.381 151.393 179.387 151.346 179.394C151.339 179.397 151.335 179.397 151.332 179.397C151.285 179.401 151.234 179.401 151.186 179.401C151.183 179.401 151.183 179.404 151.18 179.404C151.129 179.401 151.081 179.394 151.034 179.387C150.98 179.377 150.932 179.367 150.885 179.348C150.817 179.324 150.753 179.291 150.692 179.255C150.631 179.212 150.573 179.162 150.519 179.102C150.523 179.099 150.519 179.099 150.516 179.099C150.495 179.069 150.472 179.039 150.451 179.006C150.428 178.973 150.407 178.933 150.39 178.897C150.37 178.857 150.353 178.817 150.34 178.771C150.323 178.728 150.313 178.682 150.299 178.632C150.289 178.595 150.285 178.559 150.275 178.519C150.272 178.486 150.265 178.453 150.258 178.42C150.255 178.387 150.252 178.354 150.248 178.324C150.245 178.291 150.245 178.264 150.241 178.234C150.241 178.175 150.241 178.122 150.245 178.072C150.255 177.916 150.289 177.784 150.329 177.648C150.329 177.641 150.329 177.638 150.333 177.634C150.36 177.542 150.39 177.449 150.414 177.343C150.428 177.277 150.414 177.23 150.38 177.21C150.357 177.19 150.316 177.19 150.275 177.21C150.272 177.214 150.265 177.214 150.258 177.217C150.255 177.22 150.252 177.22 150.248 177.22C149.967 177.34 149.683 177.442 149.385 177.502C149.347 177.512 149.313 177.515 149.28 177.522C149.066 177.552 148.87 177.538 148.694 177.492C148.66 177.485 148.626 177.472 148.599 177.462C148.568 177.452 148.541 177.442 148.511 177.429C148.497 177.422 148.484 177.419 148.47 177.409C148.426 177.393 148.389 177.366 148.348 177.343C148.321 177.326 148.294 177.306 148.27 177.29C148.246 177.27 148.223 177.25 148.199 177.23C148.179 177.21 148.162 177.194 148.145 177.174C148.03 177.055 147.955 176.912 147.925 176.756C147.915 176.707 147.908 176.654 147.908 176.604C147.908 176.587 147.911 176.571 147.911 176.554C147.915 176.514 147.915 176.475 147.921 176.435C147.925 176.428 147.928 176.418 147.928 176.408C147.938 176.359 147.955 176.309 147.972 176.259C147.975 176.256 147.975 176.253 147.979 176.249C147.992 176.213 148.006 176.173 148.026 176.137C148.036 176.117 148.047 176.097 148.06 176.077C148.074 176.047 148.094 176.017 148.114 175.988C148.209 175.839 148.335 175.689 148.477 175.53C148.484 175.527 148.484 175.52 148.487 175.52C148.771 175.212 149.134 174.884 149.53 174.526C149.608 174.453 149.693 174.374 149.777 174.294C149.943 174.142 150.109 173.99 150.275 173.824C151.22 172.913 152.182 171.796 152.623 170.348C152.633 170.321 152.643 170.292 152.65 170.262C152.748 169.921 152.816 169.559 152.849 169.178C152.856 169.086 152.863 168.989 152.863 168.897C152.863 168.794 152.866 168.688 152.86 168.585C152.853 168.499 152.849 168.413 152.836 168.33C152.683 166.981 151.894 165.842 150.814 164.877C150.807 164.871 150.804 164.867 150.797 164.861C148.287 162.478 144.737 161.395 141.445 160.421C139.765 159.927 138.624 159.96 136.554 158.631C135.687 158.075 134.888 157.432 134.122 156.753C133.838 156.491 133.56 156.239 133.293 155.994C132.178 154.976 131.176 154.082 129.95 153.449C129.906 153.429 129.858 153.406 129.814 153.383C128.859 152.912 127.768 152.604 126.386 152.508C126.329 152.505 126.268 152.501 126.207 152.498C125.658 152.468 125.065 152.471 124.415 152.514C124.368 152.518 124.317 152.521 124.266 152.524C123.087 152.611 122.979 152.909 122.783 152.717C122.529 152.461 125.194 150.059 129.299 151.053C136.544 152.813 137.333 157.634 142.028 158.688C143.688 159.062 146.018 159.155 148.362 160.311C149.178 160.716 150.018 161.08 150.777 161.59C152.541 162.77 153.757 164.364 154.333 166.378C154.99 168.688 154.418 170.517 153.192 172.727C152.88 173.284 152.606 173.857 152.264 174.4C152.155 174.566 152.104 174.765 152.094 174.964C152.05 175.786 152.609 175.865 153.188 176.047C154.848 176.577 154.452 177.949 154.651 178.44C154.838 178.904 155.159 178.648 155.769 178.529C156.609 178.363 157.442 178.582 158.171 180.004C158.265 180.199 158.259 180.385 158.143 180.564Z" fill="#F18BAB"/>
</g>
<g style="mix-blend-mode:multiply" opacity="0.502">
<path d="M86.1821 166.584C84.3802 170.195 82.1075 171.405 78.988 176.69C78.6866 177.204 78.8017 177.296 78.4426 177.88C78.4223 177.909 78.297 177.933 78.2936 177.826C78.2869 177.512 78.8864 174.115 79.7467 171.504C80.0041 170.722 79.9194 170.58 80.1362 170.119C80.8373 168.615 81.2336 167.866 82.3615 166.55C88.6005 159.267 88.3024 151.524 88.5835 150.993C88.8748 151.139 88.8138 151.431 88.8646 151.666C89.4303 154.35 89.0645 158.27 88.5022 160.523C88.2821 161.391 88.1127 162.723 86.1821 166.584Z" fill="#F18BAB"/>
</g>
<g style="mix-blend-mode:multiply" opacity="0.502">
<path d="M113.81 159.688C113.969 159.566 114.044 159.715 113.956 159.857C112.987 161.365 112.428 162.038 111.307 164.486C109.725 167.942 108.899 171.769 109.014 175.908C109.055 177.422 108.879 178.923 108.252 180.345C107.693 181.607 107.168 183.274 105.647 185.875C105.461 186.2 105.356 186.568 105.095 186.849C104.98 186.972 104.902 186.916 104.943 186.77C106.437 181.133 104.696 176.445 106.586 170.908C108.008 166.749 110.311 162.402 113.81 159.688Z" fill="#F18BAB"/>
</g>
<path d="M157.259 167.428C157.866 168.436 158.052 169.632 158.069 170.778C158.069 171.932 157.92 173.058 157.605 174.172C157.398 173.028 157.432 171.895 157.412 170.782C157.412 169.665 157.361 168.582 157.259 167.428Z" fill="#BA457C"/>
<path d="M45.263 135.894C45.6017 134.774 46.2453 133.77 47.0073 132.885C47.7864 132.01 48.7009 131.238 49.7847 130.741C49.026 131.639 48.247 132.447 47.5086 133.302C46.7533 134.147 46.0556 135.022 45.263 135.894Z" fill="#BA457C"/>
<path d="M92.9629 185.169C92.7495 184.334 92.9087 182.687 93.576 181.349C94.924 178.642 96.6751 177.144 98.1959 174.278C98.6024 173.509 99.317 171.975 99.5338 171.063C100.658 166.371 102.081 162.872 105.258 159.204C106.284 158.021 108.255 155.549 111.663 153.677C113.441 152.703 114.312 152.067 114.477 152.412C114.579 152.62 114.413 152.736 114.305 152.869C110.87 157.047 107.507 163.267 105.83 168.857C103.51 176.607 101.251 185.464 95.6014 186.839C95.1611 186.949 93.3423 186.67 92.9629 185.169Z" fill="#BA457C"/>
<path d="M85.989 171.256C86.2532 170.51 86.4632 169.738 86.7951 169.026C87.1236 168.32 88.9425 163.522 89.481 162.299C91.1847 158.423 92.7123 151.017 92.6682 145.616C92.6682 145.327 92.6513 145.023 92.9121 145.013C93.0137 145.009 93.0849 145.062 93.1221 145.145C94.0807 147.186 94.8732 149.135 95.2966 151.341C96.1467 155.772 95.7335 160.613 94.7682 163.505C94.609 163.979 94.5819 164.5 94.3482 164.954C93.9282 165.775 93.6776 166.67 93.2305 167.482C92.9799 167.936 92.1399 170.365 91.9333 171.074C90.5988 175.6 92.3227 180.216 89.1084 183.596C88.7799 183.943 88.343 184.136 87.8959 184.271C86.2057 184.778 84.878 182.625 84.5732 180.948C84.2447 179.155 84.3022 177.376 84.685 175.597C85 174.112 85.4267 172.664 85.989 171.256Z" fill="#BA457C"/>
<path d="M121.424 149.045C116.391 150.851 111.856 154.367 108.154 158.081C107.036 159.198 105.973 160.377 105 161.62C104.201 162.644 103.459 163.711 102.802 164.831C99.9131 169.738 100.001 175.755 96.3737 180.305C95.3643 181.567 93.8503 183.556 93.9011 185.163C93.9485 186.667 95.3541 186.475 96.5227 186.574C97.7081 186.674 98.5041 187.671 98.284 189.175C97.9453 191.518 91.5065 206.558 85.5351 212.831C85.2167 213.165 84.8441 213.454 84.502 213.768C84.3293 213.937 84.1261 213.981 83.889 213.977C82.9677 213.954 82.06 213.868 81.1861 213.556C79.6856 213.026 79.496 213.096 77.8668 212.009C77.5247 211.78 77.352 211.479 77.2944 211.088C76.7525 207.539 77.4502 201.74 78.5408 196.323C79.7195 190.425 81.3656 184.98 82.3919 183.37C82.6561 182.949 83.0524 182.661 83.5367 182.499C84.6849 182.108 85.1456 182.711 86.1854 183.377C87.0119 183.91 87.5233 183.811 87.9568 183.406C89.7215 181.756 89.1965 178.585 89.3828 176.441C89.6436 173.506 90.8155 170.818 92.0856 168.184C93.2372 165.795 94.0129 163.237 94.2568 160.599C94.6903 155.96 94.2533 153.416 93.5624 149.628C92.9527 146.268 92.1805 143.409 90.4125 139.82C89.5318 138.037 87.7773 135.39 86.4428 133.902C86.121 133.538 86.3141 133.448 86.663 133.644C87.5605 134.161 88.5597 134.432 89.5453 134.711C92.6208 135.579 95.913 131.838 103.121 131.878C105.668 131.891 108.374 132.696 110.725 133.627C118.193 136.579 120.13 142.772 121.966 145.059C122.461 145.678 123.074 146.149 123.826 146.414C124.73 146.732 125.614 147.123 126.586 147.236C126.691 147.246 126.793 147.305 126.891 147.352C127.301 147.544 125.817 147.468 121.424 149.045Z" fill="#F7CDDC"/>
<path d="M82.104 187.164C82.9372 188.191 83.9195 189.059 84.9864 189.798C86.0635 190.534 87.2083 191.157 88.431 191.568C89.6503 191.999 90.9442 192.201 92.2482 192.254C93.5556 192.29 94.8766 192.164 96.2009 191.969C94.9409 192.406 93.6132 192.708 92.2516 192.754C90.8934 192.807 89.5115 192.621 88.2143 192.174C86.9204 191.727 85.7248 191.041 84.6782 190.196C83.6214 189.361 82.7204 188.33 82.104 187.164Z" fill="#F18BAB"/>
<path d="M96.9055 145.586C97.7387 146.613 98.7209 147.478 99.7878 148.217C100.865 148.952 102.01 149.575 103.232 149.986C104.452 150.417 105.746 150.619 107.05 150.672C108.357 150.708 109.678 150.583 110.999 150.387C109.742 150.828 108.415 151.126 107.053 151.176C105.695 151.225 104.313 151.04 103.016 150.596C101.722 150.145 100.526 149.459 99.4797 148.618C98.4229 147.783 97.5219 146.749 96.9055 145.586Z" fill="#F18BAB"/>
<path d="M80.3529 194.089C81.2708 194.808 82.2497 195.411 83.259 195.958C84.2751 196.495 85.3014 197.028 86.3683 197.393C88.5157 198.155 90.8325 198.334 93.1763 198.46C92.0179 198.645 90.8359 198.742 89.6504 198.669C88.4649 198.612 87.2794 198.387 86.1482 197.999C85.0135 197.595 83.9771 197.022 82.9914 196.389C82.0024 195.753 81.0913 194.984 80.3529 194.089Z" fill="#F18BAB"/>
<path d="M78.9913 200.312C79.7669 200.972 80.6611 201.419 81.5383 201.939C82.3919 202.44 83.303 202.824 84.2514 203.135C85.193 203.463 86.1651 203.695 87.1507 203.878C88.1364 204.043 89.1355 204.143 90.1652 204.12C89.1762 204.391 88.116 204.464 87.083 204.375C86.0465 204.289 85.0236 204.073 84.038 203.745C83.0591 203.41 82.0938 202.973 81.2538 202.353C80.4376 201.774 79.5806 201.144 78.9913 200.312Z" fill="#F18BAB"/>
<path d="M83.5977 192.966C84.2006 193.34 84.7967 193.672 85.4166 193.957C86.0398 194.238 86.6732 194.484 87.3235 194.699C87.6452 194.815 87.9738 194.918 88.3057 195.02C88.641 195.136 88.9425 195.213 89.2778 195.286C89.9383 195.415 90.6428 195.464 91.3439 195.607C90.6428 195.733 89.9417 195.826 89.2101 195.783C88.4615 195.74 87.7875 195.514 87.1067 195.309C86.4361 195.073 85.7722 194.782 85.1693 194.394C84.563 194.01 84.0143 193.536 83.5977 192.966Z" fill="#F18BAB"/>
<path d="M97.847 152.938C98.4499 153.313 99.0461 153.644 99.6659 153.929C100.289 154.208 100.922 154.456 101.573 154.671C101.895 154.787 102.223 154.887 102.552 154.993C102.887 155.109 103.188 155.185 103.524 155.255C104.188 155.387 104.892 155.437 105.593 155.579C104.892 155.705 104.191 155.798 103.459 155.755C102.711 155.712 102.037 155.487 101.356 155.278C100.682 155.043 100.022 154.754 99.4153 154.367C98.8124 153.982 98.2637 153.508 97.847 152.938Z" fill="#F18BAB"/>
<path d="M81.4334 199.053C82.06 199.345 82.6697 199.61 83.2929 199.845C83.9195 200.077 84.5495 200.292 85.1896 200.501C85.8196 200.713 86.4835 200.942 87.0898 201.17C87.7028 201.372 88.3803 201.475 89.0509 201.651C88.3667 201.744 87.6724 201.783 86.9645 201.657C86.2633 201.512 85.6367 201.319 84.9763 201.111C83.6892 200.673 82.3716 200.067 81.4334 199.053Z" fill="#F18BAB"/>
<path d="M79.8584 205.272C80.9626 205.74 81.9922 206.22 83.0761 206.588C83.6113 206.783 84.1566 206.949 84.7086 207.102C85.2675 207.247 85.823 207.373 86.4191 207.44C85.8467 207.642 85.2167 207.655 84.6172 207.595C84.0143 207.539 83.4216 207.39 82.8525 207.194C81.7179 206.787 80.6611 206.154 79.8584 205.272Z" fill="#F18BAB"/>
<g style="mix-blend-mode:multiply">
<path d="M85.5351 212.831C85.2167 213.166 84.8441 213.454 84.502 213.769C84.3293 213.938 84.1261 213.981 83.889 213.977C82.9677 213.954 82.06 213.868 81.1861 213.557C79.6856 213.026 79.496 213.096 77.8668 212.009C77.5247 211.781 77.352 211.479 77.2944 211.088C76.7525 207.539 77.4502 201.741 78.5408 196.323C79.0624 196.412 79.8922 196.571 81.2132 196.247C88.3463 194.514 89.1253 187.075 90.6902 182.933C91.0594 181.952 91.5335 181.014 91.879 180.024C92.5463 178.115 93.9756 175.179 94.6022 173.99C97.5016 168.476 100.225 165.434 103.158 162.992C103.324 162.849 104.245 162.13 105 161.62C104.201 162.644 103.459 163.711 102.802 164.831C99.9131 169.738 100.001 175.756 96.3737 180.305C95.3643 181.568 93.8503 183.556 93.9011 185.163C93.9485 186.667 95.3541 186.475 96.5227 186.574C97.7081 186.674 98.5041 187.671 98.284 189.176C97.9453 191.518 91.5065 206.558 85.5351 212.831Z" fill="#F7CDDC"/>
</g>
<path d="M122.129 145.45C121.98 145.563 121.777 145.447 121.421 145.407C119.582 145.225 118.715 145.43 115.619 145.897C99.9233 148.28 96.6175 137.882 91.4116 135.115C90.7748 134.777 91.7097 134.751 92.3227 134.532C92.3329 134.529 92.3397 134.525 92.3464 134.522C95.1577 133.524 99.9809 131.066 105.725 132.149C117.116 134.3 119.517 141.517 121.611 144.578C121.729 144.754 121.851 144.916 121.966 145.059C122.081 145.201 122.23 145.367 122.129 145.45Z" fill="#BA457C"/>
<path d="M121.611 144.578C118.979 142.62 117.973 142.322 112.55 142.425C106.034 142.547 104.096 141.146 99.1376 137.136C96.306 134.85 94.7818 134.823 93.8165 134.644C93.2576 134.538 92.7631 134.522 92.3465 134.522C95.1578 133.524 99.9809 131.066 105.725 132.149C117.116 134.3 119.517 141.517 121.611 144.578Z" fill="#F18BAB"/>
<path d="M100.936 134.661C103.337 133.73 106.118 133.836 108.581 134.655C109.814 135.075 110.989 135.668 112.025 136.444C113.065 137.209 113.963 138.164 114.61 139.25C112.892 137.388 110.728 136.056 108.367 135.264C106.01 134.472 103.463 134.23 100.936 134.661Z" fill="#BA457C"/>
<path d="M114.748 5.52613C114.894 5.17158 115.602 3.20002 117.113 1.2119C118.291 -0.33553 121.147 -0.584045 122.329 1.61615C122.403 1.75532 122.427 1.92099 122.478 2.07342C122.569 2.3385 122.627 2.36832 122.857 2.22584C124.774 1.04291 127.755 2.2656 128.205 4.22722C128.314 4.69443 128.354 4.26036 129.428 3.95551C131.752 3.29943 133.96 4.5652 134.434 6.62291C134.458 6.72895 134.468 6.97746 134.62 6.86812C135.416 6.28162 136.185 5.95026 137.432 6.13582C138.851 6.3512 140.013 7.29556 140.199 8.73696C140.246 9.08156 140.659 8.2333 142.129 8.20679C144.084 8.17697 145.34 9.40629 145.483 10.7615C145.503 10.9372 145.517 10.9405 145.696 10.8543C146.018 10.6986 146.343 10.5428 146.699 10.4567C148.379 10.0557 150.177 11.0001 150.777 12.6834C150.821 12.806 150.773 13.0181 150.953 13.0313C151.095 13.0413 151.742 12.1367 153.225 12.3752C154.601 12.5939 155.556 13.3395 156.03 14.6417C156.189 15.0791 156.125 15.1719 156.433 14.9697C158.127 13.8564 160.392 14.6682 161.334 16.4741C161.717 17.2097 161.49 17.7995 161.808 17.5808C164.081 16.0201 167.102 17.3522 167.817 19.9102C167.898 20.2018 167.881 20.0726 168.481 19.8274C169.29 19.496 170.11 19.4828 170.93 19.7843C171.329 19.9301 171.726 20.0759 172.068 20.3443C172.84 20.9606 173.101 21.4345 173.389 22.2165C173.497 22.5014 173.49 22.4948 173.744 22.3523C176.078 21.0468 178.672 23.131 178.191 25.699C177.558 29.0821 176.254 32.2598 173.629 35.7655C170.913 39.3972 156.789 54.3645 143.715 59.2254C134.898 62.5058 122.471 57.7642 118.064 49.3279C112.513 38.698 111.815 16.3548 113.495 9.32014C113.807 8.02123 114.179 6.7422 114.748 5.52613Z" fill="#D1DBFF"/>
<g style="mix-blend-mode:multiply" opacity="0.349">
<path d="M118.701 50.3941C118.535 50.1787 118.19 49.5889 118.071 49.3437C117.607 48.3795 116.916 47.2893 115.768 43.4622C111.805 30.2743 112.699 13.0836 112.991 13.0372C113.231 12.9974 113.38 25.9103 118.39 36.9709C119.267 38.9027 120.842 41.8485 122.671 42.985C123.836 43.7074 124.544 43.217 124.774 43.1938C124.984 43.1673 125.123 43.3959 124.944 43.5284C124.794 43.6411 124.69 43.6245 124.706 43.7902C124.75 44.2607 124.561 44.6782 124.344 45.0726C123.033 47.4682 121.411 49.1813 118.918 50.404C118.86 50.4339 118.793 50.4405 118.701 50.3941Z" fill="#C8B2D8"/>
</g>
<g style="mix-blend-mode:multiply" opacity="0.349">
<path d="M141.977 51.7859C142.14 51.4049 142.234 51.0901 142.492 50.8681C142.627 50.7488 142.529 50.6295 142.549 50.4605C142.573 50.2716 142.8 50.2186 142.919 50.3644C143.112 50.6063 143.288 51.3983 144.582 51.6435C149.954 52.664 163.19 45.3709 172.684 36.6795C175.363 34.2275 156.944 55.5634 142.478 59.6059C142.157 59.6954 142.079 59.6622 141.947 59.3508C141.347 57.9226 141.056 55.6462 141.618 53.0385C141.716 52.5845 141.811 52.1239 141.977 51.7859Z" fill="#C8B2D8"/>
</g>
<path d="M162.384 22.3915C117.16 4.51165 161.32 21.9807 116.205 4.11733C115.704 3.91852 115.5 3.87876 115.653 3.56066C115.964 2.90789 116.51 2.00329 117.197 1.10864C117.871 0.233861 119.406 -0.292993 120.733 0.174217C121.79 0.545334 122.39 1.5162 122.464 2.01655C122.474 2.09276 122.515 2.16897 122.552 2.24187C122.634 2.40092 122.779 2.25181 122.976 2.15572C124.984 1.1484 127.65 2.16234 128.243 4.3526C128.287 4.5249 128.483 4.37248 128.652 4.27638C130.146 3.448 132.365 3.59048 133.73 5.20086C134.756 6.41031 134.224 7.1426 134.732 6.78805C136.104 5.82712 137.692 5.83044 139.078 6.82119C140.561 7.88484 139.948 9.05783 140.368 8.76955C141.858 7.74898 144.172 8.10022 145.185 9.79012C145.628 10.529 145.344 11.0228 145.645 10.8836C145.825 10.8008 146.001 10.7179 146.18 10.6384C147.972 9.84314 150.15 10.8107 150.787 12.7226C150.885 13.0175 150.851 13.16 151.105 12.9446C152.545 11.7219 154.963 12.4376 155.864 14.2336C156.125 14.7505 156.091 15.1713 156.304 15.052C156.362 15.0222 156.413 14.9791 156.467 14.9427C158.313 13.7763 161.141 14.8234 161.605 17.4378C161.696 17.9514 161.893 17.239 163.092 17.007C165.429 16.5531 167.322 18.0574 167.827 19.9528C167.888 20.1814 167.925 20.0721 168.383 19.8699C169.236 19.4922 170.1 19.4723 170.97 19.797C171.383 19.9528 171.786 20.1184 172.139 20.4001C173.307 21.3312 173.355 22.375 173.504 22.4611C173.622 22.534 173.71 22.3551 173.822 22.2988C175.143 21.6559 176.576 21.8879 177.551 23.1172C178.655 24.5089 178.269 25.5659 177.714 27.8556C177.592 28.3427 177.443 28.3162 177.152 28.2101C177.087 28.1869 172.156 26.2386 162.391 22.3783C162.391 22.3816 162.387 22.3882 162.384 22.3915Z" fill="#AA84B9"/>
<path d="M173.463 32.7365C175.38 33.3297 175.309 33.2601 174.987 33.8002C174.577 34.496 174.086 35.1389 173.615 35.7983C173.477 35.9938 173.321 36.0865 173.08 36.0136C158.794 31.6629 141.52 43.8203 142.577 59.1919C142.59 59.4039 142.631 59.5729 142.4 59.6293C141.496 59.8612 140.67 60.0368 139.691 60.123C139.335 60.1561 139.291 60.2191 139.291 57.9626C139.288 41.0867 156.677 27.5442 173.463 32.7365Z" fill="#AA84B9"/>
<path d="M127.453 42.7301C125.723 46.9217 123.704 49.5328 120.622 52.4388C120.439 52.6111 120.361 52.6044 120.175 52.4056C119.582 51.7562 119.07 51.0504 118.623 50.2982C118.467 50.0431 118.481 49.9834 118.732 49.7714C129.482 40.6459 127.589 21.2683 114.806 13.2462C113.621 12.5006 113.505 12.5371 113.4 12.4575C112.974 12.1427 112.994 12.2687 113.055 11.7683C113.157 10.9863 113.289 10.211 113.465 9.44552C113.526 9.17381 113.597 8.98494 113.848 9.08103C116.852 10.2375 120.584 12.7922 123.382 16.1124C128.798 22.534 130.857 31.2553 128.497 39.7777C128.215 40.785 127.894 41.7758 127.453 42.7301Z" fill="#AA84B9"/>
<path d="M158.665 280.669C158.391 281.328 158.076 281.945 157.727 282.521C157.669 282.621 157.608 282.717 157.547 282.816C157.503 282.886 157.459 282.955 157.412 283.025C157.368 283.094 157.32 283.167 157.273 283.234C157.209 283.33 157.144 283.423 157.076 283.515C157.076 283.515 157.076 283.519 157.073 283.519C157.005 283.611 156.938 283.704 156.87 283.794C156.799 283.886 156.728 283.976 156.653 284.069C152.809 288.827 146.17 290.335 139.311 289.771C136.73 289.563 135.149 289.201 132.852 288.651C132.246 288.506 130.766 288.032 129.418 287.591L128.927 287.429C128.913 287.422 128.896 287.415 128.883 287.415C128.134 287.167 127.477 286.945 127.101 286.816L127.057 286.802C126.932 286.759 126.844 286.729 126.803 286.713C126.756 286.693 126.691 286.67 126.617 286.64C126.59 286.63 126.562 286.617 126.535 286.607C126.17 286.454 125.587 286.203 125.069 285.974C125.062 285.971 125.055 285.967 125.049 285.964C124.496 285.719 124.022 285.51 123.975 285.484C123.873 285.434 123.772 285.384 123.673 285.334C123.667 285.331 123.656 285.328 123.65 285.325C121.492 284.254 119.487 283.041 117.712 281.693C111.47 276.951 108.096 270.533 111.25 262.796C111.754 261.56 112.1 261.185 113.197 259.449C116.564 254.098 120.381 250.635 122.86 247.726C124.747 245.512 127.403 242.113 128.605 239.498C129.797 236.907 127.819 235.423 126.928 234.173C126.082 232.994 125.926 232.198 125.875 231.416C125.594 227.381 128.087 219.597 131.155 217.924C133.929 216.413 135.437 217.804 136.426 215.598C137.1 214.1 137.381 209.759 140.707 204.709C142.112 202.572 144.873 200.604 149.103 199.941C151.982 199.49 154.672 199.818 157.388 200.475C158.381 200.713 159.332 201.061 160.294 201.369C160.992 201.598 161.652 201.916 162.323 202.214C164.653 203.255 166.885 204.782 168.62 206.691C168.664 206.737 168.714 206.793 168.772 206.86C168.799 206.886 168.826 206.916 168.853 206.949C168.904 207.006 168.955 207.062 168.999 207.122C170.201 208.546 171.126 210.163 171.614 211.936C171.621 211.953 171.627 211.973 171.631 211.992C172.603 215.581 171.119 219.756 169.859 223.199C169.812 223.331 169.761 223.464 169.703 223.596C169.626 223.775 169.541 223.961 169.456 224.143C169.439 224.176 169.422 224.213 169.405 224.249C169.341 224.382 169.277 224.518 169.212 224.654C169.155 224.779 169.094 224.912 169.036 225.038C168.843 225.459 168.674 225.876 168.576 226.287C168.576 226.294 168.572 226.297 168.572 226.3C168.559 226.353 168.545 226.41 168.538 226.463C168.535 226.469 168.535 226.476 168.535 226.479C168.528 226.509 168.521 226.539 168.518 226.569C168.515 226.599 168.511 226.628 168.508 226.658C168.501 226.688 168.498 226.715 168.498 226.744C168.487 226.864 168.484 226.98 168.491 227.096C168.491 227.122 168.494 227.152 168.498 227.178C168.501 227.225 168.508 227.268 168.515 227.314C168.518 227.341 168.525 227.367 168.532 227.394C168.542 227.45 168.559 227.503 168.572 227.559C168.589 227.612 168.609 227.666 168.63 227.719C168.742 227.98 168.924 228.235 169.192 228.474C169.229 228.504 169.263 228.537 169.3 228.573C170.51 229.67 171.637 231.072 171.688 232.679C171.827 237 169.866 242.639 166.574 245.641C165.785 246.361 164.078 246.848 163.099 247.017C163.021 247.03 162.946 247.046 162.875 247.063C162.655 247.113 162.438 247.179 162.232 247.259C162.164 247.285 162.096 247.312 162.035 247.345C161.903 247.401 161.778 247.467 161.659 247.54C161.409 247.686 161.175 247.862 160.968 248.067C160.823 248.209 160.687 248.365 160.562 248.534C160.477 248.653 160.399 248.776 160.325 248.909C160.321 248.915 160.318 248.922 160.315 248.925C160.186 249.154 160.105 249.392 160.04 249.634C160.04 249.638 160.04 249.638 160.04 249.641C159.972 249.903 159.925 250.174 159.861 250.443C159.827 250.592 159.796 250.748 159.766 250.91C159.569 251.937 159.458 253.18 159.403 254.482C159.403 254.499 159.4 254.515 159.4 254.532C159.298 257.01 159.403 259.704 159.525 261.596C159.529 261.626 159.529 261.656 159.532 261.682C159.569 262.226 159.62 262.782 159.678 263.369C159.688 263.468 159.698 263.568 159.705 263.667C159.827 264.936 159.966 266.358 160.02 268.094C160.027 268.26 160.03 268.425 160.033 268.594C160.077 270.486 160.023 272.743 159.759 275.556C159.739 275.732 159.725 275.917 159.708 276.106C159.705 276.136 159.701 276.166 159.701 276.192C159.685 276.388 159.664 276.587 159.641 276.795C159.63 276.878 159.62 276.961 159.61 277.047C159.603 277.09 159.6 277.133 159.593 277.173C159.593 277.2 159.59 277.223 159.583 277.249C159.583 277.263 159.58 277.276 159.58 277.286C159.447 278.26 159.207 279.377 158.665 280.669Z" fill="#D1DBFF"/>
<path d="M152.958 215.326C150.756 215.412 148.666 216.323 146.97 217.642C146.113 218.298 145.371 219.09 144.717 219.938C144.057 220.78 143.525 221.714 143.088 222.682C142.631 223.643 142.329 224.67 142.072 225.697C141.842 226.728 141.791 227.785 141.794 228.852C141.791 229.919 141.811 231.006 141.676 232.089C141.547 233.169 141.276 234.24 140.876 235.257C140.449 236.307 139.772 237.172 139.193 238.073C138.597 238.965 138.031 239.869 137.55 240.817C136.581 242.706 135.958 244.754 135.731 246.854C135.481 248.945 135.63 251.092 136.138 253.127C136.409 254.141 136.788 255.128 137.357 255.983C137.919 256.841 138.756 257.474 139.725 257.822C140.687 258.147 141.747 258.134 142.729 257.782C143.718 257.458 144.629 256.891 145.466 256.242C147.139 254.919 148.65 253.359 149.744 251.55C150.296 250.645 150.75 249.687 151.119 248.697C151.484 247.706 151.769 246.672 152.03 245.642C152.294 244.614 152.429 243.577 152.47 242.517C152.494 241.987 152.501 241.453 152.548 240.897C152.602 240.35 152.707 239.81 152.846 239.276C153.422 237.139 154.706 235.293 156.054 233.613C156.741 232.782 157.307 231.894 157.774 230.929C158.032 230.462 158.208 229.962 158.418 229.471C158.577 228.968 158.773 228.471 158.882 227.951C159.42 225.899 159.478 223.713 158.953 221.645C158.702 220.608 158.252 219.627 157.717 218.699C157.165 217.775 156.44 216.963 155.654 216.217C156.457 216.943 157.205 217.742 157.784 218.659C158.35 219.577 158.828 220.561 159.109 221.605C159.695 223.686 159.695 225.916 159.197 228.023C158.953 229.08 158.587 230.111 158.11 231.088C157.652 232.066 157.063 233.017 156.386 233.862C155.065 235.552 153.855 237.358 153.337 239.402C153.212 239.909 153.12 240.423 153.076 240.943C153.039 241.457 153.039 241.993 153.022 242.537C152.992 243.617 152.849 244.717 152.585 245.771C152.321 246.821 152.043 247.858 151.671 248.889C151.295 249.913 150.827 250.91 150.258 251.848C149.124 253.74 147.579 255.347 145.859 256.722C144.988 257.405 144.026 258.014 142.936 258.379C141.862 258.773 140.612 258.806 139.501 258.429C138.41 258.038 137.438 257.285 136.822 256.331C136.199 255.383 135.806 254.336 135.531 253.279C135.01 251.152 134.868 248.952 135.135 246.788C135.379 244.624 136.036 242.504 137.042 240.565C137.543 239.598 138.123 238.67 138.736 237.775C139.335 236.877 140.013 236.022 140.405 235.078C140.808 234.1 141.079 233.077 141.222 232.033C141.367 230.989 141.364 229.922 141.381 228.849C141.394 227.775 141.459 226.681 141.713 225.618C141.991 224.571 142.306 223.527 142.797 222.553C143.267 221.572 143.833 220.638 144.527 219.793C145.215 218.951 145.984 218.162 146.871 217.519C148.622 216.224 150.756 215.359 152.958 215.326Z" fill="#7689CC"/>
<path d="M145.598 203.314C143.379 209.514 141.056 215.677 138.736 221.837L131.684 240.29L124.476 258.687C122.041 264.807 119.619 270.931 117.062 277.004L120.513 267.753L124.005 258.511L131.067 240.065L138.265 221.665L141.906 212.48L145.598 203.314Z" fill="#7689CC"/>
<path d="M168.87 211.125C167.078 217.447 165.216 223.749 163.346 230.045L157.652 248.919L151.813 267.746C149.842 274.012 147.86 280.275 145.808 286.518C147.599 280.192 149.459 273.893 151.332 267.594L157.026 248.723L162.865 229.899C164.836 223.633 166.818 217.367 168.87 211.125Z" fill="#7689CC"/>
<path d="M134.336 251.493C133.509 252.517 132.798 253.621 132.131 254.747C131.47 255.881 130.82 257.014 130.329 258.22C129.818 259.416 129.394 260.649 129.008 261.891C128.605 263.137 128.307 264.383 128.138 265.669C127.809 268.227 127.806 270.844 128.304 273.366C128.554 274.622 128.961 275.855 129.594 276.951C130.221 278.035 131.142 278.999 132.314 279.384C133.482 279.788 134.8 279.562 135.965 279.049C137.137 278.535 138.214 277.78 139.193 276.928C141.157 275.222 142.803 273.151 144.135 270.934C145.422 268.684 146.309 266.209 146.963 263.697C147.291 262.438 147.552 261.162 147.728 259.873C147.82 259.227 147.877 258.581 147.915 257.928C147.942 257.282 148.009 256.619 147.911 255.983C148.101 257.269 148.009 258.594 147.901 259.89C147.776 261.195 147.562 262.488 147.278 263.77C146.678 266.322 145.845 268.836 144.578 271.176C143.938 272.339 143.179 273.432 142.346 274.47C141.513 275.503 140.602 276.481 139.593 277.369C138.587 278.25 137.476 279.049 136.219 279.612C134.983 280.169 133.486 280.46 132.1 279.993C130.718 279.523 129.713 278.419 129.049 277.256C128.375 276.073 127.968 274.781 127.714 273.479C127.233 270.871 127.226 268.2 127.636 265.599C127.836 264.297 128.182 263.001 128.615 261.769C129.032 260.529 129.482 259.29 130.034 258.094C130.58 256.891 131.277 255.768 131.982 254.661C132.69 253.551 133.455 252.474 134.336 251.493Z" fill="#7689CC"/>
<path d="M159.58 217.082C160.176 215.147 160.413 213.122 160.145 211.154C160 210.19 159.8 209.176 159.427 208.305C159.028 207.456 158.367 206.621 157.527 206.35C156.67 206.078 155.668 206.32 154.814 206.797C153.944 207.264 153.175 207.917 152.457 208.609C151.742 209.312 151.105 210.097 150.59 210.952C150.065 211.814 149.571 212.705 149.3 213.679C149.656 211.678 150.695 209.809 152.087 208.271C152.778 207.493 153.595 206.817 154.523 206.287C155.43 205.76 156.592 205.402 157.737 205.74C157.879 205.773 158.001 205.862 158.133 205.922C158.259 205.992 158.401 206.041 158.502 206.144C158.716 206.326 158.953 206.502 159.116 206.711C159.471 207.115 159.766 207.579 159.976 208.069C160.193 208.57 160.311 209.077 160.423 209.574C160.541 210.077 160.613 210.591 160.647 211.104C160.728 212.132 160.677 213.166 160.501 214.173C160.308 215.177 160.006 216.158 159.58 217.082Z" fill="#7689CC"/>
<path d="M122.671 252.746C121.577 254.237 120.483 255.718 119.487 257.256C118.501 258.796 117.58 260.374 116.855 262.037C116.113 263.69 115.582 265.427 115.27 267.209C114.965 268.989 114.925 270.818 115.067 272.647C114.979 272.196 114.894 271.742 114.82 271.288C114.762 270.834 114.728 270.374 114.681 269.913C114.657 269.453 114.677 268.989 114.671 268.525C114.684 268.064 114.738 267.604 114.769 267.14C114.969 265.294 115.5 263.485 116.249 261.782C117.011 260.082 117.97 258.475 119.07 256.981C120.164 255.483 121.37 254.068 122.671 252.746Z" fill="#7689CC"/>
<path d="M156.386 264.121C156.755 265.904 156.877 267.736 156.822 269.562C156.772 271.391 156.504 273.217 156.05 274.996C155.579 276.772 154.922 278.512 153.971 280.103C153.483 280.888 152.965 281.66 152.335 282.343L151.857 282.846L151.329 283.303C150.997 283.628 150.573 283.847 150.201 284.109C150.895 283.506 151.573 282.893 152.084 282.144C152.646 281.438 153.103 280.656 153.527 279.864C154.347 278.267 154.966 276.574 155.413 274.837C155.871 273.101 156.152 271.325 156.318 269.536C156.477 267.743 156.484 265.937 156.386 264.121Z" fill="#7689CC"/>
<path d="M156.016 231.897C156.057 231.099 155.945 230.31 155.698 229.561C155.478 228.812 155.129 228.1 154.702 227.447C154.265 226.801 153.771 226.191 153.192 225.668C152.619 225.118 151.976 224.733 151.251 224.491C150.536 224.23 149.744 224.203 148.971 224.259C148.189 224.306 147.423 224.518 146.678 224.78C145.933 225.045 145.212 225.406 144.565 225.866C143.914 226.31 143.298 226.847 142.939 227.573C143.159 226.788 143.759 226.158 144.368 225.615C145.002 225.084 145.723 224.66 146.485 224.322C147.992 223.643 149.788 223.355 151.461 223.878C152.27 224.157 153.049 224.64 153.622 225.23C154.214 225.817 154.739 226.473 155.136 227.195C155.932 228.623 156.375 230.313 156.016 231.897Z" fill="#7689CC"/>
<path d="M138.719 244.127C138.573 245.641 138.607 247.176 139.068 248.574C139.291 249.273 139.633 249.933 140.101 250.476C140.554 251.023 141.14 251.477 141.818 251.692C143.176 252.179 144.707 251.765 145.936 250.93C147.183 250.108 148.101 248.856 149.042 247.646C148.69 248.325 148.297 248.985 147.857 249.624C147.403 250.254 146.865 250.837 146.235 251.331C145.608 251.818 144.88 252.209 144.067 252.401C143.264 252.593 142.394 252.57 141.598 252.298C140.795 252.03 140.114 251.493 139.613 250.857C139.115 250.217 138.753 249.482 138.583 248.71C138.377 247.951 138.343 247.166 138.346 246.397C138.38 246.009 138.427 245.628 138.471 245.247C138.546 244.873 138.631 244.498 138.719 244.127Z" fill="#7689CC"/>
<path d="M130.071 225.383C129.831 226.903 129.868 228.381 130.139 229.839C130.403 231.301 130.895 232.706 131.531 234.114C130.451 232.981 129.784 231.489 129.492 229.952C129.218 228.421 129.326 226.758 130.071 225.383Z" fill="#7689CC"/>
<path d="M167.549 237.782C167.448 238.547 167.116 239.28 166.689 239.939C166.269 240.602 165.737 241.192 165.155 241.715C164.565 242.235 163.932 242.706 163.241 243.087C162.899 243.279 162.543 243.451 162.171 243.591C161.801 243.723 161.409 243.862 161.009 243.832C161.385 243.72 161.703 243.514 162.025 243.309C162.347 243.11 162.655 242.888 162.96 242.666C163.566 242.216 164.155 241.745 164.708 241.241C165.829 240.244 166.818 239.137 167.549 237.782Z" fill="#7689CC"/>
<g style="mix-blend-mode:multiply" opacity="0.502">
<path d="M157.077 283.516C157.077 283.516 157.077 283.519 157.073 283.519C151.735 290.958 139.935 290.971 131.111 288.161C130.542 287.982 129.98 287.79 129.414 287.601L129.421 287.585C128.663 287.336 126.945 286.895 123.673 285.335C122.688 285.01 117.851 282.068 117.712 281.693C117.688 281.63 117.719 281.577 117.804 281.534C122.007 279.51 129.472 281.494 134.702 280.586C136.527 280.268 139.427 279.778 141.669 277.594C143.095 276.203 144.317 274.662 145.303 272.945C147.4 269.301 150.97 260.864 152.44 255.181C159.339 228.474 161.591 223.918 164.86 213.553C165.371 212.649 166.367 209.368 167.885 207.003C168.315 206.333 168.318 206.346 168.853 206.95C173.392 212.168 172.19 216.84 169.859 223.199C169.497 224.193 168.819 225.277 168.576 226.287C168.582 226.357 168.105 227.682 169.3 228.574C170.51 229.671 171.638 231.072 171.688 232.679C171.827 237 169.866 242.64 166.574 245.642C165.785 246.361 164.078 246.848 163.099 247.017C161.676 247.265 160.474 248.14 160.04 249.641C159.661 250.95 159.468 253.18 159.4 254.532C158.953 262.803 160.762 265.205 159.61 277.048C159.278 279.394 158.509 281.541 157.077 283.516Z" fill="#D1DBFF"/>
</g>
<path d="M42.7905 22.9249C44.7075 23.4286 46.7229 23.3822 48.623 22.9216C50.5231 22.4776 52.3759 21.7619 54.11 20.8904C54.9771 20.4497 55.8103 19.9494 56.6198 19.4092C57.426 18.8658 58.205 18.2727 59.0348 17.7226C59.8646 17.1693 60.7588 16.6756 61.7207 16.3376C62.6793 15.9996 63.6785 15.7909 64.6912 15.6981C66.7031 15.5324 68.8166 15.814 70.6084 16.8446C71.4856 17.3714 72.2714 18.0905 72.7659 18.9917C73.2943 19.8665 73.5314 20.9401 73.3485 21.954C73.1792 22.9713 72.6372 23.8726 71.9835 24.6248C71.323 25.3769 70.5373 26.0198 69.66 26.5002C67.9258 27.5109 65.9004 27.8985 63.9494 28.0112C64.068 27.9748 64.1797 27.9217 64.3051 27.8985L64.6743 27.8555L65.4058 27.7726C65.8868 27.66 66.3745 27.597 66.8386 27.4313C67.7836 27.1663 68.671 26.7388 69.4907 26.2318C70.3239 25.7381 71.0622 25.0953 71.6651 24.3663C72.2579 23.6373 72.7287 22.7891 72.8472 21.8778C73.1013 20.0454 71.9192 18.2661 70.3002 17.3482C68.6541 16.4171 66.6557 16.1653 64.7488 16.3376C63.7902 16.4171 62.8385 16.606 61.9307 16.9175C61.0264 17.2256 60.1796 17.6796 59.3701 18.2097C57.7613 19.28 56.166 20.516 54.337 21.3311C52.5283 22.1694 50.6518 22.8388 48.6907 23.2298C46.733 23.5943 44.6669 23.5711 42.7905 22.9249Z" fill="#3D4357"/>
<path d="M51.9829 23.6243C51.2276 24.9861 49.3004 25.3904 48.247 24.1312C48.22 24.1014 48.1928 24.0683 48.1691 24.0351C47.6069 23.2962 47.5087 22.501 47.8541 21.6925C48.5688 20.0125 50.5096 19.9098 51.5494 20.8873C51.9186 21.2319 52.176 21.7123 52.2268 22.3088C52.2641 22.7561 52.22 23.2001 51.9829 23.6243Z" fill="#F18BAB"/>
<g style="mix-blend-mode:multiply" opacity="0.251">
<path d="M51.983 23.6242C51.2276 24.9861 49.3004 25.3903 48.2471 24.1312C49.7916 23.4552 50.8687 22.0701 51.5495 20.8872C51.9186 21.2318 52.1761 21.7123 52.2269 22.3087C52.2641 22.756 52.2201 23.2001 51.983 23.6242Z" fill="#F18BAB"/>
</g>
<path d="M50.2996 20.9634C50.1065 21.4704 49.8322 21.8415 49.5781 22.2126C49.4426 22.3882 49.3275 22.5704 49.2056 22.7428C49.0904 22.925 48.9752 23.094 48.9211 23.3657C48.7009 23.1735 48.667 22.8422 48.7212 22.5771C48.7686 22.302 48.8906 22.0568 49.0396 21.8448C49.3512 21.4273 49.7576 21.0926 50.2996 20.9634Z" fill="white"/>
<path d="M26.3091 9.29321C26.7833 10.1746 27.0509 11.172 27.0949 12.1793C27.1491 13.1866 26.9899 14.1973 26.7325 15.1748C26.4717 16.1489 26.0991 17.09 25.7333 18.0178C25.5538 18.485 25.3709 18.9389 25.2591 19.4095L24.9407 20.8542C24.6223 22.7926 24.5885 24.784 25.0694 26.6794C25.5572 28.5615 26.5767 30.3077 28.0365 31.6C29.4658 32.932 31.3795 33.7041 33.3372 33.9592C33.5811 33.9857 33.8284 34.0288 34.0756 34.0487L34.8208 34.0553C35.3187 34.0785 35.8166 34.0454 36.3111 33.9891C37.2967 33.8698 38.2688 33.6246 39.224 33.3131C41.1309 32.6736 43.0242 31.8684 45.0056 31.3515C45.998 31.103 47.004 30.9042 48.0133 30.7517C49.0261 30.5927 50.0693 30.5629 51.0685 30.7749C50.0591 30.6324 49.0362 30.7219 48.0438 30.9207C47.048 31.1195 46.0658 31.3614 45.0971 31.6563C43.1495 32.2263 41.3172 33.0712 39.3899 33.7836C38.4246 34.1315 37.4186 34.4132 36.3822 34.5391C35.864 34.6054 35.3424 34.6451 34.8208 34.6286L34.0384 34.6253C33.7775 34.6087 33.5201 34.5689 33.2593 34.5391C31.1932 34.2939 29.1407 33.492 27.5928 32.0771C26.0415 30.6755 24.978 28.8034 24.4869 26.8186C24.0127 24.8238 24.0364 22.7462 24.4462 20.7647L24.8154 19.2935C24.9509 18.7998 25.1541 18.3259 25.3472 17.8654C25.7435 16.9475 26.133 16.033 26.4243 15.0886C26.7223 14.1476 26.9256 13.1701 26.9222 12.1826C26.9222 11.1952 26.7189 10.2078 26.3091 9.29321Z" fill="#3D4357"/>
<path d="M24.2599 22.3881C22.7289 22.0004 21.8619 20.2708 22.8509 18.9652C22.8746 18.9321 22.9017 18.899 22.9288 18.8691C23.5249 18.1534 24.2904 17.8684 25.1744 18.001C27.0136 18.2727 27.586 20.0885 26.8713 21.3145C26.6173 21.7486 26.2041 22.1098 25.6249 22.2987C25.1913 22.4445 24.7375 22.5107 24.2599 22.3881Z" fill="#F18BAB"/>
<g style="mix-blend-mode:multiply" opacity="0.251">
<path d="M24.2599 22.3882C22.7289 22.0005 21.8619 20.2709 22.8509 18.9653C23.8941 20.2676 25.53 20.9535 26.8713 21.3146C26.6173 21.7487 26.2041 22.1099 25.6249 22.2988C25.1913 22.4446 24.7375 22.5108 24.2599 22.3882Z" fill="#F18BAB"/>
</g>
<path d="M26.492 20.145C25.9433 20.0853 25.5098 19.9163 25.0796 19.7639C24.8696 19.6777 24.663 19.6115 24.4598 19.5386C24.2532 19.4756 24.0567 19.406 23.7756 19.4193C23.9111 19.1641 24.2362 19.0515 24.5106 19.0382C24.7951 19.015 25.0661 19.0747 25.3133 19.1641C25.801 19.3596 26.2312 19.6612 26.492 20.145Z" fill="white"/>
<path d="M61.9375 23.3489C63.5734 22.3516 65.1721 23.8062 65.836 25.569C65.8428 25.5889 66.4389 27.0369 66.422 27.2722C66.3881 27.6864 66.6489 28.021 66.7336 28.4021C66.8657 28.9952 68.3966 28.5744 73.0606 31.4174C74.3274 32.1895 76.0514 33.4387 77.3588 34.784C79.4655 36.9477 81.4199 39.2672 83.2489 41.6861C86.4937 45.9738 89.3456 50.5763 91.9841 55.1855C96.0215 62.2433 98.9547 69.9307 104.804 75.8289C105.19 76.2165 105.204 76.3458 104.885 76.8097C102.43 80.3585 97.3085 83.8609 93.4134 85.9219C89.7588 87.8537 86.4801 89.1294 82.5444 90.4449C73.1859 93.5762 59.9053 95.2727 50.0083 94.2389C47.9693 94.0268 47.3529 94.1594 47.4883 93.4536C47.6035 92.8273 47.6814 92.1315 47.7254 91.3826C47.9557 87.5058 47.3156 82.2869 46.7601 79.0231C46.6246 78.2279 42.7228 63.9929 43.3358 50.0594C43.5526 45.0957 44.5314 37.3288 47.7965 33.5215C47.9727 33.3194 48.0641 33.1802 47.9219 32.9781C47.0886 31.7985 46.4451 30.092 46.838 28.7136C47.0243 28.0509 47.3495 27.4644 48.0167 27.1429C50.3876 26.013 52.5113 28.4187 53.2294 26.6061C53.6291 25.6021 54.5233 24.3927 55.6579 24.0382C56.8468 23.6703 58.0932 24.3629 58.9569 25.2078C59.4616 25.7049 59.6275 26.1191 59.9899 25.7877C60.3286 25.4829 60.6403 24.1376 61.9375 23.3489Z" fill="#F18BAB"/>
<path d="M54.5538 38.9429C53.3818 42.5546 52.7789 46.3254 52.8196 50.083C52.8602 53.8406 53.5004 57.5948 54.801 61.1237C56.0508 64.6692 57.9543 67.9861 60.3659 70.9086C60.6708 71.2698 60.9417 71.6641 61.2804 71.9988L62.2694 73.026C62.9028 73.7384 63.6446 74.3382 64.3593 74.9677C65.7852 76.2434 67.3975 77.2905 68.9657 78.4039C68.5728 78.1289 68.1494 77.8969 67.7294 77.6616C67.306 77.4297 66.9131 77.148 66.51 76.8863C65.7175 76.3429 64.8809 75.8425 64.1527 75.2096C63.4075 74.5999 62.6386 74.0101 61.9748 73.3143L60.9384 72.3036C60.5861 71.9723 60.2982 71.5846 59.9764 71.2267C57.4429 68.3208 55.4987 64.9343 54.1811 61.3358C52.9076 57.724 52.2472 53.9002 52.3149 50.083C52.3285 49.1287 52.4368 48.1777 52.4944 47.2267C52.6062 46.2824 52.7755 45.3446 52.9178 44.4036C53.1346 43.4758 53.3818 42.5546 53.6121 41.6335C53.9136 40.7289 54.2354 39.8342 54.5538 38.9429Z" fill="#BA457C"/>
<path d="M62.3507 34.2839C63.0959 35.8612 64.024 37.3556 65.1857 38.6578C65.7547 39.3139 66.3678 39.9368 67.0283 40.5068C67.6887 41.0866 68.3628 41.6036 69.1452 41.9912C69.9174 42.3922 70.7371 42.7268 71.5331 43.1444C72.3527 43.5453 73.0572 44.1119 73.7922 44.6189C75.1978 45.7289 76.4714 46.998 77.5485 48.4195C78.5849 49.8675 79.452 51.4216 80.1429 53.0485C80.7932 54.6921 81.3081 56.382 81.6129 58.1149C81.8907 59.8512 82.0261 61.6041 81.9956 63.3537C81.9143 65.0999 81.7078 66.8395 81.3047 68.536C81.5621 66.813 81.701 65.0833 81.6739 63.3503C81.6366 61.6207 81.4469 59.9009 81.115 58.2077C80.739 56.5211 80.2513 54.8644 79.5874 53.2739C78.8965 51.6933 78.0328 50.1923 77.0167 48.7973C75.9904 47.4089 74.7711 46.1663 73.423 45.0761C72.7117 44.5758 72.0411 44.0224 71.2655 43.6348C70.4966 43.2305 69.6837 42.866 68.9013 42.422C65.8089 40.5167 63.5971 37.5378 62.3507 34.2839Z" fill="#BA457C"/>
<path d="M49.9406 33.0909C52.2708 32.9517 54.5605 32.7529 56.8095 32.3122C57.934 32.1001 59.0449 31.8185 60.1322 31.4673C60.6707 31.285 61.2093 31.0928 61.7377 30.8708C61.9985 30.7515 62.2728 30.6521 62.5268 30.5229L62.913 30.3274L63.1128 30.2346C63.2042 30.2015 63.2686 30.2446 63.3397 30.2479C63.272 30.2578 63.1839 30.2413 63.1399 30.2744L62.9672 30.4102L62.6183 30.6687C62.3846 30.8443 62.1305 30.9868 61.8867 31.1492C61.382 31.4441 60.857 31.7092 60.3151 31.9378C59.2312 32.3984 58.0898 32.7132 56.9382 32.9451C54.6282 33.3792 52.2505 33.4587 49.9406 33.0909Z" fill="#BA457C"/>
<g style="mix-blend-mode:multiply" opacity="0.349">
<path d="M83.2489 41.6863C86.4937 45.974 89.3456 50.5765 91.9841 55.1857C96.0215 62.2435 98.9547 69.9309 104.804 75.829C105.19 76.2167 105.204 76.346 104.885 76.8099C102.43 80.3587 97.3086 83.8611 93.4135 85.9221C89.7588 87.8539 86.4802 89.1296 82.5444 90.4451C73.186 93.5764 59.9053 95.2729 50.0083 94.2391C47.9693 94.027 47.3529 94.1596 47.4884 93.4538C47.6035 92.8275 47.6814 92.1317 47.7254 91.3828C47.8982 91.131 48.0777 90.8825 48.2708 90.6472C49.7983 88.7552 51.6307 87.2011 53.6765 85.8823C56.2439 84.2256 58.7469 83.4403 61.2771 82.8968C64.0714 82.3004 71.3332 82.1546 74.7338 82.0154C76.9794 81.9227 78.9778 81.9061 81.2539 81.0346C87.5437 78.6323 89.2711 71.4585 87.9366 65.5736C86.9272 61.1268 83.9026 57.4157 83.1439 53.0087C82.4902 49.1915 82.016 45.4008 83.2489 41.6863Z" fill="#F18BAB"/>
</g>
<path d="M13.6855 89.408C18.3969 82.4727 23.3081 75.6468 28.111 68.7812C28.7918 67.797 29.9264 66.2596 30.8545 65.4974C33.7707 63.0918 37.5541 65.8884 36.9579 69.2616C36.9139 69.5101 37.2323 69.4406 37.8759 69.7454C38.6413 70.1099 39.3729 70.5042 40.0334 71.0476C40.8328 71.7037 41.5576 72.4161 42.1503 73.2511C42.7871 74.1458 43.5525 75.6336 43.5254 76.7105C43.5187 76.8795 43.5898 76.9987 43.7321 77.0849C48.1759 79.8418 53.0465 85.5046 55.7493 89.9183C61.0738 98.613 58.6283 100.167 61.0839 102.202C61.5378 102.579 61.8731 103.06 64.2034 104.024C64.7792 104.263 65.9579 104.551 66.7166 105.687C68.444 108.275 66.0866 111.503 63.1026 110.817C61.5243 110.456 61.1483 109.525 59.5835 108.139C58.8316 107.47 57.7714 106.817 56.7519 106.569C54.9974 106.141 53.6663 107.553 47.1801 106.943C41.0631 106.367 33.5607 104.19 27.569 100.237C27.0508 99.892 27.1185 100.571 24.7645 100.396C23.4063 100.293 22.126 99.902 20.9202 99.2923C20.4461 99.0471 19.9482 98.8218 19.5316 98.4805C18.9795 98.0232 18.3969 97.5957 17.9532 97.0258C17.7872 96.8171 17.7771 96.8237 17.54 96.943C14.1157 98.6726 10.7151 95.8329 11.826 92.7414C12.3849 91.1774 12.8895 90.7433 12.9573 90.571C13.1097 90.1668 13.3908 89.842 13.6855 89.408Z" fill="#BA457C"/>
<path d="M36.6497 69.762C35.4541 72.1941 34.1332 74.5699 32.7445 76.9027C31.3524 79.2387 29.8519 81.5052 28.3142 83.7517C26.7358 85.9685 25.1168 88.1588 23.3962 90.2728C21.6756 92.3835 19.894 94.4479 18.0074 96.4194C19.684 94.2756 21.3639 92.1416 22.9931 89.9713C24.6257 87.8009 26.2413 85.6239 27.7723 83.3873C29.3472 81.1838 30.8342 78.9173 32.3109 76.6475C33.7877 74.3744 35.2136 72.0682 36.6497 69.762Z" fill="#802C5A"/>
<path d="M28.6292 98.583C30.0721 97.1217 31.4506 95.6173 32.7445 94.0467C34.0383 92.4761 35.2814 90.8657 36.4127 89.1791C37.5846 87.519 38.6447 85.7894 39.671 84.0365C40.6973 82.2836 41.6457 80.4877 42.5737 78.6719C41.8963 80.5904 41.0563 82.4559 40.1181 84.2718C39.1765 86.0876 38.0994 87.8338 36.958 89.537C35.7691 91.2103 34.5193 92.8472 33.1306 94.3648C31.7453 95.8857 30.255 97.3172 28.6292 98.583Z" fill="#802C5A"/>
<path d="M46.8516 104.899C48.5925 103.143 50.2183 101.33 51.6002 99.3386C52.999 97.3538 54.1371 95.2166 55.1803 92.9932C54.6316 95.3855 53.5613 97.6653 52.1421 99.6998C50.7128 101.731 48.9312 103.53 46.8516 104.899Z" fill="#802C5A"/>
<path d="M57.5716 97.2876C57.1854 98.9477 56.3624 100.479 55.3971 101.88C54.4115 103.265 53.2598 104.581 51.8102 105.525C52.8974 104.21 53.9 102.887 54.8552 101.519C55.8171 100.151 56.7079 98.7522 57.5716 97.2876Z" fill="#802C5A"/>
<path d="M59.1737 100.78C59.0043 101.801 58.6216 102.768 58.0255 103.64C57.4124 104.501 56.6266 105.197 55.7189 105.721C56.2642 104.829 56.9314 104.084 57.4835 103.275C58.0525 102.48 58.5268 101.605 59.1737 100.78Z" fill="#802C5A"/>
<path d="M33.2661 99.2988C35.1798 99.8091 37.0054 100.505 38.8717 101.019C40.7346 101.549 42.6246 101.9 44.6026 101.913C43.6441 102.158 42.6313 102.231 41.6355 102.162C40.633 102.099 39.6473 101.9 38.6888 101.635C36.7751 101.088 34.9732 100.273 33.2661 99.2988Z" fill="white"/>
<path d="M16.595 92.0356C17.7025 89.8817 18.9964 87.8439 20.3546 85.8492C21.0422 84.8584 21.7467 83.8743 22.4918 82.92C23.2336 81.9657 24.0194 81.0346 24.8865 80.1797L22.9152 83.2116C22.2548 84.2189 21.5773 85.213 20.8999 86.207C19.5282 88.1885 18.1361 90.1568 16.595 92.0356Z" fill="white"/>
<g style="mix-blend-mode:multiply" opacity="0.251">
<path d="M61.846 110.293C61.5277 110.108 61.7444 109.836 61.8935 109.448C62.6047 107.603 60.5895 106.181 59.0755 104.955C54.9229 101.595 54.3031 96.7441 53.5884 95.2033C53.1481 94.2523 52.4097 92.8705 51.695 92.0985C50.513 90.8227 49.4969 89.6829 47.739 88.2282C47.0582 87.6649 46.3774 87.0254 46.1775 86.8829C46.0624 86.8034 43.9624 85.1632 42.8142 84.189C41.605 83.1651 40.3755 81.6939 40.2705 80.12C40.1824 78.7846 39.9894 77.8171 38.8446 77.0285C37.4559 76.0708 37.4728 76.1968 37.0867 75.9416C33.5574 73.5824 31.7419 69.3477 33.7572 65.1096C33.957 64.6921 34.0146 64.6524 34.4583 64.8247C36.2636 65.5139 37.1951 67.2767 36.9783 69.129C36.941 69.4404 36.9749 69.4206 37.2323 69.5001C39.5491 70.2357 41.9844 72.3431 43.0682 74.8747C43.8439 76.6839 43.2816 76.8064 43.7321 77.0848C50.8313 81.4885 58.8587 92.6353 59.7325 99.7494C60.0069 101.996 62.1238 103.159 64.1967 104.021C64.7793 104.266 65.9816 104.547 66.7607 105.754C67.411 106.761 67.4889 107.821 67.0113 108.915C66.2729 110.595 64.1459 111.625 61.846 110.293Z" fill="#802C5A"/>
</g>
<path d="M140.7 117.089C137.503 117.792 134.065 117.523 130.722 116.075C129.381 115.492 128.022 114.001 127.575 111.808C127.484 111.354 127.389 110.896 127.403 110.429C127.409 110.167 127.287 110.025 127.057 109.915C122.62 107.818 119.995 100.797 123.291 96.5519C125.557 93.6294 129.381 93.3643 132.531 95.3326C133.662 96.0383 133.848 96.5089 133.984 96.1311C134.031 95.992 134.173 95.3988 134.519 94.8488C134.712 94.5473 134.292 94.5307 133.662 93.6526C132.436 91.9395 132.134 90.0607 132.649 88.0593C133.645 84.1924 138.116 82.317 141.357 84.6795C141.872 85.0573 141.838 85.1136 142.153 84.8717C143.769 83.6357 146.167 84.1957 147.884 85.2594C154.861 89.5802 157.676 103.338 149.378 112.139C148.592 112.974 144.091 116.347 140.7 117.089Z" fill="#F7CDDC"/>
<g style="mix-blend-mode:multiply" opacity="0.251">
<path d="M153.618 93.4141C154.899 97.46 154.8 102.082 153.134 106.241C152.978 106.629 152.877 106.682 152.457 106.632C151.071 106.469 150.699 106.069 149.327 105.767C146.726 105.19 144.429 103.994 143.86 101.43C143.735 100.86 143.792 100.366 143.897 99.7927C144.206 98.1227 142.854 97.46 142.211 96.6216C141.218 95.3327 141.459 93.5036 141.963 91.9694C142.224 91.1742 142.417 90.7765 141.825 90.1503C140.808 89.0767 139.664 90.137 137.465 89.5837C135.809 89.1662 134.542 88.0694 133.943 86.2933C133.824 85.9388 133.882 85.6538 134.156 85.3655C136.094 83.3409 139.2 83.0659 141.408 84.7194C141.872 85.0673 141.879 85.0673 142.339 84.7459C142.932 84.3251 143.613 84.1925 144.324 84.176C146.414 84.1296 148.473 85.4285 149.916 86.8997C150.333 87.3238 152.717 90.5711 153.618 93.4141Z" fill="#F18BAB"/>
</g>
<g style="mix-blend-mode:multiply" opacity="0.251">
<path d="M124.662 95.2264C127.491 93.2515 131.094 93.9606 133.692 96.1906C134.305 96.7141 133.181 98.2085 134.481 101.701C134.651 102.152 134.908 102.516 135.281 102.821C135.725 103.185 136.148 103.563 136.649 103.858C137.266 104.216 138.461 104.378 137.723 104.733C136.415 105.359 134.028 105.25 132.06 103.696C130.366 102.357 130.708 99.8189 129.072 98.308C127.27 96.6446 125.238 97.8275 123.772 96.4126C123.629 96.2768 123.633 96.1707 123.758 96.0084C124.005 95.6869 124.337 95.4616 124.662 95.2264Z" fill="#F18BAB"/>
</g>
<path d="M133.906 96.6084C133.78 98.2387 133.916 99.8325 134.586 101.234C134.912 101.937 135.372 102.573 135.931 103.123C136.493 103.676 137.161 104.133 137.889 104.541C137.066 104.385 136.267 104.024 135.589 103.501C134.905 102.977 134.36 102.281 133.99 101.506C133.259 99.9485 133.269 98.1227 133.906 96.6084Z" fill="#F18BAB"/>
<path d="M123.579 99.7893C123.372 101.297 123.734 102.712 124.364 104.011C124.673 104.667 125.062 105.283 125.489 105.88C125.926 106.476 126.407 107.039 126.942 107.589C126.244 107.255 125.624 106.761 125.093 106.198C124.554 105.634 124.11 104.985 123.768 104.286C123.436 103.583 123.203 102.825 123.148 102.043C123.091 101.267 123.213 100.465 123.579 99.7893Z" fill="#F18BAB"/>
<path d="M140.47 86.7639C139.718 86.5519 139.054 86.3564 138.366 86.2271C138.024 86.1576 137.682 86.1178 137.337 86.0946C136.991 86.0813 136.646 86.0913 136.256 86.1642C136.507 85.856 136.9 85.6738 137.293 85.5943C137.692 85.5081 138.099 85.528 138.492 85.5943C138.878 85.6771 139.254 85.8063 139.593 86.0018C139.931 86.194 140.246 86.4392 140.47 86.7639Z" fill="#F18BAB"/>
<path d="M154.682 108.11C155.769 110.23 155.315 111.791 157.148 113.362C158.157 114.23 160.199 115.452 160.904 115.814C161.348 116.042 163.424 117.026 163.763 117.122C164.064 117.209 164.047 116.775 163.956 116.596C163.732 116.138 163.288 115.105 163.136 114.429C162.797 112.944 163.962 113.03 164.44 113.391C164.884 113.726 165.3 114.087 165.558 114.598C165.656 114.793 166.574 116.059 166.638 117.835C166.675 118.799 167.129 119.677 168.101 120.323C169.551 121.284 177.507 125.724 178.943 127.623C179.384 128.206 179.35 128.803 179.038 129.416C178.974 129.538 178.886 129.648 178.811 129.764C178.293 130.556 177.121 130.045 176.356 129.455C174.896 128.322 173.588 126.785 159.441 118.03C155.989 115.893 153.994 115.82 151.823 114.704C151.308 114.435 150.374 113.806 150.116 113.292C149.75 112.566 149.608 111.801 149.72 110.992C149.798 110.446 149.916 109.912 150.14 109.402C151.166 107.053 153.791 106.373 154.682 108.11Z" fill="#C8B2D8"/>
<g style="mix-blend-mode:multiply" opacity="0.349">
<path d="M178.696 129.91C178.534 130.102 178.296 130.188 178.036 130.168C176.156 130.039 176.173 128.531 168.057 123.534C168.037 123.521 160.701 118.793 160.68 118.779C160.569 118.693 160.636 118.597 160.745 118.554C160.928 118.478 161.124 118.494 161.314 118.484C163.929 118.362 167.62 121.284 169.663 122.842C171.255 124.058 172.386 125.082 173.92 125.642C174.523 125.86 175.478 125.97 176.068 125.615C176.291 125.476 176.451 125.536 176.637 125.665C178.398 126.921 180.244 128.084 178.696 129.91Z" fill="#C8B2D8"/>
</g>
<path d="M154.723 112.732C155.61 113.355 156.402 114.008 157.236 114.621C158.059 115.254 158.906 115.834 159.749 116.516C158.675 116.294 157.7 115.774 156.836 115.131C155.983 114.478 155.22 113.69 154.723 112.732Z" fill="#AA84B9"/>
<path d="M164.315 114.584C164.802 114.866 165.08 115.343 165.239 115.824C165.385 116.317 165.432 116.828 165.256 117.351C164.914 116.911 164.762 116.46 164.613 116.016C164.477 115.562 164.359 115.131 164.315 114.584Z" fill="#AA84B9"/>
<path d="M168.694 96.7775C168.833 96.973 168.687 97.1254 168.569 97.2844C168.247 97.7086 167.8 97.9869 167.349 98.242C163.905 100.19 162.699 99.0307 159.986 100.363C159.641 100.532 159.271 100.684 158.987 100.919C158.174 101.589 157.375 102.321 156.9 103.819C156.89 103.849 156.89 103.895 156.907 103.915C156.917 103.931 156.968 103.925 156.999 103.918C157.446 103.822 158.326 102.911 160.799 102.662C160.978 102.642 161.161 102.649 161.344 102.662C161.348 102.662 161.351 102.662 161.358 102.662C161.47 102.672 161.581 102.682 161.693 102.689C161.71 102.692 161.727 102.692 161.744 102.695C161.764 102.695 161.785 102.702 161.808 102.705C161.869 102.715 161.93 102.729 161.991 102.745C162.042 102.758 162.089 102.775 162.137 102.795C162.191 102.815 162.245 102.838 162.296 102.861C162.316 102.871 162.34 102.881 162.357 102.891C162.37 102.898 162.381 102.901 162.391 102.908C162.52 102.97 162.614 103.043 162.686 103.12C163.424 103.935 161.497 105.562 160.308 106.377C159.962 106.619 159.156 106.887 159.441 107.354C160.738 109.482 155.251 110.966 152.203 110.257C151.823 110.167 151.833 110.164 151.64 110.509C151.478 110.797 151.386 111.115 151.315 111.43C150.834 113.498 151.319 114.71 151.657 115.618C153.259 119.899 151.071 124.416 148.605 125.281C148.23 125.41 148.111 125.022 148.084 124.638C148.009 123.488 147.451 121.798 147.268 121.569C147.193 121.47 147.149 121.659 147.112 121.768C145.903 125.208 142.661 125.9 143.017 124.78C143.972 121.762 142.15 119.817 144.08 116.211C144.24 115.913 144.199 115.999 144.216 115.837C143.691 115.916 143.01 116.476 140.72 116.46C135.992 116.423 131.443 113.213 130.441 110.966C130.309 110.674 129.882 110.363 130.177 109.786C131.623 106.983 135.244 105.863 138.15 105.217C141.442 104.485 144.924 104.392 148.24 105.025C150.204 105.399 149.161 105.817 147.711 101.99C146.685 99.2792 145.964 95.8265 145.872 92.2644C145.815 90.0609 146.092 86.5552 147.193 84.6201C147.281 84.4643 147.373 84.3881 147.501 84.3848C147.576 84.3815 147.657 84.408 147.759 84.4544C149.916 85.4982 151.772 87.483 153.239 89.5904C153.947 90.611 154.563 91.6614 155.085 92.6455C156.921 96.1446 156.944 97.8179 157.066 98.1857C157.097 98.2884 157.138 98.2884 157.222 98.2023C157.798 97.6357 157.659 97.6324 158.736 97.1353C160.328 96.4063 162.492 96.3666 164.159 96.6648C165.067 96.8272 165.216 97.0492 167.393 96.8967C168.027 96.8504 168.481 96.4826 168.694 96.7775Z" fill="#AA84B9"/>
<g style="mix-blend-mode:multiply" opacity="0.251">
<path d="M153.239 89.5904C153.947 90.611 154.563 91.6614 155.085 92.6455C156.921 96.1446 156.944 97.8179 157.063 98.1857C157.063 98.1857 157.063 98.1857 157.066 98.1857C157.07 98.2255 157.073 98.2652 157.08 98.305C157.212 99.1466 156.094 99.763 155.2 99.4515C152.599 98.5535 153.131 93.3314 151.014 90.4088C150.079 89.1165 149.07 88.3345 148.314 86.9992C147.965 86.3762 147.098 84.4941 147.495 84.3848C147.498 84.3848 147.498 84.3848 147.501 84.3848C147.576 84.3815 147.657 84.408 147.759 84.4544C149.916 85.4982 151.772 87.483 153.239 89.5904Z" fill="#AA84B9"/>
</g>
<g style="mix-blend-mode:multiply" opacity="0.251">
<path d="M144.775 115.138C144.697 116.619 137.117 117.885 131.901 112.818C131.332 112.265 130.769 111.695 130.431 110.956C130.332 110.741 130.146 110.562 130.099 110.32C130.058 110.114 130.234 110.071 130.349 110.154C131.111 110.727 134.722 114.12 138.312 114.071C140.493 114.041 141.466 112.894 143.132 112.934C144.341 112.967 144.836 113.971 144.775 115.138Z" fill="#AA84B9"/>
</g>
<g style="mix-blend-mode:multiply" opacity="0.251">
<path d="M151.755 110.28C151.366 111.085 151.068 111.93 151.142 113.633C151.213 115.24 152.406 116.407 152.189 119.16C152.131 119.893 152.013 120.622 151.742 121.321C151.6 121.689 151.491 122.398 151.241 122.384C151.058 122.371 151.674 119.926 150.404 117.533C149.642 116.102 148.416 114.651 148.402 112.961C148.385 111.122 149.781 109.776 150.844 109.664C151.163 109.631 152.003 109.773 151.755 110.28Z" fill="#AA84B9"/>
</g>
<g style="mix-blend-mode:multiply" opacity="0.251">
<path d="M164 99.4413C162.272 99.7031 161.236 99.6534 159.475 100.638C157.554 101.708 157.06 103.457 156.745 104.147C156.711 104.223 156.565 104.223 156.524 104.15C156.169 103.517 156.257 102.619 156.501 101.89C157.053 100.256 158.215 99.2624 159.925 98.8714C161.534 98.5036 164.051 98.8946 164.792 97.3836C165.094 96.7739 164.965 96.9065 165.619 96.9197C166.442 96.9363 167.248 97.0125 168.173 96.7242C168.376 96.6613 168.582 96.6116 168.704 96.7839C169.131 97.3902 166.388 99.0801 164 99.4413Z" fill="#AA84B9"/>
</g>
<g style="mix-blend-mode:multiply" opacity="0.251">
<path d="M160.308 106.377C160.071 106.542 159.613 106.721 159.444 106.97C159.373 106.98 159.319 106.993 159.271 107.02C158.98 107.185 158.77 106.698 158.885 106.337C159.217 105.326 160.917 105.074 160.914 103.126C160.914 102.921 160.833 102.689 161.022 102.675C161.131 102.666 161.239 102.659 161.344 102.662C161.348 102.662 161.351 102.662 161.358 102.662C161.486 102.662 161.615 102.672 161.744 102.695C161.764 102.695 161.785 102.702 161.808 102.705C161.869 102.715 161.93 102.729 161.991 102.745C162.042 102.758 162.089 102.775 162.137 102.795C162.191 102.815 162.245 102.838 162.296 102.861C162.316 102.871 162.34 102.881 162.357 102.891C162.418 102.921 162.475 102.957 162.533 102.997C162.587 103.033 162.638 103.073 162.685 103.12C163.424 103.935 161.497 105.562 160.308 106.377Z" fill="#AA84B9"/>
</g>
<path d="M131.511 110.333C132.937 110.585 134.343 110.9 135.755 111.052C137.174 111.181 138.607 111.271 140.03 111.261C141.455 111.258 142.875 111.162 144.277 110.933C145.682 110.708 147.054 110.307 148.392 109.763C147.786 110.154 147.139 110.482 146.465 110.764C145.787 111.026 145.093 111.251 144.382 111.417C142.959 111.771 141.489 111.887 140.033 111.907C138.573 111.897 137.12 111.791 135.684 111.539C134.241 111.281 132.862 110.84 131.511 110.333Z" fill="#C8B2D8"/>
<path d="M148.05 88.5632C149.469 90.495 150.363 92.7482 151.081 95.0014C151.434 96.1446 151.691 97.311 151.85 98.4873C151.935 99.0738 151.996 99.6636 152.047 100.253C152.104 100.837 152.074 101.443 152.267 101.993C152.07 101.754 152.02 101.443 151.938 101.165L151.725 100.3L151.346 98.5768C151.085 97.4336 150.804 96.3004 150.455 95.1903C149.757 92.9437 149.012 90.7336 148.05 88.5632Z" fill="#C8B2D8"/>
<path d="M145.581 116.337C145.452 116.973 145.364 117.583 145.367 118.193C145.367 118.806 145.422 119.425 145.428 120.075C145.422 120.721 145.354 121.38 145.181 122.01C145.008 122.64 144.744 123.239 144.399 123.793C144.487 123.146 144.605 122.533 144.677 121.917C144.741 121.301 144.775 120.694 144.768 120.072C144.778 119.455 144.751 118.806 144.856 118.153C144.954 117.497 145.202 116.864 145.581 116.337Z" fill="#C8B2D8"/>
<path d="M148.758 116.059C148.799 116.642 148.975 117.152 149.181 117.673C149.388 118.189 149.611 118.739 149.72 119.333C149.926 120.522 149.72 121.708 149.303 122.789C149.205 121.622 149.276 120.509 149.073 119.445C148.988 118.912 148.805 118.388 148.69 117.812C148.565 117.248 148.524 116.606 148.758 116.059Z" fill="#C8B2D8"/>
<path d="M153.188 108.338C154.015 108.289 154.729 108.199 155.478 108.053C156.226 107.927 156.982 107.739 157.815 107.732C157.151 108.219 156.406 108.527 155.6 108.686C154.8 108.829 153.896 108.792 153.188 108.338Z" fill="#C8B2D8"/>
<path d="M159.522 104.68C158.994 105.111 158.425 105.366 157.859 105.621C157.287 105.86 156.728 106.088 156.06 106.241C156.43 105.668 157.002 105.296 157.595 105.035C158.198 104.786 158.834 104.627 159.522 104.68Z" fill="#C8B2D8"/>
</svg>
