<svg width="256" height="311" viewBox="0 0 256 311" fill="none" xmlns="http://www.w3.org/2000/svg">
<path d="M82.7871 104.742C82.6417 104.967 81.8557 105.724 81.3442 106.043C77.9237 108.175 71.8078 111.637 67.1114 113.471C66.1136 113.862 65.1786 114.18 64.3477 114.394C63.7896 114.537 62.93 114.318 62.4024 114.056C60.8177 113.27 59.7733 111.366 58.8437 108.927C57.9338 106.535 57.1335 103.626 56.0459 100.751C54.1527 95.7479 51.5756 93.982 50.0718 91.0927C49.3521 89.7145 49.065 89.334 48.855 87.9199C48.4692 85.3429 50.5689 85.2262 53.04 86.0086C54.1347 86.3532 54.3788 86.4717 54.779 86.4627C55.3802 86.4465 55.2527 85.6103 54.9548 85.1365C54.3501 84.18 53.3164 83.6416 52.5788 82.6025C51.7461 81.4343 51.6887 80.3108 52.0494 79.462C52.7995 77.7015 54.3752 76.4184 56.1393 75.6126C57.7311 74.8858 60.0102 74.1662 61.7276 74.8374C63.0807 75.3668 63.6281 77.1201 63.7788 78.4068C63.9331 79.6935 63.9816 80.6554 64.7963 81.1399C65.4657 81.5383 65.6685 80.2283 66.1495 78.8859C66.5066 77.8899 67.1742 76.3161 68.4376 76.2856C70.0186 76.2461 71.0164 78.1466 71.5583 79.3687C72.1003 80.5944 72.5561 81.8524 72.9994 83.114C73.3834 84.2087 73.7567 85.307 74.1677 86.3963C75.6572 90.3372 79.0382 94.0466 81.2724 97.3791C83.1065 100.112 84.1689 102.592 82.7871 104.742Z" fill="#E077A3"/>
<path d="M59.5507 82.6582C59.9545 82.581 60.2955 82.2849 60.7172 82.1791C60.8123 82.1539 60.8967 82.0947 60.9882 82.0516C61.3005 81.9027 61.4225 81.8058 61.5122 82.0445C61.9106 83.0889 63.3517 87.771 63.1166 88.8118C63.034 89.1726 62.7128 89.3305 62.379 89.1726C61.3489 88.6826 58.535 84.9337 57.8674 83.9916C57.7651 83.8462 57.7436 83.7278 57.9105 83.6452C58.2963 83.455 58.6319 83.1768 59.0231 82.9938C59.1308 82.9435 59.2367 82.8861 59.3264 82.8036C59.3838 82.7515 59.4592 82.7156 59.5507 82.6582Z" fill="#F7CDDC"/>
<path d="M71.2389 81.7359C71.3233 82.1127 71.352 82.4842 71.0936 82.7211C70.2698 83.4748 66.4797 83.7637 66.6538 81.9225C66.704 81.3913 67.1832 79.8695 67.9656 78.6528C69.1554 76.8008 70.7454 79.5106 71.2389 81.7359Z" fill="#F7CDDC"/>
<path d="M50.2208 88.5965C50.0593 87.9056 50.1992 87.3331 50.9081 87.2362C51.6582 87.1339 53.5533 87.4516 54.7683 88.0653C56.0155 88.6988 54.7539 90.7769 53.652 91.6473C52.857 92.2736 52.5232 92.3274 51.922 91.6581C51.5057 91.1951 51.1306 90.7051 50.8632 90.138C50.7681 89.9353 50.402 89.3682 50.2208 88.5965Z" fill="#F7CDDC"/>
<path d="M58.5225 89.4383C57.9231 89.4293 57.539 89.0793 57.0419 88.6648C56.0675 87.8518 55.0535 86.6782 55.0158 86.6226C54.9584 86.5382 54.9602 86.4844 55.0194 86.4036C55.6673 85.5314 56.4336 84.7759 57.2896 84.1083C57.6342 83.8409 57.5319 84.1101 58.4274 86.5382C58.8634 87.719 59.1129 88.3848 59.0034 88.9932C58.9693 89.1834 58.7594 89.4419 58.5225 89.4383Z" fill="#F7CDDC"/>
<path d="M61.9053 81.7234C64.0911 81.0827 64.6367 81.264 65.1535 81.1886C65.263 81.1724 65.3132 81.2101 65.3438 81.3322C65.5645 82.1738 66.1316 84.9536 65.6614 85.6948C64.8251 87.0156 62.2284 82.5722 61.8138 81.9298C61.7654 81.8526 61.7959 81.7772 61.9053 81.7234Z" fill="#F7CDDC"/>
<path d="M82.7871 104.743C82.6417 104.967 81.8557 105.724 81.3443 106.044C77.1988 108.628 69.0872 113.168 64.3477 114.394C63.7896 114.537 62.93 114.318 62.4024 114.056C60.8178 113.27 59.7733 111.366 58.8438 108.928C59.4611 109.057 60.2058 109.166 61.0995 109.225C68.9598 109.757 77.9381 104.708 81.233 97.4691C81.2456 97.4404 81.2599 97.4099 81.2725 97.3794C83.1065 100.113 84.1689 102.593 82.7871 104.743Z" fill="#BA457C"/>
<path d="M62.0847 77.9671C63.1722 78.3188 63.1345 78.3834 63.68 78.7136C63.9762 78.8913 63.7159 79.2017 64.1754 80.4454C64.362 80.9533 64.9165 81.1758 64.895 81.2242C64.8878 81.2404 64.877 81.2655 64.8627 81.2673C64.2794 81.375 59.6692 81.6226 55.87 85.5564C55.7785 85.6497 55.3801 86.2347 55.224 86.215C55.145 86.2042 55.2563 86.0894 55.1486 85.5779C55.0391 85.07 54.4343 84.4599 54.0503 84.1099C53.9014 83.9753 53.8511 83.8264 53.8637 83.6326C53.9947 81.6621 54.9297 80.1654 56.5861 79.0331C58.1707 77.9509 60.3026 77.3928 62.0847 77.9671Z" fill="#BA457C"/>
<g style="mix-blend-mode:multiply" opacity="0.251">
<path d="M82.787 104.742C82.6417 104.967 81.8557 105.724 81.3442 106.043C77.9237 108.175 71.8078 111.637 67.1114 113.471C66.9786 112.827 66.8583 111.989 66.8637 111.298C66.8709 110.541 67.0126 109.807 67.3177 109.109C68.3173 106.833 69.8176 104.974 71.928 103.395C74.3381 101.589 75.6984 101.054 75.9999 98.8974C76.3786 96.1804 74.1802 92.8102 73.3009 90.61C72.5848 88.8136 72.3587 86.5955 72.5723 84.9104C72.662 84.2159 72.8415 83.5716 72.9994 83.114C73.3834 84.2087 73.7567 85.307 74.1677 86.3963C75.6572 90.3372 79.0382 94.0466 81.2724 97.3792C83.1065 100.112 84.1689 102.592 82.787 104.742Z" fill="#BA457C"/>
</g>
<path d="M62.6088 79.9521C61.8802 79.8013 61.1444 79.7708 60.423 79.8534C60.0641 79.9 59.707 79.9646 59.3588 80.0616C59.0053 80.1585 58.6607 80.2554 58.3538 80.4259C57.7239 80.7561 57.1712 81.2388 56.6813 81.7718C56.2057 82.3173 55.7768 82.9203 55.4987 83.6112C55.6476 82.8791 56.0119 82.1935 56.4731 81.5977C56.9415 81.0055 57.5104 80.4815 58.1941 80.1172C58.3664 80.0292 58.5459 79.9539 58.7325 79.8929C58.912 79.8372 59.0932 79.7834 59.2781 79.7421C59.6477 79.6596 60.0228 79.5985 60.4015 79.5824C61.1588 79.5429 61.9197 79.6721 62.6088 79.9521Z" fill="#E077A3"/>
<path d="M76.7323 93.5854C76.0575 93.9587 75.3468 94.2315 74.6272 94.4809C73.9058 94.7196 73.1736 94.9332 72.4109 95.0444C73.0892 94.6712 73.7981 94.3984 74.5159 94.1507C75.2374 93.9121 75.966 93.6985 76.7323 93.5854Z" fill="#243159"/>
<path d="M72.7805 95.9418C73.5558 95.8019 74.3328 95.7678 75.1081 95.7588C75.8834 95.7624 76.6604 95.7911 77.4357 95.9257C76.6604 96.0675 75.8851 96.0998 75.1081 96.1087C74.3328 96.1051 73.5558 96.0764 72.7805 95.9418Z" fill="#243159"/>
<path d="M62.0847 100.36C61.55 100.915 60.9506 101.385 60.3368 101.835C59.7159 102.277 59.0806 102.697 58.3861 103.029C58.9227 102.469 59.5203 102 60.1322 101.552C60.7514 101.114 61.3849 100.694 62.0847 100.36Z" fill="#243159"/>
<path d="M62.5729 101.196C62.2355 101.902 61.8102 102.546 61.3634 103.178C60.9093 103.8 60.4338 104.41 59.8721 104.956C60.2112 104.247 60.6348 103.603 61.0798 102.973C61.5357 102.35 62.0094 101.742 62.5729 101.196Z" fill="#243159"/>
<path d="M65.132 100.358C65.3347 100.423 65.5286 100.511 65.7349 100.554C65.9395 100.6 66.1495 100.604 66.3523 100.568C66.5533 100.527 66.7507 100.451 66.9176 100.34C67.0827 100.225 67.2173 100.073 67.3106 99.8951C67.5008 99.5434 67.5421 99.1199 67.4721 98.7305C67.4021 98.3375 67.2083 97.9749 67.0037 97.6088L67.0019 97.6053L67.3124 97.4455C67.4865 97.8152 67.6964 98.1706 67.9728 98.4631C68.2456 98.7502 68.6009 98.9799 68.9939 99.0355C69.3869 99.0912 69.7943 98.9243 70.0814 98.63C70.225 98.4828 70.3434 98.3087 70.435 98.1203C70.5229 97.9301 70.5696 97.7237 70.6395 97.5245C70.5839 97.7291 70.5498 97.9391 70.4744 98.1383C70.3955 98.3357 70.286 98.5241 70.146 98.6874C69.8697 99.0176 69.4318 99.2419 68.9778 99.2096C68.5237 99.1773 68.1146 98.9458 67.7897 98.6497C67.4631 98.3482 67.2137 97.9821 67.0019 97.6053C66.9535 97.5209 66.984 97.415 67.0683 97.3666C67.1527 97.3199 67.2585 97.3504 67.3052 97.4348L67.3124 97.4455V97.4491C67.4936 97.8314 67.6821 98.2423 67.7305 98.6928C67.779 99.1396 67.7018 99.6026 67.4613 99.9849C67.3429 100.175 67.1778 100.337 66.9876 100.451C66.7919 100.563 66.582 100.626 66.3648 100.654C66.1495 100.679 65.9288 100.658 65.7242 100.595C65.516 100.538 65.3294 100.435 65.132 100.358Z" fill="#243159"/>
<path d="M62.1045 98.2875C61.5481 98.6267 60.8321 98.327 60.597 97.8658C60.3045 97.2897 60.5037 96.6311 61.0654 96.3494C61.6971 96.0317 62.336 96.3547 62.5729 96.8034C62.8743 97.3705 62.6285 98.0596 62.1045 98.2875Z" fill="#243159"/>
<path d="M70.7167 93.8549C70.2035 94.1708 69.4946 93.9016 69.2469 93.4135C68.9939 92.9164 69.1195 92.2039 69.7548 91.8773C70.2232 91.6368 70.8908 91.7427 71.2228 92.3546C71.5135 92.893 71.2766 93.6162 70.7167 93.8549Z" fill="#243159"/>
<path d="M65.132 100.358C65.3347 100.423 65.5286 100.511 65.7349 100.554C65.9395 100.601 66.1495 100.604 66.3523 100.568C66.5533 100.527 66.7507 100.452 66.9176 100.34C67.0827 100.226 67.2173 100.073 67.3106 99.8954C67.5008 99.5437 67.5421 99.1201 67.4721 98.7307C67.4021 98.3377 67.2083 97.9752 67.0037 97.6091L67.0019 97.6055L67.3124 97.4458C67.4865 97.8155 67.6964 98.1708 67.9728 98.4633C68.2456 98.7505 68.6009 98.9802 68.9939 99.0358C69.3869 99.0914 69.7943 98.9245 70.0814 98.6302C70.225 98.4831 70.3434 98.309 70.435 98.1206C70.5229 97.9303 70.5696 97.7239 70.6395 97.5247C70.5839 97.7293 70.5498 97.9393 70.4744 98.1385C70.3955 98.3359 70.286 98.5243 70.146 98.6876C69.8697 99.0178 69.4318 99.2422 68.9778 99.2099C68.5237 99.1776 68.1146 98.9461 67.7897 98.65C67.4631 98.3485 67.2137 97.9824 67.0019 97.6055C66.9535 97.5212 66.984 97.4153 67.0683 97.3668C67.1527 97.3202 67.2585 97.3507 67.3052 97.435L67.3124 97.4458V97.4494C67.4936 97.8316 67.6821 98.2426 67.7305 98.693C67.779 99.1399 67.7018 99.6029 67.4613 99.9851C67.3429 100.175 67.1778 100.337 66.9876 100.452C66.7919 100.563 66.582 100.626 66.3648 100.655C66.1495 100.68 65.9288 100.658 65.7242 100.595C65.516 100.538 65.3294 100.436 65.132 100.358Z" fill="#243159"/>
<path d="M67.6534 97.5067C67.1491 98.0774 66.2339 98.0092 65.5788 97.7525C64.6026 97.3685 64.7713 96.2164 65.8247 95.5937C68.0015 94.3069 69.0388 95.9454 67.6534 97.5067Z" fill="#243159"/>
<path d="M87.5499 162.448C86.5664 164.474 83.7059 164.617 83.0419 162.266C82.604 160.719 82.9468 158.575 83.3003 157.008C83.3559 156.766 83.469 156.579 83.6772 156.432C90.2274 151.815 89.7159 151.856 90.4517 151.978C91.7151 152.188 92.3109 153.627 91.8389 154.835C91.5518 155.567 90.8752 155.983 90.3781 156.026C89.8864 156.068 90.4015 156.184 90.6366 157.089C91.0529 158.691 89.9133 160.041 87.9752 160.027C87.8478 160.025 87.7096 159.948 87.5876 160.052C87.8011 160.746 88.0613 161.394 87.5499 162.448Z" fill="#E077A3"/>
<path d="M86.7136 158.711C86.6418 158.751 86.5073 158.733 86.3834 158.762C86.0514 158.839 86.3852 159.051 86.0407 159.975C85.7589 160.732 85.0698 161.296 84.0343 161.378C83.6718 161.409 83.2124 161.364 83.0078 161.312C82.9109 161.287 82.8571 161.229 82.8553 161.123C82.8355 159.243 82.9109 158.783 83.3165 156.946C83.3595 156.746 83.4618 156.585 83.6323 156.465C89.3319 152.425 89.4899 152.127 89.5204 152.42C89.5383 152.587 89.567 152.753 89.5598 152.919C89.5347 153.425 89.4414 153.916 89.1561 154.349C88.5746 155.234 88.0847 154.889 88.1565 155.207C88.3449 156.047 88.3987 156.831 87.934 157.671C87.6666 158.15 87.2807 158.502 86.7136 158.711Z" fill="#F7CDDC"/>
<path d="M64.9435 168.411C65.1122 168.824 65.1158 169.271 64.9937 169.719C64.4248 171.826 61.2089 171.998 60.1519 169.832C60.055 169.635 59.9725 169.443 59.9509 169.222C59.9402 169.107 59.8774 169.084 59.7984 169.161C58.5135 170.417 56.4318 170.369 55.7229 168.63C55.3586 167.74 55.6152 167.327 55.3927 167.492C54.4882 168.165 52.8372 167.591 52.4263 166.274C52.2306 165.647 52.2594 165.03 52.6901 164.483C52.8211 164.317 52.988 164.197 53.1566 164.077C53.2751 163.993 53.2589 164.014 54.9135 163.993C61.2197 163.908 60.0694 163.937 60.9595 163.923C61.1784 163.917 61.3525 163.989 61.5194 164.131C62.6626 165.102 63.8219 166.266 64.563 167.555C64.7156 167.819 64.852 168.091 64.9435 168.411Z" fill="#E077A3"/>
<path d="M60.4983 167.639C60.396 167.517 60.3637 167.384 60.2542 167.354C60.1412 167.32 60.0478 167.442 59.9438 167.492C58.7952 168.038 57.1281 167.175 56.6166 165.642C56.4712 165.206 56.1985 165.954 55.093 165.423C54.4182 165.1 53.8763 164.389 53.8188 164.122C53.7847 163.96 53.6143 164.002 59.7123 163.928C60.1466 163.923 60.579 163.932 61.0115 163.923C61.2036 163.919 61.3507 163.991 61.4925 164.109C62.7487 165.161 63.5599 166.073 64.1862 166.954C64.4248 167.289 64.4266 167.341 64.3118 167.469C64.0857 167.718 63.838 167.944 63.5491 168.117C62.3808 168.809 61.2502 168.531 60.4983 167.639Z" fill="#F7CDDC"/>
<path d="M84.9047 155.651C85.0285 157.633 85.1254 161.516 85.1362 165.792C85.1541 172.973 84.9334 181.262 84.1887 183.487C84.0361 183.939 83.6682 184.137 83.0868 184.453C82.8696 184.569 82.6345 184.645 82.4138 184.749C82.028 184.934 82.0513 184.912 79.4563 185.766C78.7977 185.983 77.7963 186.224 77.0301 186.19C76.5078 186.166 75.1906 184.86 73.4983 182.889C68.303 176.844 59.5705 164.551 59.4162 163.939C59.2906 163.442 60.3835 164.195 66.7614 163.11C71.806 162.252 78.0817 159.912 82.4658 157.022C84.8724 155.438 84.1061 155.877 84.6158 155.517C84.7611 155.414 84.8939 155.475 84.9047 155.651Z" fill="#BA457C"/>
<g style="mix-blend-mode:multiply" opacity="0.251">
<path d="M85.1361 165.792C85.154 172.973 84.9333 181.262 84.1885 183.487C84.036 183.939 83.6681 184.137 83.0866 184.453C82.8695 184.569 82.6344 184.645 82.4137 184.749C82.0278 184.934 82.0512 184.912 79.4562 185.766C78.7976 185.983 77.7962 186.224 77.0299 186.19C76.5077 186.166 75.1905 184.86 73.4982 182.889C73.7297 182.895 73.9486 182.907 73.9989 182.906C74.7023 182.879 75.4291 182.681 76.0878 182.446C77.649 181.89 78.9106 180.905 80.0161 179.692C81.9632 177.556 81.8789 174.624 81.9955 173.183C82.2701 169.791 83.4779 167.395 84.9907 165.929C85.0391 165.882 85.0858 165.836 85.1361 165.792Z" fill="#BA457C"/>
</g>
<path d="M79.7758 172.845C79.3917 173.553 78.6183 174.75 78.0619 175.196C77.5074 175.645 76.8739 175.789 76.1776 175.647C71.1941 174.635 66.6717 169.314 69.7656 167.525C70.2017 167.271 70.6772 167.225 71.16 167.221C72.2905 167.209 73.466 167.718 74.4117 168.33C75.0363 168.736 75.135 169.045 75.2085 168.722C75.5531 167.187 76.5222 165.547 78.0189 164.797C78.3311 164.641 78.6506 164.581 78.9844 164.58C79.6376 164.576 80.1311 164.881 80.499 165.405C81.8054 167.27 80.8794 170.812 79.7758 172.845Z" fill="#E077A3"/>
<path d="M78.516 165.782C78.8139 165.924 79.0669 166.162 79.2554 166.442C79.4474 166.722 79.5712 167.044 79.643 167.374C79.7776 168.031 79.6932 168.745 79.3433 169.307C79.4258 168.659 79.4276 168.043 79.302 167.444C79.18 166.844 78.9323 166.288 78.516 165.782Z" fill="white"/>
<path d="M71.7503 162.23C68.5165 163.33 63.4521 163.876 60.0765 164.102C57.4995 164.273 54.6174 164.579 52.1068 164.041C51.8663 163.991 51.7766 163.888 51.7622 163.616C51.7353 163.072 52.0027 162.817 52.6003 162.747C54.2441 162.553 72.3174 164.441 88.5387 151.238C88.8671 150.969 89.208 150.689 89.6208 150.569C90.6778 150.262 91.4566 151.163 89.8272 152.453C86.8212 154.833 83.6 156.969 80.1454 158.718C77.0102 160.305 75.0936 161.094 71.7503 162.23Z" fill="#FFB3C9"/>
<path d="M36.2157 78.1539C34.4068 78.2311 32.6642 79.1499 31.3865 80.4169C29.644 82.1415 26.8121 83.8822 22.7689 84.941C21.536 85.264 19.3628 85.5691 19.169 85.5673C19.1528 85.5673 17.3816 85.6947 16.6763 85.6696C15.1294 85.6122 13.4173 86.418 12.1288 87.3296C10.5352 88.4548 9.85866 89.528 7.94025 90.4988C6.77915 91.0857 6.48125 90.9708 6.15463 91.1108C5.45474 91.1736 4.76742 91.1395 4.13393 90.7896C2.19757 89.7164 2.03606 87.1412 4.50361 86.1057C5.03122 85.885 5.39193 85.605 5.56063 84.9841C5.69881 84.4726 5.62703 84.286 5.46551 83.2379C5.17479 81.3536 6.79351 80.2966 8.39248 79.8444C10.3073 79.3006 12.1414 79.5896 13.9539 80.3558C14.2841 80.4958 14.6125 80.6484 14.9589 80.7453C17.8141 81.5421 21.1053 80.7489 23.5998 79.2809C27.0562 77.2494 30.683 75.0528 35.3095 73.2511C36.6087 72.745 37.9206 72.2425 39.2934 71.9769C40.512 71.7418 42.2617 71.5749 43.0405 72.7863C44.0096 74.2937 42.9436 75.9501 41.6174 76.7739C40.0238 77.7591 38.0965 78.0749 36.2157 78.1539Z" fill="#D1DBFF"/>
<g style="mix-blend-mode:multiply" opacity="0.502">
<path d="M11.3069 87.9666C10.3271 88.7957 9.43877 89.7307 7.97439 90.4808C6.81509 91.0766 6.5118 90.9725 6.14212 91.1125C5.52478 91.1538 4.91283 91.1502 4.33497 90.8882C3.64406 90.5759 3.1003 89.9227 2.99801 89.6625C2.87598 89.3502 3.46819 89.8652 4.8572 89.7953C7.05198 89.684 8.42663 88.2178 10.0077 86.897C11.9386 85.2855 14.3254 84.6071 16.8091 85.2173C17.2004 85.3142 17.6759 85.3465 18.0079 85.5905C18.0169 85.63 17.99 85.6372 17.9505 85.6426C16.9312 85.8041 14.7292 85.0755 11.3069 87.9666Z" fill="#D1DBFF"/>
</g>
<g style="mix-blend-mode:multiply" opacity="0.502">
<path d="M38.1432 77.9548C37.9081 77.9889 37.6748 78.0374 37.4397 78.0517C36.8977 78.084 35.1498 77.8615 32.8097 79.2774C32.7666 79.3044 32.7163 79.3654 32.6733 79.3349C32.6069 79.2882 32.6697 79.2218 32.6894 79.1698C32.7199 79.098 32.7612 79.0298 32.8061 78.9652C33.3319 78.2168 34.3171 77.6713 35.1624 77.2962C36.7649 76.582 38.1988 76.6825 39.3348 76.162C41.4452 75.2001 40.774 73.6209 42.1236 72.2462C42.2133 72.1565 42.2707 72.0901 42.3945 72.1547C42.5273 72.2265 42.653 72.3126 42.7427 72.4311C42.8863 72.6195 43.0352 72.8098 43.1411 73.0197C44.4745 75.656 40.8996 77.6767 38.1432 77.9548Z" fill="#D1DBFF"/>
</g>
<path d="M6.65892 82.7515C6.94965 83.2288 7.17217 83.7672 7.23499 84.3469C7.29959 84.9229 7.17756 85.5456 6.83838 86.0445C6.6679 86.2904 6.45793 86.5057 6.22463 86.6834C5.98775 86.8557 5.75625 87.0046 5.51218 87.1464C5.03123 87.4371 4.53772 87.692 4.05139 87.9701C4.45697 87.5825 4.911 87.2451 5.36144 86.9203C5.81188 86.5847 6.2677 86.2886 6.54945 85.8507C6.84556 85.4218 6.96939 84.896 6.964 84.363C6.95144 83.8282 6.82941 83.2863 6.65892 82.7515Z" fill="white"/>
<path d="M42.2743 69.8289C42.3282 71.0474 42.2564 72.2085 41.2676 73.3821C40.5497 74.2328 39.3492 75.0924 37.359 75.9843C36.0938 76.5514 20.7052 83.6579 15.8778 83.9863C13.4605 84.1497 11.0073 83.7046 8.83226 82.6386C7.88472 82.172 6.99281 81.596 6.18165 80.9194C5.05465 79.9808 4.00123 78.6851 3.66565 77.2441C3.53285 76.6644 3.58848 76.4922 3.57951 76.4347C3.56694 76.363 3.56335 76.2894 3.56335 76.2158C3.60463 73.89 9.86953 71.1999 12.0589 70.3457C16.9007 68.4614 21.7694 67.4008 21.8609 67.3721C22.4944 67.1801 26.8176 66.3563 26.8284 66.3546C30.9523 65.7623 32.0542 65.5524 35.9323 65.468C37.4218 65.4357 38.5237 65.5147 39.8445 66.2738C41.4237 67.1819 42.2259 68.6893 42.2743 69.8289Z" fill="#BA457C"/>
<path d="M14.4259 80.8386C14.7023 81.3214 14.9338 81.7844 15.2299 82.2079C15.5206 82.635 15.8652 83.0047 16.2743 83.3798C15.7306 83.2505 15.2622 82.8665 14.9427 82.4053C14.6287 81.9387 14.4367 81.3949 14.4259 80.8386Z" fill="#802C5A"/>
<g style="mix-blend-mode:multiply" opacity="0.251">
<g style="mix-blend-mode:multiply" opacity="0.251">
<path d="M41.2675 73.3821C40.5496 74.2327 39.3491 75.0923 37.3589 75.9842C36.0937 76.5513 20.7051 83.6579 15.8777 83.9863C13.4604 84.1496 11.0072 83.7045 8.83213 82.6386C7.88459 82.172 6.99268 81.5959 6.18153 80.9193C5.05453 79.9808 4.00111 78.6851 3.66552 77.244C3.53272 76.6644 3.58836 76.4921 3.57938 76.4347C3.56682 76.3629 3.56323 76.2893 3.56323 76.2157C3.68168 75.6971 4.08007 75.1964 4.44976 74.8195C4.56461 74.7029 4.69203 74.6616 4.85354 74.6796C5.45472 74.7442 6.02181 74.9182 6.56916 75.1677C10.8475 77.113 10.2158 82.6493 19.0882 81.5062C22.0834 81.1203 27.3253 78.1449 36.0434 74.1125C36.9479 73.6943 37.8613 73.4521 38.8555 73.3354C39.0153 73.3157 40.6717 73.2529 41.2675 73.3821Z" fill="#BA457C"/>
</g>
</g>
<path d="M15.0558 79.7152C10.0687 80.4295 3.88276 77.2908 2.49016 73.8523C2.27481 73.3193 2.26584 72.7899 2.45248 72.2534C2.77909 71.3202 3.4054 70.658 4.30808 70.2721C4.31885 70.2667 24.009 62.0942 27.6682 60.6926C31.9608 59.0506 41.9495 63.9049 41.9782 67.7543C41.9818 68.3735 41.1707 69.0105 40.6161 69.2977C40.2123 69.5058 40.9015 69.1756 38.1199 70.6687C33.1094 73.3552 20.1937 78.9669 15.0541 79.7027C15.0541 79.7081 15.0558 79.7117 15.0558 79.7152Z" fill="#FFB3C9"/>
<path d="M14.7471 80.1441C9.12469 80.9499 2.50447 77.1292 1.51206 73.7016C1.21775 72.6858 1.82791 70.9917 3.56328 70.2649C3.62968 70.2362 13.0602 66.3348 13.1966 66.2881C13.3061 66.2504 13.3671 66.2792 13.3958 66.3886C13.4622 66.647 13.4873 66.9073 13.4048 67.1675C13.2397 67.6951 12.7282 68.1348 12.267 68.4398C10.5227 69.592 5.20532 70.4731 3.76606 72.4633C3.54353 72.7684 3.39997 73.2619 3.56328 73.6298C4.10345 74.8519 5.44221 75.6756 6.63022 76.2804C7.81824 76.8852 9.84253 77.5994 11.0539 77.8812C15.4165 78.8969 19.5817 76.7165 23.4993 75.087C24.2566 74.7711 39.7852 68.2801 40.5999 67.5748C41.0827 67.1567 40.8799 66.4891 40.4617 66.0692C38.8269 64.4254 35.8012 63.4114 34.8716 61.7299C34.737 61.4894 34.6024 61.1843 34.6042 60.9133C34.6042 60.8613 34.6329 60.8272 34.6868 60.8398C36.1099 61.1538 42.565 64.14 42.8611 67.5461C42.9149 68.1814 42.181 68.8526 41.6228 69.1613C38.8681 70.6831 38.1288 71.1389 33.7697 73.1704C29.4268 75.1947 19.2749 79.4819 14.7453 80.1298C14.7453 80.1351 14.7453 80.1405 14.7471 80.1441Z" fill="#E077A3"/>
<path d="M37.4899 66.7636C37.2799 67.2087 36.991 67.625 36.6195 67.9893C35.9178 68.6821 35.1444 69.0356 34.1914 69.2097C31.6 69.678 29.1199 70.1572 26.6524 71.0976C24.5348 71.9051 22.4423 72.8527 20.4987 74.0209C20.0447 74.2919 19.5979 74.5791 19.1797 74.9021C17.5287 76.1762 15.2316 76.8474 13.4729 76.8474C7.86666 76.8456 5.61087 72.693 6.69839 70.1303C7.21164 68.9243 7.90255 67.7273 8.76037 66.5824C10.6985 63.9838 13.4855 61.6419 16.9616 60.025C22.1982 57.5879 28.6838 57.1626 33.9115 59.7881C35.4943 60.5831 36.8654 61.4265 37.5886 63.2893C38.0354 64.4414 37.996 65.6923 37.4899 66.7636Z" fill="#98ABEB"/>
<g style="mix-blend-mode:multiply" opacity="0.349">
<path d="M37.4899 66.7638C37.2799 67.2088 36.991 67.6252 36.6195 67.9895C35.9178 68.6822 35.1444 69.0357 34.1914 69.2098C31.6 69.6782 29.1199 70.1573 26.6524 71.0977C24.5348 71.9053 22.4423 72.8528 20.4987 74.0211C20.0447 74.2921 19.5979 74.5792 19.1797 74.9022C17.5287 76.1764 15.2316 76.8475 13.4729 76.8475C7.86666 76.8458 5.61087 72.6931 6.69839 70.1304C7.21164 68.9245 7.90255 67.7275 8.76037 66.5825C9.93582 67.3021 10.3809 68.5512 10.5406 69.9797C10.5549 70.1196 10.5783 70.256 10.598 70.3942H10.5962C10.7524 71.4853 10.7882 72.2893 11.6461 73.0897C12.2078 73.6119 13.5465 74.0462 15.0773 73.6927C18.085 72.9964 19.1438 71.0474 24.1525 68.8096C32.4471 65.1038 33.1542 67.5319 37.3499 66.7961C37.393 66.7889 37.4414 66.7763 37.4899 66.7638Z" fill="#98ABEB"/>
</g>
<path d="M28.2855 59.3611C28.919 59.4131 29.5507 59.4867 30.1734 59.6195C30.7997 59.7415 31.4135 59.9461 32.0057 60.1722C32.5979 60.4037 33.1811 60.6657 33.7375 60.9762C34.0174 61.1305 34.2902 61.2974 34.5522 61.4769C34.8178 61.6528 35.0601 61.8663 35.3257 62.0278C34.7371 61.7838 34.1915 61.4679 33.6154 61.2203C33.043 60.9636 32.4669 60.7196 31.8801 60.4971C31.295 60.2673 30.7118 60.0574 30.1088 59.8815L28.2855 59.3611Z" fill="white"/>
<path d="M29.2132 60.9152C29.5757 61.0211 32.0379 61.9381 31.3416 62.4442C30.8678 62.7887 30.1823 62.3993 27.3935 63.2463C22.8209 64.6354 19.3753 67.3595 18.7185 67.7418C17.7638 68.2963 16.1881 68.9603 15.158 68.9119C15.0288 68.9047 14.1279 68.9836 13.5483 68.4704C12.922 67.9141 13.9216 66.6256 14.4976 66.0046C17.5161 62.7439 24.4648 59.528 29.2132 60.9152Z" fill="#D1DBFF"/>
<path d="M26.8822 61.8268C26.324 61.8627 25.7695 61.895 25.224 62.0027C24.6748 62.0852 24.1346 62.2126 23.6017 62.358C22.5357 62.6505 21.4912 63.0238 20.4988 63.5101C19.4939 63.9713 18.5409 64.5402 17.6508 65.1917C16.7535 65.8431 15.9585 66.6094 15.2568 67.4851C15.5763 67.0311 15.8598 66.5394 16.2582 66.1356L16.5453 65.8251L16.8522 65.5362C17.0532 65.3388 17.2686 65.1594 17.4875 64.9799C18.3615 64.2692 19.3377 63.6896 20.3499 63.1961C21.3728 62.7259 22.437 62.3401 23.5371 62.0978C24.6353 61.8573 25.7659 61.7317 26.8822 61.8268Z" fill="#7689CC"/>
<path d="M59.9007 151.782C58.693 152.34 56.8284 152.699 55.5811 152.254C52.8031 151.262 50.7878 148.828 49.5513 146.233C48.34 143.689 47.4553 140.351 48.2826 137.657C48.3203 137.528 48.3651 137.399 48.4136 137.271C48.6164 136.735 48.7402 136.212 49.799 135.236C51.6546 133.526 54.3501 132.984 57.0742 132.349C60.5342 131.543 60.0497 131.618 60.8231 131.433C64.5541 130.538 69.3528 128.214 70.417 127.543C70.9087 127.23 71.1151 127.266 73.9738 125.203C74.6612 124.707 77.1664 122.638 79.6465 121.619C81.4142 120.894 82.5215 120.849 83.6054 121.037C84.9693 121.276 86.3708 121.972 87.2825 122.676C91.2629 125.746 93.6012 133.057 89.5796 137.07C88.4615 138.186 86.8428 138.904 85.3569 139.412C85.0339 139.522 84.718 139.622 84.4147 139.714C82.2056 140.387 81.1037 140.345 77.6815 141.458C75.4903 142.172 71.4578 144.089 69.8409 145.126C64.2903 148.681 62.9246 150.382 59.9007 151.782Z" fill="#D1DBFF"/>
<path d="M84.5995 130.046C84.2568 131.536 83.6323 132.968 82.7457 134.226C81.8556 135.484 80.7537 136.573 79.5873 137.567C78.419 138.567 77.1556 139.45 75.8402 140.239C74.5247 141.031 73.1573 141.736 71.7467 142.343C71.0414 142.65 70.3218 142.917 69.6004 143.175L67.42 143.895C65.9682 144.369 64.5127 144.857 63.0107 145.189C61.5158 145.523 59.9778 145.752 58.4381 145.661C56.9055 145.555 55.3783 145.11 54.1113 144.243C55.4196 145.042 56.9324 145.442 58.4453 145.49C59.9635 145.546 61.4763 145.289 62.9497 144.927C64.4248 144.559 65.873 144.083 67.3195 143.593L69.4891 142.861C70.2016 142.599 70.914 142.33 71.6085 142.023C74.4063 140.835 77.0587 139.285 79.415 137.363C80.5922 136.403 81.7031 135.347 82.6075 134.127C83.067 133.522 83.46 132.867 83.7938 132.183C84.1222 131.498 84.3878 130.78 84.5995 130.046Z" fill="#7689CC"/>
<path d="M84.2192 129.219C83.5229 128.905 82.805 128.641 82.0693 128.444C81.3317 128.255 80.5798 128.128 79.8224 128.085C78.306 127.981 76.7824 128.14 75.2875 128.41C72.2959 128.953 69.3941 129.966 66.6753 131.322C65.9898 131.651 65.3222 132.017 64.66 132.388L62.6949 133.564C61.3831 134.344 60.082 135.139 58.8419 136.02C57.6109 136.907 56.4336 137.89 55.4897 139.08C54.5439 140.263 53.8656 141.672 53.6233 143.184C53.7866 141.659 54.4398 140.211 55.3551 138.974C56.2865 137.745 57.4601 136.724 58.684 135.803C59.9115 134.877 61.227 134.088 62.5316 133.291L64.4931 132.101C65.1589 131.721 65.8301 131.346 66.521 131.008C67.8974 130.33 69.3223 129.748 70.7777 129.262C72.2331 128.774 73.7262 128.386 75.2427 128.148C76.7573 127.905 78.3006 127.774 79.835 127.914C81.3694 128.058 82.8643 128.514 84.2192 129.219Z" fill="#7689CC"/>
<path d="M59.4378 133.617C58.8276 133.958 58.2408 134.341 57.6073 134.642C56.9756 134.949 56.3224 135.206 55.6638 135.446C54.998 135.679 54.3699 135.929 53.6969 136.171C53.0437 136.392 52.4209 136.702 51.9238 137.164C51.4178 137.614 51.0481 138.199 50.8238 138.836C50.7663 138.996 50.7125 139.156 50.6802 139.322C50.6407 139.488 50.5994 139.653 50.5797 139.82C50.5348 140.155 50.5295 140.496 50.551 140.837C50.6587 142.203 51.0104 143.565 51.6008 144.807C52.1787 146.054 52.9557 147.226 53.9481 148.173C54.4452 148.645 54.9962 149.051 55.6351 149.284C56.2667 149.526 56.9523 149.607 57.6252 149.523C57.9608 149.482 58.2964 149.403 58.6177 149.291C58.9245 149.173 59.2332 148.999 59.5383 148.834L61.3616 147.804C61.9753 147.466 62.5927 147.134 63.2351 146.852C63.8848 146.589 64.547 146.364 65.2038 146.124C64.5613 146.398 63.9099 146.653 63.2746 146.937C62.6465 147.238 62.0453 147.594 61.4477 147.951L59.6459 149.026C59.3409 149.2 59.043 149.379 58.7002 149.521C58.3646 149.647 58.0183 149.736 57.6611 149.788C56.9505 149.898 56.2057 149.826 55.5292 149.566C54.8472 149.324 54.246 148.889 53.7292 148.405C52.6919 147.427 51.888 146.233 51.2832 144.954C50.6856 143.665 50.3356 142.273 50.2351 140.855C50.2154 140.498 50.2226 140.137 50.2728 139.778C50.2962 139.599 50.341 139.425 50.3841 139.251C50.42 139.073 50.4774 138.902 50.5402 138.734C50.7807 138.055 51.1935 137.429 51.7462 136.963C52.2882 136.483 52.9557 136.173 53.6269 135.963C54.273 135.748 54.9495 135.495 55.6099 135.286C56.2721 135.071 56.9307 134.841 57.5678 134.56C58.2067 134.281 58.8097 133.926 59.4378 133.617Z" fill="#7689CC"/>
<path d="M80.018 139.26C81.1019 138.501 82.3438 137.998 83.573 137.532C84.8059 137.088 85.9329 136.378 86.8284 135.441C87.2681 134.969 87.6342 134.432 87.8944 133.847C88.1546 133.262 88.2982 132.629 88.3341 131.988C88.4023 130.705 88.1026 129.4 87.5696 128.228C87.0366 127.055 86.247 125.982 85.2205 125.201C84.7108 124.806 84.1401 124.499 83.5246 124.327C82.9091 124.155 82.2594 124.104 81.6134 124.133C80.9637 124.164 80.3195 124.262 79.7003 124.458C79.0776 124.65 78.48 124.919 77.8932 125.213C76.7159 125.788 75.5602 126.473 74.2771 126.807C75.5351 126.396 76.6549 125.693 77.8142 125.061C78.3975 124.749 78.9987 124.462 79.6321 124.248C80.2656 124.031 80.9314 123.912 81.5972 123.866C82.2648 123.817 82.9485 123.855 83.6054 124.036C84.2622 124.214 84.8759 124.541 85.4107 124.948C86.4928 125.757 87.3237 126.866 87.8854 128.085C88.431 129.311 88.7307 130.655 88.6517 132.008C88.5764 133.359 87.9806 134.68 87.0204 135.626C86.0711 136.573 84.8903 137.277 83.6323 137.691C83.0078 137.91 82.3832 138.111 81.7785 138.368C81.1719 138.624 80.5833 138.919 80.018 139.26Z" fill="#7689CC"/>
<path d="M78.7725 131.837C78.34 131.615 77.9058 131.396 77.4374 131.277C76.9726 131.15 76.4916 131.103 76.0125 131.096C75.0506 131.076 74.0923 131.236 73.1519 131.444C71.2694 131.862 69.4515 132.548 67.7125 133.384C66.8403 133.795 65.9807 134.247 65.1283 134.707C64.2759 135.164 63.4468 135.661 62.65 136.202C61.8604 136.749 61.1013 137.357 60.4929 138.102C59.8774 138.832 59.4251 139.724 59.3444 140.699C59.3444 139.719 59.7733 138.777 60.3601 137.994C60.9559 137.21 61.7096 136.566 62.4939 135.983C63.2799 135.398 64.1251 134.904 64.9758 134.428C65.8282 133.958 66.6824 133.493 67.5636 133.07C69.3312 132.252 71.1743 131.552 73.0981 131.182C74.0582 131.004 75.0362 130.872 76.0179 130.925C76.5078 130.96 76.9977 131.035 77.4643 131.189C77.9345 131.333 78.3598 131.584 78.7725 131.837Z" fill="#7689CC"/>
<path d="M79.1117 132.577C79.0023 133.047 78.8551 133.51 78.6595 133.955C78.4567 134.398 78.2126 134.822 77.9327 135.222C77.3584 136.013 76.6424 136.693 75.8761 137.293C74.3363 138.481 72.6584 139.479 70.8979 140.302C69.1285 141.11 67.2675 141.711 65.3796 142.145C64.4338 142.355 63.4629 142.522 62.4849 142.494C61.5122 142.472 60.5144 142.212 59.7535 141.6C60.5593 142.145 61.5338 142.355 62.4849 142.323C63.4414 142.318 64.389 142.122 65.3168 141.883C66.2428 141.63 67.1759 141.377 68.0822 141.063C68.9903 140.753 69.8804 140.39 70.7508 139.986C72.5023 139.199 74.1605 138.206 75.7146 137.079C76.488 136.516 77.2077 135.873 77.7963 135.12C78.0924 134.745 78.3526 134.341 78.5751 133.915C78.7905 133.487 78.9664 133.038 79.1117 132.577Z" fill="#7689CC"/>
<g style="mix-blend-mode:multiply" opacity="0.502">
<path d="M59.9007 151.782C58.693 152.34 56.8284 152.699 55.5811 152.254C52.8031 151.262 50.7878 148.828 49.5513 146.233C48.34 143.689 47.4553 140.351 48.2826 137.657C48.2933 137.652 48.3023 137.648 48.3149 137.644C50.0574 136.927 51.2777 137.029 52.726 137.548C54.7036 138.256 56.4156 139.505 57.6126 141.241C58.9083 143.116 60.7478 143.403 62.9031 143.253C66.153 143.023 69.1303 141.596 72.0357 140.239C74.4243 139.127 76.7142 137.684 79.4007 137.424C81.2096 137.25 83.0168 137.641 84.5027 138.725C84.6642 138.843 85.1236 139.173 85.3569 139.412C85.0339 139.522 84.718 139.622 84.4147 139.714C82.2056 140.387 81.1037 140.345 77.6815 141.458C75.4903 142.172 71.4578 144.089 69.8409 145.126C64.2903 148.681 62.9246 150.382 59.9007 151.782Z" fill="#D1DBFF"/>
</g>
<path d="M33.8433 114.966C34.344 116.134 34.7586 117.299 34.7729 119.293C34.7891 121.262 33.7787 122.581 34.6114 126.417C35.3885 129.994 36.7631 130.392 36.205 130.692C35.2162 131.229 34.0066 131.516 32.9496 131.88C28.2927 133.477 23.1889 134.62 18.4242 135.318C12.5326 136.182 10.9067 136.024 8.8609 136.047C8.55044 136.051 8.22741 136.056 7.87926 136.074C5.21789 136.106 4.89487 136.113 5.01152 135.72C5.89086 132.783 5.19815 129.127 3.56149 126.57C2.93339 125.588 2.35374 124.02 2.17966 122.39C1.95713 120.301 2.35015 120.073 2.25862 117.683C2.19043 115.937 1.72384 113.466 0.715278 111.494C0.130244 110.35 -0.253798 110.318 0.198438 110.049C1.56771 109.241 8.52172 107.339 10.284 106.837C10.5155 106.772 13.7511 106.047 15.133 105.801C19.9209 104.949 21.9775 104.816 25.6618 104.631C26.8283 104.572 31.3488 104.283 32.343 104.566C32.8976 104.724 31.7724 105.354 32.23 109.441C32.5405 112.204 33.2511 113.588 33.8433 114.966Z" fill="#98ABEB"/>
<path d="M29.1612 105.642C28.8597 107.77 29.181 109.918 29.7929 111.95C30.107 112.965 30.4605 113.97 30.8589 114.961C31.2483 115.951 31.697 116.942 31.9033 118.024C32.1043 119.112 32.0003 120.21 31.8639 121.271C31.7185 122.331 31.5965 123.39 31.539 124.451C31.365 126.577 32.0128 128.673 32.9155 130.604C32.6427 130.145 32.4094 129.659 32.2102 129.16C32.0074 128.664 31.8136 128.164 31.6575 127.647C31.3416 126.613 31.2465 125.517 31.2699 124.442C31.286 123.363 31.4206 122.294 31.548 121.231C31.6754 120.178 31.7598 119.112 31.5606 118.087C31.3757 117.059 30.9468 116.075 30.5646 115.076C30.177 114.076 29.8127 113.062 29.5363 112.023C29.2545 110.984 29.0535 109.922 28.9656 108.849C28.8938 107.775 28.9423 106.691 29.1612 105.642Z" fill="#4E63A6"/>
<path d="M3.47888 110.054C3.94009 111.018 4.41027 111.985 4.71894 113.023C5.00428 114.064 5.15861 115.133 5.25014 116.204C5.34525 117.278 5.33987 118.356 5.28423 119.431C5.21245 120.499 5.17297 121.56 5.35961 122.593C5.65751 124.691 7.07882 126.428 7.77332 128.479C8.1448 129.492 8.40681 130.558 8.45168 131.638C8.49475 132.711 8.45527 133.791 8.25786 134.845C8.3763 133.781 8.38169 132.709 8.2794 131.649C8.20223 130.588 7.91689 129.56 7.52388 128.575C7.12548 127.591 6.64812 126.64 6.13666 125.701C5.62341 124.756 5.19809 123.733 5.01505 122.652C4.832 121.572 4.88584 120.476 4.96839 119.413C5.03838 118.351 5.03658 117.285 4.98454 116.222C4.92711 115.162 4.80149 114.099 4.55384 113.068C4.30798 112.032 3.86831 111.05 3.47888 110.054Z" fill="#4E63A6"/>
<path d="M29.2097 115.472C29.0338 115.636 28.8023 115.729 28.5852 115.824C28.3626 115.916 28.1365 115.996 27.9086 116.074C27.4546 116.228 26.9952 116.368 26.5358 116.503C25.6115 116.761 24.6802 116.992 23.7488 117.215C21.8824 117.655 19.9981 118.017 18.1138 118.362C16.2223 118.678 14.3272 118.972 12.4196 119.178C10.5137 119.376 8.5917 119.534 6.67688 119.412C7.63339 119.399 8.58811 119.345 9.53924 119.246C10.4922 119.158 11.4397 119.044 12.3872 118.913C14.2805 118.652 16.172 118.36 18.0528 118.019C19.9389 117.703 21.8178 117.337 23.6913 116.955C24.6281 116.765 25.5631 116.562 26.4927 116.339C26.9575 116.23 27.4223 116.115 27.8817 115.986C28.1114 115.921 28.3411 115.853 28.5654 115.776C28.7898 115.697 29.0231 115.623 29.2097 115.472Z" fill="#4E63A6"/>
<g style="mix-blend-mode:multiply" opacity="0.349">
<path d="M34.773 119.293C34.7891 121.262 33.7788 122.581 34.6115 126.418C35.3885 129.994 36.7632 130.393 36.2051 130.692C35.2162 131.229 34.0067 131.516 32.9497 131.88C28.2927 133.477 23.1889 134.621 18.4243 135.319C12.5327 136.182 10.9068 136.024 8.86096 136.047C8.97582 135.801 9.09964 135.561 9.24859 135.333C9.9754 134.231 10.9552 133.422 12.1379 132.853C14.0563 131.929 15.0487 131.753 16.9312 131.473C17.3691 131.407 17.9721 131.398 18.1533 131.378C22.428 130.92 25.0302 130.895 26.8894 129.734C30.3601 127.571 29.5489 123.503 29.7715 120.399C29.8756 118.966 30.2793 118.146 31.1479 117.088C31.9806 116.075 32.8025 115.474 33.8434 114.966C34.3441 116.135 34.7586 117.299 34.773 119.293Z" fill="#98ABEB"/>
</g>
<path d="M14.0364 122.757C13.979 123.638 12.9417 123.975 12.2024 124.02C11.2512 124.078 10.8188 123.71 10.5567 122.904C10.5316 122.832 10.5119 122.757 10.4903 122.68C10.1458 121.386 9.3759 118.274 9.44769 116.93C9.47102 116.469 9.70072 116.151 10.1063 115.955C10.9354 115.555 12.118 115.489 12.6941 115.934C12.852 116.056 12.9399 116.176 13.0189 116.408V116.409C13.1338 116.75 13.2325 117.334 13.5196 118.523C13.638 119.019 14.119 121.486 14.0364 122.757Z" fill="white"/>
<g style="mix-blend-mode:multiply" opacity="0.502">
<path d="M13.5196 118.523C13.6381 119.019 14.119 121.486 14.0365 122.757C13.979 123.638 12.9418 123.975 12.2024 124.02C11.2513 124.077 10.8188 123.71 10.5568 122.904C10.6034 122.906 10.668 122.915 10.7542 122.925C11.7071 123.049 12.6044 122.369 12.6098 121.342C12.6116 121.052 12.5864 120.765 12.538 120.479C12.3298 119.295 12.0014 117.082 12.9938 116.422C13.0028 116.416 13.01 116.413 13.0189 116.409C13.1338 116.75 13.2325 117.333 13.5196 118.523Z" fill="#D1DBFF"/>
</g>
<path d="M11.0091 116.553C10.9175 116.709 10.8422 116.844 10.7919 116.98C10.7453 117.116 10.7148 117.253 10.7004 117.4C10.6609 117.691 10.6771 118.012 10.5945 118.36C10.4958 118.209 10.433 118.051 10.3917 117.883C10.3487 117.716 10.3343 117.54 10.354 117.357C10.3774 117.177 10.4402 116.991 10.5586 116.844C10.6735 116.695 10.835 116.591 11.0091 116.553Z" fill="#98ABEB"/>
<path d="M23.4365 121.14C23.7829 121.951 24.874 121.924 25.5847 121.718C26.5017 121.454 26.787 120.964 26.7637 120.115C26.7637 120.041 26.7583 119.963 26.7511 119.884C26.6453 118.548 26.3294 115.358 25.8126 114.114C25.6367 113.687 25.3137 113.464 24.8668 113.416C23.9516 113.315 22.8156 113.649 22.4208 114.259C22.3113 114.428 22.2701 114.572 22.2737 114.816V114.817C22.279 115.176 22.3795 115.76 22.5087 116.976C22.5608 117.484 22.9341 119.97 23.4365 121.14Z" fill="white"/>
<g style="mix-blend-mode:multiply" opacity="0.502">
<path d="M22.5088 116.977C22.5608 117.484 22.9341 119.97 23.4366 121.14C23.7829 121.951 24.874 121.924 25.5847 121.718C26.5017 121.454 26.7871 120.964 26.7637 120.115C26.7207 120.135 26.6614 120.164 26.5861 120.203C25.7283 120.639 24.6551 120.298 24.3069 119.331C24.2082 119.058 24.1365 118.778 24.088 118.493C23.887 117.307 23.4581 115.112 22.3006 114.821C22.2916 114.818 22.2827 114.818 22.2737 114.818C22.2791 115.177 22.3796 115.76 22.5088 116.977Z" fill="#D1DBFF"/>
</g>
<path d="M24.2153 114.283C24.393 114.258 24.5796 114.302 24.7376 114.405C24.8991 114.503 25.0193 114.66 25.1019 114.821C25.1808 114.986 25.2275 115.157 25.2418 115.329C25.2598 115.499 25.2526 115.672 25.2095 115.846C25.0157 115.544 24.9242 115.237 24.7896 114.975C24.7286 114.843 24.6532 114.724 24.5635 114.611C24.4702 114.498 24.3535 114.398 24.2153 114.283Z" fill="#98ABEB"/>
<path d="M29.3155 180.528C29.3317 180.65 29.3514 180.772 29.3586 180.896C29.3622 180.959 29.3676 181.02 29.3586 181.09C29.355 181.122 29.3478 181.162 29.3209 181.201C29.2958 181.241 29.2491 181.266 29.2132 181.276C29.0733 181.314 28.9674 181.323 28.8543 181.357C28.7377 181.386 28.6426 181.434 28.5133 181.474C28.0162 181.643 27.4904 181.598 27.0077 181.549C26.5196 181.495 26.0422 181.445 25.5666 181.458C25.0911 181.468 24.6191 181.546 24.1615 181.664C23.7057 181.786 23.2767 181.989 22.9089 182.271C22.5464 182.556 22.2502 182.929 22.06 183.36C21.8662 183.789 21.7711 184.264 21.7388 184.745C21.6993 185.228 21.7119 185.716 21.8124 186.197C21.6419 185.734 21.5916 185.233 21.5791 184.74C21.5701 184.245 21.6473 183.739 21.8249 183.263C21.999 182.784 22.3113 182.35 22.7097 182.023C23.1063 181.691 23.58 181.47 24.0682 181.334C24.5545 181.196 25.057 181.127 25.5595 181.12C26.0637 181.106 26.5608 181.181 27.0436 181.248C27.5245 181.309 28.0019 181.386 28.4487 181.258C28.6641 181.188 28.9638 181.136 29.1791 181.142C29.2527 181.156 29.2707 181.011 29.2832 180.894L29.3155 180.528Z" fill="#4E63A6"/>
<path d="M29.9473 182.213C30.0909 182.511 30.0532 182.859 29.9975 183.179C29.924 183.5 29.8019 183.81 29.644 184.096C29.3353 184.677 28.9154 185.187 28.447 185.639C27.9733 186.086 27.4492 186.482 26.8732 186.786C26.3007 187.093 25.6834 187.313 25.0535 187.439C25.6457 187.184 26.2038 186.886 26.735 186.552C27.2644 186.211 27.7561 185.818 28.2066 185.388C28.6606 184.959 29.0715 184.481 29.4089 183.959C29.4951 183.83 29.5758 183.695 29.644 183.557C29.723 183.421 29.7768 183.277 29.8342 183.132C29.9383 182.843 30.0137 182.531 29.9473 182.213Z" fill="#4E63A6"/>
<path d="M32.5261 180.663C32.1618 180.865 31.8729 181.068 31.5875 181.314C31.2986 181.553 31.0312 181.825 30.6866 182.064C30.8087 181.664 31.0474 181.321 31.3632 181.048C31.6773 180.785 32.1062 180.591 32.5261 180.663Z" fill="#4E63A6"/>
<path d="M31.3094 179.164C31.4835 179.545 31.4602 180.006 31.2933 180.395C31.1246 180.79 30.841 181.093 30.509 181.336C30.5593 181.129 30.6508 180.948 30.7351 180.772C30.8177 180.596 30.9038 180.431 30.972 180.259C31.1246 179.92 31.2053 179.571 31.3094 179.164Z" fill="#4E63A6"/>
<path d="M31.4314 182.38C31.4798 183.326 30.5107 183.642 29.8144 183.277C28.7144 182.701 28.0091 181.325 28.8203 180.557C29.0966 180.295 29.7552 180.221 30.3385 180.625C31.0814 181.138 31.3991 181.779 31.4314 182.38Z" fill="#98ABEB"/>
<path d="M15.2712 210.592C15.2407 210.515 15.1976 210.504 15.124 210.558C14.0096 211.364 14.1586 211.127 13.6812 211.445C13.5161 211.556 13.3223 211.635 13.1159 211.662C12.9257 211.685 13.01 211.768 12.2025 211.953C5.28075 213.534 0.422808 205.846 4.63829 200.171C5.38843 199.159 5.60916 199.315 5.35612 199.114C1.82438 196.302 2.77371 189.863 8.03544 188.135C10.25 187.408 12.5129 187.846 14.2268 189.237C14.7723 189.678 14.1406 188.867 15.0164 186.897C16.7266 183.049 22.0529 181.545 25.5434 184.4C27.0975 185.671 27.8871 187.568 27.7615 189.361C27.7454 189.581 27.9284 189.346 29.3192 189.529C34.2148 190.17 37.4361 195.432 35.1032 200.159C34.3387 201.711 32.9174 202.96 31.8101 203.457C31.6468 203.531 31.514 203.663 31.3363 203.721C30.8195 203.888 30.3188 204.105 29.7786 204.198C29.5148 204.243 29.3425 204.256 29.5041 204.48C29.6279 204.651 29.6871 204.837 29.7445 205.035C29.8091 205.259 29.9025 205.474 29.9581 205.704C30.6795 208.617 29.4269 211.822 26.4856 213.753C22.7564 216.199 17.0604 215.129 15.2712 210.592Z" fill="#98ABEB"/>
<g style="mix-blend-mode:multiply" opacity="0.349">
<path d="M25.8448 209.343C27.2571 208.06 28.3752 206.167 28.7807 204.999C28.953 204.507 29.0392 204.184 29.0984 204.094C29.1935 203.949 29.1074 203.911 28.9494 203.61C28.4398 202.644 27.7883 201.539 27.04 200.737C26.9305 200.618 26.8246 200.498 26.6847 200.415C26.6362 200.387 26.6147 200.336 26.629 200.277C26.6595 200.164 26.7941 200.161 27.0005 200.164C28.2998 200.184 29.5865 199.866 30.0459 199.646C30.3295 199.509 30.4102 199.593 30.7566 199.366C31.1837 199.086 33.8271 198.048 34.9434 194.434C35.0008 194.247 34.9936 194.028 35.1784 193.897C35.322 194.037 35.3669 194.228 35.4315 194.405C36.571 197.576 35.4638 201.008 32.6086 203C32.3735 203.163 32.1312 203.321 31.8638 203.434C31.6467 203.524 31.4708 203.694 31.2411 203.762C30.7315 203.913 30.2415 204.132 29.7085 204.213C29.6565 204.222 29.6027 204.227 29.5524 204.24C29.4465 204.267 29.4071 204.346 29.4753 204.432C29.7211 204.746 29.7821 205.135 29.9006 205.496C30.2703 206.623 30.3026 208.227 29.6816 209.866C27.1854 216.448 17.6077 216.777 15.2675 210.58C15.1922 210.383 14.9481 210.772 14.0867 211.219C13.9072 211.312 13.7403 211.432 13.5537 211.508C11.515 212.333 9.77609 212.337 8.04791 211.772C4.92354 210.749 3.59016 207.832 3.72116 207.68C3.93113 207.438 6.07207 209.46 10.0453 208.385C10.2642 208.326 10.5262 208.168 10.7685 208.127C10.8618 208.111 10.9623 208.078 11.0359 208.023C11.5958 207.604 12.1432 207.698 13.9144 205.867C14.0113 205.765 14.1046 205.665 14.2051 205.726C14.2554 205.756 14.2733 205.806 14.2643 205.862C14.2141 206.185 14.2715 206.503 14.3164 206.818C14.5371 208.367 15.0934 209.609 15.1724 209.998C15.1832 210.054 15.2173 210.094 15.2765 210.108C15.5977 210.194 15.8813 210.374 16.1881 210.496C18.0778 211.244 20.1703 211.47 21.7855 211.248C22.4764 211.152 24.6658 210.413 25.8448 209.343Z" fill="#98ABEB"/>
</g>
<path d="M13.1123 198.183C13.1284 196.318 14.9248 193.944 17.7836 193.442C19.2282 193.189 20.9349 193.456 21.9398 194.497C23.3683 195.972 22.5069 198.587 20.8434 199.967C17.6849 202.587 13.0872 201.006 13.1123 198.183Z" fill="white"/>
<path d="M16.5793 210.56C17.098 210.894 17.7153 210.969 18.3111 211.057C18.9105 211.143 19.5153 211.181 20.1165 211.159C21.3135 211.114 22.5302 210.924 23.6123 210.433C24.7088 209.961 25.6923 209.234 26.5429 208.383C27.3917 207.531 28.1096 206.537 28.5815 205.408C28.4631 205.688 28.4021 205.989 28.2675 206.269C28.1419 206.551 28.0019 206.825 27.8458 207.091C27.5263 207.617 27.1512 208.11 26.7367 208.568C25.904 209.481 24.8865 210.233 23.7541 210.752C23.1816 211.001 22.5715 211.17 21.9649 211.276C21.3565 211.38 20.7374 211.445 20.1183 211.427C19.5009 211.414 18.8854 211.348 18.2824 211.224C17.9827 211.156 17.6848 211.084 17.3905 210.989C17.098 210.894 16.8126 210.757 16.5793 210.56Z" fill="#4E63A6"/>
<path d="M5.08325 208.308C5.77776 208.554 6.49559 208.683 7.21342 208.722C7.93126 208.748 8.65089 208.685 9.35078 208.53C10.0507 208.372 10.7326 208.132 11.3733 207.805C12.005 207.454 12.6636 207.125 13.2145 206.639C12.7551 207.226 12.1288 207.646 11.5061 208.044C10.8672 208.433 10.1565 208.701 9.42615 208.871C8.69396 209.026 7.93485 209.076 7.19189 208.993C6.44893 208.907 5.72212 208.678 5.08325 208.308Z" fill="#4E63A6"/>
<path d="M34.6831 195.342C34.5287 196.06 34.2039 196.747 33.7607 197.345C33.3192 197.948 32.7683 198.464 32.1581 198.891C30.9342 199.735 29.4537 200.237 27.9839 200.203C29.4267 199.961 30.7834 199.421 31.9589 198.606C33.1326 197.793 34.1106 196.695 34.6831 195.342Z" fill="#4E63A6"/>
<path d="M10.0237 190.554C9.32922 190.726 8.65984 190.956 8.06942 191.313C7.47901 191.67 6.9819 192.164 6.64273 192.754C6.29637 193.341 6.10256 194.016 6.04334 194.701C6.00924 195.046 6.02898 195.394 6.06667 195.74C6.10256 195.909 6.11333 196.088 6.17255 196.254C6.22459 196.42 6.26766 196.598 6.30176 196.774C6.16716 196.451 5.99488 196.128 5.89977 195.774C5.81722 195.421 5.75979 195.057 5.77235 194.69C5.77774 193.958 5.96976 193.221 6.34124 192.578C6.71631 191.938 7.27981 191.408 7.93483 191.078C8.58806 190.739 9.31307 190.592 10.0237 190.554Z" fill="white"/>
<path d="M14.1782 205.795C14.3666 206.583 14.503 207.357 14.6914 208.121C14.8691 208.887 15.0952 209.634 15.3231 210.409C14.8439 209.754 14.5425 208.986 14.3522 208.202C14.1692 207.414 14.092 206.601 14.1782 205.795Z" fill="#4E63A6"/>
<path d="M26.699 200.311C27.3486 200.794 27.8942 201.4 28.35 202.07C28.7968 202.741 29.1558 203.486 29.3137 204.281C28.8991 203.588 28.5043 202.915 28.0611 202.264C27.6268 201.607 27.1494 200.982 26.699 200.311Z" fill="#4E63A6"/>
<g opacity="0.149">
<path opacity="0.149" d="M204.031 257.308C177.508 240.89 127.054 248.621 102.516 266.399C85.5457 278.696 89.4836 300.635 111.665 308.197C133.346 315.583 154.374 306.547 175.199 302.016C184.031 300.093 194.771 303.313 203.344 306.389C211.99 309.484 220.756 310.999 230.244 310.44C248.666 309.353 266.478 286.558 245.788 274.747C240.149 271.531 234.375 273.605 228.39 272.632C218.537 271.03 212.066 262.285 204.031 257.308Z" fill="black"/>
</g>
<path d="M171.041 54.0664C168.697 47.4882 173.184 48.2268 172.031 42.1698C170.471 33.9731 164.121 32.6305 163.613 26.6702C163.213 22.0248 165.263 19.3017 169.097 16.9204C172.818 14.608 175.607 9.83835 174.374 5.67957C173.394 2.35945 171.458 0.889207 167.976 1.08248C163.151 1.35168 161.708 3.88491 160.59 7.6606C159.717 10.6045 158.692 11.3189 156.293 13.2517C153.691 15.3466 152.359 18.3423 153.332 21.6244C154.537 25.6797 156.024 25.4381 154.264 32.9066C153.563 35.8816 154.533 38.439 156.176 40.8411C156.79 41.7384 159.513 44.2544 158.26 48.9964C157.474 51.9645 155.116 52.0405 153.284 55.6746C151.123 59.9646 153.598 65.0655 158.116 66.4391C164.11 68.2649 173.46 60.8585 171.041 54.0664Z" fill="#202538"/>
<path d="M158.04 33.2034C157.998 34.0041 158.147 34.7668 158.444 35.4571C158.771 36.137 159.224 36.7513 159.714 37.3587C160.197 37.9696 160.714 38.577 161.156 39.2603C161.608 39.9437 161.957 40.6892 162.223 41.4519C162.747 42.9843 162.947 44.6202 162.789 46.2216C162.626 47.8126 161.985 49.4243 160.77 50.4597C161.864 49.3001 162.34 47.7298 162.416 46.1939C162.502 44.6443 162.212 43.0878 161.674 41.6521C161.401 40.9308 161.063 40.2405 160.621 39.6227C160.183 38.9911 159.676 38.3941 159.199 37.7521C158.723 37.1137 158.281 36.4027 158.033 35.6124C157.781 34.822 157.788 33.9592 158.04 33.2034Z" fill="#3D4357"/>
<path d="M166.147 63.0947C166.029 64.3441 165.739 65.5175 165.077 66.8083C164.276 68.3751 162.93 70.1215 160.701 72.3786C155.6 77.5486 150.064 82.6082 144.369 87.3571C143.072 88.4408 141.767 89.5107 140.455 90.5599C138.578 92.0646 136.694 93.528 134.802 94.943C132.007 97.0483 128.997 99.6574 125.574 100.617C111.872 104.462 115.993 61.4864 116.048 54.577C116.124 45.2516 117.277 49.3863 118.153 46.1904C118.892 43.5053 119.755 42.5735 121.936 46.4389C124.566 51.0912 125.656 59.2914 126.899 64.4407C127.927 68.6927 128.997 72.9515 129.812 77.2518C136.348 70.5494 143.638 63.9575 146.24 61.3622C148.359 59.2431 150.623 57.2966 153.108 55.6262C160.141 50.891 165.953 50.325 166.195 59.8367C166.223 61.0377 166.243 62.0938 166.147 63.0947Z" fill="#BA705D"/>
<path d="M129.939 77.4556C130.481 78.6704 130.781 79.9474 130.995 81.2382C131.185 82.5255 131.289 83.8508 131.064 85.1657C130.754 83.8784 130.536 82.6187 130.333 81.3382C130.143 80.0613 129.963 78.7809 129.939 77.4556Z" fill="#944F48"/>
<path d="M122.392 37.483C122.236 37.3829 122.077 37.2828 121.919 37.1896C120.607 36.42 119.116 35.7608 117.656 36.5512C115.737 37.5865 114.036 40.1957 113.791 42.3527C113.453 45.276 114.35 49.949 116.214 52.4132C118.764 55.792 125.915 54.943 127.682 46.0042C128.131 43.7263 126.65 41.9869 125.291 40.2302C124.49 39.1948 123.506 38.225 122.392 37.483Z" fill="#BA705D"/>
<path d="M123.22 52.7859C122.73 53.5624 121.939 54.1491 121.014 54.3942C120.089 54.6289 119.061 54.4529 118.333 53.8903C119.251 53.9455 120.058 53.9524 120.849 53.7419C121.643 53.5521 122.381 53.1621 123.22 52.7859Z" fill="#944F48"/>
<path d="M114.705 27.6262L107.848 47.6091L121.056 52.144L127.913 32.1577L114.705 27.6262Z" fill="#98ABEB"/>
<path d="M112.659 33.5901L109.894 41.6419L123.102 46.1734L125.867 38.1216L112.659 33.5901Z" fill="#E077A3"/>
<path d="M118.712 36.9481L117.284 38.3666C117.242 38.408 117.18 38.4253 117.121 38.4149L115.144 38.0422C114.992 38.0146 114.878 38.1699 114.944 38.3045L115.851 40.1026C115.879 40.1578 115.879 40.2199 115.851 40.2717L114.885 42.0388C114.813 42.1734 114.923 42.3321 115.071 42.308L117.063 42.0008C117.121 41.9939 117.184 42.0146 117.225 42.056L118.605 43.5228C118.709 43.6332 118.895 43.5746 118.92 43.4262L119.244 41.4382C119.251 41.3796 119.289 41.3278 119.344 41.3002L121.166 40.4408C121.301 40.3752 121.304 40.1785 121.17 40.1095L119.379 39.1915C119.327 39.1639 119.289 39.1086 119.282 39.05L119.027 37.0551C119.006 36.9033 118.823 36.8412 118.712 36.9481Z" fill="white"/>
<path d="M107.841 47.6296L108.504 50.5218C108.666 51.2052 109.159 51.7574 109.825 51.9851L116.811 54.3838C117.473 54.6116 118.205 54.4804 118.75 54.0386L121.049 52.1612L107.841 47.6296Z" fill="#4E63A6"/>
<path d="M114.712 27.602L127.92 32.1335L127.261 29.2448C127.102 28.5614 126.605 28.0058 125.939 27.778L118.954 25.3828C118.291 25.1515 117.56 25.2861 117.014 25.7279L114.712 27.602Z" fill="#4E63A6"/>
<path d="M117.394 41.7005C118.271 41.3795 118.65 40.6685 118.416 39.823C118.098 38.6875 117.001 38.3596 118.084 38.1284C118.243 38.0939 118.412 38.0801 118.571 38.0387C119.523 37.8005 119.896 37.0999 119.513 36.2475C118.378 33.7349 113.463 32.4821 111.399 33.7246C109.252 35.0188 107.485 39.5124 108.797 41.7177C110.509 44.1647 116.034 45.6694 116.869 43.4951C117.332 42.2975 115.485 42.0214 116.548 41.8627C116.59 41.8558 117.028 41.8351 117.394 41.7005Z" fill="#BA705D"/>
<path d="M113.246 36.51C114.026 36.5204 114.737 36.7274 115.427 36.9863C116.107 37.2693 116.776 37.6041 117.332 38.1597C116.555 38.0907 115.865 37.8733 115.182 37.611C114.505 37.3314 113.843 37.0139 113.246 36.51Z" fill="#944F48"/>
<path d="M111.848 39.8403C112.697 39.8783 113.487 40.113 114.257 40.3925C115.02 40.6893 115.765 41.0345 116.407 41.5591C115.527 41.5107 114.754 41.283 113.994 41.0069C113.242 40.7135 112.517 40.3753 111.848 39.8403Z" fill="#944F48"/>
<path d="M125.473 49.6176C126.026 49.4519 126.526 49.0895 126.851 48.5856C127.475 47.6193 127.648 46.3803 127.779 45.2586C127.938 43.8954 128.341 39.8919 126.298 39.6606C125.025 39.5157 124.076 42.0972 123.789 43.0705C123.278 44.803 122.067 47.9506 123.637 49.3449C124.152 49.797 124.87 49.7936 125.473 49.6176Z" fill="#BA705D"/>
<g style="mix-blend-mode:multiply" opacity="0.251">
<path d="M166.147 63.0948C166.029 64.3441 165.739 65.5176 165.077 66.8083C164.276 68.3752 162.93 70.1215 160.7 72.3787C155.599 77.5487 150.064 82.6082 144.369 87.3572C143.071 88.4409 141.767 89.5108 140.455 90.56C140.414 90.5185 140.372 90.4702 140.338 90.4219C137.156 86.1837 142.36 81.3658 144.362 77.9214C146.619 74.0491 147.033 69.2656 149.863 65.7108C151.907 63.15 154.964 61.0516 157.939 59.7056L165.532 57.98L166.147 63.0948Z" fill="#944F48"/>
</g>
<path d="M209.108 62.4563C209.467 63.1534 209.488 63.9265 209.674 64.6582C210.05 66.1353 210.037 67.6573 209.923 69.1517C209.156 79.3019 204.118 80.7169 202.958 92.503C202.24 99.7852 203.552 107.968 207.182 115.568C209.916 121.287 211.348 121.383 210.968 123.009C208.673 132.838 199.376 142.112 185.736 143.644C174.44 144.911 162.84 139.426 158.226 128.424C157.525 126.75 159.896 125.325 159.061 113.973C158.364 104.489 157.967 102.291 156.366 91.547C155.368 84.8688 152.604 78.9119 153.329 72.1889C153.864 67.2328 154.951 62.2734 156.797 57.6245C157.232 56.527 157.639 54.5598 158.55 53.797C159.082 53.3484 159.748 52.8928 160.418 52.7134C172.29 49.5347 203.5 51.6124 209.108 62.4563Z" fill="#BA705D"/>
<path d="M208.301 116.514C208.287 116.569 208.27 116.617 208.252 116.672C208.221 116.772 208.173 116.876 208.125 116.98C208.125 116.983 208.118 116.99 208.114 116.997C208.087 117.049 208.059 117.104 208.028 117.159C208 117.218 207.962 117.273 207.928 117.325C207.859 117.432 207.79 117.535 207.707 117.646C207.679 117.684 207.655 117.722 207.628 117.753C207.59 117.808 207.545 117.856 207.507 117.904C207.496 117.918 207.479 117.936 207.469 117.953C207.403 118.032 207.341 118.108 207.276 118.184C207.155 118.319 207.044 118.45 206.941 118.564C206.609 118.929 206.264 119.278 205.912 119.596C205.691 119.803 205.464 119.996 205.232 120.179C202.247 122.591 198.83 123.53 196.942 124.137C196.922 124.148 196.894 124.155 196.867 124.165C196.818 124.179 196.777 124.193 196.732 124.206C196.304 124.348 195.89 124.462 195.483 124.548C195.472 124.548 195.462 124.552 195.451 124.552C191.558 125.401 188.152 124.234 180.935 126.201C180.897 126.212 180.856 126.225 180.811 126.236C180.746 126.25 180.687 126.274 180.621 126.288C176.832 127.354 174.961 127.506 173.463 127.534H173.443C173.098 127.544 172.773 127.544 172.442 127.544C171.351 127.554 170.219 127.489 169.08 127.354C169.073 127.361 169.07 127.354 169.063 127.354C166.979 127.106 164.846 126.622 162.813 125.911C160.356 125.062 158.023 123.879 156.062 122.391C154.765 121.407 154.519 120.838 154.689 119.25C154.992 116.41 155.672 113.218 155.31 110.374C155.717 106.626 156.311 102.36 155.555 98.7119C154.72 94.7119 152.321 90.9224 151.769 86.8189C150.944 80.6825 151.613 75.3296 153.098 69.4486C154.557 63.6781 156.466 57.9421 159.003 52.5547C159.51 52.4615 160.148 52.3649 160.918 52.2613C162.192 52.0922 163.796 51.8575 164.608 51.9058C165.674 51.9645 159.224 65.8904 167.714 70.2873C173.729 73.4003 185.45 72.8171 190.975 68.3339C194.554 65.4314 196.528 63.333 199.124 56.1336C199.307 55.6194 199.3 55.6229 199.793 55.792C201.367 56.32 202.858 57.0241 204.287 57.8558C204.836 58.1768 204.832 58.1699 204.659 58.7877C199.61 76.3615 204.956 83.6989 204.49 85.0622C204.156 86.0458 203.89 86.9811 203.679 87.8888C203.679 87.8991 203.679 87.9095 203.676 87.9198C203.296 89.5316 203.096 91.0501 202.982 92.5859C202.982 92.5928 202.975 92.6032 202.982 92.6066C202.854 94.2805 202.83 95.9716 202.799 97.8181C202.799 98.0631 202.796 98.3116 202.803 98.567C202.81 98.6947 202.817 98.8362 202.82 98.9708C202.896 100.514 203.165 102.222 203.593 103.982C203.666 104.265 203.735 104.551 203.804 104.831C203.842 104.966 203.879 105.1 203.917 105.242C204.076 105.825 204.249 106.412 204.435 106.995C205.122 109.145 205.985 111.285 206.913 113.238C207.079 113.58 207.241 113.915 207.41 114.243C207.676 114.764 207.945 115.264 208.221 115.747C208.352 115.979 208.366 116.237 208.301 116.514Z" fill="#F7CDDC"/>
<g style="mix-blend-mode:multiply" opacity="0.251">
<path d="M208.301 116.513C208.287 116.569 208.27 116.617 208.252 116.672C208.221 116.772 208.176 116.876 208.125 116.979C208.125 116.983 208.118 116.99 208.114 116.997C208.087 117.048 208.059 117.104 208.028 117.159C208 117.217 207.962 117.273 207.928 117.324C207.859 117.431 207.79 117.535 207.707 117.645C207.679 117.683 207.655 117.721 207.628 117.752C207.59 117.808 207.545 117.856 207.507 117.904C207.496 117.918 207.479 117.935 207.469 117.953C207.403 118.032 207.341 118.108 207.276 118.184C207.155 118.318 207.044 118.45 206.941 118.563C206.609 118.929 206.264 119.278 205.912 119.595C205.691 119.802 205.464 119.996 205.232 120.179C204.984 120.382 204.729 120.569 204.477 120.748C204.37 120.824 204.263 120.9 204.156 120.976C203.942 121.121 203.728 121.259 203.514 121.394C203.355 121.49 203.193 121.583 203.034 121.677C202.948 121.725 202.865 121.773 202.779 121.818C202.471 121.991 202.157 122.156 201.84 122.312C201.812 122.322 201.791 122.332 201.764 122.346C200.242 123.081 198.623 123.647 196.942 124.137C196.922 124.148 196.894 124.155 196.867 124.165C196.414 124.293 195.948 124.424 195.483 124.548C195.472 124.548 195.462 124.551 195.451 124.551C191.558 125.4 188.152 124.234 180.935 126.201C180.897 126.211 180.856 126.225 180.811 126.236C178.368 126.829 175.941 127.375 173.463 127.533H173.443C172.114 127.62 170.768 127.592 169.398 127.402C169.291 127.385 169.187 127.375 169.08 127.354C169.073 127.361 169.07 127.354 169.063 127.354C166.934 127.05 164.842 126.619 162.813 125.911C162.513 125.801 162.209 125.687 161.905 125.57C161.425 125.38 161.367 125.245 161.608 124.824C163.527 121.411 164.425 119.354 167.61 116.997C171.151 114.367 174.968 113.697 179.006 113.131C186.299 112.096 192.111 112.99 194.696 106.135C196.38 101.663 196.118 98.2355 198.751 93.4175C200.283 90.6116 203.203 87.4434 203.59 87.6884C203.669 87.7436 203.697 87.7575 203.679 87.8886C203.679 87.899 203.679 87.9093 203.676 87.9197C203.624 88.2682 203.362 89.2449 202.982 92.5858C202.982 92.5927 202.975 92.603 202.982 92.6065C202.951 92.8446 202.923 93.1 202.896 93.3658C202.744 94.7635 202.83 96.1647 202.799 97.566C202.792 97.8904 202.792 98.2252 202.803 98.5668C202.81 98.6945 202.817 98.836 202.82 98.9706C202.906 100.537 203.182 102.242 203.593 103.982C203.666 104.265 203.735 104.551 203.804 104.831C203.842 104.965 203.879 105.1 203.917 105.242C204.076 105.825 204.249 106.412 204.435 106.995C205.112 109.145 205.968 111.281 206.913 113.238C207.075 113.58 207.241 113.915 207.41 114.242C207.676 114.764 207.945 115.264 208.221 115.747C208.352 115.978 208.366 116.237 208.301 116.513Z" fill="#E077A3"/>
</g>
<path d="M204.128 115.748C203.921 116.231 203.455 116.534 203.031 116.807L201.736 117.653C200.836 118.157 199.907 118.626 198.923 118.961C196.974 119.668 194.917 120.031 192.863 120.255C190.803 120.483 188.732 120.486 186.675 120.472C184.618 120.431 182.596 120.507 180.587 120.849C178.578 121.152 176.618 121.722 174.637 122.288C173.646 122.564 172.635 122.83 171.6 122.981C170.564 123.147 169.491 123.154 168.459 123.037C166.388 122.83 164.366 122.302 162.43 121.573C161.467 121.201 160.525 120.776 159.61 120.3C159.151 120.065 158.702 119.813 158.261 119.547C158.04 119.416 157.826 119.275 157.608 119.133C157.498 119.064 157.398 118.992 157.28 118.937C157.16 118.885 157.063 118.754 157.101 118.622C157.073 118.757 157.174 118.867 157.291 118.912C157.412 118.961 157.522 119.03 157.636 119.092C157.86 119.216 158.081 119.344 158.312 119.458C158.765 119.699 159.224 119.927 159.689 120.141C160.618 120.569 161.574 120.945 162.544 121.266C164.476 121.922 166.478 122.381 168.504 122.522C169.522 122.602 170.516 122.567 171.51 122.409C172.504 122.25 173.488 121.987 174.471 121.701C176.432 121.121 178.426 120.514 180.48 120.186C182.533 119.858 184.632 119.803 186.682 119.861C188.735 119.906 190.779 119.889 192.815 119.744C194.848 119.585 196.88 119.282 198.82 118.65C199.8 118.367 200.735 117.953 201.65 117.501L202.979 116.721C203.42 116.476 203.89 116.217 204.128 115.748Z" fill="#E077A3"/>
<path d="M158.761 67.2847C158.771 67.7817 159.03 68.2131 159.275 68.6307C159.517 69.0586 159.772 69.4693 160.021 69.8904C160.573 70.6876 161.163 71.4607 161.853 72.1406C163.203 73.528 164.787 74.6773 166.502 75.5643C169.94 77.3313 173.798 78.2252 177.657 78.3184C181.519 78.453 185.419 77.7834 188.984 76.2787C190.765 75.5332 192.459 74.5599 193.985 73.3624C195.521 72.1751 196.911 70.7912 197.968 69.1345C196.038 72.572 192.76 75.1121 189.188 76.7515C185.584 78.3908 181.588 79.0742 177.64 78.9879C173.695 78.8395 169.736 77.9284 166.257 76.0164C164.532 75.05 162.941 73.8283 161.615 72.3649C160.949 71.6333 160.387 70.8188 159.869 69.9836C159.641 69.5453 159.403 69.1138 159.189 68.679C158.972 68.2476 158.737 67.7817 158.761 67.2847Z" fill="#E077A3"/>
<path d="M177.598 85.0864C177.788 86.4773 178.171 87.8164 178.775 89.0312C179.389 90.2461 180.224 91.3367 181.236 92.2409C182.237 93.1555 183.4 93.8941 184.625 94.5118C185.857 95.1227 187.158 95.6197 188.497 96.0304C185.722 95.7232 182.937 94.6637 180.784 92.7379C179.721 91.7715 178.847 90.5774 178.302 89.2487C177.743 87.9268 177.529 86.4842 177.598 85.0864Z" fill="#E077A3"/>
<path d="M222.251 291.12C222.251 291.134 222.244 291.148 222.24 291.161C222.168 291.399 222.078 291.62 221.968 291.831C221.37 292.991 220.266 293.746 218.965 294.195C218.93 294.205 218.903 294.216 218.872 294.223C218.789 294.25 218.71 294.278 218.623 294.299C217.298 294.692 215.8 294.789 214.433 294.675C212.677 294.53 211.227 294.129 210.064 293.677C209.508 293.467 209.022 293.239 208.59 293.032C208.463 292.966 208.335 292.904 208.204 292.839C208.014 292.742 207.828 292.642 207.628 292.542C207.503 292.476 207.365 292.411 207.231 292.345C207.179 292.321 207.131 292.293 207.079 292.269C207.044 292.255 207.006 292.238 206.968 292.221C206.879 292.183 206.782 292.142 206.692 292.097C206.658 292.086 206.63 292.076 206.599 292.059C206.447 291.99 206.295 291.931 206.143 291.876C205.757 291.724 205.339 291.579 204.88 291.448C204.663 291.389 204.442 291.33 204.211 291.282C204.1 291.255 203.993 291.234 203.886 291.21C203.451 291.123 203.041 291.061 202.64 291.01C202.551 290.999 202.458 290.989 202.364 290.978C202.292 290.972 202.209 290.961 202.13 290.958C201.988 290.94 201.843 290.93 201.684 290.913C201.481 290.899 201.263 290.882 201.036 290.854C200.822 290.837 200.608 290.816 200.397 290.796C200.29 290.785 200.183 290.768 200.069 290.758C199.165 290.661 198.285 290.499 197.36 290.119C197.187 290.05 197.018 289.974 196.853 289.891C196.804 289.871 196.759 289.85 196.711 289.826C195.517 289.239 194.485 288.421 193.646 287.372C193.543 287.237 193.439 287.103 193.343 286.961C193.267 286.854 193.198 286.747 193.132 286.637C193.046 286.502 192.967 286.361 192.884 286.216C192.739 285.96 192.604 285.691 192.476 285.405C192.425 285.291 192.376 285.173 192.321 285.053C192.266 284.925 192.214 284.787 192.166 284.652C192.159 284.642 192.155 284.625 192.149 284.614C191.938 284.01 191.769 283.355 191.652 282.657C191.193 279.965 192.111 277.556 192.532 273.95C193.553 265.218 191.082 255.085 190.05 243.675C190.047 243.593 190.04 243.513 190.03 243.43C189.784 240.635 189.629 237.76 189.629 234.813C189.636 231.793 189.809 228.686 190.23 225.508C192.338 209.598 184.58 195.748 187.244 161.076C187.969 151.654 189.667 140.303 196.007 132.859C196.062 132.796 198.575 127.499 206.106 126.926C208.501 126.743 211.655 126.422 213.688 127.758C215.389 128.883 217.671 138.356 218.078 140.476C221.27 157.124 216.908 174.653 213.433 190.902C212 197.57 210.53 204.245 209.54 210.992C208.145 220.555 209.691 230.067 208.908 239.63C208.804 240.907 208.708 242.046 208.621 243.068V243.075C208.594 243.375 208.573 243.689 208.546 244.01C208.539 244.041 208.539 244.076 208.535 244.107C208.497 244.559 208.459 244.983 208.421 245.384C208.414 245.484 208.404 245.587 208.394 245.694C208.383 245.857 208.366 246.019 208.352 246.188C208.335 246.36 208.318 246.533 208.301 246.712C207.842 251.831 207.679 252.417 207.279 254.826C207.269 254.902 207.255 254.985 207.241 255.065C207.22 255.196 207.2 255.323 207.182 255.455C207.162 255.589 207.141 255.724 207.117 255.858C207.096 256 207.075 256.152 207.048 256.304C206.999 256.611 206.951 256.918 206.903 257.228C205.684 264.77 203.886 272.918 209.049 279.337C213.45 284.825 223.32 287.475 222.251 291.12Z" fill="#BA705D"/>
<path d="M202.723 206.226C203.041 207.975 202.44 209.87 201.243 211.251C200.639 211.937 199.862 212.503 198.972 212.766C198.088 213.049 197.125 212.99 196.311 212.669C197.191 212.735 198.036 212.6 198.792 212.276C199.541 211.948 200.2 211.434 200.742 210.809C201.288 210.195 201.722 209.47 202.057 208.7C202.385 207.924 202.623 207.102 202.723 206.226Z" fill="#944F48"/>
<path d="M222.282 290.958C222.278 291.009 222.268 291.065 222.251 291.12C222.251 291.134 222.244 291.148 222.24 291.161C222.168 291.399 222.078 291.62 221.968 291.831C221.384 293.001 220.297 293.757 218.965 294.195C218.93 294.205 218.903 294.216 218.872 294.223C218.789 294.25 218.71 294.278 218.623 294.299C216.059 295.013 212.691 294.626 210.064 293.677C209.95 293.643 209.836 293.601 209.729 293.557C209.357 293.412 208.977 293.232 208.59 293.032C208.463 292.966 208.335 292.904 208.204 292.839C208.014 292.742 207.828 292.642 207.628 292.542C207.503 292.476 207.365 292.411 207.231 292.345C207.144 292.307 207.058 292.266 206.968 292.221C206.879 292.183 206.782 292.142 206.692 292.097C206.658 292.086 206.63 292.076 206.599 292.059C206.454 292 206.302 291.934 206.143 291.876C205.757 291.724 205.339 291.579 204.88 291.448C204.663 291.389 204.442 291.33 204.211 291.282C204.1 291.255 203.993 291.234 203.886 291.21C203.496 291.13 203.086 291.061 202.64 291.009C202.551 290.999 202.458 290.989 202.364 290.978C202.292 290.972 202.209 290.961 202.13 290.958C201.988 290.94 201.843 290.93 201.684 290.913C201.481 290.899 201.263 290.882 201.036 290.854C200.822 290.837 200.608 290.816 200.397 290.796C200.29 290.785 200.183 290.768 200.069 290.758C199.068 290.623 197.95 290.385 196.853 289.891C196.804 289.871 196.759 289.85 196.711 289.826C195.614 289.318 194.547 288.545 193.646 287.372C193.543 287.237 193.439 287.103 193.343 286.961C193.267 286.854 193.198 286.747 193.132 286.637C193.046 286.502 192.967 286.361 192.884 286.216C192.739 285.96 192.604 285.691 192.476 285.405C192.425 285.291 192.376 285.173 192.321 285.053C192.266 284.925 192.214 284.787 192.166 284.652C192.159 284.642 192.155 284.625 192.149 284.614C191.938 284.01 191.769 283.355 191.652 282.657C191.193 279.965 192.111 277.556 192.532 273.95C193.029 269.705 192.701 265.135 192.111 260.245C191.493 255.071 190.582 249.539 190.05 243.675C190.064 243.672 190.074 243.668 190.085 243.665C190.088 243.589 190.067 243.513 190.03 243.43C190.023 243.375 190.019 243.323 190.019 243.268C189.781 240.528 189.629 237.705 189.629 234.812C190.965 235.234 192.901 235.782 195.545 236.145C196.998 236.345 200.946 236.531 201.56 236.517C208.031 236.348 209.27 234.85 209.039 236.193C208.987 236.473 208.929 239.061 208.621 243.068V243.075C208.601 243.296 208.584 243.523 208.566 243.751C208.563 243.838 208.552 243.924 208.546 244.01C208.539 244.041 208.539 244.076 208.535 244.107C208.497 244.559 208.459 244.983 208.421 245.384C208.414 245.484 208.404 245.587 208.394 245.694C208.383 245.857 208.366 246.019 208.352 246.188C208.335 246.36 208.318 246.533 208.301 246.712C208.052 249.146 207.728 251.893 207.279 254.826C207.269 254.902 207.255 254.985 207.241 255.065C207.22 255.196 207.2 255.323 207.182 255.455C207.162 255.589 207.141 255.724 207.117 255.858C207.048 256.293 206.979 256.725 206.903 257.163C206.896 257.184 206.896 257.204 206.903 257.228C205.684 264.769 203.886 272.918 209.049 279.337C213.384 284.745 223.027 287.393 222.282 290.958Z" fill="#FFB3C9"/>
<g style="mix-blend-mode:multiply" opacity="0.251">
<path d="M222.282 290.957C222.278 291.009 222.268 291.064 222.251 291.12C222.251 291.133 222.244 291.147 222.24 291.161C222.168 291.399 222.078 291.62 221.968 291.831C221.384 293.001 220.297 293.756 218.965 294.195C218.93 294.205 218.903 294.215 218.872 294.222C218.789 294.25 218.71 294.278 218.623 294.298C216.059 295.013 212.691 294.626 210.064 293.677C209.95 293.643 209.836 293.601 209.729 293.556C209.357 293.411 208.977 293.232 208.59 293.032C208.463 292.966 208.335 292.904 208.204 292.838C208.014 292.742 207.828 292.642 207.628 292.542C207.503 292.476 207.365 292.41 207.231 292.345C207.144 292.307 207.058 292.265 206.968 292.221C206.879 292.183 206.782 292.141 206.692 292.096C206.658 292.086 206.63 292.076 206.599 292.058C206.454 292 206.302 291.934 206.143 291.875C205.757 291.724 205.339 291.579 204.88 291.448C204.663 291.389 204.442 291.33 204.211 291.282C204.1 291.254 203.993 291.234 203.886 291.209C203.496 291.13 203.086 291.061 202.64 291.009C202.551 290.999 202.458 290.989 202.364 290.978C202.292 290.971 202.209 290.961 202.13 290.957C201.988 290.94 201.843 290.93 201.684 290.913C201.481 290.899 201.263 290.882 201.036 290.854C200.822 290.837 200.608 290.816 200.397 290.795C200.29 290.785 200.183 290.768 200.069 290.757C199.068 290.623 197.95 290.385 196.853 289.891C196.804 289.87 196.759 289.85 196.711 289.825C195.614 289.318 194.547 288.545 193.646 287.372C193.543 287.237 193.439 287.102 193.343 286.961C193.267 286.854 193.198 286.747 193.132 286.636C193.046 286.502 192.967 286.36 192.884 286.215C192.739 285.96 192.604 285.691 192.476 285.404C192.425 285.29 192.376 285.173 192.321 285.052C192.266 284.925 192.214 284.787 192.166 284.652C192.159 284.642 192.155 284.624 192.149 284.614C191.938 284.01 191.769 283.354 191.652 282.657C191.193 279.965 192.111 277.556 192.532 273.95C193.029 269.705 192.701 265.135 192.111 260.245C192.715 260.835 194.247 263.865 194.533 268.624C194.647 270.498 194.15 280.424 197.35 284.276C198.744 285.95 200.653 286.923 202.13 287.113C208.487 287.913 209.809 290.205 214.661 291.672C219.196 293.039 221.395 291.513 222.282 290.957Z" fill="#E077A3"/>
</g>
<path d="M209.039 236.193C208.987 236.473 208.929 239.061 208.621 243.068V243.075C208.601 243.296 208.584 243.523 208.566 243.751C207.99 243.858 207.227 243.986 206.219 244.165C203.914 244.573 194.937 244.559 190.019 243.268C189.781 240.528 189.629 237.705 189.629 234.812C190.965 235.234 192.901 235.782 195.545 236.145C196.998 236.345 200.946 236.531 201.56 236.517C208.031 236.348 209.27 234.85 209.039 236.193Z" fill="#E077A3"/>
<path d="M199.627 274.547C199.838 275.317 199.652 276.152 199.234 276.839C198.81 277.515 198.085 278.06 197.284 278.102C197.86 277.567 198.302 277.07 198.665 276.48C199.041 275.9 199.307 275.268 199.627 274.547Z" fill="#E077A3"/>
<path d="M181.305 160.127C179.776 167.927 176.98 175.672 174.081 183.023C172.69 186.543 171.503 189.342 170.464 191.651C166.792 199.851 165.149 201.787 163.966 207.579C162.744 213.577 162.637 219.738 161.456 225.753C160.728 229.494 159.858 233.07 158.896 236.511C156.852 243.865 154.374 250.616 151.9 257.142C148.538 265.971 150.506 269.215 150.844 273.605C150.934 274.706 150.861 275.638 150.678 276.469C150.678 276.476 150.678 276.48 150.671 276.487C150.613 276.763 150.544 277.025 150.45 277.287C150.202 278.043 149.85 278.73 149.439 279.407C149.374 279.52 149.294 279.631 149.225 279.752C148.721 280.542 148.141 281.336 147.558 282.243C147.541 282.275 147.52 282.302 147.499 282.337C146.461 283.962 145.391 285.957 144.635 288.925C144.483 289.515 144.304 290.364 144.083 291.331C144.072 291.369 144.065 291.403 144.055 291.441C143.682 293.084 143.185 295.061 142.488 296.739C142.423 296.887 142.364 297.036 142.298 297.187C142.229 297.343 142.154 297.495 142.081 297.646C142.012 297.788 141.943 297.923 141.867 298.05C141.719 298.326 141.563 298.582 141.391 298.813V298.82C141.304 298.937 141.218 299.048 141.132 299.155C141.094 299.206 141.049 299.262 141.008 299.31C140.935 299.393 140.866 299.469 140.783 299.545C140.135 300.218 139.372 300.701 138.644 300.632C138.502 300.625 138.364 300.615 138.226 300.608C135.744 300.432 133.788 299.624 132.352 298.495C132.304 298.458 132.252 298.42 132.203 298.375C131.831 298.068 131.496 297.736 131.199 297.391C129.998 295.997 129.404 294.337 129.425 292.78C129.484 288.207 132.59 283.589 134.06 279.369C137.021 270.847 136.352 263.234 139.513 232.062C140.38 223.527 141.529 213.222 143.127 200.652C144.79 187.516 146.64 174.374 149.263 161.387C150.809 153.742 153.104 141.18 157.781 134.664C157.791 134.647 161.27 135.147 162.978 134.971C164.773 134.788 166.551 134.961 168.266 135.444C176.856 137.849 183.679 148.006 181.305 160.127Z" fill="#BA705D"/>
<path d="M159.465 200.162C159.265 201.018 158.937 201.857 158.443 202.613C157.96 203.372 157.311 204.038 156.566 204.556C155.047 205.584 153.246 206.002 151.5 206.057C153.16 205.477 154.809 204.959 156.186 204.003C157.581 203.068 158.588 201.688 159.465 200.162Z" fill="#944F48"/>
<path d="M159.431 234.285C159.23 235.047 159.051 235.786 158.896 236.511C158.375 238.374 157.829 240.204 157.267 241.991C155.596 247.275 153.746 252.269 151.9 257.142C151.368 258.54 150.968 259.796 150.678 260.942C149.122 267.023 150.557 269.912 150.844 273.602C150.93 274.706 150.861 275.634 150.678 276.47C150.678 276.473 150.678 276.48 150.671 276.483C150.63 276.594 150.595 276.708 150.568 276.825C150.537 276.98 150.499 277.139 150.45 277.284C150.23 278.067 149.878 278.723 149.439 279.403C149.374 279.517 149.294 279.631 149.222 279.752C148.735 280.463 148.173 281.243 147.558 282.244C147.541 282.275 147.52 282.302 147.5 282.333C146.958 283.227 146.378 284.297 145.791 285.664C145.087 287.296 144.583 289.315 144.083 291.331C144.069 291.369 144.066 291.4 144.055 291.438C143.589 293.308 143.12 295.175 142.488 296.735C142.423 296.887 142.364 297.032 142.299 297.184C142.226 297.343 142.15 297.495 142.081 297.643C142.012 297.785 141.94 297.919 141.864 298.05C141.715 298.32 141.557 298.575 141.391 298.813V298.816C141.301 298.937 141.215 299.044 141.129 299.151C141.015 299.289 140.904 299.417 140.783 299.541C140.421 299.904 140.021 300.19 139.572 300.39C139.31 300.515 138.833 300.597 138.226 300.608C136.714 300.628 134.378 300.162 132.349 298.492C132.3 298.454 132.252 298.416 132.204 298.375C131.948 298.157 131.7 297.919 131.458 297.66C131.372 297.571 131.286 297.481 131.199 297.391C130.63 296.732 130.198 296.011 129.905 295.276C129.57 294.451 129.415 293.602 129.425 292.78C129.484 288.204 132.587 283.59 134.057 279.365C136.766 271.576 136.438 264.549 138.778 239.575C138.999 237.236 139.244 234.733 139.513 232.062C139.724 231.644 139.855 231.417 139.879 231.413C140.19 231.337 142.378 233.132 147.769 234.057C151.03 234.619 155.683 234.651 159.061 233.867C159.413 233.788 159.52 233.915 159.431 234.285Z" fill="#FFB3C9"/>
<g style="mix-blend-mode:multiply" opacity="0.251">
<path d="M150.678 276.469C150.678 276.473 150.678 276.48 150.671 276.483C150.63 276.594 150.595 276.708 150.568 276.825C150.537 276.98 150.499 277.139 150.45 277.284C150.229 278.067 149.877 278.723 149.439 279.403C149.374 279.517 149.294 279.631 149.222 279.752C148.735 280.463 148.172 281.243 147.558 282.243C147.541 282.274 147.52 282.302 147.499 282.333C146.958 283.227 146.378 284.297 145.791 285.664C145.087 287.296 144.583 289.315 144.083 291.331C144.069 291.369 144.065 291.4 144.055 291.438C143.589 293.308 143.12 295.175 142.488 296.735C142.423 296.887 142.364 297.032 142.298 297.184C142.226 297.343 142.15 297.495 142.081 297.643C142.012 297.784 141.939 297.919 141.864 298.05C141.715 298.319 141.556 298.575 141.391 298.813V298.816C141.301 298.937 141.215 299.044 141.128 299.151C141.015 299.289 140.904 299.417 140.783 299.541C140.421 299.904 140.021 300.19 139.572 300.39C139.31 300.514 138.833 300.597 138.226 300.608C136.714 300.628 134.378 300.162 132.348 298.492C132.3 298.454 132.252 298.416 132.203 298.375C131.948 298.157 131.7 297.919 131.458 297.66C131.372 297.57 131.285 297.481 131.199 297.391C130.63 296.732 130.198 296.01 129.905 295.275C130.247 295.41 130.744 295.61 131.399 295.703C134.35 296.111 137.56 295.348 138.847 292.915C140.238 290.292 141.049 286.599 142.423 283.852C144.828 279.03 147.137 277.967 147.862 273.581C148.449 269.998 148 267.479 148.821 264.835C149.211 263.586 150.202 261.218 150.678 260.942C149.122 267.023 150.557 269.912 150.844 273.601C150.93 274.706 150.861 275.634 150.678 276.469Z" fill="#E077A3"/>
</g>
<path d="M159.431 234.284C159.23 235.047 159.051 235.786 158.896 236.511C158.374 238.374 157.829 240.203 157.267 241.991C156.293 242.105 154.775 242.464 148.925 241.981C143.665 241.549 140.031 240.089 138.778 239.575C138.999 237.235 139.244 234.733 139.513 232.062C139.724 231.644 139.855 231.416 139.879 231.413C140.19 231.337 142.378 233.132 147.769 234.057C151.03 234.619 155.682 234.65 159.061 233.867C159.413 233.787 159.52 233.915 159.431 234.284Z" fill="#E077A3"/>
<path d="M144.525 271.548C144.79 272.294 144.873 273.084 144.67 273.895C144.559 274.288 144.359 274.685 144.052 274.979C143.751 275.279 143.365 275.472 142.965 275.517C143.237 275.22 143.468 274.948 143.641 274.651C143.814 274.357 143.938 274.05 144.024 273.715C144.214 273.053 144.266 272.311 144.525 271.548Z" fill="#E077A3"/>
<g style="mix-blend-mode:multiply" opacity="0.251">
<path d="M181.305 160.127C179.776 167.927 176.98 175.672 174.081 183.023C172.69 186.543 171.503 189.342 170.464 191.651C168.518 187.32 169.453 179.175 169.401 176.334C169.329 172.531 169.339 168.745 167.679 165.297C165.263 160.262 161.874 156.369 160.946 150.64C160.394 147.264 160.117 143.785 160.186 140.362L168.266 135.444C176.856 137.849 183.679 148.006 181.305 160.127Z" fill="#944F48"/>
</g>
<path d="M211.848 133.007C205.695 140.79 199.134 148.293 190.758 153.773C184.649 157.77 183.337 157.311 177.815 154.422C171.144 150.929 161.315 144.172 155.651 139.992C155.289 139.73 155.144 139.382 155.244 138.933C155.251 138.895 156.473 133.414 157.37 129.742C157.712 128.344 158.002 127.209 158.164 126.736C158.823 124.824 164.373 133.604 174.388 136.351C185.629 139.43 203.565 127.775 208.832 118.991C209.001 118.708 209.112 118.715 209.346 119.005C210.054 119.889 210.672 120.81 211.227 121.77C212.356 123.682 213.263 125.715 214.237 127.758C215.169 129.704 212.918 131.658 211.848 133.007Z" fill="#F7CDDC"/>
<path d="M211.227 121.77C192.628 146.212 169.08 145.145 157.37 129.742C157.712 128.344 158.002 127.209 158.164 126.736C158.823 124.824 164.373 133.604 174.388 136.351C185.629 139.43 203.565 127.775 208.832 118.991C209.001 118.708 209.112 118.715 209.346 119.005C210.054 119.889 210.672 120.81 211.227 121.77Z" fill="#E077A3"/>
<path d="M170.695 126.477L162.281 136.086C161.774 136.665 160.894 136.721 160.314 136.213L133.625 112.838C133.046 112.33 132.987 111.45 133.494 110.871L141.908 101.266C142.416 100.689 143.296 100.631 143.876 101.138L170.564 124.513C171.144 125.021 171.203 125.901 170.695 126.477Z" fill="#4E63A6"/>
<path d="M162.585 128.738L140.738 109.604C140.462 109.366 140.435 108.948 140.676 108.672C140.914 108.4 141.332 108.372 141.608 108.614L163.455 127.747C163.727 127.986 163.755 128.403 163.513 128.679C163.275 128.952 162.858 128.98 162.585 128.738Z" fill="#98ABEB"/>
<path d="M145.125 109.96C144.769 109.98 144.438 109.859 144.186 109.642C143.938 109.421 143.772 109.111 143.751 108.752L143.517 105.207C143.468 104.493 144.007 103.878 144.721 103.83C145.077 103.806 145.408 103.93 145.656 104.148C145.905 104.365 146.071 104.679 146.095 105.035L146.329 108.583C146.378 109.297 145.839 109.911 145.125 109.96Z" fill="#FFB3C9"/>
<g style="mix-blend-mode:multiply" opacity="0.502">
<path d="M145.125 109.959C144.769 109.98 144.438 109.859 144.186 109.642C143.938 109.421 143.772 109.11 143.751 108.751L143.63 106.926L146.209 106.753L146.329 108.582C146.378 109.297 145.839 109.911 145.125 109.959Z" fill="#E077A3"/>
</g>
<path d="M150.008 114.232C149.649 114.256 149.318 114.136 149.07 113.918C148.821 113.697 148.656 113.387 148.631 113.028L148.397 109.483C148.348 108.769 148.89 108.155 149.601 108.106C149.957 108.082 150.291 108.206 150.54 108.424C150.788 108.641 150.954 108.955 150.978 109.311L151.213 112.859C151.258 113.57 150.719 114.187 150.008 114.232Z" fill="#FFB3C9"/>
<g style="mix-blend-mode:multiply" opacity="0.502">
<path d="M150.008 114.232C149.65 114.256 149.318 114.135 149.07 113.918C148.821 113.697 148.656 113.387 148.631 113.028L148.511 111.202L151.092 111.029L151.213 112.858C151.258 113.569 150.719 114.187 150.008 114.232Z" fill="#E077A3"/>
</g>
<path d="M154.889 118.508C154.533 118.533 154.202 118.412 153.953 118.194C153.705 117.973 153.539 117.663 153.515 117.304L153.28 113.756C153.232 113.045 153.77 112.431 154.485 112.382C154.84 112.358 155.172 112.482 155.42 112.7C155.669 112.917 155.834 113.231 155.858 113.587L156.093 117.135C156.141 117.846 155.603 118.464 154.889 118.508Z" fill="#FFB3C9"/>
<g style="mix-blend-mode:multiply" opacity="0.502">
<path d="M154.888 118.508C154.533 118.532 154.202 118.412 153.953 118.194C153.705 117.973 153.539 117.663 153.515 117.304L153.394 115.478L155.972 115.305L156.093 117.135C156.141 117.846 155.603 118.463 154.888 118.508Z" fill="#E077A3"/>
</g>
<path d="M159.772 122.784C159.417 122.809 159.082 122.688 158.833 122.47C158.585 122.25 158.419 121.939 158.395 121.58L158.16 118.032C158.115 117.321 158.654 116.707 159.365 116.658C159.724 116.634 160.055 116.759 160.304 116.976C160.552 117.193 160.718 117.508 160.742 117.863L160.977 121.411C161.021 122.122 160.483 122.74 159.772 122.784Z" fill="#FFB3C9"/>
<g style="mix-blend-mode:multiply" opacity="0.502">
<path d="M159.772 122.785C159.417 122.809 159.082 122.688 158.833 122.47C158.585 122.25 158.419 121.939 158.395 121.58L158.274 119.754L160.856 119.582L160.977 121.411C161.021 122.122 160.483 122.74 159.772 122.785Z" fill="#E077A3"/>
</g>
<path d="M164.652 127.06C164.297 127.085 163.965 126.964 163.717 126.746C163.468 126.525 163.303 126.215 163.279 125.856L163.044 122.308C162.996 121.597 163.534 120.983 164.248 120.934C164.604 120.91 164.935 121.034 165.187 121.252C165.436 121.469 165.601 121.783 165.622 122.139L165.857 125.687C165.905 126.398 165.367 127.016 164.652 127.06Z" fill="#FFB3C9"/>
<g style="mix-blend-mode:multiply" opacity="0.502">
<path d="M164.652 127.06C164.297 127.085 163.965 126.964 163.717 126.746C163.468 126.525 163.303 126.215 163.279 125.856L163.158 124.03L165.736 123.858L165.857 125.687C165.905 126.398 165.367 127.016 164.652 127.06Z" fill="#E077A3"/>
</g>
<path d="M139.672 116.182C139.316 116.206 138.985 116.082 138.737 115.865C138.488 115.647 138.323 115.333 138.298 114.978L138.064 111.43C138.015 110.719 138.554 110.101 139.268 110.056C139.624 110.032 139.955 110.153 140.207 110.374C140.455 110.591 140.621 110.902 140.642 111.261L140.876 114.808C140.925 115.519 140.386 116.134 139.672 116.182Z" fill="#FFB3C9"/>
<g style="mix-blend-mode:multiply" opacity="0.502">
<path d="M139.672 116.182C139.316 116.206 138.985 116.082 138.737 115.865C138.488 115.647 138.322 115.333 138.298 114.978L138.177 113.152L140.756 112.979L140.876 114.808C140.925 115.519 140.386 116.134 139.672 116.182Z" fill="#E077A3"/>
</g>
<path d="M144.555 120.458C144.2 120.482 143.865 120.358 143.617 120.141C143.368 119.923 143.202 119.609 143.178 119.254L142.944 115.706C142.899 114.995 143.437 114.377 144.148 114.332C144.507 114.308 144.838 114.429 145.087 114.646C145.335 114.867 145.501 115.178 145.525 115.537L145.76 119.085C145.808 119.796 145.266 120.41 144.555 120.458Z" fill="#FFB3C9"/>
<g style="mix-blend-mode:multiply" opacity="0.502">
<path d="M144.555 120.458C144.2 120.482 143.865 120.358 143.617 120.141C143.368 119.923 143.203 119.609 143.178 119.254L143.058 117.424L145.639 117.255L145.76 119.085C145.808 119.796 145.266 120.41 144.555 120.458Z" fill="#E077A3"/>
</g>
<path d="M149.439 124.734C149.08 124.758 148.749 124.634 148.5 124.417C148.252 124.199 148.086 123.885 148.062 123.53L147.827 119.982C147.779 119.271 148.321 118.653 149.032 118.608C149.387 118.584 149.719 118.705 149.97 118.922C150.219 119.143 150.385 119.454 150.409 119.813L150.643 123.361C150.688 124.072 150.15 124.686 149.439 124.734Z" fill="#FFB3C9"/>
<g style="mix-blend-mode:multiply" opacity="0.502">
<path d="M149.439 124.734C149.08 124.758 148.749 124.634 148.5 124.417C148.252 124.199 148.086 123.885 148.062 123.53L147.941 121.701L150.523 121.531L150.644 123.361C150.688 124.072 150.15 124.686 149.439 124.734Z" fill="#E077A3"/>
</g>
<path d="M154.319 129.01C153.964 129.035 153.632 128.91 153.38 128.693C153.132 128.475 152.966 128.161 152.945 127.806L152.711 124.258C152.662 123.547 153.201 122.929 153.915 122.884C154.271 122.86 154.602 122.981 154.851 123.198C155.099 123.419 155.265 123.73 155.289 124.089L155.524 127.633C155.572 128.348 155.033 128.962 154.319 129.01Z" fill="#FFB3C9"/>
<g style="mix-blend-mode:multiply" opacity="0.502">
<path d="M154.319 129.01C153.964 129.034 153.632 128.91 153.38 128.693C153.132 128.475 152.966 128.161 152.945 127.806L152.821 125.976L155.403 125.807L155.523 127.633C155.572 128.348 155.033 128.962 154.319 129.01Z" fill="#E077A3"/>
</g>
<path d="M159.203 133.287C158.844 133.311 158.512 133.186 158.264 132.969C158.015 132.752 157.85 132.438 157.826 132.082L157.591 128.534C157.543 127.823 158.084 127.205 158.795 127.161C159.151 127.136 159.486 127.257 159.734 127.475C159.983 127.695 160.148 128.006 160.172 128.365L160.407 131.909C160.452 132.624 159.914 133.238 159.203 133.287Z" fill="#FFB3C9"/>
<g style="mix-blend-mode:multiply" opacity="0.502">
<path d="M159.203 133.287C158.844 133.311 158.512 133.186 158.264 132.969C158.015 132.752 157.85 132.437 157.826 132.082L157.705 130.253L160.286 130.084L160.407 131.909C160.452 132.624 159.914 133.238 159.203 133.287Z" fill="#E077A3"/>
</g>
<g style="mix-blend-mode:multiply" opacity="0.251">
<path d="M170.695 126.477L162.281 136.085C161.774 136.665 160.894 136.72 160.314 136.213L133.625 112.838C133.046 112.33 132.987 111.45 133.494 110.87L133.594 110.76C137.159 114.401 141.07 117.69 145.101 120.852C149.246 124.096 153.65 127.861 158.571 129.842C159.983 130.408 160.991 130.657 162.468 130.329C165.705 129.611 168.104 126.688 169.991 124.009L170.564 124.513C171.144 125.021 171.203 125.901 170.695 126.477Z" fill="#4E63A6"/>
</g>
<path d="M167.669 120.217C168.932 121.093 170.378 120.317 172.169 120.041C178.74 119.022 185.291 117.742 191.752 116.168C198.074 114.626 204.704 112.921 210.419 109.714C213.008 108.261 214.861 106.767 215.721 103.837C218.202 95.3985 216.069 79.8471 214.778 71.2741C214.064 66.5286 213.384 59.1257 210.837 54.9393C206.288 47.4673 193.833 50.8357 195.841 64.7616C197.988 79.7366 200.193 90.439 201.564 97.0724C195.155 100.972 181.877 106.657 169.339 112.714C169.291 112.72 165.926 114.267 166.119 117.304C166.229 118.871 167.327 120.161 167.669 120.217Z" fill="#BA705D"/>
<path d="M207.741 94.9602L204.711 95.968C204.204 96.1233 203.703 96.2924 203.189 96.4339C202.675 96.5789 202.157 96.7204 201.608 96.8101C202.478 96.1302 203.476 95.6747 204.504 95.3295C205.025 95.1708 205.553 95.0327 206.099 94.9637C206.637 94.8912 207.196 94.8533 207.741 94.9602Z" fill="#944F48"/>
<path d="M150.488 124.275C151.831 124.279 153.27 124.117 154.592 123.923C154.775 123.899 155.475 123.923 155.61 123.806C155.548 123.858 155.499 123.934 155.427 123.961C154.965 124.13 154.499 124.303 154.022 124.441C152.649 124.838 152.531 125.618 153.222 126.142C154.516 127.123 158.281 127.033 162.136 125.794C165.991 124.558 169.915 122.167 171.524 118.771C172.307 117.117 171.52 114.494 169.829 113.328C167.296 111.582 164.393 110.415 161.349 110.087C160.204 109.963 154.043 109.221 154.392 111.599C154.616 113.11 160.138 113.884 158.633 115.495C157.325 116.9 154.619 117.148 152.825 117.49C151.548 117.735 149.974 117.652 148.763 118.146C147.907 118.498 147.548 119.575 148.511 120.168C150.098 121.124 152.756 120.886 152.079 121.183C149.919 122.136 149.111 122.07 148.694 122.791C148.048 123.899 149.353 124.275 150.488 124.275Z" fill="#BA705D"/>
<path d="M155.437 119.93C155.013 120.379 154.488 120.62 153.946 120.793C153.401 120.945 152.818 121.031 152.221 120.859C152.725 120.507 153.229 120.317 153.757 120.151C154.288 120.006 154.823 119.885 155.437 119.93Z" fill="#944F48"/>
<path d="M158.388 122.902C157.933 123.343 157.387 123.575 156.832 123.74C156.266 123.885 155.672 123.965 155.058 123.795C155.579 123.44 156.107 123.254 156.652 123.091C157.204 122.953 157.76 122.843 158.388 122.902Z" fill="#944F48"/>
<path d="M171.341 118.86C171.317 117.942 171.344 117.107 171.172 116.31C171.02 115.509 170.661 114.784 170.212 113.98C171.037 114.391 171.641 115.24 171.831 116.175C172.01 117.114 171.827 118.084 171.341 118.86Z" fill="#944F48"/>
<path d="M170.509 69.2482C172.11 67.5916 173.277 66.1041 174.016 64.7891C185.173 44.8615 192.335 58.1144 191.413 56.8133C188.521 52.7028 187.527 34.9805 187.044 33.5931C186.05 30.7182 182.851 28.3506 179.897 28.5681C175.848 28.858 173.039 32.4369 171.869 36.8235C171.838 36.9409 171.807 37.0616 171.779 37.1721C170.685 41.6139 171.865 43.4292 170.858 47.6743C170.022 51.2843 168.849 54.1282 167.658 65.7037C167.458 67.6364 168.169 69.4242 170.509 69.2482Z" fill="#BA705D"/>
<g style="mix-blend-mode:multiply" opacity="0.251">
<path d="M170.858 47.6746C176.055 47.7816 180.235 44.9481 182.979 40.5753C183.403 39.9092 183.655 39.1845 183.962 38.477C184.111 38.1422 184.1 37.8109 183.893 37.4864C180.77 32.5477 175.32 32.627 171.876 36.8169C171.872 36.8203 171.869 36.8238 171.869 36.8238C171.838 36.9411 171.807 37.0619 171.779 37.1724C170.685 41.6142 171.865 43.4295 170.858 47.6746Z" fill="#944F48"/>
</g>
<path d="M161.236 20.6856C159.079 30.8876 161.726 41.1344 171.251 42.5046C179.752 43.7229 189.505 37.3139 191.659 27.1154C193.812 16.9134 188.684 7.5018 180.349 5.43104C171.658 3.27054 163.289 10.9703 161.236 20.6856Z" fill="#BA705D"/>
<path d="M167.731 18.915C167.934 17.2791 163.841 17.1548 163.81 18.8287C163.786 20.2471 167.565 20.2471 167.731 18.915Z" fill="#202538"/>
<path d="M178.678 20.979C179.258 19.4363 175.303 18.3664 174.885 19.9885C174.53 21.3587 178.205 22.2387 178.678 20.979Z" fill="#202538"/>
<path d="M164.083 23.3189C164.138 23.8677 164.442 24.2266 164.88 24.2611C165.836 24.3371 166.326 23.0497 165.977 22.2835C165.646 21.5519 164.604 21.6278 164.266 22.3077C164.114 22.6114 164.048 22.9842 164.083 23.3189Z" fill="#202538"/>
<path d="M174.972 24.5061C175.051 25.0514 175.372 25.3965 175.81 25.4138C176.766 25.4517 177.204 24.1437 176.825 23.3948C176.462 22.6735 175.427 22.7943 175.116 23.488C174.978 23.7986 174.923 24.1713 174.972 24.5061Z" fill="#202538"/>
<path d="M172.58 33.4624C172.345 33.0206 171.99 32.6548 171.586 32.3614C171.182 32.0577 170.713 31.8472 170.226 31.7092C169.733 31.5849 169.215 31.5297 168.714 31.6056C168.214 31.6574 167.734 31.8438 167.317 32.0992C167.817 32.1095 168.276 32.0819 168.728 32.1302C169.18 32.1613 169.622 32.2372 170.05 32.358C170.916 32.5789 171.727 32.9758 172.58 33.4624Z" fill="#944F48"/>
<g opacity="0.749">
<path opacity="0.749" d="M181.715 30.7391C181.926 29.6658 180.787 28.3163 179.03 28.0126C177.446 27.74 175.952 28.3301 175.638 29.7831C175.389 30.9117 176.614 32.3025 178.088 32.5579C179.793 32.8513 181.477 32.2818 181.715 30.7391Z" fill="#944F48"/>
<path opacity="0.749" d="M159.472 27.878C159.534 26.7874 160.973 25.7623 162.751 25.9073C164.352 26.0384 165.653 26.9806 165.598 28.4647C165.553 29.6209 164.024 30.6631 162.533 30.5424C160.808 30.4043 159.32 29.431 159.472 27.878Z" fill="#944F48"/>
</g>
<path d="M170.74 21.4724C170.433 22.9703 169.916 24.3542 169.336 25.7106C169.022 26.3456 168.866 27.0428 169.205 27.5052C169.374 27.7434 169.66 27.9401 169.967 28.1058C170.302 28.3094 170.554 28.5544 170.896 28.7511C170.506 28.7926 170.098 28.6718 169.757 28.5682C169.394 28.4267 169.018 28.2334 168.721 27.8849C168.411 27.5397 168.3 27.0359 168.328 26.6148C168.359 26.1937 168.483 25.783 168.594 25.4276C168.846 24.7166 169.132 24.0264 169.481 23.3603C169.836 22.7011 170.212 22.0419 170.74 21.4724Z" fill="#944F48"/>
<path d="M188.121 29.0652C188.135 29.3309 188.038 29.5518 187.941 29.752C187.845 29.9556 187.714 30.1316 187.576 30.3007C187.282 30.6217 186.951 30.9047 186.464 31.0462C186.554 30.5492 186.796 30.1903 187.068 29.859C187.355 29.538 187.683 29.2792 188.121 29.0652Z" fill="#944F48"/>
<path d="M189.998 27.8814C191.103 29.3136 190.433 31.167 189.025 32.3163C187.538 33.538 186.475 33.8176 186.333 36.0057C186.123 39.1946 189.746 41.4828 186.357 46.9013C185.187 48.7754 185.688 52.5303 187.89 54.6494C192.117 58.7254 189.263 60.2267 188.611 62.9394C187.331 68.2681 190.571 75.0533 195.638 77.5382C198.806 79.0879 203.275 78.8739 205.477 75.7884C208.39 71.7125 203.558 65.6037 207.814 62.401C209.826 60.8859 211.303 58.3526 211.552 55.8366C212.024 51.067 207.034 49.614 205.85 47.457C204.145 44.3543 208.583 43.1153 208.787 37.5449C208.929 33.6553 206.896 31.2015 203.876 29.148C201.073 27.2429 199.748 24.8305 200.735 21.4068C201.819 17.6587 200.935 12.9098 198.164 10.0797C196.186 8.06074 193.457 7.77773 190.847 7.18067C187.741 6.47316 185.819 5.11336 183.834 2.6595C178.012 -4.53639 164.811 4.1539 167.562 13.462C169.543 20.1574 178.281 12.8235 180.594 21.041C181.153 23.0427 181.336 25.072 181.974 25.6795C182.468 26.1488 183.044 26.3973 183.724 26.4077C186.378 26.4525 188.545 25.9866 189.998 27.8814Z" fill="#202538"/>
<path d="M178.471 4.40942C178.668 5.25153 179.061 6.03152 179.627 6.67345C180.18 7.32574 180.904 7.80547 181.646 8.22653C183.144 9.05483 184.787 9.58633 186.413 10.1489C188.042 10.7114 189.671 11.2671 191.255 12.0091C192.846 12.7926 194.14 14.1627 194.844 15.7986C195.199 16.6131 195.424 17.4828 195.52 18.3629C195.631 19.2395 195.555 20.1541 195.507 20.9893C195.41 22.6908 195.413 24.4095 195.741 26.0592C195.879 26.891 196.169 27.6813 196.501 28.4406C196.863 29.1895 197.336 29.8798 197.878 30.5183C198.972 31.7952 200.321 32.8755 201.543 34.1283C202.171 34.7564 202.699 35.5157 203.048 36.3578C203.396 37.1999 203.531 38.1318 203.472 39.0291C203.348 40.8307 202.703 42.47 202.185 44.099C201.688 45.7108 201.301 47.3984 201.55 49.0447C201.64 49.873 201.943 50.653 202.309 51.4053C202.675 52.1612 203.151 52.879 203.545 53.6728C204.397 55.2466 204.383 57.3036 203.427 58.8359C202.492 60.3683 200.977 61.3484 200.245 62.8739C199.486 64.3856 199.244 66.1319 199.438 67.8299C199.621 69.5349 200.135 71.1915 200.615 72.8412C200.066 71.2122 199.493 69.5763 199.262 67.8506C199.017 66.1388 199.203 64.3269 199.948 62.729C200.708 61.0931 202.237 60.0611 203.065 58.6185C203.279 58.2665 203.424 57.8765 203.538 57.4865C203.645 57.0896 203.662 56.672 203.697 56.2647C203.717 55.4399 203.465 54.6426 203.082 53.9041C202.699 53.1586 202.209 52.4442 201.809 51.6573C201.412 50.8738 201.08 50.0214 200.977 49.131C200.697 47.3467 201.101 45.5727 201.605 43.9126C202.119 42.2698 202.734 40.6477 202.83 38.9946C202.879 38.1697 202.754 37.3552 202.44 36.6063C202.126 35.8608 201.646 35.1809 201.06 34.5908C199.886 33.369 198.533 32.2784 197.388 30.9324C196.822 30.256 196.318 29.5139 195.938 28.7064C195.583 27.8919 195.282 27.0463 195.144 26.1766C194.813 24.4406 194.82 22.6839 194.93 20.9548C194.986 20.0747 195.055 19.2602 194.965 18.4216C194.885 17.5898 194.692 16.7719 194.371 16.0022C193.74 14.4595 192.552 13.1515 191.061 12.3853C189.543 11.6364 187.914 11.0531 186.302 10.456C184.694 9.84517 183.054 9.26536 181.557 8.37838C180.818 7.92972 180.093 7.42238 179.551 6.73558C178.999 6.06258 178.633 5.25498 178.471 4.40942Z" fill="#3D4357"/>
<path d="M171.9 2.51112C170.744 3.34633 169.712 4.36445 168.98 5.5793C168.228 6.77689 167.765 8.14359 167.579 9.54481C167.555 9.72082 167.393 9.84852 167.217 9.82436C167.044 9.80365 166.92 9.64489 166.934 9.47233C167.082 7.96413 167.61 6.50079 168.421 5.22382C169.249 3.9572 170.354 2.88386 171.62 2.09007C171.741 2.01759 171.896 2.0521 171.969 2.16945C172.041 2.28334 172.007 2.43174 171.9 2.51112Z" fill="#3D4357"/>
</svg>
