<svg width="121" height="183" viewBox="0 0 121 183" fill="none" xmlns="http://www.w3.org/2000/svg">
<rect y="164.776" width="119.374" height="4.93711" rx="2.46855" fill="#9162A4"/>
<path d="M41.0223 51.2335C50.9523 49.4474 70.2777 53.8594 73.3286 60.528C75.3629 64.9737 75.8146 102.22 74.6837 172.268L14.4922 167.217C8.8608 136.791 5.29288 111.275 3.78844 90.6693C2.79404 77.0522 3.94016 57.9008 41.0223 51.2335Z" fill="#9162A4"/>
<path d="M36.5755 24.4577C36.5755 37.2337 44.2797 46.6477 53.6996 47.5914C58.1628 48.0379 65.5554 47.0484 66.6408 42.768C67.934 37.6682 67.8768 33.3226 67.5465 24.9561C67.0435 12.1922 63.1557 1.32404 53.6996 1.32404C44.2423 1.32404 36.5755 11.6805 36.5755 24.4577Z" fill="#9162A4"/>
<path d="M62.7625 37.8963C61.9466 37.6356 61.0864 37.5366 60.2298 37.5294C59.3708 37.5185 58.5106 37.6308 57.6702 37.8263C57.2477 37.9216 56.8392 38.0664 56.4284 38.2028L55.8308 38.461C55.7328 38.5057 55.6313 38.5455 55.5356 38.595L55.2508 38.7543C54.4781 39.1501 53.793 39.7088 53.1873 40.3219C53.9483 39.9176 54.6719 39.4988 55.4504 39.2008C56.2172 38.8834 57.0026 38.6215 57.808 38.4405C59.4128 38.0471 61.0666 37.8951 62.7625 37.8963Z" fill="#572F66"/>
<path d="M65.6944 12.4372C69.3428 6.64468 69.2121 2.87234 65.3034 1.12132C59.4408 -1.50581 43.513 0.667577 38.2364 5.7191C32.9598 10.7706 30.5169 18.3479 32.6668 24.2079C34.1 28.1142 35.4679 33.9743 36.7704 41.7869C41.3304 37.4425 43.611 34.2603 43.611 32.239C43.611 29.2076 39.7023 16.6801 44.5879 14.053C49.4735 11.4271 62.1766 7.38564 65.6944 12.4372Z" fill="#9162A4"/>
<path d="M93.5062 74.5023C104.714 91.514 110.318 102.917 110.318 108.712C110.318 117.403 103.343 124.059 96.7264 117.403C92.3146 112.964 88.3802 99.5885 84.922 77.2754L93.5062 74.5023Z" fill="#9162A4"/>
<path d="M80.1646 73.8493L80.447 85.5272H66.8943V64.7998L80.1646 73.8493Z" fill="#E9684D"/>
<path d="M40.6348 123.381C40.6348 100.863 54.9824 82.6081 72.682 82.6081C90.3815 82.6081 104.73 100.863 104.73 123.381L107.125 165.296L41.9992 166.035L40.6348 123.381Z" fill="#E9684D"/>
<path d="M57.201 123.32L40.6346 123.381C38.5641 115.45 39.0193 107.601 41.999 99.8348C44.9799 92.0692 51.8356 86.4602 62.5663 83.0076C69.6963 93.3665 75.1678 97.9305 78.9832 96.6972C82.7985 95.4639 83.2876 91.0242 80.4514 83.3781C90.3464 83.8705 97.5009 88.8641 101.912 98.3565C106.323 107.849 107.576 114.135 105.667 117.217L100.123 118.327C101.077 123.627 101.495 127.388 101.376 129.607C101.257 131.826 101.316 143.784 101.554 165.48H57.3795L57.201 123.32Z" fill="#F4AC00"/>
<g opacity="0.349">
<path opacity="0.349" d="M48.4966 148.021L52.5337 151.654L56.586 155.269C59.2844 157.681 62.0073 160.063 64.7209 162.456L66.3374 163.881L65.6897 161.757C64.98 159.431 64.2634 157.107 63.5351 154.786L61.3631 147.822C59.924 143.174 58.4301 138.548 56.9665 133.911L55.2788 135.205C58.0508 137.335 60.825 139.46 63.6145 141.566L71.9688 147.9L75.2847 150.414L73.9588 146.368C73.164 143.936 72.3738 141.502 71.5603 139.078L69.1362 131.796L66.9887 133.363L72.4007 137.874L77.8173 142.378L88.6869 151.339L91.23 153.437L90.8881 150.099L90.2368 143.737L89.554 137.376L88.1838 124.657L86.2125 125.715L93.8187 132.386L101.437 139.043L103.511 140.855L102.953 138.147L101.5 131.11C101.02 128.763 100.504 126.425 100.008 124.081L99.2879 124.66C101.072 125.445 102.868 126.203 104.661 126.969C106.451 127.742 108.259 128.475 110.056 129.229C108.337 128.3 106.627 127.349 104.898 126.438C103.174 125.52 101.452 124.595 99.7198 123.695L98.8456 123.241L98.9985 124.274C99.3486 126.645 99.6801 129.022 100.047 131.389L101.136 138.496L102.65 137.602L95.2205 130.719L87.78 123.853L85.5193 121.766L85.8087 124.91L86.9782 137.651L87.5664 144.022L88.185 150.387L90.3862 149.148L79.5634 140.125L74.1339 135.638L68.6997 131.158L64.9835 128.094L66.5522 132.724L69.0136 139.991C69.8295 142.415 70.6675 144.831 71.5008 147.25L73.4908 145.717L65.0384 139.523C62.2256 137.453 59.3976 135.403 56.5685 133.356L53.7102 131.288L54.8797 134.651C56.4775 139.24 58.0449 143.842 59.6684 148.423L62.089 155.299C62.892 157.593 63.7055 159.882 64.5272 162.169L65.4959 161.47C62.6726 159.216 59.8575 156.951 57.019 154.716L52.766 151.358L48.4966 148.021Z" fill="#FFFDFD"/>
<path opacity="0.349" d="M59.4407 166.813L63.4766 170.447L67.5301 174.06C70.2285 176.473 72.9514 178.855 75.665 181.248L77.2803 182.673L76.6337 180.549C75.9241 178.223 75.2063 175.898 74.4792 173.578L72.3072 166.613C70.8681 161.966 69.3742 157.341 67.9094 152.703L66.2217 153.998C68.9949 156.127 71.7691 158.252 74.5586 160.358L82.9129 166.692L86.2276 169.206L84.9029 165.159C84.1069 162.728 83.3168 160.294 82.5033 157.869L80.0803 150.588L77.9328 152.155L83.3436 156.666L88.7603 161.17L99.6298 170.131L102.174 172.229L101.832 168.892L101.18 162.529L100.498 156.168L99.1279 143.448L97.1555 144.507L104.763 151.178L112.381 157.834L114.455 159.647L113.896 156.939L112.444 149.902C111.964 147.555 111.448 145.216 110.952 142.873L110.231 143.452C112.015 144.236 113.812 144.996 115.604 145.761C117.395 146.534 119.201 147.267 121 148.021C119.281 147.092 117.571 146.141 115.842 145.23C114.117 144.311 112.396 143.387 110.663 142.487L109.789 142.033L109.941 143.067C110.293 145.438 110.623 147.813 110.991 150.181L112.078 157.289L113.595 156.393L106.165 149.511L98.7241 142.645L96.4634 140.558L96.7516 143.702L97.9223 156.443L98.5105 162.813L99.1291 169.179L101.33 167.94L90.5075 158.918L85.078 154.43L79.6438 149.949L75.9276 146.885L77.4963 151.516L79.9577 158.783C80.7724 161.207 81.6116 163.623 82.4437 166.041L84.4349 164.509L75.9825 158.315C73.1685 156.245 70.3417 154.195 67.5114 152.148L64.6531 150.08L65.8238 153.443C67.4216 158.032 68.989 162.634 70.6125 167.214L73.0331 174.091C73.8361 176.385 74.6496 178.674 75.4713 180.961L76.4388 180.262C73.6155 178.008 70.8016 175.743 67.9631 173.508L63.7101 170.151L59.4407 166.813Z" fill="#FFFDFD"/>
</g>
<path d="M59.0498 108.82C58.8245 110.02 58.6366 111.223 58.4546 112.427C58.269 113.632 58.1103 114.838 57.9527 116.046C57.8021 117.256 57.6527 118.465 57.5302 119.676L57.347 121.496C57.2991 122.103 57.2396 122.71 57.2011 123.32C57.3178 122.721 57.4111 122.119 57.5174 121.519L57.7975 119.713C57.983 118.509 58.1406 117.301 58.2993 116.093C58.4487 114.886 58.5981 113.676 58.7207 112.464C58.8467 111.252 58.9669 110.039 59.0498 108.82Z" fill="black"/>
<path d="M96.5722 107.609C96.7998 108.526 97.0636 109.431 97.3332 110.334C97.5993 111.237 97.8911 112.132 98.1828 113.026C98.4816 113.918 98.7827 114.809 99.1084 115.693L99.5986 117.015C99.7736 117.452 99.9382 117.894 100.124 118.327C100.013 117.867 99.881 117.415 99.7608 116.959L99.3628 115.602C99.0979 114.698 98.8061 113.803 98.5131 112.909C98.2132 112.017 97.9132 111.125 97.5864 110.243C97.2643 109.36 96.9363 108.478 96.5722 107.609Z" fill="black"/>
<path d="M92.9703 55.2701C97.9773 45.6546 98.4547 38.875 94.4012 34.9301C88.3204 29.0121 72.2245 32.1558 72.7602 35.1147C73.1185 37.0866 79.8552 43.8059 92.9703 55.2701Z" fill="black"/>
<path d="M64.3532 56.1872C64.3532 67.3932 71.6221 76.4778 80.588 76.4778C89.5551 76.4778 93.7183 67.8313 93.7183 56.6253C93.7183 45.4192 89.5551 35.8967 80.588 35.8967C71.6221 35.8967 64.3532 44.9812 64.3532 56.1872Z" fill="#E9684D"/>
<path d="M87.9619 55.0854C88.228 56.1474 88.5758 57.1804 88.9691 58.1953C89.366 59.2114 89.8048 60.2082 90.372 61.1627C90.4456 61.281 90.5168 61.3992 90.602 61.5139L90.8225 61.8325C90.9404 62.0111 90.9568 62.168 90.9042 62.3333C90.8424 62.5022 90.693 62.6808 90.5039 62.8244C90.3148 62.9692 90.1001 63.0972 89.8748 63.2094C89.4197 63.429 88.9283 63.5956 88.4253 63.709C88.1743 63.7681 87.9187 63.8092 87.6619 63.8321C87.404 63.8514 87.1426 63.8598 86.8893 63.7766C87.1169 63.9214 87.3923 63.9781 87.6584 64.0071C87.9281 64.036 88.1988 64.0324 88.4684 64.0155C89.0065 63.9709 89.541 63.8635 90.0581 63.6643C90.3172 63.5654 90.5739 63.4435 90.8144 63.2746C91.0536 63.108 91.2941 62.8896 91.4411 62.5553C91.5917 62.2126 91.51 61.7709 91.3267 61.503L91.0945 61.1543C91.021 61.0517 90.9556 60.9371 90.8879 60.826C90.6113 60.3831 90.3639 59.9101 90.1211 59.4334C89.8702 58.9616 89.6437 58.4741 89.401 57.9938C88.9295 57.0247 88.4626 56.0509 87.9619 55.0854Z" fill="black"/>
<path d="M83.3123 55.6406C82.8769 56.0448 82.4322 56.4032 81.9607 56.6844C81.7238 56.8208 81.4857 56.9487 81.2359 57.0259C80.992 57.1152 80.7341 57.1768 80.4878 57.1792C80.2439 57.2057 79.9918 57.1575 79.7443 57.0863C79.4922 57.0271 79.2518 56.9016 79.0055 56.7822C78.52 56.5239 78.0566 56.1896 77.5898 55.8252C77.8664 56.3622 78.2656 56.8316 78.7546 57.2009C79.239 57.569 79.8517 57.8417 80.5181 57.8091C81.1682 57.7729 81.7623 57.4845 82.2303 57.0887C82.7018 56.6941 83.08 56.2005 83.3123 55.6406Z" fill="black"/>
<path d="M92.9702 54.7789C92.7158 55.1735 92.4742 55.5585 92.2046 55.9036C91.9408 56.2415 91.6187 56.5577 91.3059 56.6108C91.0339 56.6784 90.6826 56.3731 90.399 56.0629C90.1131 55.7347 89.847 55.3666 89.5715 54.9877C89.6591 55.4559 89.8365 55.8988 90.0921 56.3103C90.2204 56.5155 90.3815 56.7049 90.5811 56.8751C90.7783 57.038 91.0736 57.1719 91.3864 57.1201C91.9688 56.9849 92.2933 56.5384 92.5244 56.1293C92.7578 55.7057 92.9084 55.2508 92.9702 54.7789Z" fill="black"/>
<path d="M83.6707 49.9084L81.9153 50.7459C81.3317 51.0175 80.754 51.2926 80.1646 51.5376C79.5763 51.7862 78.9834 52.0143 78.38 52.2146C77.7731 52.4052 77.1604 52.5633 76.5161 52.6816C77.1627 52.7793 77.8291 52.7287 78.4746 52.6056C79.1212 52.4776 79.7456 52.2628 80.3537 52.0142C80.9559 51.7536 81.5406 51.4507 82.0974 51.1007C82.6529 50.7508 83.1898 50.3658 83.6707 49.9084Z" fill="black"/>
<path d="M88.1408 49.3533C88.4477 49.7322 88.8025 50.0592 89.176 50.3561C89.5507 50.6566 89.9533 50.916 90.3711 51.1514C90.796 51.3746 91.243 51.5665 91.7169 51.6763C92.179 51.7873 92.7218 51.8223 93.1489 51.5725C92.6727 51.6075 92.2479 51.4603 91.8289 51.2913C91.4146 51.1139 91.0049 50.916 90.6022 50.694C89.7911 50.2583 88.9986 49.7768 88.1408 49.3533Z" fill="black"/>
<path d="M85.9956 34.5596C88.4991 37.5186 93.3275 46.0251 76.5161 51.2021C69.3873 53.3984 77.3016 83.0172 70.3852 91.2413C62.5677 100.536 44.1235 99.3725 46.934 89.6255C53.7699 65.9125 52.0145 47.5963 60.9571 36.9635C68.8259 29.5672 81.9888 29.8266 85.9956 34.5596Z" fill="black"/>
<path d="M95.0069 42.4603C95.2216 40.9566 95.0325 39.383 94.4665 37.9554C93.9062 36.5206 92.8745 35.2945 91.6163 34.4582C91.3047 34.2422 90.9674 34.0744 90.6348 33.8983C90.2905 33.7522 89.952 33.5857 89.5949 33.4759C88.8922 33.2188 88.1628 33.0596 87.4322 32.9425C85.9651 32.7313 84.4816 32.7398 83.0216 32.8966C83.3892 32.9027 83.7557 32.9063 84.1222 32.9051C84.4875 32.9123 84.8528 32.9401 85.2181 32.957C85.5822 32.9763 85.9452 33.0221 86.3082 33.0523C86.67 33.0982 87.0295 33.1609 87.389 33.2176C88.8094 33.5024 90.2286 33.9333 91.4284 34.7623C92.0342 35.1581 92.5909 35.6372 93.0624 36.1959C93.5374 36.7535 93.9144 37.393 94.2214 38.0664C94.5213 38.7434 94.7384 39.4651 94.861 40.206C94.9963 40.9446 95.0477 41.7036 95.0069 42.4603Z" fill="#576BFF"/>
<path d="M78.7217 48.523C79.7768 48.3336 80.7723 47.8364 81.6278 47.163C82.4927 46.4981 83.2245 45.6642 83.8699 44.7773C84.5165 43.8879 85.0767 42.9345 85.5669 41.9462C86.0513 40.9518 86.4773 39.9357 86.8228 38.8738L87.1472 37.8782L86.538 38.7253C85.749 39.8247 84.9063 40.8915 84.0146 41.9003C83.5676 42.4035 83.1043 42.8923 82.6024 43.3267C82.3515 43.5415 82.09 43.7443 81.8122 43.9011C81.5426 44.0532 81.2228 44.169 81.0034 44.064L81.077 44.2849L82.3351 41.6517L83.5746 39.0089L83.8512 38.4212L83.4007 38.8774C82.6794 39.6063 81.929 40.311 81.154 40.9808C80.7653 41.3138 80.3662 41.636 79.9483 41.9293C79.527 42.208 79.0963 42.5134 78.591 42.5954C79.101 42.5387 79.555 42.2575 79.988 41.992C80.4199 41.7133 80.8319 41.4055 81.2357 41.087C82.0445 40.4486 82.8101 39.7583 83.5536 39.0391L83.3785 38.9075L82.0784 41.519L80.7957 44.1389L80.7221 44.2897L80.8704 44.3597C81.0688 44.4538 81.2824 44.443 81.4633 44.3995C81.6453 44.3549 81.8099 44.2801 81.9651 44.1944C82.2744 44.023 82.5487 43.8118 82.8125 43.5898C83.3365 43.1445 83.8115 42.6509 84.2691 42.1429C84.7277 41.6372 85.1561 41.1051 85.5774 40.5681C85.9976 40.0286 86.4049 39.4832 86.7994 38.922L86.5146 38.7736C86.1878 39.8078 85.77 40.8263 85.3008 41.8074C84.8305 42.7897 84.3052 43.7479 83.6867 44.6385C83.0716 45.5303 82.3643 46.3581 81.5426 47.0508C80.7256 47.7483 79.7639 48.2708 78.7217 48.523Z" fill="#576BFF"/>
<path d="M65.042 35.9944C62.556 38.0748 60.5882 40.778 59.1036 43.7104C58.3485 45.1754 57.7848 46.7394 57.3307 48.3287C56.8756 49.9229 56.5651 51.5423 56.2336 53.1594C55.6302 56.4044 55.112 59.6639 54.679 62.9342C54.2472 66.2057 53.8644 69.4833 53.5772 72.7705C53.7955 71.1354 54.0079 69.5002 54.2425 67.8687C54.4678 66.2359 54.6977 64.6032 54.9451 62.9752C55.433 59.7158 55.9477 56.4611 56.5768 53.2306C56.8966 51.6184 57.1977 49.9941 57.6365 48.4204C58.0695 46.8444 58.6333 45.3034 59.3429 43.8347C60.0467 42.3637 60.8812 40.959 61.8324 39.6412C62.3039 38.9787 62.8069 38.3403 63.3415 37.7297C63.876 37.1191 64.4351 36.5302 65.042 35.9944Z" fill="#576BFF"/>
<path d="M91.7177 67.8445C86.2333 64.2701 83.1334 62.8521 82.4179 63.5919C81.7025 64.3316 82.7763 65.8727 85.6369 68.215C81.8215 65.6253 79.5561 64.7625 78.8407 65.6253C78.1252 66.4881 79.318 69.2009 82.4179 73.7625C79.9144 72.283 78.6621 71.9741 78.6621 72.8369C78.6621 74.1318 83.6703 80.7883 88.6773 80.9741C93.6855 81.1588 96.189 72.8369 96.189 70.8035C96.189 68.3381 94.8176 66.4266 92.076 65.0714L91.7177 67.8445Z" fill="#9162A4"/>
<path d="M37.7484 32.239L32.6679 54.2636C38.2702 60.3252 43.416 63.4918 48.1056 63.7609C55.1411 64.1651 52.0143 57.9008 52.0143 55.8807C52.0143 54.5339 52.8617 51.1659 54.5552 45.7776L37.7484 32.239Z" fill="#9162A4"/>
<path d="M82.7613 73.3088C85.7141 68.9644 86.5404 66.5895 85.2368 66.1852C83.9342 65.781 81.0678 69.6885 76.6385 77.9053C77.0295 74.133 76.5731 72.4495 75.2706 72.8538C73.3156 73.4596 72.5348 80.9367 74.0976 85.9882L39.1163 107.306C30.909 80.4311 22.4076 67.1965 13.6132 67.5996C6.71314 67.9169 3.92136 78.4592 10.9755 96.0913C17.4064 112.169 28.4078 130.643 35.3056 130.643C44.9461 130.643 60.2881 117.24 81.328 90.4328C85.1072 87.335 87.6469 84.7079 88.9506 82.5526C90.9044 79.3197 94.5446 76.3522 93.5059 74.5023C92.8138 73.2677 91.4903 73.8639 89.5365 76.2883C92.0551 73.4041 93.1838 71.0183 92.9223 69.1334C92.6621 67.2472 90.5776 69.312 86.6688 75.3301C90.1434 69.6716 91.3164 66.528 90.1866 65.9004C88.702 65.0738 86.2265 67.5428 82.7613 73.3088Z" fill="#9162A4"/>
<path d="M81.3279 90.4328C82.9642 89.0824 84.5504 87.6645 86.0478 86.1476C86.7947 85.3873 87.5195 84.6029 88.1825 83.7606C88.3424 83.5446 88.5116 83.3358 88.6622 83.1125C88.8092 82.8881 88.9656 82.6648 89.1057 82.4392C89.3904 81.9878 89.6986 81.5522 90.0184 81.1262C90.6615 80.2754 91.3431 79.4561 92.006 78.6149C92.3351 78.1926 92.6596 77.7642 92.9584 77.314C93.2513 76.8615 93.5303 76.3872 93.6902 75.8502C93.7684 75.5823 93.8127 75.2939 93.7754 75.0055C93.7369 74.7171 93.6225 74.4407 93.4357 74.2187C93.249 73.9894 92.9455 73.8567 92.6596 73.8699C92.3725 73.876 92.1075 73.9737 91.8648 74.0932C91.3781 74.3406 90.9567 74.6833 90.5599 75.0441C90.1643 75.4086 89.7966 75.7959 89.4488 76.2135C89.408 76.263 89.4138 76.3366 89.4605 76.3788C89.5083 76.421 89.5795 76.4162 89.6204 76.3679C90.5833 75.2263 91.4493 74.0027 92.1484 72.6668C92.4915 71.997 92.7903 71.2947 92.9619 70.5453C93.0459 70.17 93.0961 69.7826 93.0774 69.3904C93.0588 69.1961 93.0564 68.997 92.9665 68.7895C92.9234 68.6893 92.8568 68.5843 92.7541 68.5143C92.6526 68.4431 92.5312 68.4154 92.4215 68.4154C92.2009 68.419 92.0153 68.4962 91.8438 68.5819C91.671 68.6688 91.5111 68.7714 91.3571 68.88C91.0513 69.0984 90.7665 69.3422 90.4922 69.5932C89.9437 70.0976 89.4313 70.637 88.9329 71.1873C87.9385 72.2927 86.9978 73.4427 86.0921 74.6266L86.3361 74.8172C87.355 73.38 88.3214 71.9089 89.1944 70.3691C89.6262 69.5968 90.0394 68.81 90.3592 67.9664C90.5109 67.5429 90.658 67.1084 90.6755 66.6185C90.6801 66.382 90.6428 66.0911 90.4385 65.8715C90.3335 65.7605 90.2086 65.705 90.0931 65.6639C89.974 65.6193 89.848 65.6048 89.7243 65.6C89.2271 65.6024 88.8069 65.8281 88.4334 66.0682C88.0588 66.3156 87.7203 66.6052 87.3982 66.9081C86.7574 67.5187 86.1843 68.1897 85.6358 68.8788C84.5445 70.2629 83.556 71.7195 82.6327 73.2267C82.5884 73.2991 82.6082 73.3957 82.6794 73.4415C82.7471 73.4862 82.8382 73.4669 82.8837 73.3981C83.4147 72.5992 83.9131 71.7834 84.3799 70.9435C84.8421 70.1024 85.2821 69.2432 85.6031 68.3212C85.7537 67.8578 85.8996 67.3788 85.861 66.849C85.8412 66.5931 85.7221 66.2866 85.4665 66.1394C85.4047 66.1032 85.3417 66.0767 85.2775 66.0549C85.2051 66.0368 85.1327 66.0248 85.0616 66.0296C84.9215 66.0368 84.7919 66.0754 84.6776 66.1297C84.2189 66.353 83.8746 66.6969 83.5396 67.0396C83.207 67.386 82.9012 67.7553 82.6059 68.1306C81.4318 69.6402 80.4059 71.2549 79.408 72.8828C78.4147 74.5156 77.4635 76.1724 76.5508 77.8547L76.7376 77.9162C76.8111 77.0908 76.8379 76.2666 76.7994 75.4399C76.7784 75.026 76.7399 74.6121 76.6594 74.203C76.5742 73.7975 76.4644 73.3776 76.189 73.0324C76.0513 72.8647 75.8412 72.7332 75.6159 72.7199C75.3942 72.7066 75.1806 72.7682 74.9974 72.884C74.6321 73.1193 74.4021 73.4886 74.2166 73.8555C73.8512 74.6037 73.6587 75.4146 73.5116 76.2231C73.2303 77.8474 73.1778 79.5043 73.2665 81.1455C73.3634 82.7855 73.6085 84.4231 74.0975 85.9883C73.6283 84.4171 73.4042 82.7783 73.3284 81.1419C73.2607 79.5043 73.3354 77.8547 73.633 76.2473C73.7894 75.4484 73.9925 74.6483 74.3543 73.9303C74.5363 73.5779 74.7651 73.234 75.0849 73.0361C75.2401 72.9395 75.428 72.8913 75.6019 72.9021C75.7782 72.9142 75.9357 73.0107 76.0536 73.1543C76.2894 73.4476 76.4003 73.8494 76.4785 74.2404C76.5543 74.6362 76.5905 75.0429 76.6092 75.4496C76.6442 76.2629 76.6138 77.0848 76.538 77.8945C76.5333 77.9512 76.573 78.0019 76.629 78.0079C76.6687 78.0116 76.7072 77.9898 76.7259 77.956C77.6433 76.2835 78.6015 74.6314 79.5982 73.0071C80.6008 71.3888 81.6325 69.7826 82.7996 68.2947C83.0938 67.9242 83.3972 67.5622 83.7217 67.2267C84.045 66.896 84.3916 66.5642 84.7826 66.3795C84.8795 66.3337 84.9787 66.3083 85.0709 66.3035C85.1176 66.2999 85.1584 66.3083 85.2004 66.318C85.2471 66.3337 85.2903 66.353 85.3312 66.3771C85.4922 66.4713 85.5728 66.6619 85.5926 66.8779C85.6253 67.316 85.4922 67.7842 85.3428 68.2259C85.0289 69.1153 84.5912 69.9648 84.1302 70.7939C83.6645 71.6229 83.165 72.4339 82.6374 73.2195L82.8884 73.3908C83.8081 71.9041 84.8013 70.4548 85.8856 69.0924C86.4306 68.4142 87.0002 67.7553 87.6246 67.1652C87.9374 66.8719 88.2653 66.5956 88.6155 66.3663C88.9621 66.1418 89.3484 65.956 89.7184 65.9584C89.8095 65.9632 89.8993 65.9729 89.9822 66.0054C90.0674 66.0368 90.1456 66.0742 90.1899 66.1261C90.2915 66.2287 90.3335 66.4145 90.3277 66.6137C90.3183 67.0143 90.1853 67.4367 90.0405 67.8409C89.7371 68.6531 89.3333 69.4339 88.9096 70.199C88.0529 71.7255 87.0947 73.199 86.091 74.629C86.0408 74.699 86.0548 74.7979 86.1236 74.8498C86.189 74.9005 86.2824 74.886 86.3337 74.8197C87.2266 73.6419 88.1603 72.4894 89.1418 71.3888C89.6344 70.8398 90.1398 70.3027 90.6755 69.8056C90.9439 69.5582 91.2205 69.3204 91.5111 69.1105C91.7982 68.9113 92.1227 68.7014 92.4215 68.6905C92.718 68.6664 92.8032 69.0429 92.816 69.4037C92.8358 69.7633 92.7915 70.129 92.7121 70.4862C92.5511 71.2018 92.2651 71.8896 91.9301 72.5473C91.252 73.8603 90.3942 75.0827 89.4523 76.2099L89.6239 76.3643C89.9577 75.9588 90.3218 75.5703 90.7058 75.2131C91.0921 74.8583 91.503 74.524 91.957 74.2923C92.1834 74.1789 92.425 74.092 92.6631 74.0859C92.9012 74.0775 93.1253 74.174 93.2817 74.3599C93.4392 74.5457 93.5408 74.7859 93.5746 75.0333C93.6073 75.2818 93.5723 75.5425 93.4999 75.7911C93.3529 76.2919 93.0856 76.7577 92.7985 77.203C92.5067 77.6459 92.1881 78.0731 91.8613 78.4943C91.2077 79.3366 90.5214 80.1572 89.8888 81.0236C89.5725 81.4569 89.2679 81.8997 88.9855 82.3595C88.8466 82.5912 88.6983 82.8084 88.5548 83.0341C88.4089 83.2562 88.242 83.4649 88.0868 83.6809C87.4402 84.5281 86.7259 85.3197 85.9906 86.0884C84.5142 87.621 82.9467 89.0607 81.3279 90.4328Z" fill="#572F66"/>
<path d="M35.0128 100.334C35.2812 100.962 35.573 101.574 35.8799 102.177C36.1846 102.782 36.4997 103.379 36.8277 103.969C37.1486 104.563 37.4929 105.142 37.8314 105.726C38.178 106.304 38.5235 106.882 38.8877 107.449L39.0382 107.686L39.253 107.544C39.7642 107.207 40.2719 106.862 40.7702 106.502C41.2698 106.146 41.7635 105.778 42.2432 105.386C41.6806 105.633 41.132 105.906 40.5893 106.188C40.0466 106.469 39.5109 106.764 38.9799 107.067L39.3452 107.161C39.0254 106.567 38.6869 105.983 38.3496 105.399C38.003 104.821 37.6645 104.238 37.3015 103.671C36.9444 103.099 36.5767 102.534 36.1974 101.977C35.8204 101.418 35.4283 100.869 35.0128 100.334Z" fill="#572F66"/>
<path d="M40.5823 129.431C39.3369 129.927 38.0403 130.278 36.7272 130.419C35.4224 130.566 34.0778 130.508 32.871 130.034C32.27 129.799 31.7121 129.467 31.223 129.047C31.1016 128.941 30.9884 128.825 30.8706 128.715L30.5473 128.352L29.9334 127.553C29.1339 126.463 28.3624 125.343 27.6236 124.198C26.1238 121.926 24.6883 119.601 23.2352 117.289L21.0713 113.809L18.8899 110.336C19.5073 111.561 20.1691 112.76 20.8157 113.968L22.836 117.545C24.198 119.921 25.622 122.26 27.1194 124.553C27.871 125.697 28.6507 126.824 29.4805 127.92L30.1283 128.727L30.4901 129.117C30.622 129.236 30.7492 129.361 30.8846 129.474C31.4296 129.928 32.0587 130.267 32.7158 130.489C34.037 130.941 35.4387 130.937 36.7669 130.723C38.0963 130.476 39.3895 130.058 40.5823 129.431Z" fill="#572F66"/>
<path d="M92.988 57.4808C92.59 57.5327 92.1885 57.4627 91.8547 57.2902C91.689 57.2045 91.5361 57.0995 91.4077 56.968C91.2759 56.8437 91.1708 56.6904 91.0739 56.5396L90.6036 56.9402C90.7705 57.0971 90.9444 57.2455 91.1428 57.3541C91.3365 57.4688 91.549 57.5448 91.759 57.5906C92.1827 57.6824 92.6146 57.6341 92.988 57.4808Z" fill="black"/>
<path d="M93.835 57.2117C93.437 57.2636 93.0343 57.1936 92.7017 57.021C92.5348 56.9354 92.3819 56.8304 92.2547 56.6988C92.1216 56.5745 92.0177 56.4213 91.9209 56.2692L91.4493 56.6711C91.6174 56.828 91.7913 56.9764 91.9897 57.0838C92.1823 57.1996 92.3947 57.2745 92.606 57.3203C93.0296 57.4132 93.4615 57.365 93.835 57.2117Z" fill="black"/>
<path d="M82.5 58.2893C82.102 58.3412 81.7005 58.2712 81.3667 58.0987C81.201 58.013 81.0481 57.908 80.9197 57.7765C80.7878 57.6522 80.6828 57.4989 80.5859 57.3469L80.1155 57.7487C80.2824 57.9056 80.4563 58.054 80.6548 58.1614C80.8473 58.2773 81.0609 58.3521 81.271 58.398C81.6947 58.4897 82.1265 58.4426 82.5 58.2893Z" fill="black"/>
<path d="M83.3472 58.019C82.9492 58.0721 82.5465 58.0021 82.2139 57.8296C82.047 57.7427 81.8941 57.6389 81.7669 57.5062C81.6338 57.3819 81.5299 57.2298 81.4331 57.0778L80.9615 57.4796C81.1296 57.6365 81.3035 57.7837 81.5019 57.8923C81.6945 58.0082 81.9069 58.083 82.1182 58.1289C82.5418 58.2206 82.9725 58.1735 83.3472 58.019Z" fill="black"/>
<path d="M61.1332 23.3318C61.2231 24.3914 61.3958 25.4413 61.6281 26.4791C61.8673 27.5145 62.1568 28.5475 62.6376 29.5153C62.7508 29.7591 62.9026 29.9872 63.0485 30.2164C63.1325 30.325 63.2235 30.4312 63.3111 30.5374C63.3986 30.646 63.4745 30.716 63.5328 30.8162C63.6589 31.0033 63.674 31.2144 63.5958 31.422C63.5071 31.6259 63.3461 31.8166 63.164 31.9844C62.7929 32.3174 62.3435 32.5745 61.8895 32.805C61.4355 33.0451 60.9616 33.2442 60.4819 33.4349C61.4787 33.1851 62.4731 32.8508 63.3356 32.198C63.5457 32.029 63.7499 31.8263 63.8771 31.5475C64.0067 31.2675 63.9822 30.891 63.8153 30.6364C63.7464 30.5049 63.6297 30.3938 63.5562 30.2961L63.3251 30.0089C63.192 29.7941 63.0543 29.5829 62.9481 29.3476C62.4824 28.4304 62.1836 27.4143 61.8883 26.4091C61.7436 25.9035 61.6129 25.3918 61.4927 24.8777C61.3608 24.366 61.2511 23.8496 61.1332 23.3318Z" fill="#572F66"/>
</svg>
