<svg width="1253" height="1711" viewBox="0 0 1253 1711" fill="none" xmlns="http://www.w3.org/2000/svg">
<path fill-rule="evenodd" clip-rule="evenodd" d="M830.761 1101.71C759.214 1077.41 661.503 1137.04 610.579 1081.22C561.119 1027 604.637 938.99 616.209 866.521C626.067 804.786 634.329 741.877 672.654 692.485C710.674 643.487 765.3 607.183 826.267 595.81C883.675 585.102 935.637 622.547 993.145 632.702C1066.63 645.679 1164.47 603.849 1209.36 663.461C1253.8 722.473 1197.26 806.138 1177.32 877.268C1162.52 930.04 1132.22 972.744 1108.76 1022.28C1076.95 1089.43 1087.01 1198.34 1015.56 1218.75C943.695 1239.29 901.537 1125.75 830.761 1101.71Z" fill="#C8B2D8" fill-opacity="0.15"/>
<path fill-rule="evenodd" clip-rule="evenodd" d="M247.409 692.467C175.32 677.68 143.501 592.919 107.492 528.741C78.4896 477.051 57.5277 420.566 61.6758 361.441C65.3964 308.41 103.706 267.935 129.068 221.212C155.409 172.686 166.595 113.227 212.811 83.0144C262.494 50.5349 327.41 37.0572 384.163 54.4503C439.237 71.3289 463.215 132.339 504.574 172.432C550.379 216.835 629.632 238.667 639.253 301.732C648.851 364.635 584.677 411.913 549.168 464.714C516.529 513.247 487.317 561.839 440.634 597.074C381.863 641.431 319.539 707.262 247.409 692.467Z" fill="#C8B2D8" fill-opacity="0.15"/>
<path fill-rule="evenodd" clip-rule="evenodd" d="M323.046 1118.89C384.253 1120.98 452.045 1062.01 501.13 1098.63C550.355 1135.36 511.274 1218.08 532.986 1275.53C556.572 1337.94 633.609 1377.33 631.659 1444.02C629.602 1514.34 576.195 1572.9 522.945 1618.88C466.075 1667.99 398.078 1714.52 323.046 1710.51C249.233 1706.57 185.874 1654.71 138.08 1598.33C97.2118 1550.11 91.5911 1484.94 79.2975 1422.94C68.5865 1368.92 62.26 1316.28 71.3835 1261.97C81.9864 1198.86 80.246 1117.76 135.881 1086.13C192.321 1054.04 258.159 1116.66 323.046 1118.89Z" fill="#C8B2D8" fill-opacity="0.15"/>
</svg>
