<svg width="633" height="1161" viewBox="0 0 633 1161" fill="none" xmlns="http://www.w3.org/2000/svg">
<path fill-rule="evenodd" clip-rule="evenodd" d="M119.998 320.002C84.9186 313.159 69.4349 273.933 51.9121 244.233C37.7989 220.312 27.5985 194.172 29.617 166.811C31.4276 142.269 50.0698 123.538 62.4112 101.916C75.2293 79.4588 80.6727 51.9425 103.162 37.9609C127.339 22.9301 158.928 16.6929 186.545 24.742C213.345 32.5531 225.013 60.7871 245.14 79.3413C267.429 99.89 305.995 109.993 310.677 139.178C315.347 168.289 284.119 190.168 266.84 214.603C250.957 237.063 236.742 259.55 214.025 275.856C185.426 296.384 155.098 326.849 119.998 320.002Z" fill="#C8B2D8" fill-opacity="0.15"/>
<path fill-rule="evenodd" clip-rule="evenodd" d="M427.226 718.402C392.41 707.157 344.862 734.753 320.081 708.919C296.013 683.829 317.19 643.098 322.821 609.561C327.618 580.992 331.638 551.878 350.288 529.021C368.789 506.346 395.372 489.545 425.039 484.282C452.975 479.326 478.26 496.655 506.245 501.355C542.006 507.36 589.616 488.002 611.461 515.589C633.086 542.899 605.571 581.617 595.867 614.535C588.666 638.956 573.921 658.719 562.505 681.641C547.026 712.717 551.921 763.119 517.154 772.566C482.182 782.07 461.667 729.525 427.226 718.402Z" fill="#C8B2D8" fill-opacity="0.15"/>
<path fill-rule="evenodd" clip-rule="evenodd" d="M180.162 886.384C209.947 887.353 242.936 860.061 266.822 877.01C290.775 894.007 271.758 932.287 282.323 958.875C293.8 987.757 331.288 1005.99 330.339 1036.85C329.338 1069.39 303.349 1096.49 277.437 1117.77C249.763 1140.5 216.674 1162.03 180.162 1160.17C144.244 1158.35 113.412 1134.35 90.1543 1108.26C70.2673 1085.95 67.5322 1055.79 61.5499 1027.09C56.3377 1002.1 53.2591 977.734 57.6988 952.601C62.8584 923.393 62.0114 885.864 89.0842 871.226C116.549 856.375 148.587 885.356 180.162 886.384Z" fill="#C8B2D8" fill-opacity="0.15"/>
</svg>
