<svg width="32" height="32" viewBox="0 0 32 32" fill="none" xmlns="http://www.w3.org/2000/svg">
<g clip-path="url(#clip0_321:103)">
<path d="M5.24953 8.71263L0.993408 4.46415L2.85046 2.60986L7.10527 6.85965H27.1089C27.3135 6.85964 27.5152 6.90737 27.698 6.99904C27.8808 7.09071 28.0396 7.22378 28.1618 7.38763C28.2839 7.55148 28.366 7.74157 28.4015 7.94272C28.437 8.14388 28.4249 8.35054 28.3662 8.54621L25.2164 19.0298C25.1354 19.2999 24.9693 19.5366 24.7428 19.705C24.5163 19.8733 24.2415 19.9642 23.9592 19.9642H7.87434V22.5851H22.3108V25.206H6.56194C6.21387 25.206 5.88005 25.0679 5.63393 24.8221C5.3878 24.5764 5.24953 24.2431 5.24953 23.8955V8.71263ZM7.21814 30.4478C6.69603 30.4478 6.19531 30.2407 5.82612 29.872C5.45694 29.5034 5.24953 29.0034 5.24953 28.4821C5.24953 27.9608 5.45694 27.4608 5.82612 27.0921C6.19531 26.7235 6.69603 26.5164 7.21814 26.5164C7.74025 26.5164 8.24097 26.7235 8.61015 27.0921C8.97934 27.4608 9.18674 27.9608 9.18674 28.4821C9.18674 29.0034 8.97934 29.5034 8.61015 29.872C8.24097 30.2407 7.74025 30.4478 7.21814 30.4478ZM22.967 30.4478C22.4449 30.4478 21.9442 30.2407 21.575 29.872C21.2058 29.5034 20.9984 29.0034 20.9984 28.4821C20.9984 27.9608 21.2058 27.4608 21.575 27.0921C21.9442 26.7235 22.4449 26.5164 22.967 26.5164C23.4891 26.5164 23.9898 26.7235 24.359 27.0921C24.7282 27.4608 24.9356 27.9608 24.9356 28.4821C24.9356 29.0034 24.7282 29.5034 24.359 29.872C23.9898 30.2407 23.4891 30.4478 22.967 30.4478Z" fill="#9162A4"/>
</g>
<defs>
<clipPath id="clip0_321:103">
<rect width="31.4977" height="31.4508" fill="white" transform="translate(0 0.307617)"/>
</clipPath>
</defs>
</svg>
