<svg width="220" height="79" viewBox="0 0 220 79" fill="none" xmlns="http://www.w3.org/2000/svg">
<path d="M40.3608 18.9786C42.0002 18.5855 42.9523 15.548 42.4264 13.3222C41.7531 10.4686 40.6142 9.44765 37.6917 8.37598L40.3608 18.9786Z" fill="#5E2F36"/>
<path d="M142.175 69.5006L141.795 78.082H173.159C172.588 73.437 172.113 70.344 171.733 68.8047L142.175 69.5006Z" fill="#4F512E"/>
<path d="M177.079 35.0928C178.161 33.8292 179.64 33.1349 181.519 33.0112C184.336 32.8273 184.665 32.9716 185.832 32.6482C187.001 32.3264 187.703 31.7017 186.878 28.7911C185.641 29.3269 184.405 29.2286 183.168 28.4946C181.313 27.3944 179.218 25.3953 179.664 16.6888C179.9 12.066 188.665 7.72693 193.062 11.1655C197.459 14.6041 197.665 20.1733 196.428 22.8557C195.193 25.538 194.573 25.9058 194.299 27.3374C194.024 28.7689 194.245 30.8362 195.207 31.5892C196.17 32.3422 202.991 31.8952 204.839 34.3128C207.436 37.2488 216.086 49.1435 218.145 52.3949C219.137 53.9597 220.203 55.331 219.967 56.1109C219.65 57.273 215.136 64.5972 206.423 78.0819H204.285L203.756 71.0795L210.726 57.181L203.612 46.7242L178.948 49.2433L178.826 45.4655C176.281 45.4814 174.413 45.3847 173.222 45.1722L177.079 35.0928Z" fill="#F8C6A3"/>
<path d="M194.213 28.4159C194.212 28.5031 194.188 28.6093 194.153 28.7202C193.962 29.3322 193.477 29.8189 192.867 30.0139C192.449 30.1486 191.864 30.2517 191.058 30.2517C189.33 30.2517 187.944 29.765 186.9 28.7916C185.492 29.3988 184.137 29.2307 182.837 28.289C184.47 28.4745 185.725 27.043 185.272 25.4244C185.062 24.6761 188.044 25.6717 194.213 28.4143V28.4159Z" fill="#F3BD99"/>
<path d="M213.049 57.34C212.943 56.988 212.275 55.7547 211.042 53.6414C213.998 52.1084 215.519 48.551 215.52 48.551L212.785 46.666L204.468 47.9866L210.725 57.1815L203.756 71.08L203.922 73.2725C206.243 69.4027 213.181 57.7807 213.049 57.34Z" fill="#F3BD99"/>
<path d="M186.791 32.1653C188.814 32.8201 193.365 33.1593 195.207 31.5898C196.8 31.6976 198.056 31.7912 198.978 31.8689C201.09 32.0496 203.466 32.029 205.684 34.3261C207.161 35.8575 210.51 40.4898 215.73 48.2246C214.171 51.0259 211.408 52.6588 207.442 53.1233L204.456 48.8936C204.077 54.2599 203.993 59.2696 204.206 63.9193C204.35 67.0947 204.652 71.8158 205.116 78.0826H176.723C176.228 61.9646 176.51 52.1784 177.567 48.7272L180.272 33.2148C180.924 33.0927 181.88 32.996 183.14 32.9263C184.4 32.8565 185.617 32.6029 186.791 32.1653Z" fill="#3CB28E"/>
<path d="M197.26 11.1517C196.819 11.0963 196.387 11.1248 195.977 11.2183C196.049 10.9964 196.103 10.7665 196.133 10.5271C196.385 8.51535 194.96 6.68114 192.949 6.42749C191.923 6.29907 190.944 6.61138 190.196 7.21222C189.978 6.95857 189.672 6.77943 189.314 6.73504C188.833 6.67321 188.38 6.86662 188.083 7.20746C187.435 6.07396 186.284 5.24483 184.888 5.06886C182.531 4.77399 180.382 6.44651 180.087 8.80388C180.002 9.48399 180.084 10.1467 180.296 10.7522C180.162 10.7174 180.025 10.6872 179.883 10.6682C178.201 10.4574 176.664 11.6511 176.453 13.3363C176.243 15.0215 177.435 16.5577 179.119 16.7685C179.311 16.7939 179.501 16.7971 179.688 16.786C180.312 19.5016 182.238 20.372 182.837 20.3006C183.442 20.2277 183.19 17.975 184.934 17.9052C187.418 17.8069 187.575 21.3406 186.783 22.7674C185.991 24.1942 185.31 23.7075 184.934 23.8248C184.355 24.1942 185.538 26.4121 187.504 27.6502C189.754 29.0643 192.33 28.8915 193.881 28.5396C194.272 28.4508 194.822 28.0101 195.417 27.3331C195.451 27.3379 195.486 27.3458 195.52 27.3506C196.705 27.4996 197.787 26.6594 197.936 25.472C198.001 24.9551 197.874 24.4589 197.614 24.0499C198.739 23.7075 199.615 22.7341 199.772 21.4928C199.856 20.8175 199.712 20.1675 199.404 19.6158C199.729 19.3986 199.962 19.0466 200.014 18.6281C200.074 18.143 199.88 17.6864 199.534 17.3916C200.046 16.8383 200.398 16.1281 200.499 15.3227C200.756 13.2761 199.305 11.4086 197.26 11.1517Z" fill="#D6594C"/>
<path d="M196.9 25.9647C195.98 25.9806 195.777 24.9628 195.417 25.3227C195.161 25.5779 194.579 26.0424 193.55 26.5228C192.49 27.0142 189.275 26.9286 188.525 26.5624C186.879 25.7602 186.046 25.0342 186.026 24.3874C187.624 23.6343 187.309 22.2297 187.206 21.0059C187.187 21.678 187.032 22.3201 186.783 22.7672C185.991 24.1939 185.31 23.7072 184.934 23.8246C184.355 24.1939 185.538 26.4118 187.504 27.6499C189.755 29.0641 192.33 28.8912 193.881 28.5393C194.272 28.4505 194.822 28.0098 195.417 27.3329C195.451 27.3376 195.486 27.3456 195.52 27.3503C196.705 27.4993 197.787 26.6591 197.936 25.4717C197.957 25.3068 197.95 25.1467 197.934 24.9882C197.934 25.3465 197.698 25.9505 196.9 25.9647Z" fill="#BF4A41"/>
<path d="M115.66 22.8812C114.956 22.32 113.974 22.1789 113.271 23.2569C112.569 24.3349 114.068 28.2237 116.22 27.0046L115.66 22.8812Z" fill="#F8C6A3"/>
<path d="M132.211 22.8812C132.913 22.32 133.897 22.1789 134.598 23.2569C135.302 24.3349 133.803 28.2237 131.649 27.0046L132.211 22.8812Z" fill="#F8C6A3"/>
<path d="M114.882 24.1763C114.882 18.7402 118.935 14.333 123.935 14.333C128.935 14.333 132.989 18.7402 132.989 24.1763C132.989 29.6123 128.935 34.018 123.935 34.018C118.935 34.018 114.882 29.6123 114.882 24.1763Z" fill="#65439B"/>
<path d="M132.989 24.1763C132.989 22.61 132.65 21.1293 132.051 19.8135C132.376 21.2165 132.382 23.4597 130.646 25.7188C129.58 27.1044 124.297 27.8209 119.932 26.299C115.66 24.8104 115.572 20.4048 116.488 18.5801C115.476 20.1702 114.882 22.0963 114.882 24.1763C114.882 29.6123 118.935 34.0179 123.935 34.0179C128.935 34.0179 132.989 29.6123 132.989 24.1763Z" fill="#523C7C"/>
<path d="M133.073 16.5791C132.024 18.7542 128.842 19.3915 125.965 18.0027C123.087 16.614 121.604 13.7239 122.653 11.5489C123.702 9.37382 126.884 8.73494 129.762 10.1253C132.639 11.514 134.121 14.4025 133.073 16.5791Z" fill="#65439B"/>
<path d="M43.1377 78.0818C43.5812 74.0171 44.4556 68.887 45.5027 65.9922H73.4435C74.4889 68.887 75.3649 74.0171 75.8085 78.0818H43.1377Z" fill="#394E5B"/>
<path d="M105.812 66.7695H77.4005L76.7668 78.0824H106.445L105.812 66.7695Z" fill="#4477BB"/>
<path d="M84.2276 15.2637C83.5258 14.7009 82.5422 14.5614 81.8404 15.6394C81.1371 16.7158 82.6356 20.6062 84.7899 19.3871L84.2276 15.2637Z" fill="#F8C6A3"/>
<path d="M100.139 15.2528C100.847 14.6995 101.832 14.5695 102.522 15.6539C103.212 16.7398 101.673 20.6128 99.5325 19.3699L100.139 15.2528Z" fill="#F8C6A3"/>
<path d="M95.4076 30.8127H87.8042V24.3652H95.4076V30.8127Z" fill="#F8C6A3"/>
<path d="M87.8042 25.1848V26.4721C88.338 27.2172 89.6053 27.5882 91.6059 27.5882C93.6065 27.5882 94.8738 27.3123 95.4076 26.7607V24.3652H87.8042V25.1848Z" fill="#F3BD99"/>
<path d="M149.26 16.6174C148.558 16.0546 147.575 15.9151 146.873 16.9915C146.17 18.0695 147.668 21.9583 149.822 20.7408L149.26 16.6174Z" fill="#C17A61"/>
<path d="M44.4856 33.7236C42.6371 32.5711 40.7726 31.9338 38.8956 31.8101C36.0776 31.6246 35.7497 31.7689 34.5807 31.4471C33.4132 31.1237 32.7115 30.499 33.5352 27.5884C35.0638 28.0545 36.4482 27.9261 37.6917 27.2016C40.6016 25.5053 40.4622 19.8853 40.4622 15.2546C40.4622 10.6254 31.7484 6.52422 27.3511 9.96278C22.9538 13.4013 22.7479 18.9722 23.985 21.6529C25.2222 24.3353 25.8399 24.7031 26.1156 26.1347C26.3896 27.5678 26.1678 29.6335 25.2063 30.3865C24.2448 31.1395 19.328 29.9061 16.9773 32.6551C14.5854 35.4516 6.46401 49.228 4.95284 51.9104C3.44008 54.5928 2.54669 55.4853 3.85352 58.3738C4.72315 60.2999 7.58551 64.4709 12.4422 70.8899L15.6023 66.7696L10.5176 55.5551L17.9388 45.2394L41.4649 48.0406L41.5868 44.61C45.8416 43.8823 48.9954 43.1023 51.0515 42.2669L44.4856 33.7236Z" fill="#E0A375"/>
<path d="M49.3708 40.0793C48.6184 40.3314 43.974 36.4441 43.6366 37.3081C43.1883 38.4512 43.6303 40.5993 44.8975 41.7613C42.9238 42.248 40.5652 42.6808 39.9743 42.5667C38.4014 42.2607 36.3136 39.3675 36.1742 35.7656L32.8984 44.0061L33.7918 47.1276L41.4649 48.0408L41.5869 44.6101C45.8416 43.8825 48.9954 43.1025 51.0515 42.267L49.3708 40.0793Z" fill="#D7986A"/>
<path d="M26.2217 27.2141C26.2233 27.3013 26.247 27.4075 26.2819 27.5184C26.4735 28.1288 26.9567 28.6155 27.5681 28.8121C27.9863 28.9452 28.5708 29.0499 29.3755 29.0499C31.1053 29.0499 32.4913 28.5632 33.5352 27.5882C35.0685 28.0638 36.4545 27.9354 37.6917 27.2014C36.3041 26.8922 34.4903 25.865 34.4143 24.7013C34.3636 23.9245 31.6327 24.7616 26.2217 27.2125V27.2141Z" fill="#CE8E60"/>
<path d="M18.0449 40.6738C11.5852 49.5041 8.20642 54.1681 7.90704 54.6659C7.60766 55.1637 10.055 58.9383 15.2506 65.993L10.5175 55.5552L17.9387 45.2396L21.799 45.6993L22.5594 43.3451L18.0449 40.6738Z" fill="#D7986A"/>
<path d="M21.1894 30.813C19.3123 34.4434 17.4574 39.8763 17.9389 45.2394C18.4189 50.6041 20.2881 55.5551 19.5261 58.4436C18.7626 61.3304 11.2733 70.0101 7.90723 78.0825H40.8187C41.2765 72.7828 41.5284 66.9932 41.5743 60.7122C41.6203 54.4311 41.5648 49.6799 41.408 46.4554C39.127 46.7724 37.6079 45.3631 36.8523 42.2273C35.5597 36.8689 36.1474 33.1497 37.5905 31.7689L34.9451 31.5042C34.1056 32.5299 33.0031 34.8286 31.4397 36.5725C29.6434 38.5747 24.2592 38.3956 23.255 36.5201C22.5231 35.1488 23.1757 31.8862 23.7824 30.6751C22.596 30.5562 21.7311 30.6005 21.1894 30.813Z" fill="#EC6469"/>
<path d="M41.552 52.0508C39.4326 52.4947 29.9521 54.4684 29.5609 54.3527C29.1902 54.2433 21.6898 53.5965 19.3137 53.3935C19.5355 54.6253 19.6923 55.7541 19.7018 56.7465L19.705 56.7544C27.4097 58.8565 32.3123 59.971 34.4143 60.0963C37.5666 60.2865 39.0762 59.2132 41.5869 56.7544C41.5837 54.9535 41.571 53.3824 41.552 52.0508Z" fill="#D3545E"/>
<path d="M51.0516 42.2666C49.0335 42.7359 47.4052 43.3858 41.587 44.6097C38.2558 47.8184 34.4937 51.3552 33.8442 51.6073C32.6388 52.075 19.9554 51.8134 18.8988 51.2395L18.4648 48.9852C17.6855 49.4814 17.3655 50.664 17.5065 52.5315C17.6474 54.3991 18.1179 55.4041 18.921 55.5437C27.9025 57.446 33.3817 58.1214 35.3617 57.5713C37.3418 57.0228 42.6705 53.1054 51.3494 45.8209L51.0516 42.2666Z" fill="#F8C6A3"/>
<path d="M51.1116 42.983L48.5645 42.9307C45.9715 45.9856 43.9724 48.1955 42.5705 49.5589C40.4685 51.6055 36.426 56.0872 34.4143 56.4107C32.4042 56.7356 20.5239 55.8685 20.5176 55.8685C24.1751 56.5898 33.0235 58.2211 35.3616 57.5711C37.3416 57.0226 42.6703 53.1053 51.3493 45.8207L51.1116 42.983Z" fill="#F3BD99"/>
<path d="M165.215 16.6065C165.923 16.0517 166.908 15.9217 167.599 17.0076C168.289 18.0935 166.748 21.9649 164.608 20.7236L165.215 16.6065Z" fill="#C17A61"/>
<path d="M160.919 32.1647H153.315V25.7188H160.919V32.1647Z" fill="#C17A61"/>
<path d="M153.315 25.7188V27.5878C154.519 28.13 155.928 28.3583 157.542 28.2759C159.156 28.1919 160.282 27.8463 160.919 27.2391V25.7188H153.315Z" fill="#B5715A"/>
<path d="M48.5646 42.9307C48.6533 45.0883 48.6739 49.2498 49.1158 52.0494C49.7463 56.0334 46.3739 60.626 45.1399 65.9828C48.4806 67.8646 53.2581 68.8047 59.4722 68.8047C65.6864 68.8047 70.4639 67.8646 73.8046 65.9828C72.5706 60.626 69.1998 56.0334 69.8287 52.0494C70.2706 49.2498 70.5827 45.1184 70.6714 42.9608L48.5646 42.9307Z" fill="#FFDA60"/>
<path d="M69.8254 54.1278C69.7319 53.4176 69.7224 52.7248 69.8286 52.0494C70.1121 50.258 70.3402 47.9213 70.4923 45.9047C70.3133 44.9678 70.1549 44.1419 70.0186 43.43L69.4975 42.9592L48.5645 42.9307C48.5803 43.2937 48.593 43.717 48.6056 44.1767C49.5513 44.3955 51.9986 46.0664 52.6117 49.1832C53.1249 51.8053 54.6693 55.9176 60.676 56.6421C64.4302 57.0939 67.8152 55.4579 69.8254 54.1278Z" fill="#EAAB4E"/>
<path d="M107.288 71.4744C104.895 72.7427 99.6672 73.3768 91.606 73.3768C83.5465 73.3768 78.3191 72.7427 75.9241 71.4744C75.9494 70.8895 75.9874 70.0841 76.0413 69.0616C76.1775 66.3507 76.4405 61.582 76.8238 55.9763C76.8301 55.878 76.8365 55.7798 76.846 55.6815C76.8745 55.2344 76.9062 54.7842 76.941 54.3276C76.9505 54.1754 76.9632 54.0232 76.9727 53.871C77.2452 50.0916 77.752 46.7244 77.7996 43.0021C77.8312 42.7769 77.8629 42.555 77.8914 42.3331C77.9231 42.1143 77.9548 41.8923 77.9865 41.6736C78.0815 41.0141 78.1797 40.3641 78.2748 39.7268C78.3255 39.397 78.3793 39.0673 78.43 38.7439C79.2632 33.487 80.1376 29.4032 80.5716 29.1749C81.0991 28.8911 83.51 28.5915 87.8043 28.2744C88.5092 29.1305 89.7765 29.5585 91.606 29.5585C93.4372 29.5585 94.7044 29.1305 95.4077 28.2744C99.7036 28.5915 102.115 28.8911 102.644 29.1749C103.436 29.5966 104.963 40.2848 105.755 50.0599C106.282 56.5772 106.794 63.7143 107.288 71.4744Z" fill="#DEF1F8"/>
<path opacity="0.369" d="M103.39 38.627C102.298 39.0234 102.064 41.4235 102.689 45.826L105.347 45.585C105.099 43.1024 104.817 40.6721 104.527 38.4717C104.028 38.4891 103.637 38.5383 103.39 38.627Z" fill="#90C8EE"/>
<path opacity="0.369" d="M105.812 54.4801C98.4047 57.5936 93.925 59.4722 92.3727 60.1175C90.041 61.0877 82.3901 58.1199 80.8789 57.5936C80.334 57.4034 78.2874 56.7185 76.0413 69.0618C76.1775 66.3509 76.4404 61.5823 76.8238 55.9766C76.8301 55.8783 76.8364 55.78 76.846 55.6817C76.8745 55.2347 76.9061 54.7844 76.941 54.3279C76.9505 54.1757 76.9632 54.0235 76.9727 53.8713C77.2451 50.0919 77.752 46.7247 77.7995 43.0023C77.8312 42.7772 77.8629 42.5553 77.8914 42.3333C77.9231 42.1114 77.9548 41.8926 77.9865 41.6738C78.0815 41.0143 78.1797 40.3643 78.2747 39.727C78.3286 39.3973 78.3793 39.0675 78.43 38.7441C80.0869 39.3371 80.5748 40.2692 80.8219 41.9021C81.0627 43.4938 81.1609 46.7564 81.1165 51.6899L92.303 56.3539L105.812 54.4801Z" fill="#90C8EE"/>
<path d="M75.1795 42.2666C84.6679 48.2322 89.824 51.3426 90.6477 51.5978C91.8832 51.9799 104.717 50.4389 105.732 49.7937L105.563 47.8279C106.838 48.1735 107.47 49.2832 107.461 51.1571C107.45 53.0309 106.9 54.1391 105.81 54.4815C96.9838 57.0069 91.5632 58.0643 89.5499 57.6537C87.5382 57.2447 81.4222 54.082 71.2036 48.1688L75.1795 42.2666Z" fill="#F8C6A3"/>
<path d="M105.563 47.8281L105.732 49.7939C104.717 50.4392 91.8832 51.9801 90.6476 51.598C90.3086 51.4934 88.9923 50.7435 87.2594 49.7115L85.4219 49.591C86.4563 50.3662 89.6845 53.0042 94.0628 54.3533C98.4395 55.7024 98.6311 54.9383 100.534 54.0347C102.287 53.2024 105.894 51.0891 107.307 49.8811C107.009 48.7492 106.426 48.0659 105.563 47.8281Z" fill="#EDB48E"/>
<path d="M90.0584 55.8074C88.788 55.1907 75.566 47.7127 72.7813 45.8262L71.2036 48.1693C81.4222 54.0825 87.5382 57.2452 89.5499 57.6543C91.5632 58.0649 96.9838 57.0074 105.81 54.482C96.2615 55.8295 91.012 56.2703 90.0584 55.8074Z" fill="#F3BD99"/>
<path d="M61.1006 7.37891C58.4711 7.37891 54.7185 7.60719 53.578 11.8844C51.4348 11.9018 49.2077 13.1622 49.5245 16.2282C49.93 20.1534 49.4009 21.0824 47.7662 22.4521C45.4978 24.3514 45.284 26.4614 45.5929 28.2766C45.9018 30.0918 45.1256 32.1353 44.0611 34.8018C42.9951 37.4683 43.8615 41.1352 47.1912 42.4003C50.5208 43.6669 52.4534 44.4009 53.4513 47.2672C54.4508 50.1335 56.9964 54.3536 63.9598 54.0349C72.276 53.6545 76.4721 45.1825 75.0306 40.5343C73.8315 36.6677 73.6984 35.1347 74.5016 32.1401C75.2445 29.361 74.869 26.555 71.3683 24.3656C68.7357 22.7201 68.9638 18.687 68.6216 16.1616C68.0529 11.9415 66.0016 7.37891 61.1006 7.37891Z" fill="#AA683A"/>
<path d="M45.1398 32.7891L44.4856 33.7228C46.8585 35.1147 53.993 40.8346 56.1885 41.5527C58.3839 42.2724 69.2678 43.1412 75.265 43.4297C75.3632 42.3644 75.2903 41.3688 75.0306 40.5333C74.4445 38.6452 74.115 37.3136 74.0231 36.096L60.9833 35.3906L45.1398 32.7891Z" fill="#935B35"/>
<path d="M132.43 28.0084C129.837 28.2604 123.022 28.5775 118.517 27.7785C114.012 26.9811 108.661 25.8539 105.658 26.8875C103.656 27.5756 102.14 28.2287 101.11 28.8454L102.626 29.1656C116.189 33.8154 123.291 36.1712 123.934 36.2346C124.578 36.2964 127.5 36.0776 132.702 35.5767L132.43 28.0084Z" fill="#C17A61"/>
<path d="M123.934 36.2347C124.807 36.3187 131.261 35.7131 132.496 35.5958L129.993 30.7146C127.595 31.5183 124.679 32.8294 123.502 32.7898C122.325 32.7485 109.582 28.4111 106.92 28.2748C105.146 28.1844 103.209 28.3746 101.11 28.8455L102.626 29.1657C116.189 33.8155 123.291 36.1712 123.934 36.2347Z" fill="#B5715A"/>
<path d="M170.333 29.4384C166.856 29.3085 163.016 27.9197 160.919 28.6981C160.577 29.4733 159.385 29.914 157.344 30.0203C155.733 30.1027 154.391 29.811 153.315 29.1436C151.009 28.4714 148.943 27.9165 147.117 27.4758C144.643 26.8782 143.292 27.0018 140.386 27.2396C138.486 27.395 135.154 27.7009 130.393 28.1591C129.176 32.7645 129.788 36.203 132.23 38.4748C134.7 38.8156 136.593 39.1327 137.914 39.426C140.496 39.9983 141.164 40.7101 141.164 41.4377C141.164 43.1372 141.164 60.7216 141.715 69.2823C144.655 70.9533 150.196 71.7063 158.337 71.5446C166.477 71.3829 171.248 70.6822 172.65 69.4409C171.407 52.7141 170.781 43.9077 170.771 43.0215C170.767 42.6489 170.825 42.3398 170.98 42.0925" fill="#FFEAA8"/>
<path d="M144.232 60.1189C146.076 58.6462 168.863 66.3921 170.062 65.2839C170.597 64.7877 171.392 63.4418 172.107 62.0816C172.029 61.021 171.947 59.897 171.863 58.746C170.592 58.9696 169.069 59.2708 167.294 59.6529L168.313 51.4567C154.166 51.4425 146.604 50.9558 145.628 49.9951C144.166 48.554 143.863 40.6337 143.678 38.817C143.494 37.0002 139.895 35.8334 136.076 35.0598L134.088 31.3564L130.119 34.237C130.386 35.7811 130.996 37.3268 132.23 38.4745C134.7 38.8154 136.593 39.1324 137.914 39.4257C140.496 39.998 141.164 40.7098 141.164 41.4375C141.164 43.137 141.164 60.7214 141.715 69.2821C142.162 64.1552 143.002 61.1003 144.232 60.1189Z" fill="#F7D89A"/>
<path d="M138.237 27.4248C138.235 27.4264 135.487 28.5218 129.993 30.7143C129.911 31.7337 129.902 32.9528 130.108 34.1783C131.191 34.2544 132.423 34.3352 133.805 34.4224L137.606 30.7223L138.237 27.4248Z" fill="#F7D89A"/>
<path d="M66.8173 31.2215L58.6833 33.0684C53.0489 31.3261 49.0413 30.294 46.6589 29.9738C44.2765 29.652 41.6897 30.2639 38.8955 31.8096C41.403 32.2836 43.2659 32.9225 44.4856 33.7231C46.3151 34.9248 55.5912 40.0136 58.6152 40.1516C60.6301 40.2419 64.2496 40.2419 69.4706 40.1516L66.8173 31.2215Z" fill="#F8C6A3"/>
<path d="M58.6152 40.1518C60.6301 40.2422 64.2496 40.2422 69.4706 40.1518L66.8173 31.2217C64.9212 32.8482 63.795 35.0471 63.4417 37.8214C61.5393 38.1321 59.9236 38.2288 58.5962 38.1099C56.605 37.9308 45.9872 32.8165 43.6302 32.417C42.0588 32.1523 40.4811 31.9493 38.8955 31.8098C41.403 32.2838 43.2659 32.9227 44.4856 33.7233C46.3151 34.925 55.5912 40.0139 58.6152 40.1518Z" fill="#F3BD99"/>
<path d="M109.713 45.5019C109.702 47.482 110.57 49.9757 112.317 52.9862C113.678 55.3309 113.252 57.4727 112.317 61.5787C111.693 64.315 110.386 69.8176 108.397 78.0819H141.164C139.948 72.3922 138.099 67.4983 135.618 63.4034C132.45 58.1734 129.623 55.4895 130.071 53.3461C130.99 48.9579 134.115 39.0227 132.702 37.8369L109.713 39.1638V45.5019Z" fill="#93BF56"/>
<path d="M112.317 46.5451C112.959 45.7841 113.425 44.9376 113.714 44.0054C120.553 44.3288 124.497 44.4889 125.547 44.4857C126.735 44.4826 131.055 41.2279 133.057 39.4999C133.084 38.6724 132.986 38.0763 132.702 37.8369L109.713 39.1638V45.5019C109.713 46.0695 109.845 46.8447 110.106 47.8276C110.128 47.8244 111.362 47.6754 112.317 46.5451Z" fill="#80AD4D"/>
<path d="M178.934 48.8139C175.354 55.1933 172.504 59.7796 170.386 62.5713C169.849 63.2768 169.382 63.4242 168.704 63.41C166.548 63.3672 145.949 57.3826 143.537 56.2824C140.869 55.068 139.857 54.0661 139.466 51.0001C139.205 48.955 139.773 46.8418 141.17 44.6572L141.194 48.7806C144.304 50.1187 146.629 50.9985 148.169 51.4218C149.71 51.8435 155.074 52.9183 164.261 54.6447L170.122 45.239L178.934 48.8139Z" fill="#F8C6A3"/>
<path d="M176.282 47.7375L170.122 45.239L167.138 50.0283C167.408 51.36 168.116 52.7011 169.262 54.0518C170.066 54.9999 170.873 55.7101 171.682 56.1809C170.12 58.7174 169.132 60.1426 168.715 60.4549C168.299 60.7673 161.535 59.1138 148.424 55.4913L161.353 54.0931C157.404 53.3432 149.916 51.9006 148.169 51.4218C146.629 50.9985 144.304 50.1187 141.194 48.7806L141.17 44.6572C139.773 46.8418 139.205 48.955 139.466 51.0001C139.857 54.0661 140.869 55.068 143.537 56.2824C145.949 57.3826 166.548 63.3672 168.706 63.41C169.382 63.4242 169.849 63.2768 170.386 62.5713C172.864 59.3072 176.672 52.7741 178.231 50.0505L176.282 47.7375Z" fill="#F3BD99"/>
<path d="M132.702 37.8373C134.253 37.6011 135.896 40.0203 138.37 42.1161C140.6 44.0074 146.344 48.0531 147.176 48.0928L167.889 48.822L164.968 53.5114C162.15 54.0345 146.468 54.8558 145.359 54.5387C143.955 54.1376 139.431 51.4536 131.788 46.4868C132.563 42.9421 132.889 39.4353 132.702 37.8373Z" fill="#FFDBC2"/>
<path d="M181.237 45.3704C180.217 47.9497 178.307 51.4279 175.509 55.8082C171.53 55.1534 168.627 53.0354 166.8 49.4542C167.529 48.0353 168.435 46.3818 169.519 44.4921C169.519 44.489 169.519 44.489 169.522 44.4858C169.953 43.728 170.425 42.9227 170.925 42.092C171.283 41.5149 172.218 41.2708 174.03 41.3278C175.755 41.3833 177.667 41.2311 179.767 40.8713C180.067 39.8693 180.233 38.6629 180.268 37.2536C178.839 37.7862 176.799 38.3538 174.378 38.4647C173.897 38.4869 173.472 38.5377 173.098 38.6138C173.311 38.2904 173.523 37.9701 173.738 37.6531C176.194 34.0195 178.402 32.9573 180.274 33.2142C182.378 35.7507 182.273 42.7515 181.237 45.3704Z" fill="#3CB28E"/>
<path d="M112.317 38.8564C110.535 38.552 107.449 40.02 104.975 42.1158C102.745 44.0071 96.4515 48.0655 95.6199 48.1051C94.8595 48.1416 90.4892 47.7136 82.5056 46.8226C84.8611 49.6286 87.5428 51.5136 90.5509 52.4775C94.115 53.6205 96.3453 54.0897 98.5107 53.7727C99.9538 53.5618 104.006 51.1299 110.668 46.4802C112.317 45.4576 113.378 40.5828 112.317 38.8564Z" fill="#FFDBC2"/>
<path d="M110.128 43.43C110.583 44.1054 104.033 48.3873 102.108 49.8252C100.184 51.2615 98.4569 52.1889 96.3296 52.051C94.2038 51.9115 88.647 50.8747 82.7417 47.0905C83.6018 48.0385 86.7256 51.252 90.551 52.4775C94.1151 53.6205 96.3454 54.0897 98.5108 53.7727C99.9538 53.5618 104.006 51.1299 110.668 46.4802C112.317 45.4576 113.379 40.5828 112.317 38.8564C110.535 38.552 107.45 40.02 104.975 42.1158C108.107 42.5422 109.826 42.9798 110.128 43.43Z" fill="#FBD1B5"/>
<path d="M115.791 32.4563L123.736 35.2512C130.41 31.4544 134.869 29.1287 137.117 28.2758C140.771 25.1527 144.104 24.8864 147.117 27.4752C145.671 27.5513 143.103 29.1144 139.417 32.1646C137.731 33.5613 127.803 42.7086 124.78 42.5627C122.765 42.466 118.611 41.9777 112.317 41.0979L115.791 32.4563Z" fill="#F8C6A3"/>
<path d="M124.78 42.5631C127.803 42.7089 137.731 33.5616 139.417 32.165C143.103 29.1148 145.671 27.5501 147.117 27.4756C145.186 26.3785 142.135 27.8117 138.869 30.4877C135.602 33.1621 126.258 40.2041 125.119 40.2121C124.359 40.2168 122.124 39.96 118.414 39.4384C117.971 35.4672 117.098 33.1399 115.791 32.4567L112.317 41.0983C118.611 41.9781 122.765 42.4664 124.78 42.5631Z" fill="#F3BD99"/>
<path d="M102.626 29.1651C104.101 29.0002 106.087 29.3094 108.584 30.0893C111.258 30.9264 113.661 31.7159 115.791 32.4562C117.741 34.858 117.968 38.2268 116.471 42.5627C114.217 42.3867 111.874 42.16 109.441 41.8826C106.138 41.5068 106.151 41.204 104.975 42.1156C103.806 41.6162 102.959 39.809 102.431 36.6906C101.88 33.4407 101.945 30.9327 102.626 29.1651Z" fill="#00A5C8"/>
<path opacity="0.369" d="M102.975 38.972C103.546 40.7412 104.213 41.7891 104.975 42.1157C106.151 41.2041 106.138 41.5069 109.441 41.8827C111.874 42.1601 114.217 42.3868 116.469 42.5628C116.819 41.5513 117.042 40.6112 117.172 39.7425C112.873 39.2209 105.028 38.0319 103.39 38.6264C103.226 38.6866 103.09 38.8071 102.975 38.972Z" fill="#3E65AE"/>
<path d="M37.2214 18.9228C37.8265 18.9942 39.5642 17.9082 40.1534 15.1086C41.4017 11.9443 40.4956 9.65663 37.4321 8.24728C32.8384 6.13405 28.2811 6.57318 25.2065 9.35701C21.5458 12.6735 21.1292 17.6403 22.173 21.2469C23.0902 24.416 23.9313 26.163 26.5323 27.3361C28.0831 27.6881 30.6603 27.8625 32.9096 26.4468C34.877 25.2086 36.0603 22.9908 35.479 22.6214C35.1035 22.5041 34.4224 22.9908 33.6304 21.564C32.8384 20.1372 32.9936 16.6479 35.479 16.7034C37.2626 16.743 36.6147 18.8499 37.2214 18.9228Z" fill="#5E2F36"/>
<path d="M28.5724 8.2075C28.0988 3.59897 25.6198 0.938799 21.1385 0.228575C14.3082 -0.8542 10.7188 2.06121 9.31213 5.78196C7.84373 9.66124 10.6839 14.2365 7.25289 16.6684C3.82028 19.0987 0.283126 20.1561 0.0185925 23.9069C-0.245942 27.6594 2.39465 28.4394 2.71145 30.5066C3.02826 32.5739 1.1892 34.741 3.77276 37.3822C6.35474 40.0249 13.7474 40.4054 17.7075 34.6174C21.1005 29.6569 19.8713 24.6473 19.9774 19.3095C20.0836 13.9733 20.5699 10.9723 22.9348 9.32357C24.2987 8.37238 25.7592 8.47701 27.3163 9.63905L28.5724 8.2075Z" fill="#5E2F36"/>
<path d="M87.7852 8.79687C86.7255 8.3292 85.7259 8.54798 84.7898 9.4532C83.3847 10.8118 82.9634 14.0919 83.9471 17.8871C84.9308 21.684 85.8368 25.6758 91.7184 26.134C97.1009 26.5557 99.5435 22.1278 100.204 18.2739C100.526 16.4064 100.739 14.9955 100.85 14.0443C101.76 13.7383 102.471 13.1486 102.986 12.2767C103.955 10.6327 102.471 11.0369 100.926 10.8499C102.13 10.1935 102.949 9.37393 103.382 8.39261C104.384 6.11292 103.439 5.63257 101.52 6.05426C99.6005 6.47596 97.5714 5.93853 94.8088 5.1427C92.0462 4.34529 87.8802 4.95563 87.7852 8.79687Z" fill="#2F256A"/>
<path d="M86.8823 28.3493C86.8823 28.3493 87.6078 30.4879 91.6059 30.4879C95.604 30.4879 96.3295 28.3493 96.3295 28.3493C96.328 28.3493 96.3248 28.3477 96.3216 28.3477L95.4076 28.2764C94.7043 29.1309 93.4371 29.5573 91.6059 29.5573C89.7764 29.5573 88.5091 29.1309 87.8042 28.2764L86.8855 28.3477C86.8855 28.3493 86.8839 28.3493 86.8823 28.3493Z" fill="#00A5C8"/>
<path d="M80.5716 29.1735C78.8909 28.8722 76.7731 28.9943 74.2133 29.5397C71.4729 30.1231 69.0081 30.6827 66.8174 31.2217C64.652 33.4316 64.1135 36.7656 65.1985 41.2219C67.3591 41.3059 69.6623 41.3773 72.1113 41.4375C75.5866 41.5231 77.2419 41.9448 77.7995 43.0006C78.9084 42.0272 79.7606 39.9188 80.3593 36.6784C80.9581 33.4364 81.0278 30.9347 80.5716 29.1735Z" fill="#00A5C8"/>
<path opacity="0.369" d="M74.8912 41.6304C76.5259 41.8539 77.4193 42.2788 77.7995 43.0001C78.4727 42.4088 79.1 41.215 79.6798 39.4189C78.8941 38.7641 77.5809 38.3837 75.3078 38.1094C71.9212 37.6988 67.7282 37.8367 64.7439 37.8367C64.7486 38.0634 64.7597 38.2981 64.7756 38.5359C64.7803 38.5882 64.7835 38.6405 64.7882 38.6928C64.8073 38.9369 64.831 39.1858 64.8643 39.4411C64.8643 39.4427 64.8643 39.4442 64.8659 39.4458C64.8976 39.6947 64.9403 39.95 64.9863 40.2099C64.9989 40.2749 65.01 40.3399 65.0227 40.4065C65.075 40.6729 65.132 40.9424 65.1985 41.2214C67.3591 41.3054 69.6623 41.3767 72.1112 41.437C72.8589 41.456 73.5179 41.4909 74.1055 41.5432C74.3828 41.5686 74.6473 41.5971 74.8912 41.6304Z" fill="#3E65AE"/>
<path d="M161.63 9.19357C162.691 8.7259 163.689 8.94467 164.625 9.84989C166.03 11.2085 166.452 14.4885 165.468 18.2838C164.486 22.0791 163.178 26.9809 157.279 26.9809C151.107 26.9809 149.873 22.5245 149.211 18.6706C148.891 16.8031 148.676 15.3922 148.565 14.441C147.656 14.1334 146.944 13.5453 146.431 12.6733C145.462 11.0294 146.944 11.4336 148.49 11.2466C147.285 10.5902 146.466 9.77063 146.035 8.78931C145.031 6.50962 145.976 6.02927 147.896 6.45096C149.815 6.87266 151.844 6.33523 154.606 5.5394C157.369 4.74199 161.536 5.35075 161.63 9.19357Z" fill="#3F292D"/>
<path d="M178.047 29.4868C182.205 29.3235 193.938 26.6079 195.527 27.3498C197.116 28.0917 198.562 29.8641 196.536 32.4561C194.51 35.0465 182.205 39.7296 179.092 39.7422L178.047 29.4868Z" fill="#C17A61"/>
<path d="M196.536 32.4569C197.957 30.6401 197.67 29.2276 196.824 28.2891C197.128 29.3385 197.48 30.5561 194.008 32.2492C191.692 33.3795 187.542 34.7096 181.559 36.2426C180.802 32.9182 179.631 30.667 178.047 29.4876L179.092 39.743C182.205 39.7303 194.51 35.0473 196.536 32.4569Z" fill="#B5715A"/>
<path d="M170.963 42.0355C171.323 41.4568 172.218 41.2713 174.03 41.3284C175.755 41.3823 177.667 41.2301 179.767 40.8718C181.045 36.5962 180.472 32.8025 178.047 29.4876C175.223 29.5415 172.652 29.5257 170.333 29.4385C167.022 34.7176 167.233 38.9155 170.963 42.0355Z" fill="#FFEAA8"/>
<path d="M174.378 38.4651C173.897 38.4873 173.472 38.538 173.098 38.6141C169.765 39.2926 170.453 41.9877 169.521 44.4861C169.952 43.7284 170.424 42.923 170.925 42.0923C171.283 41.5153 172.218 41.2711 174.03 41.3282C175.755 41.3837 177.667 41.2315 179.767 40.8716C180.066 39.8697 180.233 38.6633 180.268 37.2539C178.839 37.7866 176.799 38.3541 174.378 38.4651Z" fill="#F7D89A"/>
<path d="M145.628 52.6026C144.808 52.1825 134.266 46.1155 134.088 45.8254C133.909 45.5368 133.665 44.974 133.726 42.2663C133.786 39.5602 132.702 37.8385 132.702 37.8369C132.889 39.4349 132.563 42.9416 131.788 46.4864C139.431 51.4532 143.955 54.1372 145.359 54.5383C146.468 54.8554 162.15 54.0341 164.968 53.511L165.842 52.1064C161.807 52.2903 146.342 52.9688 145.628 52.6026Z" fill="#FBD1B5"/>
<path d="M131.207 18.314C131.199 18.3172 127.394 19.9675 123.588 16.1865C124.167 18.2316 125.894 19.4253 128.767 19.7662C130.38 19.9564 131.88 19.4475 131.768 19.2399C131.597 18.9196 131.41 18.6105 131.207 18.314Z" fill="#523C7C"/>
<path d="M170.006 53.2634C171.378 54.3922 173.201 55.4274 175.509 55.8079C178.307 51.4276 180.217 47.9494 181.237 45.3701C181.508 44.6837 181.716 43.6928 181.836 42.5625C178.532 49.4951 174.589 53.0621 170.006 53.2634Z" fill="#349977"/>
<path d="M204.873 43.4951C204.911 44.8743 204.773 46.6737 204.456 48.8931L207.442 53.1228C208.836 52.9595 210.029 52.6028 211.042 52.1541L204.873 43.4951Z" fill="#349977"/>
</svg>
