<svg width="56" height="33" viewBox="0 0 56 33" fill="none" xmlns="http://www.w3.org/2000/svg">
<path fill-rule="evenodd" clip-rule="evenodd" d="M40.3769 31.394C45.3767 31.5134 50.4862 31.2746 55.2668 32.9683C55.5518 33.0682 55.8652 32.9227 55.9682 32.6404C56.069 32.3581 55.9222 32.0476 55.6372 31.9456C50.7448 30.2128 45.5192 30.4299 40.4032 30.3083C40.1007 30.2996 39.8486 30.5385 39.842 30.8382C39.8333 31.1378 40.0744 31.3853 40.3769 31.394Z" fill="#C8B2D8"/>
<path fill-rule="evenodd" clip-rule="evenodd" d="M39.9275 24.2036C41.486 22.7831 43.1869 21.7189 45.243 21.1915C45.5367 21.1163 45.712 20.8199 45.6375 20.5298C45.5608 20.2397 45.2605 20.0654 44.969 20.1405C42.7332 20.7137 40.881 21.8607 39.1866 23.4043C38.963 23.6071 38.9477 23.9508 39.1537 24.1714C39.3576 24.3918 39.7061 24.4064 39.9275 24.2036Z" fill="#C8B2D8"/>
<path fill-rule="evenodd" clip-rule="evenodd" d="M35.592 8.69465C36.3065 6.26814 37.7138 4.36993 39.8707 2.99914C40.1249 2.83737 40.1994 2.50125 40.0351 2.24915C39.8728 1.99705 39.5331 1.92366 39.2788 2.08542C36.8918 3.60321 35.3311 5.7038 34.5398 8.39044C34.4543 8.67793 34.6231 8.97975 34.9125 9.06357C35.204 9.1476 35.5087 8.98214 35.592 8.69465Z" fill="#C8B2D8"/>
<path fill-rule="evenodd" clip-rule="evenodd" d="M10.9652 5.40163C10.54 5.89736 10.1586 6.43151 9.83417 7.0002C9.68951 7.25338 9.43524 7.79144 9.39578 8.25286C9.35194 8.74446 9.52071 9.1592 9.95472 9.37764C10.5312 9.6673 10.9915 9.63712 11.3466 9.46189C11.6886 9.29361 11.956 8.9629 12.1248 8.51951C12.447 7.67202 12.3987 6.3768 12.23 5.63767C12.6837 5.17386 13.1813 4.75326 13.7139 4.37935C17.6814 1.59456 23.501 2.62141 27.9792 6.78523C29.5464 8.24309 30.3005 11.3047 30.6928 14.608C31.3044 19.7514 30.9559 25.496 30.9076 27.179C30.8967 27.5946 30.9361 27.8413 30.958 27.8905C31.0611 28.1329 31.243 28.1958 31.3701 28.2197C31.5543 28.2523 31.7011 28.2176 31.8195 28.1568C31.9795 28.0734 32.111 27.9266 32.1724 27.7001C32.2053 27.575 32.214 27.4009 32.2096 27.2153C32.2053 27.0865 32.1789 26.9458 32.2052 26.8535C32.3762 26.2624 32.5823 25.6853 32.7839 25.104C33.4569 23.15 34.3271 21.3189 35.2937 19.4899C38.3647 13.6785 41.3347 7.53804 46.3697 3.1104C46.5954 2.91172 46.6174 2.56821 46.4157 2.34412C46.2162 2.12004 45.8699 2.09962 45.6419 2.29852C40.5062 6.81367 37.455 13.0598 34.3227 18.9864C33.5007 20.5422 32.7467 22.1001 32.1198 23.7298C32.1833 20.847 32.1592 16.8567 31.6266 13.3261C31.1531 10.186 30.2522 7.41102 28.7288 5.99376C23.8232 1.43236 17.4249 0.442869 13.0804 3.49365C12.6158 3.82022 12.173 4.17937 11.7609 4.56892C9.48785 0.503022 4.6217 -1.1266 0.321085 0.818078C0.0448991 0.942498 -0.0756563 1.26473 0.0492852 1.53724C0.176419 1.80975 0.500816 1.93005 0.777002 1.80563C4.65238 0.053328 9.04727 1.61715 10.9652 5.40163ZM11.2831 6.76286C11.1055 7.01127 10.9411 7.2688 10.7877 7.53501C10.7066 7.67788 10.5663 7.95257 10.5071 8.22138C10.4939 8.28435 10.4918 8.38293 10.4918 8.42853C10.643 8.50235 10.7614 8.53797 10.8578 8.48998C10.9784 8.43092 11.0398 8.29195 11.0989 8.13669C11.248 7.74715 11.2962 7.23079 11.2831 6.76286Z" fill="#C8B2D8"/>
</svg>
