<svg width="44" height="37" viewBox="0 0 44 37" fill="none" xmlns="http://www.w3.org/2000/svg">
<path fill-rule="evenodd" clip-rule="evenodd" d="M25.9915 8.83491C25.1852 8.18088 24.2935 7.61208 23.3703 7.14968C21.5647 6.24514 18.854 5.43098 16.3442 5.40792C14.6238 5.39212 12.9985 5.75032 11.7981 6.67277C9.51176 8.42976 9.04094 11.4647 9.69421 14.6181C10.1707 16.918 11.2405 19.2777 12.5917 21.215C11.0569 20.3429 9.07225 19.534 7.14492 19.335C4.98441 19.1103 2.89853 19.6429 1.5369 21.6259C-1.30854 25.7711 0.116414 29.7816 3.20751 32.6766C6.24423 35.52 10.9012 37.2654 14.5766 36.9669C14.7709 36.9505 14.9157 36.7808 14.8998 36.5876C14.8839 36.3945 14.7133 36.2505 14.5191 36.2669C11.0171 36.5502 6.5851 34.875 3.69175 32.165C0.8529 29.5066 -0.493075 25.8285 2.12013 22.0228C3.31945 20.2762 5.16862 19.8349 7.0717 20.0327C9.05153 20.2388 11.0927 21.1273 12.5909 22.0286C12.9966 22.2721 13.4059 22.5133 13.8118 22.7603C14.9007 23.9742 16.0945 24.8885 17.2666 25.3309C17.5577 25.4398 17.6917 25.2502 17.7266 25.1952C17.7744 25.1202 17.8207 24.9997 17.7436 24.844C17.7291 24.8147 17.6934 24.7597 17.63 24.6988C17.5432 24.6169 17.3501 24.4659 17.2699 24.3921C16.9392 24.0854 16.5765 23.8033 16.2196 23.5294C15.5993 23.0517 14.9404 22.6268 14.2716 22.2183C14.1759 22.1094 14.0813 21.9994 13.9876 21.887C12.3108 19.87 10.936 17.1319 10.3859 14.4765C9.79144 11.6069 10.1495 8.8273 12.23 7.22858C13.3129 6.39639 14.7856 6.09601 16.3377 6.11029C18.7366 6.1323 21.3269 6.9124 23.0526 7.7769C24.1067 8.30497 25.1181 8.97843 25.9969 9.76357C26.2886 10.0241 26.5546 10.3198 26.8097 10.6159C26.8377 10.6484 26.8763 10.6965 26.9193 10.7517C27.0306 10.9171 27.1483 11.0764 27.2725 11.2292C27.338 11.3096 27.3827 11.3383 27.3908 11.3434C27.6042 11.4791 27.756 11.3652 27.8205 11.3062C27.8396 11.2886 28.0334 11.1002 27.8759 10.8522C27.8439 10.802 27.6445 10.5333 27.4856 10.3309C26.3076 8.56591 25.9408 6.08196 26.4611 4.0658C26.791 2.78771 27.4795 1.69552 28.5705 1.12555C29.296 0.746619 30.196 0.6024 31.2757 0.774598C33.8796 1.18993 36.0607 2.66761 38.0017 4.48675C39.9873 6.34769 41.7215 8.56766 43.3832 10.4252C43.5127 10.57 43.7361 10.583 43.8817 10.4541C44.0273 10.3253 44.0403 10.1032 43.9107 9.95836C42.2364 8.08642 40.487 5.851 38.4861 3.97554C36.4405 2.05842 34.1319 0.518816 31.3876 0.081121C30.1314 -0.119289 29.0862 0.0628648 28.2421 0.503721C26.979 1.16348 26.1589 2.41148 25.7771 3.89114C25.378 5.43741 25.4608 7.23467 25.9915 8.83491Z" fill="#C8B2D8"/>
</svg>
