<svg width="160" height="152" viewBox="0 0 160 152" fill="none" xmlns="http://www.w3.org/2000/svg">
<g clip-path="url(#clip0_321:67)">
<path d="M97.2675 36.0599H96.4344V13.2194C96.4344 9.71344 95.0428 6.35102 92.5657 3.87189C90.0886 1.39277 86.7289 4.4239e-06 83.2257 0H34.8743C33.1397 -4.38091e-06 31.4221 0.341922 29.8195 1.00626C28.217 1.67059 26.7608 2.64433 25.5343 3.87186C24.3077 5.0994 23.3348 6.5567 22.671 8.16055C22.0072 9.76441 21.6655 11.4834 21.6655 13.2194V138.524C21.6655 140.26 22.0072 141.979 22.671 143.583C23.3348 145.187 24.3077 146.644 25.5343 147.872C26.7608 149.099 28.2169 150.073 29.8195 150.737C31.422 151.402 33.1397 151.743 34.8742 151.743H83.2256C86.7288 151.743 90.0885 150.351 92.5656 147.872C95.0427 145.393 96.4344 142.03 96.4344 138.524V52.3181H97.2675L97.2675 36.0599Z" fill="#3F3D56"/>
<path d="M83.7584 3.43945H77.447C77.7372 4.15162 77.848 4.9243 77.7696 5.68942C77.6912 6.45454 77.4259 7.18861 76.9973 7.82698C76.5686 8.46534 75.9897 8.98841 75.3114 9.3501C74.6332 9.71178 73.8765 9.90099 73.108 9.90105H45.4081C44.6396 9.90099 43.8829 9.71179 43.2047 9.3501C42.5264 8.98842 41.9475 8.46535 41.5188 7.82698C41.0901 7.18862 40.8249 6.45454 40.7465 5.68942C40.6681 4.9243 40.7789 4.15162 41.0691 3.43945H35.1742C32.5581 3.43945 30.0491 4.47954 28.1992 6.33092C26.3493 8.18231 25.3101 10.6933 25.3101 13.3116V138.432C25.3101 139.729 25.5652 141.012 26.0609 142.21C26.5566 143.408 27.2832 144.496 28.1992 145.413C29.1152 146.33 30.2026 147.057 31.3994 147.553C32.5961 148.049 33.8788 148.304 35.1742 148.304H83.7584C85.0538 148.304 86.3365 148.049 87.5333 147.553C88.7301 147.057 89.8175 146.33 90.7334 145.413C91.6494 144.496 92.376 143.408 92.8717 142.21C93.3674 141.012 93.6226 139.729 93.6226 138.432V13.3116C93.6226 12.0151 93.3674 10.7314 92.8717 9.53367C92.376 8.33593 91.6494 7.24763 90.7334 6.33092C89.8175 5.41421 88.73 4.68704 87.5333 4.19092C86.3365 3.6948 85.0538 3.43945 83.7584 3.43945V3.43945Z" fill="white"/>
<path d="M59.3825 26.7402H31.1316V75.0413H59.3825V26.7402Z" fill="#E6E6E6"/>
<path d="M87.7166 78.8242H64.2361V133.508H87.7166V78.8242Z" fill="#E6E6E6"/>
<path d="M87.8014 26.7402H64.259V40.0357H87.8014V26.7402Z" fill="#E6E6E6"/>
<path d="M87.8014 43.7373H64.259V58.0425H87.8014V43.7373Z" fill="#F18BAB"/>
<path d="M87.8014 61.7451H64.259V75.0406H87.8014V61.7451Z" fill="#E6E6E6"/>
<path d="M59.4172 78.8242H31.1663V99.8736H59.4172V78.8242Z" fill="#E6E6E6"/>
<path d="M59.4172 103.954H31.1663V133.552H59.4172V103.954Z" fill="#E6E6E6"/>
<path d="M123.588 60.0443C123.588 64.6407 119.341 63.9455 114.102 63.9455C108.864 63.9455 104.617 64.6407 104.617 60.0443C104.617 55.4478 106.692 47.3003 114.102 47.3003C121.769 47.3003 123.588 55.4478 123.588 60.0443Z" fill="#542D64"/>
<path d="M87.3377 51.6852C87.1684 52.028 87.0763 52.4037 87.0678 52.786C87.0593 53.1682 87.1347 53.5477 87.2886 53.8976C87.4425 54.2476 87.6712 54.5595 87.9586 54.8114C88.2459 55.0633 88.585 55.2491 88.9519 55.3557L89.4299 64.6374L93.3164 61.7745L92.2667 53.3994C92.4047 52.7707 92.3075 52.1131 91.9935 51.5513C91.6795 50.9896 91.1705 50.5626 90.5629 50.3513C89.9554 50.14 89.2915 50.1591 88.697 50.4049C88.1026 50.6508 87.6189 51.1063 87.3377 51.6852V51.6852Z" fill="#FFB8B8"/>
<path d="M129.944 104.14C130.155 103.821 130.293 103.46 130.35 103.082C130.406 102.703 130.379 102.318 130.27 101.951C130.161 101.585 129.973 101.246 129.72 100.96C129.466 100.674 129.153 100.447 128.803 100.296L129.492 91.0273L125.277 93.3797L125.269 101.82C125.053 102.427 125.067 103.091 125.308 103.688C125.549 104.285 126.001 104.773 126.577 105.058C127.153 105.344 127.814 105.409 128.435 105.239C129.056 105.07 129.593 104.679 129.944 104.14Z" fill="#FFB8B8"/>
<path d="M110.535 148.755H113.721L115.236 136.456L110.534 136.456L110.535 148.755Z" fill="#FFB8B8"/>
<path d="M109.722 147.714L115.996 147.714H115.997C116.522 147.714 117.042 147.817 117.527 148.018C118.012 148.22 118.453 148.514 118.824 148.886C119.195 149.257 119.49 149.699 119.691 150.184C119.892 150.67 119.995 151.19 119.995 151.716V151.846L109.722 151.846L109.722 147.714Z" fill="#542D64"/>
<path d="M130.804 148.755H133.99L135.506 136.456L130.804 136.456L130.804 148.755Z" fill="#FFB8B8"/>
<path d="M129.992 147.714L136.266 147.714H136.266C136.792 147.714 137.312 147.817 137.797 148.018C138.282 148.22 138.723 148.514 139.094 148.886C139.465 149.257 139.76 149.699 139.961 150.184C140.162 150.67 140.265 151.19 140.265 151.716V151.846L129.992 151.846L129.992 147.714Z" fill="#542D64"/>
<path d="M128.986 99.0324L128.848 99.0072C127.687 98.7969 126.513 98.5844 125.48 98.3621L125.378 98.34L125.377 98.2354C125.36 93.5211 125.342 88.8077 125.316 84.0516C122.849 79.0759 121.812 73.5124 122.321 67.9814L122.327 67.923L122.374 67.8887C122.824 67.5762 123.349 67.3893 123.894 67.3471C124.44 67.3048 124.987 67.4089 125.479 67.6484C125.96 67.9118 126.372 68.2865 126.679 68.7414C126.987 69.1963 127.181 69.7182 127.246 70.2634C128.185 75.3858 129.157 80.6903 130.242 85.9173L130.246 85.9364L130.244 85.9559C129.842 90.2188 129.427 94.627 129 98.8922L128.986 99.0324Z" fill="#F18BAB"/>
<path d="M126.909 144.372L126.884 144.252C125.393 137.196 123.955 131.45 122.563 125.894C120.896 119.235 119.316 112.925 117.721 104.759C117.94 115.057 118.449 122.455 119.033 130.958C119.298 134.798 119.571 138.769 119.848 143.404L119.856 143.545L119.715 143.542C114.728 143.414 109.62 143.106 104.679 142.808L104.549 142.8L104.557 142.669C105.493 128.871 105.786 119.905 106 113.358C106.451 99.5451 106.521 97.4221 111.662 85.7324C111.857 85.2889 113.019 83.9786 114.298 84.1783L124.412 85.7537L124.43 85.8429C124.715 87.2817 126.132 91.6477 128.092 97.6905C132.283 110.609 138.616 130.13 140.594 141.767L140.617 141.899L140.484 141.918C137.611 142.326 135.543 142.752 133.543 143.163C131.65 143.553 129.694 143.956 127.03 144.353L126.909 144.372Z" fill="#542D64"/>
<path d="M118.118 89.4057C115.418 89.406 112.75 88.4685 110.837 86.6431C110.538 86.469 110.285 86.2256 110.1 85.9334C109.915 85.6411 109.802 85.3086 109.772 84.9637C109.723 84.6478 109.744 84.325 109.832 84.0179C109.921 83.7108 110.076 83.4269 110.286 83.1861C108.411 80.9142 106.475 78.5661 104.621 76.1751L104.57 76.109L104.629 75.9958C105.842 73.6769 107.096 71.2793 108.3 68.9101C108.384 68.7036 108.522 68.5235 108.699 68.389C108.877 68.2544 109.088 68.1703 109.309 68.1456C109.501 68.1092 109.699 68.1125 109.89 68.1552C110.081 68.1979 110.261 68.2791 110.419 68.394L110.422 68.3363C110.472 67.137 110.523 65.9377 110.574 64.8008L110.58 64.6794L110.701 64.6766C113.017 64.6256 115.411 64.5725 117.763 64.4331L117.852 64.4277L119.019 67.0319C120.913 66.8477 122.82 67.235 124.493 68.1438L124.57 68.1849L124.561 68.2718C124.091 72.7473 124.193 77.2643 124.864 81.714C124.828 83.7456 124.789 85.8222 124.377 87.4774L124.365 87.5257L124.324 87.5536C122.485 88.7747 120.325 89.4195 118.118 89.4057Z" fill="#F18BAB"/>
<path d="M108.181 78.1083L108.026 78.0369C106.212 77.1261 104.392 76.1157 102.633 75.1387L102.389 75.0912C97.7562 74.1603 95.2039 73.6478 91.0239 71.1945L90.9917 71.1755L90.9745 71.1425C88.8814 67.1409 88.2976 63.643 88.8203 58.2367L88.8308 58.1282L88.9392 58.1196C89.3923 58.0828 90.1309 58.0581 90.8451 58.0343C91.5399 58.0111 92.2584 57.987 92.6989 57.9525L92.8011 57.9443L92.8327 58.0419C93.3804 59.7347 93.8458 61.314 94.3384 62.986C94.8448 64.7047 95.3681 66.481 96.0056 68.4548C98.3397 69.126 104.597 68.9254 106.542 68.6602C107.665 68.5449 108.799 69.0643 109.582 70.0434L109.618 70.0887L109.609 70.1458C109.18 72.7618 108.689 75.3934 108.213 77.9383L108.181 78.1083Z" fill="#F18BAB"/>
<path d="M119.586 60.3682C121.277 57.2726 120.14 53.3913 117.047 51.6991C113.954 50.0069 110.076 51.1446 108.385 54.2402C106.694 57.3358 107.831 61.217 110.924 62.9092C114.017 64.6014 117.895 63.4638 119.586 60.3682Z" fill="#FFB8B8"/>
<path d="M106.696 56.9232H109.221L110.334 53.8023L110.557 56.9232H111.764L112.413 55.1027L112.543 56.9232H121.509C121.509 55.1298 120.797 53.4099 119.53 52.1417C118.263 50.8736 116.544 50.1611 114.752 50.1611H113.453C111.661 50.1611 109.942 50.8736 108.675 52.1417C107.408 53.4099 106.696 55.1298 106.696 56.9232Z" fill="#542D64"/>
<path d="M159.792 151.969H0.208333C0.15308 151.969 0.100089 151.947 0.0610193 151.908C0.0219492 151.869 0 151.816 0 151.76C0 151.705 0.0219492 151.652 0.0610193 151.613C0.100089 151.574 0.15308 151.552 0.208333 151.552H159.792C159.847 151.552 159.9 151.574 159.939 151.613C159.978 151.652 160 151.705 160 151.76C160 151.816 159.978 151.869 159.939 151.908C159.9 151.947 159.847 151.969 159.792 151.969Z" fill="#3F3D56"/>
</g>
<defs>
<clipPath id="clip0_321:67">
<rect width="160" height="151.969" fill="white"/>
</clipPath>
</defs>
</svg>
