<svg width="17" height="25" viewBox="0 0 17 25" fill="none" xmlns="http://www.w3.org/2000/svg">
<path d="M7.43031 0.423317C6.40521 0.50168 5.36309 0.798101 4.45038 1.26147C2.94168 2.0349 1.53516 3.47272 0.789325 5.01616C-0.218742 7.09111 -0.263015 9.69077 0.666723 11.8134C1.40574 13.4966 2.8327 15.0161 4.42313 15.8134C5.10426 16.1541 5.96589 16.4335 6.69129 16.5528L6.95352 16.5971V17.7998V19.0025H5.59808H4.23923L4.1575 19.0911L4.07576 19.1797V20.1609V21.1422L4.1575 21.2308L4.23923 21.3194H5.59467H6.95011L6.96033 22.6993L6.97055 24.0758L7.04888 24.1541C7.1238 24.2325 7.13742 24.2325 8.11484 24.2427L9.10247 24.2529L9.20124 24.1507L9.30341 24.0519V22.6856V21.3194H10.6759H12.0518L12.1335 21.2308L12.2152 21.1422V20.1609V19.1797L12.1335 19.0911L12.0518 19.0025L10.6861 18.9957L9.32043 18.9855V17.7964V16.6107L9.7802 16.5153C10.5907 16.3449 11.1424 16.1575 11.8304 15.8134C12.5864 15.4352 13.2335 14.9684 13.8363 14.3688C15.1373 13.0707 15.9444 11.4897 16.2066 9.70439C16.2884 9.14903 16.2884 7.92245 16.2066 7.38412C15.9308 5.56811 15.1849 4.10645 13.8635 2.78788C12.5013 1.42161 10.9041 0.644781 9.06842 0.450573C8.64952 0.406281 7.83217 0.392653 7.43031 0.423317ZM9.3579 2.86624C10.5771 3.12178 11.6567 3.76573 12.5081 4.73677C13.5332 5.91224 13.9862 7.20695 13.9248 8.79809C13.8635 10.3654 13.271 11.6669 12.1131 12.764C11.2072 13.6192 10.148 14.1371 8.96284 14.304C8.54395 14.362 7.65508 14.3517 7.21235 14.2836C5.14853 13.9667 3.27884 12.379 2.63177 10.3926C2.41381 9.72484 2.37294 9.42842 2.37635 8.50848C2.37635 7.81343 2.38657 7.66351 2.45127 7.36709C2.71691 6.16096 3.27203 5.18311 4.17112 4.32791C5.07021 3.47953 6.10892 2.96846 7.29068 2.80151C7.81174 2.72314 8.83683 2.75721 9.3579 2.86624Z" fill="#F18BAB"/>
</svg>
