<svg width="61" height="62" viewBox="0 0 61 62" fill="none" xmlns="http://www.w3.org/2000/svg">
<circle cx="30.7531" cy="31.1103" r="30.1425" fill="#FFADC7" fill-opacity="0.25"/>
<path d="M32.1601 37.4194L26.8864 34.5433C26.1979 35.2793 25.3039 35.7913 24.3207 36.0126C23.3374 36.2339 22.3103 36.1543 21.3728 35.7842C20.4353 35.4141 19.6308 34.7705 19.0639 33.9372C18.497 33.1039 18.1938 32.1193 18.1938 31.1114C18.1938 30.1035 18.497 29.1189 19.0639 28.2856C19.6308 27.4523 20.4353 26.8088 21.3728 26.4386C22.3103 26.0685 23.3374 25.989 24.3207 26.2103C25.3039 26.4316 26.1979 26.9435 26.8864 27.6796L32.1614 24.8035C31.8619 23.618 32.0051 22.3639 32.5641 21.2764C33.1231 20.1889 34.0595 19.3426 35.1978 18.8962C36.3362 18.4497 37.5982 18.4337 38.7475 18.8512C39.8968 19.2688 40.8543 20.0911 41.4406 21.1641C42.027 22.2371 42.2018 23.4871 41.9325 24.6798C41.6631 25.8725 40.968 26.926 39.9774 27.6429C38.9868 28.3598 37.7688 28.6907 36.5516 28.5738C35.3345 28.4568 34.2018 27.9 33.3658 27.0076L28.0909 29.8837C28.2934 30.6892 28.2934 31.5323 28.0909 32.3378L33.3646 35.2139C34.2005 34.3216 35.3332 33.7647 36.5504 33.6478C37.7675 33.5308 38.9855 33.8618 39.9761 34.5787C40.9667 35.2955 41.6618 36.349 41.9312 37.5417C42.2006 38.7345 42.0257 39.9845 41.4394 41.0575C40.853 42.1305 39.8955 42.9528 38.7462 43.3703C37.597 43.7878 36.3349 43.7719 35.1966 43.3254C34.0582 42.8789 33.1218 42.0326 32.5628 40.9451C32.0038 39.8576 31.8607 38.6036 32.1601 37.4181V37.4194ZM23.2179 33.6227C23.884 33.6227 24.523 33.358 24.994 32.8869C25.4651 32.4159 25.7297 31.777 25.7297 31.1108C25.7297 30.4446 25.4651 29.8057 24.994 29.3346C24.523 28.8636 23.884 28.5989 23.2179 28.5989C22.5517 28.5989 21.9128 28.8636 21.4417 29.3346C20.9706 29.8057 20.706 30.4446 20.706 31.1108C20.706 31.777 20.9706 32.4159 21.4417 32.8869C21.9128 33.358 22.5517 33.6227 23.2179 33.6227ZM37.0332 26.087C37.6994 26.087 38.3383 25.8224 38.8093 25.3513C39.2804 24.8803 39.545 24.2414 39.545 23.5752C39.545 22.909 39.2804 22.2701 38.8093 21.799C38.3383 21.3279 37.6994 21.0633 37.0332 21.0633C36.367 21.0633 35.7281 21.3279 35.257 21.799C34.7859 22.2701 34.5213 22.909 34.5213 23.5752C34.5213 24.2414 34.7859 24.8803 35.257 25.3513C35.7281 25.8224 36.367 26.087 37.0332 26.087ZM37.0332 41.1583C37.6994 41.1583 38.3383 40.8936 38.8093 40.4226C39.2804 39.9515 39.545 39.3126 39.545 38.6464C39.545 37.9802 39.2804 37.3413 38.8093 36.8702C38.3383 36.3992 37.6994 36.1345 37.0332 36.1345C36.367 36.1345 35.7281 36.3992 35.257 36.8702C34.7859 37.3413 34.5213 37.9802 34.5213 38.6464C34.5213 39.3126 34.7859 39.9515 35.257 40.4226C35.7281 40.8936 36.367 41.1583 37.0332 41.1583Z" fill="#F18BAB"/>
</svg>
