<svg width="60" height="61" viewBox="0 0 60 61" fill="none" xmlns="http://www.w3.org/2000/svg">
<ellipse cx="29.8258" cy="30.3306" rx="29.6947" ry="29.8184" fill="#FFADC7" fill-opacity="0.25"/>
<g clip-path="url(#clip0_467:3)">
<path d="M32.3622 17.9058C34.6264 17.9047 36.8225 18.6831 38.5843 20.1112C40.3461 21.5394 41.567 23.5308 42.0435 25.7535C42.52 27.9763 42.2232 30.2958 41.2026 32.3254C40.1821 34.3549 38.4994 35.9718 36.4353 36.9063C35.7756 38.371 34.7718 39.6532 33.5102 40.6428C32.2486 41.6325 30.7668 42.3001 29.1919 42.5884C27.6169 42.8766 25.9958 42.777 24.4676 42.298C22.9394 41.8191 21.5497 40.975 20.4177 39.8383C19.2857 38.7016 18.4451 37.3061 17.9681 35.7715C17.4911 34.2369 17.3919 32.6091 17.679 31.0275C17.9661 29.446 18.6309 27.958 19.6165 26.6912C20.602 25.4243 21.8789 24.4164 23.3375 23.7539C24.1221 22.0106 25.3909 20.5316 26.9916 19.4943C28.5924 18.457 30.4571 17.9055 32.3622 17.9058ZM27.4131 25.3604C26.4382 25.3604 25.4729 25.5532 24.5722 25.9278C23.6715 26.3024 22.8531 26.8515 22.1638 27.5438C21.4744 28.236 20.9276 29.0578 20.5545 29.9622C20.1815 30.8666 19.9894 31.836 19.9894 32.815C19.9894 33.7939 20.1815 34.7633 20.5545 35.6677C20.9276 36.5721 21.4744 37.3939 22.1638 38.0861C22.8531 38.7784 23.6715 39.3275 24.5722 39.7021C25.4729 40.0767 26.4382 40.2695 27.4131 40.2695C29.382 40.2695 31.2702 39.4842 32.6624 38.0861C34.0546 36.6881 34.8368 34.792 34.8368 32.815C34.8368 30.8379 34.0546 28.9418 32.6624 27.5438C31.2702 26.1458 29.382 25.3604 27.4131 25.3604ZM28.6504 26.6028V27.8452H31.1249V30.3301H26.1758C26.0212 30.3298 25.8721 30.3876 25.7579 30.4922C25.6437 30.5968 25.5725 30.7406 25.5586 30.8952C25.5446 31.0498 25.5888 31.204 25.6824 31.3276C25.7761 31.4511 25.9124 31.5349 26.0645 31.5626L26.1758 31.5725H28.6504C29.4707 31.5725 30.2575 31.8998 30.8376 32.4823C31.4177 33.0648 31.7436 33.8548 31.7436 34.6786C31.7436 35.5024 31.4177 36.2924 30.8376 36.8749C30.2575 37.4574 29.4707 37.7847 28.6504 37.7847V39.0271H26.1758V37.7847H23.7013V35.2998H28.6504C28.805 35.3001 28.9541 35.2423 29.0683 35.1377C29.1826 35.0331 29.2537 34.8893 29.2676 34.7347C29.2816 34.5801 29.2374 34.4259 29.1438 34.3024C29.0502 34.1788 28.9139 34.095 28.7617 34.0673L28.6504 34.0574H26.1758C25.3555 34.0574 24.5687 33.7301 23.9886 33.1476C23.4085 32.5651 23.0826 31.7751 23.0826 30.9513C23.0826 30.1275 23.4085 29.3375 23.9886 28.755C24.5687 28.1725 25.3555 27.8452 26.1758 27.8452V26.6028H28.6504ZM32.3622 20.3906C31.3139 20.3894 30.2772 20.6117 29.3208 21.0429C28.3644 21.474 27.51 22.1042 26.8143 22.8916C28.2127 22.8064 29.6133 23.0202 30.9233 23.519C32.2333 24.0178 33.4229 24.7901 34.4136 25.785C35.4042 26.7799 36.1732 27.9746 36.6697 29.2901C37.1663 30.6056 37.3791 32.012 37.294 33.4163C38.419 32.4119 39.2133 31.0879 39.5716 29.6198C39.9299 28.1517 39.8354 26.6089 39.3004 25.196C38.7655 23.7831 37.8154 22.5669 36.5763 21.7087C35.3372 20.8505 33.8675 20.3908 32.3622 20.3906Z" fill="#F18BAB"/>
</g>
<defs>
<clipPath id="clip0_467:3">
<rect x="15.0403" y="15.4214" width="29.6947" height="29.8184" rx="9.27838" fill="white"/>
</clipPath>
</defs>
</svg>
