<svg width="73" height="72" viewBox="0 0 73 72" fill="none" xmlns="http://www.w3.org/2000/svg">
<circle cx="36.3536" cy="35.8656" r="35.7821" fill="#9162A4" fill-opacity="0.25"/>
<g clip-path="url(#clip0_321:37)">
<path d="M25.9166 31.3926C26.312 31.3926 26.6912 31.5496 26.9708 31.8292C27.2504 32.1088 27.4075 32.4881 27.4075 32.8835C29.7499 32.88 32.0248 33.6681 33.8632 35.1199H37.0984C39.0843 35.1199 40.8705 35.9831 42.0975 37.3547L46.7894 37.3562C48.1987 37.3558 49.5793 37.755 50.771 38.5073C51.9627 39.2596 52.9167 40.3343 53.5224 41.6068C49.9964 46.26 44.2877 49.2836 37.8439 49.2836C33.6842 49.2836 30.1657 48.3846 27.318 46.8116C27.2137 47.0995 27.0232 47.3481 26.7724 47.5237C26.5216 47.6993 26.2227 47.7932 25.9166 47.7927H21.4438C21.0484 47.7927 20.6692 47.6356 20.3896 47.356C20.11 47.0764 19.9529 46.6972 19.9529 46.3017V32.8835C19.9529 32.4881 20.11 32.1088 20.3896 31.8292C20.6692 31.5496 21.0484 31.3926 21.4438 31.3926H25.9166ZM27.409 35.8653L27.4075 43.3512L27.4746 43.4004C30.1508 45.279 33.6365 46.3017 37.8439 46.3017C42.3226 46.3017 46.4897 44.5782 49.5252 41.6352L49.7235 41.4369L49.5446 41.2878C48.8406 40.7364 47.9872 40.4092 47.0951 40.3485L46.7894 40.3381L43.6406 40.3366C43.7494 40.8167 43.8076 41.3161 43.8076 41.829V43.3199H30.3893V40.3381L40.5126 40.3366L40.462 40.2203C40.1762 39.6232 39.7367 39.113 39.1886 38.742C38.6404 38.371 38.0034 38.1525 37.343 38.1091L37.0984 38.1017H32.7301C32.0372 37.3931 31.2097 36.8302 30.2962 36.4461C29.3826 36.0621 28.4015 35.8646 27.4105 35.8653H27.409ZM24.4256 34.3744H22.9347V44.8108H24.4256V34.3744ZM38.807 23.3043L39.3348 23.8336L39.8626 23.3058C40.2082 22.9573 40.6193 22.6804 41.0722 22.4911C41.5251 22.3019 42.0109 22.2039 42.5017 22.2029C42.9926 22.2019 43.4788 22.2979 43.9324 22.4853C44.3861 22.6727 44.7983 22.9479 45.1453 23.295C45.4923 23.6421 45.7674 24.0544 45.9547 24.5081C46.142 24.9618 46.2378 25.4481 46.2366 25.9389C46.2355 26.4298 46.1374 26.9155 45.948 27.3684C45.7586 27.8212 45.4817 28.2322 45.133 28.5777L39.3348 34.3744L33.5351 28.5747C33.1866 28.2291 32.9097 27.8181 32.7205 27.3652C32.5312 26.9123 32.4333 26.4265 32.4323 25.9356C32.4313 25.4448 32.5272 24.9586 32.7146 24.5049C32.902 24.0512 33.1772 23.639 33.5243 23.292C33.8715 22.945 34.2837 22.6699 34.7374 22.4826C35.1912 22.2954 35.6774 22.1996 36.1682 22.2007C36.6591 22.2018 37.1449 22.2999 37.5977 22.4893C38.0506 22.6787 38.4615 22.9557 38.807 23.3043ZM35.6463 25.414C35.5227 25.5369 35.4461 25.6991 35.4298 25.8726C35.4134 26.0461 35.4584 26.2199 35.5568 26.3637L35.6433 26.4666L39.3348 30.1551L43.0263 26.4666C43.1498 26.3432 43.2261 26.1804 43.2419 26.0066C43.2577 25.8328 43.212 25.6589 43.1128 25.5154L43.0263 25.411C42.9028 25.2877 42.7399 25.2117 42.5661 25.1962C42.3923 25.1807 42.2186 25.2266 42.0751 25.326L41.9708 25.4125L39.3333 28.0484L36.6989 25.4095L36.5975 25.326C36.4539 25.2268 36.28 25.1811 36.1062 25.1969C35.9324 25.2127 35.7696 25.289 35.6463 25.4125V25.414Z" fill="#9162A4"/>
</g>
<defs>
<clipPath id="clip0_321:37">
<rect width="35.7821" height="35.7821" fill="white" transform="translate(18.4622 17.9746)"/>
</clipPath>
</defs>
</svg>
