<svg width="75" height="55" viewBox="0 0 75 55" fill="none" xmlns="http://www.w3.org/2000/svg">
<path d="M35.5515 0.0377426C33.1548 0.217152 30.7183 0.895782 28.5843 1.95664C25.057 3.72733 21.7685 7.0191 20.0247 10.5527C17.6678 15.3031 17.5643 21.2548 19.738 26.1145C21.4659 29.9679 24.8022 33.4469 28.5206 35.2722C30.1131 36.0522 32.1276 36.6918 33.8236 36.9648L34.4368 37.0662V39.8198V42.5733H31.2677H28.0907L27.8996 42.7761L27.7085 42.979V45.2255V47.472L27.8996 47.6748L28.0907 47.8776H31.2597H34.4288L34.4527 51.0368L34.4766 54.1881L34.6597 54.3675C34.8349 54.5469 34.8667 54.5469 37.152 54.5703L39.4611 54.5938L39.692 54.3597L39.9309 54.1335V51.0056V47.8776H43.1398H46.3566L46.5477 47.6748L46.7388 47.472V45.2255V42.979L46.5477 42.7761L46.3566 42.5733L43.1636 42.5577L39.9707 42.5343V39.812V37.0974L41.0456 36.879C42.9407 36.489 44.2306 36.06 45.839 35.2722C47.6067 34.4063 49.1196 33.3377 50.5289 31.9648C53.5706 28.9928 55.4577 25.3734 56.0708 21.286C56.2619 20.0146 56.2619 17.2064 56.0708 15.974C55.4259 11.8163 53.6821 8.46997 50.5926 5.45122C47.4076 2.32326 43.6732 0.544765 39.3815 0.100143C38.4021 -0.00126266 36.4911 -0.0324593 35.5515 0.0377426ZM40.0583 5.63063C42.9088 6.21566 45.4329 7.68994 47.4236 9.91306C49.8203 12.6042 50.8793 15.5683 50.736 19.2111C50.5926 22.7993 49.2072 25.7791 46.4999 28.2908C44.3819 30.2487 41.9056 31.4344 39.1346 31.8166C38.1552 31.9492 36.077 31.9258 35.0419 31.7698C30.2166 31.0443 25.8452 27.4093 24.3324 22.8617C23.8228 21.3328 23.7272 20.6542 23.7352 18.5481C23.7352 16.9568 23.7591 16.6136 23.9104 15.935C24.5314 13.1736 25.8293 10.9349 27.9314 8.977C30.0335 7.0347 32.4621 5.86464 35.225 5.48242C36.4433 5.30301 38.84 5.38101 40.0583 5.63063Z" fill="#FFADC7"/>
<path d="M4.81387 33.9904C5.0275 34.0616 5.14618 34.1328 5.40728 34.1328C6.04816 34.1328 6.21432 33.2071 6.26179 32.7086C6.28553 32.5662 6.30927 32.044 6.30927 31.9728C6.30927 31.6168 6.19058 31.2607 6.19058 30.9047C6.0719 30.1214 6.02443 29.3855 5.97696 28.6022L5.92948 28.531C5.85827 28.0563 5.76333 27.4154 5.76333 26.9882C5.76333 26.7271 6.21432 26.7983 6.35674 26.7271C6.54663 26.6558 6.73652 26.5134 6.95015 26.4185C7.49609 26.1574 8.42181 25.2791 8.77786 24.8281L8.92028 24.567C8.96775 24.4721 9.5849 23.9736 9.48995 23.7837C9.60864 23.6413 10.0834 22.9767 10.1783 22.8105C10.202 22.7868 10.3445 22.5257 10.3682 22.4545L10.6768 21.5525C10.6293 21.3863 10.8667 20.698 10.8667 20.4369V20.3657C10.6768 19.6773 10.4869 19.2738 9.96468 18.7753C9.846 18.8228 9.3238 18.4668 9.18138 18.3956C8.42181 18.1107 7.32993 17.8259 6.52289 17.8259C5.24113 17.8259 3.48463 17.9208 2.34528 18.5142C2.32154 18.5142 2.10791 18.6567 2.06044 18.6804C2.01297 18.7279 1.65692 18.7516 1.65692 18.8703V19.6536C1.65692 19.8197 2.15538 20.0096 2.2978 20.0096C2.51143 20.0096 2.70132 19.9147 2.89121 19.9147C2.96242 19.9147 2.98616 19.9384 3.03363 20.0096C2.96242 22.3595 3.12858 24.6382 3.34221 26.9882C3.5321 27.7715 3.55584 28.7209 3.62705 29.528V29.5992L3.88815 31.9016C3.91188 31.9491 3.98309 32.2339 3.98309 32.3051V32.3289L4.22046 33.4445L4.81387 33.9904ZM5.62091 24.2347V23.2141C5.62091 22.6444 5.66838 22.0747 5.66838 21.505C5.66838 20.9828 5.5497 20.4844 5.5497 19.9622C5.5497 19.796 5.85827 19.8435 5.92948 19.7723C6.73652 19.7723 7.35367 20.0096 7.59104 20.8404V21.3863C7.59104 21.8136 7.61477 21.9323 7.49609 22.3121C7.32993 22.8817 6.97389 23.1903 6.5941 23.5938C6.54663 23.6176 6.30927 23.9262 6.26179 23.9736C6.19058 24.0686 5.8108 24.3534 5.73959 24.3534C5.66838 24.3534 5.59717 24.3297 5.62091 24.2347ZM11.3694 27.4391C11.3694 28.5073 11.4643 30.0502 11.7967 31.0234C11.9628 31.5693 12.0103 32.139 12.2951 32.6612C12.5562 33.1359 12.9835 33.5632 13.3633 33.9429L13.6244 34.1328C14.0516 34.3939 14.8349 34.3939 15.3334 34.3939C15.4521 34.3939 16.2354 34.2753 16.3541 34.2753C16.4965 34.2278 16.7101 34.204 16.8525 34.1328C16.8525 34.1091 16.9 34.0379 16.9237 34.0379C17.0424 33.9904 17.2323 33.9904 17.351 33.8955C18.5141 32.946 18.8701 31.0946 19.2262 29.7178C19.2499 29.4567 19.3686 29.1719 19.4873 28.9583C19.511 28.8159 19.5585 27.9614 19.5822 27.7952C19.5822 27.7715 19.5585 27.6528 19.5822 27.6528L20.1282 23.6413C20.1519 23.5701 20.1519 23.3327 20.1994 23.2378C20.2231 23.1191 20.2943 22.5494 20.2943 22.407V22.3121C20.2943 22.0272 20.2943 21.6712 20.1994 21.4101C20.1994 21.3863 20.0807 21.054 20.0807 21.0066C20.0569 20.9591 20.0807 20.5081 20.0807 20.4606C20.0332 19.9384 19.7721 19.5586 19.4873 19.1551C19.2024 19.0364 19.0838 18.8703 18.9413 18.5854L18.8939 18.538C18.8464 18.538 18.5615 18.4193 18.5378 18.3956C18.5141 18.3956 18.3954 18.3243 18.3954 18.3243C18.0868 18.2531 17.802 18.3006 17.5409 18.1345C17.5171 18.1107 17.3985 18.0395 17.3985 18.0395C17.0424 17.9446 16.5914 17.7547 16.2354 17.7547C16.0692 17.7547 15.9505 17.8971 15.7844 17.8971C15.7844 17.8971 15.6182 17.8496 15.5945 17.8496H15.5708C15.547 17.8496 15.4046 17.8971 15.3809 17.8971H15.3571C15.2859 17.8971 15.1198 17.8259 15.0248 17.8259C14.6925 17.8259 14.3602 17.9208 14.0516 17.992C14.0041 18.0632 13.7193 18.3481 13.6481 18.3956C13.6244 18.443 13.3633 18.6329 13.3395 18.6804C13.1734 18.8465 13.0784 19.2501 12.8648 19.3687C12.2476 20.5793 12.034 21.6474 11.7967 23.0004C11.7967 23.1666 11.7017 23.2615 11.7492 23.4277L11.4643 25.6826V25.8013C11.4643 25.8725 11.3931 26.466 11.3694 26.5609V27.4391ZM14.9773 31.5218C14.9536 31.5218 14.9299 31.4981 14.9299 31.4743C14.7875 31.0234 14.8112 30.5012 14.74 30.0264C14.6688 29.5754 14.5501 29.1482 14.4789 28.6972C14.3602 27.9376 14.3365 27.1543 14.3365 26.3947V25.5165C14.3365 25.4453 14.3839 25.018 14.3839 24.9706V24.4246C14.3839 24.3771 14.4551 24.0448 14.4789 23.9974C14.5263 23.7125 14.4789 23.0479 14.6688 22.8105C14.6688 22.7631 14.6925 22.7156 14.6925 22.6681C14.8587 21.8611 15.0723 20.8167 15.7369 20.2233C15.8556 20.1521 16.1642 19.891 16.2116 19.8672C16.2116 19.8672 16.2591 19.8197 16.2828 19.8197H16.3303C16.4253 19.8197 16.449 20.0334 16.4727 20.0808L16.6626 20.3419C17.0899 20.8167 17.2086 21.3863 17.2086 22.0272C17.2086 23.4514 17.0187 24.8044 16.7576 26.2049C16.7576 26.2286 16.7101 26.3473 16.7101 26.371L16.3541 28.8396C16.2354 29.2194 15.5945 32.3526 15.3809 32.3526L15.3334 32.3289C15.191 32.139 15.0486 31.7117 14.9773 31.5218ZM22.9687 34.1328C23.1586 34.2753 23.4672 34.6313 23.752 34.6313H23.7758L24.4167 34.4889C24.5828 34.0379 24.9626 33.6344 25.0338 33.1122C25.0338 33.0884 25.0576 32.5662 25.0576 32.4001V32.3289C25.0576 31.4031 24.9389 30.5012 24.9389 29.5754C24.9389 29.5517 24.9626 29.3143 25.0338 29.2431H25.0576C25.7934 30.1926 26.4105 31.2132 27.1464 32.1627C27.5261 32.6137 27.6686 33.2308 28.1908 33.5157C28.4044 33.6344 28.6655 33.6344 28.8791 33.6344C29.2589 33.6344 29.7811 33.6106 30.1372 33.3733C30.3983 33.2308 30.6594 32.6849 30.6594 32.3763C30.6594 32.0678 30.5644 31.6642 30.3983 31.4031C30.2796 31.237 30.0659 31.0708 30.0659 30.8335H30.0185L29.8048 30.6198C29.3776 30.1688 29.0453 29.7416 28.6892 29.2669C28.6655 29.2431 28.6418 29.1956 28.618 29.1719C28.4756 28.9583 28.2382 28.8159 28.167 28.5548V28.4836C28.0483 28.2937 27.9297 28.2699 27.8822 28.1038C27.8822 28.08 27.811 27.9614 27.7872 27.9139C27.6686 27.724 27.1701 27.0119 27.1226 26.9169C26.9327 26.7033 26.2918 26.1336 26.2918 25.8488V25.8251C26.3631 25.7776 26.6004 25.5165 26.6479 25.469C26.7428 25.3978 26.909 25.2317 27.0039 25.1842L27.6923 24.4958C27.7398 24.3771 28.0958 23.9499 28.1908 23.8312C28.2382 23.8075 28.4993 23.5464 28.5231 23.4989C28.5943 23.4277 28.6418 23.2853 28.713 23.1903C29.4725 22.1697 29.8761 21.3151 29.8761 20.0334V20.0096C29.8761 19.9859 29.8048 19.891 29.8048 19.8672C29.7811 19.8435 29.8048 19.7485 29.8048 19.7248C29.6387 19.2975 28.7842 18.8465 28.3807 18.5854C28.3569 18.5854 28.0958 18.5142 28.167 18.4668C26.6716 17.8496 25.1288 17.636 23.4909 17.636C22.6127 17.636 21.7344 17.7072 21.0224 18.1819C20.8562 18.2769 20.5951 18.3481 20.5951 18.5617C20.5951 18.6804 20.6426 18.7753 20.6426 18.8703C20.6426 18.9652 20.6188 19.0364 20.6188 19.1314C20.6188 19.3213 21.0224 19.5586 21.2122 19.5586C21.4021 19.5586 21.5446 19.44 21.687 19.44C21.8057 19.44 21.8294 19.44 21.9243 19.5112C21.9006 22.5494 22.0668 25.4453 22.4465 28.4123C22.589 29.6229 22.4703 30.8809 22.6127 32.0678C22.6839 32.7324 22.7076 33.4919 22.9687 34.1328ZM24.6066 23.1903C24.6066 22.2171 24.7015 21.2439 24.7015 20.2707C24.7015 20.1995 24.654 20.1521 24.654 20.0808C24.654 19.9859 24.7252 19.796 24.8202 19.7723H25.2C26.0545 19.7723 27.0277 20.1046 27.0277 21.0778C27.0277 21.1252 27.0277 21.3151 27.0039 21.3389C27.0039 21.3863 26.8378 21.7187 26.7903 21.7661C26.8378 21.8848 26.7428 21.9086 26.6954 21.956C26.6954 21.9798 26.6242 22.1222 26.6242 22.1459C26.5055 22.2883 26.1494 22.8105 26.102 22.8817C26.102 22.9055 25.8646 23.1191 25.7934 23.1903C25.6035 23.3565 24.9389 24.0686 24.7965 24.0686C24.6303 24.0686 24.6778 23.8787 24.654 23.7837C24.654 23.7125 24.6066 23.2853 24.6066 23.2378V23.1903ZM39.7658 23.8075C39.7658 26.1099 39.8845 28.5073 40.2168 30.8097C40.2168 30.8335 40.2643 31.0234 40.2643 31.0471C40.3355 31.7354 40.2643 32.8036 40.6915 33.3495C40.7627 33.4682 41.0238 33.8005 41.0476 33.8005C41.4036 34.1566 42.1157 34.1566 42.5667 34.1566C42.994 34.1566 43.2313 34.1328 43.7061 34.0854C43.7298 34.0854 43.7535 34.0854 43.7773 34.0854C44.0146 33.9192 44.4656 33.9192 44.7267 33.8717C45.4863 33.6581 47.314 33.1359 47.314 32.2339C47.314 32.2102 47.314 32.1864 47.314 32.1864C47.314 32.1152 47.2903 31.9965 47.2903 31.9965L46.7206 31.4506C46.7206 31.4506 46.6257 31.4506 46.5782 31.4506C45.9136 31.4506 45.2015 31.6168 44.5606 31.7829C44.5131 31.7829 44.4894 31.8067 44.4419 31.8067C44.2045 31.8779 43.9197 31.9965 43.6586 31.9965C43.6349 31.9965 43.5162 32.0203 43.4924 31.9491C43.5162 31.5218 43.2313 31.2845 43.1839 30.9047C42.994 29.4093 42.6854 28.08 42.6854 26.5134C42.6854 26.3947 42.6854 25.8013 42.6854 25.6826C42.8753 25.113 45.8186 25.3029 45.8186 24.5908V24.0686C45.8186 23.5938 44.1571 23.4752 44.0384 23.4752C43.6586 23.4752 43.2788 23.5464 42.8753 23.5464C42.8516 23.5464 42.7329 23.5464 42.7329 23.5464C42.5192 23.4514 42.4955 22.1222 42.4718 21.9086C42.4718 21.8848 42.448 21.8611 42.448 21.8373C42.3768 21.5525 42.3056 21.2439 42.3056 20.9828C42.3056 20.8404 42.6142 20.7929 42.6854 20.7692C43.9434 20.7217 45.2489 20.7217 46.507 20.4132C46.7443 20.1995 46.958 20.0808 46.958 19.7723C46.958 19.7485 46.958 19.6773 46.958 19.6773C46.9342 19.6536 46.8155 19.5112 46.8155 19.5112C46.1984 18.5854 44.347 18.5617 43.445 18.5617C42.5667 18.5617 41.7359 18.7041 40.8577 18.8703H40.7865L39.7658 19.0839C39.5759 19.0364 38.7689 19.2738 38.7689 19.5586C38.7689 19.5824 38.7689 19.6536 38.7689 19.6773C38.7689 19.7011 38.8164 19.796 38.8164 19.8197C38.8164 19.8197 38.7689 19.9622 38.7689 19.9859C38.7689 20.0096 38.7451 20.1283 38.7451 20.1283V20.1521C38.7451 20.2233 39.03 20.4844 39.1249 20.4844C39.2911 20.5081 39.8608 20.4606 39.8608 20.7217C39.8608 21.7661 39.7658 22.7631 39.7658 23.8075ZM48.8812 33.9192V34.0379C48.8812 34.0616 49.0473 34.204 49.1185 34.2278L49.3796 34.3465H49.7357C51.0175 34.3465 52.2755 34.2753 53.5573 34.1091H53.6285C54.1032 34.0616 54.9102 33.9667 55.1713 33.5394C55.385 33.2071 55.3612 32.9223 55.3375 32.5425C55.385 32.4713 55.385 32.4475 55.385 32.3763C55.385 32.2577 55.2663 31.9965 55.1951 31.8779C55.1001 31.688 54.483 31.688 54.2219 31.688H54.1507C53.4386 31.688 52.679 31.8067 52.0144 31.9728C51.777 32.0203 51.2073 32.139 51.2073 32.139L51.0649 31.9965C51.0649 31.9965 51.0175 31.5693 50.9937 31.4031C50.97 31.142 50.9937 30.8809 50.9462 30.6436C50.8988 30.2401 50.7801 29.8603 50.7564 29.4805V27.6765C50.7564 27.6053 50.8276 27.0119 50.875 26.822C50.8988 26.3947 51.1124 25.9912 51.1836 25.564C51.2073 25.2079 51.3498 24.3059 51.3498 24.2822V22.7393C51.3498 22.6919 51.3735 22.3833 51.3735 22.3595C51.3972 22.2409 51.3498 22.1934 51.4447 22.1222V21.5762C51.4447 21.1727 51.4447 20.8641 51.3735 20.4606C51.3023 20.3657 51.3498 20.1283 51.3023 20.0571C51.1836 19.7485 50.7564 19.3925 50.4478 19.2738C50.3528 19.2263 50.0917 19.2263 50.0205 19.0839C49.4034 18.9178 48.81 18.9415 48.1928 18.8228H48.1691C48.0267 18.8228 47.8605 18.989 47.7893 19.0839V19.5349C47.7893 19.6536 47.6469 19.7485 47.6231 19.8435V19.891C47.6231 19.9147 47.6706 19.9859 47.6944 19.9859L47.7418 20.3182V22.3121C47.7893 22.502 47.7893 22.5969 47.7893 22.7868V23.0004C47.7893 23.0004 47.7656 23.0479 47.7418 23.0479V23.0954C47.7656 23.0954 47.7893 23.1191 47.7893 23.1191V23.6176H47.8368C47.8368 24.2347 47.8605 24.8519 47.8842 25.469C47.908 25.9438 48.0029 26.466 47.9555 26.9407L48.0029 26.9882C47.9555 27.6765 48.1453 28.3174 48.2166 28.982C48.3115 29.6941 48.3827 30.4299 48.4064 31.1658C48.4064 31.5218 48.5251 33.0647 48.5251 33.4207C48.6675 33.6106 48.6675 33.7768 48.8812 33.9192ZM56.6838 32.9223C56.6838 33.3021 56.8262 33.7056 56.9212 34.0854C56.9212 34.1328 57.3484 34.4414 57.4196 34.4414C57.5858 34.4414 57.7045 34.3702 57.8706 34.3227C58.6539 33.6818 59.1524 32.3289 59.366 31.4031C59.4372 31.142 59.3898 31.0708 59.6034 30.9047C59.6509 30.8809 60.0306 30.8572 60.1968 30.8572L61.5498 30.6436C61.7871 30.6436 62.0245 30.5724 62.2381 30.5724C62.2619 30.5724 62.4043 30.5724 62.4043 30.5724L62.4518 30.6436C62.4755 30.6436 62.5704 30.9759 62.5942 31.0946C62.6417 31.3082 62.879 32.4001 62.9028 32.6374V32.6849C62.9502 32.7561 63.0689 33.1359 63.1164 33.2308C63.1639 33.2546 63.1639 33.3495 63.1876 33.4207C63.3775 33.7768 63.6386 33.8955 64.0658 33.9904C64.0658 33.9904 64.1608 33.9429 64.1845 33.9429L64.3032 33.9904C64.3032 33.9904 64.3269 33.9904 64.3507 33.9904C64.4219 33.9904 65.2289 33.6818 65.2289 33.6581C65.3476 33.5157 65.3476 33.397 65.5138 33.2783C65.5138 33.2546 65.585 33.1834 65.6087 33.1834C65.7511 32.946 65.7749 32.6849 65.7749 32.4475C65.7749 31.8541 65.5138 31.142 65.4188 30.6436C65.3239 30.5249 65.2764 30.1926 65.2764 30.0502C65.2764 29.6941 65.7511 29.6466 65.7511 29.0295C65.7511 28.6972 65.3951 28.3649 65.0865 28.3649C65.0865 28.1512 64.9678 27.9376 64.9204 27.724C64.8491 27.5104 64.6593 27.0356 64.588 26.7271C64.5406 26.3947 64.4931 25.9912 64.3744 25.6826C64.3507 25.6589 64.2795 25.5165 64.2795 25.4928C64.2795 25.469 64.2795 25.1367 64.2795 25.0892C64.2557 24.9468 64.0896 24.2822 64.0658 24.1398C64.0658 24.1398 64.0896 23.9262 63.9946 23.9024C63.8997 23.4514 63.8522 22.953 63.781 22.4782C63.7098 22.1459 63.5436 21.7424 63.4962 21.4101C63.4724 21.3151 63.4724 21.1965 63.4487 21.1015C63.2825 19.6061 63.0926 17.9446 61.1225 17.9446C60.9801 17.9446 60.719 17.9208 60.5528 17.992C59.7458 18.538 59.4372 20.0096 59.1761 20.9116C59.1999 20.9354 59.1999 20.9828 59.1761 21.0066C59.1761 21.054 59.0337 21.5288 59.01 21.6712C58.915 22.0035 58.915 22.5494 58.6777 22.858C58.559 23.5938 58.3928 24.3297 58.2267 25.0655C58.2029 25.113 58.2029 25.1842 58.1792 25.2317C58.1555 25.3741 58.0842 25.2554 58.1555 25.4453C57.9418 26.4897 57.562 27.4391 57.3722 28.4836C57.3484 28.6972 57.3484 28.9583 57.2297 29.1244C57.1111 29.3381 56.3278 29.5754 56.3278 29.7891C56.3278 29.9315 56.399 29.9315 56.399 30.0739C56.4227 30.1214 56.399 30.4537 56.399 30.5012C56.4702 30.7623 56.6601 30.6673 56.8737 30.7148C56.9449 30.7385 56.9212 30.8335 56.9212 30.8809C56.9212 30.9047 56.9212 30.9996 56.9212 30.9996C56.8974 31.0234 56.8262 31.4031 56.8262 31.4506C56.755 31.9253 56.6838 32.4238 56.6838 32.9223ZM60.1018 28.5785C60.1018 27.6528 60.5054 26.7745 60.6478 25.8488C60.6478 25.7539 60.719 25.0418 60.719 24.9468C60.7427 24.8993 60.8139 24.4009 60.8377 24.3534C60.8852 23.8549 60.8377 23.309 61.0038 22.8105L61.0513 22.7631C61.075 22.7868 61.075 22.8817 61.0988 22.9055C61.3836 24.2347 61.5498 25.6114 61.7397 26.9407C61.7871 27.3917 61.9533 27.8427 61.9533 28.2937V28.3174C61.9533 28.3411 61.9058 28.3886 61.8821 28.3886C61.6922 28.4361 60.9564 28.5548 60.7902 28.6022C60.6003 28.6022 60.4579 28.6734 60.2917 28.6734C60.2205 28.6734 60.1018 28.6734 60.1018 28.5785ZM67.3867 33.1122C67.7428 33.1122 68.0513 33.3021 68.4074 33.3021H68.5735C68.5973 33.3021 68.7634 33.2308 68.7634 33.2071C69.9503 32.8748 70.5911 32.5662 71.5881 31.7117C71.6118 31.688 71.683 31.5693 71.683 31.5693L72.134 30.9759C72.3239 30.7623 72.6087 30.5012 72.68 30.2163C72.7512 29.9077 72.6562 29.6704 72.9173 29.433V29.077C72.9173 28.531 72.7986 28.1275 72.4901 27.6528C72.4901 27.629 72.4663 27.5816 72.4663 27.5578C71.4219 26.3947 70.2351 26.0624 69.1432 25.113C68.7872 24.8044 68.5023 24.3771 68.265 23.9736C68.2887 23.9024 68.17 23.5938 68.17 23.4514C68.17 22.9292 68.4074 22.3833 68.5735 21.9086C68.8109 21.7424 68.8109 21.3389 69.0008 21.1015L69.2619 20.8404C69.5467 20.4606 69.7841 20.1521 70.1164 19.8197L70.8997 19.6536C71.1133 19.5824 71.3744 19.4162 71.4931 19.3687H72.1815C72.5613 19.3687 72.6325 18.894 72.6325 18.6329C72.6325 17.7072 71.6355 17.541 70.9235 17.541C69.4755 17.541 68.6685 18.1107 67.7665 19.1789C67.7665 19.2026 67.7428 19.2738 67.719 19.2738C67.4342 19.5586 67.2206 19.8435 66.9595 20.2233C66.3186 21.1727 65.7964 22.1459 65.7964 23.3327C65.7964 23.7837 65.9151 24.0923 65.9863 24.4958C66.3186 25.0418 66.5322 25.5402 66.9595 26.015C67.2443 26.3235 67.6716 26.5846 67.9564 26.9169L69.2619 27.9139C69.7366 28.2699 70.0452 28.6734 70.0452 29.2431C70.0452 29.8603 69.4043 30.2401 68.9059 30.5249L68.0039 30.9759C67.9089 31.0234 67.3392 31.2132 67.268 31.2607C67.2443 31.2607 67.1731 31.2845 67.1731 31.2845C66.9357 31.5456 66.9832 31.8779 66.8883 32.1627C66.8883 32.2102 66.7696 32.4001 66.7696 32.4475C66.7696 32.4475 66.7458 32.495 66.7458 32.5188C66.7458 32.7324 66.9357 33.2308 67.1494 33.2308C67.268 33.2308 67.268 33.1122 67.3867 33.1122Z" fill="#9162A4"/>
</svg>
