<svg width="50" height="34" viewBox="0 0 50 34" fill="none" xmlns="http://www.w3.org/2000/svg">
<path d="M23.145 0.0228653C21.6649 0.133141 20.1601 0.550274 18.8422 1.20235C16.6637 2.29073 14.6328 4.31408 13.5558 6.48605C12.1003 9.40599 12.0363 13.0643 13.3788 16.0514C14.4459 18.4199 16.5064 20.5583 18.8029 21.6803C19.7864 22.1598 21.0305 22.5529 22.0779 22.7207L22.4566 22.7831V24.4756V26.1681H20.4994H18.5373L18.4193 26.2927L18.3013 26.4174V27.7983V29.1791L18.4193 29.3038L18.5373 29.4284H20.4945H22.4517L22.4664 31.3703L22.4812 33.3073L22.5943 33.4176C22.7025 33.5279 22.7221 33.5279 24.1335 33.5423L25.5595 33.5566L25.7022 33.4128L25.8497 33.2738V31.3511V29.4284H27.8315H29.8181L29.9362 29.3038L30.0542 29.1791V27.7983V26.4174L29.9362 26.2927L29.8181 26.1681L27.8462 26.1585L25.8743 26.1441V24.4708V22.8022L26.5381 22.668C27.7085 22.4283 28.5052 22.1646 29.4985 21.6803C30.5902 21.1481 31.5245 20.4912 32.3949 19.6474C34.2734 17.8206 35.4389 15.5959 35.8175 13.0835C35.9355 12.302 35.9355 10.5759 35.8175 9.81833C35.4192 7.26278 34.3423 5.20588 32.4343 3.35035C30.4672 1.4277 28.1609 0.334515 25.5104 0.0612183C24.9055 -0.00111008 23.7253 -0.0202866 23.145 0.0228653ZM25.9284 3.46062C27.6888 3.82022 29.2477 4.72642 30.4771 6.09289C31.9573 7.74705 32.6113 9.56901 32.5228 11.8081C32.4343 14.0137 31.5786 15.8452 29.9067 17.3891C28.5986 18.5925 27.0692 19.3213 25.3579 19.5563C24.7531 19.6378 23.4696 19.6234 22.8303 19.5275C19.8503 19.0816 17.1506 16.8473 16.2162 14.052C15.9015 13.1123 15.8425 12.6951 15.8474 11.4006C15.8474 10.4225 15.8622 10.2115 15.9556 9.79436C16.3392 8.09705 17.1407 6.72099 18.439 5.51753C19.7372 4.32366 21.237 3.60447 22.9434 3.36953C23.6958 3.25925 25.176 3.3072 25.9284 3.46062Z" fill="#F18BAB"/>
<path d="M2.66016 21.4009C2.80704 21.4498 2.88864 21.4988 3.06816 21.4988C3.5088 21.4988 3.62304 20.8623 3.65568 20.5196C3.672 20.4217 3.68832 20.0626 3.68832 20.0137C3.68832 19.7689 3.60672 19.5241 3.60672 19.2793C3.52512 18.7407 3.49248 18.2348 3.45984 17.6962L3.4272 17.6473C3.37824 17.3209 3.31296 16.8802 3.31296 16.5865C3.31296 16.4069 3.62304 16.4559 3.72096 16.4069C3.85152 16.358 3.98208 16.2601 4.12896 16.1948C4.50432 16.0153 5.1408 15.4114 5.3856 15.1013L5.48352 14.9218C5.51616 14.8565 5.94048 14.5138 5.8752 14.3833C5.9568 14.2853 6.2832 13.8284 6.34848 13.7141C6.3648 13.6978 6.46272 13.5183 6.47904 13.4693L6.6912 12.8492C6.65856 12.7349 6.82176 12.2617 6.82176 12.0821V12.0332C6.6912 11.5599 6.56064 11.2825 6.2016 10.9397C6.12 10.9724 5.76096 10.7276 5.66304 10.6786C5.1408 10.4828 4.39008 10.2869 3.8352 10.2869C2.95392 10.2869 1.74624 10.3522 0.96288 10.7602C0.94656 10.7602 0.79968 10.8581 0.76704 10.8745C0.7344 10.9071 0.4896 10.9234 0.4896 11.005V11.5436C0.4896 11.6578 0.83232 11.7884 0.93024 11.7884C1.07712 11.7884 1.20768 11.7231 1.33824 11.7231C1.3872 11.7231 1.40352 11.7394 1.43616 11.7884C1.3872 13.4041 1.50144 14.9708 1.64832 16.5865C1.77888 17.125 1.7952 17.7778 1.84416 18.3327V18.3817L2.02368 19.9647C2.04 19.9973 2.08896 20.1932 2.08896 20.2421V20.2585L2.25216 21.0255L2.66016 21.4009ZM3.21504 14.6933V13.9916C3.21504 13.5999 3.24768 13.2082 3.24768 12.8165C3.24768 12.4575 3.16608 12.1148 3.16608 11.7557C3.16608 11.6415 3.37824 11.6741 3.4272 11.6252C3.98208 11.6252 4.4064 11.7884 4.5696 12.3596V12.7349C4.5696 13.0287 4.58592 13.1103 4.50432 13.3714C4.39008 13.7631 4.14528 13.9753 3.88416 14.2527C3.85152 14.269 3.68832 14.4812 3.65568 14.5138C3.60672 14.5791 3.3456 14.7749 3.29664 14.7749C3.24768 14.7749 3.19872 14.7586 3.21504 14.6933ZM7.16741 16.8965C7.16741 17.6309 7.23269 18.6917 7.46117 19.3609C7.57541 19.7362 7.60805 20.1279 7.80389 20.4869C7.98341 20.8133 8.27717 21.1071 8.53829 21.3682L8.71781 21.4988C9.01157 21.6783 9.55013 21.6783 9.89285 21.6783C9.97445 21.6783 10.513 21.5967 10.5946 21.5967C10.6925 21.5641 10.8394 21.5477 10.9373 21.4988C10.9373 21.4825 10.97 21.4335 10.9863 21.4335C11.0679 21.4009 11.1985 21.4009 11.2801 21.3356C12.0797 20.6828 12.3245 19.4098 12.5693 18.4633C12.5857 18.2837 12.6673 18.0879 12.7489 17.941C12.7652 17.8431 12.7978 17.2556 12.8141 17.1413C12.8141 17.125 12.7978 17.0434 12.8141 17.0434L13.1895 14.2853C13.2058 14.2364 13.2058 14.0732 13.2385 14.0079C13.2548 13.9263 13.3037 13.5346 13.3037 13.4367V13.3714C13.3037 13.1756 13.3037 12.9308 13.2385 12.7513C13.2385 12.7349 13.1569 12.5065 13.1569 12.4738C13.1405 12.4412 13.1569 12.1311 13.1569 12.0985C13.1242 11.7394 12.9447 11.4783 12.7489 11.2009C12.553 11.1193 12.4714 11.005 12.3735 10.8092L12.3409 10.7765C12.3082 10.7765 12.1124 10.6949 12.0961 10.6786C12.0797 10.6786 11.9981 10.6297 11.9981 10.6297C11.786 10.5807 11.5901 10.6133 11.4106 10.4991C11.3943 10.4828 11.3127 10.4338 11.3127 10.4338C11.0679 10.3685 10.7578 10.238 10.513 10.238C10.3988 10.238 10.3172 10.3359 10.2029 10.3359C10.2029 10.3359 10.0887 10.3033 10.0724 10.3033H10.0561C10.0397 10.3033 9.94181 10.3359 9.92549 10.3359H9.90917C9.86021 10.3359 9.74597 10.2869 9.68069 10.2869C9.45221 10.2869 9.22373 10.3522 9.01157 10.4012C8.97893 10.4501 8.78309 10.646 8.73413 10.6786C8.71781 10.7113 8.53829 10.8418 8.52197 10.8745C8.40773 10.9887 8.34245 11.2661 8.19557 11.3477C7.77125 12.1801 7.62437 12.9145 7.46117 13.8447C7.46117 13.9589 7.39589 14.0242 7.42853 14.1385L7.23269 15.6889V15.7705C7.23269 15.8194 7.18373 16.2274 7.16741 16.2927V16.8965ZM9.64805 19.7036C9.63173 19.7036 9.61541 19.6873 9.61541 19.6709C9.51749 19.3609 9.53381 19.0018 9.48485 18.6754C9.43589 18.3653 9.35429 18.0716 9.30533 17.7615C9.22373 17.2393 9.20741 16.7007 9.20741 16.1785V15.5746C9.20741 15.5257 9.24005 15.2319 9.24005 15.1993V14.8239C9.24005 14.7913 9.28901 14.5628 9.30533 14.5301C9.33797 14.3343 9.30533 13.8773 9.43589 13.7141C9.43589 13.6815 9.45221 13.6489 9.45221 13.6162C9.56645 13.0613 9.71333 12.3433 10.1703 11.9353C10.2519 11.8863 10.4641 11.7068 10.4967 11.6905C10.4967 11.6905 10.5293 11.6578 10.5457 11.6578H10.5783C10.6436 11.6578 10.6599 11.8047 10.6762 11.8373L10.8068 12.0169C11.1005 12.3433 11.1821 12.7349 11.1821 13.1756C11.1821 14.1548 11.0516 15.085 10.8721 16.0479C10.8721 16.0642 10.8394 16.1458 10.8394 16.1621L10.5946 17.8594C10.513 18.1205 10.0724 20.2748 9.92549 20.2748L9.89285 20.2585C9.79493 20.1279 9.69701 19.8341 9.64805 19.7036ZM15.1425 21.4988C15.2731 21.5967 15.4853 21.8415 15.6811 21.8415H15.6974L16.1381 21.7436C16.2523 21.4335 16.5134 21.1561 16.5624 20.797C16.5624 20.7807 16.5787 20.4217 16.5787 20.3074V20.2585C16.5787 19.622 16.4971 19.0018 16.4971 18.3653C16.4971 18.349 16.5134 18.1858 16.5624 18.1369H16.5787C17.0846 18.7897 17.5089 19.4914 18.0149 20.1442C18.276 20.4543 18.3739 20.8786 18.7329 21.0745C18.8798 21.1561 19.0593 21.1561 19.2062 21.1561C19.4673 21.1561 19.8264 21.1397 20.0712 20.9765C20.2507 20.8786 20.4302 20.5033 20.4302 20.2911C20.4302 20.0789 20.3649 19.8015 20.2507 19.622C20.1691 19.5077 20.0222 19.3935 20.0222 19.2303H19.9896L19.8427 19.0834C19.5489 18.7733 19.3205 18.4796 19.0757 18.1532C19.0593 18.1369 19.043 18.1042 19.0267 18.0879C18.9288 17.941 18.7656 17.8431 18.7166 17.6636V17.6146C18.635 17.4841 18.5534 17.4677 18.5208 17.3535C18.5208 17.3372 18.4718 17.2556 18.4555 17.2229C18.3739 17.0924 18.0312 16.6028 17.9985 16.5375C17.868 16.3906 17.4273 15.9989 17.4273 15.8031V15.7868C17.4763 15.7541 17.6395 15.5746 17.6721 15.542C17.7374 15.493 17.8517 15.3788 17.9169 15.3461L18.3902 14.8729C18.4229 14.7913 18.6677 14.4975 18.7329 14.4159C18.7656 14.3996 18.9451 14.2201 18.9614 14.1874C19.0104 14.1385 19.043 14.0405 19.092 13.9753C19.6142 13.2735 19.8917 12.686 19.8917 11.8047V11.7884C19.8917 11.7721 19.8427 11.7068 19.8427 11.6905C19.8264 11.6741 19.8427 11.6089 19.8427 11.5925C19.7285 11.2988 19.1409 10.9887 18.8635 10.8092C18.8472 10.8092 18.6677 10.7602 18.7166 10.7276C17.6885 10.3033 16.6277 10.1564 15.5016 10.1564C14.8977 10.1564 14.2939 10.2053 13.8043 10.5317C13.6901 10.597 13.5105 10.646 13.5105 10.7929C13.5105 10.8745 13.5432 10.9397 13.5432 11.005C13.5432 11.0703 13.5269 11.1193 13.5269 11.1845C13.5269 11.3151 13.8043 11.4783 13.9349 11.4783C14.0654 11.4783 14.1633 11.3967 14.2613 11.3967C14.3429 11.3967 14.3592 11.3967 14.4245 11.4457C14.4081 13.5346 14.5224 15.5257 14.7835 17.5657C14.8814 18.398 14.7998 19.2629 14.8977 20.0789C14.9467 20.5359 14.963 21.0581 15.1425 21.4988ZM16.2686 13.9753C16.2686 13.3061 16.3339 12.637 16.3339 11.9679C16.3339 11.9189 16.3013 11.8863 16.3013 11.8373C16.3013 11.7721 16.3502 11.6415 16.4155 11.6252H16.6766C17.2641 11.6252 17.9333 11.8537 17.9333 12.5228C17.9333 12.5554 17.9333 12.686 17.9169 12.7023C17.9169 12.7349 17.8027 12.9634 17.7701 12.9961C17.8027 13.0777 17.7374 13.094 17.7048 13.1266C17.7048 13.1429 17.6558 13.2409 17.6558 13.2572C17.5742 13.3551 17.3294 13.7141 17.2968 13.7631C17.2968 13.7794 17.1336 13.9263 17.0846 13.9753C16.9541 14.0895 16.4971 14.5791 16.3992 14.5791C16.2849 14.5791 16.3176 14.4485 16.3013 14.3833C16.3013 14.3343 16.2686 14.0405 16.2686 14.0079V13.9753ZM26.6914 14.3996C26.6914 15.9826 26.773 17.6309 27.0014 19.214C27.0014 19.2303 27.0341 19.3609 27.0341 19.3772C27.083 19.8505 27.0341 20.5849 27.3278 20.9602C27.3768 21.0418 27.5563 21.2703 27.5726 21.2703C27.8174 21.5151 28.307 21.5151 28.6171 21.5151C28.9109 21.5151 29.0741 21.4988 29.4005 21.4661C29.4168 21.4661 29.4331 21.4661 29.4494 21.4661C29.6126 21.3519 29.9227 21.3519 30.1022 21.3193C30.6245 21.1724 31.8811 20.8133 31.8811 20.1932C31.8811 20.1769 31.8811 20.1605 31.8811 20.1605C31.8811 20.1116 31.8648 20.03 31.8648 20.03L31.4731 19.6546C31.4731 19.6546 31.4078 19.6546 31.3752 19.6546C30.9182 19.6546 30.4286 19.7689 29.988 19.8831C29.9554 19.8831 29.939 19.8994 29.9064 19.8994C29.7432 19.9484 29.5474 20.03 29.3678 20.03C29.3515 20.03 29.2699 20.0463 29.2536 19.9973C29.2699 19.7036 29.0741 19.5404 29.0414 19.2793C28.9109 18.2511 28.6987 17.3372 28.6987 16.2601C28.6987 16.1785 28.6987 15.7705 28.6987 15.6889C28.8293 15.2972 30.853 15.4277 30.853 14.9381V14.5791C30.853 14.2527 29.7106 14.1711 29.629 14.1711C29.3678 14.1711 29.1067 14.2201 28.8293 14.2201C28.813 14.2201 28.7314 14.2201 28.7314 14.2201C28.5845 14.1548 28.5682 13.2409 28.5518 13.094C28.5518 13.0777 28.5355 13.0613 28.5355 13.045C28.4866 12.8492 28.4376 12.637 28.4376 12.4575C28.4376 12.3596 28.6498 12.3269 28.6987 12.3106C29.5637 12.278 30.4613 12.278 31.3262 12.0658C31.4894 11.9189 31.6363 11.8373 31.6363 11.6252C31.6363 11.6089 31.6363 11.5599 31.6363 11.5599C31.62 11.5436 31.5384 11.4457 31.5384 11.4457C31.1141 10.8092 29.8411 10.7929 29.221 10.7929C28.6171 10.7929 28.0459 10.8908 27.4421 11.005H27.3931L26.6914 11.1519C26.5608 11.1193 26.0059 11.2825 26.0059 11.4783C26.0059 11.4946 26.0059 11.5436 26.0059 11.5599C26.0059 11.5762 26.0386 11.6415 26.0386 11.6578C26.0386 11.6578 26.0059 11.7557 26.0059 11.7721C26.0059 11.7884 25.9896 11.87 25.9896 11.87V11.8863C25.9896 11.9353 26.1854 12.1148 26.2507 12.1148C26.365 12.1311 26.7566 12.0985 26.7566 12.278C26.7566 12.9961 26.6914 13.6815 26.6914 14.3996ZM32.9586 21.3519V21.4335C32.9586 21.4498 33.0729 21.5477 33.1218 21.5641L33.3013 21.6457H33.5461C34.4274 21.6457 35.2924 21.5967 36.1737 21.4825H36.2226C36.549 21.4498 37.1039 21.3845 37.2834 21.0908C37.4303 20.8623 37.414 20.6665 37.3977 20.4053C37.4303 20.3564 37.4303 20.3401 37.4303 20.2911C37.4303 20.2095 37.3487 20.03 37.2997 19.9484C37.2345 19.8178 36.8101 19.8178 36.6306 19.8178H36.5817C36.0921 19.8178 35.5698 19.8994 35.1129 20.0137C34.9497 20.0463 34.558 20.1279 34.558 20.1279L34.4601 20.03C34.4601 20.03 34.4274 19.7362 34.4111 19.622C34.3948 19.4425 34.4111 19.2629 34.3785 19.0997C34.3458 18.8223 34.2642 18.5612 34.2479 18.3001V17.0597C34.2479 17.0108 34.2969 16.6028 34.3295 16.4722C34.3458 16.1785 34.4927 15.901 34.5417 15.6073C34.558 15.3625 34.6559 14.7423 34.6559 14.726V13.6652C34.6559 13.6325 34.6722 13.4204 34.6722 13.4041C34.6885 13.3225 34.6559 13.2898 34.7212 13.2409V12.8655C34.7212 12.5881 34.7212 12.3759 34.6722 12.0985C34.6233 12.0332 34.6559 11.87 34.6233 11.821C34.5417 11.6089 34.2479 11.3641 34.0357 11.2825C33.9705 11.2498 33.7909 11.2498 33.742 11.1519C33.3177 11.0377 32.9097 11.054 32.4853 10.9724H32.469C32.3711 10.9724 32.2569 11.0866 32.2079 11.1519V11.462C32.2079 11.5436 32.11 11.6089 32.0937 11.6741V11.7068C32.0937 11.7231 32.1263 11.7721 32.1426 11.7721L32.1753 12.0005V13.3714C32.2079 13.502 32.2079 13.5673 32.2079 13.6978V13.8447C32.2079 13.8447 32.1916 13.8773 32.1753 13.8773V13.91C32.1916 13.91 32.2079 13.9263 32.2079 13.9263V14.269H32.2405C32.2405 14.6933 32.2569 15.1177 32.2732 15.542C32.2895 15.8684 32.3548 16.2274 32.3221 16.5538L32.3548 16.5865C32.3221 17.0597 32.4527 17.5004 32.5017 17.9573C32.5669 18.4469 32.6159 18.9529 32.6322 19.4588C32.6322 19.7036 32.7138 20.7644 32.7138 21.0092C32.8117 21.1397 32.8117 21.254 32.9586 21.3519ZM38.3233 20.6665C38.3233 20.9276 38.4212 21.205 38.4865 21.4661C38.4865 21.4988 38.7803 21.7109 38.8292 21.7109C38.9435 21.7109 39.0251 21.662 39.1393 21.6293C39.6779 21.1887 40.0206 20.2585 40.1675 19.622C40.2164 19.4425 40.1838 19.3935 40.3307 19.2793C40.3633 19.2629 40.6244 19.2466 40.7387 19.2466L41.6689 19.0997C41.8321 19.0997 41.9953 19.0508 42.1422 19.0508C42.1585 19.0508 42.2564 19.0508 42.2564 19.0508L42.2891 19.0997C42.3054 19.0997 42.3707 19.3282 42.387 19.4098C42.4196 19.5567 42.5828 20.3074 42.5992 20.4706V20.5033C42.6318 20.5522 42.7134 20.8133 42.746 20.8786C42.7787 20.8949 42.7787 20.9602 42.795 21.0092C42.9256 21.254 43.1051 21.3356 43.3988 21.4009C43.3988 21.4009 43.4641 21.3682 43.4804 21.3682L43.562 21.4009C43.562 21.4009 43.5784 21.4009 43.5947 21.4009C43.6436 21.4009 44.1985 21.1887 44.1985 21.1724C44.2801 21.0745 44.2801 20.9929 44.3944 20.9113C44.3944 20.8949 44.4433 20.846 44.4596 20.846C44.5576 20.6828 44.5739 20.5033 44.5739 20.3401C44.5739 19.9321 44.3944 19.4425 44.3291 19.0997C44.2638 19.0181 44.2312 18.7897 44.2312 18.6917C44.2312 18.4469 44.5576 18.4143 44.5576 17.99C44.5576 17.7615 44.3128 17.533 44.1006 17.533C44.1006 17.3861 44.019 17.2393 43.9864 17.0924C43.9374 16.9455 43.8068 16.6191 43.7579 16.4069C43.7252 16.1785 43.6926 15.901 43.611 15.6889C43.5947 15.6725 43.5457 15.5746 43.5457 15.5583C43.5457 15.542 43.5457 15.3135 43.5457 15.2809C43.5294 15.1829 43.4152 14.726 43.3988 14.6281C43.3988 14.6281 43.4152 14.4812 43.3499 14.4649C43.2846 14.1548 43.252 13.8121 43.203 13.4857C43.154 13.2572 43.0398 12.9797 43.0072 12.7513C42.9908 12.686 42.9908 12.6044 42.9745 12.5391C42.8603 11.5109 42.7297 10.3685 41.3752 10.3685C41.2772 10.3685 41.0977 10.3522 40.9835 10.4012C40.4286 10.7765 40.2164 11.7884 40.0369 12.4085C40.0532 12.4249 40.0532 12.4575 40.0369 12.4738C40.0369 12.5065 39.939 12.8329 39.9227 12.9308C39.8574 13.1593 39.8574 13.5346 39.6942 13.7468C39.6126 14.2527 39.4984 14.7586 39.3841 15.2645C39.3678 15.2972 39.3678 15.3461 39.3515 15.3788C39.3352 15.4767 39.2862 15.3951 39.3352 15.5257C39.1883 16.2437 38.9272 16.8965 38.7966 17.6146C38.7803 17.7615 38.7803 17.941 38.6987 18.0553C38.6171 18.2021 38.0785 18.3653 38.0785 18.5122C38.0785 18.6101 38.1275 18.6101 38.1275 18.7081C38.1438 18.7407 38.1275 18.9692 38.1275 19.0018C38.1764 19.1813 38.307 19.1161 38.4539 19.1487C38.5028 19.165 38.4865 19.2303 38.4865 19.2629C38.4865 19.2793 38.4865 19.3445 38.4865 19.3445C38.4702 19.3609 38.4212 19.622 38.4212 19.6546C38.3723 19.981 38.3233 20.3237 38.3233 20.6665ZM40.6734 17.6799C40.6734 17.0434 40.9508 16.4396 41.0488 15.8031C41.0488 15.7378 41.0977 15.2482 41.0977 15.1829C41.114 15.1503 41.163 14.8076 41.1793 14.7749C41.212 14.4322 41.1793 14.0569 41.2936 13.7141L41.3262 13.6815C41.3425 13.6978 41.3425 13.7631 41.3588 13.7794C41.5547 14.6933 41.6689 15.6399 41.7995 16.5538C41.8321 16.8639 41.9464 17.174 41.9464 17.4841V17.5004C41.9464 17.5167 41.9137 17.5493 41.8974 17.5493C41.7668 17.582 41.2609 17.6636 41.1467 17.6962C41.0161 17.6962 40.9182 17.7452 40.804 17.7452C40.755 17.7452 40.6734 17.7452 40.6734 17.6799ZM45.6821 20.797C45.9269 20.797 46.1391 20.9276 46.3839 20.9276H46.4981C46.5144 20.9276 46.6287 20.8786 46.6287 20.8623C47.4447 20.6338 47.8853 20.4217 48.5707 19.8341C48.5871 19.8178 48.636 19.7362 48.636 19.7362L48.9461 19.3282C49.0767 19.1813 49.2725 19.0018 49.3215 18.806C49.3704 18.5938 49.3051 18.4306 49.4847 18.2674V18.0226C49.4847 17.6473 49.4031 17.3698 49.1909 17.0434C49.1909 17.0271 49.1746 16.9945 49.1746 16.9781C48.4565 16.1785 47.6405 15.95 46.8898 15.2972C46.645 15.085 46.4491 14.7913 46.2859 14.5138C46.3023 14.4649 46.2207 14.2527 46.2207 14.1548C46.2207 13.7957 46.3839 13.4204 46.4981 13.094C46.6613 12.9797 46.6613 12.7023 46.7919 12.5391L46.9714 12.3596C47.1672 12.0985 47.3304 11.8863 47.5589 11.6578L48.0975 11.5436C48.2443 11.4946 48.4239 11.3804 48.5055 11.3477H48.9787C49.2399 11.3477 49.2888 11.0213 49.2888 10.8418C49.2888 10.2053 48.6034 10.0911 48.1138 10.0911C47.1183 10.0911 46.5634 10.4828 45.9432 11.2172C45.9432 11.2335 45.9269 11.2825 45.9106 11.2825C45.7147 11.4783 45.5679 11.6741 45.3883 11.9353C44.9477 12.5881 44.5887 13.2572 44.5887 14.0732C44.5887 14.3833 44.6703 14.5954 44.7192 14.8729C44.9477 15.2482 45.0946 15.5909 45.3883 15.9173C45.5842 16.1295 45.8779 16.309 46.0738 16.5375L46.9714 17.2229C47.2978 17.4677 47.5099 17.7452 47.5099 18.1369C47.5099 18.5612 47.0693 18.8223 46.7266 19.0181L46.1064 19.3282C46.0411 19.3609 45.6495 19.4914 45.6005 19.5241C45.5842 19.5241 45.5352 19.5404 45.5352 19.5404C45.372 19.7199 45.4047 19.9484 45.3394 20.1442C45.3394 20.1769 45.2578 20.3074 45.2578 20.3401C45.2578 20.3401 45.2415 20.3727 45.2415 20.389C45.2415 20.5359 45.372 20.8786 45.5189 20.8786C45.6005 20.8786 45.6005 20.797 45.6821 20.797Z" fill="#FBFBFB"/>
</svg>
