<svg width="280" height="231" viewBox="0 0 280 231" fill="none" xmlns="http://www.w3.org/2000/svg">
<path d="M211.771 247.509C226.17 203.138 226.355 180.027 212.325 178.179C191.277 175.404 174.621 217.011 182.394 243.351C187.576 260.914 197.37 262.3 211.771 247.509Z" fill="#3D1B1F"/>
<path d="M225.035 67.4467C213.857 122.24 212.737 155.239 221.675 166.442C234.015 181.916 252.856 179.069 257.341 172.083C268.606 154.538 255.286 103.494 253.95 93.4589C252.615 83.4236 246.935 54.9912 243.929 50.4766C241.925 47.466 235.628 53.1227 225.035 67.4467Z" fill="#3D1B1F"/>
<path d="M227.88 106.199C213.87 98.7383 200.83 102.924 188.758 118.758C178.847 132.558 173.68 142.265 173.255 147.883C172.642 155.97 181.61 173.343 181.318 191.522C181.123 203.644 204.331 203.267 250.944 190.39C251.157 145.121 243.468 117.058 227.88 106.199Z" fill="#48416B"/>
<path d="M187.413 42.1225C187.413 50.1122 193.882 56.5902 201.86 56.5902C209.839 56.5902 216.305 50.1122 216.305 42.1225C216.305 34.1327 209.839 27.6547 201.86 27.6547C193.882 27.6547 187.413 34.1327 187.413 42.1225Z" fill="#3D1B1F"/>
<path d="M188.791 68.0833C188.525 68.7069 188.048 69.1638 187.635 69.5975C187.169 70.0878 186.779 70.5343 186.879 71.1452C187.005 71.91 187.387 72.8006 188.025 73.8195C186.623 74.3303 185.985 75.4159 186.11 77.0714C186.239 78.7345 186.813 79.3736 187.835 78.986C187.828 79.0014 187.82 79.0245 187.812 79.0528C187.612 79.6995 186.077 84.8455 188.402 86.4496C190.063 87.5994 194.968 88.2385 203.116 88.3643C206.45 95.4634 206.612 101.757 203.595 107.241C202.552 109.141 198.933 113.419 196.939 115.778C194.276 118.929 230.299 112.333 228.73 106.115C224.686 90.0659 223.922 66.9899 226.439 36.8867C215.608 34.0814 207.514 34.0173 202.16 36.6967C194.14 40.7186 193.184 48.7493 192.997 51.4314C192.795 54.1058 193.953 56.6005 190.316 58.705C186.69 60.8096 183.432 61.767 185.154 63.484C186.879 65.2087 189.36 66.7461 188.791 68.0833Z" fill="#E2887F"/>
<path d="M203.152 58.3149C199.938 58.3149 197.426 57.3242 195.612 55.3428C195.035 56.0846 195.365 56.9521 196.601 57.9428L196.972 61.038L199.938 58.9335C201.834 58.8513 202.906 58.6434 203.152 58.3149Z" fill="#7E373F"/>
<path d="M186.111 77.0714C186.239 78.7345 186.813 79.3736 187.835 78.986C187.828 79.0014 187.82 79.0245 187.812 79.0528C190.052 78.927 192.387 77.2664 194.82 74.0736C191.506 73.9068 188.192 70.2443 187.636 69.5975C187.169 70.0877 186.779 70.5343 186.879 71.1452C187.005 71.91 187.387 72.8006 188.025 73.8195C186.623 74.3303 185.985 75.4159 186.111 77.0714Z" fill="#D14B1D"/>
<path d="M209.721 32.9752C204.031 40.4285 204.031 46.7089 209.721 51.8241C218.256 59.4955 220.606 64.1744 221.042 73.5988C241.071 71.063 248.532 63.0015 243.424 49.4141C235.766 29.0304 218.038 28.8122 209.721 32.9752Z" fill="#3D1B1F"/>
<path d="M220.69 67.2697C221.7 62.5831 224.225 60.6069 228.261 61.3409C234.318 62.4445 233.631 73.8863 226.06 76.0909C218.489 78.2982 220.004 67.9575 220.69 67.2697Z" fill="#E2887F"/>
<path d="M204.818 54.3804C202.106 50.9155 199.213 49.7323 196.137 50.8308C195.886 49.8427 196.06 49.1292 196.665 48.6877C197.57 48.0281 203.006 48.1924 204.818 54.3804Z" fill="#3D1B1F"/>
<path d="M229.83 66.5048C226.677 64.9828 224.178 66.125 222.331 69.9337C222.735 64.698 225.237 63.5558 229.83 66.5048Z" fill="#7E373F"/>
<path d="M223.807 67.1054C226.688 69.0303 226.767 70.8449 224.04 72.5517C227.262 71.8381 227.695 69.8516 225.34 66.5921L223.807 67.1054Z" fill="#7E373F"/>
<path d="M242.158 227.834C242.747 226.948 244.611 124.522 229.325 119.812C214.039 115.103 211.394 138.063 211.689 144.834C211.83 148.086 213.391 171.108 212.045 190.293C210.592 211.028 206.204 228.003 205.899 230.909C205.507 234.638 217.594 233.614 242.158 227.834Z" fill="#5E558C"/>
<path d="M224.525 73.278L228.828 88.6645L218.622 88.721L224.525 73.278Z" fill="#FAE0C8"/>
<path d="M139.09 181.99L88.2734 188.068L92.8227 242.751L159.432 240.202L139.09 181.99Z" fill="#52211D"/>
<path d="M54.9313 136.475C36.8622 127.977 23.2245 133.656 14.0183 153.511C6.52151 165.164 2.12852 173.895 0.83934 179.708C-1.09572 188.424 7.09048 208.115 6.76755 228.134C6.55225 241.48 27.7918 241.375 70.4861 227.816C75.7069 175.378 70.522 144.931 54.9313 136.475Z" fill="#48416B"/>
<path d="M12.3266 91.9113C12.0703 92.6145 11.5038 93.1021 11.0528 93.5795C10.5376 94.1211 10.1096 94.6113 10.2198 95.2863C10.3582 96.1281 10.7785 97.1085 11.4808 98.2276C9.93786 98.7922 9.23561 99.9857 9.37401 101.81C9.51241 103.64 10.1455 104.344 11.2732 103.918C11.2655 103.936 11.2552 103.959 11.2475 103.992C11.0271 104.703 12.265 110.557 14.8255 112.323C16.6529 113.588 21.0792 114.23 28.0992 114.245C31.6438 122.741 31.6105 130.518 27.9993 137.573C27.3124 138.918 18.8366 148.301 20.8331 148.802C23.0655 149.361 30.5725 143.648 39.9608 141.166C45.1354 139.798 50.8458 139.085 57.0918 139.026C54.4801 127.327 53.1217 119.771 53.0141 116.358C52.7014 106.389 52.9551 86.791 53.7804 57.5629C41.8522 54.4702 32.9407 54.4009 27.0458 57.3525C18.2163 61.7798 15.925 68.7685 15.7149 71.7252C15.497 74.6691 17.9549 80.893 13.9515 83.2106C9.95837 85.5308 9.50214 85.7412 9.5739 87.8458C9.65079 90.0505 12.6136 91.1182 12.3266 91.9113Z" fill="#8E3A32"/>
<path d="M28.1379 81.1548C24.5984 81.1548 21.8329 80.064 19.8363 77.885C19.2007 78.7011 19.5621 79.6559 20.9231 80.7467L21.3331 84.1551L24.5984 81.8375C26.6873 81.7451 27.8663 81.5192 28.1379 81.1548Z" fill="#52211D"/>
<path d="M9.37427 101.81C9.51268 103.64 10.1457 104.344 11.2734 103.918C11.2657 103.936 11.2555 103.959 11.2478 103.992C13.7134 103.853 16.2866 102.026 18.9624 98.5099C15.3153 98.3277 11.6656 94.2905 11.053 93.5795C10.5379 94.1211 10.1098 94.6113 10.22 95.2863C10.3584 96.1281 10.7788 97.1086 11.481 98.2276C9.93812 98.7922 9.23587 99.9857 9.37427 101.81Z" fill="#692B25"/>
<path d="M47.45 91.0155C48.5624 85.8567 51.3407 83.6803 55.7874 84.4887C62.4563 85.7053 61.6977 98.302 53.3629 100.733C45.0254 103.161 46.6914 91.7752 47.45 91.0155Z" fill="#8E3A32"/>
<path d="M29.9729 76.8224C26.987 73.0085 23.7986 71.7073 20.4129 72.9161C20.1361 71.8279 20.3283 71.04 20.9947 70.5574C21.9917 69.8311 27.9763 70.0108 29.9729 76.8224Z" fill="#52211D"/>
<path d="M57.5122 90.1763C54.0419 88.4977 51.2892 89.7553 49.2568 93.9517C49.7027 88.1846 52.4554 86.927 57.5122 90.1763Z" fill="#52211D"/>
<path d="M50.8818 90.8359C54.0547 92.9558 54.1393 94.9552 51.1381 96.8339C54.6878 96.0486 55.1645 93.8593 52.5708 90.2712L50.8818 90.8359Z" fill="#52211D"/>
<path d="M52.7886 101.215C52.7886 102.829 51.4814 104.138 49.8693 104.138C48.2572 104.138 46.9501 102.829 46.9501 101.215C46.9501 99.6007 48.2572 98.2917 49.8693 98.2917C51.4814 98.2917 52.7886 99.6007 52.7886 101.215Z" fill="#FAE0C8"/>
<path d="M42.1831 73.3114C39.7764 71.9947 35.2092 70.3855 28.4762 68.4811C18.3883 65.6245 15.7125 68.8276 16.1944 66.1737C16.6762 63.5199 24.9316 46.9476 50.3411 52.0114L42.1831 73.3114Z" fill="#E0656E"/>
<path d="M12.1064 155.285C32.9077 160.115 51.21 157.864 67.0083 148.527C61.521 130.825 58.7786 120.031 58.7786 116.137C58.7786 115.855 58.8401 115.536 58.9375 115.169C59.0349 114.826 59.1809 114.433 59.3655 114.004C63.0152 105.455 81.9967 81.799 65.6243 60.766C55.2134 47.3993 41.9833 45.3461 25.9312 54.6114C40.7171 62.483 45.7637 76.8532 41.0683 97.7168C38.2028 110.447 27.6459 114.679 27.6228 114.972C27.4024 117.5 27.0231 119.977 26.5207 122.392C26.4208 122.869 26.3234 123.349 26.2003 123.826C25.6749 126.157 25.0367 128.426 24.3268 130.61C24.1448 131.172 23.9603 131.724 23.7757 132.276C20.6668 141.212 16.7762 148.881 12.1064 155.285Z" fill="#F397B4"/>
<path d="M60.1804 125.559C40.3121 129.65 27.5945 131.924 22.0328 132.378C14.3592 146.43 11.0504 154.063 12.1063 155.28C13.6877 157.107 55.7516 140.566 60.1804 125.559Z" fill="#F397B4"/>
<path d="M23.7755 132.276C34.676 132.217 51.4174 126.819 52.458 126.475C38.3872 130.279 27.6944 130.62 24.3266 130.61C24.1446 131.172 23.9601 131.724 23.7755 132.276Z" fill="#E384A2"/>
<path d="M26.2003 123.826C44.8051 121.46 54.2472 117.854 58.9375 115.169C59.0349 114.826 59.1809 114.433 59.3655 114.004C48.6496 119.669 34.2481 121.681 26.5207 122.392C26.4208 122.869 26.3234 123.349 26.2003 123.826Z" fill="#E384A2"/>
<path d="M138.27 79.7714C118.542 73.8452 104.405 80.0999 95.8572 98.5381C88.8961 109.356 84.8158 117.467 83.6189 122.861C81.8223 130.959 85.4464 164.229 85.1465 182.819C84.9466 195.213 107.901 198.732 154.006 193.38C157.992 125.492 152.745 87.6225 138.27 79.7714Z" fill="#B14762"/>
<path d="M92.8739 14.7937C92.8739 22.9631 99.4864 29.5874 107.647 29.5874C115.805 29.5874 122.417 22.9631 122.417 14.7937C122.417 6.6243 115.805 0 107.647 0C99.4864 0 92.8739 6.6243 92.8739 14.7937Z" fill="#FAE0C8"/>
<path d="M94.2836 41.3371C94.0119 41.9762 93.5224 42.4433 93.102 42.8873C92.6253 43.3878 92.2255 43.8421 92.328 44.4683C92.4562 45.2511 92.8483 46.1623 93.4993 47.2017C92.0666 47.7253 91.4156 48.8341 91.5437 50.528C91.6719 52.2296 92.2614 52.8815 93.3071 52.4863C93.2994 52.5017 93.2917 52.5248 93.284 52.5556C93.079 53.2152 91.5104 58.4766 93.8863 60.1167C95.5856 61.2922 100.599 61.9466 108.931 62.075C111.225 65.7503 111.225 73.0573 108.931 83.996C108.034 88.2745 116.764 88.2745 135.122 83.996L132.78 9.43984C121.702 6.57042 113.427 6.50626 107.955 9.24735C99.7556 13.3564 98.7765 21.5694 98.5843 24.3131C98.3792 27.0465 99.5608 29.5976 95.8419 31.7484C92.1358 33.9018 88.8039 34.8796 90.5647 36.6352C92.328 38.401 94.8654 39.9717 94.2836 41.3371Z" fill="#E2887F"/>
<path d="M108.967 31.348C105.681 31.348 103.111 30.3368 101.258 28.3118C100.668 29.0715 101.006 29.9569 102.27 30.9682L102.649 34.1327L105.681 31.982C107.619 31.8973 108.716 31.6868 108.967 31.348Z" fill="#7E373F"/>
<path d="M91.5437 50.528C91.6718 52.2296 92.2613 52.8815 93.307 52.4863C93.2993 52.5017 93.2916 52.5248 93.284 52.5556C95.5727 52.4272 97.9614 50.7282 100.448 47.4635C97.0592 47.2941 93.671 43.5469 93.102 42.8873C92.6253 43.3878 92.2254 43.8421 92.328 44.4683C92.4561 45.2511 92.8483 46.1622 93.4992 47.2017C92.0665 47.7253 91.4155 48.834 91.5437 50.528Z" fill="#D14B1D"/>
<path d="M115.685 5.44111C109.864 13.0612 109.864 19.4854 115.685 24.7134C124.412 32.5569 126.813 37.3435 127.262 46.9784C147.74 44.3862 155.368 36.1424 150.147 22.247C142.314 1.40647 124.189 1.18318 115.685 5.44111Z" fill="#FAE0C8"/>
<path d="M135.976 41.9762C124.04 67.9293 122.641 86.637 131.78 98.0915C144.398 113.912 163.764 106.951 167.349 99.2542C170.935 91.5596 162.275 77.5462 160.909 67.2851C159.543 57.0239 153.737 27.9525 150.662 23.3352C148.614 20.2553 143.716 26.469 135.976 41.9762Z" fill="#FAE0C8"/>
<path d="M126.9 40.5055C127.933 35.7138 130.514 33.6939 134.643 34.4459C140.835 35.5726 140.131 47.271 132.39 49.527C124.65 51.783 126.198 41.2113 126.9 40.5055Z" fill="#E2887F"/>
<path d="M110.671 27.3262C107.898 23.7844 104.941 22.5755 101.796 23.6997C101.537 22.6884 101.716 21.957 102.334 21.5078C103.259 20.8328 108.818 21.0022 110.671 27.3262Z" fill="#FAE0C8"/>
<path d="M136.245 39.7253C133.023 38.1674 130.468 39.3352 128.577 43.2312C128.992 37.8774 131.55 36.707 136.245 39.7253Z" fill="#7E373F"/>
<path d="M130.086 40.3387C133.034 42.3047 133.113 44.1629 130.324 45.9082C133.62 45.1767 134.064 43.1465 131.655 39.8151L130.086 40.3387Z" fill="#7E373F"/>
<path d="M89.0625 170.302C72.7516 162.63 60.439 167.756 52.1272 185.681C45.3609 196.201 41.3934 204.083 40.2298 209.329C38.4844 217.201 44.0128 221.282 43.7232 239.353C43.5284 251.403 63.3224 255.871 103.105 252.763C107.819 205.42 103.138 177.935 89.0625 170.302Z" fill="#FAE0C8"/>
<path d="M59.0756 104.226C59.0756 112.169 70.2811 120.739 78.211 120.739C86.1434 120.739 92.574 114.299 92.574 106.356C92.574 98.4149 87.9657 91.0181 80.0332 91.0181C72.1033 91.0181 59.0756 96.2847 59.0756 104.226Z" fill="#52211D"/>
<path d="M50.5999 130.071C50.3692 130.705 49.8592 131.144 49.4491 131.578C48.9852 132.063 48.5982 132.507 48.6981 133.115C48.8237 133.877 49.2031 134.763 49.8361 135.774C48.4444 136.282 47.8088 137.36 47.9344 139.005C48.06 140.658 48.6315 141.295 49.649 140.91C49.6413 140.925 49.6336 140.948 49.6259 140.976C49.4286 141.618 50.5461 146.902 52.8553 148.496C54.5059 149.641 58.5016 150.218 64.8399 150.231C68.0385 157.903 68.0077 164.922 64.7502 171.293C64.1299 172.507 56.4768 180.976 58.2786 181.428C60.2957 181.934 67.0723 176.775 75.5481 174.537C80.2204 173.302 85.3746 172.658 91.0132 172.601C88.6552 162.043 87.4301 155.221 87.3327 152.138C87.0482 143.142 87.2789 125.449 88.0247 99.0591C77.255 96.2693 69.2098 96.2077 63.889 98.8718C55.9181 102.868 53.8498 109.179 53.6601 111.846C53.4628 114.502 55.6823 120.123 52.0685 122.217C48.4624 124.309 48.0497 124.499 48.1164 126.398C48.183 128.39 50.8588 129.352 50.5999 130.071Z" fill="#8E3A32"/>
<path d="M64.8757 120.359C61.6797 120.359 59.1808 119.376 57.379 117.408C56.8049 118.144 57.1329 119.006 58.3632 119.989L58.7297 123.067L61.6797 120.975C63.5635 120.893 64.6297 120.688 64.8757 120.359Z" fill="#52211D"/>
<path d="M47.9345 139.005C48.0601 140.658 48.6316 141.295 49.6491 140.91C49.6414 140.925 49.6337 140.948 49.626 140.976C51.8533 140.851 54.1754 139.2 56.5923 136.028C53.2963 135.861 50.0028 132.219 49.4492 131.578C48.9853 132.063 48.5983 132.507 48.6982 133.115C48.8238 133.877 49.2031 134.763 49.8362 135.774C48.4445 136.282 47.8089 137.36 47.9345 139.005Z" fill="#692B25"/>
<path d="M71.4037 95.1708C65.7472 102.58 65.7472 108.825 71.4037 113.909C79.8898 121.535 86.7535 133.869 87.3327 146.056C104.125 136.534 109.984 125.02 104.91 111.512C97.2951 91.2491 79.672 91.0335 71.4037 95.1708Z" fill="#52211D"/>
<path d="M82.3091 129.262C83.3138 124.604 85.8204 122.638 89.8366 123.37C95.8571 124.466 95.1728 135.841 87.6452 138.032C80.1203 140.224 81.6248 129.948 82.3091 129.262Z" fill="#8E3A32"/>
<path d="M66.5315 116.448C63.8352 113.006 60.9595 111.83 57.9019 112.921C57.6507 111.938 57.825 111.23 58.4247 110.791C59.3269 110.136 64.7297 110.301 66.5315 116.448Z" fill="#52211D"/>
<path d="M91.3953 128.503C88.2607 126.988 85.7772 128.125 83.9395 131.911C84.3419 126.706 86.828 125.569 91.3953 128.503Z" fill="#52211D"/>
<path d="M85.408 129.098C88.2734 131.013 88.3503 132.817 85.6387 134.514C88.8424 133.805 89.273 131.829 86.933 128.59L85.408 129.098Z" fill="#52211D"/>
<path d="M85.8617 102.093C85.8617 111.527 93.4994 119.176 102.921 119.176C112.343 119.176 119.98 111.527 119.98 102.093C119.98 92.6581 112.343 85.0098 102.921 85.0098C93.4994 85.0098 85.8617 92.6581 85.8617 102.093Z" fill="#52211D"/>
<path d="M94.804 92.6196C94.804 95.0887 92.8048 97.0906 90.3392 97.0906C87.8736 97.0906 85.8745 95.0887 85.8745 92.6196C85.8745 90.1506 87.8736 88.1487 90.3392 88.1487C92.8048 88.1487 94.804 90.1506 94.804 92.6196Z" fill="#52211D"/>
<path d="M97.2874 88.662C97.2874 90.7281 95.6163 92.4015 93.5556 92.4015C91.4924 92.4015 89.8214 90.7281 89.8214 88.662C89.8214 86.5985 91.4924 84.9251 93.5556 84.9251C95.6163 84.9251 97.2874 86.5985 97.2874 88.662Z" fill="#52211D"/>
<path d="M98.0205 87.1246C98.0205 89.7964 100.181 91.9626 102.849 91.9626C105.517 91.9626 107.68 89.7964 107.68 87.1246C107.68 84.4528 105.517 82.2866 102.849 82.2866C100.181 82.2866 98.0205 84.4528 98.0205 87.1246Z" fill="#52211D"/>
<path d="M100.655 86.098C100.655 87.7175 99.3428 89.029 97.7255 89.029C96.1108 89.029 94.7986 87.7175 94.7986 86.098C94.7986 84.4785 96.1108 83.167 97.7255 83.167C99.3428 83.167 100.655 84.4785 100.655 86.098Z" fill="#52211D"/>
<path d="M104.315 87.0502C104.315 89.763 106.509 91.9626 109.218 91.9626C111.927 91.9626 114.121 89.763 114.121 87.0502C114.121 84.3399 111.927 82.1403 109.218 82.1403C106.509 82.1403 104.315 84.3399 104.315 87.0502Z" fill="#52211D"/>
<path d="M110.315 95.9202C110.315 98.995 112.806 101.49 115.877 101.49C118.95 101.49 121.441 98.995 121.441 95.9202C121.441 92.8429 118.95 90.3482 115.877 90.3482C112.806 90.3482 110.315 92.8429 110.315 95.9202Z" fill="#52211D"/>
<path d="M110.023 90.7896C110.023 93.2176 111.989 95.1862 114.413 95.1862C116.841 95.1862 118.806 93.2176 118.806 90.7896C118.806 88.3591 116.841 86.3906 114.413 86.3906C111.989 86.3906 110.023 88.3591 110.023 90.7896Z" fill="#52211D"/>
<path d="M111.925 103.761C111.925 106.959 114.513 109.551 117.707 109.551C120.9 109.551 123.489 106.959 123.489 103.761C123.489 100.563 120.9 97.9709 117.707 97.9709C114.513 97.9709 111.925 100.563 111.925 103.761Z" fill="#52211D"/>
<path d="M108.119 110.799C108.119 107.519 110.774 104.86 114.049 104.86C117.322 104.86 119.978 107.519 119.978 110.799C119.978 114.076 117.322 116.735 114.049 116.735C110.774 116.735 108.119 114.076 108.119 110.799Z" fill="#52211D"/>
<path d="M103.582 116.222C103.582 113.591 105.712 111.458 108.339 111.458C110.966 111.458 113.096 113.591 113.096 116.222C113.096 118.852 110.966 120.985 108.339 120.985C105.712 120.985 103.582 118.852 103.582 116.222Z" fill="#52211D"/>
<path d="M87.1277 138.469C87.1277 139.927 85.9487 141.107 84.4929 141.107C83.0372 141.107 81.8582 139.927 81.8582 138.469C81.8582 137.011 83.0372 135.83 84.4929 135.83C85.9487 135.83 87.1277 137.011 87.1277 138.469Z" fill="#FAE0C8"/>
<path d="M164.345 117.436C164.345 128.829 173.567 138.063 184.944 138.063C196.319 138.063 203.298 129.504 203.298 118.111C203.298 106.718 191.526 101.646 180.149 101.646C168.772 101.646 164.345 106.043 164.345 117.436Z" fill="#D14B1D"/>
<path d="M178.012 152.41C158.999 146.697 145.374 152.726 137.134 170.497C130.427 180.925 126.495 188.738 125.339 193.94C123.609 201.742 129.092 205.787 128.802 223.702C128.61 235.647 148.232 240.077 187.669 236.994C195.184 188.17 191.962 159.977 178.012 152.41Z" fill="#7E373F"/>
<path d="M134.261 89.7861C134.261 97.6604 140.635 104.043 148.496 104.043C156.359 104.043 162.733 97.6604 162.733 89.7861C162.733 81.9145 156.359 75.5314 148.496 75.5314C140.635 75.5314 134.261 81.9145 134.261 89.7861Z" fill="#D14B1D"/>
<path d="M135.62 115.37C135.356 115.983 134.884 116.435 134.479 116.861C134.02 117.346 133.636 117.785 133.733 118.388C133.859 119.14 134.236 120.02 134.863 121.021C133.482 121.527 132.854 122.595 132.977 124.227C133.103 125.864 133.669 126.493 134.676 126.113C134.669 126.129 134.664 126.149 134.656 126.18C134.458 126.817 132.946 131.888 135.235 133.467C136.873 134.601 141.707 135.23 149.737 135.356C152.556 138.243 152.576 144.893 149.801 155.3C149.021 158.221 143.977 163.444 144.516 163.85C149.424 167.535 178.378 160.087 176.151 155.028C169.682 140.342 168.539 116.876 172.719 84.6274C162.044 81.8606 154.068 81.799 148.793 84.44C140.892 88.4028 139.948 96.3155 139.761 98.9616C139.564 101.595 140.705 104.054 137.121 106.127C133.549 108.201 131.365 110.486 133.064 112.174C134.761 113.876 136.178 114.053 135.62 115.37Z" fill="#E2887F"/>
<path d="M149.77 105.742C146.604 105.742 144.126 104.767 142.34 102.814C141.771 103.545 142.096 104.4 143.314 105.375L143.68 108.425L146.604 106.353C148.47 106.271 149.526 106.068 149.77 105.742Z" fill="#7E373F"/>
<path d="M132.977 124.227C133.103 125.864 133.669 126.493 134.676 126.113C134.669 126.129 134.664 126.149 134.656 126.18C136.863 126.054 139.164 124.419 141.561 121.273C138.293 121.109 135.027 117.497 134.479 116.861C134.02 117.346 133.636 117.785 133.733 118.388C133.859 119.14 134.235 120.02 134.863 121.021C133.482 121.527 132.854 122.595 132.977 124.227Z" fill="#D14B1D"/>
<path d="M156.244 80.7724C150.636 88.1153 150.636 94.3084 156.244 99.3466C164.656 106.905 166.97 111.517 167.401 120.806C187.138 118.306 194.489 110.362 189.458 96.9725C181.91 76.8866 164.438 76.6684 156.244 80.7724Z" fill="#D14B1D"/>
<path d="M183.096 107.38C181.815 109.42 184.55 111.553 186.213 109.808C189.735 106.12 192.631 102.144 191.267 100.096C189.788 97.8734 186.262 102.344 183.096 107.38Z" fill="#FAE0C8"/>
<path d="M167.055 114.566C168.049 109.949 170.535 108.001 174.516 108.727C180.482 109.813 179.806 121.088 172.345 123.262C164.884 125.436 166.376 115.246 167.055 114.566Z" fill="#E2887F"/>
<path d="M151.413 101.864C148.739 98.4509 145.887 97.2857 142.857 98.3687C142.609 97.3934 142.783 96.6902 143.378 96.2565C144.27 95.6071 149.626 95.7688 151.413 101.864Z" fill="#D14B1D"/>
<path d="M176.059 113.814C172.955 112.313 170.492 113.44 168.669 117.192C169.069 112.033 171.532 110.906 176.059 113.814Z" fill="#7E373F"/>
<path d="M170.125 114.405C172.965 116.301 173.042 118.09 170.353 119.774C173.529 119.071 173.957 117.112 171.637 113.902L170.125 114.405Z" fill="#7E373F"/>
<path d="M176.038 151.52C161.724 151.769 149.816 157.205 140.315 167.833C173.385 172.773 188.563 172.096 185.846 165.792C183.132 159.491 179.862 154.733 176.038 151.52Z" fill="#7E373F"/>
<path d="M185.539 189.805C178.411 192.326 169.392 192.957 158.489 191.697C158.069 218.784 158.384 234.954 159.432 240.202C160.481 245.453 168.136 246.503 182.394 243.351C184.101 216.888 185.149 199.04 185.539 189.805Z" fill="#E2887F"/>
<path d="M262.388 199.866C246.074 192.195 233.762 197.323 225.453 215.248C218.684 225.765 214.719 233.65 213.553 238.896C211.807 246.765 217.338 250.846 217.046 268.92C216.851 280.967 236.645 285.438 276.428 282.327C281.141 234.987 276.461 207.499 262.388 199.866Z" fill="#F397B4"/>
<path d="M228.21 133.857C228.628 141.79 243.604 150.303 251.536 150.303C259.466 150.303 265.896 143.866 265.896 135.923C265.896 127.979 259.466 121.542 251.536 121.542C243.604 121.542 227.685 123.865 228.21 133.857Z" fill="#9C5937"/>
<path d="M223.922 159.638C223.694 160.272 223.182 160.711 222.774 161.142C222.308 161.629 221.921 162.073 222.021 162.682C222.146 163.441 222.525 164.327 223.161 165.338C221.767 165.849 221.134 166.927 221.259 168.572C221.385 170.225 221.954 170.859 222.971 170.476C222.964 170.492 222.959 170.512 222.951 170.543C222.751 171.185 223.868 176.469 226.178 178.063C227.831 179.205 231.824 179.785 238.162 179.798C241.361 187.467 241.333 194.489 238.073 200.859C237.452 202.071 229.799 210.543 231.604 210.995C233.618 211.5 240.397 206.342 248.87 204.101C253.543 202.866 258.7 202.222 264.338 202.168C261.98 191.609 260.753 184.788 260.655 181.705C260.373 172.707 260.604 155.015 261.347 128.626C250.58 125.836 242.535 125.772 237.211 128.439C229.24 132.435 227.172 138.743 226.985 141.413C226.785 144.069 229.007 149.69 225.391 151.781C221.787 153.873 221.372 154.066 221.439 155.965C221.508 157.957 224.184 158.919 223.922 159.638Z" fill="#E2887F"/>
<path d="M238.198 149.926C235.002 149.926 232.506 148.94 230.701 146.972C230.13 147.711 230.458 148.573 231.686 149.556L232.055 152.634L235.002 150.542C236.886 150.46 237.952 150.254 238.198 149.926Z" fill="#52211D"/>
<path d="M221.259 168.572C221.385 170.225 221.954 170.859 222.971 170.476C222.964 170.492 222.959 170.512 222.951 170.543C225.176 170.417 227.498 168.767 229.915 165.592C226.621 165.428 223.325 161.786 222.774 161.142C222.308 161.629 221.921 162.073 222.021 162.682C222.146 163.441 222.525 164.327 223.161 165.338C221.767 165.849 221.134 166.927 221.259 168.572Z" fill="#BF655C"/>
<path d="M244.726 124.738C239.07 132.145 239.07 138.392 244.726 143.474C253.212 151.099 260.076 163.436 260.655 175.62C277.45 166.1 283.309 154.587 278.232 141.079C270.617 120.816 252.994 120.598 244.726 124.738Z" fill="#9C5937"/>
<path d="M255.632 158.829C256.636 154.168 259.145 152.205 263.159 152.936C269.18 154.032 268.495 165.405 260.97 167.599C253.443 169.791 254.947 159.515 255.632 158.829Z" fill="#E2887F"/>
<path d="M239.854 146.014C237.158 142.57 234.282 141.395 231.224 142.488C230.973 141.505 231.148 140.794 231.75 140.358C232.649 139.701 238.052 139.865 239.854 146.014Z" fill="#9C5937"/>
<path d="M264.718 158.07C261.583 156.555 259.099 157.69 257.262 161.478C257.667 156.273 260.15 155.136 264.718 158.07Z" fill="#9C5937"/>
<path d="M258.73 158.665C261.596 160.577 261.673 162.381 258.961 164.081C262.165 163.37 262.598 161.396 260.255 158.157L258.73 158.665Z" fill="#9C5937"/>
<path d="M257.736 181.723C248.363 185.188 241.297 186.777 236.537 186.489C229.399 186.055 240.43 194.502 235.674 207.499C230.914 220.496 252.546 218.979 258.817 215.081C265.092 211.182 271.363 214.429 257.736 181.723Z" fill="#F397B4"/>
<path d="M278.914 153.704C276.241 171.814 270.579 184.41 261.929 191.497C260.514 196.378 257.605 199.45 253.202 200.711C248.799 201.971 246.046 203.072 244.946 204.016C244.631 206.852 242.509 208.977 238.577 210.394C234.646 211.811 231.657 213.466 229.615 215.355C231.816 216.929 230.243 219.292 224.896 222.442C219.55 225.591 216.484 228.268 215.698 230.472C217.112 223.386 219.706 218.032 223.481 214.411C227.413 207.797 230.401 204.332 232.444 204.016C235.589 198.347 239.521 195.749 244.239 196.222C245.81 190.552 248.878 187.01 253.438 185.593C255.483 176.931 258.628 171.657 262.875 169.765C267.119 167.876 272.465 162.523 278.914 153.704Z" fill="#9C5937"/>
<path d="M254.145 173.792H259.335C260.058 173.792 260.642 173.207 260.642 172.483V167.286C260.642 166.565 260.058 165.977 259.335 165.977H254.145C253.422 165.977 252.838 166.565 252.838 167.286V172.483C252.838 173.207 253.422 173.792 254.145 173.792Z" fill="#FAE0C8"/>
</svg>
