<svg width="282" height="264" viewBox="0 0 282 264" fill="none" xmlns="http://www.w3.org/2000/svg">
<g style="mix-blend-mode:multiply" opacity="0.2">
<g style="mix-blend-mode:multiply">
<g style="mix-blend-mode:soft-light">
<g style="mix-blend-mode:soft-light">
<path d="M39.5602 209.636C30.6359 201.923 19.7994 186.231 14.6332 175.637C9.90469 165.946 6.97434 154.971 8.82008 144.348C10.6658 133.725 18.0583 123.644 28.4857 120.82C35.7165 118.861 43.4895 120.487 50.3777 123.406C55.8388 125.717 62.0991 128.846 67.2938 125.993C71.6417 123.616 73.0117 118.128 73.7824 113.24C75.0763 104.947 75.8945 96.5306 78.4348 88.5325C80.9751 80.5344 85.4847 72.8216 92.5632 68.3043C100.165 63.4541 110.336 62.931 118.394 66.9823C126.053 70.8435 131.305 78.1473 138.069 83.4255C140.781 85.5463 144.006 87.4103 147.45 87.182C153.672 86.7731 157.25 80.2111 160.351 74.8188C169.827 58.328 185.554 45.5178 203.64 39.5644C208.064 38.0998 212.745 37.0347 217.369 37.6433C223.963 38.5183 229.661 42.7123 234.19 47.572C247.443 61.7898 252.629 83.0451 247.386 101.752C244.722 111.271 239.604 121.504 243.847 130.444C246.054 135.114 250.431 138.299 254.16 141.875C264.788 152.051 270.905 166.754 270.629 181.457C270.448 191.252 267.261 201.371 260.088 208.057" fill="#C8B2D8"/>
</g>
</g>
<g style="mix-blend-mode:multiply" opacity="0.502">
<g style="mix-blend-mode:multiply" opacity="0.502">
<g style="mix-blend-mode:multiply" opacity="0.502">
<path d="M34.5082 208.951C27.4106 202.275 21.1313 194.904 15.3277 187.077C9.01987 178.575 3.9108 168.827 2.37903 158.242C1.03754 148.96 2.88327 139.174 8.18263 131.357C10.799 127.505 14.2812 124.272 18.4103 122.104C23.0912 119.65 28.4001 118.632 33.6519 118.632C46.6101 118.623 58.4076 124.719 69.6247 130.53C70.7379 131.1 71.7178 129.426 70.6047 128.846C60.1677 123.435 49.3692 117.891 37.4575 116.854C26.9825 115.95 16.2696 118.908 9.15307 126.954C2.87376 134.058 -0.199297 143.749 0.010013 153.145C0.25738 164.139 4.68144 174.667 10.6468 183.758C13.9196 188.751 17.7158 193.459 21.5214 198.062C25.1177 202.417 29.028 206.459 33.1381 210.33C34.0515 211.186 35.4215 209.816 34.5082 208.951Z" fill="#C8B2D8"/>
</g>
</g>
</g>
<g style="mix-blend-mode:multiply" opacity="0.502">
<g style="mix-blend-mode:multiply" opacity="0.502">
<g style="mix-blend-mode:multiply" opacity="0.502">
<path d="M242.153 125.07C253.551 130.596 265.872 136.835 273.521 147.305C277.337 152.517 279.449 158.556 279.924 164.975C280.438 171.785 279.43 178.642 277.603 185.185C275.576 192.431 272.513 199.431 268.365 205.717C267.67 206.763 269.364 207.733 270.049 206.697C273.835 200.943 276.728 194.6 278.783 188.038C280.904 181.295 282.179 174.162 281.979 167.087C281.789 160.525 280.191 154.124 276.699 148.532C273.255 143.016 268.403 138.537 263.151 134.761C256.91 130.273 250.031 126.744 243.124 123.397C242.001 122.845 241.021 124.528 242.153 125.07Z" fill="#C8B2D8"/>
</g>
</g>
</g>
</g>
<g style="mix-blend-mode:multiply">
<g style="mix-blend-mode:soft-light">
<path d="M64.411 108.143C64.4015 104.567 61.4902 101.695 57.9129 101.704C54.3451 101.714 51.4528 104.624 51.4718 108.19C51.4813 111.756 54.3927 114.638 57.9605 114.619C61.5378 114.609 64.4205 111.709 64.411 108.143Z" fill="#C8B2D8"/>
</g>
<g style="mix-blend-mode:soft-light">
<path d="M50.0732 79.7736C50.0637 78.347 48.903 77.1963 47.4664 77.1963C46.0393 77.2058 44.8881 78.366 44.8881 79.7926C44.8976 81.2191 46.0583 82.3699 47.4949 82.3699C48.922 82.3603 50.0732 81.2001 50.0732 79.7736Z" fill="#C8B2D8"/>
</g>
<g style="mix-blend-mode:soft-light">
<path d="M26.2024 99.8875C26.1928 96.6731 23.5765 94.0768 20.3607 94.0958C17.1449 94.1053 14.5476 96.7206 14.5571 99.9256C14.5666 103.14 17.183 105.736 20.3988 105.717C23.6145 105.708 26.2119 103.092 26.2024 99.8875Z" fill="#C8B2D8"/>
</g>
<g style="mix-blend-mode:soft-light">
<path d="M261.125 111.282C261.115 108.419 258.794 106.117 255.93 106.127C253.076 106.136 250.764 108.466 250.773 111.32C250.783 114.173 253.114 116.474 255.968 116.465C258.832 116.455 261.144 114.135 261.125 111.282Z" fill="#C8B2D8"/>
</g>
<g style="mix-blend-mode:soft-light">
<path d="M165.641 12.1661C165.632 10.7396 164.471 9.58887 163.044 9.58887C161.607 9.59838 160.456 10.7586 160.465 12.1852C160.465 13.6117 161.626 14.7624 163.063 14.7624C164.49 14.7529 165.641 13.5927 165.641 12.1661Z" fill="#C8B2D8"/>
</g>
<g style="mix-blend-mode:soft-light">
<path d="M260.107 10.5202C260.097 8.73224 258.641 7.2962 256.853 7.30571C255.064 7.30571 253.628 8.76077 253.628 10.5392C253.637 12.3271 255.093 13.7631 256.881 13.7631C258.67 13.7536 260.107 12.2986 260.107 10.5202Z" fill="#C8B2D8"/>
</g>
<g style="mix-blend-mode:soft-light">
<path d="M266.005 32.4601C266.005 31.0335 264.845 29.8828 263.408 29.8828C261.981 29.8923 260.83 31.0526 260.83 32.4791C260.839 33.9056 262 35.0564 263.427 35.0469C264.864 35.0469 266.015 33.8866 266.005 32.4601Z" fill="#C8B2D8"/>
</g>
<g style="mix-blend-mode:soft-light">
<path d="M23.9951 28.1996C23.9856 27.4864 23.4052 26.9062 22.6917 26.9062C21.9781 26.9158 21.3978 27.4959 21.4073 28.2091C21.4073 28.9224 21.9876 29.493 22.7012 29.493C23.4148 29.493 23.9951 28.9129 23.9951 28.1996Z" fill="#C8B2D8"/>
</g>
</g>
</g>
<path d="M207.275 73.5912L222.136 147.486L262.733 133.838C261.8 133.686 254.874 119.25 241.935 90.5289C233.087 64.3663 221.537 58.7172 207.275 73.5912Z" fill="white"/>
<path d="M223.316 74.7234C195.905 60.2679 199.74 63.8247 176.116 63.9389C163.272 64.0054 129.097 78.537 124.645 90.5675C120.459 101.885 123.75 121.238 123.18 123.121L136.804 118.955L144.425 221.038L235.627 216.882C234.133 166.573 233.229 135.579 232.915 123.901C232.887 122.864 225.076 75.6459 223.316 74.7234Z" fill="#9162A4"/>
<path d="M174.09 63.7676L200.234 252.593L140.866 252.365L139.277 67.0201L174.09 63.7676Z" fill="white"/>
<path d="M207.57 66.3164L213.63 251.651L243.98 251.09C235.874 138.242 229.7 79.6022 225.456 75.1609C221.213 70.7196 215.257 67.7715 207.57 66.3164Z" fill="white"/>
<g style="mix-blend-mode:multiply">
<path d="M136.832 127.62L181.492 252.66L140.866 252.366L136.832 127.62Z" fill="#C8B2D8"/>
</g>
<path d="M202.365 44.8708L204.468 65.3748L196.381 94.9516C186.924 83.0543 179.684 73.0971 174.67 65.0705L178.476 44.6045L202.365 44.8708Z" fill="#EF9D8E"/>
<path d="M180.198 45.0711C190.93 61.9137 198.474 66.3074 202.851 58.2617C204.097 55.9508 205.8 50.8723 207.96 43.0264C189.35 43.578 179.998 43.9108 179.893 44.0154" fill="#170823"/>
<path d="M163.586 64.5576C163.291 65.7464 161.027 76.3408 156.802 96.3598L168.895 107.896L161.807 121.733L195.848 205.775" stroke="#9162A4" stroke-width="1.41"/>
<path d="M214.629 67.9434C214.629 68.3903 217.445 77.4821 223.078 95.2187L214.858 103.94L224.514 110.036L209.14 207.62" stroke="#9162A4" stroke-width="1.41"/>
<path d="M260.773 131.338C272.894 147.429 276.785 161.637 272.465 173.953C268.137 186.278 235.398 184.88 174.242 169.759L220.452 141.999L234.771 141.352L246.482 136.949L260.773 131.338Z" fill="#EF9D8E"/>
<path d="M252.543 113.478C271.076 141.932 278.183 162.322 273.854 174.647C269.535 186.963 236.331 185.337 174.242 169.759L220.452 141.999L234.771 141.352L244.608 133.915L252.543 113.478Z" fill="white"/>
<g style="mix-blend-mode:multiply">
<path d="M180.226 171.414L210.947 153.83L235.96 142.541L199.635 175.133L180.226 171.414Z" fill="#C8B2D8"/>
</g>
<path d="M211.08 156.578C165.489 190.729 136.271 202.075 123.427 190.586C112.229 173.164 111.335 143.035 120.744 100.201L154.843 112.146C154.586 132.755 155.185 142.788 156.641 142.246C158.106 141.704 176.392 141.038 211.509 140.249C217.445 133.088 225.599 133.848 235.96 142.541L211.08 156.578Z" fill="#EF9D8E"/>
<path d="M171.939 180.629C158.096 182.407 141.19 179.069 133.797 165.955C129.154 157.728 129.021 147.258 129.573 138.08C130.211 127.457 132.237 116.996 133.246 106.411C133.303 105.765 133.531 105.223 133.864 104.795L120.744 100.201C111.335 143.035 112.229 173.164 123.427 190.586C132.97 199.117 154.557 190.853 173.918 180.344C173.262 180.448 172.596 180.553 171.939 180.629Z" fill="#F4786C"/>
<path d="M110.612 166.031C116.025 139.612 115.074 84.2531 132.113 68.7134C139.915 61.5998 154.662 64.5194 160.922 65.3753C164.319 65.8413 154.852 98.1475 154.139 101.495L157.44 142.037L110.612 166.031Z" fill="white"/>
<path fill-rule="evenodd" clip-rule="evenodd" d="M206.875 18.0804C206.143 19.117 205.087 20.3343 203.897 20.8003C201.424 21.7609 195.572 23.1018 192.794 21.0191C190.073 18.9744 187.59 19.0124 186.781 19.564L180.607 39.2882L181.092 39.545L180.73 40.2487L174.442 36.9772L178.257 38.2135C178.238 38.1565 178.219 38.0994 178.2 38.0328L179.246 38.5844C178.856 38.204 178.466 37.9092 178.076 37.6714C173.5 23.2254 170.684 16.0357 173.89 11.8322C176.773 0.476999 185.583 1.22831 197.742 0.182181C213.792 -1.6628 212.317 14.0195 208.407 19.6211C207.741 20.924 207.95 17.2815 206.875 18.0804ZM177.876 37.8712L178.2 38.0328C178.152 37.9092 178.114 37.7856 178.076 37.6714C177.496 37.3101 176.944 37.0913 176.506 36.9582L177.876 37.8712Z" fill="#170823"/>
<path d="M180.084 37.1382C179.884 37.6518 179.227 37.8039 178.828 37.4235C177.467 36.1302 174.765 34.3612 173.814 39.5348C172.52 46.5629 180.036 45.3265 180.635 46.2775C181.863 48.1891 183.347 51.375 188.523 55.0079C191.206 56.891 197.39 58.793 204.297 56.5391C209.339 54.8938 211.775 37.3284 208.055 15.3408C206.885 17.5662 205.448 18.9737 203.755 19.5538C201.214 20.4193 196.6 19.1829 193.793 18.1178C189.445 16.463 188.408 13.0393 181.358 17.7279C176.097 21.2276 181.254 34.0855 180.084 37.1382Z" fill="#EF9D8E"/>
<path d="M174.936 39.012L178.913 41.9126C177.914 37.2146 176.592 36.2445 174.936 39.012Z" fill="#D05346"/>
<path d="M189.683 30.6333C188.399 31.5557 190.34 27.4759 192.109 26.9908C193.869 26.4963 195.649 27.3332 196.077 28.8548C193.869 28.56 191.738 29.1592 189.683 30.6333Z" fill="#170823"/>
<path d="M206.247 30.6251C207.912 31.2337 207.151 29.1034 205.81 28.1524C203.916 27.3536 201.899 27.791 201.205 29.4173C203.831 29.9594 205.515 30.3588 206.247 30.6251Z" fill="#170823"/>
<path d="M199.083 34.6658L201.129 40.3149C201.167 40.4195 201.1 40.5336 200.996 40.5431L198.56 40.6953C198.465 40.7048 198.389 40.6192 198.398 40.5146L198.779 34.7133C198.788 34.5326 199.017 34.4946 199.083 34.6658Z" fill="#D05346"/>
<path d="M195.563 36.1496C195.563 37.015 195.249 37.7093 194.869 37.7093C194.488 37.7188 194.174 37.015 194.164 36.1496C194.164 35.2842 194.469 34.5899 194.859 34.5899C195.24 34.5804 195.554 35.2842 195.563 36.1496Z" fill="#170823"/>
<path d="M202.137 36.2355C202.147 37.1009 201.833 37.7951 201.452 37.8046C201.062 37.8046 200.748 37.1009 200.748 36.2355C200.748 35.3795 201.053 34.6758 201.433 34.6758C201.823 34.6758 202.137 35.37 202.137 36.2355Z" fill="#170823"/>
<path d="M203.479 42.7402C197.97 42.9019 194.849 42.9495 194.107 42.8829C196.277 46.0783 198.275 47.6095 200.111 47.4573C201.947 47.3146 203.07 45.736 203.479 42.7402Z" fill="white"/>
<path d="M185.497 51.9943C185.497 51.3952 185.478 47.6386 185.459 40.7057L198.836 37.0918L210.148 39.4218C210.862 47.6196 210.386 52.7646 208.721 54.8759C201.833 63.5682 184.317 55.009 185.497 51.9943Z" fill="white"/>
<path d="M177.61 36.293L189.036 42.7694" stroke="white" stroke-width="1.41"/>
<path d="M186.991 52.5755L176.544 45.7852" stroke="white" stroke-width="1.41"/>
<path d="M157.44 142.037L200.691 135.408L207.047 163.007C164.3 192.869 136.966 203.967 125.035 196.283C116.71 190.929 111.982 166.031 112.4 160.686C112.686 157.12 127.699 150.91 157.44 142.037Z" fill="white"/>
<path d="M109.651 92.0415C111.886 87.9616 115.321 87.8855 119.973 91.7942C124.626 95.7029 132.732 107.258 144.282 126.449L127.604 158.052L109.651 92.0415Z" fill="#FFADC7"/>
<path d="M98.4715 81.6656L118.394 48.3608C120.868 39.8872 120.706 35.541 119.298 32.9638C115.445 25.8786 109.936 23.9576 102.486 22.1221C69.758 14.0479 68.2452 42.7783 78.0638 54.7992C82.1834 59.8491 88.986 68.7983 98.4715 81.6656Z" fill="#1D0E2E"/>
<path d="M79.3482 33.3629C81.251 30.2626 83.2394 26.7248 82.4022 23.1775C82.1358 22.0172 81.5554 20.9236 80.8324 19.9725C78.7773 17.2907 75.0763 15.6264 71.8891 16.7771C70.7569 17.186 69.7579 17.9088 68.8065 18.6601C66.6944 20.3244 64.6108 22.3501 64.0875 24.9844C63.5738 27.5807 64.763 30.3292 66.7134 32.1171C68.6638 33.9145 71.2802 34.8465 73.8966 35.246C75.9326 35.5503 78.0923 35.5408 79.9475 34.6658C81.8123 33.7814 83.287 31.8793 83.1633 29.8251" fill="#1D0E2E"/>
<path d="M90.8318 47.7151C90.6605 48.0669 90.2609 48.2001 89.9469 48.0004C88.615 47.173 85.247 45.5943 82.8304 49.0845C80.3948 52.6033 83.8579 58.6233 86.8739 57.6627C87.5304 57.4535 87.8253 58.6708 87.9775 59.3746C88.4342 61.5524 89.9374 68.609 89.4617 79.8976C89.2905 84.0156 87.987 88.4758 85.5324 93.2785C104.418 115.104 113.827 115.409 113.742 94.201C109.917 81.2861 107.767 72.8981 107.291 69.056C109.793 68.5329 119.507 71.5762 120.982 54.1249C122.333 38.1668 114.389 34.163 111.839 33.1739C109.679 32.3466 99.3564 30.397 90.8318 47.7151Z" fill="#FABAB2"/>
<path d="M107.615 69.0546L100.793 67.9229L109.965 79.202L107.615 69.0546Z" fill="#DB6761"/>
<path d="M65.4006 98.3094C69.1872 93.4211 73.3924 90.045 78.0353 88.181C79.177 87.3916 82.4689 86.6593 87.9109 85.9746L111.658 104.529C112.809 103.616 113.142 98.7754 112.657 90.0069C112.21 91.1862 128.65 111.082 130.981 122.475C133.189 133.24 155.528 259.165 155.547 263.388L39.8076 260.668C53.7172 162.104 62.2514 107.991 65.4006 98.3094Z" fill="#FFADC7"/>
<path d="M79.196 104.386L107.586 262.122L39.5698 260.42C48.5701 195.598 54.9065 155.37 58.5694 139.745C67.0084 103.825 79.0343 113.306 79.196 104.386Z" fill="#F18BAB"/>
<path d="M89.2239 52.5272C87.2259 47.9718 85.4278 47.5343 83.8294 51.2053L89.2239 52.5272Z" fill="#DB6761"/>
<path d="M101.621 52.7742C103.39 53.1736 104.494 54.914 104.104 56.6733C103.714 58.4327 101.963 59.5359 100.203 59.146C98.443 58.7561 97.3299 57.0157 97.7199 55.2563C98.1195 53.4969 99.8606 52.3842 101.621 52.7742Z" fill="#FF9590"/>
<path d="M120.306 58.9169C119.707 59.1547 119.032 59.2308 118.356 59.0786C116.596 58.6887 115.483 56.9388 115.873 55.1889C116.263 53.4295 118.014 52.3169 119.774 52.7068C120.211 52.8114 120.611 52.9921 120.963 53.2393C120.944 55.1509 120.725 57.0434 120.306 58.9169Z" fill="#FF9590"/>
<path d="M113.922 57.0439L106.834 56.9678C107.995 59.2407 109.261 60.2678 110.631 60.0491C112.001 59.8208 113.095 58.8223 113.922 57.0439Z" fill="white"/>
<path d="M110.269 50.8818L109.698 55.5704L112.115 55.5418C112.552 55.5418 112.838 55.0568 112.619 54.6764L110.269 50.8818Z" fill="#DB6761"/>
<path d="M103.876 46.3266C103.067 46.8116 104.418 44.4816 105.493 44.2629C106.568 44.0536 108.128 44.2248 108.071 45.1188C108.005 46.1079 105.826 45.1473 103.876 46.3266Z" fill="black"/>
<path d="M117.053 46.421C117.785 47.0107 116.758 44.519 115.721 44.1671C114.684 43.8152 113.209 43.8818 113.295 45.1467C113.361 46.1357 115.283 44.9945 117.053 46.421Z" fill="black"/>
<path d="M106.216 50.8438C106.197 51.6617 106.501 52.3369 106.901 52.3369C107.291 52.3465 107.634 51.6902 107.653 50.8819C107.662 50.064 107.358 49.3888 106.958 49.3888C106.568 49.3793 106.226 50.0355 106.216 50.8438Z" fill="black"/>
<path d="M112.705 50.5387C112.686 51.3186 112.981 51.9558 113.361 51.9653C113.732 51.9653 114.056 51.3471 114.075 50.5673C114.094 49.7874 113.799 49.1407 113.418 49.1407C113.038 49.1312 112.714 49.7589 112.705 50.5387Z" fill="black"/>
<path d="M83.4203 30.7575L81.879 26.2877C80.4043 22.0366 81.8695 17.329 85.4849 14.6376C90.0231 11.2615 96.388 7.56205 101.611 8.41797C104.551 8.89348 106.283 12.1935 106.796 18.3086C92.1828 24.728 84.3907 28.8744 83.4203 30.7575Z" fill="white"/>
<path d="M102.154 17.662L100.089 18.4133L97.9293 12.5264L99.9844 11.7656L102.154 17.662Z" fill="#9162A4"/>
<path d="M97.4631 17.1964L96.7115 15.1422L102.61 12.9834L103.371 15.0376L97.4631 17.1964Z" fill="#9162A4"/>
<path d="M83.3822 30.7574C80.3852 34.0004 94.6374 28.5415 95.8171 30.5577C93.8667 30.5577 92.392 34.1716 91.374 41.4089C98.7665 46.8392 100.993 34.6661 101.116 33.154C118.679 50.4245 115.987 25.9738 114.779 23.3014C110.117 12.9258 92.9153 20.4388 83.3822 30.7574Z" fill="#1D0E2E"/>
<path d="M36.1447 127.487L72.2602 147.554C89.8137 111.719 91.7356 92.1376 78.0353 88.809C64.335 85.4805 50.3682 98.3763 36.1447 127.487Z" fill="#FFADC7"/>
<path d="M103.276 134.874L88.2344 134.931L88.2153 129.044L103.257 128.987L103.276 134.874Z" fill="#F4FDF8"/>
<path d="M58.6075 216.901L86.4362 217.073L86.6646 233.459C86.7502 239.964 81.3652 245.223 74.8576 244.995L69.1872 244.795C62.9174 244.576 58.0081 239.355 58.1793 233.107L58.6075 216.901Z" fill="#FFADC7"/>
<path d="M115.102 216.692L142.931 216.864L143.159 233.24C143.245 239.755 137.86 245.014 131.352 244.786L125.672 244.586C119.412 244.367 114.503 239.146 114.674 232.898L115.102 216.692Z" fill="#F18BAB"/>
<path fill-rule="evenodd" clip-rule="evenodd" d="M117.347 116.331L117.328 116.417L108.775 115.257L108.785 115.181C109.08 112.965 111.125 111.414 113.332 111.719L113.875 111.785C116.092 112.09 117.642 114.125 117.347 116.331ZM114.198 113.916C114.265 113.431 113.932 112.993 113.447 112.927C112.961 112.86 112.524 113.193 112.457 113.678C112.391 114.163 112.733 114.6 113.209 114.667C113.694 114.734 114.132 114.391 114.198 113.916Z" fill="#F18BAB"/>
<path d="M127.918 194.696L78.4443 188.01C77.1028 187.83 76.1609 186.593 76.3417 185.262L85.8177 115.371C85.9985 114.04 87.2353 113.098 88.5768 113.279L138.05 119.965C139.392 120.145 140.324 121.382 140.143 122.713L130.667 192.594C130.486 193.935 129.259 194.877 127.918 194.696Z" fill="#2A144C"/>
<path d="M128.384 190.027L79.4053 183.408L88.4817 116.456L137.46 123.066L128.384 190.027Z" fill="#FFADC7"/>
<path d="M121.733 188.371L79.4718 182.665L88.5102 115.989L135.9 122.39L127.556 183.94C125.282 185.671 124.007 186.641 121.733 188.371Z" fill="white"/>
<path d="M122.457 122.465L102.934 119.83C101.849 119.688 101.097 118.689 101.24 117.615L101.516 115.579C101.659 114.495 102.658 113.744 103.742 113.887L123.265 116.521C124.35 116.673 125.101 117.662 124.959 118.746L124.683 120.781C124.54 121.856 123.541 122.617 122.457 122.465Z" fill="#F1C168"/>
<path d="M121.448 188.334L122.152 183.198L127.28 183.892L122.457 188.429L121.448 188.334Z" fill="#F18BAB"/>
<path d="M119.735 124.682L104.97 122.694L105.607 117.986L120.373 119.983L119.735 124.682Z" fill="#F18BAB"/>
<path d="M124.416 122.731L100.974 119.564L101.516 115.579C101.659 114.495 102.658 113.744 103.742 113.887L123.265 116.521C124.35 116.673 125.101 117.662 124.959 118.746L124.416 122.731Z" fill="#9162A4"/>
<path d="M101.193 134.705C101.373 133.364 100.431 132.137 99.0995 131.957C97.758 131.776 96.5307 132.718 96.3499 134.049C96.1692 135.38 97.1111 136.607 98.443 136.788C99.775 136.969 101.012 136.037 101.193 134.705Z" fill="#F18BAB"/>
<path d="M99.2803 149.882C99.461 148.551 98.5286 147.324 97.1967 147.143C95.8552 146.963 94.6279 147.895 94.4471 149.236C94.2663 150.567 95.1987 151.794 96.5402 151.975C97.8722 152.155 99.0995 151.214 99.2803 149.882Z" fill="#F18BAB"/>
<path d="M115.901 134.096L109.679 133.259C109.375 133.212 109.156 132.926 109.203 132.622C109.241 132.318 109.527 132.099 109.831 132.137L116.054 132.984C116.358 133.022 116.577 133.307 116.529 133.611C116.491 133.925 116.206 134.134 115.901 134.096Z" fill="#F18BAB"/>
<path d="M128.936 135.856L118.432 134.439C118.118 134.391 117.899 134.115 117.947 133.801C117.985 133.497 118.27 133.278 118.575 133.326L129.088 134.743C129.392 134.781 129.611 135.066 129.573 135.371C129.525 135.684 129.25 135.894 128.936 135.856Z" fill="#F18BAB"/>
<path d="M109.165 137.729L128.117 140.288" stroke="#FFADC7" stroke-width="0.4"/>
<path d="M108.718 141.067L127.661 143.626" stroke="#FFADC7" stroke-width="0.4"/>
<path d="M96.6257 153.212L89.1001 152.194C88.9193 152.166 88.7956 152.004 88.8147 151.824L88.8242 151.795C88.8432 151.614 89.0145 151.491 89.1952 151.51L96.7209 152.527C96.9017 152.556 97.0253 152.718 97.0063 152.898L96.9968 152.927C96.9778 153.107 96.8065 153.231 96.6257 153.212Z" fill="white"/>
<path d="M110.212 162.104L105.493 161.467C105.35 161.448 105.245 161.315 105.265 161.172L105.284 161.011C105.303 160.868 105.436 160.763 105.588 160.783L110.307 161.42C110.45 161.439 110.554 161.572 110.535 161.724L110.507 161.876C110.488 162.019 110.355 162.123 110.212 162.104Z" fill="#B688FF"/>
<path d="M109.86 164.701L105.141 164.063C104.998 164.044 104.893 163.911 104.913 163.769L104.932 163.616C104.951 163.464 105.084 163.369 105.236 163.388L109.955 164.025C110.098 164.044 110.202 164.178 110.183 164.32L110.155 164.472C110.136 164.624 110.003 164.72 109.86 164.701Z" fill="#B688FF"/>
<path d="M96.169 156.549L88.6529 155.532C88.4721 155.513 88.3389 155.342 88.3674 155.161V155.132C88.396 154.952 88.5577 154.828 88.7385 154.857L96.2642 155.865C96.4449 155.893 96.5781 156.064 96.5496 156.245V156.264C96.521 156.445 96.3498 156.578 96.169 156.549Z" fill="white"/>
<path d="M117.424 159.442L112.743 158.805C112.6 158.786 112.505 158.652 112.524 158.51L112.543 158.348C112.562 158.205 112.695 158.11 112.838 158.129L117.509 158.757C117.661 158.776 117.757 158.909 117.737 159.052L117.718 159.214C117.699 159.356 117.566 159.461 117.424 159.442Z" fill="white"/>
<path d="M95.7218 159.898L88.1962 158.88C88.0154 158.851 87.8917 158.69 87.9107 158.509L87.9203 158.481C87.9393 158.3 88.1105 158.176 88.2913 158.195L95.8074 159.213C95.9977 159.241 96.1214 159.403 96.0929 159.584V159.612C96.0643 159.793 95.9026 159.917 95.7218 159.898Z" fill="white"/>
<path d="M95.2652 163.236L87.7395 162.218C87.5588 162.199 87.4351 162.028 87.4636 161.847V161.819C87.4827 161.638 87.6539 161.515 87.8347 161.543L95.3603 162.551C95.5411 162.58 95.6648 162.751 95.6458 162.932L95.6363 162.951C95.6172 163.131 95.446 163.265 95.2652 163.236Z" fill="white"/>
<path d="M100.745 174.486C103.362 175.276 109.432 177.853 120.839 180.012C124.122 180.63 134.568 181.267 134.378 180.126C134.111 178.614 123.161 177.901 123.636 177.482C124.102 177.064 135.719 178.49 136.062 177.311C136.404 176.132 125.444 175.428 125.32 174.667C125.187 173.916 136.87 175.713 137.146 174.163C137.422 172.603 125.805 171.177 126.215 170.378C126.614 169.579 137.356 172.223 138.164 170.625C138.973 169.028 121.362 164.225 120.763 163.883C120.164 163.54 128.098 158.062 128.165 157.425C128.213 156.921 127.432 156.55 125.825 156.303C119.498 157.72 123.57 160.031 105.246 160.269L71.0518 151.5C70.7093 151.434 70.3858 151.377 70.0909 151.31C67.2652 150.73 65.9142 147.477 67.4174 145.014L41.6152 130.673L36.5727 158.357C36.8391 163.987 39.6457 168.058 44.4504 167.867L100.745 174.486Z" fill="#FABAB2"/>
<path d="M97.7199 55.2564C105.379 53.3924 109.879 52.4984 111.211 52.565C113.228 52.6696 116.529 52.9834 121.106 53.5065C121.362 54.895 120.316 68.9796 113.732 71.1575C110.878 72.1085 105.56 70.5773 97.777 66.564L97.7199 55.2564Z" fill="white"/>
<path d="M89.0906 46.9443L100.441 57.0157" stroke="white" stroke-width="1.549"/>
<path d="M86.3887 58.3184L101.212 66.3069" stroke="white" stroke-width="1.549"/>
<path d="M78.9581 154.286C78.0828 152.907 85.951 151.719 83.9435 151.319C81.936 150.929 72.8405 151.719 72.7074 150.159C72.5932 148.837 83.0206 149.122 83.287 147.991C83.5439 146.868 71.5752 148.057 71.1661 147.011C69.9958 144.053 83.62 145.166 83.8293 143.226C84.0101 143.483 72.0128 143.502 72.6598 141.314C72.9547 140.306 81.9931 140.021 90.6034 139.992C91.2028 139.992 91.4597 139.222 90.9744 138.851C88.0536 136.664 84.8664 134.22 87.1783 133.592C97.6343 135.979 103.933 138.166 106.073 140.135C106.073 140.154 106.073 140.183 106.083 140.211L134.33 138.366C136.166 138.338 138.697 139.479 138.145 137.653C139.22 131.652 143.597 125.423 144.596 126.488C145.281 127.22 148.468 132.251 151.855 137.7C157.155 146.231 151.332 157.32 141.285 157.834C129.507 158.442 117.11 157.016 104.104 153.564L104.113 153.478C100.098 154.553 79.7383 155.542 78.9581 154.286Z" fill="#FABAB2"/>
<path d="M48.0847 35.2362C52.5754 36.8434 57.066 38.4506 61.5567 40.0579C62.2036 40.2861 62.8506 40.5143 63.4976 40.7426C64.4014 41.0659 65.4384 40.3717 65.6763 39.5063C65.9427 38.5172 65.3338 37.6518 64.4299 37.3284C59.9393 35.7212 55.4486 34.1235 50.958 32.5163C50.311 32.288 49.664 32.0503 49.0171 31.822C48.1132 31.4987 47.0762 32.1929 46.8384 33.0678C46.572 34.0474 47.1809 34.9128 48.0847 35.2362Z" fill="#F3FEFA"/>
<path d="M67.9598 48.6459C65.5337 49.6825 63.1266 50.7952 60.7576 51.9459C57.0661 53.7244 53.2605 55.5503 50.0447 58.1086C49.2931 58.7077 49.4263 59.9916 50.0542 60.6098C50.7963 61.3515 51.8048 61.1994 52.5564 60.6002C52.7182 60.4766 52.7087 60.4861 52.5469 60.6098C52.623 60.5527 52.7087 60.4956 52.7943 60.4291C52.9655 60.3054 53.1463 60.1818 53.3176 60.0582C53.6601 59.8299 54.0026 59.6017 54.3546 59.3829C55.1918 58.8599 56.0481 58.3653 56.9139 57.8898C58.8262 56.8247 60.7766 55.8451 62.746 54.9036C65.058 53.7909 67.3984 52.7068 69.7579 51.6987C70.6427 51.3278 70.833 50.0249 70.3859 49.2736C69.8531 48.3701 68.8446 48.275 67.9598 48.6459Z" fill="#F3FEFA"/>
<path d="M223.506 19.3074C226.588 16.9108 229.68 14.5238 232.773 12.1367C233.21 11.7943 233.648 11.452 234.095 11.1096C234.818 10.539 235.284 9.55944 234.723 8.6845C234.247 7.96172 233.077 7.44817 232.287 8.05682C229.205 10.4439 226.113 12.8405 223.021 15.2275C222.583 15.5699 222.145 15.9123 221.698 16.2546C220.975 16.8157 220.509 17.8048 221.07 18.6797C221.546 19.4025 222.716 19.9066 223.506 19.3074Z" fill="#F3FEFA"/>
<path d="M226.617 33.6867C230.603 34.8185 234.514 36.226 238.5 37.3577C239.394 37.6049 240.469 37.0343 240.679 36.1118C240.888 35.1608 240.384 34.2098 239.432 33.934C235.446 32.8118 231.536 31.3948 227.549 30.2726C226.655 30.0158 225.58 30.5864 225.371 31.5184C225.161 32.4599 225.665 33.4205 226.617 33.6867Z" fill="#F3FEFA"/>
<path d="M79.9284 77.2431C66.0949 77.8517 53.1177 85.0415 44.8214 96.0353C42.4619 99.1641 40.5971 102.578 39.1415 106.211C38.7799 107.105 39.5411 108.142 40.3878 108.38C41.4058 108.665 42.2145 108.018 42.5666 107.134C47.238 95.4932 57.5988 86.3634 69.5295 82.6259C72.9165 81.5702 76.3987 80.9426 79.938 80.7904C82.2118 80.6858 82.2118 77.148 79.9284 77.2431Z" fill="#F3FEFA"/>
<path d="M220.775 60.0393C227.416 60.4957 233.048 64.5566 237.282 69.4258C239.594 72.0792 241.392 75.0464 243.152 78.0611C245.122 81.4372 247.025 84.8514 248.804 88.3321C250.887 92.412 252.79 96.568 254.503 100.819C254.855 101.704 255.692 102.331 256.681 102.055C257.528 101.808 258.28 100.762 257.918 99.868C254.741 91.9555 250.906 84.3569 246.635 76.9865C242.886 70.5195 238.605 64.3569 232.164 60.277C228.72 58.0992 224.838 56.7773 220.766 56.5015C218.482 56.3398 218.511 59.8871 220.775 60.0393Z" fill="#F3FEFA"/>
<path d="M266.481 68.9404L260.278 68.9689L260.221 52.6303L266.414 52.6113L266.481 68.9404Z" fill="white"/>
<path d="M255.178 63.9093L255.15 57.7277L271.524 57.6611L271.543 63.8523L255.178 63.9093Z" fill="white"/>
<path d="M143.511 52.5163L137.318 52.5448L137.251 36.2063L143.454 36.1777L143.511 52.5163Z" fill="white"/>
<path d="M132.218 47.4855L132.19 41.2944L148.554 41.2373L148.582 47.4285L132.218 47.4855Z" fill="white"/>
<path d="M29.7606 189.293L23.5575 189.312L23.5004 172.973L29.694 172.954L29.7606 189.293Z" fill="white"/>
<path d="M18.4579 184.262L18.4388 178.07L34.8031 178.004L34.8221 184.195L18.4579 184.262Z" fill="white"/>
</svg>
