<svg width="36" height="39" viewBox="0 0 36 39" fill="none" xmlns="http://www.w3.org/2000/svg">
<path fill-rule="evenodd" clip-rule="evenodd" d="M23.9549 36.3943C27.3924 35.4405 30.9913 34.9593 34.4825 34.5185C35.2344 34.4261 35.9326 34.9418 35.9863 35.6683C36.0937 36.3954 35.5563 37.0603 34.858 37.1527C31.4743 37.5771 27.9834 38.0312 24.7071 38.9494C24.0088 39.1486 23.2566 38.7386 23.0417 38.0333C22.8269 37.3285 23.2567 36.594 23.9549 36.3943Z" fill="#FFADC7"/>
<path fill-rule="evenodd" clip-rule="evenodd" d="M13.5355 22.8717C19.0677 17.2894 25.2981 12.4256 30.7229 6.69354C31.2063 6.1582 32.0656 6.12952 32.6027 6.62927C33.1399 7.12956 33.1934 7.97081 32.6562 8.50616C27.2315 14.2547 21.001 19.1344 15.4689 24.7332C14.9317 25.2558 14.0726 25.2632 13.5355 24.7491C13.0521 24.2355 12.9984 23.3943 13.5355 22.8717Z" fill="#FFADC7"/>
<path fill-rule="evenodd" clip-rule="evenodd" d="M3.1686 1.39983C3.00747 4.59489 2.84665 7.78994 2.68552 10.9855C2.68552 11.7174 2.04068 12.2825 1.28873 12.2469C0.536783 12.2108 -7.62939e-06 11.5878 -7.62939e-06 10.8554C0.161124 7.65505 0.321941 4.45521 0.483073 1.25538C0.536783 0.523529 1.18141 -0.0378368 1.93336 0.00199523C2.6316 0.0418272 3.22231 0.668519 3.1686 1.39983Z" fill="#FFADC7"/>
</svg>
