<svg width="146" height="123" viewBox="0 0 146 123" fill="none" xmlns="http://www.w3.org/2000/svg">
<path d="M107.828 0.0693512C103.417 0.39798 98.9324 1.64104 95.0051 3.58421C88.5133 6.8276 82.4611 12.8572 79.2518 19.3297C74.9141 28.0311 74.7236 38.9329 78.7242 47.8343C81.9042 54.8926 88.0443 61.2651 94.8879 64.6085C97.8187 66.0373 101.526 67.2089 104.648 67.709L105.776 67.8947V72.9384V77.9821H99.9436H94.0965L93.7448 78.3536L93.3931 78.7251V82.84V86.955L93.7448 87.3265L94.0965 87.698H99.9289H105.761L105.805 93.4846L105.849 99.257L106.186 99.5856C106.509 99.9143 106.567 99.9143 110.773 99.9571L115.023 100L115.448 99.5714L115.887 99.157V93.4275V87.698H121.793H127.713L128.065 87.3265L128.417 86.955V82.84V78.7251L128.065 78.3536L127.713 77.9821L121.837 77.9535L115.961 77.9107V72.9241V67.9519L117.939 67.5518C121.427 66.8374 123.801 66.0516 126.761 64.6085C130.014 63.0225 132.798 61.0651 135.392 58.5504C140.99 53.1066 144.463 46.477 145.592 38.99C145.943 36.6611 145.943 31.5173 145.592 29.2598C144.405 21.6443 141.195 15.5147 135.509 9.98526C129.648 4.25575 122.775 0.998077 114.876 0.183655C113.074 -0.00209045 109.557 -0.0592346 107.828 0.0693512ZM116.122 10.3139C121.368 11.3855 126.013 14.0859 129.677 18.158C134.088 23.0874 136.037 28.5169 135.773 35.1894C135.509 41.7619 132.96 47.2199 127.977 51.8207C124.079 55.407 119.522 57.5788 114.422 58.2789C112.62 58.5218 108.795 58.4789 106.89 58.1932C98.0092 56.8644 89.964 50.2061 87.1797 41.8762C86.2418 39.0757 86.066 37.8327 86.0807 33.9749C86.0807 31.0601 86.1246 30.4315 86.403 29.1884C87.5461 24.1304 89.9347 20.0298 93.8034 16.4435C97.6722 12.8857 102.142 10.7425 107.227 10.0424C109.469 9.71379 113.88 9.85667 116.122 10.3139Z" fill="#F18BAB"/>
<path fill-rule="evenodd" clip-rule="evenodd" d="M21.0313 66.907C18.2991 67.0808 15.5947 67.2288 12.8691 67.4822C12.2826 67.5345 11.8542 68.0492 11.9087 68.6312C11.9616 69.2172 12.4811 69.6472 13.0637 69.5933C15.7744 69.3435 18.4559 69.196 21.1691 69.0241C21.7552 68.9851 22.1982 68.4804 22.1611 67.9003C22.1216 67.3148 21.6174 66.868 21.0313 66.907Z" fill="#FFADC7"/>
<path fill-rule="evenodd" clip-rule="evenodd" d="M33.5792 85.7469C27.4326 91.8233 21.5975 98.2064 15.5848 104.41C15.1772 104.833 15.1895 105.503 15.6091 105.909C16.0327 106.317 16.7023 106.309 17.1139 105.888C23.1142 99.6932 28.9367 93.3191 35.0734 87.2572C35.4915 86.8428 35.4927 86.1728 35.0816 85.7563C34.6664 85.3383 33.9958 85.3366 33.5792 85.7469Z" fill="#FFADC7"/>
<path fill-rule="evenodd" clip-rule="evenodd" d="M62.0212 98.5605C60.5806 105.722 59.3385 112.935 57.8178 120.081C57.6992 120.653 58.0648 121.215 58.6357 121.338C59.2106 121.462 59.7748 121.094 59.8974 120.524C61.417 113.369 62.6622 106.147 64.1018 98.9763C64.2164 98.4032 63.8453 97.8431 63.2715 97.7281C62.6936 97.6116 62.1373 97.9833 62.0212 98.5605Z" fill="#FFADC7"/>
</svg>
