<svg width="63" height="143" viewBox="0 0 63 143" fill="none" xmlns="http://www.w3.org/2000/svg">
<path fill-rule="evenodd" clip-rule="evenodd" d="M48.4538 34.1929L48.3987 34.2783C48.151 34.6289 47.8911 34.9795 47.7473 35.2357C45.793 38.7298 42.4227 41.7696 39.3459 44.2789C31.9814 50.2792 24.9411 56.6729 18.0323 63.1916C16.0963 65.018 14.3867 67.0791 12.5762 69.0243C12.041 69.6006 11.5179 70.1829 10.9919 70.7653C10.7656 71.0214 10.1632 71.433 9.90326 71.6983C9.71364 71.8873 9.62188 72.0733 9.58518 72.1952C9.49955 72.5062 9.579 72.7532 9.74721 72.9483C9.85425 73.0764 10.0561 73.2532 10.4598 73.2502C14.7048 73.2044 20.2833 71.1769 26.1156 68.4389C34.682 64.4173 43.8173 58.8835 49.9921 56.2126C51.6161 55.5113 54.6776 53.5143 57.4944 52.1239C58.7422 51.505 59.9288 50.9897 60.883 50.8281C60.3111 51.3586 59.5372 51.9531 59.1611 52.3586C57.5371 54.1118 55.6471 55.6089 53.9253 57.2614C48.6863 62.2861 35.9542 80.6317 32.2475 86.9279C29.2473 92.0196 14.9433 122.604 13.6557 142.187C13.6282 142.608 13.9463 142.971 14.3683 142.998C14.7904 143.026 15.1544 142.706 15.1819 142.288C16.4542 122.939 30.6021 92.7301 33.5657 87.6993C37.2326 81.4733 49.8056 63.3258 54.9834 58.3621C56.7298 56.6882 58.6382 55.1668 60.2836 53.3923C60.8769 52.752 62.3541 51.6452 62.7761 50.9806C63.0147 50.6055 63.0361 50.261 62.9627 50.014C62.8709 49.7121 62.6415 49.389 62.0513 49.2945C61.0848 49.142 59.7269 49.4743 58.2283 50.1055C55.1088 51.4226 51.2706 53.999 49.3836 54.8161C43.1996 57.4901 34.0459 63.0301 25.4642 67.0608C20.6809 69.3049 16.0872 71.0885 12.3101 71.5854C12.7688 71.0732 13.2307 70.5671 13.6986 70.061C15.4847 68.1371 17.1699 66.1034 19.0813 64.2984C25.9657 57.8072 32.9785 51.4348 40.3124 45.4589C43.5329 42.8337 47.0378 39.6322 49.0839 35.9796C49.3713 35.4643 50.1207 34.5497 50.2736 34.0313C50.3715 33.699 50.3255 33.4185 50.2154 33.2142C50.0839 32.9612 49.8453 32.7324 49.3804 32.6958C47.4781 32.5403 44.27 33.1136 40.5266 34.077C32.0243 36.2692 20.6778 40.4372 15.9649 41.9495C12.7995 42.9648 9.65859 44.1143 6.46261 45.029C6.30357 45.0747 3.20232 45.6936 1.72514 45.9863C2.0218 45.1296 2.63352 43.974 3.38588 42.666C6.03442 38.0712 10.6006 31.8269 11.9615 29.9152C14.5703 26.2473 17.2677 22.6556 19.7908 18.9267C23.7728 13.0422 27.556 7.03578 31.6022 1.19396C31.8438 0.849422 31.7552 0.373792 31.4096 0.135973C31.0609 -0.104896 30.5838 -0.0165115 30.3453 0.328022C26.293 6.17289 22.5067 12.1854 18.5216 18.0761C16.0077 21.7927 13.3164 25.3753 10.7137 29.034C9.34049 30.964 4.73459 37.2694 2.06159 41.9068C0.835184 44.032 0.033822 45.8491 0.000180053 46.8156C-0.00593667 47.0839 0.140906 47.6267 0.884088 47.6633C1.83524 47.709 6.65831 46.5595 6.88462 46.4955C10.0959 45.5747 13.252 44.4192 16.4327 43.4008C21.1304 41.8946 32.4372 37.7389 40.9089 35.5558C43.9581 34.7692 46.628 34.2295 48.4538 34.1929Z" fill="#C8B2D8"/>
</svg>
