<svg width="63" height="143" viewBox="0 0 63 143" fill="none" xmlns="http://www.w3.org/2000/svg">
<path fill-rule="evenodd" clip-rule="evenodd" d="M14.5462 34.1929L14.6013 34.2783C14.849 34.6289 15.1089 34.9795 15.2527 35.2357C17.207 38.7298 20.5773 41.7696 23.6541 44.2789C31.0186 50.2792 38.0589 56.6729 44.9677 63.1916C46.9037 65.018 48.6133 67.0791 50.4238 69.0243C50.959 69.6006 51.4821 70.1829 52.0081 70.7653C52.2344 71.0214 52.8368 71.433 53.0967 71.6983C53.2864 71.8873 53.3781 72.0733 53.4148 72.1952C53.5005 72.5062 53.421 72.7532 53.2528 72.9483C53.1458 73.0764 52.9439 73.2532 52.5402 73.2502C48.2952 73.2044 42.7167 71.1769 36.8844 68.4389C28.318 64.4173 19.1827 58.8835 13.0079 56.2126C11.3839 55.5113 8.3224 53.5143 5.50565 52.1239C4.25784 51.505 3.07117 50.9897 2.11696 50.8281C2.68888 51.3586 3.46275 51.9531 3.83893 52.3586C5.46292 54.1118 7.35287 55.6089 9.07473 57.2614C14.3137 62.2861 27.0458 80.6317 30.7525 86.9279C33.7527 92.0196 48.0567 122.604 49.3443 142.187C49.3718 142.608 49.0537 142.971 48.6317 142.998C48.2096 143.026 47.8456 142.706 47.8181 142.288C46.5458 122.939 32.3979 92.7301 29.4343 87.6993C25.7674 81.4733 13.1944 63.3258 8.01655 58.3621C6.27023 56.6882 4.36179 55.1668 2.71639 53.3923C2.12307 52.752 0.645912 51.6452 0.223858 50.9806C-0.0146942 50.6055 -0.0360603 50.261 0.0373383 50.014C0.129089 49.7121 0.358459 49.389 0.948723 49.2945C1.91516 49.142 3.27308 49.4743 4.77167 50.1055C7.8912 51.4226 11.7294 53.999 13.6164 54.8161C19.8004 57.4901 28.9541 63.0301 37.5358 67.0608C42.3191 69.3049 46.9128 71.0885 50.6899 71.5854C50.2312 71.0732 49.7693 70.5671 49.3014 70.061C47.5153 68.1371 45.8301 66.1034 43.9187 64.2984C37.0343 57.8072 30.0215 51.4348 22.6876 45.4589C19.4671 42.8337 15.9622 39.6322 13.9161 35.9796C13.6287 35.4643 12.8793 34.5497 12.7264 34.0313C12.6285 33.699 12.6745 33.4185 12.7846 33.2142C12.9161 32.9612 13.1547 32.7324 13.6196 32.6958C15.5219 32.5403 18.73 33.1136 22.4734 34.077C30.9757 36.2692 42.3222 40.4372 47.0351 41.9495C50.2005 42.9648 53.3414 44.1143 56.5374 45.029C56.6964 45.0747 59.7977 45.6936 61.2749 45.9863C60.9782 45.1296 60.3665 43.974 59.6141 42.666C56.9656 38.0712 52.3994 31.8269 51.0385 29.9152C48.4297 26.2473 45.7323 22.6556 43.2092 18.9267C39.2272 13.0422 35.444 7.03578 31.3978 1.19396C31.1562 0.849422 31.2448 0.373792 31.5904 0.135973C31.9391 -0.104896 32.4162 -0.0165115 32.6547 0.328022C36.707 6.17289 40.4933 12.1854 44.4784 18.0761C46.9923 21.7927 49.6836 25.3753 52.2863 29.034C53.6595 30.964 58.2654 37.2694 60.9384 41.9068C62.1648 44.032 62.9662 45.8491 62.9998 46.8156C63.0059 47.0839 62.8591 47.6267 62.1159 47.6633C61.1648 47.709 56.3417 46.5595 56.1154 46.4955C52.9041 45.5747 49.748 44.4192 46.5673 43.4008C41.8696 41.8946 30.5628 37.7389 22.0911 35.5558C19.0419 34.7692 16.372 34.2295 14.5462 34.1929Z" fill="#C8B2D8"/>
</svg>
