<svg width="401" height="25" viewBox="0 0 401 25" fill="none" xmlns="http://www.w3.org/2000/svg">
<path fill-rule="evenodd" clip-rule="evenodd" d="M132.94 2.17028C88.7197 1.66118 44.3191 3.52171 1.5175 11.3341C0.753846 11.473 0.436828 11.746 0.374347 11.8085C0.00871943 12.1788 -0.0306881 12.5722 0.0155939 12.8961C0.0433631 13.0928 0.230887 13.9236 1.25603 14.0092C1.96415 14.067 6.9903 13.6621 8.92951 13.558C18.0586 13.0697 27.1694 12.3731 36.2753 11.5678C56.9217 9.74895 77.5403 8.17537 98.2191 6.74294C109.829 5.93764 121.443 5.27115 133.051 4.72503C160.975 5.05131 188.83 6.32409 216.164 7.6385C205.3 8.30727 195.317 8.9853 187.039 9.42498C173.08 10.1655 159.147 11.0402 145.216 12.1926C138.059 12.7827 130.91 13.4238 123.767 14.1805C122.975 14.2661 121.173 14.354 120.3 14.4581C119.93 14.4998 119.662 14.5669 119.541 14.6132C118.787 14.9048 118.692 15.5018 118.683 15.8026C118.678 15.9854 118.741 16.9828 120.013 17.1772C179.192 26.2994 240.932 15.6869 300.324 24.5546C301.02 24.6587 301.673 24.1774 301.777 23.4785C301.881 22.782 301.4 22.1294 300.701 22.0252C244.764 13.6737 186.743 22.6038 130.735 16.0479C135.629 15.5735 140.526 15.1454 145.427 14.7405C159.332 13.5904 173.24 12.7179 187.176 11.9774C201.199 11.2346 220.156 9.78366 239.999 8.86959C257.029 9.81837 274.049 10.8829 291.081 11.7853C298.266 12.1649 305.454 12.4796 312.637 12.866C315.59 13.0234 323.187 13.6829 324.288 13.4376C325.144 13.2456 325.35 12.6323 325.401 12.3246C325.455 11.9913 325.422 11.5771 325.033 11.1814C324.913 11.0564 324.552 10.7972 323.812 10.5843C303.783 4.84769 270.988 4.93793 240.273 6.32408C233.666 5.95382 227.059 5.60208 220.45 5.28505C205.32 4.55611 190.024 3.82484 174.64 3.24863C217.995 2.1772 261.37 2.48499 304.757 3.26021C322.974 3.5865 372.077 5.55349 391.416 7.29138C391.18 7.53436 391.041 7.87222 391.057 8.24016C391.089 8.94365 391.689 9.48978 392.395 9.45738C396.384 9.27225 398.691 9.03621 399.605 8.79323C400.175 8.64282 400.485 8.40215 400.628 8.24479C400.98 7.86528 401.045 7.45798 400.975 7.07153C400.931 6.83086 400.823 6.56706 400.573 6.32408C400.406 6.15746 399.999 5.90292 399.305 5.72937C391.703 3.83875 326.494 1.09189 304.804 0.703118C247.486 -0.319715 190.191 -0.527963 132.94 2.17028ZM308.307 10.0799C297.107 8.55949 283.977 8.02494 270.28 8.05965C277.257 8.46462 284.236 8.86035 291.217 9.2306C296.913 9.53375 302.61 9.79291 308.307 10.0799ZM80.1137 5.4725C65.4191 6.5555 50.7407 7.72643 36.0508 9.02233C34.3546 9.17043 32.6607 9.31622 30.9644 9.45969C47.2094 7.46957 63.6234 6.20376 80.1137 5.4725Z" fill="#C8B2D8"/>
</svg>
