<svg width="203" height="215" viewBox="0 0 203 215" fill="none" xmlns="http://www.w3.org/2000/svg">
<path fill-rule="evenodd" clip-rule="evenodd" d="M23.8974 160.49C22.0841 160.09 20.237 159.057 18.4643 157.207C12.9809 151.486 12.1866 145.908 13.8415 141.117C16.2583 134.121 23.9722 128.836 29.4492 127.362C29.7084 127.292 30.063 127.486 30.2404 127.794C30.4191 128.103 30.354 128.411 30.0948 128.481C24.7787 129.911 17.2826 135.03 14.9366 141.819C13.4172 146.219 14.0919 151.335 19.1288 156.59C20.6272 158.154 22.187 159.022 23.7207 159.364C23.5749 158.371 23.4593 157.397 23.3749 156.446C23.1428 153.819 23.851 147.474 26.1206 144.035C27.7497 141.569 30.1778 140.597 33.5 143.021C35.3464 144.368 36.2878 146.247 36.4648 148.31C36.7099 151.147 35.4733 154.362 33.3672 156.797C31.6142 158.824 29.2649 160.31 26.7147 160.624C26.1536 160.692 25.5837 160.706 25.0076 160.658C27.2953 174.499 35.317 191.566 45.8683 203.791C46.108 204.07 46.1406 204.417 45.9373 204.567C45.7353 204.717 45.3756 204.611 45.1355 204.333C34.4128 191.908 26.25 174.576 23.8974 160.49ZM24.8316 159.523C24.6966 158.59 24.5893 157.675 24.5104 156.779C24.2888 154.262 24.9673 148.185 27.1421 144.89C28.4765 142.867 30.3719 141.878 33.0948 143.864C34.5245 144.908 35.1913 146.376 35.3303 147.974C35.4813 149.731 35.0027 151.632 34.0934 153.379C32.7129 156.03 30.3356 158.323 27.5649 159.183C26.6874 159.456 25.7694 159.583 24.8316 159.523Z" fill="#C8B2D8"/>
<path fill-rule="evenodd" clip-rule="evenodd" d="M43.1439 182.1C41.9782 188.097 43.7931 196.628 46.6832 203.683C46.8162 204.007 46.6852 204.283 46.3916 204.297C46.098 204.312 45.7512 204.061 45.6182 203.736C42.6371 196.461 40.7904 187.669 41.9917 181.487C42.0452 181.21 42.3471 181.122 42.6658 181.292C42.983 181.461 43.1974 181.823 43.1439 182.1Z" fill="#C8B2D8"/>
<path fill-rule="evenodd" clip-rule="evenodd" d="M44.2577 203.641C40.7291 199.567 34.2896 195.388 29.1484 193.243C28.8631 193.124 28.6403 192.863 28.6528 192.661C28.6641 192.458 28.9039 192.39 29.1892 192.509C34.5752 194.756 41.3104 199.147 45.0073 203.416C45.2037 203.642 45.1945 203.877 44.9881 203.939C44.7805 204.001 44.4537 203.868 44.2577 203.641Z" fill="#C8B2D8"/>
<rect x="64.3823" y="108.597" width="135.57" height="5.36913" rx="2.68456" fill="#FCF2DB"/>
<path d="M178.127 108.994C189.555 97.4719 196.616 81.6119 196.616 64.1009C196.616 28.89 168.072 0.345947 132.861 0.345947C97.65 0.345947 69.105 28.89 69.105 64.1009C69.105 81.6119 76.166 97.4719 87.594 108.994H178.127Z" fill="white"/>
<path d="M76.0511 37.6568C76.2281 36.4358 76.3841 35.2928 76.3131 34.0608C74.7871 35.8148 74.1241 38.2818 74.5401 40.5668C74.0731 39.6578 73.5851 38.7598 73.0771 37.8728C73.7151 36.8618 73.7561 35.4848 73.6971 34.2888C73.6351 33.0528 73.2651 31.9368 72.4641 30.9928C71.7931 32.9168 72.0971 35.3648 72.7831 37.3608C72.1031 36.1968 71.3851 35.0538 70.6351 33.9318C70.4811 31.4358 68.9651 29.4858 66.0881 28.0808C66.6921 32.0718 69.6571 33.6928 70.4491 34.0588C71.2631 35.2748 72.0351 36.5168 72.7661 37.7838C71.2711 36.4748 69.7881 35.4218 67.9301 34.6858C68.9291 36.4488 70.8131 37.6778 72.8281 37.8908C73.4051 38.8948 73.9561 39.9128 74.4811 40.9438C72.8091 39.2338 70.5921 38.3198 68.2021 38.4628C68.8501 39.4848 69.8271 40.2938 70.9511 40.7418C72.0701 41.1868 73.3301 41.2708 74.4991 40.9788C75.0071 41.9778 75.4901 42.9888 75.9481 44.0108C74.3831 42.2048 72.1891 41.7038 69.3651 42.5058C71.9921 45.6618 75.4851 44.6318 76.1281 44.4068C76.5461 45.3578 76.9431 46.3178 77.3181 47.2868C75.5771 45.8248 73.4451 45.3468 70.9241 45.8548C73.0441 48.5398 76.7161 47.6628 77.3901 47.4738C77.9111 48.8298 78.3881 50.2018 78.8231 51.5878C76.8931 49.7248 74.6211 48.8688 72.0091 49.0208C75.1741 52.6388 78.2851 51.9648 78.8881 51.7888C79.3221 53.1868 79.7101 54.5988 80.0551 56.0208C78.0171 53.9348 75.4681 52.9378 72.4081 53.0308C75.1791 55.8698 79.3461 56.1518 80.0941 56.1798C80.3321 57.1648 80.5461 58.1558 80.7401 59.1508C79.2591 57.1348 76.9541 56.1768 73.8261 56.2778C76.7251 59.5418 80.1341 59.4418 80.7881 59.3888C81.0381 60.6988 81.2501 62.0148 81.4241 63.3368C79.4361 60.8558 76.7741 59.9748 73.4391 60.6928C76.9251 63.9878 80.7481 63.6268 81.4491 63.5278C81.6801 65.3108 81.8441 67.1018 81.9341 68.8978C80.4621 66.0648 77.8981 64.4548 74.2411 64.0648C77.4801 69.1958 81.2591 69.1998 81.9491 69.1538C82.1231 72.8688 81.9931 76.5978 81.5481 80.2928C81.5411 80.3548 81.5851 80.4108 81.6471 80.4188C81.6831 80.4228 81.7171 80.4098 81.7401 80.3858C81.7571 80.3688 81.7691 80.3458 81.7721 80.3198C82.2201 76.5928 82.3491 72.8328 82.1711 69.0868C85.6351 67.3668 87.4531 64.6528 87.6231 60.9458C83.3761 63.7688 82.3721 67.0858 82.1351 68.4758C82.0401 66.7978 81.8831 65.1238 81.6661 63.4558C85.3011 61.6588 87.2381 58.6178 87.4761 54.3328C83.3071 57.6798 81.9381 62.0478 81.6351 63.2118C81.4611 61.9088 81.2511 60.6118 81.0031 59.3208C84.0711 57.6608 85.8181 55.2668 86.2431 52.1378C82.2471 55.1278 81.1961 58.1998 80.9611 59.1088C80.7651 58.1048 80.5481 57.1048 80.3091 56.1108C83.4301 53.8788 84.9121 50.5618 84.7561 46.1608C80.5981 50.2938 80.1751 54.1538 80.1801 55.5898C79.8531 54.2748 79.4901 52.9688 79.0871 51.6758C81.6651 49.5348 82.7921 46.5658 82.4671 42.7678C78.9991 46.3328 78.8281 49.8048 78.9211 51.1588C78.5141 49.8868 78.0731 48.6248 77.5941 47.3778C79.5461 46.1008 80.5251 43.7398 80.5301 40.2938C77.6011 43.1988 77.4161 46.0168 77.4611 47.0378C77.0961 46.1038 76.7131 45.1778 76.3081 44.2608C77.1821 43.0288 77.5521 42.2298 77.9411 41.0368C78.3421 39.8098 78.2901 38.3728 78.0971 37.0958C76.6211 39.0208 75.9901 41.5948 76.1981 44.0188C75.7281 42.9628 75.2291 41.9198 74.7061 40.8898C75.4541 39.9658 75.8811 38.8378 76.0511 37.6568Z" fill="#ACA4DE"/>
<path d="M93.64 49.5869C92.03 49.9149 90.401 50.2489 88.92 50.9599C87.439 51.6719 86.098 52.8129 85.487 54.3379C84.653 56.4199 85.267 58.9159 84.23 60.9049C83.574 62.1619 82.361 63.0119 81.368 64.0239C79.15 66.2859 77.995 69.5489 78.296 72.7019C78.463 74.4539 79.053 76.1789 78.901 77.9319C78.791 79.2039 78.295 80.4039 77.885 81.6129C76.985 84.2669 76.563 87.4499 78.282 89.6629C79.408 91.1139 81.307 91.9209 82.116 93.5689C83.26 95.8999 81.828 99.1219 83.53 101.082C84.403 102.088 85.814 102.377 87.028 102.925C88.241 103.472 89.443 104.669 89.082 105.951C90.491 103.133 90.964 100.052 90.232 96.9879C89.98 95.9309 89.594 94.8939 88.968 94.0069C87.966 92.5889 86.323 91.4689 86.106 89.7469C85.884 87.9839 87.288 86.3699 87.268 84.5939C87.24 82.1949 84.673 80.3889 84.66 77.9899C84.65 75.9709 86.41 74.4619 87.465 72.7409C88.601 70.8869 88.944 68.5649 88.393 66.4619C88.013 65.0099 87.221 63.5889 87.437 62.1029C87.795 59.6399 90.698 58.2719 91.382 55.8779C91.698 54.7749 91.496 53.5939 91.618 52.4529C91.74 51.3109 92.506 49.7589 93.64 49.5869Z" fill="#BBD8A0"/>
<path d="M88.0149 102.231C87.9849 102.224 87.9579 102.202 87.9449 102.17L84.4499 93.348C83.7599 91.604 83.0449 89.802 82.6589 87.928C81.3039 81.363 81.7039 73.782 83.7869 66.581C85.2509 61.5159 87.0979 55.7349 90.4869 51.2249C90.5209 51.1799 90.5849 51.1709 90.6309 51.2049C90.6759 51.2389 90.6849 51.3029 90.6509 51.3479C87.2819 55.8299 85.4429 61.5909 83.9829 66.638C81.9099 73.808 81.5109 81.354 82.8589 87.887C83.2419 89.743 83.9529 91.537 84.6399 93.272L88.1359 102.094C88.1559 102.147 88.1309 102.206 88.0779 102.227C88.0569 102.235 88.0349 102.236 88.0149 102.231Z" fill="#62A394"/>
<path d="M69.5251 72.6328C69.2021 73.1258 68.9071 73.6308 68.8441 74.2298C68.7191 75.4078 69.3431 76.5468 70.0771 77.4198C71.0551 78.5848 72.8621 79.9948 72.6791 81.7068C72.5341 83.0558 70.9501 83.8978 70.7851 85.2438C70.6561 86.2968 71.4371 87.2198 72.1641 87.9928C72.8911 88.7648 73.6701 89.6898 73.5371 90.7418C73.4141 91.7198 72.7561 92.4788 72.7041 93.4868C72.6461 94.6078 73.1081 95.6238 73.8591 96.4538C74.6571 97.3348 75.7121 97.9458 76.7991 98.4258C77.7811 98.8588 78.8601 99.2398 79.5021 100.1C80.1961 101.031 80.2151 102.322 80.8451 103.299C81.4901 104.3 82.7881 104.834 83.9511 104.575C85.1151 104.317 86.0651 103.285 86.2261 102.104C86.3291 101.348 86.1361 100.582 86.1501 99.8178C86.1911 97.7318 87.6271 96.3888 88.6681 94.7748C89.5541 93.3998 89.4201 91.3838 88.4851 90.0768C87.6751 88.9458 86.2731 88.1108 86.1071 86.7298C85.9511 85.4278 86.9961 84.2718 87.1161 82.9658C87.3391 80.5288 84.8981 79.3928 83.2021 78.3028C82.5091 77.8588 81.8551 77.2758 81.5901 76.4968C81.0381 74.8778 82.3051 73.2458 81.6721 71.6218C81.2151 70.4498 79.9231 69.9568 78.8161 69.6188C78.0461 69.3838 77.2531 69.1698 76.5821 68.7268C75.9101 68.2838 75.3661 67.5548 75.3781 66.7498C75.3981 65.4998 76.5261 64.1978 75.2681 63.1388C74.6831 62.6458 73.8461 62.6318 73.1211 62.3858C72.1131 62.0428 71.4051 61.2348 71.0201 60.2668C70.7551 59.5988 70.5281 58.5698 69.5791 58.6028C68.1881 58.6528 68.9961 60.9098 69.0831 61.6978C69.2731 63.4208 67.1031 64.1818 67.5511 65.9708C68.0441 67.9418 71.1531 68.7848 70.3681 71.1328C70.1861 71.6748 69.8421 72.1488 69.5251 72.6328Z" fill="#80C1B0"/>
<path d="M73.2532 84.0999C73.3692 84.1859 73.3932 84.3489 73.3072 84.4649C73.2222 84.5799 73.0582 84.6049 72.9432 84.5189C72.8272 84.4329 72.8032 84.2699 72.8882 84.1539C72.9742 84.0379 73.1372 84.0139 73.2532 84.0999Z" fill="#498461"/>
<path d="M73.8841 82.5397C73.9461 82.5857 73.9591 82.6737 73.9131 82.7357C73.8671 82.7977 73.7801 82.8107 73.7181 82.7647C73.6551 82.7187 73.6421 82.6307 73.6881 82.5687C73.7341 82.5067 73.8221 82.4937 73.8841 82.5397Z" fill="#498461"/>
<path d="M74.4941 84.2129C74.5481 84.2539 74.5591 84.3299 74.5191 84.3839C74.4791 84.4379 74.4031 84.4499 74.3481 84.4099C74.2941 84.3689 74.2831 84.2929 74.3231 84.2389C74.3631 84.1849 74.4401 84.1729 74.4941 84.2129Z" fill="#498461"/>
<path d="M71.7419 69.7158C71.8279 69.7798 71.8459 69.9008 71.7819 69.9858C71.7179 70.0718 71.5969 70.0898 71.5119 70.0268C71.4259 69.9628 71.4079 69.8418 71.4709 69.7558C71.5349 69.6698 71.6559 69.6518 71.7419 69.7158Z" fill="#498461"/>
<path d="M69.727 63.5808C69.811 63.6438 69.828 63.7618 69.766 63.8448C69.704 63.9288 69.586 63.9468 69.502 63.8848C69.419 63.8228 69.401 63.7038 69.463 63.6208C69.525 63.5368 69.643 63.5188 69.727 63.5808Z" fill="#498461"/>
<path d="M73.9109 64.2628C73.9769 64.3128 73.9909 64.4068 73.9419 64.4738C73.8919 64.5408 73.7979 64.5548 73.7319 64.5048C73.6649 64.4558 73.6509 64.3618 73.6999 64.2948C73.7499 64.2278 73.8439 64.2138 73.9109 64.2628Z" fill="#498461"/>
<path d="M80.4449 73.3168C80.5419 73.3898 80.5629 73.5278 80.4909 73.6258C80.4179 73.7228 80.2799 73.7438 80.1819 73.6708C80.0849 73.5988 80.0639 73.4608 80.1369 73.3628C80.2089 73.2648 80.3469 73.2448 80.4449 73.3168Z" fill="#498461"/>
<path d="M83.0649 79.7708C83.1499 79.8338 83.1679 79.9538 83.1049 80.0378C83.0419 80.1228 82.9219 80.1408 82.8379 80.0778C82.7529 80.0148 82.7349 79.8958 82.7979 79.8108C82.8609 79.7258 82.9799 79.7078 83.0649 79.7708Z" fill="#498461"/>
<path fill-rule="evenodd" clip-rule="evenodd" d="M75.5859 63.4758L73.0779 69.8398C73.4039 70.8008 73.7299 71.7538 74.0569 72.6998L75.3249 70.5648C75.1439 70.4188 75.1079 70.1538 75.2469 69.9658C75.3909 69.7718 75.6639 69.7318 75.8579 69.8748C76.0509 70.0178 76.0909 70.2918 75.9479 70.4848C75.8429 70.6268 75.6669 70.6858 75.5039 70.6508L74.1419 72.9448C74.5709 74.1808 75.0009 75.4028 75.4319 76.6128L79.4799 69.8388C79.5429 69.8618 79.6059 69.8858 79.6679 69.9108L75.5179 76.8538C77.5469 82.5378 79.6069 87.9408 81.7149 93.1078L86.4729 80.7708C86.5209 80.8338 86.5659 80.8978 86.6099 80.9638L81.8239 93.3738C82.4469 94.8968 83.0739 96.3998 83.7059 97.8828L87.8889 89.3678C87.9379 89.4198 87.9849 89.4718 88.0329 89.5238L83.8079 98.1228C84.3349 99.3598 84.8659 100.583 85.4009 101.794C85.4159 101.828 85.4099 101.865 85.3899 101.893C85.3799 101.906 85.3669 101.917 85.3509 101.924C85.3009 101.946 85.2419 101.924 85.2199 101.874C84.3999 100.018 83.5889 98.1298 82.7849 96.2118L73.5519 90.4858C73.5519 90.4038 73.5459 90.3228 73.5349 90.2428L82.6529 95.8968C82.3099 95.0768 81.9689 94.2508 81.6289 93.4188C81.6269 93.4158 81.6259 93.4128 81.6249 93.4098C81.3399 92.7128 81.0559 92.0098 80.7719 91.3028L70.7839 85.2688C70.7839 85.2608 70.7849 85.2528 70.7859 85.2438C70.7939 85.1818 70.8049 85.1198 70.8189 85.0598L80.6499 90.9988C79.5679 88.2958 78.4979 85.5298 77.4389 82.6918L70.5049 77.8978C70.3519 77.7338 70.2079 77.5748 70.0779 77.4198C70.0409 77.3758 70.0039 77.3308 69.9679 77.2858L77.3179 82.3678C77.1539 81.9258 76.9889 81.4828 76.8249 81.0368L69.0709 75.7688C69.0319 75.6668 68.9979 75.5638 68.9679 75.4588L76.7079 80.7178C76.2439 79.4568 75.7819 78.1828 75.3219 76.8928C75.3169 76.8838 75.3129 76.8728 75.3109 76.8628C74.8539 75.5828 74.3989 74.2898 73.9459 72.9808C73.9409 72.9718 73.9379 72.9628 73.9359 72.9528C73.5839 71.9388 73.2339 70.9158 72.8839 69.8838C72.8789 69.8758 72.8759 69.8658 72.8739 69.8568C72.6649 69.2378 72.4549 68.6158 72.2459 67.9898L67.6089 64.8428C67.6319 64.7798 67.6579 64.7178 67.6859 64.6568L72.1419 67.6808C71.1649 64.7558 70.1939 61.7578 69.2249 58.6818C69.2809 58.6548 69.3439 58.6348 69.4139 58.6218C70.5959 62.3778 71.7839 66.0168 72.9789 69.5498L75.4419 63.3028C75.4959 63.3598 75.5439 63.4178 75.5859 63.4758ZM75.4559 70.4168C75.5619 70.4948 75.7109 70.4728 75.7889 70.3668C75.8679 70.2618 75.8449 70.1118 75.7399 70.0338C75.6339 69.9548 75.4849 69.9778 75.4059 70.0828C75.3279 70.1888 75.3499 70.3378 75.4559 70.4168Z" fill="#498461"/>
<path fill-rule="evenodd" clip-rule="evenodd" d="M71.972 75.3627C71.779 75.2197 71.738 74.9457 71.881 74.7527C72.024 74.5597 72.298 74.5187 72.491 74.6617C72.685 74.8047 72.725 75.0787 72.582 75.2717C72.439 75.4647 72.165 75.5057 71.972 75.3627ZM72.09 75.2037C72.195 75.2817 72.345 75.2597 72.423 75.1537C72.501 75.0487 72.479 74.8987 72.374 74.8207C72.268 74.7427 72.118 74.7647 72.04 74.8707C71.962 74.9757 71.984 75.1257 72.09 75.2037Z" fill="#498461"/>
<path d="M73.9532 67.7909C73.7442 69.5769 76.3542 70.4039 76.6272 72.1819C76.8822 73.8479 76.0472 75.0309 76.2892 76.6989C76.7462 79.8479 80.4922 81.4539 81.6962 84.3979C82.6182 86.6519 81.8952 89.3149 82.7832 91.5819C84.2762 95.3969 89.6572 96.6389 90.9182 100.536C91.5212 102.4 91.0072 104.437 91.2572 106.38C91.4062 107.543 91.8272 108.651 92.2442 109.747C89.9202 107.852 87.3982 106.199 84.7322 104.825C83.2312 104.052 81.5822 103.271 80.7902 101.779C80.3402 100.932 80.2252 99.9479 79.8842 99.0509C78.9942 96.7069 76.7242 95.2449 74.7302 93.7259C72.7362 92.2069 70.7462 90.1309 70.8702 87.6279C70.9162 86.6839 71.2692 85.7779 71.3552 84.8369C71.5482 82.7229 70.4022 80.7529 69.4772 78.8409C68.5522 76.9299 67.8272 74.6239 68.8162 72.7449C69.4462 71.5489 70.7462 70.5469 70.6002 69.2039C70.5112 68.3929 69.8862 67.7099 69.8302 66.8959C69.6962 64.9939 72.0922 63.3659 72.5202 61.9099C72.3502 63.7089 74.4002 63.9659 73.9532 67.7909Z" fill="#62A394"/>
<path d="M90.8971 107.947C90.8591 107.947 90.8211 107.932 90.7941 107.902C81.0781 96.4651 71.5211 84.9221 71.9811 64.7541C71.9831 64.6791 72.0451 64.6211 72.1201 64.6211C72.1221 64.6211 72.1231 64.6211 72.1251 64.6211C72.2021 64.6241 72.2611 64.6881 72.2591 64.7651C71.7051 84.7431 81.4481 95.6141 90.9991 107.714C91.0471 107.774 91.0481 107.858 90.9911 107.91C90.9641 107.935 90.9301 107.947 90.8971 107.947Z" fill="#BBD8A0"/>
<path d="M78.018 107.013C81.814 109.332 87.559 109.542 91.918 108.658C89.941 104.945 85.896 102.001 84.185 101.12C82.243 100.121 80.032 99.7249 77.848 99.6989C75.663 99.6739 73.482 100.148 71.333 100.536C73.153 103.074 75.353 105.384 78.018 107.013Z" fill="#BBD8A0"/>
<path d="M74.0813 100.042C74.0413 100.048 74.0003 100.055 73.9603 100.062L75.4513 102.379C75.0903 102.217 74.7243 102.051 74.3533 101.883L73.1673 100.2C73.1263 100.207 73.0853 100.214 73.0443 100.222L74.1493 101.789C73.5963 101.536 73.0343 101.276 72.4623 101.008C72.4623 101.003 72.4613 100.999 72.4603 100.994C72.4583 100.989 72.4563 100.983 72.4523 100.978L72.0513 100.405C72.0103 100.412 71.9693 100.42 71.9283 100.428L72.2723 100.919C71.9933 100.788 71.7123 100.654 71.4283 100.519C71.3963 100.525 71.3643 100.531 71.3333 100.537C71.3563 100.569 71.3793 100.6 71.4023 100.632C71.8863 100.863 72.3643 101.088 72.8363 101.307L72.0383 101.483C72.0643 101.516 72.0903 101.549 72.1163 101.582L73.0043 101.386C73.4383 101.587 73.8653 101.784 74.2873 101.977C74.2913 101.979 74.2943 101.98 74.2983 101.982C74.7293 102.178 75.1533 102.369 75.5723 102.556C75.5773 102.56 75.5823 102.562 75.5883 102.564C75.8463 102.679 76.1033 102.793 76.3563 102.905L73.7953 103.539C73.8253 103.57 73.8553 103.602 73.8853 103.633L76.5263 102.98C76.7443 103.075 76.9603 103.17 77.1743 103.263L74.3333 104.09C74.3633 104.121 74.3943 104.151 74.4253 104.181L77.3373 103.334C77.8353 103.55 78.3243 103.759 78.8043 103.962C78.8123 103.968 78.8213 103.972 78.8313 103.974C79.1373 104.103 79.4403 104.23 79.7383 104.354L76.0793 105.65C76.1143 105.678 76.1493 105.705 76.1843 105.733L79.8953 104.419C80.6243 104.721 81.3313 105.008 82.0153 105.28C82.0243 105.287 82.0343 105.291 82.0463 105.292C82.5463 105.491 83.0343 105.682 83.5103 105.865L78.9993 107.546C79.0463 107.569 79.0933 107.592 79.1413 107.614L83.6703 105.926C83.9033 106.015 84.1343 106.103 84.3623 106.189L79.8933 107.936C79.9453 107.957 79.9973 107.977 80.0503 107.997L84.5203 106.249C84.8553 106.375 85.1833 106.496 85.5043 106.614C85.5133 106.621 85.5243 106.625 85.5353 106.626C85.9783 106.788 86.4073 106.943 86.8243 107.09L82.7723 108.756C82.8403 108.769 82.9083 108.782 82.9763 108.794L86.9733 107.151C86.9763 107.15 86.9793 107.148 86.9813 107.146C87.1363 107.2 87.2883 107.254 87.4383 107.306C87.4463 107.311 87.4553 107.315 87.4653 107.315C87.6633 107.384 87.8593 107.452 88.0513 107.517L84.5413 109.016C84.6193 109.024 84.6973 109.032 84.7753 109.039L88.2113 107.572C89.5393 108.024 90.7103 108.395 91.7223 108.698C91.7873 108.685 91.8533 108.673 91.9183 108.659C91.9133 108.651 91.9093 108.643 91.9043 108.634C91.8723 108.625 91.8403 108.615 91.8073 108.606C90.6043 108.246 89.1693 107.789 87.5133 107.212L85.7053 102.056C85.6513 102.019 85.5993 101.983 85.5473 101.948L87.3763 107.165C86.8043 106.965 86.2053 106.751 85.5813 106.522L83.5303 100.812C83.4833 100.791 83.4363 100.771 83.3883 100.751L85.4433 106.471C84.3973 106.086 83.2793 105.66 82.0913 105.188L79.7593 99.8231C79.7163 99.8181 79.6733 99.8131 79.6293 99.8081L81.9423 105.129C80.9673 104.741 79.9453 104.322 78.8783 103.871L76.8073 99.7241C76.7663 99.7261 76.7253 99.7281 76.6843 99.7311L78.7183 103.803C77.7313 103.385 76.7053 102.939 75.6413 102.463L74.0813 100.042Z" fill="#62A394"/>
<path d="M114.522 112.496C112.346 109.582 108.891 107.629 105.258 107.346C103.391 107.201 101.499 107.467 99.6491 107.181C97.4191 106.836 95.3892 105.713 93.2142 105.112C87.7922 103.613 82.0622 105.456 76.7882 107.411C74.7332 108.172 72.6082 108.964 70.4512 109.171C68.9182 109.319 67.5672 110.243 66.8382 111.6L66.3582 112.496H114.522Z" fill="#FCF2DB"/>
<path d="M171.14 105.008C170.446 104.304 170.247 103.265 170.086 102.29C169.884 101.072 169.699 99.7809 170.164 98.6379C170.642 97.4599 171.72 96.6569 172.588 95.7279C173.601 94.6439 174.372 93.3068 174.655 91.8498C174.818 91.0148 174.82 90.1548 174.996 89.3238C175.376 87.5308 176.575 85.9598 178.124 84.9818C180.36 83.5698 183.471 83.1328 184.687 80.7838C185.526 79.1638 185.176 77.0308 186.326 75.6148C187.481 74.1928 189.706 74.0648 190.92 72.6948C191.815 71.6848 191.962 70.2338 192.527 69.0098C193.185 67.5838 194.458 66.4558 195.953 65.9748C196.69 65.7378 197.47 65.6528 198.2 65.3988C198.931 65.1448 199.645 64.6708 199.911 63.9448C200.418 64.6428 200.216 65.6118 199.85 66.3928C199.484 67.1738 198.934 67.8698 198.666 68.6898C198.166 70.2198 198.715 71.9688 198.108 73.4598C197.453 75.0718 195.63 75.9408 194.859 77.5008C194.131 78.9768 194.484 80.7578 194.043 82.3438C193.386 84.7048 191.058 86.3548 190.536 88.7498C190.096 90.7718 191.012 93.0688 189.973 94.8588C189.292 96.0318 187.908 96.6829 187.295 97.8929C186.549 99.3629 187.162 101.166 186.784 102.77C186.396 104.416 185.004 105.652 183.504 106.432C179.548 108.489 174.271 108.182 171.14 105.008Z" fill="#BBD8A0"/>
<path d="M173.071 100.695C173.07 100.695 173.068 100.695 173.067 100.695C172.994 100.698 172.933 100.642 172.93 100.569C172.859 98.8639 174.513 97.6829 175.227 97.2549C175.57 97.0489 175.932 96.8579 176.282 96.6739C177.122 96.2319 177.991 95.7749 178.633 95.0799C179.258 94.4039 179.645 93.5309 180.018 92.6849C180.382 91.8619 180.759 91.0099 181.36 90.3169C181.899 89.6959 182.598 89.2269 183.274 88.7739C184.152 88.1849 184.981 87.6289 185.492 86.7669C185.828 86.2019 185.994 85.5369 186.154 84.8939C186.331 84.1869 186.513 83.4559 186.921 82.8309C187.311 82.2339 187.877 81.7829 188.424 81.3469C189.022 80.8689 189.587 80.4189 189.949 79.7919C190.314 79.1579 190.406 78.4599 190.503 77.7209C190.578 77.1489 190.655 76.5579 190.872 76.0049C191.319 74.8679 192.299 74.1179 193.265 73.4469C194.723 72.4339 195.227 71.9559 195.62 70.1579C195.773 69.4609 195.98 68.7419 196.453 68.2079C196.758 67.8639 197.15 67.6229 197.529 67.3889C197.66 67.3089 197.795 67.2249 197.923 67.1399C198.411 66.8139 199.404 65.9429 199.49 65.4079C199.501 65.3369 199.568 65.2879 199.64 65.2999C199.711 65.3109 199.76 65.3779 199.748 65.4499C199.643 66.1079 198.55 67.0349 198.068 67.3569C197.936 67.4459 197.799 67.5299 197.666 67.6119C197.287 67.8459 196.929 68.0669 196.649 68.3819C196.194 68.8949 196.011 69.5969 195.876 70.2139C195.465 72.0949 194.906 72.6259 193.415 73.6619C192.482 74.3099 191.536 75.0319 191.116 76.1009C190.911 76.6239 190.835 77.1989 190.762 77.7549C190.666 78.4869 190.567 79.2439 190.175 79.9229C189.789 80.5929 189.178 81.0799 188.588 81.5509C188.057 81.9749 187.508 82.4129 187.14 82.9749C186.757 83.5619 186.587 84.2399 186.408 84.9579C186.243 85.6189 186.073 86.3029 185.718 86.9009C185.177 87.8129 184.283 88.4119 183.42 88.9919C182.758 89.4349 182.074 89.8939 181.557 90.4889C180.982 91.1519 180.614 91.9849 180.258 92.7909C179.875 93.6559 179.48 94.5499 178.826 95.2579C178.153 95.9849 177.264 96.4529 176.404 96.9059C176.057 97.0879 175.699 97.2769 175.361 97.4789C174.687 97.8839 173.127 98.9929 173.192 100.559C173.195 100.629 173.141 100.689 173.071 100.695Z" fill="#62A394"/>
<path d="M189.613 87.7938C184.517 92.3538 181.66 100.718 181.029 107.527C187.372 106.262 193.5 101.613 195.554 99.4838C197.886 97.0668 199.449 93.9888 200.455 90.7838C201.461 87.5798 201.73 84.1588 202.112 80.8218C197.568 82.3778 193.193 84.5918 189.613 87.7938Z" fill="#80C1B0"/>
<path d="M201.622 85.0878C201.63 85.0258 201.639 84.9628 201.647 84.8998L197.574 86.0688C197.973 85.6088 198.379 85.1428 198.791 84.6728L201.795 83.6718C201.802 83.6078 201.81 83.5438 201.817 83.4808L199.02 84.4128C199.637 83.7118 200.269 82.9988 200.918 82.2758C200.925 82.2768 200.931 82.2788 200.938 82.2788C200.947 82.2788 200.957 82.2778 200.966 82.2748L201.987 81.9378C201.994 81.8738 202.001 81.8108 202.008 81.7478L201.133 82.0358C201.45 81.6838 201.77 81.3278 202.095 80.9698C202.101 80.9208 202.106 80.8718 202.112 80.8218C202.055 80.8418 201.998 80.8618 201.94 80.8818C201.386 81.4928 200.843 82.0968 200.311 82.6928L200.405 81.4418C200.345 81.4648 200.285 81.4878 200.225 81.5118L200.12 82.9068C199.632 83.4548 199.152 83.9978 198.682 84.5338C198.677 84.5378 198.673 84.5428 198.67 84.5478C198.19 85.0938 197.72 85.6338 197.259 86.1668C197.252 86.1728 197.246 86.1808 197.241 86.1878C196.957 86.5178 196.676 86.8438 196.399 87.1678L196.601 83.1158C196.541 83.1458 196.482 83.1758 196.422 83.2068L196.213 87.3848C195.976 87.6628 195.741 87.9388 195.508 88.2138L195.551 83.6638C195.492 83.6958 195.434 83.7278 195.376 83.7598L195.332 88.4218C194.793 89.0588 194.268 89.6858 193.757 90.3028C193.745 90.3118 193.735 90.3228 193.729 90.3368C193.402 90.7308 193.081 91.1198 192.766 91.5048L192.48 85.5428C192.424 85.5818 192.368 85.6208 192.312 85.6608L192.601 91.7058C191.832 92.6458 191.097 93.5598 190.394 94.4458C190.38 94.4558 190.369 94.4698 190.362 94.4858C189.848 95.1348 189.351 95.7688 188.871 96.3878L188.395 89.0008C188.34 89.0598 188.286 89.1198 188.232 89.1798L188.71 96.5958C188.474 96.8998 188.242 97.2008 188.015 97.4988L187.424 90.1448C187.371 90.2118 187.318 90.2798 187.266 90.3488L187.857 97.7048C187.523 98.1418 187.199 98.5708 186.883 98.9908C186.869 99.0008 186.858 99.0158 186.852 99.0318C186.418 99.6118 185.999 100.176 185.597 100.723L184.942 94.0198C184.892 94.1138 184.843 94.2088 184.794 94.3038L185.441 100.916C185.442 100.921 185.444 100.926 185.445 100.931C185.297 101.133 185.151 101.334 185.007 101.532C184.996 101.542 184.987 101.554 184.982 101.567C184.792 101.829 184.606 102.086 184.424 102.34L183.774 96.5088C183.727 96.6198 183.681 96.7308 183.636 96.8428L184.273 102.552C183.019 104.306 181.953 105.867 181.059 107.221C181.049 107.323 181.039 107.425 181.029 107.527C181.044 107.524 181.058 107.521 181.072 107.518C181.101 107.475 181.129 107.432 181.157 107.388C182.22 105.776 183.529 103.867 185.112 101.684L193.505 101.307C193.583 101.245 193.659 101.184 193.734 101.123L185.243 101.504C185.791 100.75 186.371 99.9628 186.985 99.1458L196.3 98.6578C196.351 98.5968 196.402 98.5358 196.452 98.4748L187.121 98.9638C188.151 97.5948 189.274 96.1378 190.495 94.5988L199.427 93.5438C199.454 93.4818 199.48 93.4208 199.507 93.3588L190.648 94.4058C191.652 93.1428 192.721 91.8238 193.859 90.4528L200.882 89.2408C200.897 89.1798 200.912 89.1188 200.926 89.0568L194.03 90.2468C195.083 88.9788 196.195 87.6658 197.366 86.3098L201.622 85.0878Z" fill="#498461"/>
<path d="M179.414 80.486C179.666 78.137 180.999 76.025 182.622 74.309C183.74 73.126 185.003 72.094 186.255 71.058C187.297 70.196 188.836 69.233 189.143 67.817C189.384 66.702 188.691 65.478 187.513 65.326C186.357 65.176 185.66 65.982 184.979 66.777C184.564 67.261 183.985 67.881 183.341 68.035C182.408 68.257 181.882 67.275 182.111 66.443C183.079 62.923 186.538 60.086 189.596 58.366C190.269 57.986 190.969 57.643 191.581 57.171C192.849 56.194 193.707 54.267 192.529 52.871C191.834 52.048 190.563 51.776 189.591 52.242C188.381 52.823 187.842 54.267 186.768 55.074C186.618 55.187 186.452 55.288 186.267 55.319C185.781 55.4 185.333 54.937 185.269 54.449C185.125 53.355 186.185 52.119 186.871 51.377C187.665 50.518 188.635 49.818 189.707 49.348C190.568 48.971 191.505 48.628 192.113 47.873C192.898 46.897 192.152 45.634 190.95 45.703C190.258 45.743 189.676 46.168 188.992 46.24C187.786 46.368 188.735 44.72 189.018 44.33C189.539 43.609 190.288 43.004 190.727 42.229C191.297 41.225 191.464 39.32 190.249 38.789C188.72 38.121 187.481 39.325 187.276 41.175C187.132 42.485 187.319 43.852 186.923 45.128C186.591 46.198 185.016 47.971 184.391 46.104C184.173 45.452 183.848 44.837 183.432 44.29C183.024 43.754 182.466 43.255 181.793 43.223C180.815 43.178 180.052 44.179 179.975 45.155C179.898 46.13 180.308 47.069 180.681 47.974C181.986 51.14 182.927 54.719 181.805 57.954C181.636 58.441 181.375 58.959 180.89 59.134C180.38 59.319 179.798 59.037 179.457 58.615C178.376 57.277 178.395 55.463 177.536 54.02C176.703 52.622 174.916 51.845 173.729 53.33C172.185 55.26 173.639 57.916 174.693 59.704C176.126 62.134 177.481 64.698 178.501 67.334C178.811 68.134 178.908 69.916 177.512 69.36C176.466 68.943 175.649 68.119 174.626 67.66C172.194 66.569 170.601 69.075 171.825 71.178C173.024 73.239 175.559 73.983 177.258 75.517C178.672 76.792 179.182 78.797 179.513 80.672" fill="#ACA4DE"/>
<path d="M173.625 69.4969C173.668 69.4419 173.748 69.4319 173.804 69.4749C174.173 69.7619 174.543 70.0289 174.9 70.2869C175.984 71.0709 177.008 71.8109 177.843 72.9599C178.76 74.2239 179.328 75.4089 179.583 76.6059C179.64 75.8639 179.706 75.1229 179.781 74.3829C180.167 67.9239 178.913 61.9169 176.109 56.8929C176.074 56.8309 176.097 56.7529 176.158 56.7189C176.22 56.6839 176.297 56.7069 176.332 56.7679C178.757 61.1129 180.032 66.1829 180.101 71.6429C180.742 66.8179 181.776 62.0449 183.188 57.3859C183.189 57.3819 183.188 57.3779 183.189 57.3739C184.229 53.6699 183.873 48.9699 182.303 45.6799C182.273 45.6159 182.3 45.5399 182.363 45.5099C182.427 45.4789 182.503 45.5059 182.534 45.5699C183.822 48.2709 184.306 51.9049 183.887 55.1839C184.321 53.8749 184.785 52.5759 185.278 51.2879C185.282 51.2769 185.284 51.2659 185.29 51.2549C185.291 51.2549 185.291 51.2549 185.291 51.2539C186.592 47.8659 188.096 44.5569 189.801 41.3539C189.834 41.2919 189.912 41.2689 189.974 41.3019C190.036 41.3349 190.06 41.4119 190.027 41.4739C188.484 44.3709 187.107 47.3549 185.897 50.4059C187.025 48.9999 188.679 47.7499 190.416 47.0259C190.481 46.9989 190.556 47.0299 190.583 47.0949C190.61 47.1599 190.579 47.2339 190.514 47.2619C188.488 48.1069 186.577 49.6799 185.52 51.3709C183.883 55.6399 182.572 60.0349 181.604 64.5049C183.727 59.7009 186.514 56.8129 190.521 55.2259C190.587 55.1999 190.661 55.2319 190.687 55.2979C190.713 55.3629 190.681 55.4379 190.615 55.4639C186.348 57.1539 183.483 60.3519 181.327 65.8309C180.758 68.6649 180.327 71.5269 180.035 74.4019C180.019 74.6819 179.999 74.9639 179.976 75.2459C181.107 71.8069 183.322 69.5269 186.856 68.1319C186.922 68.1059 186.995 68.1389 187.021 68.2039C187.047 68.2699 187.015 68.3439 186.949 68.3699C183.03 69.9169 180.767 72.5779 179.829 76.7429C179.713 78.2959 179.636 79.8509 179.603 81.4079C179.601 81.4739 179.55 81.5279 179.485 81.5329C179.481 81.5329 179.477 81.5329 179.472 81.5329C179.402 81.5309 179.346 81.4729 179.347 81.4029C179.371 80.2729 179.42 79.1439 179.488 78.0159C179.487 78.0129 179.486 78.0109 179.486 78.0079C179.465 76.3749 178.877 74.8179 177.636 73.1099C176.825 71.9939 175.818 71.2659 174.751 70.4939C174.391 70.2349 174.019 69.9659 173.647 69.6769C173.592 69.6329 173.582 69.5529 173.625 69.4969Z" fill="#D5EBC1"/>
<path d="M192.765 55.0779C187.065 58.7299 182.96 64.7829 181.674 71.4289C185.554 65.8549 189.154 60.7169 192.765 55.0779Z" fill="#62A394"/>
<path d="M179.058 78.8539C178.418 76.9409 178.213 74.9099 178.147 72.8939C178.078 70.8079 178.155 68.7069 178.564 66.6609C178.973 64.6139 179.724 62.6179 180.922 60.9089C180.922 63.6109 180.647 66.2629 180.291 68.9419C179.863 72.1709 179.486 75.6249 179.058 78.8539Z" fill="#62A394"/>
<path d="M179.294 78.4219C182.184 73.2859 185.768 68.5409 189.918 64.356C187.438 69.8869 183.884 74.4619 179.294 78.4219Z" fill="#80C1B0"/>
<path d="M177.818 84.5718C174.607 78.6828 173.379 71.7348 174.377 65.1018C175.975 71.6108 177.125 77.9048 177.818 84.5718Z" fill="#80C1B0"/>
<path d="M177.609 84.806C180.334 78.891 184.54 73.666 189.736 69.74C186.856 75.632 182.743 80.724 177.609 84.806Z" fill="#62A394"/>
<path d="M176.811 90.102C178.635 86.22 185.317 78.993 189.952 75.698C187.688 80.765 181.162 87.325 176.811 90.102Z" fill="#80C1B0"/>
<path d="M176.82 90.2049C172.205 84.8399 169.773 77.6509 170.182 70.5869C173.381 76.7239 175.548 83.4019 176.82 90.2049Z" fill="#62A394"/>
<path d="M176.064 97.1379C170.612 92.1649 167.22 84.9979 166.831 77.6279C168.482 79.7119 170.966 84.8039 172.131 87.1939C174.147 91.3289 174.521 92.8039 176.064 97.1379Z" fill="#80C1B0"/>
<path d="M191.047 83.9009C185.223 86.8939 180.099 91.2399 176.196 96.4969C177.818 96.0889 182.053 93.1389 183.351 92.0829C184.649 91.0269 187.689 87.9399 191.047 83.9009Z" fill="#62A394"/>
<path d="M175.522 107.24C175.295 99.159 175.826 91.0229 177.648 83.1469C179.47 75.2709 182.609 67.648 187.316 61.075C182.786 67.907 179.907 75.9349 178.282 83.9699C176.658 92.0039 176.377 100.276 177.014 108.448C176.806 108.205 175.73 107.483 175.522 107.24Z" fill="#498461"/>
<path d="M179.172 78.5839C178.95 77.3929 178.801 76.1869 178.726 74.9759C178.648 73.7649 178.643 72.5489 178.7 71.3359C178.762 70.1239 178.887 68.9139 179.083 67.7169C179.277 66.5189 179.544 65.3329 179.883 64.1699C179.622 65.3529 179.41 66.5439 179.243 67.7409C179.08 68.9379 178.965 70.1409 178.907 71.3459C178.846 72.5519 178.842 73.7609 178.887 74.9679C178.934 76.1749 179.029 77.3809 179.172 78.5839Z" fill="#498461"/>
<path d="M179.262 78.108C179.957 77.308 180.648 76.505 181.336 75.701C182.021 74.894 182.701 74.084 183.37 73.264C184.042 72.447 184.702 71.62 185.358 70.789C186.012 69.957 186.662 69.122 187.31 68.282C186.728 69.168 186.12 70.037 185.487 70.888C184.856 71.74 184.201 72.574 183.531 73.396C182.857 74.215 182.168 75.021 181.457 75.807C180.748 76.595 180.016 77.362 179.262 78.108Z" fill="#498461"/>
<path d="M177.946 84.1359C178.621 83.4069 179.287 82.6699 179.942 81.9239C180.595 81.1769 181.237 80.4209 181.862 79.6509C182.489 78.8819 183.097 78.0989 183.695 77.3069C184.291 76.5139 184.877 75.7119 185.453 74.9009C184.944 75.7559 184.402 76.5909 183.826 77.4029C183.253 78.2159 182.649 79.0079 182.022 79.7809C181.393 80.5519 180.741 81.3059 180.062 82.0329C179.384 82.7619 178.678 83.4629 177.946 84.1359Z" fill="#498461"/>
<path d="M177.694 84.0189C176.866 81.6729 176.207 79.2669 175.706 76.8279C175.21 74.3879 174.87 71.9149 174.73 69.4319C174.882 70.6659 175.053 71.8959 175.245 73.1229C175.441 74.3489 175.659 75.5709 175.909 76.7859C176.156 78.0029 176.435 79.2119 176.734 80.4169C177.036 81.6219 177.357 82.8219 177.694 84.0189Z" fill="#498461"/>
<path d="M176.661 89.7419C176.065 88.6779 175.515 87.5859 175.013 86.4729C174.508 85.3609 174.05 84.2269 173.632 83.0799C173.216 81.9309 172.84 80.7679 172.514 79.5909C172.185 78.4149 171.907 77.2249 171.68 76.0259C171.985 77.2069 172.315 78.3799 172.669 79.5449C173.026 80.7099 173.409 81.8649 173.826 83.0089C174.24 84.1539 174.688 85.2859 175.161 86.4079C175.637 87.5289 176.137 88.6409 176.661 89.7419Z" fill="#498461"/>
<path d="M176.988 89.6979C177.423 89.2679 177.875 88.8579 178.304 88.4229C178.521 88.2079 178.742 87.998 178.957 87.781L179.603 87.1339C180.46 86.2649 181.314 85.394 182.149 84.504C182.989 83.619 183.818 82.7239 184.643 81.8239C185.465 80.9219 186.286 80.019 187.099 79.106C186.348 80.07 185.566 81.0099 184.764 81.9319C183.962 82.8549 183.138 83.7569 182.3 84.6469C181.46 85.5349 180.598 86.4019 179.716 87.2489C178.837 88.0979 177.923 88.9109 176.988 89.6979Z" fill="#498461"/>
<path d="M176.265 96.5089C176.684 96.1529 177.106 95.8009 177.519 95.4379L178.767 94.3609L181.267 92.2099C182.103 91.4959 182.939 90.7829 183.781 90.0759C184.622 89.3669 185.469 88.6669 186.325 87.9749C185.522 88.7279 184.71 89.4689 183.887 90.1989C183.066 90.9299 182.235 91.6509 181.401 92.3679C180.564 93.0809 179.724 93.7899 178.871 94.4849C178.019 95.1799 177.157 95.8659 176.265 96.5089Z" fill="#498461"/>
<path d="M176.064 97.1382C175.349 96.1082 174.674 95.0512 174.027 93.9772C173.378 92.9042 172.761 91.8122 172.167 90.7072C171.577 89.6002 171.021 88.4752 170.501 87.3342C169.985 86.1902 169.519 85.0232 169.116 83.8372C169.367 84.4122 169.592 84.9952 169.86 85.5622C170.108 86.1362 170.383 86.6982 170.647 87.2652L171.061 88.1072L171.269 88.5282L171.483 88.9452C171.627 89.2232 171.764 89.5042 171.911 89.7802L172.35 90.6102C172.939 91.7142 173.547 92.8082 174.166 93.8962C174.477 94.4392 174.789 94.9822 175.106 95.5212C175.418 96.0642 175.743 96.6002 176.064 97.1382Z" fill="#498461"/>
<path d="M182.047 103.004C182.699 101.87 183.351 100.736 184.003 99.6019C184.539 98.6699 185.093 97.6729 185.055 96.5979C185.003 95.1329 183.858 93.7039 184.358 92.3259C184.703 91.3759 185.747 90.7939 186.027 89.8219C186.411 88.4859 185.183 87.1839 185.21 85.7929C185.229 84.8539 185.815 84.0239 186.025 83.1079C186.235 82.1919 185.755 80.9469 184.817 81.0059C184.146 81.0489 183.713 81.7489 183.565 82.4049C183.417 83.0609 183.428 83.7689 183.104 84.3579C182.423 85.5959 180.666 85.7109 179.614 86.6549C177.941 88.1549 178.588 91.1389 177.036 92.7649C176.268 93.5699 175.046 93.9269 174.501 94.8979C173.832 96.0869 174.473 97.6729 173.866 98.8939C173.485 99.6609 172.694 100.12 172.096 100.733C170.778 102.085 170.485 104.325 171.412 105.97C172.312 107.567 174.801 108.737 176.637 108.459C179.154 108.078 180.914 104.973 182.047 103.004Z" fill="#62A394"/>
<path d="M184.873 83.0228C184.918 83.0018 184.971 82.9978 185.022 83.0158C185.122 83.0528 185.173 83.1638 185.136 83.2628C182.026 91.7078 178.234 99.9788 173.866 107.847C173.815 107.94 173.698 107.973 173.605 107.922C173.512 107.87 173.478 107.753 173.53 107.66C177.888 99.8088 181.671 91.5558 184.775 83.1298C184.793 83.0808 184.829 83.0438 184.873 83.0228Z" fill="#BBD8A0"/>
<path d="M194.231 106.706C192.414 104.791 189.543 104.289 186.906 104.419C184.269 104.549 181.665 105.199 179.026 105.142C176.908 105.097 174.817 104.597 172.699 104.587C166.915 104.561 161.804 108.112 157.128 111.516C159.311 111.524 161.493 111.533 163.676 111.542L198.63 111.535L194.231 106.706Z" fill="#FCF2DB"/>
<path d="M121.396 108.741L124.113 110.237C124.401 110.396 124.576 110.759 124.487 111.103C124.416 111.375 124.184 111.583 123.579 111.595C122.684 111.613 120.254 111.291 116.291 110.631V111.395L113.513 111.402C113.397 108.773 113.619 107.287 114.179 106.944L121.396 108.741Z" fill="#3B3B5B"/>
<path d="M117.755 106.301L121.396 108.741C121.084 109.637 120.236 109.786 118.853 109.189C117.47 108.592 115.912 107.844 114.179 106.944L114.558 105.921L117.755 106.301Z" fill="#E8AF94"/>
<path d="M114.558 105.921L114.179 94.6008L117.788 94.8398V107.476L114.558 105.921Z" fill="#E8AF94"/>
<path d="M90.4863 108.741L87.7693 110.237C87.4813 110.396 87.3063 110.759 87.3963 111.103C87.4663 111.375 87.6983 111.583 88.3033 111.595C89.1983 111.613 91.6283 111.291 95.5913 110.631V111.429L98.3303 111.395C98.4723 108.771 98.2633 107.287 97.7033 106.944L90.4863 108.741Z" fill="#3B3B5B"/>
<path d="M94.1273 106.301L90.4863 108.741C90.7983 109.637 91.6463 109.786 93.0293 109.189C94.4123 108.592 95.9703 107.844 97.7033 106.944L97.3243 105.921L94.1273 106.301Z" fill="#E8AF94"/>
<path d="M97.3243 105.921L100.173 94.6008L96.5653 94.8398L93.7812 107.734L97.3243 105.921Z" fill="#E8AF94"/>
<path d="M115.823 43.3789C119.108 48.0859 120.706 53.0119 120.617 58.1579C120.528 63.3029 119.946 78.0819 118.872 102.493H113.006L111.149 54.6459L110.375 54.5979L99.7792 102.512L94.3042 101.932L100.666 58.6049C101.102 55.8219 101.848 53.0929 102.931 50.4929C103.858 48.2699 105.128 45.7409 106.715 43.7789L115.823 43.3789Z" fill="#E180A0"/>
<path d="M108.627 55.1347C108.566 55.1347 108.512 55.0907 108.501 55.0287C108.489 54.9597 108.535 54.8937 108.605 54.8817L112.356 54.2277C112.426 54.2157 112.491 54.2627 112.503 54.3317C112.516 54.4007 112.469 54.4677 112.4 54.4797L108.649 55.1327C108.641 55.1347 108.634 55.1347 108.627 55.1347Z" fill="black"/>
<path d="M103.843 53.3629C103.829 53.3629 103.814 53.3599 103.8 53.3549C103.73 53.3309 103.694 53.2549 103.718 53.1859L105.526 47.9819C105.55 47.9119 105.626 47.8749 105.695 47.8999C105.765 47.9239 105.801 47.9999 105.777 48.0689L103.969 53.2729C103.95 53.3279 103.898 53.3629 103.843 53.3629Z" fill="#D4688F"/>
<path d="M102.903 13.675C102.63 16.416 100.938 18.888 97.8292 21.093C92.8552 24.62 96.5622 34.382 105.693 33.927C115.613 33.432 119.729 20.689 113.258 11.009L102.903 13.675Z" fill="#D38472"/>
<path d="M109.861 25.801L103.848 27.49C102.113 27.978 100.723 29.819 101.247 31.544L106.661 43.795L115.823 43.379L119.043 30.106C119.319 28.303 117.449 26.665 115.636 26.459L109.861 25.801Z" fill="#7B2D6A"/>
<path d="M103.848 27.49L109.861 25.801L115.636 26.459L115.517 26.559C112.222 29.321 107.54 29.695 103.848 27.49Z" fill="#F2D0BD"/>
<path d="M123.361 42.2163L116.516 48.2913L117.713 50.3593L125.618 45.5413C126.897 44.7263 127.481 43.1123 126.912 41.7063C126.884 41.6373 126.854 41.5683 126.821 41.5003L125.903 39.5913L123.361 42.2163Z" fill="#F2D0BD"/>
<path d="M121.251 30.207L126.947 39.948C127.225 40.645 126.859 41.433 126.146 41.669L123.401 42.578C122.982 42.717 122.521 42.604 122.219 42.282C121.209 41.208 116.77 37.822 116.91 33.685L115.332 30.86L115.636 26.459C118.579 26.814 120.704 28.866 121.251 30.207Z" fill="#7B2D6A"/>
<path d="M117.529 36.7222C117.518 36.7222 117.506 36.7212 117.494 36.7172C117.43 36.6982 117.394 36.6302 117.414 36.5662L118.687 32.3802C118.706 32.3162 118.773 32.2802 118.837 32.3002C118.901 32.3192 118.937 32.3872 118.918 32.4502L117.645 36.6372C117.629 36.6892 117.581 36.7222 117.529 36.7222Z" fill="black"/>
<path d="M118.802 48.587C118.702 48.677 118.354 50.047 117.758 52.698L116.516 48.291L118.802 48.587Z" fill="#F2D0BD"/>
<path d="M117.917 53.3892C117.859 53.3892 117.806 53.3512 117.789 53.2922L116.231 47.8142C116.211 47.7442 116.252 47.6702 116.323 47.6502C116.395 47.6312 116.467 47.6712 116.487 47.7422L118.045 53.2202C118.065 53.2902 118.024 53.3642 117.953 53.3842C117.941 53.3872 117.929 53.3892 117.917 53.3892Z" fill="#D4688F"/>
<path d="M99.2002 31.474L94.6572 41.804C94.4602 42.528 94.9142 43.268 95.6492 43.421L97.7912 43.904C98.2232 43.994 98.4902 45.02 98.7532 44.666C99.6342 43.483 104.524 38.526 103.91 34.432L105.154 31.444L103.848 27.49C100.965 28.18 99.5892 30.079 99.2002 31.474Z" fill="#7B2D6A"/>
<path d="M103.629 37.5211C103.583 37.5211 103.538 37.4941 103.519 37.4481L101.774 33.4351C101.748 33.3741 101.776 33.3031 101.837 33.2761C101.898 33.2501 101.97 33.2781 101.996 33.3391L103.74 37.3521C103.767 37.4131 103.739 37.4841 103.677 37.5111C103.662 37.5181 103.645 37.5211 103.629 37.5211Z" fill="black"/>
<path d="M88.6533 30.719L86.5193 31.593L95.1163 43.89C95.7973 45.258 97.5733 45.637 98.7533 44.666C99.7353 43.859 99.9073 42.422 99.1453 41.406L88.6533 30.719Z" fill="#F2D0BD"/>
<path d="M88.7501 31.337L89.1831 30.691C89.5011 30.217 89.6371 29.645 89.5681 29.079L89.3741 27.501C89.3161 26.945 88.7611 26.852 87.7101 27.222C86.1331 27.777 86.0401 27.808 86.1631 28.285C86.4571 28.688 86.9621 28.858 87.6781 28.798L88.7501 31.337Z" fill="#F2D0BD"/>
<path d="M86.7493 32.0181C85.5543 31.6571 84.7303 30.5481 84.2763 28.6891C84.1973 28.3681 84.2913 28.0271 84.5233 27.7911C84.8793 27.4281 85.9273 26.4821 86.6643 26.7831L88.1023 27.9901L88.7503 31.3371L86.7493 32.0181Z" fill="#F2D0BD"/>
<path d="M88.23 27.4501L88.147 22.7411C88.142 22.4601 87.912 22.2351 87.632 22.2361C87.351 22.2371 87.124 22.4621 87.12 22.7421L87.07 26.3291L86.707 26.4831L84.65 23.3101C84.505 23.0871 84.204 23.0301 83.988 23.1831C83.798 23.3181 83.736 23.5711 83.842 23.7781L86.163 28.2851L88.23 27.4501Z" fill="#F2D0BD"/>
<path d="M87.0381 30.2942C86.9961 30.2942 86.9581 30.2642 86.9501 30.2202C86.8341 29.5722 87.1341 29.1462 87.3741 28.9182C86.1901 28.9842 86.0791 28.3282 86.0741 28.2982C86.0401 28.1222 86.0791 27.9522 86.1921 27.7972C86.6411 27.1812 88.1491 26.9962 88.2131 26.9882C88.2611 26.9822 88.3061 27.0172 88.3121 27.0672C88.3181 27.1162 88.2831 27.1602 88.2341 27.1662C88.2191 27.1682 86.7401 27.3492 86.3361 27.9032C86.2531 28.0172 86.2251 28.1372 86.2501 28.2682C86.2561 28.2972 86.3731 28.8932 87.6651 28.7092C87.7101 28.7042 87.7491 28.7292 87.7631 28.7702C87.7761 28.8112 87.7581 28.8562 87.7201 28.8772C87.6891 28.8932 86.9661 29.2912 87.1261 30.1892C87.1351 30.2372 87.1031 30.2842 87.0541 30.2932C87.0491 30.2942 87.0431 30.2942 87.0381 30.2942Z" fill="#B9635E"/>
<path d="M105.939 18.2561C106.042 19.1631 105.39 19.9811 104.483 20.0831C103.577 20.1861 102.759 19.5341 102.656 18.6271C102.554 17.7211 103.206 16.9031 104.112 16.8001C105.019 16.6981 105.837 17.3501 105.939 18.2561Z" fill="#F2D0BD"/>
<path d="M104.691 19.092C104.661 19.092 104.632 19.078 104.614 19.051C103.957 18.061 103.413 18.356 103.39 18.369C103.346 18.394 103.29 18.38 103.264 18.336C103.239 18.292 103.253 18.236 103.296 18.21C103.325 18.193 104.008 17.804 104.768 18.949C104.796 18.991 104.785 19.049 104.742 19.077C104.726 19.087 104.709 19.092 104.691 19.092Z" fill="#B9635E"/>
<path d="M111.953 17.7962C112.03 18.7052 112.829 19.3792 113.738 19.3032C114.648 19.2262 115.322 18.4272 115.246 17.5172C115.169 16.6082 114.37 15.9342 113.46 16.0102C112.551 16.0872 111.877 16.8862 111.953 17.7962Z" fill="#F2D0BD"/>
<path d="M113.323 18.3731C113.311 18.3731 113.299 18.3711 113.288 18.3661C113.24 18.3471 113.218 18.2931 113.237 18.2461C113.758 16.9751 114.505 17.2221 114.536 17.2331C114.584 17.2501 114.609 17.3031 114.592 17.3511C114.576 17.3991 114.523 17.4241 114.475 17.4081C114.45 17.3991 113.859 17.2161 113.408 18.3161C113.393 18.3511 113.359 18.3731 113.323 18.3731Z" fill="#B9635E"/>
<path d="M114.226 13.5711C114.473 16.4901 112.138 19.0701 109.011 19.3341C105.883 19.5981 103.149 17.4461 102.902 14.5271C102.656 11.6091 104.991 9.0281 108.118 8.7641C111.245 8.5001 113.98 10.6521 114.226 13.5711Z" fill="#D38472"/>
<path d="M110.814 21.2012C110.376 21.6772 109.945 21.9872 109.521 22.1302C108.886 22.3462 108.212 21.9072 108.203 21.9022C108.198 21.8992 107.929 21.7302 107.396 21.3972L107.549 26.8402L107.641 26.9242C108.844 28.0152 110.433 27.8972 111.447 26.6422L111.595 26.4582L110.814 21.2012Z" fill="#F2D0BD"/>
<path d="M106.823 20.724C107.61 22.784 108.546 23.757 109.631 23.644C110.523 23.552 111.01 22.511 111.092 20.522L106.823 20.724Z" fill="#1E0B02"/>
<path d="M113.132 14.596C113.292 16.376 113.164 17.936 112.996 19.05C112.832 20.141 112.168 20.952 111.189 21.645L111.011 21.771C109.975 22.504 108.565 22.645 107.401 22.133C106.227 21.615 105.371 20.871 105.027 19.748C104.611 18.385 104.317 16.936 104.148 15.401C103.626 12.21 104.983 10.5 108.219 10.269C111.454 10.038 113.092 11.48 113.132 14.596Z" fill="#F2D0BD"/>
<path d="M108.515 18.2591C108.467 18.2591 108.427 18.2221 108.423 18.1741L108.364 17.4781C108.36 17.4281 108.398 17.3831 108.448 17.3791C108.498 17.3761 108.544 17.4121 108.548 17.4631L108.599 18.0671L108.983 18.0341C109.033 18.0321 109.078 18.0681 109.083 18.1191C109.087 18.1701 109.049 18.2141 108.998 18.2181L108.523 18.2591C108.52 18.2591 108.517 18.2591 108.515 18.2591Z" fill="#B9635E"/>
<path d="M104.952 15.247L107.496 14.799C107.306 14.369 106.868 14.219 106.183 14.35C105.482 14.483 105.072 14.782 104.952 15.247Z" fill="black"/>
<path d="M111.998 14.652L109.415 14.637C109.531 14.181 109.937 13.96 110.634 13.974C111.347 13.988 111.802 14.214 111.998 14.652Z" fill="black"/>
<path d="M107.075 16.6381C107.093 16.8541 106.932 17.0451 106.715 17.0631C106.499 17.0821 106.308 16.9211 106.29 16.7041C106.272 16.4871 106.432 16.2971 106.649 16.2791C106.866 16.2601 107.056 16.4211 107.075 16.6381Z" fill="#1E0B02"/>
<path d="M110.924 16.3129C110.942 16.5289 110.781 16.7199 110.565 16.7379C110.348 16.7559 110.157 16.5959 110.139 16.3789C110.121 16.1619 110.282 15.9719 110.498 15.9539C110.715 15.9349 110.905 16.0959 110.924 16.3129Z" fill="#1E0B02"/>
<path d="M108.417 19.5159C107.773 19.5159 107.388 19.3519 107.361 19.3399C107.314 19.3199 107.293 19.2649 107.314 19.2189C107.334 19.1719 107.389 19.1499 107.435 19.1709C107.446 19.1759 108.563 19.6459 110.207 18.9309C110.254 18.9109 110.309 18.9319 110.329 18.9779C110.349 19.0249 110.328 19.0799 110.281 19.0999C109.539 19.4219 108.904 19.5159 108.417 19.5159Z" fill="black"/>
<path d="M113.04 13.5012C108.298 14.0812 105.91 12.9682 105.875 10.1622C109.921 8.63717 112.309 9.75017 113.04 13.5012Z" fill="#D38472"/>
<path d="M103.946 14.2731C105.558 13.4321 106.291 12.1561 106.147 10.4431C104.45 10.7851 103.717 12.0621 103.946 14.2731Z" fill="#D38472"/>
<path d="M160.326 100.326V107.237L163.541 107.345L163.757 98.1626L160.326 100.326Z" fill="#CF7C6C"/>
<path d="M170.741 107.493C168.517 107.826 167.49 109.376 167.661 112.142L173.436 110.559L170.741 107.493Z" fill="white"/>
<path d="M160.178 106.39C161.676 107.33 162.819 107.078 163.608 105.633L172.287 110.24L158.77 110.157L160.178 106.39Z" fill="#3B3B5B"/>
<path d="M172.279 111.422L158.762 111.339L158.77 110.157L172.287 110.24L172.279 111.422Z" fill="white"/>
<path d="M164.637 107.886C164.673 107.871 164.705 107.847 164.73 107.815C165.256 107.126 165.783 106.786 165.788 106.783C165.892 106.717 165.921 106.583 165.851 106.484C165.782 106.385 165.639 106.36 165.537 106.424C165.513 106.439 164.94 106.806 164.363 107.561C164.29 107.658 164.312 107.792 164.413 107.862C164.481 107.909 164.566 107.915 164.637 107.886Z" fill="white"/>
<path d="M165.741 108.439C165.777 108.425 165.81 108.401 165.835 108.368C166.36 107.68 166.888 107.34 166.893 107.337C166.997 107.271 167.025 107.137 166.956 107.037C166.886 106.938 166.743 106.913 166.642 106.977C166.617 106.993 166.045 107.359 165.468 108.114C165.394 108.211 165.417 108.346 165.518 108.416C165.585 108.462 165.67 108.469 165.741 108.439Z" fill="white"/>
<path d="M166.846 108.992C166.882 108.977 166.914 108.953 166.939 108.921C167.465 108.232 167.992 107.893 167.998 107.889C168.102 107.823 168.13 107.689 168.06 107.59C167.991 107.491 167.848 107.465 167.746 107.53C167.722 107.545 167.149 107.912 166.572 108.667C166.498 108.763 166.521 108.898 166.622 108.968C166.69 109.015 166.775 109.021 166.846 108.992Z" fill="white"/>
<path d="M162.034 47.9578C165.861 52.4938 167.159 60.8238 165.926 72.9478L164.448 103.285H159.784L156.722 47.9578H162.034Z" fill="#7B2D6A"/>
<path d="M153.872 100.326V107.237L150.658 107.345L150.442 98.1628L153.872 100.326Z" fill="#CF7C6C"/>
<path d="M143.458 107.494C145.682 107.827 146.709 109.377 146.538 112.143L140.763 110.56L143.458 107.494Z" fill="white"/>
<path d="M154.021 106.39C152.523 107.33 151.38 107.078 150.59 105.633L141.912 110.24L155.429 110.157L154.021 106.39Z" fill="#3B3B5B"/>
<path d="M141.92 111.422L155.437 111.339L155.429 110.157L141.912 110.24L141.92 111.422Z" fill="white"/>
<path d="M149.562 107.887C149.526 107.872 149.493 107.848 149.468 107.816C148.943 107.127 148.415 106.787 148.41 106.784C148.306 106.718 148.278 106.584 148.348 106.485C148.417 106.386 148.559 106.361 148.662 106.425C148.686 106.44 149.259 106.807 149.836 107.562C149.909 107.659 149.887 107.793 149.785 107.863C149.718 107.91 149.633 107.916 149.562 107.887Z" fill="white"/>
<path d="M148.458 108.439C148.421 108.425 148.389 108.401 148.364 108.368C147.838 107.68 147.311 107.34 147.306 107.337C147.202 107.271 147.174 107.137 147.243 107.037C147.312 106.938 147.455 106.913 147.557 106.977C147.581 106.993 148.154 107.359 148.731 108.114C148.805 108.211 148.782 108.346 148.681 108.416C148.614 108.462 148.529 108.469 148.458 108.439Z" fill="white"/>
<path d="M147.353 108.992C147.317 108.977 147.284 108.953 147.259 108.921C146.734 108.232 146.206 107.893 146.201 107.889C146.097 107.823 146.069 107.689 146.139 107.59C146.208 107.491 146.351 107.465 146.453 107.53C146.477 107.545 147.05 107.912 147.627 108.667C147.7 108.763 147.678 108.898 147.576 108.968C147.509 109.015 147.424 109.021 147.353 108.992Z" fill="white"/>
<path d="M151.842 47.9578C148.015 52.4938 146.718 60.8238 147.951 72.9478L149.428 103.285H154.604L157.155 47.9578H151.842Z" fill="#7B2D6A"/>
<path d="M161.223 60.6426H152.254V51.6726H161.223V60.6426Z" fill="#7B2D6A"/>
<path d="M158.05 60.7756C158.047 60.7756 158.044 60.7756 158.042 60.7746L153.904 60.5196C153.83 60.5146 153.774 60.4516 153.779 60.3786C153.784 60.3056 153.847 60.2446 153.92 60.2536L158.058 60.5096C158.131 60.5136 158.187 60.5766 158.183 60.6506C158.178 60.7206 158.12 60.7756 158.05 60.7756Z" fill="black"/>
<path d="M179.084 27.592L181.111 28.229L176.821 41.59C176.313 43.081 174.55 43.711 173.212 42.881C172.099 42.191 171.726 40.748 172.365 39.605L179.084 27.592Z" fill="#F4C3BA"/>
<path d="M187.337 24.7639L187.299 24.6549C187.221 24.4349 186.968 24.3319 186.759 24.4359L183.322 25.8849L186.087 24.2409C186.24 24.1369 186.298 23.9389 186.226 23.7689L186.165 23.6239C186.074 23.4079 185.814 23.3209 185.612 23.4389L181.458 25.7099C181.432 27.2439 180.655 28.7619 179.334 29.5429L179.537 30.2929L185.98 28.3199C186.109 28.2779 186.207 28.1699 186.237 28.0369C186.301 27.7579 186.051 27.5079 185.771 27.5719L184.366 27.6899L186.912 26.8739C187.071 26.8149 187.174 26.6589 187.165 26.4889L187.162 26.4389C187.149 26.1909 186.91 26.0189 186.671 26.0849L184.177 26.6929L187.143 25.2409C187.319 25.1539 187.402 24.9489 187.337 24.7639Z" fill="#F4C3BA"/>
<path d="M185.946 38.021L185.521 38.12C185.138 38.208 184.759 37.98 184.673 37.61L177.813 8.05301C177.727 7.68201 177.968 7.31001 178.35 7.22201L178.776 7.12301C179.158 7.03401 179.538 7.26201 179.624 7.63301L186.483 37.19C186.569 37.56 186.329 37.932 185.946 38.021Z" fill="#FFA38A"/>
<path d="M189.555 19.6969L174.378 23.2189L171.609 11.2879L186.786 7.76489L189.555 19.6969Z" fill="#FFA38A"/>
<path fill-rule="evenodd" clip-rule="evenodd" d="M181.293 16.8839L181.47 17.6469L182.681 17.3659C182.842 17.3279 183.003 17.4289 183.041 17.5899L183.076 17.7429C183.114 17.9039 183.013 18.0649 182.852 18.1019L181.641 18.3829L181.922 19.5949C181.959 19.7559 181.859 19.9169 181.698 19.9539L181.545 19.9899C181.384 20.0269 181.223 19.9269 181.185 19.7659L180.904 18.5539L179.693 18.8349C179.532 18.8729 179.371 18.7729 179.333 18.6109L179.298 18.4579C179.261 18.2969 179.361 18.1359 179.522 18.0989L180.733 17.8179L180.548 17.0199C178.955 17.1299 177.266 16.2099 176.966 14.5079C176.668 12.8149 177.596 10.8709 179.434 10.5479C181.229 10.2319 182.79 11.1719 183.349 12.8819C183.369 12.9219 183.385 12.9649 183.394 13.0159C183.409 13.0659 183.413 13.1129 183.413 13.1579C183.621 14.6969 182.838 16.3979 181.293 16.8839ZM182.464 13.2319C181.627 10.3379 177.053 11.3829 177.896 14.2919C178.738 17.1989 182.989 16.2129 182.464 13.2319Z" fill="white"/>
<path d="M181.458 25.71L181.418 25.732L181.46 25.663C181.46 25.652 181.462 25.641 181.462 25.63C181.462 25.641 181.46 25.652 181.46 25.663L182.142 24.549C182.279 24.325 182.266 24.041 182.11 23.831C181.924 23.582 181.56 23.559 181.345 23.783L180.44 24.725C179.926 25.261 179.546 25.91 179.329 26.619L179.167 27.147C179.001 27.691 178.991 28.27 179.139 28.819L179.334 29.543C180.655 28.762 181.432 27.244 181.458 25.71Z" fill="#F4C3BA"/>
<path d="M180.971 27.9621C180.95 27.9621 180.929 27.9561 180.911 27.9431C180.863 27.9091 180.852 27.8441 180.886 27.7961C181.62 26.7551 181.322 25.7741 181.318 25.7641C181.301 25.7091 181.331 25.6501 181.387 25.6321C181.443 25.6141 181.501 25.6451 181.519 25.7001C181.532 25.7441 181.854 26.7871 181.057 27.9181C181.037 27.9461 181.004 27.9621 180.971 27.9621Z" fill="#C47268"/>
<path d="M164.387 28.2839C166.703 28.8709 169.62 31.8659 173.138 37.2679L175.588 30.2669L181.189 32.7759L177.4 42.9429C176.41 45.6009 173.033 46.4129 170.96 44.4779C169.295 42.9249 163.971 37.0349 162.901 35.0409L164.387 28.2839Z" fill="#E180A0"/>
<path d="M147.179 46.7639C148.949 47.2639 149.364 48.4719 148.423 50.3879C147.151 52.9789 144.945 53.5209 143.112 53.0849C142.801 53.0109 142.645 52.6589 142.782 52.3699C142.868 52.1869 143.052 52.0729 143.254 52.0769C143.917 52.0909 145.1 51.9829 145.428 51.0919C145.856 49.9329 145.25 48.6609 145.922 47.4649L147.179 46.7639Z" fill="#F4C3BA"/>
<path d="M147.179 46.7638L145.582 44.1208L143.23 45.4418L146.1 48.5728L147.179 46.7638Z" fill="#F4C3BA"/>
<path d="M147.158 29.458C144.153 30.941 140.788 33.58 137.062 37.374C136.493 37.953 136.266 38.8 136.5 39.577C136.929 41.002 138.383 43.379 142.934 46.485L146.888 44.472L143.432 39.87L150.041 37.132L147.158 29.458Z" fill="#E180A0"/>
<path d="M164.997 52.3228L149.414 52.5058L151.21 28.4968H163.238L164.997 52.3228Z" fill="white"/>
<path d="M149.233 28.4968L147.158 29.4578C149.205 36.9048 148.747 46.3658 145.784 57.8408L149.625 58.7298C152.394 50.4198 153.653 40.6628 153.402 29.4578L149.233 28.4968Z" fill="#E180A0"/>
<path d="M164.825 28.5349L165.792 28.9819C166.428 29.2769 166.778 29.9629 166.645 30.6509C166.01 33.9189 164.667 43.9089 168.274 57.8779L164.434 58.7669C161.664 50.4569 160.405 40.6999 160.657 29.4959L164.825 28.5349Z" fill="#E180A0"/>
<path d="M159.048 23.8809C158.501 24.3419 157.978 24.6279 157.48 24.7409C156.732 24.9109 156.004 24.3929 155.994 24.3859C155.988 24.3819 155.697 24.1819 155.12 23.7859L154.767 28.1149L154.864 28.2099C156.134 29.4589 157.963 29.4759 159.244 28.2499L159.432 28.0699L159.048 23.8809Z" fill="#F4C3BA" fill-opacity="0.969"/>
<path d="M161.891 17.1679C161.901 19.0469 161.629 20.6698 161.354 21.8218C161.086 22.9498 160.319 23.7418 159.232 24.3808L159.034 24.4968C157.884 25.1738 156.394 25.1968 155.22 24.5568C154.036 23.9109 153.205 23.0558 152.944 21.8478C152.628 20.3839 152.449 18.8399 152.407 17.2159C152.143 13.8279 153.716 12.1549 157.126 12.1999C160.537 12.2439 162.125 13.8999 161.891 17.1679Z" fill="#F4C3BA" fill-opacity="0.969"/>
<path d="M155.358 18.683C155.358 18.911 155.173 19.096 154.944 19.096C154.715 19.096 154.53 18.911 154.53 18.683C154.53 18.454 154.715 18.269 154.944 18.269C155.173 18.269 155.358 18.454 155.358 18.683Z" fill="#1E0B02" fill-opacity="0.969"/>
<path d="M159.419 18.683C159.419 18.911 159.234 19.096 159.005 19.096C158.777 19.096 158.591 18.911 158.591 18.683C158.591 18.454 158.777 18.269 159.005 18.269C159.234 18.269 159.419 18.454 159.419 18.683Z" fill="#1E0B02" fill-opacity="0.969"/>
<path d="M157.101 20.5259H156.599C156.545 20.5259 156.502 20.4819 156.502 20.4289V19.6839C156.502 19.6309 156.545 19.5869 156.599 19.5869C156.653 19.5869 156.696 19.6309 156.696 19.6839V20.3319H157.101C157.155 20.3319 157.198 20.3749 157.198 20.4289C157.198 20.4819 157.155 20.5259 157.101 20.5259Z" fill="#C47268" fill-opacity="0.969"/>
<path d="M153.402 16.9329L156.106 16.6889C155.945 16.2219 155.5 16.0259 154.771 16.1019C154.025 16.1799 153.568 16.4569 153.402 16.9329Z" fill="black" fill-opacity="0.969"/>
<path d="M160.373 16.9329L157.668 16.6889C157.83 16.2219 158.275 16.0259 159.004 16.1019C159.75 16.1799 160.206 16.4569 160.373 16.9329Z" fill="black" fill-opacity="0.969"/>
<path d="M156.682 21.5599C155.856 21.5599 155.322 21.1269 155.296 21.1049C155.255 21.0709 155.249 21.0099 155.283 20.9689C155.317 20.9279 155.379 20.9219 155.419 20.9559C155.426 20.9609 156.126 21.5249 157.129 21.3199C157.183 21.3099 157.232 21.3439 157.243 21.3959C157.254 21.4479 157.22 21.4999 157.167 21.5109C156.997 21.5449 156.834 21.5599 156.682 21.5599Z" fill="black" fill-opacity="0.969"/>
<path d="M152.545 15.3429C154.766 13.6229 157.883 13.6229 161.896 15.3429C161.543 12.8449 159.984 11.5959 157.221 11.5959C154.457 11.5959 152.899 12.8449 152.545 15.3429Z" fill="white" fill-opacity="0.969"/>
<path fill-rule="evenodd" clip-rule="evenodd" d="M160.638 25.884L157.093 25.037L153.645 25.884C151.271 22.826 150.244 19.791 150.564 16.778C150.926 13.372 153.304 11.589 154.992 10.917C156.374 10.368 157.923 10.367 159.301 10.925C160.97 11.6 163.313 13.385 163.674 16.778C163.994 19.791 162.982 22.826 160.638 25.884ZM161.571 17.2C161.49 15.446 160.44 14.218 159.38 13.418C158.039 12.406 156.198 12.406 154.857 13.418C153.798 14.218 152.748 15.446 152.667 17.2C152.522 20.321 153.724 23.164 156.062 24.349C156.674 24.66 157.404 24.662 158.02 24.359C160.405 23.187 161.716 20.335 161.571 17.2Z" fill="#ACA4DE" fill-opacity="0.969"/>
<path d="M154.011 25.021L149.233 28.197C153.316 31.599 158.678 31.688 165.319 28.464L160.321 25.021H154.011Z" fill="#ACA4DE" fill-opacity="0.969"/>
<path d="M156.598 26.5919C154.693 26.5919 153.624 25.4869 153.576 25.4359C153.541 25.3989 153.542 25.3389 153.58 25.3039C153.618 25.2679 153.677 25.2689 153.713 25.3069C153.725 25.3199 154.96 26.5929 157.09 26.3789C157.146 26.3729 157.188 26.4109 157.193 26.4629C157.198 26.5149 157.16 26.5609 157.109 26.5659C156.932 26.5839 156.762 26.5919 156.598 26.5919Z" fill="#3B3B5B" fill-opacity="0.969"/>
<path d="M157.4 28.8058C155.036 28.8058 153.394 28.1598 153.367 28.1488C153.318 28.1288 153.295 28.0738 153.314 28.0258C153.334 27.9778 153.389 27.9538 153.437 27.9738C153.484 27.9928 158.22 29.8528 163.193 27.1648C163.238 27.1398 163.296 27.1569 163.321 27.2029C163.346 27.2479 163.329 27.3048 163.283 27.3298C161.17 28.4718 159.098 28.8058 157.4 28.8058Z" fill="#3B3B5B" fill-opacity="0.969"/>
<path d="M155.739 25.3499C155.349 25.3499 155.099 25.2919 155.073 25.2849C155.022 25.2729 154.992 25.2219 155.004 25.1719C155.016 25.1209 155.066 25.0909 155.118 25.1029C155.134 25.1069 156.769 25.4849 158.342 24.1969C158.382 24.1639 158.442 24.1699 158.474 24.2099C158.507 24.2499 158.501 24.3099 158.461 24.3429C157.43 25.1869 156.39 25.3499 155.739 25.3499Z" fill="#3B3B5B" fill-opacity="0.969"/>
<path d="M159.432 26.1539C159.385 26.1539 159.345 26.1189 159.338 26.0719C159.332 26.0199 159.368 25.9729 159.42 25.9659C160.293 25.8499 160.543 25.352 160.554 25.331C160.576 25.284 160.633 25.265 160.679 25.287C160.726 25.309 160.746 25.365 160.724 25.412C160.712 25.437 160.425 26.0219 159.444 26.1529C159.44 26.1529 159.436 26.1539 159.432 26.1539Z" fill="#3B3B5B" fill-opacity="0.969"/>
<path d="M126.238 99.6114L125.681 107.286L122.371 107.397L122.148 97.9424L126.238 99.6114Z" fill="#F4C3BA"/>
<path d="M125.834 106.414C124.292 107.383 123.115 107.123 122.302 105.635L113.364 110.379L127.284 110.294L125.834 106.414Z" fill="#E180A0"/>
<path d="M113.372 111.595L127.292 111.51L127.283 110.293L113.363 110.378L113.372 111.595Z" fill="white"/>
<path d="M121.242 107.955C121.205 107.94 121.171 107.915 121.145 107.882C120.604 107.173 120.061 106.823 120.056 106.82C119.949 106.751 119.92 106.614 119.991 106.511C120.063 106.409 120.209 106.384 120.315 106.45C120.34 106.465 120.929 106.843 121.524 107.621C121.599 107.72 121.576 107.859 121.472 107.931C121.403 107.979 121.315 107.985 121.242 107.955Z" fill="white"/>
<path d="M120.104 108.524C120.067 108.509 120.034 108.484 120.008 108.451C119.467 107.742 118.924 107.392 118.918 107.389C118.811 107.321 118.782 107.183 118.854 107.08C118.925 106.979 119.072 106.952 119.177 107.019C119.202 107.034 119.792 107.412 120.386 108.19C120.462 108.289 120.439 108.428 120.334 108.5C120.265 108.548 120.178 108.554 120.104 108.524Z" fill="white"/>
<path d="M118.967 109.093C118.93 109.078 118.896 109.053 118.871 109.02C118.329 108.311 117.786 107.961 117.781 107.958C117.674 107.89 117.645 107.752 117.717 107.65C117.788 107.548 117.935 107.521 118.04 107.588C118.065 107.603 118.655 107.981 119.249 108.758C119.325 108.858 119.301 108.997 119.197 109.069C119.128 109.117 119.04 109.123 118.967 109.093Z" fill="white"/>
<path d="M135.348 99.6114L135.905 107.286L139.215 107.397L139.438 97.9424L135.348 99.6114Z" fill="#F4C3BA"/>
<path d="M135.754 106.414C137.297 107.383 138.474 107.123 139.287 105.635L148.224 110.379L134.304 110.294L135.754 106.414Z" fill="#E180A0"/>
<path d="M148.214 111.595L134.294 111.51L134.302 110.293L148.222 110.378L148.214 111.595Z" fill="white"/>
<path d="M140.344 107.955C140.381 107.94 140.415 107.915 140.44 107.882C140.981 107.173 141.525 106.823 141.53 106.82C141.637 106.751 141.666 106.614 141.594 106.511C141.523 106.409 141.376 106.384 141.271 106.45C141.246 106.465 140.656 106.843 140.062 107.621C139.987 107.72 140.01 107.859 140.114 107.931C140.183 107.979 140.271 107.985 140.344 107.955Z" fill="white"/>
<path d="M141.481 108.524C141.519 108.509 141.552 108.484 141.578 108.451C142.119 107.742 142.662 107.392 142.667 107.389C142.775 107.321 142.803 107.183 142.732 107.08C142.661 106.979 142.513 106.952 142.409 107.019C142.384 107.034 141.794 107.412 141.2 108.19C141.124 108.289 141.147 108.428 141.251 108.5C141.321 108.548 141.408 108.554 141.481 108.524Z" fill="white"/>
<path d="M142.619 109.093C142.656 109.078 142.689 109.053 142.715 109.02C143.257 108.311 143.801 107.961 143.806 107.958C143.913 107.89 143.942 107.752 143.87 107.65C143.799 107.548 143.652 107.521 143.547 107.588C143.522 107.603 142.931 107.981 142.337 108.758C142.261 108.858 142.284 108.997 142.389 109.069C142.458 109.117 142.545 109.123 142.619 109.093Z" fill="white"/>
<path d="M139.416 49.6282C140.125 54.0832 140.468 64.0632 140.445 79.5682L141.199 103.65H133.926L132.818 79.8132L131.281 58.5282H128.411V49.6282H139.416Z" fill="#3B3B5B"/>
<path d="M122.448 49.6282C121.74 54.2612 121.397 64.3312 121.419 79.8362L120.665 103.65H127.938L128.767 79.8132L130.584 58.5282H133.453V49.6282H122.448Z" fill="#3B3B5B"/>
<path d="M133.185 58.6651H127.608C127.532 58.6651 127.471 58.6031 127.471 58.5281C127.471 58.4521 127.532 58.3911 127.608 58.3911H133.185C133.26 58.3911 133.322 58.4521 133.322 58.5281C133.322 58.6031 133.26 58.6651 133.185 58.6651Z" fill="#494949"/>
<path d="M121.314 45.9342L118.164 60.5812L116.084 60.4742C116.528 54.4332 117.007 49.3932 117.522 45.3542C117.645 44.3922 118.883 43.6082 119.832 43.8072C120.72 43.9942 121.5 45.0462 121.314 45.9342Z" fill="#F4C3BA"/>
<path d="M117.923 59.6142C118.607 60.6842 118.737 61.9002 118.315 63.2632L118.783 65.2602C118.856 65.5702 118.705 65.8952 118.429 66.0212C118.131 66.1582 117.79 66.0162 117.66 65.7002L117.193 64.5722L117.144 65.0042C117.066 65.6892 117.204 66.3792 117.535 66.9622L118.479 68.6202C118.586 68.8092 118.589 69.0472 118.486 69.2432C118.287 69.6212 117.801 69.6702 117.552 69.3372L116.057 67.3402C115.477 66.5652 115.239 65.5532 115.404 64.5612L116.29 59.2312L117.923 59.6142Z" fill="#F4C3BA"/>
<path d="M117.522 45.3542L119.37 32.8352L123.663 34.2322L121.27 46.1092L117.522 45.3542Z" fill="#F4C3BA"/>
<path d="M123.996 27.6372C122.063 27.8682 120.6 29.2632 119.606 31.8242C118.608 34.3992 117.498 37.0302 116.278 39.7172L122.768 43.3332L123.996 27.6372Z" fill="#ACA4DE"/>
<path d="M143.158 48.0411L157.334 40.3211L156.476 37.3081C149.889 40.1131 144.809 42.4911 141.236 44.4431C140.385 44.9071 140.106 46.6251 140.638 47.4361C141.135 48.1951 142.399 48.5381 143.158 48.0411Z" fill="#F4C3BA"/>
<path d="M155.215 39.0242L154.575 37.7022C154.24 37.0122 154.073 36.2522 154.086 35.4862L154.108 34.1352C154.114 33.8152 154.406 33.5762 154.721 33.6342C154.988 33.6842 155.197 33.8902 155.251 34.1562L155.534 35.5612L157.288 30.2302C157.359 29.9982 157.617 29.8822 157.838 29.9812L157.986 30.0482C158.16 30.1272 158.255 30.3172 158.212 30.5042L157.272 33.6932L158.859 30.1792C158.944 29.9532 159.208 29.8532 159.421 29.9662L159.527 30.0212C159.706 30.1162 159.787 30.3292 159.716 30.5192L158.173 34.2242L159.951 31.4912C160.086 31.2732 160.388 31.2352 160.572 31.4132L160.61 31.4502C160.736 31.5722 160.768 31.7622 160.688 31.9192L159.144 34.9732L160.315 33.2502C160.482 33.0052 160.847 33.0182 160.995 33.2752C161.065 33.3972 161.067 33.5462 160.999 33.6702L157.315 40.3402L155.215 39.0242Z" fill="#F4C3BA"/>
<path d="M156.689 37.5922C156.636 37.5922 156.59 37.5532 156.583 37.4992C156.407 36.1942 155.491 35.6602 155.482 35.6542C155.43 35.6252 155.412 35.5592 155.441 35.5082C155.47 35.4562 155.534 35.4382 155.587 35.4672C155.628 35.4902 156.605 36.0542 156.796 37.4712C156.804 37.5292 156.763 37.5842 156.704 37.5922C156.699 37.5922 156.694 37.5922 156.689 37.5922Z" fill="#A8523F"/>
<path d="M144.329 45.411L141.394 32.835L137.101 34.232L140.475 47.102L144.329 45.411Z" fill="#F4C3BA"/>
<path d="M137.321 27.5391C139.412 27.7861 140.989 29.2151 142.052 31.8241C143.094 34.3821 144.133 36.8411 145.169 39.2021L138.915 43.0761L137.321 27.5391Z" fill="#ACA4DE"/>
<path d="M138.778 28.1254C138.036 27.6654 137.062 27.3784 135.856 27.2634L130.829 27.7714L125.802 27.2634C124.596 27.3784 123.622 27.6654 122.88 28.1254L122.839 39.7044L120.593 55.6215L141.2 55.7335L138.836 39.9124L138.778 28.1254Z" fill="#ACA4DE"/>
<path d="M123.997 27.6373L129.921 26.0803H131.964L137.322 27.5393C134.582 30.1073 127.782 32.2123 124.303 27.7573L123.997 27.6373Z" fill="#F4C3BA"/>
<path d="M122.409 43.2143C122.405 43.2143 122.4 43.2133 122.396 43.2133C122.32 43.2063 122.265 43.1393 122.272 43.0633L122.633 39.3563L122.206 33.8123C122.2 33.7373 122.257 33.6713 122.332 33.6653C122.407 33.6603 122.474 33.7163 122.479 33.7923L122.906 39.3593L122.545 43.0903C122.538 43.1613 122.479 43.2143 122.409 43.2143Z" fill="black"/>
<path d="M139.202 42.9283C139.133 42.9283 139.073 42.8753 139.066 42.8043L138.734 39.3833L139.285 33.7363C139.292 33.6603 139.355 33.6053 139.435 33.6133C139.51 33.6203 139.565 33.6873 139.558 33.7623L139.007 39.3833L139.339 42.7783C139.346 42.8533 139.291 42.9203 139.216 42.9273C139.211 42.9283 139.207 42.9283 139.202 42.9283Z" fill="black"/>
<path d="M139.629 22.3031C139.572 21.8271 139.609 21.3381 139.729 20.8791C140.338 18.5461 139.642 16.5581 138.412 15.0731C137.67 14.1781 137.207 13.0681 137.022 11.7431C136.205 9.05111 133.437 7.18311 130.918 7.18311C128.399 7.18311 125.639 8.94311 124.822 11.6351C124.577 13.0561 124.11 14.2021 123.424 15.0731C122.232 16.5871 121.498 18.5461 122.107 20.8791C122.227 21.3381 122.264 21.8271 122.207 22.3031C122.165 22.6551 122.069 23.0201 121.868 23.2731H139.968C139.767 23.0201 139.671 22.6551 139.629 22.3031Z" fill="#E25F3B"/>
<path d="M127.78 17.1819C127.808 18.1599 127.037 18.9749 126.059 19.0029C125.081 19.0309 124.265 18.2599 124.237 17.2819C124.21 16.3039 124.98 15.4879 125.959 15.4609C126.937 15.4329 127.752 16.2039 127.78 17.1819Z" fill="#F4C3BA"/>
<path d="M126.379 17.963C126.344 17.963 126.31 17.944 126.292 17.911C125.673 16.783 125.052 17.069 125.046 17.072C124.996 17.096 124.938 17.075 124.914 17.026C124.89 16.977 124.91 16.918 124.959 16.894C124.991 16.878 125.757 16.524 126.466 17.816C126.492 17.864 126.474 17.924 126.426 17.951C126.411 17.959 126.395 17.963 126.379 17.963Z" fill="#C47268"/>
<path d="M134.25 17.232C134.25 18.211 135.043 19.004 136.022 19.004C137 19.004 137.794 18.211 137.794 17.232C137.794 16.253 137 15.46 136.022 15.46C135.043 15.46 134.25 16.253 134.25 17.232Z" fill="#F4C3BA"/>
<path d="M135.669 17.9731C135.654 17.9731 135.639 17.9701 135.624 17.9621C135.576 17.9371 135.556 17.8781 135.581 17.8291C136.253 16.5181 137.028 16.8491 137.061 16.8641C137.111 16.8871 137.133 16.9451 137.11 16.9951C137.088 17.0451 137.03 17.0671 136.98 17.0451C136.952 17.0331 136.338 16.7851 135.758 17.9191C135.74 17.9531 135.705 17.9731 135.669 17.9731Z" fill="#C47268"/>
<path d="M136.531 13.8582C136.531 16.9312 134.039 19.4232 130.965 19.4232C127.892 19.4232 125.4 16.9312 125.4 13.8582C125.4 10.7842 127.892 8.29224 130.965 8.29224C134.039 8.29224 136.531 10.7842 136.531 13.8582Z" fill="#E25F3B"/>
<path d="M132.727 20.7692C132.215 21.2382 131.727 21.5302 131.261 21.6462C130.561 21.8182 129.881 21.2892 129.872 21.2832C129.866 21.2782 129.594 21.0742 129.054 20.6702L128.727 26.5022L128.817 26.5992C130.005 27.8742 131.715 27.8922 132.912 26.6422L133.087 26.4592L132.727 20.7692Z" fill="#F4C3BA"/>
<path d="M128.502 19.8992C129.158 22.1712 130.071 23.2962 131.241 23.2742C132.203 23.2552 132.818 22.1872 133.085 20.0692L128.502 19.8992Z" fill="#1E0B02"/>
<path d="M135.798 13.9192C135.808 15.8362 135.53 17.4912 135.251 18.6672C134.977 19.8182 134.194 20.6252 133.085 21.2772L132.884 21.3962C131.711 22.0862 130.19 22.1102 128.993 21.4572H128.992C127.784 20.7982 126.936 19.9252 126.671 18.6932C126.348 17.1992 126.166 15.6242 126.123 13.9682C125.853 10.5112 127.458 8.80523 130.937 8.85023C134.416 8.89523 136.037 10.5852 135.798 13.9192Z" fill="#F4C3BA"/>
<path d="M131.054 17.6169H130.542C130.487 17.6169 130.443 17.5719 130.443 17.5179V16.7579C130.443 16.7039 130.487 16.6589 130.542 16.6589C130.597 16.6589 130.641 16.7039 130.641 16.7579V17.4189H131.054C131.109 17.4189 131.153 17.4629 131.153 17.5179C131.153 17.5719 131.109 17.6169 131.054 17.6169Z" fill="#C47268"/>
<path d="M126.998 13.8761L129.757 13.6271C129.592 13.1501 129.138 12.9511 128.394 13.0281C127.633 13.1071 127.168 13.3901 126.998 13.8761Z" fill="black"/>
<path d="M134.582 13.8761L131.823 13.6271C131.988 13.1501 132.442 12.9511 133.186 13.0281C133.947 13.1071 134.412 13.3901 134.582 13.8761Z" fill="black"/>
<path d="M129.292 18.218H132.304C132.227 18.742 131.707 19.004 130.744 19.004C129.954 19.004 129.469 18.742 129.292 18.218Z" fill="white"/>
<path d="M128.091 15.8741C128.054 15.8741 128.017 15.8591 127.99 15.8301C127.938 15.7741 127.941 15.6871 127.997 15.6351C128.562 15.109 129.239 15.401 129.518 15.63C129.577 15.678 129.585 15.7641 129.538 15.8231C129.49 15.8821 129.403 15.8901 129.344 15.8431C129.319 15.8221 128.714 15.343 128.184 15.8371C128.158 15.8611 128.124 15.8741 128.091 15.8741Z" fill="#1E0B02"/>
<path d="M132.157 15.8742C132.117 15.8742 132.077 15.8562 132.05 15.8222C132.002 15.7632 132.012 15.6762 132.071 15.6292C132.909 14.9582 133.558 15.6362 133.564 15.6422C133.616 15.6982 133.613 15.7852 133.557 15.8372C133.503 15.8882 133.415 15.8862 133.363 15.8312C133.344 15.8102 132.879 15.3352 132.243 15.8432C132.218 15.8642 132.188 15.8742 132.157 15.8742Z" fill="#1E0B02"/>
<g opacity="0.231">
<g opacity="0.231">
<path opacity="0.231" d="M128.094 13.8289L130.116 16.574C129.709 17.352 129.182 17.697 128.534 17.611L126.493 14.932C126.861 14.1469 127.395 13.7789 128.094 13.8289Z" fill="white"/>
</g>
</g>
<g opacity="0.231">
<g opacity="0.231">
<path opacity="0.231" d="M133.068 13.8289L135.09 16.574C134.683 17.352 134.156 17.697 133.509 17.611L131.467 14.932C131.835 14.1469 132.369 13.7789 133.068 13.8289Z" fill="white"/>
</g>
</g>
<path fill-rule="evenodd" clip-rule="evenodd" d="M128.299 17.785C127.17 17.785 126.251 16.866 126.251 15.736C126.251 14.607 127.17 13.688 128.299 13.688C129.429 13.688 130.347 14.607 130.347 15.736C130.347 16.866 129.429 17.785 128.299 17.785ZM128.299 13.83C127.248 13.83 126.393 14.685 126.393 15.736C126.393 16.787 127.248 17.643 128.299 17.643C129.35 17.643 130.206 16.787 130.206 15.736C130.206 14.685 129.35 13.83 128.299 13.83Z" fill="white"/>
<path fill-rule="evenodd" clip-rule="evenodd" d="M133.279 17.785C132.149 17.785 131.231 16.866 131.231 15.736C131.231 14.607 132.149 13.688 133.279 13.688C134.408 13.688 135.327 14.607 135.327 15.736C135.327 16.866 134.408 17.785 133.279 17.785ZM133.279 13.83C132.227 13.83 131.372 14.685 131.372 15.736C131.372 16.787 132.227 17.643 133.279 17.643C134.33 17.643 135.185 16.787 135.185 15.736C135.185 14.685 134.33 13.83 133.279 13.83Z" fill="white"/>
<path d="M130.301 15.803L130.252 15.67C130.276 15.661 130.849 15.454 131.331 15.672L131.272 15.801C130.843 15.607 130.306 15.801 130.301 15.803Z" fill="white"/>
<path d="M125.62 12.7402C128.721 12.1502 130.592 10.6972 131.232 8.38317C127.933 7.21216 126.062 8.66517 125.62 12.7402Z" fill="#E25F3B"/>
<path d="M135.798 12.7402C132.697 12.1502 130.827 10.6972 130.186 8.38317C133.486 7.21216 135.356 8.66517 135.798 12.7402Z" fill="#E25F3B"/>
</svg>
