<svg width="118" height="145" viewBox="0 0 118 145" fill="none" xmlns="http://www.w3.org/2000/svg">
<g clip-path="url(#clip0_133:1775)">
<path d="M12.0437 118.997C12.6867 117.262 50.5497 116.822 50.6121 119.023C51.4017 122.825 12.9639 122.24 12.0437 118.997Z" fill="#7B2D6A"/>
<path d="M15.8276 96.4936L13.2571 144.789H50.7428L47.3596 96.4255C52.6079 90.2401 62.1292 72.8871 62.3338 65.5159C62.4717 60.6032 60.669 52.7614 56.9287 41.9949C56.592 40.9597 56.0985 39.9317 55.4715 38.908C52.8067 34.5064 46.7079 35.1942 44.8312 38.0711C42.4044 37.2284 39.847 34.9784 38.3318 35.8081C36.8542 36.8694 36.2577 38.2753 36.5393 40.0258C34.4942 41.0813 33.172 42.7188 32.5043 44.8806C27.928 43.5876 25.8569 45.3482 21.3096 51.1369C15.5228 51.9622 11.9886 54.2672 10.707 58.0535C9.42395 61.8383 9.5299 67.9628 11.0249 76.4258C11.9567 83.4292 13.8798 89.8477 15.8276 96.4936Z" fill="#A05361"/>
<path d="M36.5393 40.0259C37.0705 43.9946 39.9864 48.3368 46.9343 51.3064C46.631 54.3919 46.8386 56.9807 47.7936 59.6506C49.8241 59.752 51.6819 60.2196 53.367 61.0522C51.3931 60.4469 49.6499 60.2775 48.1376 60.5411C51.1812 62.2134 52.7618 64.2839 53.7749 67.8442C51.843 62.8577 48.0418 61.3533 45.6571 60.0748C45.7805 59.8157 45.8197 59.3408 45.7732 58.6472C45.0896 53.72 44.7587 51.1442 44.7848 50.9198C44.8124 50.6635 45.7761 55.9903 46.1462 56.0207C46.5178 56.0511 46.4641 53.5072 46.4684 52.0839C39.6715 49.1795 36.2331 44.8532 36.5393 40.0259Z" fill="#7B2D6A"/>
<path d="M44.8311 38.0712C46.3608 38.8994 47.8442 39.5017 49.2811 39.8767C51.4364 40.4399 56.1274 41.3492 56.8865 42.3425C56.0737 40.7179 52.2667 40.0142 49.6527 39.2208C47.9095 38.6923 46.6918 37.9177 45.998 36.894C45.3478 37.1503 44.9617 37.6498 44.8311 38.0712Z" fill="#7B2D6A"/>
<path d="M20.0701 97.3696C25.1297 102.86 35.0748 103.72 44.3842 97.998C35.1256 102.392 26.4113 102.314 20.0701 97.3696Z" fill="#7B2D6A"/>
<path d="M46.9342 51.3065C47.387 51.4354 50.3015 52.3837 52.3001 50.1467C51.3988 52.1231 48.9517 52.8195 46.7368 52.1578L46.9342 51.3065Z" fill="#7B2D6A"/>
<path d="M21.3095 51.1372C24.1383 50.7318 25.8408 51.2849 26.4185 52.7964C27.2835 55.0624 27.404 59.2946 28.6043 62.3149C29.8047 65.3352 30.3025 66.9525 28.7712 68.1426C27.24 69.3314 25.3546 69.5543 24.356 69.4486C23.3575 69.3429 18.9858 68.3613 18.4836 66.007C18.4778 64.7922 18.7986 63.9843 19.4488 63.5832C18.8552 61.6735 18.5199 60.0345 18.4459 58.6648C18.3356 59.6739 18.3269 60.6252 18.4923 61.4751C16.3675 61.3868 14.5721 60.6397 13.1061 59.2338C14.3834 61.1435 16.5678 61.7068 18.562 62.0818C18.6984 62.5089 18.6912 62.91 18.5097 63.2806C16.739 63.5514 14.9277 63.2444 13.0742 62.3627C14.62 63.3907 16.3457 63.9134 18.2499 63.9307C18.353 64.5041 18.2775 65.034 18.0163 65.5162C16.0394 65.1209 14.2324 65.3222 12.5967 66.1185C14.9146 65.6306 16.71 65.6508 17.9843 66.1764C18.3356 68.0471 20.9075 69.3994 24.2356 69.9424C26.42 70.1407 27.7248 69.55 29.2705 68.5452C31.4752 66.9192 30.018 64.3057 29.1733 62.16C28.0818 58.963 27.6072 53.9171 27.0165 52.4663C26.3619 50.8563 24.3604 49.9021 22.1833 50.0368C21.7246 50.3263 21.4692 50.7086 21.3095 51.1372Z" fill="#7B2D6A"/>
<path d="M19.4489 63.583C19.9119 64.8369 20.7494 65.8417 21.9613 66.6019C20.8394 66.1284 19.6536 65.0685 19.0991 63.6655L19.4489 63.583Z" fill="#7B2D6A"/>
<path d="M39.7832 36.0979C38.5292 35.8315 37.7628 36.4237 37.3114 37.6862C36.8615 38.9488 37.9007 41.0815 41.3319 42.7886C44.1549 44.1655 45.7427 43.7384 46.1781 43.1694C46.6136 42.6018 47.1782 40.4343 46.6368 39.7379C46.0939 39.0414 41.0387 36.3628 39.7832 36.0979Z" fill="#B76A7B"/>
<path d="M32.5044 44.8807C34.3288 45.4179 35.4072 46.0549 35.7425 46.7919C36.2433 47.8981 36.2258 55.4749 36.6453 57.363C37.0648 59.2525 37.9864 62.2467 37.9966 62.6101C38.0067 62.975 37.9472 64.5387 36.7237 65.5363C35.5001 66.5354 33.2258 66.9741 32.4972 67.0291C32.0109 67.0667 31.2446 66.8336 30.1981 66.3312L29.9731 67.3375C30.902 67.7371 31.7961 67.9253 32.6525 67.9007C33.9384 67.8645 36.4218 66.5831 36.9733 66.2385C37.5249 65.8925 38.5408 64.4243 38.625 62.8606C39.0735 63.2979 40.1113 63.4181 41.7412 63.2211C44.1854 62.9258 45.1709 62.1381 45.6107 61.7095C45.9039 61.4229 46.2435 60.8698 46.6325 60.0488L45.7877 59.8447C45.2812 60.7959 44.7718 61.4243 44.2594 61.7284C43.4887 62.1844 41.3261 62.558 39.8979 62.4957C38.4697 62.432 38.2999 61.3432 37.9269 59.8953C37.5553 58.4489 37.2418 57.2254 37.1765 56.7751C36.6308 52.3127 37.2854 47.8503 36.5495 46.4488C36.0589 45.5134 34.8499 44.6244 32.921 43.7817C32.6684 44.1003 32.5421 44.4724 32.5044 44.8807Z" fill="#7B2D6A"/>
<path d="M37.2432 65.9214C33.7264 69.725 32.3229 74.325 33.0341 79.7198C31.9804 74.0861 33.0094 69.7438 35.9718 66.6004L37.2432 65.9214Z" fill="#7B2D6A"/>
<path d="M53.7574 144.79L50.6122 119.023C47.8531 123.154 13.7202 123.054 12.0438 118.997L10.1802 144.79H53.7574Z" fill="white"/>
<path d="M31.5898 115.074C30.4606 115.106 29.5506 113.091 29.4722 110.386C29.3953 107.682 30.1877 105.618 31.3169 105.585L31.3315 106.069C30.6232 106.089 29.8844 107.861 29.957 110.373C30.0281 112.884 30.8685 114.613 31.5767 114.592L31.5898 115.074Z" fill="#7B2D6A"/>
<path d="M14.9569 104.973C27.037 106.829 37.5075 106.777 47.8053 103.742C47.9998 103.685 48.2001 103.82 48.216 104.023L48.8155 111.715C48.8329 111.947 48.6849 112.161 48.4584 112.222C37.1432 115.289 22.3606 114.769 14.5984 111.862L14.9569 104.973Z" fill="#8878FF"/>
<path d="M29.3839 128.65L27.4434 127.998L29.5827 121.651L31.5233 122.301L29.3839 128.65Z" fill="#FF5284"/>
<path d="M31.1546 123.394C30.4637 123.455 29.7873 123.326 29.1255 123.008L29.5827 121.651L31.5232 122.301L31.1546 123.394Z" fill="#7B2D6A"/>
<path fill-rule="evenodd" clip-rule="evenodd" d="M30.2242 122.95C27.3461 121.982 25.7916 118.859 26.7597 115.987C27.7278 113.113 30.857 111.562 33.7366 112.528C36.6148 113.493 38.1692 116.618 37.2012 119.491C36.2331 122.363 33.1038 123.915 30.2242 122.95ZM33.0835 114.464C31.275 113.857 29.3069 114.831 28.6988 116.637C28.0906 118.442 29.0674 120.406 30.8773 121.012C32.6858 121.62 34.6539 120.645 35.2621 118.839C35.8702 117.034 34.8934 115.07 33.0835 114.464Z" fill="#FF5284"/>
<path d="M31.6465 128.011L26.0281 126.126L26.6798 124.189L32.2982 126.076L31.6465 128.011Z" fill="#FF5284"/>
<path d="M29.7655 127.518L27.7944 126.959L27.867 126.743L29.8061 127.393L29.7655 127.518Z" fill="#7B2D6A"/>
<path d="M31.59 115.075L31.5769 114.592C32.2852 114.572 33.024 112.798 32.9514 110.288C32.8789 107.776 32.0399 106.048 31.3317 106.069L31.3171 105.585C32.4478 105.553 33.3578 107.569 33.4348 110.273C33.5131 112.978 32.7192 115.043 31.59 115.075Z" fill="#7B2D6A"/>
<path d="M15.4154 104.508L20.8045 105.238L23.6928 110.029L20.3081 113.764L14.8305 112.408C14.6026 112.351 14.4473 112.14 14.4633 111.907L14.9423 104.894C14.9582 104.653 15.1759 104.476 15.4154 104.508Z" fill="#8878FF"/>
<path d="M20.6201 113.42L23.6928 110.029L21.1209 105.762L21.4097 105.791L24.3111 110.042L22.0251 113.644L20.6201 113.42Z" fill="#7B2D6A"/>
<path fill-rule="evenodd" clip-rule="evenodd" d="M46.9371 109.739C46.1998 109.759 45.5844 109.179 45.5626 108.443C45.5408 107.708 46.1243 107.092 46.8602 107.072C47.5975 107.05 48.2143 107.632 48.2347 108.368C48.2564 109.102 47.6744 109.717 46.9371 109.739ZM46.8747 107.554C46.4044 107.567 46.0329 107.961 46.0459 108.43C46.0604 108.899 46.4538 109.27 46.924 109.257C47.3928 109.242 47.7644 108.85 47.7513 108.381C47.7383 107.912 47.3449 107.541 46.8747 107.554Z" fill="#7B2D6A"/>
<path fill-rule="evenodd" clip-rule="evenodd" d="M40.5452 110.916C39.8079 110.938 39.1925 110.356 39.1707 109.62C39.1504 108.886 39.7324 108.271 40.4682 108.249C41.2056 108.229 41.8224 108.809 41.8427 109.545C41.8645 110.28 41.2825 110.896 40.5452 110.916ZM40.4828 108.733C40.0125 108.746 39.6409 109.138 39.654 109.607C39.6685 110.076 40.0619 110.447 40.5321 110.434C41.0009 110.419 41.3725 110.027 41.3594 109.558C41.3464 109.089 40.953 108.718 40.4828 108.733Z" fill="#7B2D6A"/>
<path d="M51.9634 123.721C52.7936 121.664 98.2113 122.434 98.2113 125.075C99.0269 129.659 52.9547 127.641 51.9634 123.721Z" fill="#8077E5"/>
<path d="M97.5916 144.789L95.0879 84.0359C101.596 76.8037 113.609 56.3291 114.109 47.5013C114.443 41.6156 112.553 32.1565 108.437 19.1226C108.068 17.8701 107.512 16.6206 106.796 15.3725C103.751 10.0037 96.4159 10.6206 94.0661 14.0043C91.185 12.9111 88.1951 10.1283 86.3489 11.0708C84.5419 12.2914 83.777 13.955 84.0557 16.0632C81.568 17.2591 79.925 19.1747 79.0498 21.7433C73.6055 20.0376 71.0612 22.0763 65.4094 28.8597C58.444 29.6502 54.1261 32.2926 52.457 36.7869C50.7893 41.2797 50.7051 48.6248 52.2073 58.8194C53.084 67.2462 55.1682 75.004 57.2757 83.0383L52.2073 144.789H97.5916Z" fill="#FFA38A"/>
<path d="M84.0556 16.0632C84.5563 20.8384 87.9033 26.1435 96.1314 29.9413C95.6611 33.6291 95.8222 36.7377 96.8745 39.9723C99.3056 40.1634 101.518 40.7874 103.51 41.8429C101.163 41.0495 99.0792 40.786 97.2577 41.0509C100.848 43.1591 102.673 45.6972 103.764 49.9975C101.619 43.954 97.114 42.021 94.2982 40.4066C94.455 40.1011 94.5189 39.5321 94.4869 38.701C93.8352 32.7705 93.529 29.672 93.5667 29.4027C93.6103 29.0986 94.5813 35.5157 95.024 35.5649C95.4681 35.6141 95.4928 32.5634 95.5465 30.8563C87.4969 27.1425 83.5229 21.8389 84.0556 16.0632Z" fill="#7B2D6A"/>
<path d="M94.0659 14.0042C95.8715 15.0496 97.6291 15.8228 99.3404 16.3223C101.905 17.0709 107.497 18.3204 108.374 19.5381C107.457 17.5617 102.915 16.5887 99.8063 15.5491C97.7351 14.8556 96.3011 13.8841 95.5057 12.6345C94.7176 12.9183 94.2372 13.5047 94.0659 14.0042Z" fill="#7B2D6A"/>
<path d="M62.3337 84.2341C68.212 90.9871 80.1063 92.3597 91.4665 85.8196C80.2123 90.7685 69.7664 90.3761 62.3337 84.2341Z" fill="#7B2D6A"/>
<path d="M96.1313 29.9412C96.6698 30.1106 100.131 31.3485 102.608 28.7336C101.458 31.0734 98.4986 31.8234 95.8657 30.9547L96.1313 29.9412Z" fill="#7B2D6A"/>
<path d="M65.4093 28.8597C68.8158 28.4702 70.8391 29.1927 71.4791 31.0228C72.4385 33.7695 72.4385 38.8458 73.7724 42.5075C75.1077 46.1692 75.6505 48.1253 73.7724 49.4993C71.8957 50.872 69.6271 51.0747 68.4341 50.9139C67.2396 50.7518 62.0304 49.4255 61.5094 46.5862C61.5442 45.1296 61.9579 44.1726 62.7503 43.715C62.1044 41.4056 61.759 39.4293 61.7184 37.7845C61.5515 38.9905 61.5065 40.13 61.6763 41.1551C59.1305 40.9756 57.0042 40.0186 55.2944 38.284C56.7603 40.6165 59.3613 41.3651 61.7387 41.8834C61.8882 42.4003 61.865 42.881 61.6342 43.3197C59.5021 43.5833 57.3409 43.1532 55.1478 42.0326C56.9679 43.3183 59.0187 44.0032 61.3004 44.0886C61.4049 44.7807 61.2975 45.4119 60.9665 45.9824C58.6094 45.4409 56.4352 45.619 54.4468 46.5196C57.2437 46.0128 59.3961 46.0983 60.9041 46.773C61.2626 49.0273 64.299 50.7373 68.2715 51.5018C70.8841 51.8131 72.469 51.1499 74.3573 49.9974C77.0584 48.1253 75.3994 44.9428 74.4618 42.341C73.2615 38.4722 72.8667 32.407 72.2092 30.6492C71.4777 28.6975 69.1119 27.4842 66.4964 27.571C65.9362 27.9011 65.6169 28.3529 65.4093 28.8597Z" fill="#7B2D6A"/>
<path d="M62.7502 43.7151C63.2626 45.2325 64.2321 46.4675 65.6603 47.4188C64.3294 46.8121 62.9462 45.5018 62.3279 43.8005L62.7502 43.7151Z" fill="#7B2D6A"/>
<path d="M88.0803 11.4661C87.3851 11.6601 86.8423 12.2566 86.4533 13.2542C85.8698 14.7528 85.6507 17.3749 89.7074 19.5381C93.0442 21.2857 94.9629 20.8281 95.5058 20.1621C96.0471 19.4961 96.799 16.9159 96.1734 16.0631C95.5464 15.2103 90.5826 12.4231 88.0803 11.4661Z" fill="#FFBBAB"/>
<path d="M79.0497 21.7433C81.2181 22.4513 82.491 23.252 82.8669 24.1468C83.4301 25.489 83.1485 34.5702 83.5854 36.8491C84.0237 39.1267 85.0252 42.7478 85.0252 43.1837C85.0252 43.6209 84.9004 45.493 83.3981 46.6485C81.8959 47.8024 79.1542 48.2498 78.2776 48.2918C77.6941 48.3193 76.7826 48.0138 75.546 47.3768L75.2412 48.5742C76.3414 49.0867 77.4067 49.3415 78.4358 49.3415C79.9786 49.3415 83.0005 47.8922 83.6725 47.4969C84.3459 47.1017 85.6159 45.3758 85.7698 43.5051C86.2923 44.0452 87.5332 44.2247 89.4941 44.0437C92.4346 43.773 93.6437 42.8651 94.1865 42.3656C94.5479 42.0326 94.9746 41.381 95.4681 40.4095L94.4623 40.1359C93.8237 41.2594 93.1908 41.9949 92.5653 42.341C91.6262 42.8622 89.0195 43.2358 87.3083 43.1113C85.5985 42.9867 85.4316 41.675 85.0353 39.9274C84.6391 38.1798 84.3053 36.7029 84.2429 36.1614C83.7421 30.7941 84.6812 25.4673 83.8466 23.7616C83.2907 22.6251 81.8713 21.5174 79.5882 20.4402C79.2732 20.8152 79.1078 21.2553 79.0497 21.7433Z" fill="#7B2D6A"/>
<path d="M84.0078 47.1262C79.6593 51.5655 77.8189 57.0298 78.4866 63.5221C77.4154 56.733 78.8001 51.564 82.4591 47.8965L84.0078 47.1262Z" fill="#7B2D6A"/>
<path d="M62.0856 39.2891C61.971 39.793 61.8955 40.2013 61.8621 40.5126C61.8186 40.9831 61.7692 41.458 61.8157 41.9329C61.9173 42.8828 62.1364 43.8268 62.3962 44.7607C62.926 46.6285 63.6256 48.4673 64.3905 50.2844C65.9232 53.92 67.7055 57.4848 69.5677 61.0191C71.4342 64.5534 73.3994 68.0515 75.4241 71.5279C77.4503 75.0028 79.5302 78.4589 81.6827 81.8803L81.6841 81.8832C81.7567 81.999 81.7001 82.1409 81.5578 82.2017C81.4156 82.2611 81.24 82.2148 81.1674 82.0989L81.1659 82.0975C79.0295 78.6587 76.9714 75.1925 74.9626 71.706C72.9582 68.218 71.0118 64.7068 69.1642 61.1595C67.3209 57.6122 65.5589 54.0344 64.0422 50.3799C63.286 48.5542 62.5951 46.7066 62.0726 44.82C61.8171 43.8775 61.5994 42.9233 61.5036 41.9532C61.4586 41.4696 61.5704 40.9802 61.6183 40.4908C61.656 40.1651 61.791 39.6684 62.0203 38.9995L62.0856 39.2891Z" fill="#7B2D6A"/>
<path fill-rule="evenodd" clip-rule="evenodd" d="M81.4068 83.8871C80.6245 83.8871 79.9888 83.2529 79.9888 82.4725C79.9888 81.692 80.6245 81.0579 81.4068 81.0579C82.1891 81.0579 82.8248 81.692 82.8248 82.4725C82.8248 83.2529 82.1891 83.8871 81.4068 83.8871ZM81.4068 81.6472C80.9511 81.6472 80.5795 82.0178 80.5795 82.4725C80.5795 82.9271 80.9511 83.2978 81.4068 83.2978C81.8626 83.2978 82.2341 82.9271 82.2341 82.4725C82.2341 82.0178 81.8626 81.6472 81.4068 81.6472Z" fill="#FF5284"/>
<path d="M82.2269 82.5723C82.1761 82.9791 81.8307 83.2977 81.4083 83.2977C80.986 83.2977 80.6376 82.9791 80.5868 82.5723L79.9976 82.6331C80.0788 83.3368 80.6812 83.887 81.4083 83.887C82.1442 83.887 82.7451 83.3252 82.8162 82.6099L82.2269 82.5723Z" fill="#7B2D6A"/>
<path d="M83.7727 121.351H79.041V105.87H83.7727V121.351Z" fill="#FF5284"/>
<path d="M83.7727 108.534C82.3038 109.177 80.7261 109.393 79.041 109.18V105.87H83.7727V108.534Z" fill="#7B2D6A"/>
<path fill-rule="evenodd" clip-rule="evenodd" d="M81.4068 108.243C74.3834 108.243 68.6692 102.543 68.6692 95.5368C68.6692 88.5304 74.3834 82.8301 81.4068 82.8301C88.4302 82.8301 94.1444 88.5304 94.1444 95.5368C94.1444 102.543 88.4302 108.243 81.4068 108.243ZM81.4068 87.5517C76.9931 87.5517 73.4008 91.1337 73.4008 95.5368C73.4008 99.9398 76.9931 103.522 81.4068 103.522C85.8206 103.522 89.4114 99.9398 89.4114 95.5368C89.4114 91.1337 85.8206 87.5517 81.4068 87.5517Z" fill="#FF5284"/>
<path d="M88.2589 118.289H74.5532V113.567H88.2589V118.289Z" fill="#FF5284"/>
<path d="M83.7727 118.59L79.041 118.813V118.289H83.7727V118.59Z" fill="#7B2D6A"/>
<path d="M81.1472 81.9179C82.6959 77.8971 84.1923 73.8604 85.6524 69.815C87.1111 65.771 88.5305 61.7155 89.8833 57.6469C91.2331 53.5769 92.5277 49.4952 93.6642 45.3832C94.2317 43.3287 94.7571 41.264 95.1795 39.1877C95.387 38.1496 95.5699 37.1071 95.686 36.0617C95.7368 35.539 95.8283 35.0163 95.8253 34.4936C95.8166 33.9753 95.673 33.2209 95.4857 32.7388L95.5002 32.4695C95.8863 33.0095 96.0532 33.9608 96.0663 34.4922C96.0721 35.025 96.03 35.5549 95.9821 36.0834C95.8703 37.1375 95.6947 38.1858 95.4915 39.2297C95.0808 41.3161 94.5655 43.3851 94.0111 45.4469C92.8964 49.5691 91.625 53.6594 90.2984 57.7381C88.9689 61.8154 87.5726 65.8781 86.1372 69.9308C84.7003 73.9834 83.2271 78.0274 81.7016 82.0598C81.6552 82.1843 81.4926 82.2552 81.3388 82.2161C81.1864 82.1785 81.0993 82.0453 81.1472 81.9208V81.9179Z" fill="#7B2D6A"/>
<path d="M44.5278 144.789C44.6439 142.49 45.0474 140.404 45.7383 138.53C46.4306 136.658 48.2768 134.883 51.2769 133.208L51.9634 123.721C58.1653 126.11 93.246 127.687 98.2113 125.075L98.6569 134.747C102.732 137.273 104.14 137.496 105.03 144.789H44.5278Z" fill="#8878FF"/>
<path d="M98.6568 134.747L98.6191 134.156C87.2269 138.038 52.4336 134.588 51.4263 130.916L51.2768 133.208C51.6499 133.605 52.6383 133.987 54.081 134.346C52.9692 135.527 51.0272 138.061 50.853 141.488C51.6208 138.545 53.0432 136.185 55.3829 134.637C57.0593 134.979 59.1464 135.291 61.4948 135.565C60.6515 136.926 60.2495 138.548 60.0797 140.305C60.6094 138.552 61.4164 136.988 62.6022 135.688C72.3238 136.732 85.8669 137.108 93.5754 136.07C95.2024 137.104 96.1836 138.71 96.709 140.721C96.59 138.409 95.2736 136.71 94.5333 135.928C96.365 135.632 97.7961 135.244 98.6568 134.747Z" fill="#7B2D6A"/>
</g>
<defs>
<clipPath id="clip0_133:1775">
<rect width="118" height="144.789" fill="white"/>
</clipPath>
</defs>
</svg>
