<svg width="245" height="236" viewBox="0 0 245 236" fill="none" xmlns="http://www.w3.org/2000/svg">
<path fill-rule="evenodd" clip-rule="evenodd" d="M198.324 141.711C206.908 142.549 213.575 146.776 218.543 152.682C226.047 161.601 229.682 174.349 230.152 185.183C230.449 191.991 228.02 197.281 226.619 204.336C226.562 204.622 226.769 204.836 227.081 204.815C227.392 204.794 227.692 204.545 227.747 204.26C229.165 197.122 231.599 191.772 231.3 184.884C230.823 173.899 227.128 160.978 219.52 151.933C214.415 145.864 207.546 141.541 198.724 140.679C198.427 140.65 198.097 140.857 197.986 141.141C197.876 141.426 198.027 141.682 198.324 141.711Z" fill="#C8B2D8"/>
<path fill-rule="evenodd" clip-rule="evenodd" d="M228.9 205.932C228.906 205.909 228.942 205.755 228.987 205.626C229.171 205.092 229.583 204.161 230.174 202.998C232.164 199.096 236.174 192.59 240.666 189.643C240.926 189.473 241.031 189.176 240.903 188.979C240.775 188.782 240.461 188.759 240.202 188.929C235.528 191.995 231.308 198.74 229.239 202.799C228.962 203.343 228.722 203.839 228.526 204.272C228.278 203.05 228.068 201.817 227.874 200.575C227.318 196.998 225.957 194.203 223.633 191.556C223.478 191.379 223.153 191.39 222.911 191.58C222.667 191.77 222.596 192.069 222.752 192.245C224.988 194.793 226.3 197.484 226.836 200.926C227.09 202.549 227.372 204.159 227.725 205.746C227.76 205.904 227.857 206.312 227.882 206.365C228.021 206.667 228.365 206.568 228.441 206.542C228.477 206.531 228.928 206.36 228.9 205.932ZM227.853 206.186C227.855 206.198 227.854 206.21 227.856 206.223C227.854 206.213 227.854 206.2 227.853 206.186Z" fill="#C8B2D8"/>
<path d="M137.122 51.7746C133.596 52.0442 130.011 53.064 126.871 54.6581C121.68 57.3189 116.842 62.2653 114.276 67.5752C110.808 74.7135 110.655 83.657 113.854 90.9595C116.396 96.7499 121.306 101.978 126.777 104.721C129.12 105.893 132.084 106.854 134.58 107.264L135.482 107.416V111.554V115.692H130.819H126.144L125.863 115.997L125.582 116.301V119.677V123.053L125.863 123.358L126.144 123.662H130.807H135.47L135.506 128.41L135.541 133.145L135.81 133.415C136.068 133.684 136.115 133.684 139.477 133.719L142.875 133.755L143.215 133.403L143.566 133.063V128.363V123.662H148.288H153.021L153.303 123.358L153.584 123.053V119.677V116.301L153.303 115.997L153.021 115.692L148.323 115.668L143.625 115.633V111.542V107.463L145.207 107.135C147.995 106.549 149.893 105.904 152.26 104.721C154.861 103.419 157.087 101.814 159.161 99.7506C163.636 95.2847 166.413 89.846 167.315 83.7039C167.596 81.7933 167.596 77.5736 167.315 75.7216C166.366 69.474 163.8 64.4455 159.254 59.9093C154.568 55.209 149.073 52.5365 142.758 51.8684C141.317 51.716 138.505 51.6691 137.122 51.7746ZM143.754 60.1789C147.948 61.058 151.662 63.2734 154.591 66.614C158.118 70.6579 159.676 75.1121 159.465 80.586C159.254 85.9779 157.216 90.4555 153.232 94.2298C150.116 97.1719 146.472 98.9536 142.395 99.5279C140.954 99.7272 137.896 99.692 136.373 99.4576C129.273 98.3675 122.84 92.9053 120.614 86.0717C119.864 83.7743 119.724 82.7545 119.736 79.5897C119.736 77.1985 119.771 76.6828 119.993 75.663C120.907 71.5136 122.817 68.1495 125.91 65.2074C129.003 62.2888 132.577 60.5306 136.642 59.9562C138.435 59.6866 141.961 59.8038 143.754 60.1789Z" fill="#F18BAB"/>
<path d="M100.64 98.9328C100.886 99.0151 101.024 99.0974 101.325 99.0974C102.066 99.0974 102.258 98.0278 102.312 97.452C102.34 97.2874 102.367 96.6841 102.367 96.6018C102.367 96.1905 102.23 95.7791 102.23 95.3678C102.093 94.4628 102.038 93.6127 101.983 92.7077L101.929 92.6255C101.846 92.077 101.737 91.3366 101.737 90.843C101.737 90.5413 102.258 90.6236 102.422 90.5413C102.642 90.459 102.861 90.2945 103.108 90.1848C103.739 89.8831 104.808 88.8685 105.219 88.3474L105.384 88.0458C105.439 87.9361 106.152 87.3602 106.042 87.1408C106.179 86.9763 106.728 86.2084 106.837 86.0165C106.865 85.989 107.029 85.6874 107.057 85.6051L107.413 84.563C107.358 84.3711 107.633 83.5758 107.633 83.2741V83.1919C107.413 82.3966 107.194 81.9304 106.591 81.3545C106.453 81.4093 105.85 80.998 105.686 80.9157C104.808 80.5866 103.547 80.2576 102.614 80.2576C101.133 80.2576 99.104 80.3673 97.7877 81.0528C97.7602 81.0528 97.5134 81.2174 97.4586 81.2448C97.4037 81.2997 96.9924 81.3271 96.9924 81.4642V82.3692C96.9924 82.5611 97.5683 82.7805 97.7328 82.7805C97.9796 82.7805 98.199 82.6708 98.4184 82.6708C98.5007 82.6708 98.5281 82.6982 98.5829 82.7805C98.5007 85.4954 98.6926 88.128 98.9394 90.843C99.1588 91.7479 99.1862 92.8448 99.2685 93.7772V93.8595L99.5702 96.5196C99.5976 96.5744 99.6799 96.9035 99.6799 96.9858V97.0132L99.9541 98.3021L100.64 98.9328ZM101.572 87.6619V86.4827C101.572 85.8245 101.627 85.1663 101.627 84.5082C101.627 83.9049 101.49 83.329 101.49 82.7257C101.49 82.5337 101.846 82.5885 101.929 82.5063C102.861 82.5063 103.574 82.7805 103.848 83.7403V84.3711C103.848 84.8647 103.876 85.0018 103.739 85.4406C103.547 86.0987 103.135 86.4552 102.696 86.9214C102.642 86.9488 102.367 87.3053 102.312 87.3602C102.23 87.4699 101.791 87.799 101.709 87.799C101.627 87.799 101.545 87.7715 101.572 87.6619ZM108.213 91.364C108.213 92.598 108.323 94.3806 108.707 95.5049C108.899 96.1356 108.954 96.7938 109.283 97.3971C109.585 97.9456 110.078 98.4392 110.517 98.878L110.819 99.0974C111.312 99.399 112.217 99.399 112.793 99.399C112.93 99.399 113.835 99.2619 113.972 99.2619C114.137 99.207 114.384 99.1796 114.548 99.0974C114.548 99.0699 114.603 98.9877 114.63 98.9877C114.768 98.9328 114.987 98.9328 115.124 98.8231C116.468 97.7262 116.879 95.5872 117.291 93.9966C117.318 93.695 117.455 93.3659 117.592 93.1191C117.62 92.9545 117.674 91.9673 117.702 91.7753C117.702 91.7479 117.674 91.6108 117.702 91.6108L118.333 86.9763C118.36 86.894 118.36 86.6198 118.415 86.5101C118.442 86.373 118.525 85.7148 118.525 85.5503V85.4406C118.525 85.1115 118.525 84.7001 118.415 84.3985C118.415 84.3711 118.278 83.9871 118.278 83.9323C118.25 83.8774 118.278 83.3564 118.278 83.3016C118.223 82.6982 117.921 82.2595 117.592 81.7933C117.263 81.6562 117.126 81.4642 116.961 81.1351L116.907 81.0803C116.852 81.0803 116.523 80.9432 116.495 80.9157C116.468 80.9157 116.331 80.8335 116.331 80.8335C115.974 80.7512 115.645 80.806 115.343 80.6141C115.316 80.5866 115.179 80.5044 115.179 80.5044C114.768 80.3947 114.247 80.1753 113.835 80.1753C113.643 80.1753 113.506 80.3398 113.314 80.3398C113.314 80.3398 113.122 80.285 113.095 80.285H113.067C113.04 80.285 112.875 80.3398 112.848 80.3398H112.821C112.738 80.3398 112.546 80.2576 112.437 80.2576C112.053 80.2576 111.669 80.3673 111.312 80.4495C111.257 80.5318 110.928 80.8609 110.846 80.9157C110.819 80.9706 110.517 81.19 110.49 81.2448C110.298 81.4368 110.188 81.903 109.941 82.0401C109.228 83.4387 108.981 84.6727 108.707 86.2358C108.707 86.4278 108.597 86.5375 108.652 86.7295L108.323 89.3347V89.4718C108.323 89.5541 108.241 90.2396 108.213 90.3493V91.364ZM112.382 96.0808C112.354 96.0808 112.327 96.0534 112.327 96.0259C112.162 95.5049 112.19 94.9016 112.108 94.3531C112.025 93.8321 111.888 93.3385 111.806 92.8174C111.669 91.9399 111.641 91.0349 111.641 90.1574V89.1427C111.641 89.0604 111.696 88.5668 111.696 88.512V87.8812C111.696 87.8264 111.778 87.4425 111.806 87.3876C111.861 87.0585 111.806 86.2907 112.025 86.0165C112.025 85.9616 112.053 85.9068 112.053 85.8519C112.245 84.9195 112.491 83.7129 113.259 83.0273C113.396 82.945 113.753 82.6434 113.808 82.616C113.808 82.616 113.863 82.5611 113.89 82.5611H113.945C114.055 82.5611 114.082 82.8079 114.109 82.8628L114.329 83.1644C114.822 83.7129 114.96 84.3711 114.96 85.1115C114.96 86.7569 114.74 88.32 114.439 89.938C114.439 89.9654 114.384 90.1025 114.384 90.1299L113.972 92.982C113.835 93.4207 113.095 97.0406 112.848 97.0406L112.793 97.0132C112.629 96.7938 112.464 96.3002 112.382 96.0808ZM121.614 99.0974C121.834 99.2619 122.19 99.6732 122.519 99.6732H122.547L123.287 99.5087C123.479 98.9877 123.918 98.5215 124 97.9182C124 97.8907 124.028 97.2874 124.028 97.0955V97.0132C124.028 95.9437 123.891 94.9016 123.891 93.8321C123.891 93.8047 123.918 93.5304 124 93.4482H124.028C124.878 94.5451 125.591 95.7243 126.441 96.8212C126.88 97.3423 127.044 98.0553 127.648 98.3843C127.894 98.5215 128.196 98.5215 128.443 98.5215C128.882 98.5215 129.485 98.494 129.896 98.2198C130.198 98.0553 130.5 97.4245 130.5 97.068C130.5 96.7115 130.39 96.2453 130.198 95.9437C130.061 95.7517 129.814 95.5598 129.814 95.2855H129.759L129.512 95.0387C129.019 94.5177 128.635 94.024 128.223 93.4756C128.196 93.4482 128.169 93.3933 128.141 93.3659C127.977 93.1191 127.702 92.9545 127.62 92.6529V92.5706C127.483 92.3512 127.346 92.3238 127.291 92.1318C127.291 92.1044 127.209 91.9673 127.181 91.9125C127.044 91.6931 126.468 90.8704 126.413 90.7607C126.194 90.5139 125.454 89.8557 125.454 89.5266V89.4992C125.536 89.4444 125.81 89.1427 125.865 89.0879C125.975 89.0056 126.167 88.8136 126.276 88.7588L127.072 87.9635C127.126 87.8264 127.538 87.3328 127.648 87.1957C127.702 87.1682 128.004 86.8666 128.031 86.8117C128.114 86.7295 128.169 86.5649 128.251 86.4552C129.128 85.276 129.595 84.2888 129.595 82.8079V82.7805C129.595 82.7531 129.512 82.6434 129.512 82.616C129.485 82.5885 129.512 82.4789 129.512 82.4514C129.32 81.9578 128.333 81.4368 127.867 81.1351C127.839 81.1351 127.538 81.0528 127.62 80.998C125.892 80.285 124.11 80.0382 122.218 80.0382C121.203 80.0382 120.188 80.1205 119.366 80.6689C119.174 80.7786 118.872 80.8609 118.872 81.1077C118.872 81.2448 118.927 81.3545 118.927 81.4642C118.927 81.5739 118.899 81.6562 118.899 81.7658C118.899 81.9852 119.366 82.2595 119.585 82.2595C119.804 82.2595 119.969 82.1224 120.134 82.1224C120.271 82.1224 120.298 82.1224 120.408 82.2046C120.38 85.7148 120.572 89.0604 121.011 92.4883C121.176 93.8869 121.039 95.3404 121.203 96.7115C121.285 97.4794 121.313 98.3569 121.614 99.0974ZM123.507 86.4552C123.507 85.3309 123.616 84.2065 123.616 83.0822C123.616 82.9999 123.561 82.945 123.561 82.8628C123.561 82.7531 123.644 82.5337 123.753 82.5063H124.192C125.179 82.5063 126.304 82.8902 126.304 84.0146C126.304 84.0694 126.304 84.2888 126.276 84.3162C126.276 84.3711 126.084 84.755 126.03 84.8098C126.084 84.9469 125.975 84.9744 125.92 85.0292C125.92 85.0566 125.838 85.2212 125.838 85.2486C125.7 85.4131 125.289 86.0165 125.234 86.0987C125.234 86.1261 124.96 86.373 124.878 86.4552C124.658 86.6472 123.891 87.4699 123.726 87.4699C123.534 87.4699 123.589 87.2505 123.561 87.1408C123.561 87.0585 123.507 86.5649 123.507 86.5101V86.4552ZM141.02 87.1682C141.02 89.8283 141.158 92.598 141.541 95.2581C141.541 95.2855 141.596 95.5049 141.596 95.5323C141.679 96.3276 141.596 97.5617 142.09 98.1924C142.172 98.3295 142.474 98.7134 142.501 98.7134C142.913 99.1248 143.735 99.1248 144.256 99.1248C144.75 99.1248 145.024 99.0974 145.573 99.0425C145.6 99.0425 145.628 99.0425 145.655 99.0425C145.929 98.8505 146.45 98.8505 146.752 98.7957C147.629 98.5489 149.741 97.9456 149.741 96.9035C149.741 96.8761 149.741 96.8486 149.741 96.8486C149.741 96.7664 149.714 96.6293 149.714 96.6293L149.055 95.9985C149.055 95.9985 148.946 95.9985 148.891 95.9985C148.123 95.9985 147.3 96.1905 146.56 96.3825C146.505 96.3825 146.478 96.4099 146.423 96.4099C146.149 96.4921 145.82 96.6293 145.518 96.6293C145.49 96.6293 145.353 96.6567 145.326 96.5744C145.353 96.0808 145.024 95.8066 144.969 95.3678C144.75 93.6401 144.393 92.1044 144.393 90.2945C144.393 90.1574 144.393 89.4718 144.393 89.3347C144.613 88.6765 148.013 88.8959 148.013 88.0732V87.4699C148.013 86.9214 146.094 86.7843 145.957 86.7843C145.518 86.7843 145.079 86.8666 144.613 86.8666C144.585 86.8666 144.448 86.8666 144.448 86.8666C144.202 86.7569 144.174 85.2212 144.147 84.9744C144.147 84.9469 144.119 84.9195 144.119 84.8921C144.037 84.563 143.955 84.2065 143.955 83.9049C143.955 83.7403 144.311 83.6855 144.393 83.6581C145.847 83.6032 147.355 83.6032 148.809 83.2467C149.083 82.9999 149.33 82.8628 149.33 82.5063C149.33 82.4789 149.33 82.3966 149.33 82.3966C149.302 82.3692 149.165 82.2046 149.165 82.2046C148.452 81.1351 146.313 81.1077 145.271 81.1077C144.256 81.1077 143.297 81.2722 142.282 81.4642H142.2L141.02 81.711C140.801 81.6562 139.869 81.9304 139.869 82.2595C139.869 82.2869 139.869 82.3692 139.869 82.3966C139.869 82.424 139.924 82.5337 139.924 82.5611C139.924 82.5611 139.869 82.7257 139.869 82.7531C139.869 82.7805 139.841 82.9176 139.841 82.9176V82.945C139.841 83.0273 140.17 83.329 140.28 83.329C140.472 83.3564 141.13 83.3016 141.13 83.6032C141.13 84.8098 141.02 85.9616 141.02 87.1682ZM151.552 98.8505V98.9877C151.552 99.0151 151.744 99.1796 151.826 99.207L152.128 99.3442H152.539C154.02 99.3442 155.473 99.2619 156.954 99.0699H157.036C157.585 99.0151 158.517 98.9054 158.819 98.4118C159.066 98.0278 159.038 97.6988 159.011 97.26C159.066 97.1777 159.066 97.1503 159.066 97.068C159.066 96.9309 158.928 96.6293 158.846 96.4921C158.737 96.2728 158.024 96.2728 157.722 96.2728H157.64C156.817 96.2728 155.939 96.4099 155.171 96.6018C154.897 96.6567 154.239 96.7938 154.239 96.7938L154.075 96.6293C154.075 96.6293 154.02 96.1356 153.992 95.9437C153.965 95.642 153.992 95.3404 153.937 95.0661C153.883 94.5999 153.745 94.1612 153.718 93.7224V91.6382C153.718 91.556 153.8 90.8704 153.855 90.651C153.883 90.1574 154.129 89.6912 154.212 89.1976C154.239 88.7862 154.404 87.7441 154.404 87.7167V85.9342C154.404 85.8793 154.431 85.5228 154.431 85.4954C154.458 85.3583 154.404 85.3034 154.513 85.2212V84.5904C154.513 84.1242 154.513 83.7677 154.431 83.3016C154.349 83.1919 154.404 82.9176 154.349 82.8354C154.212 82.4789 153.718 82.0675 153.362 81.9304C153.252 81.8755 152.95 81.8755 152.868 81.711C152.155 81.519 151.469 81.5465 150.756 81.4093H150.729C150.564 81.4093 150.372 81.6013 150.29 81.711V82.232C150.29 82.3692 150.126 82.4789 150.098 82.5885V82.6434C150.098 82.6708 150.153 82.7531 150.18 82.7531L150.235 83.137V85.4406C150.29 85.66 150.29 85.7696 150.29 85.989V86.2358C150.29 86.2358 150.263 86.2907 150.235 86.2907V86.3455C150.263 86.3455 150.29 86.373 150.29 86.373V86.9488H150.345C150.345 87.6619 150.372 88.3749 150.4 89.0879C150.427 89.6363 150.537 90.2396 150.482 90.7881L150.537 90.843C150.482 91.6382 150.701 92.3787 150.784 93.1465C150.893 93.9692 150.976 94.8193 151.003 95.6694C151.003 96.0808 151.14 97.8633 151.14 98.2747C151.305 98.494 151.305 98.686 151.552 98.8505ZM160.566 97.6988C160.566 98.1375 160.731 98.6037 160.84 99.0425C160.84 99.0974 161.334 99.4539 161.416 99.4539C161.608 99.4539 161.745 99.3716 161.937 99.3167C162.842 98.5763 163.418 97.0132 163.665 95.9437C163.747 95.642 163.692 95.5598 163.939 95.3678C163.994 95.3404 164.433 95.3129 164.625 95.3129L166.188 95.0661C166.462 95.0661 166.736 94.9839 166.983 94.9839C167.011 94.9839 167.175 94.9839 167.175 94.9839L167.23 95.0661C167.257 95.0661 167.367 95.4501 167.395 95.5872C167.449 95.834 167.724 97.0955 167.751 97.3697V97.4245C167.806 97.5068 167.943 97.9456 167.998 98.0553C168.053 98.0827 168.053 98.1924 168.08 98.2747C168.3 98.686 168.601 98.8231 169.095 98.9328C169.095 98.9328 169.204 98.878 169.232 98.878L169.369 98.9328C169.369 98.9328 169.396 98.9328 169.424 98.9328C169.506 98.9328 170.439 98.5763 170.439 98.5489C170.576 98.3843 170.576 98.2472 170.768 98.1101C170.768 98.0827 170.85 98.0004 170.877 98.0004C171.042 97.7262 171.069 97.4245 171.069 97.1503C171.069 96.4647 170.768 95.642 170.658 95.0661C170.548 94.929 170.493 94.5451 170.493 94.3806C170.493 93.9692 171.042 93.9144 171.042 93.2014C171.042 92.8174 170.63 92.4335 170.274 92.4335C170.274 92.1867 170.137 91.9399 170.082 91.6931C170 91.4463 169.78 90.8978 169.698 90.5413C169.643 90.1574 169.588 89.6912 169.451 89.3347C169.424 89.3072 169.342 89.1427 169.342 89.1153C169.342 89.0879 169.342 88.7039 169.342 88.6491C169.314 88.4845 169.122 87.7167 169.095 87.5522C169.095 87.5522 169.122 87.3053 169.013 87.2779C168.903 86.7569 168.848 86.181 168.766 85.6325C168.683 85.2486 168.491 84.7824 168.437 84.3985C168.409 84.2888 168.409 84.1517 168.382 84.042C168.19 82.3143 167.97 80.3947 165.694 80.3947C165.53 80.3947 165.228 80.3673 165.036 80.4495C164.104 81.0803 163.747 82.7805 163.446 83.8226C163.473 83.85 163.473 83.9049 163.446 83.9323C163.446 83.9871 163.281 84.5356 163.254 84.7001C163.144 85.0841 163.144 85.7148 162.87 86.0713C162.733 86.9214 162.541 87.7715 162.349 88.6217C162.321 88.6765 162.321 88.7588 162.294 88.8136C162.266 88.9782 162.184 88.8411 162.266 89.0604C162.02 90.2671 161.581 91.364 161.361 92.5706C161.334 92.8174 161.334 93.1191 161.197 93.311C161.06 93.5579 160.155 93.8321 160.155 94.0789C160.155 94.2434 160.237 94.2434 160.237 94.408C160.264 94.4628 160.237 94.8467 160.237 94.9016C160.319 95.2033 160.539 95.0936 160.786 95.1484C160.868 95.1758 160.84 95.2855 160.84 95.3404C160.84 95.3678 160.84 95.4775 160.84 95.4775C160.813 95.5049 160.731 95.9437 160.731 95.9985C160.648 96.547 160.566 97.1229 160.566 97.6988ZM164.515 92.6803C164.515 91.6108 164.981 90.5961 165.146 89.5266C165.146 89.4169 165.228 88.5942 165.228 88.4845C165.256 88.4297 165.338 87.8538 165.365 87.799C165.42 87.2231 165.365 86.5923 165.557 86.0165L165.612 85.9616C165.639 85.989 165.639 86.0987 165.667 86.1261C165.996 87.6619 166.188 89.2524 166.407 90.7881C166.462 91.3091 166.654 91.8302 166.654 92.3512V92.3787C166.654 92.4061 166.599 92.4609 166.572 92.4609C166.352 92.5158 165.502 92.6529 165.31 92.7077C165.091 92.7077 164.926 92.79 164.734 92.79C164.652 92.79 164.515 92.79 164.515 92.6803ZM172.931 97.9182C173.343 97.9182 173.699 98.1375 174.111 98.1375H174.303C174.33 98.1375 174.522 98.0553 174.522 98.0278C175.893 97.6439 176.634 97.2874 177.785 96.3002C177.813 96.2728 177.895 96.1356 177.895 96.1356L178.416 95.4501C178.636 95.2033 178.965 94.9016 179.047 94.5725C179.129 94.216 179.019 93.9418 179.321 93.6675V93.2562C179.321 92.6255 179.184 92.1593 178.827 91.6108C178.827 91.5834 178.8 91.5285 178.8 91.5011C177.593 90.1574 176.222 89.7734 174.961 88.6765C174.549 88.32 174.22 87.8264 173.946 87.3602C173.974 87.2779 173.836 86.9214 173.836 86.7569C173.836 86.1536 174.111 85.5228 174.303 84.9744C174.577 84.7824 174.577 84.3162 174.796 84.042L175.098 83.7403C175.427 83.3016 175.701 82.945 176.085 82.5611L176.99 82.3692C177.237 82.2869 177.539 82.0949 177.676 82.0401H178.471C178.91 82.0401 178.992 81.4916 178.992 81.19C178.992 80.1205 177.84 79.9285 177.018 79.9285C175.345 79.9285 174.412 80.5866 173.37 81.8207C173.37 81.8481 173.343 81.9304 173.315 81.9304C172.986 82.2595 172.74 82.5885 172.438 83.0273C171.697 84.1242 171.094 85.2486 171.094 86.6198C171.094 87.1408 171.231 87.4973 171.314 87.9635C171.697 88.5942 171.944 89.1701 172.438 89.7186C172.767 90.0751 173.261 90.3768 173.59 90.7607L175.098 91.9125C175.646 92.3238 176.003 92.79 176.003 93.4482C176.003 94.1612 175.262 94.5999 174.687 94.929L173.644 95.4501C173.535 95.5049 172.877 95.7243 172.794 95.7791C172.767 95.7791 172.685 95.8066 172.685 95.8066C172.41 96.1082 172.465 96.4921 172.356 96.8212C172.356 96.8761 172.218 97.0955 172.218 97.1503C172.218 97.1503 172.191 97.2051 172.191 97.2326C172.191 97.4794 172.41 98.0553 172.657 98.0553C172.794 98.0553 172.794 97.9182 172.931 97.9182Z" fill="#FBFBFB"/>
<path fill-rule="evenodd" clip-rule="evenodd" d="M32.8314 61.8139C33.1741 61.1211 33.6318 60.4898 34.2169 59.9291C36.2697 57.9608 40.9418 58.7174 45.2892 60.852C49.6349 62.9856 53.5662 66.4541 54.2151 69.6325C54.5865 71.45 54.2148 72.5998 53.3998 73.267C52.5887 73.9305 51.3161 74.119 49.7912 73.9447C45.5401 73.4572 39.2707 70.1045 36.799 67.7492C35.6561 66.6593 34.5731 65.5233 33.5485 64.3528C32.9223 67.5988 34.2788 71.8484 36.6347 76.3602C41.7545 86.1662 51.653 97.2301 57.3745 102.552C57.6819 102.838 57.7469 103.221 57.521 103.409C57.2951 103.597 56.8629 103.518 56.5555 103.232C50.7207 97.8051 40.633 86.5186 35.4121 76.5185C32.7147 71.3528 31.3287 66.5321 32.3787 62.9738C25.0112 53.9954 20.6136 43.1082 16.8134 33.8862C16.6715 33.5449 16.8455 33.2605 17.2002 33.2525C17.5544 33.2457 17.9561 33.5155 18.0974 33.8579C21.7429 42.7031 25.9035 53.1189 32.8314 61.8139ZM33.9029 63.1182C34.224 62.3007 34.7057 61.5645 35.3704 60.9292C37.1466 59.2253 41.239 60.0499 45.0023 61.8978C47.3088 63.0312 49.5068 64.5659 51.0161 66.2253C51.9654 67.2683 52.6391 68.3578 52.855 69.418C53.1393 70.8094 52.915 71.7177 52.2907 72.227C51.6641 72.741 50.6567 72.8506 49.4755 72.7143C45.6012 72.2708 39.8869 69.2307 37.6372 67.0866C36.31 65.8222 35.0694 64.4951 33.9029 63.1182Z" fill="#C8B2D8"/>
</svg>
