<svg width="561" height="41" viewBox="0 0 561 41" fill="none" xmlns="http://www.w3.org/2000/svg">
<path fill-rule="evenodd" clip-rule="evenodd" d="M238.264 4.04083C211.908 5.35749 185.861 6.97644 160.462 8.74637C124.505 11.2502 88.5634 13.8403 52.838 17.9414C41.5924 19.2365 30.1724 20.0566 18.9972 21.6755C11.982 22.6899 2.68013 24.1359 1.45938 24.4381C0.820869 24.6108 0.542311 24.87 0.452301 24.9564C-0.18058 25.5607 -0.0651023 26.1433 0.292124 26.5965C0.435577 26.7908 0.798326 27.2658 1.80531 27.3306C69.1494 31.7554 138.013 23.1216 205.438 22.2151C322.366 20.661 442.839 26.8342 558.839 40.3029C559.851 40.4108 560.836 39.8711 560.976 39.0724C561.145 38.2954 560.414 37.5399 559.401 37.432C443.205 23.9417 322.535 17.7469 205.382 19.3226C142.544 20.1644 78.4654 27.7407 15.5402 25.1505C16.986 24.9347 18.4037 24.7188 19.6976 24.5245C30.8279 22.9057 42.2 22.1071 53.4006 20.812C89.0501 16.711 124.919 14.1208 160.827 11.6386C205.382 8.53045 251.878 5.85395 298.739 4.60205C315.503 4.79631 332.211 4.99066 348.919 5.22809C385.064 5.74612 421.377 7.25704 457.437 9.28598C468.295 9.91193 479.152 10.5594 490.009 11.1206C493.61 11.3149 502.892 11.876 504.186 11.8328C505.789 11.7896 506.099 10.7537 506.127 10.581C506.211 10.1925 506.155 9.65284 505.367 9.19956C505.283 9.13481 504.777 8.91883 503.651 8.78932C438.085 1.14841 368.074 -0.124879 298.795 1.7098C225.719 0.911177 152.361 0.565667 79.4697 0.19873C78.4261 0.19873 77.5738 0.84636 77.5654 1.64499C77.5598 2.44361 78.4007 3.09126 79.4443 3.11285C132.224 3.37186 185.27 3.63073 238.264 4.04083Z" fill="#C8B2D8"/>
</svg>
