<svg width="16" height="14" viewBox="0 0 16 14" fill="none" xmlns="http://www.w3.org/2000/svg">
<path d="M14.2617 6.88495H11.8028V4.91782C11.8028 3.83283 12.6849 2.95069 13.7699 2.95069H14.0158C14.4246 2.95069 14.7535 2.62181 14.7535 2.21302V0.737673C14.7535 0.328879 14.4246 0 14.0158 0H13.7699C11.0528 0 8.85208 2.20072 8.85208 4.91782V12.2945C8.85208 13.1091 9.51291 13.7699 10.3274 13.7699H14.2617C15.0762 13.7699 15.737 13.1091 15.737 12.2945V8.36029C15.737 7.54578 15.0762 6.88495 14.2617 6.88495ZM5.4096 6.88495H2.95069V4.91782C2.95069 3.83283 3.83283 2.95069 4.91782 2.95069H5.16371C5.5725 2.95069 5.90138 2.62181 5.90138 2.21302V0.737673C5.90138 0.328879 5.5725 0 5.16371 0H4.91782C2.20072 0 0 2.20072 0 4.91782V12.2945C0 13.1091 0.660832 13.7699 1.47535 13.7699H5.4096C6.22412 13.7699 6.88495 13.1091 6.88495 12.2945V8.36029C6.88495 7.54578 6.22412 6.88495 5.4096 6.88495Z" fill="#FFADC7"/>
</svg>
