<svg width="317" height="211" viewBox="0 0 317 211" fill="none" xmlns="http://www.w3.org/2000/svg">
<path fill-rule="evenodd" clip-rule="evenodd" d="M49.585 115.672C49.585 99.5647 62.6399 86.5098 78.7473 86.5098C94.8547 86.5098 107.91 99.5647 107.91 115.672H49.585ZM107.91 115.672C107.91 131.779 94.8547 144.834 78.7473 144.834C62.6399 144.834 49.585 131.779 49.585 115.672" fill="#C8B2D8"/>
<path d="M88.7589 123.507C88.7589 123.507 85.0035 126.989 78.748 126.989C72.4898 126.989 68.7371 123.507 68.7371 123.507M68.9541 107.402V113.496V107.402ZM88.5412 107.402V113.496V107.402Z" stroke="#9162A4" stroke-width="3.92706" stroke-linecap="round" stroke-linejoin="round"/>
<path fill-rule="evenodd" clip-rule="evenodd" d="M208.89 145.564C208.89 129.456 221.945 116.401 238.052 116.401C254.16 116.401 267.215 129.456 267.215 145.564H208.89ZM267.215 145.564C267.215 161.671 254.16 174.726 238.052 174.726C221.945 174.726 208.89 161.671 208.89 145.564" fill="#C8B2D8"/>
<path d="M248.064 153.399C248.064 153.399 244.308 156.881 238.053 156.881C231.795 156.881 228.042 153.399 228.042 153.399M228.259 137.295V143.389V137.295ZM247.846 137.295V143.389V137.295Z" stroke="#9162A4" stroke-width="3.92706" stroke-linecap="round" stroke-linejoin="round"/>
<path fill-rule="evenodd" clip-rule="evenodd" d="M189.548 57.2961C189.548 41.1887 202.603 28.1338 218.711 28.1338C234.818 28.1338 247.873 41.1887 247.873 57.2961H189.548ZM247.873 57.2961C247.873 73.4035 234.818 86.4584 218.711 86.4584C202.603 86.4584 189.548 73.4035 189.548 57.2961" fill="#C8B2D8"/>
<path d="M228.722 65.1309C228.722 65.1309 224.967 68.6128 218.711 68.6128C212.453 68.6128 208.7 65.1309 208.7 65.1309M208.917 49.0264V55.12V49.0264ZM228.505 49.0264V55.12V49.0264Z" stroke="#9162A4" stroke-width="3.92706" stroke-linecap="round" stroke-linejoin="round"/>
<path d="M112.753 125.222V132.858L105.852 141.075H134.839C143.601 141.075 150.708 133.975 150.708 125.222C150.708 116.468 143.601 109.368 134.839 109.368H128.622C119.854 109.368 112.753 116.468 112.753 125.222Z" fill="#C8B2D8"/>
<path fill-rule="evenodd" clip-rule="evenodd" d="M136.319 117.611C139.764 117.611 142.073 120.821 142.073 123.811C142.073 129.879 132.484 134.847 132.309 134.847C132.135 134.847 122.546 129.879 122.546 123.811C122.546 120.821 124.855 117.611 128.3 117.611C130.269 117.611 131.562 118.586 132.309 119.454C133.057 118.586 134.35 117.611 136.319 117.611Z" fill="#9162A4"/>
<path d="M206.052 166.366V174.003L212.953 182.22H183.966C175.204 182.22 168.097 175.12 168.097 166.366C168.097 157.613 175.204 150.513 183.966 150.513H190.183C198.951 150.513 206.052 157.613 206.052 166.366Z" fill="#C8B2D8"/>
<path fill-rule="evenodd" clip-rule="evenodd" d="M182.642 159.093C179.332 159.093 177.112 162.178 177.112 165.05C177.112 170.882 186.327 175.656 186.495 175.656C186.663 175.656 195.878 170.882 195.878 165.05C195.878 162.178 193.659 159.093 190.349 159.093C188.456 159.093 187.214 160.03 186.495 160.864C185.777 160.03 184.534 159.093 182.642 159.093Z" fill="#9162A4"/>
<path d="M183.545 76.6914V84.3282L190.446 92.5449H161.459C152.697 92.5449 145.59 85.4447 145.59 76.6914C145.59 67.938 152.697 60.8379 161.459 60.8379H167.676C176.444 60.8379 183.545 67.938 183.545 76.6914Z" fill="#C8B2D8"/>
<path fill-rule="evenodd" clip-rule="evenodd" d="M159.991 69.1074C156.557 69.1074 154.254 72.3079 154.254 75.2883C154.254 81.3384 163.814 86.292 163.989 86.292C164.163 86.292 173.723 81.3384 173.723 75.2883C173.723 72.3079 171.421 69.1074 167.986 69.1074C166.023 69.1074 164.734 70.0794 163.989 70.9452C163.243 70.0794 161.954 69.1074 159.991 69.1074Z" fill="#9162A4"/>
<path d="M104.554 151.065C106.879 150.514 109.338 152.486 109.338 152.486C109.338 152.486 108.026 155.349 105.7 155.899C103.375 156.449 100.917 154.479 100.917 154.479C100.917 154.479 102.229 151.616 104.554 151.065Z" fill="url(#paint0_linear_129:718)" fill-opacity="0.5"/>
<path d="M118.416 87.4501C114.392 84.6779 108.243 86.6156 108.243 86.6156C108.243 86.6156 108.624 93.0472 112.651 95.8169C116.676 98.5891 122.822 96.6539 122.822 96.6539C122.822 96.6539 122.441 90.2223 118.416 87.4501Z" fill="url(#paint1_linear_129:718)" fill-opacity="0.4"/>
<path d="M173.857 113.465C170.409 109.955 163.959 110.695 163.959 110.695C163.959 110.695 163.105 117.126 166.558 120.635C170.007 124.145 176.453 123.407 176.453 123.407C176.453 123.407 177.306 116.975 173.857 113.465Z" fill="url(#paint2_linear_129:718)" fill-opacity="0.8"/>
<path d="M130.357 82.0147C132.821 82.0147 134.818 80.1082 134.818 77.7564C134.818 75.4046 132.821 73.498 130.357 73.498C127.894 73.498 125.897 75.4046 125.897 77.7564C125.897 80.1082 127.894 82.0147 130.357 82.0147Z" fill="#C8B2D8"/>
<path d="M192.603 116.532C195.066 116.532 197.064 114.535 197.064 112.071C197.064 109.608 195.066 107.61 192.603 107.61C190.139 107.61 188.142 109.608 188.142 112.071C188.142 114.535 190.139 116.532 192.603 116.532Z" fill="#C8B2D8"/>
<path d="M112.017 166.338C114.257 166.338 116.073 168.244 116.073 170.596C116.073 172.948 114.257 174.854 112.017 174.854C109.777 174.854 107.962 172.948 107.962 170.596C107.962 168.244 109.777 166.338 112.017 166.338Z" fill="#C8B2D8"/>
<path d="M254.889 91.7846C256.792 91.7846 258.336 93.3279 258.336 95.2317C258.336 97.1354 256.792 98.6787 254.889 98.6787C252.985 98.6787 251.442 97.1354 251.442 95.2317C251.442 93.3279 252.985 91.7846 254.889 91.7846Z" fill="#C8B2D8"/>
<path d="M135.269 56.7257C136.408 56.7257 137.331 57.6486 137.331 58.7872C137.331 59.9257 136.408 60.8486 135.269 60.8486C134.131 60.8486 133.208 59.9257 133.208 58.7872C133.208 57.6486 134.131 56.7257 135.269 56.7257Z" fill="#9162A4"/>
<path d="M173.078 44.6623C174.276 44.6623 175.247 45.6331 175.247 46.8306C175.247 48.0282 174.276 48.999 173.078 48.999C171.881 48.999 170.91 48.0282 170.91 46.8306C170.91 45.6331 171.881 44.6623 173.078 44.6623Z" fill="#FFADC7"/>
<path d="M163.232 136.564C165.919 136.564 168.097 138.742 168.097 141.429C168.097 144.116 165.919 146.294 163.232 146.294C160.545 146.294 158.367 144.116 158.367 141.429C158.367 138.742 160.545 136.564 163.232 136.564Z" fill="#FFADC7"/>
<path d="M126.6 149.458C128.154 149.458 129.413 150.718 129.413 152.272C129.413 153.825 128.154 155.085 126.6 155.085C125.046 155.085 123.787 153.825 123.787 152.272C123.787 150.718 125.046 149.458 126.6 149.458Z" fill="#FFADC7"/>
<path d="M137.374 179.35C138.275 179.35 139.005 180.08 139.005 180.981C139.005 181.881 138.275 182.611 137.374 182.611C136.474 182.611 135.744 181.881 135.744 180.981C135.744 180.08 136.474 179.35 137.374 179.35Z" fill="#9162A4"/>
<path d="M203.263 95.3017C203.263 93.3595 204.838 91.785 206.78 91.785C208.722 91.785 210.297 93.3595 210.297 95.3017C210.297 97.2439 208.722 98.8184 206.78 98.8184C204.838 98.8184 203.263 97.2439 203.263 95.3017Z" fill="#FFADC7"/>
<path d="M230.814 103.742C233.017 103.742 234.803 105.528 234.803 107.731C234.803 109.934 233.017 111.72 230.814 111.72C228.611 111.72 226.825 109.934 226.825 107.731C226.825 105.528 228.611 103.742 230.814 103.742Z" fill="#FFADC7"/>
<path d="M97.2358 73.4977C98.8867 73.4977 100.225 74.5543 100.225 75.8577C100.225 77.1611 98.8867 78.2178 97.2358 78.2178C95.5849 78.2178 94.2466 77.1611 94.2466 75.8577C94.2466 74.5543 95.5849 73.4977 97.2358 73.4977Z" fill="#FFADC7"/>
<path d="M123.658 163.654C123.341 162.47 124.043 161.253 125.228 160.935C126.412 160.618 127.629 161.321 127.947 162.505C128.264 163.689 127.561 164.907 126.377 165.224C125.193 165.541 123.975 164.839 123.658 163.654Z" fill="#9162A4"/>
<path d="M142.588 170.305H142.514C142.08 164.149 137.502 164.055 137.502 164.055C137.502 164.055 142.55 163.956 142.55 156.843C142.55 163.956 147.598 164.055 147.598 164.055C147.598 164.055 143.022 164.149 142.588 170.305ZM198.001 143.339H197.925C197.474 136.81 192.713 136.71 192.713 136.71C192.713 136.71 197.962 136.605 197.962 129.062C197.962 136.605 203.211 136.71 203.211 136.71C203.211 136.71 198.453 136.81 198.001 143.339Z" fill="#FFADC7"/>
<defs>
<linearGradient id="paint0_linear_129:718" x1="113.309" y1="149.695" x2="92.9564" y2="159.31" gradientUnits="userSpaceOnUse">
<stop stop-color="white"/>
<stop offset="1" stop-color="#EEEEEE"/>
</linearGradient>
<linearGradient id="paint1_linear_129:718" x1="102.738" y1="78.3542" x2="134.42" y2="111.761" gradientUnits="userSpaceOnUse">
<stop stop-color="white"/>
<stop offset="1" stop-color="#EEEEEE"/>
</linearGradient>
<linearGradient id="paint2_linear_129:718" x1="160.097" y1="101.475" x2="185.03" y2="140.56" gradientUnits="userSpaceOnUse">
<stop stop-color="white"/>
<stop offset="1" stop-color="#EEEEEE"/>
</linearGradient>
</defs>
</svg>
