<svg width="332" height="222" viewBox="0 0 332 222" fill="none" xmlns="http://www.w3.org/2000/svg">
<path fill-rule="evenodd" clip-rule="evenodd" d="M197.465 62.5918C222.3 62.5918 238.953 85.757 238.953 107.329C238.953 151.118 169.815 186.969 168.555 186.969C167.296 186.969 98.1577 151.118 98.1577 107.329C98.1577 85.757 114.81 62.5918 139.645 62.5918C153.842 62.5918 163.166 69.6266 168.555 75.8923C173.945 69.6266 183.268 62.5918 197.465 62.5918Z" fill="#FFADC7"/>
<path fill-rule="evenodd" clip-rule="evenodd" d="M183.883 91.8721C197.027 91.8721 205.84 104.152 205.84 115.587C205.84 138.799 169.249 157.804 168.582 157.804C167.916 157.804 131.324 138.799 131.324 115.587C131.324 104.152 140.138 91.8721 153.282 91.8721C160.795 91.8721 165.73 95.6014 168.582 98.9227C171.434 95.6014 176.369 91.8721 183.883 91.8721Z" fill="#9162A4"/>
<path fill-rule="evenodd" clip-rule="evenodd" d="M80.5594 174.665H82.021C82.1901 174.666 82.3523 174.733 82.4719 174.852C82.5915 174.972 82.6587 175.133 82.6588 175.302V176.762C82.6587 176.931 82.5915 177.092 82.4719 177.212C82.3523 177.331 82.1901 177.398 82.021 177.399H80.5594C80.209 177.399 79.9216 177.111 79.9216 176.762V175.302C79.9214 175.219 79.9378 175.136 79.9698 175.058C80.0018 174.981 80.0487 174.911 80.108 174.852C80.1673 174.792 80.2377 174.746 80.3151 174.714C80.3926 174.682 80.4756 174.665 80.5594 174.665ZM85.6265 174.665H87.088C87.4381 174.665 87.7258 174.952 87.7258 175.302V176.762C87.7257 176.931 87.6585 177.092 87.5389 177.212C87.4193 177.331 87.2572 177.398 87.088 177.399H85.6265C85.2761 177.399 84.9887 177.111 84.9887 176.762V175.302C84.9887 174.952 85.2761 174.665 85.6265 174.665ZM90.6969 174.665H92.158C92.5085 174.665 92.7962 174.952 92.7962 175.302V176.762C92.7962 177.115 92.5085 177.399 92.158 177.399H90.6969C90.3464 177.399 90.0587 177.111 90.0587 176.762V175.302C90.0585 175.219 90.075 175.136 90.107 175.058C90.139 174.981 90.186 174.911 90.2453 174.852C90.3046 174.792 90.375 174.745 90.4525 174.714C90.53 174.682 90.613 174.665 90.6969 174.665ZM95.7636 174.665H97.2251C97.5756 174.665 97.8629 174.952 97.8629 175.302V176.762C97.8628 176.931 97.7956 177.092 97.676 177.212C97.5564 177.331 97.3942 177.398 97.2251 177.399H95.7636C95.4102 177.399 95.1228 177.111 95.1228 176.762V175.302C95.1245 175.133 95.1927 174.972 95.3126 174.853C95.4324 174.734 95.5944 174.666 95.7636 174.665ZM100.831 174.665H102.293C102.646 174.665 102.933 174.952 102.933 175.302V176.761C102.933 177.114 102.646 177.399 102.293 177.399H100.831C100.481 177.399 100.193 177.111 100.193 176.761V175.302C100.193 174.952 100.481 174.665 100.831 174.665ZM85.8124 180.182H87.2736C87.624 180.182 87.9118 180.469 87.9118 180.819V182.281C87.9118 182.631 87.624 182.918 87.2736 182.918H85.8124C85.459 182.918 85.1742 182.631 85.1742 182.281V180.822C85.1738 180.738 85.19 180.655 85.2219 180.577C85.2538 180.5 85.3007 180.429 85.36 180.37C85.4193 180.31 85.4898 180.263 85.5675 180.231C85.6451 180.199 85.7284 180.182 85.8124 180.182ZM90.8791 180.182H92.3406C92.6911 180.182 92.9785 180.469 92.9785 180.819V182.281C92.9785 182.631 92.6911 182.918 92.3406 182.918H90.8791C90.5287 182.918 90.2413 182.631 90.2413 182.281V180.822C90.2408 180.738 90.257 180.655 90.2888 180.577C90.3206 180.5 90.3676 180.429 90.4268 180.37C90.4861 180.31 90.5566 180.263 90.6342 180.231C90.7118 180.199 90.7951 180.182 90.8791 180.182ZM95.9465 180.182H97.4081C97.7615 180.182 98.0488 180.469 98.0488 180.819V182.281C98.0488 182.631 97.7615 182.918 97.4081 182.918H95.9465C95.5961 182.918 95.3087 182.631 95.3087 182.281V180.822C95.3087 180.469 95.5961 180.182 95.9465 180.182ZM90.6969 168.738H92.158C92.5085 168.739 92.7962 169.026 92.7962 169.375V170.834C92.7962 171.187 92.5085 171.472 92.158 171.472H90.6969C90.3464 171.472 90.0587 171.184 90.0587 170.834V169.375C90.0585 169.292 90.075 169.209 90.107 169.131C90.139 169.054 90.186 168.984 90.2453 168.925C90.3046 168.865 90.375 168.818 90.4525 168.786C90.53 168.755 90.613 168.738 90.6969 168.738ZM95.7636 168.738H97.2251C97.5756 168.739 97.8629 169.026 97.8629 169.375V170.834C97.8629 171.187 97.5756 171.472 97.2251 171.472H95.7636C95.4102 171.472 95.1228 171.184 95.1228 170.834V169.375C95.1258 169.026 95.4131 168.738 95.7636 168.738ZM257.416 175.787H256.078C255.754 175.787 255.494 176.05 255.494 176.371V177.707C255.494 178.03 255.757 178.291 256.078 178.291H257.416C257.571 178.29 257.719 178.228 257.829 178.119C257.938 178.01 258 177.862 258 177.707V176.371C258.001 176.294 257.986 176.218 257.956 176.147C257.927 176.076 257.884 176.012 257.83 175.958C257.775 175.904 257.711 175.861 257.64 175.831C257.569 175.802 257.493 175.787 257.416 175.787ZM252.776 175.787H251.437C251.282 175.788 251.134 175.85 251.025 175.959C250.915 176.068 250.854 176.216 250.853 176.371V177.707C250.853 178.03 251.116 178.291 251.437 178.291H252.776C252.93 178.29 253.079 178.228 253.188 178.119C253.298 178.01 253.359 177.862 253.36 177.707V176.371C253.359 176.216 253.298 176.068 253.188 175.959C253.079 175.85 252.93 175.788 252.776 175.787ZM248.132 175.787H246.793C246.639 175.788 246.49 175.85 246.381 175.959C246.271 176.068 246.21 176.216 246.209 176.371V177.707C246.209 178.03 246.472 178.291 246.793 178.291H248.132C248.286 178.29 248.435 178.228 248.544 178.119C248.654 178.01 248.715 177.862 248.716 177.707V176.371C248.716 176.294 248.701 176.218 248.672 176.147C248.643 176.076 248.6 176.012 248.545 175.958C248.491 175.904 248.426 175.861 248.355 175.831C248.284 175.802 248.208 175.787 248.132 175.787ZM243.491 175.787H242.152C241.998 175.788 241.849 175.85 241.74 175.959C241.631 176.068 241.569 176.216 241.568 176.371V177.707C241.568 178.03 241.831 178.291 242.152 178.291H243.491C243.814 178.291 244.078 178.028 244.078 177.707V176.371C244.076 176.216 244.014 176.068 243.904 175.959C243.794 175.85 243.646 175.788 243.491 175.787ZM238.85 175.787H237.511C237.356 175.787 237.207 175.849 237.097 175.958C236.987 176.067 236.925 176.216 236.924 176.37V177.707C236.924 178.03 237.188 178.291 237.511 178.291H238.85C239.005 178.29 239.153 178.228 239.262 178.119C239.372 178.01 239.433 177.862 239.434 177.707V176.37C239.433 176.216 239.372 176.068 239.262 175.959C239.153 175.85 239.005 175.788 238.85 175.787ZM252.605 180.84H251.267C251.112 180.841 250.964 180.902 250.854 181.012C250.745 181.121 250.683 181.269 250.682 181.424V182.763C250.682 183.083 250.946 183.346 251.267 183.346H252.605C252.929 183.346 253.189 183.083 253.189 182.763V181.426C253.19 181.349 253.175 181.273 253.146 181.202C253.117 181.131 253.074 181.066 253.02 181.012C252.965 180.957 252.901 180.914 252.83 180.885C252.759 180.855 252.682 180.84 252.605 180.84ZM247.965 180.84H246.626C246.471 180.841 246.323 180.902 246.214 181.012C246.104 181.121 246.042 181.269 246.042 181.424V182.763C246.042 183.083 246.305 183.346 246.626 183.346H247.965C248.119 183.346 248.268 183.284 248.377 183.175C248.487 183.066 248.548 182.917 248.549 182.763V181.426C248.549 181.349 248.534 181.273 248.505 181.202C248.476 181.131 248.433 181.066 248.379 181.012C248.325 180.957 248.26 180.914 248.189 180.885C248.118 180.855 248.041 180.84 247.965 180.84ZM243.324 180.84H241.985C241.661 180.84 241.398 181.103 241.398 181.424V182.763C241.398 183.083 241.661 183.346 241.985 183.346H243.324C243.478 183.346 243.627 183.284 243.736 183.175C243.845 183.066 243.907 182.917 243.908 182.763V181.426C243.908 181.103 243.644 180.84 243.324 180.84ZM248.132 170.359H246.793C246.639 170.36 246.49 170.421 246.381 170.53C246.271 170.64 246.21 170.788 246.209 170.942V172.279C246.209 172.602 246.472 172.862 246.793 172.862H248.132C248.286 172.862 248.435 172.8 248.544 172.691C248.654 172.581 248.715 172.433 248.716 172.279V170.942C248.716 170.866 248.701 170.79 248.672 170.719C248.643 170.648 248.6 170.584 248.545 170.529C248.491 170.475 248.426 170.432 248.355 170.403C248.284 170.374 248.208 170.359 248.132 170.359ZM243.491 170.359H242.152C241.998 170.36 241.849 170.421 241.74 170.531C241.631 170.64 241.569 170.788 241.568 170.942V172.279C241.568 172.602 241.831 172.862 242.152 172.862H243.491C243.814 172.862 244.078 172.599 244.078 172.279V170.942C244.076 170.788 244.014 170.64 243.904 170.531C243.794 170.421 243.646 170.36 243.491 170.359Z" fill="#E1E4E5" fill-opacity="0.7"/>
<path d="M258.049 147.349C254.038 151.984 245.956 151.578 245.956 151.578C245.956 151.578 244.381 143.656 248.396 139.024C252.407 134.388 260.486 134.792 260.486 134.792C260.486 134.792 262.06 142.713 258.049 147.349Z" fill="url(#paint0_linear_129:749)" fill-opacity="0.2"/>
<path d="M215.745 185.962C218.894 183.809 219.205 178.791 219.205 178.791C219.205 178.791 214.41 177.268 211.262 179.424C208.113 181.577 207.801 186.592 207.801 186.592C207.801 186.592 212.596 188.116 215.745 185.962Z" fill="url(#paint1_linear_129:749)" fill-opacity="0.2"/>
<path d="M68.8856 139.358C73.9298 144.484 83.3619 143.404 83.3619 143.404C83.3619 143.404 84.6102 134.012 79.5616 128.889C74.5174 123.763 65.0897 124.841 65.0897 124.841C65.0897 124.841 63.8414 134.232 68.8856 139.358Z" fill="url(#paint2_linear_129:749)" fill-opacity="0.4"/>
<path d="M168.948 120.602C167.32 120.602 166 121.919 166 123.545C166 125.171 167.32 126.488 168.948 126.488C170.576 126.488 171.896 125.171 171.896 123.545C171.896 121.919 170.576 120.602 168.948 120.602Z" fill="#FFADC7"/>
<path d="M117.656 61.376C115.416 61.376 113.599 59.5622 113.599 57.3247C113.599 55.0873 115.416 53.2734 117.656 53.2734C119.897 53.2734 121.714 55.0873 121.714 57.3247C121.714 59.5622 119.897 61.376 117.656 61.376Z" fill="#FFADC7"/>
<path d="M237.961 71.9099C235.384 71.9099 233.295 69.824 233.295 67.2508C233.295 64.6777 235.384 62.5918 237.961 62.5918C240.538 62.5918 242.627 64.6777 242.627 67.2508C242.627 69.824 240.538 71.9099 237.961 71.9099Z" fill="#FFADC7"/>
<path d="M180.322 58.0211C178.865 58.0211 177.685 56.842 177.685 55.3875C177.685 53.933 178.865 52.7539 180.322 52.7539C181.779 52.7539 182.96 53.933 182.96 55.3875C182.96 56.842 181.779 58.0211 180.322 58.0211Z" fill="#FFADC7"/>
<path d="M271.819 105.827C270.698 105.827 269.79 104.92 269.79 103.801C269.79 102.682 270.698 101.775 271.819 101.775C272.939 101.775 273.848 102.682 273.848 103.801C273.848 104.92 272.939 105.827 271.819 105.827Z" fill="#E1E4E5" fill-opacity="0.7"/>
<path d="M66.4989 106.723C64.6015 106.723 63.0634 105.187 63.0634 103.293C63.0634 101.398 64.6015 99.8623 66.4989 99.8623C68.3962 99.8623 69.9343 101.398 69.9343 103.293C69.9343 105.187 68.3962 106.723 66.4989 106.723Z" fill="#E1E4E5" fill-opacity="0.7"/>
<path d="M258.023 62.8818C256.903 62.8818 255.995 61.9748 255.995 60.8559C255.995 59.7371 256.903 58.8301 258.023 58.8301C259.144 58.8301 260.052 59.7371 260.052 60.8559C260.052 61.9748 259.144 62.8818 258.023 62.8818Z" fill="#E1E4E5" fill-opacity="0.7"/>
<path d="M48.4601 144.405C48.9504 146.232 47.8646 148.11 46.0348 148.6C44.2051 149.089 42.3243 148.005 41.834 146.178C41.3437 144.351 42.4296 142.473 44.2593 141.984C46.0891 141.494 47.9699 142.578 48.4601 144.405Z" fill="#9162A4"/>
<path d="M164.8 52.9526C162.28 52.9526 160.237 50.9129 160.237 48.3967C160.237 45.8806 162.28 43.8408 164.8 43.8408C167.32 43.8408 169.363 45.8806 169.363 48.3967C169.363 50.9129 167.32 52.9526 164.8 52.9526Z" fill="#E1E4E5" fill-opacity="0.7"/>
<path d="M267.548 156.912C265.61 156.912 264.039 155.657 264.039 154.108C264.039 152.56 265.61 151.305 267.548 151.305C269.487 151.305 271.058 152.56 271.058 154.108C271.058 155.657 269.487 156.912 267.548 156.912Z" fill="#9162A4"/>
<path d="M229.324 40.5952C229.726 42.096 228.834 43.6386 227.331 44.0408C225.828 44.4429 224.283 43.5523 223.88 42.0515C223.478 40.5506 224.37 39.008 225.873 38.6058C227.376 38.2037 228.921 39.0943 229.324 40.5952Z" fill="#E1E4E5" fill-opacity="0.7"/>
<path d="M78.4829 60.1612H78.5748C79.1182 67.8535 84.8474 67.9717 84.8474 67.9717C84.8474 67.9717 78.5298 68.0948 78.5298 76.983C78.5298 68.0948 72.2122 67.9717 72.2122 67.9717C72.2122 67.9717 77.9392 67.8535 78.4829 60.1612ZM131.488 29.2559H131.554C131.946 34.8844 136.078 34.9709 136.078 34.9709C136.078 34.9709 131.522 35.0612 131.522 41.5648C131.522 35.0612 126.966 34.9709 126.966 34.9709C126.966 34.9709 131.096 34.8844 131.488 29.2559Z" fill="#E1E4E5" fill-opacity="0.7"/>
<path d="M272.523 80.4703C280.523 78.5782 288.983 85.3519 288.983 85.3519C288.983 85.3519 284.468 95.19 276.466 97.0763C268.467 98.9684 260.009 92.2006 260.009 92.2006C260.009 92.2006 264.524 82.3625 272.523 80.4703Z" fill="url(#paint3_linear_129:749)" fill-opacity="0.2"/>
<path d="M57.8469 83.6669C60.2339 83.6669 62.1688 81.7348 62.1688 79.3515C62.1688 76.9682 60.2339 75.0361 57.8469 75.0361C55.46 75.0361 53.525 76.9682 53.525 79.3515C53.525 81.7348 55.46 83.6669 57.8469 83.6669Z" fill="#FFADC7"/>
<path d="M269.789 120.007C271.581 120.007 273.034 121.458 273.034 123.247C273.034 125.037 271.581 126.487 269.789 126.487C267.997 126.487 266.544 125.037 266.544 123.247C266.544 121.458 267.997 120.007 269.789 120.007Z" fill="#FFADC7"/>
<path d="M68.3953 155.775C71.8168 155.775 74.5904 158.544 74.5904 161.961C74.5904 165.377 71.8168 168.146 68.3953 168.146C64.9738 168.146 62.2002 165.377 62.2002 161.961C62.2002 158.544 64.9738 155.775 68.3953 155.775Z" fill="#FFADC7"/>
<path d="M224.963 158.9C226.873 158.9 228.421 160.446 228.421 162.352C228.421 164.259 226.873 165.805 224.963 165.805C223.054 165.805 221.506 164.259 221.506 162.352C221.506 160.446 223.054 158.9 224.963 158.9Z" fill="#E1E4E5" fill-opacity="0.7"/>
<path d="M138.159 180.891C139.788 180.891 141.109 182.21 141.109 183.837C141.109 185.463 139.788 186.782 138.159 186.782C136.53 186.782 135.209 185.463 135.209 183.837C135.209 182.21 136.53 180.891 138.159 180.891Z" fill="#E1E4E5" fill-opacity="0.7"/>
<path d="M244.317 117.079C243.905 115.543 244.817 113.965 246.355 113.553C247.893 113.142 249.474 114.053 249.886 115.589C250.298 117.124 249.385 118.703 247.848 119.114C246.31 119.526 244.729 118.614 244.317 117.079Z" fill="#E1E4E5" fill-opacity="0.7"/>
<path d="M257.61 158.017C259.728 158.017 261.445 159.732 261.445 161.847C261.445 163.961 259.728 165.676 257.61 165.676C255.492 165.676 253.775 163.961 253.775 161.847C253.775 159.732 255.492 158.017 257.61 158.017Z" fill="#E1E4E5" fill-opacity="0.7"/>
<path d="M46.4361 104.002C48.0653 104.002 49.3861 105.057 49.3861 106.358C49.3861 107.66 48.0653 108.715 46.4361 108.715C44.8069 108.715 43.4861 107.66 43.4861 106.358C43.4861 105.057 44.8069 104.002 46.4361 104.002Z" fill="#E1E4E5" fill-opacity="0.7"/>
<path d="M92.4067 44.625C91.5491 41.4293 93.4485 38.1444 96.6491 37.2881C99.8497 36.4318 103.139 38.3283 103.997 41.5241C104.855 44.7199 102.955 48.0047 99.7547 48.861C96.5541 49.7173 93.2643 47.8208 92.4067 44.625Z" fill="#E1E4E5" fill-opacity="0.7"/>
<path d="M84.5888 122.888H84.5117C84.0546 116.423 79.2392 116.324 79.2392 116.324C79.2392 116.324 84.5493 116.221 84.5493 108.75C84.5493 116.221 89.8595 116.324 89.8595 116.324C89.8595 116.324 85.0459 116.423 84.5888 122.888ZM188.466 192.121H188.41C188.078 187.304 184.582 187.23 184.582 187.23C184.582 187.23 188.437 187.153 188.437 181.588C188.437 187.153 192.292 187.23 192.292 187.23C192.292 187.23 188.798 187.304 188.466 192.121Z" fill="#E1E4E5" fill-opacity="0.7"/>
<defs>
<linearGradient id="paint0_linear_129:749" x1="241.886" y1="163.339" x2="269.725" y2="112.765" gradientUnits="userSpaceOnUse">
<stop stop-color="white"/>
<stop offset="1" stop-color="#EEEEEE"/>
</linearGradient>
<linearGradient id="paint1_linear_129:749" x1="226.77" y1="177.097" x2="193.551" y2="190.841" gradientUnits="userSpaceOnUse">
<stop stop-color="white"/>
<stop offset="1" stop-color="#EEEEEE"/>
</linearGradient>
<linearGradient id="paint2_linear_129:749" x1="89.0107" y1="156.868" x2="52.6229" y2="99.7412" gradientUnits="userSpaceOnUse">
<stop stop-color="white"/>
<stop offset="1" stop-color="#EEEEEE"/>
</linearGradient>
<linearGradient id="paint3_linear_129:749" x1="302.647" y1="75.7656" x2="232.659" y2="108.88" gradientUnits="userSpaceOnUse">
<stop stop-color="white"/>
<stop offset="1" stop-color="#EEEEEE"/>
</linearGradient>
</defs>
</svg>
