<svg width="1920" height="91" viewBox="0 0 1920 91" fill="none" xmlns="http://www.w3.org/2000/svg">
<rect x="-35" y="45.2549" width="64" height="64" rx="2" transform="rotate(-45 -35 45.2549)" fill="#9162A4"/>
<rect x="327.039" y="45.2549" width="64" height="64" rx="2" transform="rotate(-45 327.039 45.2549)" fill="#9162A4"/>
<rect x="689.077" y="45.2549" width="64" height="64" rx="2" transform="rotate(-45 689.077 45.2549)" fill="#9162A4"/>
<rect x="146.019" y="45.2549" width="64" height="64" rx="2" transform="rotate(-45 146.019 45.2549)" fill="#9162A4"/>
<rect x="508.058" y="45.2549" width="64" height="64" rx="2" transform="rotate(-45 508.058 45.2549)" fill="#9162A4"/>
<rect x="870.097" y="45.2549" width="64" height="64" rx="2" transform="rotate(-45 870.097 45.2549)" fill="#9162A4"/>
<rect x="55.5097" y="45.2549" width="64" height="64" rx="2" transform="rotate(-45 55.5097 45.2549)" fill="#9162A4"/>
<rect x="417.548" y="45.2549" width="64" height="64" rx="2" transform="rotate(-45 417.548 45.2549)" fill="#9162A4"/>
<rect x="779.587" y="45.2549" width="64" height="64" rx="2" transform="rotate(-45 779.587 45.2549)" fill="#9162A4"/>
<rect x="236.529" y="45.2549" width="64" height="64" rx="2" transform="rotate(-45 236.529 45.2549)" fill="#9162A4"/>
<rect x="598.568" y="45.2549" width="64" height="64" rx="2" transform="rotate(-45 598.568 45.2549)" fill="#9162A4"/>
<rect x="960.606" y="45.2549" width="64" height="64" rx="2" transform="rotate(-45 960.606 45.2549)" fill="#9162A4"/>
<rect x="1051.12" y="45.2549" width="64" height="64" rx="2" transform="rotate(-45 1051.12 45.2549)" fill="#9162A4"/>
<rect x="1232.14" y="45.2549" width="64" height="64" rx="2" transform="rotate(-45 1232.14 45.2549)" fill="#9162A4"/>
<rect x="1503.51" y="45.2549" width="64" height="64" rx="2" transform="rotate(-45 1503.51 45.2549)" fill="#9162A4"/>
<rect x="1684" y="45.2549" width="64" height="64" rx="2" transform="rotate(-45 1684 45.2549)" fill="#9162A4"/>
<rect x="1141.63" y="45.2549" width="64" height="64" rx="2" transform="rotate(-45 1141.63 45.2549)" fill="#9162A4"/>
<rect x="1413" y="45.2549" width="64" height="64" rx="2" transform="rotate(-45 1413 45.2549)" fill="#9162A4"/>
<rect x="1322.64" y="45.2549" width="64" height="64" rx="2" transform="rotate(-45 1322.64 45.2549)" fill="#9162A4"/>
<rect x="1594.02" y="45.2549" width="64" height="64" rx="2" transform="rotate(-45 1594.02 45.2549)" fill="#9162A4"/>
<rect x="1774.51" y="45.2549" width="64" height="64" rx="2" transform="rotate(-45 1774.51 45.2549)" fill="#9162A4"/>
<rect x="1865" y="45.2549" width="64" height="64" rx="2" transform="rotate(-45 1865 45.2549)" fill="#9162A4"/>
</svg>
