<svg width="335" height="224" viewBox="0 0 335 224" fill="none" xmlns="http://www.w3.org/2000/svg">
<path d="M58.571 95.9481C52.4221 122.656 95.6061 186.641 164.105 177.641C195.963 173.454 196.126 157.344 222.692 140.691C238.526 130.766 259.822 124.881 268.404 107.945C275.815 93.3278 275.799 76.2297 269.478 64.0111C255.263 36.5327 220.934 13.4422 177.617 45.3155C134.3 77.1886 74.4382 27.0689 58.571 95.9481Z" fill="url(#paint0_linear_129:780)" fill-opacity="0.1"/>
<path d="M206.772 170.143C223.751 156.176 241.319 141.202 260.3 136.595C279.881 131.838 281.489 138.434 280.221 147.896C278.953 157.358 267.877 177.614 241.266 183.697C214.647 189.782 190.884 183.217 206.772 170.143Z" fill="#C8B2D8" fill-opacity="0.2"/>
<path fill-rule="evenodd" clip-rule="evenodd" d="M249.012 82.8154V96.7332H249.017C247 96.3262 244.912 96.4619 242.965 97.1265C241.185 97.7352 239.585 98.7798 238.311 100.165C237.037 101.55 236.13 103.232 235.673 105.058C235.242 106.745 235.202 108.507 235.556 110.212C235.91 111.917 236.648 113.518 237.715 114.893C238.783 116.269 240.15 117.383 241.713 118.149C243.276 118.916 244.993 119.315 246.734 119.317C247.501 119.316 248.265 119.239 249.017 119.088V133.006C249.017 134.204 248.781 135.391 248.322 136.498C247.864 137.605 247.191 138.611 246.344 139.458C245.497 140.305 244.491 140.977 243.384 141.436C242.277 141.894 241.09 142.13 239.892 142.13H225.973V142.135C226.38 140.118 226.245 138.03 225.58 136.083C224.971 134.303 223.927 132.703 222.541 131.429C221.156 130.156 219.474 129.249 217.648 128.792C215.961 128.361 214.198 128.321 212.494 128.674C210.789 129.028 209.188 129.767 207.813 130.834C206.437 131.901 205.323 133.268 204.557 134.831C203.79 136.394 203.39 138.112 203.388 139.853C203.389 140.619 203.466 141.383 203.617 142.135L189.703 142.13C184.665 142.131 180.579 138.048 180.578 133.01V119.092C179.827 119.243 179.062 119.32 178.296 119.322C176.555 119.32 174.838 118.92 173.275 118.153C171.712 117.386 170.345 116.273 169.278 114.897C168.211 113.522 167.472 111.921 167.118 110.216C166.764 108.512 166.804 106.749 167.234 105.062C167.692 103.237 168.599 101.555 169.872 100.17C171.146 98.7843 172.746 97.7397 174.527 97.1309C176.473 96.4663 178.562 96.3305 180.578 96.7373H180.574V82.8195C180.574 81.6212 180.81 80.4346 181.268 79.3276C181.727 78.2205 182.399 77.2145 183.246 76.3672C184.094 75.5199 185.1 74.8478 186.207 74.3894C187.314 73.9309 188.5 73.695 189.699 73.6951H203.617C203.466 72.9438 203.389 72.1794 203.388 71.4131C203.39 69.6721 203.79 67.9546 204.556 66.3916C205.323 64.8285 206.437 63.4613 207.812 62.3943C209.188 61.3273 210.789 60.5886 212.494 60.2347C214.198 59.8808 215.961 59.921 217.648 60.3523C219.473 60.8108 221.154 61.718 222.54 62.9914C223.925 64.2648 224.97 65.8641 225.58 67.644C226.245 69.5906 226.38 71.6788 225.973 73.6951H239.892C242.312 73.6951 244.633 74.6563 246.344 76.3674C248.055 78.0787 249.017 80.3996 249.017 82.8195L249.012 82.8154ZM95.4786 91.0196H109.441V91.0151C109.033 93.038 109.169 95.1329 109.835 97.0859C110.446 98.8723 111.494 100.477 112.884 101.755C114.274 103.033 115.961 103.943 117.792 104.401C119.484 104.834 121.253 104.874 122.963 104.519C124.673 104.164 126.279 103.423 127.659 102.352C129.039 101.282 130.156 99.91 130.925 98.342C131.694 96.774 132.095 95.0511 132.097 93.3046C132.096 92.5358 132.019 91.7689 131.867 91.0151H145.829C147.032 91.0151 148.222 91.2518 149.332 91.7119C150.443 92.1719 151.452 92.8462 152.302 93.6963C153.152 94.5463 153.826 95.5555 154.286 96.6662C154.746 97.7768 154.983 98.9672 154.983 100.169V114.132H154.987C152.964 113.724 150.869 113.86 148.916 114.527C147.13 115.138 145.525 116.186 144.247 117.575C142.97 118.965 142.06 120.653 141.602 122.484C141.169 124.176 141.129 125.944 141.484 127.654C141.839 129.364 142.58 130.971 143.651 132.351C144.721 133.731 146.093 134.848 147.66 135.617C149.228 136.386 150.951 136.787 152.698 136.789C153.467 136.788 154.234 136.711 154.987 136.56L154.983 150.518C154.984 155.572 150.888 159.671 145.834 159.672H131.871C132.023 160.426 132.1 161.193 132.101 161.961C132.099 163.708 131.698 165.431 130.929 166.999C130.16 168.567 129.043 169.938 127.663 171.009C126.283 172.079 124.677 172.82 122.967 173.176C121.257 173.531 119.489 173.491 117.796 173.058C115.965 172.6 114.278 171.69 112.888 170.412C111.498 169.134 110.45 167.529 109.84 165.743C109.173 163.79 109.037 161.695 109.445 159.672V159.676H95.4831C94.2809 159.677 93.0905 159.44 91.9799 158.98C90.8693 158.52 89.8601 157.846 89.0101 156.995C88.1601 156.145 87.4859 155.136 87.026 154.026C86.5661 152.915 86.3294 151.724 86.3296 150.522V136.56C85.5759 136.711 84.809 136.788 84.0402 136.789C82.2937 136.787 80.5707 136.387 79.0027 135.617C77.4347 134.848 76.0631 133.731 74.9927 132.351C73.9222 130.971 73.1812 129.365 72.8262 127.654C72.4712 125.944 72.5115 124.176 72.9441 122.484C73.404 120.653 74.3141 118.966 75.5916 117.577C76.8691 116.187 78.4736 115.139 80.2592 114.527C82.212 113.86 84.3069 113.724 86.3296 114.132V100.169C86.3294 98.9672 86.5661 97.7768 87.026 96.6661C87.4859 95.5554 88.1601 94.5462 89.0101 93.6962C89.8601 92.8461 90.8693 92.1718 91.9799 91.7118C93.0905 91.2518 94.2809 91.015 95.4831 91.0151" fill="#F18BAB"/>
<path d="M44.1016 175.341C43.5857 174.607 43.2208 152.268 43.7288 151.375C44.2395 150.485 66.6019 143.989 66.6019 143.989C66.6019 143.989 74.1724 131.654 81.3092 124.746C84.1231 122.019 88.2363 119.73 89.245 121.262C89.8705 122.211 88.8774 124.642 87.4729 127.2C87.4697 127.208 87.4655 127.216 87.4603 127.223C85.5045 130.781 82.7646 134.57 82.5067 134.926C82.4994 134.934 82.4926 134.942 82.4862 134.951C82.4862 134.951 101.036 130.239 103.833 129.732C106.628 129.221 110.277 128.407 110.857 130.295C111.39 132.03 106.666 134.061 106.386 134.181C106.69 134.097 113.109 132.324 114.061 134.742C114.768 136.54 108.13 139.942 107.933 140.04C108.099 139.996 111.263 139.162 111.597 140.666C112.146 143.14 105.26 145.99 104.979 146.108C105.134 146.069 107.693 145.466 107.877 146.85C108.332 150.278 84.6438 159.779 77.4052 162.452C70.1588 165.123 44.6201 176.075 44.1016 175.341ZM285.195 52.5965C285.711 53.3261 286.076 75.5243 285.568 76.4118C285.057 77.2964 262.699 83.7508 262.699 83.7508C262.699 83.7508 255.129 96.0091 247.994 102.873C245.181 105.583 241.068 107.858 240.06 106.335C239.434 105.393 240.427 102.977 241.831 100.435C241.834 100.427 241.839 100.42 241.844 100.412C243.8 96.8762 246.539 93.1112 246.797 92.7577C246.812 92.7399 246.817 92.7325 246.817 92.7325C246.817 92.7325 228.27 97.4151 225.475 97.9183C222.679 98.4268 219.031 99.2351 218.452 97.359C217.918 95.6355 222.641 93.617 222.922 93.4977C222.618 93.5813 216.2 95.343 215.248 92.941C214.541 91.1536 221.178 87.7726 221.375 87.6759C221.209 87.7194 218.046 88.5479 217.711 87.053C217.162 84.5948 224.048 81.7631 224.328 81.646C224.173 81.6843 221.615 82.2842 221.431 80.9086C220.977 77.5023 244.66 68.0605 251.897 65.4042C259.143 62.7501 284.677 51.867 285.195 52.5965Z" fill="#F8AE9D"/>
<defs>
<linearGradient id="paint0_linear_129:780" x1="93.4853" y1="268.511" x2="269.403" y2="-159.208" gradientUnits="userSpaceOnUse">
<stop stop-color="white"/>
<stop offset="1" stop-color="#EEEEEE"/>
</linearGradient>
</defs>
</svg>
