<svg width="594" height="41" viewBox="0 0 594 41" fill="none" xmlns="http://www.w3.org/2000/svg">
<path fill-rule="evenodd" clip-rule="evenodd" d="M252.278 36.2751C224.372 34.9584 196.793 33.3395 169.9 31.5695C131.829 29.0657 93.7723 26.4756 55.9454 22.3745C44.0383 21.0795 31.9465 20.2593 20.1139 18.6405C12.6861 17.626 2.83701 16.18 1.54445 15.8778C0.86838 15.7052 0.573436 15.4459 0.478131 15.3596C-0.191978 14.7552 -0.0697074 14.1727 0.308532 13.7194C0.460423 13.5251 0.844511 13.0501 1.91073 12.9853C73.2163 8.5605 146.13 17.1943 217.522 18.1008C341.328 19.6549 468.887 13.4817 591.711 0.0130196C592.783 -0.094902 593.825 0.444859 593.974 1.24348C594.153 2.02053 593.379 2.776 592.307 2.88393C469.275 16.3742 341.507 22.569 217.462 20.9934C150.928 20.1516 83.0803 12.5752 16.4536 15.1654C17.9844 15.3812 19.4855 15.5972 20.8555 15.7914C32.6405 17.4103 44.6816 18.2088 56.541 19.5039C94.2875 23.6049 132.266 26.1951 170.287 28.6773C217.463 31.7855 266.693 34.462 316.311 35.7139C334.061 35.5196 351.752 35.3253 369.443 35.0878C407.714 34.5698 446.163 33.0589 484.345 31.0299C495.841 30.404 507.337 29.7565 518.833 29.1953C522.645 29.001 532.473 28.4399 533.843 28.4831C535.541 28.5263 535.868 29.5622 535.898 29.7349C535.988 30.1234 535.928 30.6631 535.094 31.1164C535.005 31.1811 534.469 31.3971 533.277 31.5266C463.854 39.1675 389.725 40.4408 316.371 38.6061C238.995 39.4047 161.322 39.7503 84.1436 40.1172C83.0387 40.1172 82.1362 39.4696 82.1273 38.6709C82.1213 37.8723 83.0118 37.2247 84.1167 37.2031C140.001 36.9441 196.168 36.6852 252.278 36.2751Z" fill="#C8B2D8"/>
</svg>
